<?xml version="1.0" encoding="UTF-8"?>
<svg id="Layer_1" data-name="Layer 1" xmlns="http://www.w3.org/2000/svg" viewBox="0 0 831.52 229.7">
  <defs>
    <style>
      .cls-1 {
        fill: #1474bb;
      }

      .cls-1, .cls-2, .cls-3, .cls-4, .cls-5 {
        stroke-width: 0px;
      }

      .cls-2 {
        fill: #20ace1;
      }

      .cls-3 {
        fill: #1274bb;
      }

      .cls-4 {
        fill: #ae1f25;
      }

      .cls-5 {
        fill: #fff;
      }
    </style>
  </defs>
  <path class="cls-4" d="m0,80.44h46.07c34.18,0,57.5,21.08,57.5,52.69s-23.34,52.69-57.5,52.69H0v-105.38h0Zm45.17,88.82c23.48,0,38.69-14.3,38.69-36.13s-15.2-36.13-38.69-36.13h-25.59v72.25h25.59Z"/>
  <path class="cls-4" d="m197.8,151.66h-63.08c2.26,11.74,12.05,19.27,26.04,19.27,9.03,0,16.1-2.86,21.82-8.74l10.08,11.6c-7.22,8.58-18.51,13.1-32.37,13.1-26.94,0-44.41-17.31-44.41-41.25s17.61-41.09,41.55-41.09,40.64,16.41,40.64,41.55c0,1.5-.15,3.76-.3,5.57m-63.21-12.51h45.61c-1.5-11.6-10.39-19.56-22.73-19.56s-21.08,7.83-22.89,19.56"/>
  <polygon class="cls-4" points="289.92 105.43 255.45 185.82 236.03 185.82 201.56 105.43 221.13 105.43 246.11 165.05 271.86 105.43 289.92 105.43"/>
  <path class="cls-4" d="m366.39,138.7v47.12h-17.77v-9.79c-4.52,6.93-13.25,10.84-25.29,10.84-18.37,0-29.96-10.08-29.96-24.08s9.03-23.94,33.42-23.94h20.77v-1.21c0-10.99-6.62-17.46-20.03-17.46-9.03,0-18.37,3.01-24.39,7.98l-7.38-13.7c8.58-6.62,21.08-9.93,34.02-9.93,23.18,0,36.58,10.99,36.58,34.18m-18.79,21.98v-9.33h-19.42c-12.79,0-16.25,4.81-16.25,10.69,0,6.77,5.72,11.14,15.36,11.14s17.17-4.22,20.32-12.5"/>
  <polygon class="cls-4" points="423.28 151.35 409.29 164.6 409.29 185.82 390.47 185.82 390.47 74.13 409.29 74.13 409.29 141.56 448.27 105.43 470.85 105.43 437.29 139.16 474.02 185.82 451.13 185.82 423.28 151.35"/>
  <path class="cls-4" d="m558.17,151.66h-63.08c2.26,11.74,12.05,19.27,26.04,19.27,9.03,0,16.11-2.86,21.82-8.74l10.08,11.6c-7.22,8.58-18.51,13.1-32.37,13.1-26.94,0-44.4-17.31-44.4-41.25s17.61-41.09,41.55-41.09,40.64,16.41,40.64,41.55c0,1.5-.15,3.76-.3,5.57m-63.23-12.51h45.61c-1.5-11.6-10.39-19.56-22.73-19.56s-21.08,7.83-22.89,19.56"/>
  <path class="cls-4" d="m655.71,139.76v46.07h-18.82v-43.66c0-14.3-7.07-21.22-19.12-21.22-13.39,0-22.43,8.13-22.43,24.23v40.64h-18.82v-80.39h17.91v10.39c6.17-7.38,15.96-11.29,27.7-11.29,19.27,0,33.57,10.99,33.57,35.23"/>
  <path class="cls-4" d="m727.95,181.46c-4.52,3.62-11.29,5.43-18.06,5.43-17.61,0-27.7-9.34-27.7-27.1v-38.69h-13.25v-15.05h13.25v-18.37h18.82v18.37h21.53v15.05h-21.53v38.24c0,7.83,3.91,12.05,11.14,12.05,3.91,0,7.67-1.05,10.53-3.31l5.27,13.39h0Z"/>
  <polygon class="cls-1" points="553.61 210.31 553.61 229.58 552.22 229.58 552.22 220.41 539.33 220.41 539.33 229.58 537.92 229.58 537.92 210.31 539.33 210.31 539.33 219.18 552.22 219.18 552.22 210.31 553.61 210.31"/>
  <path class="cls-1" d="m576.37,224.15h-11.17l-2.45,5.43h-1.51l8.86-19.27h1.4l8.86,19.27h-1.51l-2.48-5.43Zm-.53-1.18l-5.07-11.12-5.04,11.12h10.11Z"/>
  <path class="cls-1" d="m586.02,227.1l.63-1.05c1.32,1.37,3.77,2.42,6.35,2.42,3.85,0,5.56-1.68,5.56-3.77,0-5.79-12.03-2.31-12.03-9.42,0-2.72,2.09-5.12,6.83-5.12,2.12,0,4.32.65,5.81,1.73l-.53,1.13c-1.59-1.1-3.55-1.63-5.29-1.63-3.75,0-5.43,1.73-5.43,3.85,0,5.79,12.03,2.37,12.03,9.35,0,2.72-2.18,5.09-6.94,5.09-2.86,0-5.62-1.08-7.02-2.62"/>
  <polygon class="cls-1" points="612.27 211.57 605.34 211.57 605.34 210.31 620.62 210.31 620.62 211.57 613.68 211.57 613.68 229.58 612.27 229.58 612.27 211.57"/>
  <path class="cls-1" d="m639.16,224.15h-11.17l-2.45,5.43h-1.51l8.86-19.27h1.4l8.86,19.27h-1.51l-2.48-5.43Zm-.53-1.18l-5.07-11.12-5.04,11.12h10.11Z"/>
  <polygon class="cls-1" points="666.46 210.31 666.46 229.58 665.3 229.58 652.17 212.84 652.17 229.58 650.77 229.58 650.77 210.31 651.95 210.31 665.05 227.04 665.05 210.31 666.46 210.31"/>
  <polygon class="cls-1" points="690.59 228.31 690.59 229.58 677.3 229.58 677.3 210.31 690.18 210.31 690.18 211.57 678.7 211.57 678.7 219.18 688.96 219.18 688.96 220.41 678.7 220.41 678.7 228.31 690.59 228.31"/>
  <path class="cls-1" d="m697.88,227.1l.63-1.05c1.32,1.37,3.77,2.42,6.35,2.42,3.85,0,5.56-1.68,5.56-3.77,0-5.79-12.03-2.31-12.03-9.42,0-2.72,2.09-5.12,6.83-5.12,2.12,0,4.32.65,5.81,1.73l-.53,1.13c-1.59-1.1-3.55-1.63-5.29-1.63-3.75,0-5.43,1.73-5.43,3.85,0,5.79,12.03,2.37,12.03,9.35,0,2.72-2.18,5.09-6.94,5.09-2.86,0-5.62-1.08-7.02-2.62"/>
  <path class="cls-1" d="m720.35,206.9c0-.58.46-1.08,1.08-1.08s1.08.5,1.08,1.08-.46,1.08-1.08,1.08-1.08-.47-1.08-1.08m.36,3.41h1.4v19.27h-1.4v-19.27Z"/>
  <path class="cls-3" d="m822.32,103.96c.95-22.1-18.49-36.18-25.94-38.19,10.67,4.99,17.91,15.43,18.38,27.21.26,6.38-1.35,13.78-6.56,21.85,0,0-13.5,19.92-41.64,5.22,0,0-19.62-12.17-33.54-56.15,0,0,1.9,43.49,27.35,64.81,0,0,19.76,16.55,43.02,8.25,0,0,17.99-10.88,18.94-32.98"/>
  <path class="cls-2" d="m750.26,55.6s17.36-3.31,46.13,10.15c7.45,2.03,26.89,16.1,25.94,38.19-.95,22.1-18.94,32.98-18.94,32.98,11.64-4.16,20.67-13.48,24.84-25.11,3.93-10.97,6.34-27.2-4.73-41.86-5.07-6.72-15.5-13.3-23.37-16.25-10.65-3.98-27.56-7.94-52.7-4.68l1.01,6.83c.6-.08,1.22-.17,1.83-.26"/>
  <path class="cls-2" d="m682.76,14.49c-2.57,6.88-3.69,17.94,7.18,29.64,0,0,12.41,16.09,51.93,12.52l-1.24-6.8c-34.52,3.3-47.62-10.25-47.62-10.25,0,0-11.53-12.84-5.4-24.63,1.83-3.54,4.98-6.22,8.7-7.66,5.61-2.18,16.01-4.07,27.85,4.44,9.39,6.75,15.13,23.57,18.44,37.91.82,4.23,1.92,16,2.31,18.88,5.49,40.69,27.81,47.1,27.81,47.1-22.71-13.59-25.47-47.85-25.47-47.85,0,0-.58-7.66-.96-11.66l-.87-6.83c-1.67-10.37-5.21-22.58-12.53-33.41-4.73-6.99-11.64-12.28-19.74-14.63-5.66-1.64-12.47-2.08-19.29,1.15-5.13,2.44-9.11,6.75-11.1,12.07"/>
  <path class="cls-2" d="m805.38,89.92c0,11.91-9.66,21.57-21.57,21.57s-21.57-9.66-21.57-21.57,9.66-21.57,21.57-21.57,21.57,9.66,21.57,21.57"/>
  <path class="cls-3" d="m795.78,89.47c0,6.59-5.35,11.94-11.94,11.94s-11.94-5.35-11.94-11.94,5.35-11.94,11.94-11.94,11.94,5.35,11.94,11.94"/>
  <polyline class="cls-5" points="767.29 97.49 772.52 94.82 773.34 96.16 768.45 99.57"/>
  <polyline class="cls-5" points="769.42 100.79 772.88 104.29 776.28 99.42 773.82 96.93"/>
</svg>
