<svg xmlns="http://www.w3.org/2000/svg" height="1024" preserveAspectRatio="none" style="display: block;" version="1.1" viewBox="0 0 2048 2048" width="1024">
<path d="M 0 0 L 2048 0 L 2048 2048 L 0 2048 L 0 0 z" fill="rgb(244,241,225)" transform="translate(0,0)"></path>
<path d="M 1261.44 103.393 C 1262.71 103.243 1262.32 103.262 1263.51 103.217 C 1279.23 102.622 1294.93 104.576 1309.81 109.84 C 1328.06 116.297 1477.23 196.7 1487.29 206.398 C 1499.34 218.016 1504.71 236.771 1506.87 252.991 C 1509.88 275.512 1508.85 298.985 1509.34 321.668 L 1511.44 478.089 L 1517.43 1047.62 C 1594.98 1030.23 1663.31 1053.62 1719.58 1108.69 C 1795.78 1183.27 1811.24 1278.26 1812.86 1379.36 C 1893.08 1417.35 1880.31 1406.06 1884.04 1493.47 C 1887.83 1580.32 1888.06 1667.28 1884.71 1754.15 C 1884.11 1775.56 1883.28 1796.97 1882.24 1818.37 C 1881.72 1828.48 1881.3 1842.88 1879.69 1852.49 C 1878.17 1854.31 1876.56 1856.06 1874.88 1857.74 C 1844.27 1888.51 1777.74 1926.64 1730.28 1930.7 C 1719.93 1931.58 1687.59 1922.02 1675.82 1918.77 C 1602.86 1898.59 1530.73 1871.71 1461.08 1842.06 C 1408.77 1820.23 1357.6 1795.74 1307.78 1768.7 C 1298.54 1763.56 1276.44 1752.21 1269.78 1745.23 C 1264.08 1739.25 1263.24 1708.51 1262.25 1699.22 C 1255.56 1636.63 1253.11 1574.13 1254.18 1511.21 C 1254.71 1479.77 1257.36 1449.95 1259.12 1418.74 C 1252.2 1421.57 1241.35 1427.94 1234.47 1431.73 C 1219.85 1439.9 1205.09 1447.82 1190.22 1455.51 L 1012.43 1545.24 L 669.664 1719.12 C 608.816 1750.43 547.646 1781.29 486.649 1812.31 C 446.163 1832.89 418.355 1854.48 373.047 1829.93 C 325.092 1803.96 274.787 1780.12 227.387 1752.96 C 223.599 1750.38 218.376 1747.59 214.984 1744.52 C 179.883 1712.78 185.8 1654.6 184.661 1611.84 L 181.105 1476.18 L 169.236 1080.91 L 161.825 857.867 C 160.927 834.24 160.159 810.607 159.52 786.971 C 159.039 770.107 158.098 752.194 159.937 735.068 C 165.753 680.914 200.061 623.888 247.233 595.919 C 263.408 586.328 282.741 577.493 299.56 569.014 C 335.124 551.108 370.789 533.401 406.552 515.895 L 681.875 379.071 L 1063.89 190.436 C 1115.33 165.434 1166.15 138.715 1218.23 115.109 C 1232.62 108.588 1245.77 104.934 1261.44 103.393 z" fill="rgb(26,58,40)" transform="translate(0,0)"></path>
<path d="M 1393.18 302.159 L 1394.16 302.095 C 1415.71 300.846 1419.41 315.025 1420.13 333.46 C 1421.56 370.135 1421.17 407.007 1421.38 443.728 L 1423.1 617.553 L 1425.9 1102.7 C 1386 1149.81 1376.42 1198.15 1373.99 1258.21 C 1350.43 1271.31 1323.57 1282.99 1299.63 1295.84 C 1291.39 1300.27 1286.61 1308.37 1280.56 1311.49 L 781.015 1564.04 L 530.025 1691.1 C 504.935 1703.52 477.853 1719.8 452.775 1731.07 C 430.501 1738.75 434.174 1699.58 433.936 1687.59 C 433.703 1675.88 433.711 1664.05 433.619 1652.33 C 433.403 1603.61 432.88 1554.89 432.048 1506.17 L 423.065 994.051 L 421.255 875.363 C 420.504 837.776 410.233 782.21 450.169 759.444 C 468.29 749.114 489.894 740.642 508.881 731.059 L 684.877 643.531 C 854.792 558.053 1025.84 474.852 1197.98 393.95 C 1244.51 371.485 1291.15 349.268 1337.91 327.301 C 1353 320.176 1378.96 305.619 1393.18 302.159 z" fill="rgb(13,150,104)" transform="translate(0,0)"></path>
<path d="M 930.06 671.255 C 973.697 668.286 1013.62 728.288 1040.11 758.331 L 1158.16 893.548 L 1217.45 962.577 C 1234.22 981.738 1257.02 1004.93 1269.67 1026.63 C 1277.38 1042.99 1273.77 1060.13 1268.97 1075.75 C 1255.33 1120.07 1222.98 1131.53 1184.7 1150.47 L 1116.79 1184.61 C 1100.97 1192.63 1085.4 1201.43 1069.63 1209.56 L 882.215 1304.69 C 842.238 1324.82 803.044 1346.61 763.115 1366.49 C 724.963 1385.49 694.988 1412.21 652.164 1387.2 C 619.453 1368.09 624.823 1328.24 636.07 1298.16 C 651.366 1257.23 670.657 1217.25 687.691 1177.04 L 805.546 899.737 C 821.867 861.116 838.165 822.7 854.318 783.81 C 865.809 756.147 876.562 722.603 890.94 696.487 C 898.442 682.86 914.92 674.437 930.06 671.255 z" fill="rgb(26,58,40)" transform="translate(0,0)"></path>
<path d="M 954.81 706.138 C 970.239 705.404 973.894 708.991 983.902 720.214 C 998.841 736.967 1013.39 754.038 1028.35 770.789 C 1084.01 833.476 1138.9 896.842 1193.01 960.874 C 1212.37 983.57 1238.71 1009.12 1254.27 1033.74 C 1259.85 1045.16 1256.86 1059.1 1253.76 1070.09 C 1242.83 1108.92 1208.99 1119.52 1175.88 1135.46 C 1157.6 1144.43 1139.39 1153.54 1121.26 1162.78 L 882.364 1285.49 C 852.013 1300.12 821.962 1315.37 792.23 1331.23 C 764.465 1346.37 736.49 1362.98 707.782 1376.2 C 704.095 1377.69 691.741 1383.28 688.304 1380.7 C 670.798 1366.52 675.915 1336.5 682.159 1318.17 C 699.556 1267.09 722.389 1218.58 743.124 1168.86 C 747.784 1157.69 754.042 1146.84 758.771 1135.68 C 780.089 1085.32 802.094 1034.95 823.207 984.543 L 897.944 803.092 C 904.616 787.036 911.175 770.933 917.622 754.785 C 926.574 732.36 929.317 713.835 954.81 706.138 z" fill="rgb(13,150,104)" transform="translate(0,0)"></path>
<path d="M 903.699 930.97 C 906.715 931.121 909.823 931.627 912.595 932.885 C 958.912 953.914 1007.04 970.54 1053.28 991.791 C 1057.54 993.75 1065.94 997.44 1067.57 1001.88 C 1065.41 1013.2 1042.74 1037.16 1034.47 1047.01 C 1016.74 1068.08 999.129 1089.26 981.649 1110.55 C 967.996 1126.75 931.239 1177.95 912.129 1191.88 C 909.998 1192.36 903.618 1190.85 903.125 1188.91 C 898.816 1171.99 900.25 1145.64 899.851 1128.05 C 898.637 1086.12 897.993 1044.17 897.921 1002.21 C 897.804 981.667 896.433 959.716 897.189 939.231 C 897.326 935.539 900.822 933.169 903.699 930.97 z" fill="rgb(26,58,40)" transform="translate(0,0)"></path>
<path d="M 915.411 952.78 C 958.2 969.903 1000.73 987.677 1042.97 1006.1 C 1036.32 1016.32 1023.74 1030.87 1015.86 1040.55 L 971.738 1095.04 C 951.36 1120.66 935.42 1136.85 916.657 1164.83 C 915.73 1142.72 916.971 1118.87 916.549 1096.36 C 915.661 1048.93 913.919 1000.22 915.411 952.78 z" fill="rgb(13,150,104)" transform="translate(0,0)"></path>
<path d="M 930.861 689.059 C 935.877 688.721 937.1 688.698 942.047 689.465 L 942.485 690.611 C 934.511 696.176 922.563 700.312 917.814 709.572 C 910.556 723.723 903.218 743.427 897.144 758.298 C 879.114 803.358 860.758 848.287 842.079 893.081 C 809.872 969.778 776.77 1049.17 743.244 1125.13 C 726.285 1162.57 709.965 1200.3 694.291 1238.29 C 683.556 1263.67 672.517 1289.45 663.639 1315.56 C 655.986 1338.07 656.275 1348.94 659.828 1371.64 L 658.423 1372.49 C 652.111 1369.5 649.495 1362.84 647.43 1356.63 C 639.915 1334.01 650.741 1308.61 659.14 1287.28 C 670.206 1258.3 684.189 1230.21 695.96 1201.61 C 718.042 1147.96 742.639 1095.08 764.891 1041.57 L 868.937 792.869 C 880.996 764.835 891.133 735.659 904.379 708.397 C 909.422 698.017 920.085 692.24 930.861 689.059 z" fill="rgb(13,150,104)" transform="translate(0,0)"></path>
<path d="M 1294.43 1331.39 C 1340.39 1329.74 1387.11 1347.14 1430.04 1362.05 C 1536.37 1398.98 1633.97 1453.71 1734.29 1503.61 C 1740.96 1548.06 1742.85 1609.84 1743.31 1654.84 C 1744.76 1727.97 1742.05 1801.11 1735.2 1873.92 C 1734.58 1880.39 1732.42 1909.62 1730.57 1913.15 C 1726.74 1914.59 1725.89 1913.6 1721.1 1912.74 C 1696.64 1907.77 1660 1896.83 1636 1889.14 C 1540.59 1858.57 1445.77 1818.74 1355.69 1775.02 C 1331.72 1763.39 1307.43 1748.52 1283.13 1736.25 C 1280.32 1722.18 1279.04 1705.88 1277.91 1691.49 C 1274.1 1642.91 1270.52 1593.16 1270.34 1544.47 C 1270.53 1513.34 1271.58 1482.22 1273.48 1451.14 C 1275 1422.41 1276.63 1392.7 1280.71 1364.25 C 1281.88 1356.09 1282.38 1340.88 1284.94 1333.72 C 1287.78 1331.46 1290.68 1331.71 1294.43 1331.39 z" fill="rgb(245,158,11)" transform="translate(0,0)"></path>
<path d="M 1295.15 1348.4 C 1317.18 1347.66 1338.7 1353.71 1359.83 1358.69 C 1445.52 1378.89 1526.76 1418.12 1605.92 1455.99 C 1636.67 1470.7 1693.6 1497.01 1719.79 1516.38 C 1724.63 1556.43 1726.56 1607.07 1727.27 1647.54 C 1728.49 1698.49 1727.74 1749.46 1725.04 1800.35 C 1723.47 1829.8 1721.27 1868.94 1716.92 1897.58 C 1705.93 1895.68 1695.02 1892.58 1684.3 1889.56 C 1547.69 1851.11 1417.87 1793.97 1293.5 1726.76 C 1281.94 1629.62 1281.27 1519.57 1286.18 1421.44 L 1288.63 1375.69 C 1289 1368.61 1289.08 1358.05 1290.1 1351.41 C 1292.33 1348.34 1290.86 1349.52 1295.15 1348.4 z" fill="rgb(26,58,40)" transform="translate(0,0)"></path>
<path d="M 1301.19 1363.94 C 1363.37 1368.92 1439.8 1399.4 1497.21 1422.63 C 1543.43 1441.33 1590.4 1461.48 1635.11 1483.66 C 1655.26 1493.66 1690.66 1510.2 1708.42 1522.48 C 1712.85 1550.72 1713.3 1583.36 1714.83 1612.11 C 1719.67 1703.26 1715.73 1790.18 1707.78 1880.92 L 1706.89 1882.75 C 1701.36 1883.54 1670.21 1872.54 1662.57 1870.2 C 1561.72 1839.3 1462.47 1800.24 1368.73 1751.8 C 1349.79 1742.01 1320.46 1729.76 1304.43 1716.46 C 1302.85 1706.67 1301.68 1696.23 1300.78 1686.35 C 1291.96 1589.76 1293.19 1491.81 1298.86 1395.06 C 1299.47 1384.62 1299.81 1374.33 1301.19 1363.94 z" fill="rgb(245,158,11)" transform="translate(0,0)"></path>
<path d="M 1473.16 1466.41 C 1542.05 1465.2 1582.75 1540.03 1566.68 1601.53 C 1563.46 1613.83 1533.13 1627.12 1522.08 1630.96 C 1523.82 1655.22 1525.07 1692.38 1524.01 1716.16 C 1518.62 1723.5 1504.93 1733.02 1497.19 1738.81 C 1491.51 1743.38 1488.38 1745.99 1482.06 1749.63 C 1468.78 1747.6 1461.22 1746.23 1450.85 1737.3 C 1448.46 1725.1 1448.85 1713.28 1448.24 1701.03 C 1447.02 1676.97 1447.77 1650.65 1444.97 1626.83 C 1398.52 1593.98 1392.48 1532.12 1426.57 1488.12 C 1438.23 1473.07 1455.12 1467.9 1473.16 1466.41 z" fill="rgb(26,58,40)" transform="translate(0,0)"></path>
<path d="M 1488.83 1488.23 C 1499.98 1487.32 1509.54 1491.66 1518.2 1498.35 C 1539.55 1514.82 1550.62 1540.31 1553.55 1566.62 C 1554.43 1574.6 1555.97 1587.81 1550.28 1594.12 C 1543.72 1601.4 1529.09 1603.76 1519.82 1604.77 C 1507.23 1604.61 1497.59 1603.53 1486.24 1596.73 C 1457.07 1579.25 1443.93 1535.95 1461.74 1506.23 C 1467.81 1496.1 1477.43 1490.66 1488.83 1488.23 z" fill="rgb(146,109,21)" transform="translate(0,0)"></path>
<path d="M 1504.5 1636.03 L 1506.27 1636.48 C 1507.05 1642.19 1506.99 1654.46 1507.13 1660.68 C 1507.49 1676.72 1507.76 1692.77 1507.94 1708.83 C 1502.78 1712.24 1498.04 1716.18 1493.21 1720.04 C 1491.26 1717.09 1490.04 1651.08 1488.94 1640.79 C 1494.89 1639.31 1498.76 1638.04 1504.5 1636.03 z" fill="rgb(146,109,21)" transform="translate(0,0)"></path>
<path d="M 1460.32 1639.29 C 1464.99 1640.53 1469.46 1641.38 1474.19 1642.33 C 1474.19 1671.33 1476.64 1703.16 1475.86 1731.17 C 1471 1729.9 1467.71 1728.23 1463.17 1726.19 C 1463.05 1696.85 1461.66 1668.6 1460.32 1639.29 z" fill="rgb(245,158,11)" transform="translate(0,0)"></path>
<path d="M 1423.37 1528.89 C 1425.73 1529.69 1427.55 1530.25 1429.84 1531.28 C 1429.9 1561.7 1435.16 1586.8 1463.63 1602.73 L 1451.67 1609.94 C 1421.38 1590.3 1418.48 1561.9 1423.37 1528.89 z" fill="rgb(245,158,11)" transform="translate(0,0)"></path>
<path d="M 1450.96 1489.42 C 1448.69 1494.12 1446.63 1495.69 1443.2 1499.57 C 1434.1 1509.9 1430.83 1517.44 1429.84 1531.28 C 1427.55 1530.25 1425.73 1529.69 1423.37 1528.89 C 1429.35 1509.63 1434.02 1501.22 1450.96 1489.42 z" fill="rgb(225,198,132)" transform="translate(0,0)"></path>
<path d="M 1478.34 1615.9 C 1482.38 1615.62 1484.99 1615.35 1488.02 1618.36 C 1486.32 1621.28 1486.42 1620.47 1482.44 1622.09 C 1479.1 1622.85 1475.76 1623.59 1472.87 1622 C 1473.87 1618.59 1474.96 1618.7 1478.34 1615.9 z" fill="rgb(225,198,132)" transform="translate(0,0)"></path>
<path d="M 251.501 622.926 C 261.86 626.242 278.139 634.534 288.536 639.544 C 308.185 648.821 327.606 658.572 346.783 668.788 C 361.157 676.409 375.55 684.785 390.141 691.801 C 351.832 723.711 327.785 760.306 319.185 810.163 C 315.286 832.765 318.469 858.446 318.856 881.498 L 322.661 1035.06 L 326.902 1269.47 C 327.539 1298.04 326.921 1333.53 328.789 1361.28 C 328.841 1386.71 329.16 1412.14 329.745 1437.56 C 330.554 1506.2 331.779 1574.83 333.42 1643.46 C 333.776 1663.68 334.011 1683.9 334.124 1704.12 C 334.221 1714.64 334.296 1737.22 335.881 1746.47 C 336.406 1756.24 337.414 1763.38 339.64 1773.02 C 340.18 1775.36 342.551 1785.26 342.664 1787.25 C 339.145 1786.09 314.326 1772.86 309.541 1770.26 C 285.033 1756.83 258.181 1745.46 235.096 1729.77 C 221.969 1720.85 211.509 1696.38 210.58 1680.89 C 209.044 1655.28 209.123 1629.4 208.235 1603.73 L 202.471 1385.52 L 188.893 949.674 C 187.21 898.51 183.379 847.167 182.834 796 C 182.55 769.313 179.453 743.834 185.95 717.727 C 194.482 683.447 220.819 641.189 251.501 622.926 z" fill="rgb(13,150,104)" transform="translate(0,0)"></path>
<path d="M 1864.09 1460.65 L 1864.77 1460.9 C 1866.98 1463.86 1868.54 1560.74 1868.66 1573.64 C 1869.47 1663.57 1869 1754.62 1862.03 1844.34 C 1844.7 1862.97 1776.77 1905.63 1750.96 1906.41 C 1750.93 1896.39 1752.98 1879.93 1753.92 1869.36 C 1756.07 1847.13 1757.72 1824.84 1758.87 1802.53 C 1763.25 1709.41 1763.15 1600.89 1752.62 1508.72 C 1789.83 1502.03 1835.45 1485.57 1864.09 1460.65 z" fill="rgb(245,158,11)" transform="translate(0,0)"></path>
<path d="M 1454.92 1270.13 C 1466.13 1269.94 1483.04 1269.79 1494.12 1271.61 C 1549.88 1280.77 1608.96 1301.92 1660.94 1323.4 C 1684.07 1332.96 1707.09 1345.98 1730.64 1355.63 C 1729.99 1381.85 1730.64 1409.59 1730.62 1435.98 C 1731.43 1436.87 1732.25 1437.75 1733.08 1438.63 C 1743.17 1449.2 1757.1 1453.18 1771.33 1453.34 C 1813.58 1453.84 1811.82 1430.41 1812.2 1397.9 C 1824.11 1402.95 1856.57 1415.19 1860.74 1428.57 C 1861.8 1431.98 1860.4 1438.23 1858.04 1440.98 C 1832.38 1470.88 1780.48 1485.63 1743.37 1493.52 C 1734.73 1489.52 1724.74 1482.42 1716.09 1477.66 C 1647.71 1440.02 1579.58 1407.47 1507.88 1376.88 C 1439.45 1347.69 1382.57 1323.99 1308.15 1314.43 C 1321.84 1307.36 1334.98 1299.36 1348.92 1292.27 C 1357.43 1287.46 1366.51 1282.05 1375.33 1277.99 C 1375.21 1281.78 1375.17 1290.54 1374.39 1293.86 C 1370.96 1327.39 1435.41 1330.68 1454.99 1303.16 L 1454.92 1270.13 z" fill="rgb(245,158,11)" transform="translate(0,0)"></path>
<path d="M 1555.68 1061.42 C 1619.93 1053.85 1690.91 1097.99 1728.56 1147.12 C 1777.04 1210.38 1794.08 1287.06 1793.74 1365.48 C 1793.65 1384.91 1795.45 1407.66 1792.84 1426.84 C 1777.35 1438.83 1764.12 1435.52 1747.73 1428.11 C 1747.53 1337.68 1753.87 1255.92 1695.22 1178.05 C 1691.03 1172.81 1686.63 1167.73 1682.03 1162.84 C 1653.05 1132.25 1608.54 1105.31 1565.39 1104.44 C 1532.74 1104.01 1501.26 1116.59 1477.91 1139.41 C 1436.77 1179.26 1438.61 1235.78 1437.8 1288.88 C 1428.74 1298.54 1416.96 1302.34 1403.59 1301.28 C 1398.03 1300.84 1393.01 1297.39 1392.92 1291.21 C 1392.3 1231.75 1392.88 1171.44 1433.2 1123.56 C 1467.18 1083.2 1502.92 1066.41 1555.68 1061.42 z" fill="rgb(244,241,225)" transform="translate(0,0)"></path>
<path d="M 1550.96 1123.38 C 1589.84 1117.39 1630.77 1138.96 1658.55 1164.45 C 1705.69 1207.72 1726.01 1273.77 1729.22 1336.16 C 1722.57 1333.73 1716.18 1330.63 1709.74 1327.66 C 1659 1304.15 1575.74 1269.88 1520.29 1260.6 C 1519.62 1217.17 1519.93 1173.74 1521.25 1130.32 C 1532.29 1126.43 1539.38 1124.87 1550.96 1123.38 z" fill="rgb(244,241,225)" transform="translate(0,0)"></path>
<path d="M 504.508 658.924 C 505.548 659.077 504.929 658.882 506.157 659.964 C 506.057 678.278 506.403 696.592 507.196 714.889 C 470.967 734.678 430.223 741.696 412.306 782.775 C 403.419 803.153 404.087 815.477 404.146 837.325 C 404.072 849.452 404.295 861.58 404.815 873.696 L 342.387 906.083 L 340.418 906.154 C 339.145 901.187 339.857 886.749 339.794 880.69 C 339.429 845.727 335.427 822.987 347.096 789.011 C 358.309 756.364 376.283 729.192 405.08 709.205 C 416.069 701.577 434.54 693.075 446.761 687.137 L 504.508 658.924 z" fill="rgb(13,150,104)" transform="translate(0,0)"></path>
<path d="M 1044.1 225.861 C 1061.4 231.498 1090.09 248.253 1106.38 257.315 C 1131.83 271.472 1159.32 286.754 1183.52 302.793 C 1149.99 316.644 1112.36 337.513 1079.32 353.492 C 1076.91 353.793 945.235 282.496 941.572 277.268 C 944.265 273.302 1032.52 231.114 1044.1 225.861 z" fill="rgb(13,150,104)" transform="translate(0,0)"></path>
<path d="M 781.018 358.099 C 793.338 359.571 899.523 421.892 913.022 432.829 C 904.041 438.295 884.399 447.334 874.26 452.295 C 851.27 463.784 828.078 474.865 804.696 485.532 C 797.818 481.83 790.028 477.192 783.363 473.039 C 747.484 450.682 707.936 432.233 672.042 410.23 C 680.324 405.246 707.907 392.586 717.472 387.845 C 732.336 380.478 766.355 362.132 781.018 358.099 z" fill="rgb(13,150,104)" transform="translate(0,0)"></path>
<path d="M 1174.9 161.856 C 1181.22 160.768 1198.08 170.088 1203.75 173.577 C 1240.89 196.42 1281.64 215.399 1318.4 238.507 C 1290.44 249.173 1244.52 272.758 1216.65 286.31 C 1212.98 288.264 1212.27 288.796 1208.29 289.689 C 1205.23 288.769 1193.82 281.428 1190.51 279.406 C 1166.36 264.638 1141.86 250.436 1117.05 236.81 C 1106.62 231.018 1081.61 218.256 1073.21 211.719 C 1100.85 196.125 1144.77 176.799 1174.9 161.856 z" fill="rgb(13,150,104)" transform="translate(0,0)"></path>
<path d="M 912.798 293.038 C 923.425 291.989 1031.68 354.999 1052.13 366.856 C 1047.32 369.07 1042.14 371.122 1037.24 373.159 C 1005.75 386.236 975.67 402.376 945.462 418.207 C 943.485 419.427 941.283 420.913 939.056 419.632 C 926.861 412.771 915.222 404.691 903.103 397.667 C 873.58 380.556 844.106 363.083 813.848 347.322 C 811.685 346.196 810.269 345.204 809.42 343.002 C 812.68 338.637 903.55 296.194 912.798 293.038 z" fill="rgb(13,150,104)" transform="translate(0,0)"></path>
<path d="M 383.956 553.841 C 395.672 555.193 505.613 615.958 518.727 626.329 C 482.635 644.113 444.591 661.545 409.302 679.407 C 407.396 678.81 397.733 672.388 394.783 670.718 C 382.268 663.773 369.706 656.912 357.099 650.134 C 330.396 635.741 299.513 622.337 274.16 607.245 L 383.956 553.841 z" fill="rgb(13,150,104)" transform="translate(0,0)"></path>
<path d="M 643.859 423.923 C 659.231 425.433 759.318 485.416 782.167 497.649 C 766.068 507.285 750.769 513.55 734.454 521.798 C 715.751 531.255 697.078 540.907 678.336 550.362 C 677.711 550.661 675.479 550.891 675.153 550.683 C 668.482 546.428 652.797 536.652 646.657 533.116 L 541.694 473.706 C 558.37 464.994 575.287 457.47 591.952 449.047 C 609.945 439.951 625.127 431.67 643.859 423.923 z" fill="rgb(13,150,104)" transform="translate(0,0)"></path>
<path d="M 517.814 488.076 C 531.311 493.477 553.614 506.644 567.233 514.248 C 594.065 529.228 624.544 545.092 649.818 562.186 C 616.581 578.643 577.178 597.339 544.885 615.001 C 539.723 611.431 534.248 607.818 528.82 604.683 C 489.958 582.242 449.964 562.13 411.219 539.481 C 448.224 520.941 479.945 505.039 517.814 488.076 z" fill="rgb(13,150,104)" transform="translate(0,0)"></path>
<path d="M 413.54 1625.09 L 414.055 1625.11 C 418.545 1631.54 411.464 1717.64 420.599 1733.3 C 440.626 1767.64 478.7 1737.7 506.881 1722.66 L 506.968 1776.06 C 493.007 1784.1 475.336 1792.35 460.687 1799.55 C 447.347 1806.24 430.013 1815.08 415.1 1816.45 C 402.405 1817.62 389.785 1813.53 380.197 1805.12 C 373.1 1798.75 367.76 1790.66 364.691 1781.63 C 354.577 1752.78 357.578 1687.24 356.061 1653.54 C 375.391 1644.41 394.554 1634.93 413.54 1625.09 z" fill="rgb(13,150,104)" transform="translate(0,0)"></path>
<path d="M 1427.43 215.227 C 1433.16 214.895 1439.24 214.365 1444.96 214.647 C 1490.78 216.899 1486.79 266.589 1487.33 298.876 L 1488.24 355.817 C 1470.99 364.237 1453.6 372.348 1436.06 380.145 L 1435.53 351.305 C 1435.15 329.623 1436.48 299.935 1412.17 289.719 C 1395.39 282.671 1374.54 293.534 1358.94 300.116 C 1359.02 281.813 1357.57 264.087 1356.82 245.817 C 1369.69 237.593 1412.69 217.825 1427.43 215.227 z" fill="rgb(13,150,104)" transform="translate(0,0)"></path>
<path d="M 1255.93 126.253 C 1299.86 121.764 1331.38 145.472 1369.27 164.367 C 1385.61 172.516 1404.28 181.645 1420.09 190.322 C 1400.6 198.525 1381.24 207.015 1362 215.787 C 1357.39 218.267 1352.14 221.957 1347.7 224.886 C 1322.99 213.889 1296.02 197.68 1272.03 184.752 C 1249.68 172.706 1225.16 160.506 1203.97 146.957 C 1218.97 138.043 1238.93 129.923 1255.93 126.253 z" fill="rgb(13,150,104)" transform="translate(0,0)"></path>
<path d="M 401.244 917.841 L 402.808 918.994 C 404.815 925.65 403.639 934.261 404.206 941.188 C 405.952 962.5 403.221 995.488 406.03 1015.76 C 386.105 1026.34 365.453 1036.04 345.344 1046.45 L 344.247 1046.6 C 343.867 1046.1 343.487 1045.6 343.107 1045.1 C 342.476 1018.24 342.546 973.115 341.127 948.186 C 355.391 938.872 385.618 924.984 401.244 917.841 z" fill="rgb(13,150,104)" transform="translate(0,0)"></path>
<path d="M 403.855 1059.86 L 405.26 1060 C 407.789 1064.67 406.85 1143.6 407.968 1157.12 C 388.647 1167.27 368.561 1177.22 349.061 1187.12 L 348.06 1186.89 C 347.687 1186.45 347.315 1186.01 346.942 1185.57 C 346.414 1158.77 345.291 1114.79 345 1089.66 C 364.116 1079.43 384.287 1070.43 403.855 1059.86 z" fill="rgb(13,150,104)" transform="translate(0,0)"></path>
<path d="M 412.106 1481.83 L 412.739 1482.07 C 413.107 1482.52 413.475 1482.97 413.843 1483.42 C 413.856 1508.76 413.734 1557.91 414.58 1581.19 C 397.002 1590.46 373.469 1601.48 355.325 1609.83 C 354.256 1604.83 354.273 1581.32 354.204 1574.92 C 354.082 1553.98 353.674 1533.05 352.982 1512.12 C 370.512 1502.15 393.531 1491.69 412.106 1481.83 z" fill="rgb(13,150,104)" transform="translate(0,0)"></path>
<path d="M 406.763 1205.95 C 409.732 1210.02 409.678 1287.49 409.921 1299.1 C 390.586 1309.34 370.078 1317.8 350.671 1328.56 L 349.5 1328.25 C 348.574 1323.32 348.918 1304.01 348.85 1297.61 L 348.011 1235.56 C 357.544 1229.29 395.474 1210.78 406.763 1205.95 z" fill="rgb(13,150,104)" transform="translate(0,0)"></path>
<path d="M 409.408 1345 L 409.92 1345.16 C 411.599 1347.36 412.083 1427.67 412.155 1438.4 C 393.117 1448.85 372.621 1456.99 353.407 1467.47 L 351.983 1467.4 C 350.412 1464.31 351.013 1384.85 351.005 1374.85 C 368.743 1366.55 390.829 1354.19 409.408 1345 z" fill="rgb(13,150,104)" transform="translate(0,0)"></path>
<path d="M 640.295 591.907 L 641.289 592.407 C 643.136 597.952 642.626 636.661 643.298 645.9 C 614.239 661.856 579.473 677.773 549.565 692.468 L 548.931 692.508 C 547.409 690.391 547.33 647.572 547.093 640.054 C 577.873 622.771 609.482 608.713 640.295 591.907 z" fill="rgb(13,150,104)" transform="translate(0,0)"></path>
<path d="M 1490.26 960.668 L 1492.06 961.535 C 1495.02 967.191 1493.63 1041.29 1493.29 1053.81 C 1475.5 1061.98 1458.72 1072.19 1443.29 1084.25 L 1441.89 1084.93 C 1439.91 1082.22 1440.26 996.641 1440.03 985.185 C 1454.07 976.89 1474.53 968.846 1490.26 960.668 z" fill="rgb(13,150,104)" transform="translate(0,0)"></path>
<path d="M 1490.96 677.858 C 1491.09 677.965 1491.25 678.039 1491.35 678.181 C 1493.79 681.927 1492 762.299 1492.02 772.697 C 1477.31 781.434 1455.15 792.311 1439.62 799.038 C 1438.75 792.185 1439.42 775.104 1439.41 767.069 L 1438.96 705.035 C 1454.12 694.172 1474.06 686.961 1490.96 677.858 z" fill="rgb(13,150,104)" transform="translate(0,0)"></path>
<path d="M 912.734 458.949 C 916.448 462.43 915.32 503.895 915.697 512.921 L 824.869 556.055 L 823.652 555.019 C 822.328 546.746 822.839 516.316 822.273 505.434 C 846.501 488.954 885.567 473.042 912.734 458.949 z" fill="rgb(13,150,104)" transform="translate(0,0)"></path>
<path d="M 1313.67 266.972 C 1315 273.221 1314.77 312.674 1314.81 321.316 C 1289.31 334.048 1251.08 353.893 1225.47 363.299 C 1224.35 355.675 1224.54 320.883 1223.92 309.993 C 1231.93 304.961 1245.45 298.661 1254.22 294.389 C 1273.79 284.72 1293.62 275.578 1313.67 266.972 z" fill="rgb(13,150,104)" transform="translate(0,0)"></path>
<path d="M 778.782 525.992 C 779.815 531.413 778.973 570.558 778.859 578.685 C 764.455 587.418 743.273 596.95 727.943 604.681 C 717.08 610.159 697.204 620.575 686.712 624.187 C 685.306 608.739 686.208 586.083 686.926 570.595 C 699.761 563.795 715.311 557.487 728.538 550.894 C 745.182 542.597 761.941 533.735 778.782 525.992 z" fill="rgb(13,150,104)" transform="translate(0,0)"></path>
<path d="M 1488.11 401.931 L 1488.97 402.469 C 1490.31 405.512 1489.99 485.286 1489.95 494.574 C 1473.22 503.266 1456.33 510.937 1439.2 519.99 C 1437.03 517.528 1437.4 437.776 1437.33 426.957 C 1450.42 419.093 1473.62 408.877 1488.11 401.931 z" fill="rgb(13,150,104)" transform="translate(0,0)"></path>
<path d="M 1046.36 393.961 L 1046.88 394.16 C 1050.18 399.292 1048.24 439.579 1048.01 447.412 C 1017.8 462.656 992.566 475.463 961.423 489.098 C 958.004 485.224 958.59 446.11 958.506 438.19 C 965.206 433.646 979.52 426.8 987.216 422.879 C 1006.71 412.787 1026.43 403.145 1046.36 393.961 z" fill="rgb(13,150,104)" transform="translate(0,0)"></path>
<path d="M 776.172 1585.85 C 777.099 1586.06 776.497 1585.85 777.731 1586.96 C 778.799 1600.64 778.071 1623.33 778.042 1637.68 C 770.007 1642.94 757.11 1649.05 748.223 1653.55 C 728.05 1663.77 708.668 1673.06 688.891 1684.13 C 687.968 1683.93 688.559 1684.13 687.356 1683.05 C 686.282 1668.08 687.491 1645.74 688.077 1630.66 C 717.589 1616.02 746.956 1601.08 776.172 1585.85 z" fill="rgb(13,150,104)" transform="translate(0,0)"></path>
<path d="M 1179.66 331.094 C 1182.09 333.6 1181.29 376.177 1181.34 383.38 C 1152.67 396.169 1122.46 413.58 1093.38 425.284 C 1091.4 419.217 1091.82 382.389 1091.58 372.865 L 1143.49 347.584 C 1154.59 342.207 1168.28 335.179 1179.66 331.094 z" fill="rgb(13,150,104)" transform="translate(0,0)"></path>
<path d="M 1491.79 822.952 C 1494.15 828.439 1492.99 900.259 1492.95 911.921 C 1480.19 918.607 1453.71 933.898 1441.34 938.133 C 1438.81 935.272 1439.96 858.554 1439.99 848.733 C 1453.6 841.014 1476.58 830.81 1491.79 822.952 z" fill="rgb(13,150,104)" transform="translate(0,0)"></path>
<path d="M 910.582 1518.07 L 911.985 1518.5 C 913.078 1532.38 912.687 1554.27 912.891 1568.77 C 895.718 1580.7 846.546 1604.22 826.346 1614.37 L 824.828 1614.52 C 822.912 1610.64 824.235 1568.66 824.336 1561.89 C 847.706 1548.21 885.477 1530.67 910.582 1518.07 z" fill="rgb(13,150,104)" transform="translate(0,0)"></path>
<path d="M 1489.42 540.895 L 1490.24 541.001 C 1492.2 543.775 1491.33 618.923 1491.08 629.507 C 1475.25 637.744 1456.6 648.008 1440.21 654.201 L 1439.27 653.706 C 1437.47 650.652 1438.85 576.03 1438.84 565.464 C 1456.02 556.61 1471.17 551.061 1489.42 540.895 z" fill="rgb(13,150,104)" transform="translate(0,0)"></path>
<path d="M 640.781 1654.92 C 643.167 1657.02 642.178 1699.27 642.186 1705.21 C 619.877 1719.23 576.6 1740.25 552.333 1752.26 C 551.002 1747.15 551.114 1708.1 551.068 1701.16 C 579.794 1685.46 611.456 1670.05 640.781 1654.92 z" fill="rgb(13,150,104)" transform="translate(0,0)"></path>
<path d="M 1174.46 1382.86 L 1175.7 1383.29 C 1177.16 1388.11 1176.73 1428.47 1176.45 1435.12 C 1168.43 1440.65 1151.47 1447.76 1142.16 1452.55 C 1125.05 1461.35 1108.01 1470.22 1090.97 1479.16 C 1090.33 1478.96 1089.86 1478.41 1089.34 1478 C 1087.73 1464.8 1089.07 1442.53 1087.98 1427.38 C 1115.7 1412.3 1146.29 1397.31 1174.46 1382.86 z" fill="rgb(13,150,104)" transform="translate(0,0)"></path>
<path d="M 1041.82 1451.03 L 1042.41 1451.57 C 1043.67 1455.4 1043.68 1496.11 1043.76 1503.38 C 1015.61 1518.54 987.22 1533.24 958.6 1547.48 L 957.985 1547.5 C 956.103 1545.29 956.636 1500.71 956.571 1494.33 C 984.427 1479.41 1013.71 1465.87 1041.82 1451.03 z" fill="rgb(13,150,104)" transform="translate(0,0)"></path>
<path d="M 1493.92 1149.76 C 1493.98 1149.82 1494.05 1149.87 1494.11 1149.94 C 1497.64 1154.38 1495.81 1241.77 1495.74 1254.05 C 1483.43 1253.84 1471.18 1253.27 1458.75 1253.11 L 1456.72 1252.53 C 1456.13 1251.22 1455.83 1250.52 1455.99 1248.96 C 1458.85 1222.54 1461.37 1191.72 1476.36 1168.95 C 1481.41 1161.28 1487.46 1155.82 1493.92 1149.76 z" fill="rgb(13,150,104)" transform="translate(0,0)"></path>
<path d="M 1266.11 1336.16 C 1267.92 1340.09 1261.21 1386.25 1259.6 1393.17 C 1245.92 1401.04 1234.66 1406.47 1220.25 1412.56 C 1218.01 1404.21 1219.53 1370.06 1220.02 1360.1 C 1235.34 1352.02 1250.7 1344.04 1266.11 1336.16 z" fill="rgb(13,150,104)" transform="translate(0,0)"></path>
<path d="M 412.047 1597.92 L 413.095 1599.13 C 413.566 1602.57 413.878 1602.85 412.626 1606.15 C 406.279 1613.08 367.51 1631.8 357.484 1635.76 C 355.928 1633.21 355.606 1629.39 356.528 1626.51 C 356.729 1625.88 401.709 1603.53 412.047 1597.92 z" fill="rgb(71,95,88)" transform="translate(0,0)"></path>
<path d="M 366.94 1486.66 C 362.382 1487.89 358.023 1492.61 354.354 1492.07 C 353.68 1489.24 353.533 1489.37 354.242 1486.59 C 361.546 1479.53 400.758 1458.61 410.444 1456.46 C 412.841 1458.17 412.755 1460.39 413.869 1463.96 C 398.176 1471.42 382.532 1478.99 366.94 1486.66 z" fill="rgb(71,95,88)" transform="translate(0,0)"></path>
<path d="M 1338.78 252.855 C 1339.91 257.757 1340.96 301.494 1340.62 307.155 C 1339.01 309.82 1336.34 310.334 1333.28 311.533 C 1330.52 308.283 1331.05 264.93 1330.97 257.247 L 1338.78 252.855 z" fill="rgb(13,150,104)" transform="translate(0,0)"></path>
<path d="M 669.122 578.906 C 669.241 578.997 669.393 579.057 669.48 579.179 C 671.597 582.139 669.811 624.902 669.709 632.049 L 662.823 636.469 C 660.011 633.355 660.988 590.366 660.979 582.841 L 669.122 578.906 z" fill="rgb(13,150,104)" transform="translate(0,0)"></path>
<path d="M 531.666 645.801 C 533.064 653.693 532.129 687.806 532.717 699.54 L 525.055 703.798 C 523.733 700.91 524.177 656.998 524.452 650.799 C 526.126 647.926 528.568 647.273 531.666 645.801 z" fill="rgb(13,150,104)" transform="translate(0,0)"></path>
<path d="M 1198.94 365.939 C 1198.9 356.928 1197.89 329.45 1198.78 322.289 C 1201.38 320.017 1201.54 320.085 1204.57 318.731 C 1207.2 321.42 1207.58 365.555 1206.44 371.632 C 1204.19 373.102 1202.8 374.453 1200.21 374.29 C 1198.29 371.006 1199 370.4 1198.94 365.939 z" fill="rgb(13,150,104)" transform="translate(0,0)"></path>
<path d="M 801.832 513.668 C 803.163 514.264 802.415 513.785 803.738 515.528 C 805.118 528.811 805.675 548.345 804.21 561.922 C 803.834 565.403 801.215 566.45 798.542 568.311 L 797.864 568.455 L 796.771 567.035 C 795.973 556.859 796.434 529.938 796.445 518.122 C 796.448 515.693 799.622 514.744 801.832 513.668 z" fill="rgb(13,150,104)" transform="translate(0,0)"></path>
<path d="M 803.114 1572.76 L 803.954 1573.13 C 805.477 1576.65 805.107 1619.08 804.397 1625.21 C 804.286 1626.17 800.086 1627.73 798.532 1628.45 C 797.752 1628.51 798.309 1628.54 797.099 1627.58 C 796.68 1613.41 796.287 1592.88 797.651 1578.56 C 797.94 1575.53 800.614 1574.44 803.114 1572.76 z" fill="rgb(13,150,104)" transform="translate(0,0)"></path>
<path d="M 936.113 449.071 L 939.213 450.27 C 941.25 454.999 940.821 485.981 941.369 492.859 C 941.794 498.176 940.812 498.516 937.956 501.468 L 934.643 500.685 C 931.484 495.915 932.678 463.04 932.517 455.476 C 932.436 451.681 933.809 451.138 936.113 449.071 z" fill="rgb(13,150,104)" transform="translate(0,0)"></path>
<path d="M 1071.42 382.325 L 1073.44 383.477 C 1076.35 388.602 1075.05 424.127 1074.83 432.003 C 1074.74 435.537 1073.19 436.049 1070.84 437.952 C 1069.57 437.387 1069.57 437.23 1068.46 436.34 C 1066.71 425.652 1067.67 399.354 1067.37 387.167 C 1067.31 384.783 1069.48 383.803 1071.42 382.325 z" fill="rgb(13,150,104)" transform="translate(0,0)"></path>
<path d="M 665.452 1642.76 L 667.005 1643.04 C 668.744 1646.25 668.613 1684.61 667.678 1690.94 C 667.166 1694.41 665.398 1694.62 662.522 1696.31 L 661.848 1695.76 C 659.897 1692.13 660.877 1653.99 660.434 1647.92 C 660.271 1645.68 663.382 1644.21 665.452 1642.76 z" fill="rgb(13,150,104)" transform="translate(0,0)"></path>
<path d="M 1067.49 1437.76 C 1069.86 1441.66 1070.89 1482.03 1070.37 1489.25 C 1070.18 1491.84 1068.74 1492.06 1066.56 1493.61 C 1064.13 1492.74 1065.14 1493.47 1063.54 1491.38 C 1062.03 1478.79 1062.55 1456 1063.19 1442.63 C 1063.32 1439.98 1065.21 1439.38 1067.49 1437.76 z" fill="rgb(13,150,104)" transform="translate(0,0)"></path>
<path d="M 403.671 1033.87 C 404.301 1036.41 404.172 1038.53 404.195 1041.14 C 398.833 1045.09 353.803 1065.36 345.331 1069.29 L 344.649 1068.56 C 343.787 1064.95 343.551 1066.55 344.605 1063.56 C 355.336 1062.96 392.266 1040.41 403.671 1033.87 z" fill="rgb(13,150,104)" transform="translate(0,0)"></path>
<path d="M 935.194 1505.48 C 938.82 1508.62 937.573 1548.52 938.086 1554.98 C 938.242 1556.94 934.155 1559.12 932.608 1560.19 L 931.702 1559.97 C 929.358 1554.32 931.137 1515.8 932.378 1508.3 C 933.316 1507.36 934.255 1506.42 935.194 1505.48 z" fill="rgb(13,150,104)" transform="translate(0,0)"></path>
<path d="M 532.592 1710.71 C 533.568 1715.17 533.259 1755.5 533.008 1761.39 C 531.039 1764.76 530.606 1764.16 526.591 1766.4 C 525.556 1753.29 526.446 1730.5 527.336 1716.99 C 527.567 1713.49 529.984 1712.55 532.592 1710.71 z" fill="rgb(13,150,104)" transform="translate(0,0)"></path>
<path d="M 1199.52 1370.81 L 1200.05 1371.31 C 1201.94 1375.8 1200.97 1412.54 1201.21 1420.55 C 1201.29 1422.99 1197.91 1424.22 1195.53 1425.65 C 1194.07 1415.44 1195.48 1387.74 1194.54 1375.91 C 1194.37 1373.8 1197.58 1372.2 1199.52 1370.81 z" fill="rgb(13,150,104)" transform="translate(0,0)"></path>
<path d="M 399.886 893.883 L 400.977 894.146 L 401.979 895.917 C 399.779 901.393 351.203 923.249 342.029 928.642 L 340.726 929.416 L 339.63 928.686 C 341.087 923.861 356.74 916.873 361.867 914.148 L 399.886 893.883 z" fill="rgb(13,150,104)" transform="translate(0,0)"></path>
<metadata><recraft-signature>{"signed_by": "recraft", "signature_b64": "QBwWYIHUpRyIbXQeAmBwnBRTftAuwxRWaWoFZUyoWJEq6+Yt6fG9seZqnoBhRm+2wh6ZAjpbs+eoPNGcz/zjDg==", "signing_algo": "Ed25519", "generation_timestamp": 1780404961, "identifier": "093752a7-31d8-444e-a8eb-d5f24fee0aeb"}</recraft-signature></metadata></svg>