<svg xmlns="http://www.w3.org/2000/svg" height="1024" preserveAspectRatio="none" style="display: block;" version="1.1" viewBox="0 0 2048 2048" width="1024">
<path d="M 0 0 L 2048 0 L 2048 2048 L 0 2048 L 0 0 z" fill="rgb(250,240,217)" transform="translate(0,0)"></path>
<path d="M 1406.9 71.2979 C 1421.18 68.2677 1423 78.4042 1426.69 89.253 C 1447.59 150.728 1466.29 213.203 1486.19 274.977 L 1576.53 548.962 L 1850.16 1367.24 L 1908.23 1539.68 C 1919.6 1573.61 1929.63 1605.57 1942.2 1639.2 C 1941.52 1643.28 1940.79 1650.95 1936.36 1652.4 C 1917.47 1658.58 1897.15 1662.69 1877.97 1668.01 L 1708.27 1715.97 C 1474.97 1782.75 1241.29 1848.24 1007.27 1912.45 L 882.515 1946.44 L 811.175 1965.86 C 801.11 1968.61 763.405 1980.69 756.583 1977.99 C 750.344 1975.52 735.039 1919.65 732.378 1910.76 C 728.629 1898.2 723.722 1879.27 717.624 1868.24 C 683.682 1878.42 649.019 1887.26 614.98 1897.21 C 607.096 1899.52 591.234 1904.73 583.471 1902.5 C 576.595 1893.3 551.208 1795.11 545.989 1776.8 C 526.114 1709.35 506.75 1641.75 487.897 1574 L 162.564 423.318 C 158.685 409.911 162.99 403.202 176.874 398.805 C 195.209 392.999 214.208 388.276 232.79 383.246 C 268.836 373.287 304.961 363.618 341.162 354.241 L 603.042 284.3 L 1406.9 71.2979 z" fill="rgb(26,58,40)" transform="translate(0,0)"></path>
<path d="M 1194.54 149.088 C 1197.8 148.852 1200.54 148.523 1202.03 151.995 C 1207.83 165.524 1212.65 181.37 1217.29 195.32 L 1250.68 295.956 C 1253.01 303.091 1259.95 326.489 1263.66 331.843 C 1275.81 333.062 1341.87 313.249 1358.73 309.419 C 1393.25 301.571 1431.51 289.467 1466.18 282.135 C 1473.83 300.031 1480.89 323.11 1487.22 341.978 L 1528.19 467.731 L 1641.55 809.453 L 1820.17 1343.97 C 1846.12 1418.29 1871.42 1492.85 1896.04 1567.62 C 1903.5 1590.13 1911.53 1612.46 1918.62 1635.08 C 1906.94 1639.49 1885.95 1644.79 1873.39 1648.41 C 1845.75 1656.5 1818.06 1664.42 1790.33 1672.17 L 1556.1 1737.7 C 1346.82 1797.63 1137.19 1856.33 927.226 1913.79 C 874.727 1929.1 820.697 1942.84 767.85 1957.83 C 757.723 1919.9 741.217 1873.21 728.666 1835.31 L 650.481 1601.09 C 560.234 1323.36 462.007 1048.29 355.922 776.218 C 316.933 677.588 278.461 577.217 230.884 482.423 C 219.537 459.815 207.51 435.232 194.383 413.802 L 1194.54 149.088 z" fill="rgb(250,240,217)" transform="translate(0,0)"></path>
<path d="M 908.192 582.227 C 917.592 582.773 928.417 584.541 937.514 586.597 C 1081.31 619.103 1227.32 621.82 1373.49 606.059 C 1426.89 600.301 1421.15 606.818 1437.49 655.535 L 1469.65 754.236 C 1489.38 815.1 1515.32 887.638 1528.7 948.951 C 1550.5 1048.88 1535.2 1164.01 1508.59 1261.74 C 1526.65 1259.72 1559.96 1250.32 1578.6 1246.13 C 1607.07 1239.57 1635.66 1232.58 1664.27 1226.63 C 1676.14 1224.16 1725.32 1203.76 1719.3 1230.45 C 1716.95 1234.19 1710.96 1236.69 1706.82 1237.72 C 1660.91 1249.12 1614.69 1259.45 1568.76 1270.79 C 1546.28 1276.34 1522.7 1280.24 1500.6 1287.05 C 1493.41 1307.91 1483.19 1335.16 1477.29 1355.98 C 1508.47 1351.6 1731.53 1290.13 1740.05 1293.79 C 1743.23 1295.16 1746.41 1298.28 1747.43 1301.66 C 1748.21 1304.24 1748.03 1306.21 1746.73 1308.57 C 1744.67 1312.31 1739.76 1314.55 1735.93 1315.86 C 1723.98 1319.96 1710.36 1321.88 1697.99 1324.61 C 1683.69 1327.77 1669.51 1331.69 1655.27 1335.12 L 1465.94 1380.58 C 1456.4 1397.91 1441 1431.74 1433.3 1450.64 C 1446.71 1449.02 1463.92 1444.69 1477.27 1441.52 C 1500.36 1436.02 1523.4 1430.3 1546.38 1424.35 C 1595.01 1411.89 1643.74 1399.83 1692.57 1388.18 C 1713.82 1382.98 1735.36 1377.03 1756.69 1372.46 C 1766.29 1370.4 1775.92 1378.13 1770.01 1387.82 C 1767.85 1391.35 1762.91 1392.6 1759.17 1393.85 C 1737.89 1399.52 1716.34 1404.36 1694.9 1409.48 L 1590.93 1434.96 C 1566.37 1440.85 1541.85 1446.88 1517.36 1453.07 C 1486.83 1460.95 1449.61 1470.9 1418.56 1476.4 C 1416.34 1480.37 1414.37 1484.49 1412.33 1488.56 C 1401.61 1509.97 1389.61 1530.63 1377.85 1551.48 C 1478.56 1529.17 1581.36 1500.71 1682 1476.8 C 1703.16 1471.76 1724.28 1466.55 1745.35 1461.17 C 1756.64 1458.32 1767.98 1455.25 1779.39 1452.93 C 1790.15 1450.73 1802.43 1455.17 1797.04 1468.02 C 1795.71 1471.19 1785.2 1474.53 1781.8 1475.45 C 1755.2 1481.72 1728.59 1487.76 1702.03 1494.19 L 1516.23 1538.97 C 1481.18 1547.43 1446.18 1556.15 1411.26 1565.12 C 1396.36 1568.84 1376.14 1574.44 1361.36 1577.14 C 1352.5 1595.1 1325.07 1638.23 1312.97 1653.47 C 1381.95 1638.64 1450.94 1619.21 1519.39 1602.38 C 1577.06 1588.21 1635.85 1574.91 1693.69 1561.33 C 1719.36 1555.27 1744.97 1549 1770.52 1542.5 C 1780.06 1540.1 1809.81 1531.08 1818.96 1533.37 C 1827.2 1535.44 1827.99 1550.44 1815.59 1553.77 C 1807.04 1556.07 1796.1 1558.86 1786.7 1561.14 C 1768.74 1565.58 1750.73 1569.84 1732.68 1573.92 C 1697.82 1581.79 1662.38 1590.68 1627.48 1598.85 C 1539.86 1618.33 1451.85 1641.52 1364.54 1662.61 C 1265.12 1686.01 1165.99 1710.64 1067.18 1736.5 C 986.683 1757.22 906.365 1778.04 826.315 1800.41 C 814.807 1803.62 804.744 1795.5 811.296 1786.43 C 816.446 1779.3 843.95 1774.41 853.454 1771.82 L 946.151 1747.01 C 1057.45 1716.77 1169.16 1688.08 1281.25 1660.94 C 1267.01 1654.99 1246.07 1649.52 1231.02 1644.41 C 1210.98 1637.61 1191.07 1629.75 1171.17 1623.18 C 1129.82 1632.62 1084.11 1646.12 1042.94 1657.26 L 897.5 1695.55 C 864.858 1704.35 832.232 1713.78 799.403 1721.85 C 794.594 1722.64 791.156 1724.06 786.308 1722.64 C 773.446 1718.86 781.316 1704.9 789.954 1702.85 C 807.002 1698.82 823.91 1694.72 840.933 1690 C 894.443 1674.96 948.133 1660.57 1001.99 1646.84 L 1093.54 1622.28 C 1107.73 1618.56 1124.06 1613.57 1138.3 1611.36 C 1124.93 1603.2 1106.92 1597.53 1092.32 1591.35 C 1077.05 1584.89 1062.01 1578.2 1046.93 1571.31 C 1029.63 1574.56 1006.73 1580.76 989.157 1585.15 C 956.246 1593.3 923.424 1601.81 890.696 1610.67 C 851.623 1621.65 812.521 1632.56 773.198 1642.6 C 766.267 1644.37 755.712 1647.18 752.672 1638.36 C 751.808 1635.77 752.073 1632.95 753.4 1630.57 C 755.284 1627.14 758.289 1625.71 761.931 1624.61 C 788.623 1616.56 816.231 1609.73 843.094 1602.54 L 1016.51 1556.02 C 1009.37 1551.41 941.404 1515.11 936.013 1513.76 C 911.758 1518.19 740.164 1568.37 734.258 1566.4 C 731.756 1565.56 729.443 1563.43 728.308 1561.04 C 727.218 1558.73 726.972 1556.42 728.046 1554.03 C 729.729 1550.29 734.897 1547.85 738.44 1546.39 C 753.807 1540.06 782.545 1533.66 799.716 1528.98 C 836.743 1518.88 873.694 1508.27 910.867 1498.74 C 905.206 1493.68 876.511 1475.84 867.963 1469.95 C 767.976 1401.81 686.036 1311.85 639.416 1199.15 C 617.714 1146.69 597.104 1092.51 578.051 1038.73 L 545.033 942.594 C 538.508 923.442 531.331 908.463 527.955 888.324 C 534.811 877.573 572.611 858.422 585.73 850.349 C 689.426 786.532 785.195 706.219 864.486 613.718 C 878.089 597.848 886.76 586.976 908.192 582.227 z" fill="rgb(26,58,40)" transform="translate(0,0)"></path>
<path d="M 552.134 885.648 C 571.682 872.55 592.964 861.297 612.465 848.617 C 695.743 794.47 770.059 732.757 838.761 661.069 C 858.67 640.295 881.262 613.218 904.324 596.867 C 906.582 595.266 923.643 596.459 926.828 597.294 C 1041 618.72 1141.78 634.929 1259.22 629.971 C 1286.24 628.975 1313.22 627.262 1340.15 624.833 C 1358.22 623.155 1379.64 620.497 1397.98 619.97 C 1400.52 619.897 1401.84 622.194 1403.72 624.221 C 1411.53 639.994 1416.49 657.531 1422.66 673.979 C 1435.88 709.348 1447.05 745.025 1457.93 781.172 C 1462.77 797.265 1470.14 813.369 1474.57 829.597 C 1485.62 870.054 1499.68 910.418 1509.42 951.122 C 1514.32 971.579 1515.91 993.71 1518.23 1014.54 C 1519.93 1034.5 1518.51 1054.39 1517.89 1074.34 C 1514.31 1189.78 1478.68 1303.73 1430.64 1407.8 C 1410.78 1451.68 1388.73 1494.53 1364.58 1536.2 C 1352.31 1557.05 1337.53 1579.79 1324.11 1599.92 C 1316.49 1611.34 1305.23 1632.99 1297.75 1642.32 C 1220.32 1621 1144.77 1593.36 1071.85 1559.69 C 1052.23 1550.63 1033.13 1539.66 1013.6 1530.35 C 929.782 1490.33 850.215 1438.94 781.837 1375.93 C 740.195 1337.57 698.33 1281.61 671.44 1231.5 C 644.919 1182.09 624.411 1121.11 604.836 1068.42 C 590.283 1029.64 576.421 990.599 563.258 951.322 C 556.995 932.888 548.183 909.029 543.458 890.548 C 544.952 889.685 550.917 886.099 552.134 885.648 z" fill="rgb(13,150,104)" transform="translate(0,0)"></path>
<path d="M 930.206 650.95 C 946.049 650.439 976.954 658.467 994.312 660.976 C 1030.28 666.176 1071.69 672.164 1108.1 672.961 C 1170.4 674.632 1232.75 672.419 1294.77 666.336 C 1306.31 665.148 1372.2 657.086 1379.72 659.462 C 1386.41 670.041 1413.55 762.24 1418.57 778.579 C 1431.8 821.607 1450.72 874.889 1461.82 918.487 C 1466.62 938.003 1470.25 957.785 1472.71 977.73 C 1487.35 1091.85 1463.1 1198.11 1421.78 1303.44 C 1384.53 1398.36 1331.81 1499.46 1269.6 1579.93 C 1247.85 1574.72 1208.58 1559.66 1186.75 1551.44 C 1146.59 1537.22 1108.23 1520.03 1069.58 1502.24 C 935.645 1440.59 801.612 1359.72 723.715 1230.18 C 706.469 1201.5 690.574 1169.87 676.938 1139.27 C 664.767 1111.96 590.119 920.531 595.661 908.204 C 597.109 904.984 601.934 902.014 604.821 900.294 C 612.989 895.427 622.35 891.792 630.898 887.51 C 650.003 877.939 669.356 867.944 687.686 856.968 C 741.242 824.899 786.748 790.34 832.912 748.511 C 846.397 736.292 859.066 723.579 871.495 710.295 C 885.543 695.282 914.429 658.644 930.206 650.95 z" fill="rgb(26,58,40)" transform="translate(0,0)"></path>
<path d="M 931.957 666.967 C 952.051 666.606 994.732 676.323 1016.4 678.848 C 1049.25 682.677 1080.77 685.708 1113.83 687.651 C 1200.01 692.717 1285.1 679.684 1370.32 673.634 C 1383.15 712.742 1394.74 753.255 1407.67 792.599 C 1427.77 853.783 1451.65 925.654 1459.04 989.338 C 1478 1152.87 1407.31 1327.89 1326.93 1467.05 C 1310.52 1495.44 1284.65 1539.42 1264.42 1564.6 C 1234.79 1555.53 1211.85 1548.03 1182.79 1537.17 C 1039.24 1480.91 881.117 1406.99 779.605 1286.99 C 699.484 1192.27 660.053 1062.22 619.123 946.985 C 615.368 936.411 611.769 926.033 607.743 915.497 C 616.792 910.793 626.837 907.048 636.118 902.588 C 721.781 861.415 793.929 806.671 862.405 740.896 C 875.254 728.565 887.539 715.661 899.225 702.223 C 909.411 690.669 920.566 677.179 931.957 666.967 z" fill="rgb(13,150,104)" transform="translate(0,0)"></path>
<path d="M 1226.94 797.257 C 1239.47 795.464 1262.5 803.027 1273.59 809.153 C 1290.75 818.632 1296.19 826.596 1301.7 844.575 C 1294.32 863.473 1283.83 884.859 1275.79 904.386 C 1301.56 928.155 1320.14 958.628 1333.8 990.284 C 1390.61 1122.01 1325.09 1269.44 1192.2 1320.61 C 1120.93 1348.05 1055.08 1341.92 985.281 1312 L 983.511 1311.2 C 922.008 1283.1 866.378 1224.49 842.923 1160.71 C 821.439 1101.04 824.718 1035.24 852.03 978.001 C 880.9 915.532 933.745 867.346 998.606 844.347 C 1055.52 824.154 1126.49 830.102 1180.94 856.043 C 1186.83 843.198 1191.65 829.755 1198.05 817.135 C 1204.86 803.706 1213.04 800.062 1226.94 797.257 z" fill="rgb(26,58,40)" transform="translate(0,0)"></path>
<path d="M 1069.95 884.453 C 1102.8 883.722 1128.14 889.58 1158.28 903.029 C 1148.97 927.07 1138.66 947.203 1128.11 970.255 L 1058.89 1119.56 C 1044.48 1113.54 982.646 1084.6 971.217 1088.47 C 962.821 1091.31 954.648 1121.91 949.783 1130.44 C 946.006 1137.07 941.62 1146.02 940.532 1153.65 C 940.22 1155.84 940.085 1156.81 941.537 1158.52 C 947.813 1165.92 983.935 1184.59 994.317 1190.7 C 1031.23 1212.45 1067.97 1236.7 1106.82 1254.94 C 1110.21 1256.53 1113.36 1257.72 1117.13 1257.99 C 1126.59 1248.7 1142.72 1203.35 1149.48 1188.17 L 1201.62 1071.16 C 1218.76 1031.91 1233.58 995.47 1254.08 957.445 C 1256.96 960.604 1259.89 964.194 1262.68 967.47 C 1271.37 978.267 1278.7 990.092 1284.49 1002.68 C 1307.29 1051.74 1309.24 1107.93 1289.92 1158.46 C 1266.14 1220.31 1214.92 1264.46 1151.06 1281.03 C 985.383 1323.88 821.262 1151.47 903.282 990.729 C 937.568 923.538 994.123 886.736 1069.95 884.453 z" fill="rgb(13,150,104)" transform="translate(0,0)"></path>
<path d="M 1223.39 812.348 C 1231.99 811.567 1236.64 812.024 1244.87 814.323 C 1263.89 819.644 1278.36 824.497 1286.16 844.005 C 1282.97 856.163 1265.61 892.08 1259.64 905.363 C 1233.08 964.475 1205.58 1023.31 1179.43 1082.65 C 1164.55 1116.43 1150.03 1150.42 1135.36 1184.27 C 1129.21 1198.47 1118.28 1229.25 1110.81 1240.56 C 1088.13 1230.13 1049.66 1206.76 1027.45 1193.64 C 1008.09 1183.13 972.125 1160.32 953.971 1153.72 C 962.935 1137.28 969.686 1117.74 977.885 1100.37 C 995.402 1109.52 1016.41 1117.2 1034.82 1125.33 C 1040.51 1127.84 1057.75 1135.37 1064.75 1135.79 C 1066.15 1135.87 1069.21 1130.3 1070.09 1128.57 C 1084.23 1100.5 1096.98 1071.66 1110.25 1043.16 L 1196.57 857.097 C 1202.33 844.896 1207.81 831.656 1213.88 819.631 C 1215.88 815.665 1219.44 813.971 1223.39 812.348 z" fill="rgb(245,158,11)" transform="translate(0,0)"></path>
<path d="M 1287.69 937.519 C 1298.47 945.835 1317.42 985.294 1323.18 999.669 C 1346.51 1057.92 1345.79 1123.05 1321.19 1180.77 C 1295.76 1238.89 1248.27 1284.52 1189.19 1307.63 C 1126.96 1331.55 1057.75 1329.52 997.02 1302.01 C 937.753 1275.59 878.496 1221.13 857.112 1159.28 C 789.935 964.968 983.441 780.85 1174.42 868.855 C 1170.68 877.442 1167.74 883.922 1163.3 892.126 C 1145.99 879.966 1118.35 874.235 1097.73 871.824 C 1042.79 865.942 987.742 881.94 944.51 916.353 C 904.952 948.025 874.338 1004.24 869.524 1054.47 C 850.766 1250.22 1086.29 1376.81 1239.71 1250.95 C 1283.09 1215.93 1310.37 1164.77 1315.28 1109.23 C 1319.92 1059.6 1307.07 1009.92 1279.57 967.592 C 1276.33 962.606 1263.06 948.876 1258.21 942.993 C 1258.2 940.018 1258.98 940.146 1261.3 937.155 C 1264.64 930.616 1267.07 925.314 1269.95 918.552 C 1276.78 923.97 1282.97 930.134 1287.69 937.519 z" fill="rgb(245,158,11)" transform="translate(0,0)"></path>
<path d="M 1338.04 708.531 C 1327.24 709.745 1313.89 713.063 1302.75 714.491 C 1272.09 718.483 1241.34 723.578 1210.36 719.979 C 1203.23 719.152 1193.36 722.378 1189.4 715.023 C 1190.13 707.427 1198.62 708.991 1204.57 709.301 C 1250.08 711.673 1293.75 702.959 1338.85 698.788 C 1349.21 704.682 1353.8 723.597 1357.68 734.644 C 1369.9 769.433 1382.33 804.207 1392.86 839.551 C 1394.45 844.935 1394.93 850.183 1388.96 852.63 C 1385.98 851.488 1384.33 848.775 1383.28 845.854 C 1372.49 815.772 1362.18 785.421 1351.87 755.165 C 1346.67 739.936 1343 723.87 1338.04 708.531 z" fill="rgb(26,58,40)" transform="translate(0,0)"></path>
<path d="M 761.092 853.468 C 780.632 862.898 760.289 872.376 750.574 879.668 C 721.364 901.594 690.59 920.695 656.026 932.955 C 666.135 972.141 688.442 1011.45 697.847 1051.58 C 699.242 1057.53 701.283 1061.63 698.039 1067.2 C 696.659 1066.5 695.255 1065.84 694.029 1064.89 C 688.075 1060.25 652.294 961.871 648.012 947.88 C 646.292 942.259 644.824 936.511 644.627 930.605 C 644.49 926.515 645.251 923.972 648.871 921.645 C 654.15 918.249 662.689 917.007 668.697 914.165 C 692.159 903.065 739.181 877.78 755.707 859.276 C 757.467 857.307 759.292 855.4 761.092 853.468 z" fill="rgb(26,58,40)" transform="translate(0,0)"></path>
<path d="M 1191.66 1374.89 C 1194.01 1374.81 1196.48 1374.46 1198.61 1375.63 C 1201.11 1377.01 1262.94 1526.2 1264.77 1535.91 C 1265.27 1538.57 1263.37 1539.66 1261.74 1541.38 C 1258.66 1541.21 1258.2 1541.12 1255.19 1540.39 C 1247.02 1534 1197.85 1398.77 1187.88 1380.95 C 1186.93 1379.26 1190.49 1376.11 1191.66 1374.89 z" fill="rgb(26,58,40)" transform="translate(0,0)"></path>
<path d="M 1167.39 1431.67 C 1169.78 1432.01 1170.92 1432.48 1172.58 1434.32 C 1177.94 1440.28 1218.29 1532.65 1217.49 1537.38 C 1217.26 1538.74 1213.93 1540.39 1212.74 1541.2 C 1209.52 1541.02 1209.66 1541.21 1207.02 1539.43 C 1201.93 1531.39 1161.49 1440.49 1161.57 1437.15 C 1163.37 1433.46 1163.4 1434.32 1167.39 1431.67 z" fill="rgb(26,58,40)" transform="translate(0,0)"></path>
<path d="M 945.234 692.42 C 945.694 692.744 946.189 693.023 946.613 693.392 C 951.772 697.892 987.484 794.322 987.339 802.867 C 987.281 806.328 985.264 807.781 983.09 810.142 C 970.284 800.558 946.733 717.721 940.693 698.585 C 940.119 696.766 943.987 693.657 945.234 692.42 z" fill="rgb(26,58,40)" transform="translate(0,0)"></path>
<path d="M 754.461 766.147 C 748.751 762.784 745.969 759.218 749.754 753.199 C 757.19 749.621 759.719 752.792 764.549 758.461 C 761.106 762.647 759.818 764.599 754.461 766.147 z" fill="rgb(26,58,40)" transform="translate(0,0)"></path>
<path d="M 402.384 563.809 C 399.281 560.268 398.506 559.198 399.699 554.836 C 403.958 550.235 444.663 540.65 453.185 538.367 L 547.628 512.807 C 673.215 478.589 798.985 445.049 924.935 412.189 C 960.443 402.779 996.017 393.62 1031.65 384.713 C 1041.72 382.098 1066.9 371.322 1074.29 377.566 C 1075.5 380.807 1075.07 381.222 1074.3 384.599 C 1073.86 389.482 1089.71 423.849 1091.02 432.525 C 1091.25 434.067 1095.79 449.438 1097.05 451.476 C 1099.72 453.563 1100.52 453.863 1101.67 457.09 C 1100.71 462.149 1096.77 463.698 1092.02 465.021 C 1053.44 475.767 1014.4 485.281 975.703 495.537 L 584.289 598.879 C 548.577 608.179 512.912 617.659 477.296 627.319 C 464.123 630.768 451.086 634.233 437.99 637.96 C 432.338 639.569 427.338 640.035 424.492 634.454 C 424.542 632.43 424.396 631.873 424.889 629.944 C 416.887 608.245 410.821 585.631 402.384 563.809 z" fill="rgb(245,158,11)" transform="translate(0,0)"></path>
<path d="M 402.384 563.809 C 399.281 560.268 398.506 559.198 399.699 554.836 C 403.958 550.235 444.663 540.65 453.185 538.367 L 547.628 512.807 C 673.215 478.589 798.985 445.049 924.935 412.189 C 960.443 402.779 996.017 393.62 1031.65 384.713 C 1041.72 382.098 1066.9 371.322 1074.29 377.566 C 1075.5 380.807 1075.07 381.222 1074.3 384.599 C 1060.97 387.542 1045.65 393.097 1031.99 396.649 L 918.316 426.216 C 823.16 450.489 728.182 475.455 633.39 501.112 C 558.402 521.5 477.588 545.313 402.384 563.809 z" fill="rgb(26,58,40)" transform="translate(0,0)"></path>
<path d="M 1097.05 451.476 C 1099.72 453.563 1100.52 453.863 1101.67 457.09 C 1100.71 462.149 1096.77 463.698 1092.02 465.021 C 1053.44 475.767 1014.4 485.281 975.703 495.537 L 584.289 598.879 C 548.577 608.179 512.912 617.659 477.296 627.319 C 464.123 630.768 451.086 634.233 437.99 637.96 C 432.338 639.569 427.338 640.035 424.492 634.454 C 424.542 632.43 424.396 631.873 424.889 629.944 C 447.96 624.71 475.704 615.595 499.426 609.557 L 816.676 525.82 L 1010.9 474.754 L 1064.8 460.738 C 1073.95 458.352 1088.57 454.853 1097.05 451.476 z" fill="rgb(26,58,40)" transform="translate(0,0)"></path>
<path d="M 194.609 439.967 C 203.128 453.237 214.978 478.391 222.271 492.962 C 245.721 540.146 267.431 588.175 287.356 636.951 C 295.87 657.775 303.196 678.798 311.831 699.621 C 361.583 820.581 408.167 942.819 451.535 1066.21 L 553.477 1355.27 C 592.053 1465.66 629.314 1576.51 665.253 1687.79 C 682.741 1741.07 700.946 1793.21 716.994 1846.97 C 692.788 1854.37 668.507 1861.52 644.154 1868.42 C 630.375 1872.25 608.949 1877.32 596.426 1881.62 C 503.453 1559.97 412.445 1237.75 323.408 914.986 L 219.566 547.266 C 211.193 517.162 202.664 487.003 193.153 457.25 C 191.534 452.185 189.655 447.019 188.359 441.884 C 189.853 441.273 192.938 440.464 194.609 439.967 z" fill="rgb(245,158,11)" transform="translate(0,0)"></path>
<path d="M 643.79 1746.11 C 646.622 1746.73 650.023 1747.49 649.761 1751 C 648.283 1770.82 640.246 1821.42 628.747 1836.38 C 625.848 1835.43 625.967 1835.53 623.543 1833.7 C 622.272 1826.52 639.353 1752.58 643.79 1746.11 z" fill="rgb(26,58,40)" transform="translate(0,0)"></path>
<path d="M 609.813 1702.62 C 613.974 1702.8 615.614 1702.5 618.005 1705.1 C 619.322 1718.33 607.404 1771.97 601.999 1785.66 C 597.203 1785.16 599.141 1786.06 595.685 1783.54 C 592.854 1775.32 606.872 1715.7 609.813 1702.62 z" fill="rgb(26,58,40)" transform="translate(0,0)"></path>
<path d="M 553.949 1533.4 C 558.226 1535.27 558.908 1538.21 559.386 1542.58 C 560.933 1556.69 557.798 1620.5 550.213 1630.04 C 543.505 1626.24 542.068 1623.5 544.184 1615.63 C 549.281 1596.66 548.137 1549.33 553.949 1533.4 z" fill="rgb(26,58,40)" transform="translate(0,0)"></path>
<path d="M 584.187 1620.33 C 586.951 1620.71 586.854 1620.58 589.225 1621.98 C 590.875 1627.96 581.005 1692.77 577.506 1700.11 C 575.386 1699.11 572.532 1697.95 571.995 1695.53 C 569.041 1682.19 579.341 1631.17 584.187 1620.33 z" fill="rgb(26,58,40)" transform="translate(0,0)"></path>
<path d="M 528.183 1485.29 C 530.334 1486.06 529.609 1485.64 531.24 1487.25 C 533.924 1497.57 531.09 1556.02 522.798 1563.27 C 521.473 1562.05 519.26 1560.11 518.961 1558.39 C 516.361 1543.49 522.268 1496.82 528.183 1485.29 z" fill="rgb(26,58,40)" transform="translate(0,0)"></path>
<path d="M 367.735 929.354 C 373.046 930.187 372.611 929.7 374.996 932.779 C 375.831 939.76 367.354 970.525 364.543 977.884 C 356.915 975.825 357.99 968.691 358.977 962.226 C 360.632 951.387 363.44 939.437 367.735 929.354 z" fill="rgb(26,58,40)" transform="translate(0,0)"></path>
<path d="M 356.508 870.584 C 358.423 872.154 360.392 873.23 360.485 875.992 C 360.883 887.826 353.558 913.1 348.01 922.545 C 341.599 920.369 343.225 913.362 344.441 907.919 C 347.214 895.498 349.833 881.453 356.508 870.584 z" fill="rgb(26,58,40)" transform="translate(0,0)"></path>
<path d="M 494.168 1360.18 C 496.369 1361.06 498.53 1362.35 499.315 1364.66 C 502.568 1374.2 497.365 1400.14 493.617 1408.34 C 490.443 1407.51 490.65 1407.62 488.353 1405.28 C 485.202 1396.77 490.811 1368.88 494.168 1360.18 z" fill="rgb(26,58,40)" transform="translate(0,0)"></path>
<path d="M 511.986 1441.27 C 514.135 1442.22 516.892 1443.42 516.987 1446.04 C 517.37 1456.62 512.172 1479.41 506.508 1487.7 C 504.032 1486.69 504.093 1486.76 502.037 1485.07 C 499.369 1476.92 508.112 1449.06 511.986 1441.27 z" fill="rgb(26,58,40)" transform="translate(0,0)"></path>
<path d="M 331.019 818.314 C 335.214 819.504 333.69 818.337 336.065 821.478 C 338.053 831.213 330.012 857.413 325.76 866.671 L 323.009 866.691 L 321.649 865.295 C 319.837 855.598 326.79 827.387 331.019 818.314 z" fill="rgb(26,58,40)" transform="translate(0,0)"></path>
<path d="M 451.917 1215.6 C 454.461 1216.64 456.459 1217.42 456.766 1220.45 C 457.825 1230.93 457.189 1252.58 451.543 1261.09 C 448.927 1259.67 446.615 1259.13 446.235 1255.97 C 445.089 1246.46 447.212 1222.91 451.917 1215.6 z" fill="rgb(26,58,40)" transform="translate(0,0)"></path>
<path d="M 665.251 1781.37 C 666.522 1781.57 667.977 1781.85 669.127 1782.4 C 679.511 1787.35 673.156 1815.35 670.223 1822.63 C 669.376 1823.22 668.419 1823.46 667.401 1823.84 L 665.45 1822.74 C 662.711 1816.69 664.891 1790.17 665.251 1781.37 z" fill="rgb(26,58,40)" transform="translate(0,0)"></path>
<path d="M 474.215 1293.15 C 487.26 1298.45 479.784 1322.27 475.134 1331.86 C 463.55 1330.43 471.929 1300.38 474.215 1293.15 z" fill="rgb(26,58,40)" transform="translate(0,0)"></path>
<path d="M 428.574 1150.42 C 430.841 1151.46 430.707 1151.36 432.367 1153.22 C 434.317 1164.53 433.686 1184.46 428.583 1194.78 C 418.974 1187.34 424.345 1160.45 428.574 1150.42 z" fill="rgb(26,58,40)" transform="translate(0,0)"></path>
<path d="M 408.134 1086.3 C 411.105 1087.64 411.48 1087.52 413.324 1090.26 C 415.299 1098.9 411.259 1114.65 407.236 1122.24 C 403.717 1122.22 405.165 1122.82 402.672 1120.57 C 399.926 1109.92 404.862 1096.53 408.134 1086.3 z" fill="rgb(26,58,40)" transform="translate(0,0)"></path>
<path d="M 291.959 716.677 C 295.17 718.268 295.388 718.112 297.486 721.15 C 299.564 730.007 294.497 741.328 290.771 749.445 C 288.102 748.244 288.095 748.389 286.052 746.359 C 284.434 741.486 285.437 734.596 286.679 729.694 L 287.147 727.913 C 288.572 722.32 288.424 721.068 291.959 716.677 z" fill="rgb(26,58,40)" transform="translate(0,0)"></path>
<path d="M 382.978 1013.21 C 397.238 1017.59 389.208 1033.29 385.956 1043.84 C 383.101 1044.69 382.365 1043.87 380.255 1042.36 C 377.517 1035.84 380.773 1019.79 382.978 1013.21 z" fill="rgb(26,58,40)" transform="translate(0,0)"></path>
<path d="M 312.883 776.348 C 317.615 777.265 316.91 776.851 318.891 779.571 C 319.989 788.074 314.902 799.421 311.909 807.786 L 309.862 808.957 C 302.586 805.335 309.724 782.105 312.883 776.348 z" fill="rgb(26,58,40)" transform="translate(0,0)"></path>
<path d="M 278.465 676.151 C 282.232 676.86 284.152 677.515 286.118 680.869 C 287.411 687.792 283.617 693.492 280.529 700.062 L 277.434 700.581 C 274.404 698.829 274.796 697.695 273.014 693.636 C 274.442 687.771 276.552 681.896 278.465 676.151 z" fill="rgb(26,58,40)" transform="translate(0,0)"></path>
<path d="M 1402.5 93.0487 L 1404.43 93.1661 C 1409.14 96.7036 1457.64 252.948 1463.19 270.6 C 1448.15 275.18 1427.7 279.614 1411.98 283.753 L 1273.27 319.551 L 1271.95 319.759 C 1268.16 316.682 1262.93 296.11 1260.96 290.25 L 1241.96 234.39 C 1233.44 208.921 1219.42 170.386 1212.96 144.847 C 1223.08 140.623 1253.94 133.474 1266.53 130.033 C 1311.94 118.014 1357.26 105.686 1402.5 93.0487 z" fill="rgb(245,158,11)" transform="translate(0,0)"></path>
<path d="M 180.27 414.851 C 184.676 420.84 190.856 433.053 194.609 439.967 C 192.938 440.464 189.853 441.273 188.359 441.884 C 185.545 432.909 182.848 423.897 180.27 414.851 z" fill="rgb(240,204,147)" transform="translate(0,0)"></path>
<path d="M 213.833 1284.33 C 219.342 1287.3 226.723 1305.97 230.959 1312.51 C 247.821 1338.56 268.556 1350.14 297.389 1357.61 C 291.421 1360.15 285.553 1362.92 279.797 1365.91 C 247.771 1382.64 233.628 1401.02 223.092 1434.52 C 220.503 1432.51 215.256 1421.7 213.467 1418.13 C 196.263 1383.78 177.446 1375.57 143.214 1362.66 L 142.794 1361.58 C 145.856 1358.97 152.612 1356.84 156.514 1355.12 C 188.09 1341.19 205.569 1317.67 213.833 1284.33 z" fill="rgb(26,58,40)" transform="translate(0,0)"></path>
<path d="M 216.135 1296.7 C 235.844 1329.41 245.692 1344.5 282.509 1358.78 C 251.984 1374.62 235.363 1390.42 221.527 1422.32 C 219.743 1420.55 213.58 1407.51 211.327 1403.83 C 197.119 1380.63 178.511 1371.74 154.871 1361.59 C 190.717 1344.8 200.1 1331.27 216.135 1296.7 z" fill="rgb(245,158,11)" transform="translate(0,0)"></path>
<path d="M 1757.21 231.773 C 1758.25 233.108 1758.09 232.698 1758.64 234.146 C 1769.78 263.518 1785.86 283.597 1814.72 297.234 C 1818.29 298.919 1825.38 300.51 1826.98 302.672 C 1823.64 305.849 1812.46 310.275 1807.63 312.686 C 1797.13 317.936 1793.35 321.106 1785.11 329.468 C 1777.93 336.752 1771.8 345.002 1766.9 353.981 C 1764.17 358.927 1761.57 367.501 1758.54 370.42 C 1756.18 366.509 1754.22 361.311 1751.91 357.318 C 1735.25 328.411 1715.89 313 1684.61 303.444 C 1688.36 302.062 1692.08 300.629 1695.79 299.147 C 1729.31 285.574 1743.88 263.635 1757.21 231.773 z" fill="rgb(26,58,40)" transform="translate(0,0)"></path>
<path d="M 1757.25 244.726 C 1759.7 248.152 1763.83 256.534 1766.63 260.909 C 1780.11 281.905 1794.54 291.962 1816.27 302.998 C 1783.85 319.193 1779.01 328.654 1758.12 358.679 C 1739.8 327.279 1730.27 317.874 1697.79 303.038 C 1728.99 290.402 1741.69 273.273 1757.25 244.726 z" fill="rgb(245,158,11)" transform="translate(0,0)"></path>
<path d="M 1726.46 509.379 C 1729.71 511.319 1733.39 519.93 1735.94 524.042 C 1746.63 541.311 1756.86 546.682 1775.72 551.187 C 1751.52 560.752 1737.99 569.952 1728.7 595.421 C 1728.05 595.253 1727.4 595.085 1726.74 594.917 C 1715.65 569.14 1707.22 563.122 1681.75 552.657 C 1684.86 551.437 1687.95 550.17 1691.02 548.858 C 1712.76 539.452 1718.16 530.626 1726.46 509.379 z" fill="rgb(26,58,40)" transform="translate(0,0)"></path>
<path d="M 1727.8 518.659 C 1728.98 519.68 1732.69 525.697 1733.94 527.514 C 1743.29 541.023 1747.81 544.444 1761.5 552.483 C 1745.07 561.494 1736.11 570.454 1727.9 587.193 C 1719.36 570.952 1710.5 560.134 1693.02 553.017 C 1711.09 545.172 1719.19 535.704 1727.8 518.659 z" fill="rgb(245,158,11)" transform="translate(0,0)"></path>
<path d="M 293.607 1536.41 C 304.511 1535.75 313.977 1543.85 315.019 1554.72 C 316.062 1565.59 308.308 1575.34 297.478 1576.77 C 290.121 1577.74 282.821 1574.62 278.443 1568.63 C 274.065 1562.64 273.307 1554.73 276.467 1548.02 C 279.626 1541.3 286.199 1536.85 293.607 1536.41 z" fill="rgb(26,58,40)" transform="translate(0,0)"></path>
<path d="M 291.23 1541.45 C 296.677 1540.17 302.39 1541.95 306.154 1546.09 C 309.918 1550.23 311.142 1556.08 309.351 1561.38 C 307.56 1566.68 303.036 1570.6 297.532 1571.61 C 289.308 1573.11 281.382 1567.79 279.672 1559.6 C 277.961 1551.42 283.091 1543.36 291.23 1541.45 z" fill="rgb(245,158,11)" transform="translate(0,0)"></path>
<metadata><recraft-signature>{"signed_by": "recraft", "signature_b64": "w1KQW+H/LVr4JjQbunCeOYl/7PAWOlq/9tEh5637HMqiBjF+jyX3rQp0WunusZbd3jr5AOZlI5mGOWE9wD/eDg==", "signing_algo": "Ed25519", "generation_timestamp": 1780404974, "identifier": "81843151-acd1-457d-b457-706b8a25d25b"}</recraft-signature></metadata></svg>