<svg xmlns="http://www.w3.org/2000/svg" height="1024" preserveAspectRatio="none" style="display: block;" version="1.1" viewBox="0 0 2048 2048" width="1024">
<defs>
	<linearGradient gradientUnits="userSpaceOnUse" id="Gradient1" x1="1432.39" x2="1439.19" y1="200.111" y2="212.347">
		<stop class="stop0" offset="0" stop-color="rgb(3,0,1)" stop-opacity="1"></stop>
		<stop class="stop1" offset="1" stop-color="rgb(55,16,21)" stop-opacity="1"></stop>
	</linearGradient>
	<linearGradient gradientUnits="userSpaceOnUse" id="Gradient2" x1="1556.39" x2="1548.52" y1="196.219" y2="218.105">
		<stop class="stop0" offset="0" stop-color="rgb(9,3,4)" stop-opacity="1"></stop>
		<stop class="stop1" offset="1" stop-color="rgb(59,15,18)" stop-opacity="1"></stop>
	</linearGradient>
	<linearGradient gradientUnits="userSpaceOnUse" id="Gradient3" x1="1361.24" x2="1337.41" y1="369.704" y2="369.032">
		<stop class="stop0" offset="0" stop-color="rgb(6,0,0)" stop-opacity="1"></stop>
		<stop class="stop1" offset="1" stop-color="rgb(59,18,11)" stop-opacity="1"></stop>
	</linearGradient>
</defs>
<path d="M 0 0 L 2048 0 L 2048 2048 L 0 2048 L 0 0 z" fill="rgb(242,238,224)" transform="translate(0,0)"></path>
<path d="M 683.333 424.6 C 677.701 378.853 686.04 344.706 714.829 307.925 C 725.761 293.965 738.203 281.257 751.928 270.032 C 778.748 248.335 809.81 230.619 839.22 212.559 C 852.491 204.411 883.802 182.583 897.022 178.817 C 928.301 193.472 960.384 210.668 990.891 226.937 C 1052.27 259.666 1125.07 298.725 1150.09 368.149 C 1157.16 387.465 1159.76 408.133 1157.68 428.597 C 1156.84 436.769 1154.94 446.426 1154.56 454.311 C 1186.12 478.304 1221.71 500.61 1254.11 523.658 C 1265.47 531.742 1287.85 545.11 1297.14 554.184 C 1296.67 569.701 1296.69 584.731 1297.3 600.239 C 1297.39 602.473 1296.13 604.925 1294.83 606.693 C 1286.96 611.697 1271.5 600.523 1264.29 596.224 C 1265.05 693.804 1265.27 791.388 1264.95 888.971 C 1329.14 869.07 1396.59 825.722 1461.81 806.668 C 1463.59 806.147 1512.25 836.29 1518.31 839.773 L 1702.89 948.345 L 1814.7 1015.48 C 1834.27 1027.3 1858.78 1040.65 1877.09 1054.4 C 1875.48 1063.03 1876.14 1084.87 1875.98 1094.71 C 1875.45 1128.36 1876.93 1162.37 1876.87 1195.99 L 1877.29 1488.45 L 1877.98 1612.89 C 1878 1638 1878.45 1665.69 1876.88 1690.6 L 1877.78 1689.27 C 1880.82 1684.68 1883.56 1678.8 1886.54 1674.2 C 1934.78 1599.72 1992.73 1641.56 2002.08 1714.41 C 2012.18 1793.07 1980.08 1864.34 1936.48 1927.5 C 1934.42 1930.36 1932.15 1933.19 1930.24 1936.08 C 1949.71 1937.15 1971.45 1936.03 1991.12 1936.07 C 2007.95 1936.1 2016.65 1947.63 2000.38 1951.8 C 1994.63 1953.28 1971.8 1952.14 1964.55 1952.19 L 1874.62 1952.19 L 1563.65 1951.52 L 428.487 1951.95 L 174.148 1952.52 L 109.558 1952.05 C 95.7759 1952.05 81.9615 1952.38 68.1918 1951.97 C 61.7424 1951.78 56.9174 1950.27 55.8643 1943.11 C 56.7856 1940.33 56.9867 1939.41 60.2851 1937.88 C 71.5991 1932.61 144.672 1939.69 150.754 1934.87 L 150.695 1932.25 C 143.151 1927.75 126.298 1908.36 121.184 1901.34 C 73.2855 1835.27 35.6008 1753.19 35.5111 1670.19 C 35.376 1545.15 138.936 1591.18 194.096 1648.79 C 194.173 1642.84 194.401 1637.74 194.819 1631.8 L 195.108 1172.03 C 195.606 1091.61 195.571 1011.2 195.004 930.783 C 195.127 902.221 195.018 873.659 194.678 845.1 C 189.138 844.886 183.42 844.561 177.891 844.655 C 174.623 846.938 171.056 849.943 167.274 850.736 C 159.688 845.599 162.578 807.438 162.304 796.869 C 170.67 786.307 196.788 768.95 208.714 760.505 L 283.12 708.267 L 532.727 531.678 C 582.296 496.748 634.774 460.784 683.333 424.6 z" fill="rgb(26,58,40)" transform="translate(0,0)"></path>
<path d="M 208.005 838.744 C 256.184 806.914 303.535 772.509 351.382 740.228 L 694.82 512.207 C 760.715 468.284 826.31 422.097 892.749 378.872 C 891.534 400.379 892.027 425.083 892.027 446.821 L 892.063 554.994 C 891.548 672.841 891.799 790.69 892.815 908.534 L 893.811 1935.17 L 806.97 1936.05 L 806.583 1725.04 C 806.509 1711.75 807.196 1647.58 804.409 1639.85 C 794.804 1636.11 763.026 1641.93 751.306 1643.54 C 726.167 1646.89 701.064 1650.5 676.001 1654.38 C 645.486 1658.98 605.638 1663.24 575.751 1670.02 C 574.114 1696.36 575.216 1734.63 575.216 1761.91 L 575.022 1935 C 530.094 1935.03 478.074 1933.8 433.636 1935.85 C 440.102 1916.75 448.654 1903.13 455.876 1885.48 C 475.87 1836.62 489.208 1785.29 487.492 1732.15 C 486.66 1706.38 488.473 1687.47 475.929 1663.54 C 462.353 1637.64 449.433 1630.03 421.834 1624.36 C 410.572 1624.32 405.301 1625.49 394.409 1628.42 C 330.278 1649.91 289.952 1721.78 276.615 1784.78 C 274.12 1796.71 270.451 1808.52 267.847 1820.95 C 259.822 1859.26 262.032 1896.37 271.587 1934.19 C 259.987 1934.56 248.385 1934.87 236.782 1935.1 C 233.651 1925.73 222.279 1905.22 222.325 1897.86 C 223.34 1885.16 227.884 1871.89 230.596 1859.45 C 237.895 1825.94 244.507 1792.33 251.276 1758.73 C 251.836 1755.95 251.919 1752.46 250.551 1749.93 C 247.378 1749.76 244.877 1751.67 241.956 1753.27 C 239.166 1767.08 235.42 1779.04 232.158 1792.53 C 225.28 1822.02 218.827 1851.6 212.802 1881.28 C 208.221 1869.2 197.549 1843.55 190.848 1832.84 C 194.666 1810.94 213.866 1703.69 206.838 1690.66 C 203.821 1689.78 202.272 1690.15 199.177 1690.42 C 197.041 1692.16 196.988 1693.76 196.619 1696.63 C 191.824 1733.97 189.468 1773.46 182.413 1810.39 C 173.773 1791.13 161.404 1769.25 157.428 1748.54 C 154.44 1732.99 161.186 1646.28 154.749 1638.46 C 151.155 1638.15 148.153 1640.29 144.859 1642.04 C 145.052 1670.96 144.993 1699.88 144.681 1728.8 C 133.982 1708.62 89.0973 1624.02 73.2245 1615.41 C 69.7037 1615.42 71.1012 1614.78 68.7794 1617.11 C 66.207 1625.44 75.5368 1638.63 80.2428 1645.67 C 99.5785 1674.59 117.379 1702.43 132.079 1733.98 L 129.33 1740.66 C 116.082 1730.68 74.1272 1699.34 61.1834 1695.42 C 57.3146 1696 58.8464 1695.11 56.4144 1698.14 C 56.5633 1708.62 80.4823 1718.99 88.6572 1725.85 C 106.753 1741.02 129.214 1752.51 146.358 1768.44 C 151.304 1773.42 167.935 1811.97 171.193 1819.84 C 158.505 1810.63 79.3417 1758.25 70.0992 1757.21 C 66.9976 1758.2 67.2133 1758.11 65.1926 1760.69 C 65.9311 1769.8 133.634 1806.42 144.372 1814.42 C 152.568 1820.52 167.377 1829.62 176.67 1834.17 C 183.674 1847.87 189.043 1861.04 196.895 1874.3 C 185.444 1868.69 116.995 1828.59 112.252 1829.53 C 111.966 1829.59 110.151 1830.35 109.855 1830.47 C 110.489 1835.69 115.825 1841.88 119.737 1844.42 C 145.052 1860.84 175.915 1876.03 202.582 1889.95 C 208.987 1905.36 215.863 1919.34 221.867 1935.07 C 199.737 1935.02 177.6 1935.05 155.472 1934.81 C 154.576 1934.8 152.251 1932.35 151.662 1931.7 L 150.695 1932.25 C 143.151 1927.75 126.298 1908.36 121.184 1901.34 C 73.2855 1835.27 35.6008 1753.19 35.5111 1670.19 C 35.376 1545.15 138.936 1591.18 194.096 1648.79 C 194.173 1642.84 194.401 1637.74 194.819 1631.8 C 195.295 1637.09 194.973 1643.08 194.855 1648.44 C 199.606 1652.85 203.652 1656.69 208.119 1661.39 C 208.991 1616.94 207.885 1571.76 208.408 1527.27 C 208.633 1508.07 207.554 1484.42 208.838 1465.65 L 208.005 838.744 z" fill="rgb(13,150,104)" transform="translate(0,0)"></path>
<path d="M 804.882 788.984 C 806.36 789.261 806.936 789.548 808.352 790.059 C 809.386 793.754 809.261 836.083 809.154 844.261 C 808.58 888.171 810.397 934.038 808.865 977.739 C 798.822 983.396 706.457 1022.33 698.894 1023.52 C 696.774 1022.12 696.359 1021.56 694.563 1019.71 C 693.503 1013.47 693.767 963.444 693.956 955.618 C 694.88 917.512 692.74 877.587 693.506 839.891 C 728.142 825.632 771.006 801.015 804.882 788.984 z" fill="rgb(11,3,2)" transform="translate(0,0)"></path>
<path d="M 794.06 808.133 C 795.649 810.558 795.772 951.097 796.176 968.02 C 783.272 973.81 769.351 980.357 756.25 985.387 C 756.178 985.047 756.106 984.706 756.034 984.365 C 753.865 932.361 755.471 878.491 756.118 826.14 C 767.088 821.627 783.486 813.622 794.06 808.133 z" fill="rgb(26,58,40)" transform="translate(0,0)"></path>
<path d="M 739.242 833.799 L 739.851 834.026 C 741.839 836.375 741.155 848.354 741.169 852.204 C 741.34 898.83 741.486 945.456 741.636 992.082 C 730.678 996.327 719.938 1000.34 709.279 1005.32 L 708.339 1005.8 L 707.19 1005.09 C 706.137 989.905 706.898 966.137 706.903 950.093 L 706.761 848.971 C 720.704 845.151 726.846 840.971 739.242 833.799 z" fill="rgb(26,58,40)" transform="translate(0,0)"></path>
<path d="M 800.67 1089.14 C 803.826 1089.04 805.227 1088.68 807.976 1090.23 C 809.513 1092.48 809.614 1094.56 809.665 1097.25 C 810.769 1155.47 806.815 1215.66 810.096 1273.69 C 779.879 1287.65 737.41 1298.95 705.557 1309.69 C 702.036 1309.36 700.744 1309.52 697.676 1307.68 C 696.115 1305.51 695.786 1303.5 695.704 1300.85 C 693.958 1244.62 697.194 1187.07 694.557 1130.97 C 730.005 1116.99 764.877 1102.01 800.67 1089.14 z" fill="rgb(11,3,2)" transform="translate(0,0)"></path>
<path d="M 793.017 1105.96 L 794.333 1106.12 C 795.769 1110.81 795.083 1150.76 795.069 1157.7 L 795.04 1264.97 C 783.36 1269.64 770.638 1273.65 758.589 1278.34 L 758.163 1278.38 C 755.729 1274.98 756.987 1134.72 757.029 1120.71 C 768.018 1116.95 782.23 1110.59 793.017 1105.96 z" fill="rgb(26,58,40)" transform="translate(0,0)"></path>
<path d="M 741.369 1125.94 L 742.128 1126.06 C 743.75 1130.09 743.081 1269.47 742.209 1281.68 C 733.005 1286.67 721.32 1289.91 711.205 1292.92 L 709.673 1292.71 C 707.638 1287.63 708.981 1156.1 709.003 1140.07 C 720.084 1135.46 730.54 1131.14 741.369 1125.94 z" fill="rgb(26,58,40)" transform="translate(0,0)"></path>
<path d="M 636.208 867.784 C 638.213 868.241 638.492 867.859 639.553 869.169 C 640.84 870.756 641.119 874.373 641.113 876.365 C 641.021 905.654 641.131 938.577 640.982 967.386 C 640.913 980.758 642.358 1037.19 640.282 1046.99 C 636.565 1051.87 548.742 1090.27 537.311 1093.5 L 534.537 1091.98 C 531.485 1087.89 533.209 1052.69 533.017 1044.73 C 532.012 1003 534.567 959.973 531.776 918.388 C 540.269 913.074 554.52 907.08 564.03 902.226 C 587.829 890.077 611.675 878.415 636.208 867.784 z" fill="rgb(26,58,40)" transform="translate(0,0)"></path>
<path d="M 626.719 886.027 L 627.499 886.858 C 629.39 898.902 628.717 1028.84 626.627 1036.14 C 626.383 1037 625.662 1039.04 625.056 1039.66 C 621.045 1043.78 601.196 1051.31 594.362 1054.65 C 591.383 1050.52 592.94 917.892 593.111 902.329 C 605.143 897.61 615.39 892.074 626.719 886.027 z" fill="rgb(13,150,104)" transform="translate(0,0)"></path>
<path d="M 634.161 1150.89 C 635.636 1150.92 635.736 1151.19 637.217 1151.79 C 638.72 1153.65 640.284 1155.52 640.441 1157.98 C 641.576 1175.86 641.137 1195.57 641.133 1213.4 L 641.336 1328.02 C 629.548 1333.2 608.975 1339.48 596.387 1343.61 C 577.972 1349.65 557.725 1356.7 539.197 1361.49 C 536.569 1360.73 536.686 1360.57 534.574 1358.74 C 532.16 1351.68 532.957 1290.22 532.904 1277.5 C 532.77 1249.06 532.451 1220.63 531.948 1192.2 C 541.45 1185.93 554.314 1181.92 564.981 1177.57 C 587.554 1168.38 611.96 1160.69 634.161 1150.89 z" fill="rgb(26,58,40)" transform="translate(0,0)"></path>
<path d="M 481.495 942.914 C 484.467 942.805 485.816 942.419 488.248 944.079 C 492.542 953.651 490.869 1090.15 491.049 1112.21 C 480.101 1118.57 464.367 1125.1 452.507 1130.25 L 396.253 1154.5 L 393.983 1155.07 C 390.682 1154.34 388.283 1152.28 388.293 1148.71 C 388.437 1096.14 387.14 1042.95 388.203 990.417 C 397.249 981.759 466.347 950.218 481.495 942.914 z" fill="rgb(26,58,40)" transform="translate(0,0)"></path>
<path d="M 476.745 962.109 L 477.062 962.361 C 478.073 964.345 477.746 1090.5 477.878 1104.05 C 468.319 1108.86 457.982 1112.06 448.138 1117.02 C 446.059 1112.26 447.683 988.831 448.1 974.906 L 476.745 962.109 z" fill="rgb(13,150,104)" transform="translate(0,0)"></path>
<path d="M 481.828 1211.12 C 484.321 1211.3 485.502 1211.7 487.91 1212.29 C 489.668 1213.91 490.36 1213.88 490.36 1216.52 C 490.359 1226.35 489.846 1236.82 489.656 1246.63 C 489.339 1273.21 489.289 1299.79 489.506 1326.37 C 489.545 1338.62 488.879 1367.09 491.397 1377.59 C 464.785 1388.47 426.271 1400.71 398.891 1409.72 C 395.068 1410.39 393.162 1410.18 390.069 1407.87 C 386.803 1400.71 388.196 1266.23 388.196 1249.45 C 402.728 1239.97 461.929 1218.94 481.828 1211.12 z" fill="rgb(26,58,40)" transform="translate(0,0)"></path>
<path d="M 802.436 1380.04 C 806.959 1380.09 809.025 1383.24 809.01 1387.46 C 808.837 1434.05 810.189 1480.96 809.444 1527.52 C 801.627 1530.37 791.292 1532.42 783.141 1534.72 C 756.873 1542.13 729.846 1546.88 703.511 1553.77 C 696.131 1552.58 695.398 1543.26 695.421 1537.34 C 695.558 1501.95 695.961 1466.56 695.536 1431.16 C 695.458 1424.67 695.146 1418.03 696.694 1411.71 C 703.063 1407.81 738.162 1398.88 747.398 1396.26 L 802.436 1380.04 z" fill="rgb(26,58,40)" transform="translate(0,0)"></path>
<path d="M 805.824 540.797 L 808.031 542.51 C 811.622 549.645 809.22 668.467 809.208 687.267 C 801.161 692.867 781.978 701.799 772.164 706.917 L 699.669 745.159 C 698.467 744.37 694.37 741.659 694.318 740.256 C 692.752 697.956 693.462 651.979 694.196 609.891 C 699.294 606.114 705.535 601.659 711.094 598.664 C 742.126 581.947 774.076 555.483 805.824 540.797 z" fill="rgb(26,58,40)" transform="translate(0,0)"></path>
<path d="M 339.245 1013.83 C 340.672 1013.67 341.166 1013.98 342.679 1014.33 C 344.739 1016.35 346.192 1017.9 346.451 1020.96 C 347.507 1033.45 347.071 1047.45 347.053 1060 L 347.234 1128.45 C 347.312 1143.14 347.002 1161.9 348.685 1176.28 C 344.27 1178.63 339.729 1180.69 335.123 1182.63 C 310.201 1193.15 285.498 1204.38 260.213 1214.01 C 256.576 1213.85 255.922 1214.02 252.705 1212.15 C 249.379 1203.96 251.148 1080.81 251.028 1060.72 C 260.977 1052.24 324.67 1021.3 339.245 1013.83 z" fill="rgb(26,58,40)" transform="translate(0,0)"></path>
<path d="M 342.203 1262.77 C 342.751 1262.84 344.675 1263.51 345.284 1263.7 C 346.549 1265.22 347.442 1266.51 347.451 1268.61 C 347.663 1320.26 346.725 1372.33 348.524 1423.94 C 341.165 1427.55 320.881 1433.86 311.949 1436.87 C 294.967 1442.6 274.613 1450.85 257.667 1455.3 L 253.684 1453.5 C 247.614 1444.49 256.061 1326.4 248.655 1303.01 C 259.302 1295.19 325.29 1269.63 342.203 1262.77 z" fill="rgb(26,58,40)" transform="translate(0,0)"></path>
<path d="M 633.199 1427.18 C 636.113 1426.83 636.651 1426.52 639.466 1427.41 C 641.552 1432.36 642.311 1557.29 640.847 1567.64 C 630.947 1571.46 610.253 1575.68 599.234 1578.25 C 579.581 1582.88 559.984 1587.73 540.444 1592.82 C 537.397 1592.79 535.936 1591.25 533.88 1589.44 C 531.237 1584.14 532.115 1471.6 531.694 1455.6 C 541.482 1451.54 559.833 1447.12 570.685 1444.2 L 633.199 1427.18 z" fill="rgb(26,58,40)" transform="translate(0,0)"></path>
<path d="M 636.305 641.791 C 639.655 642.458 641.388 644.671 641.453 648.046 C 641.714 661.658 641.404 675.291 641.341 688.908 L 641.223 776.275 C 611.42 793.194 570.589 815.084 539.614 828.183 C 538.028 827.425 533.677 825.538 533.483 823.546 C 529.899 786.718 536.782 742.014 532.111 705.856 C 537.844 700.943 563.014 685.475 570.88 680.815 C 591.103 668.832 615.589 651.611 636.305 641.791 z" fill="rgb(26,58,40)" transform="translate(0,0)"></path>
<path d="M 484.996 1472.76 L 491.244 1478.83 C 490.431 1504.7 491.438 1531.79 491.113 1557.71 C 490.992 1567.39 492.083 1590.96 489.957 1599.3 C 481.446 1605.72 434.447 1615.41 420.436 1618.56 C 411.864 1620.82 401.684 1623.76 393.006 1624.48 C 389.25 1622.61 388.513 1621.07 388.092 1616.99 C 386.702 1603.49 387.225 1589.34 387.266 1575.78 C 387.485 1550.84 387.488 1525.89 387.273 1500.94 C 397.423 1497.39 409.136 1495.43 419.631 1492.24 C 441.423 1485.62 463.051 1478.88 484.996 1472.76 z" fill="rgb(26,58,40)" transform="translate(0,0)"></path>
<path d="M 484.237 734.686 C 488.375 736.229 490.536 739.363 490.478 743.772 C 489.988 780.615 491.322 817.711 489.868 854.522 C 483.755 859.695 468.73 866.829 461.18 871.038 C 439.086 883.354 417.294 894.845 394.543 905.911 C 392.816 905.604 389.254 902.625 387.569 901.381 C 387.39 865.003 387.443 828.625 387.729 792.248 C 398.284 786.04 408.486 778.878 419.062 772.474 C 440.615 759.584 462.342 746.986 484.237 734.686 z" fill="rgb(26,58,40)" transform="translate(0,0)"></path>
<path d="M 476.848 755.068 C 478.449 757.528 477.912 836.295 477.928 846.687 C 468.708 850.991 457.376 857.239 448.169 862.028 C 445.686 857.846 447.055 781.02 447.406 770.622 C 457.148 767.116 467.762 760.414 476.848 755.068 z" fill="rgb(13,150,104)" transform="translate(0,0)"></path>
<path d="M 339.087 1511.39 C 343.612 1511.08 345.39 1510.75 348.819 1512.91 C 349.607 1516.96 349.692 1546.35 349.492 1552.41 C 348.709 1576.14 351.396 1608.35 349.215 1631.21 C 331.531 1638.86 283.219 1650.74 261.836 1656.63 C 246.964 1656.41 252.041 1636.04 252.074 1625.26 C 252.309 1599.62 249.945 1566.84 252.743 1542.29 C 253.552 1535.2 329.768 1514.26 339.087 1511.39 z" fill="rgb(26,58,40)" transform="translate(0,0)"></path>
<path d="M 343.946 818.822 C 345.055 819.236 348.437 820.94 348.473 822.214 C 349.509 858.702 348.95 895.499 348.926 932.058 C 335.75 942.798 270.355 978.521 254.252 983.105 L 251.915 981.491 C 248.936 977.001 250.053 890.794 249.947 876.395 C 257.834 868.74 333.174 822.662 343.946 818.822 z" fill="rgb(26,58,40)" transform="translate(0,0)"></path>
<path d="M 289.985 866.106 C 292.048 868.997 291.541 939.885 291.602 949.438 L 266.547 962.792 L 266.22 962.74 C 265.829 962.345 265.437 961.951 265.046 961.557 C 264.941 938.72 264.994 902.145 264.823 880.57 L 289.985 866.106 z" fill="rgb(13,150,104)" transform="translate(0,0)"></path>
<path d="M 1468.03 871.853 C 1525.52 907.179 1583.44 941.798 1641.78 975.703 C 1662.43 987.946 1682.7 1001.04 1703.48 1013.09 C 1756.98 1044.1 1809.36 1074.54 1862.02 1107.07 C 1863.95 1155.49 1862.11 1214.53 1862.18 1263.75 L 1862.75 1566.73 L 1862.84 1668.35 C 1862.87 1677.36 1862.65 1688.53 1862.97 1697.61 C 1863.06 1700.25 1866.3 1701.13 1868.48 1702.12 C 1874.02 1700.29 1874.86 1695.61 1876.88 1690.6 L 1877.78 1689.27 C 1880.82 1684.68 1883.56 1678.8 1886.54 1674.2 C 1934.78 1599.72 1992.73 1641.56 2002.08 1714.41 C 2012.18 1793.07 1980.08 1864.34 1936.48 1927.5 C 1934.42 1930.36 1932.15 1933.19 1930.24 1936.08 C 1908.48 1935.95 1886.72 1936.03 1864.96 1936.34 C 1867.76 1925.27 1875.2 1905.67 1879.99 1895.31 C 1894.22 1886.18 1966.51 1839.84 1970.22 1829.94 C 1969.46 1826.57 1970.27 1827.93 1967.79 1825.65 C 1961.85 1825.22 1950.03 1836.2 1943.99 1840.02 C 1923.58 1852.92 1903.33 1866.18 1883.63 1880.14 C 1887.59 1868.09 1891.82 1853.14 1897.99 1841.14 C 1906.33 1824.92 1984.9 1782.62 1980.99 1767.68 L 1979.23 1766.97 C 1967.56 1768.34 1912.72 1812.05 1902.76 1820.79 C 1907.75 1807.66 1911.41 1792.51 1918.54 1779.43 C 1927.03 1763.83 1983.4 1732.72 1981.08 1717.21 L 1979.41 1716.28 C 1969.65 1717.74 1930.93 1753.11 1921.6 1761.65 C 1931.48 1737.26 1944.34 1699.42 1952.59 1673.6 C 1953.33 1671.29 1952.02 1669.49 1950.66 1667.96 C 1949.11 1667.74 1948.23 1667.28 1946.78 1668.08 C 1934 1675.1 1914.45 1749.23 1907.84 1766.15 C 1906.65 1755.22 1897.47 1691 1892.31 1686.62 C 1880.89 1687.7 1885.5 1694.47 1886.34 1704.15 C 1888.8 1732.58 1898.73 1762.62 1898 1790.86 C 1897.76 1800.27 1888.8 1823.05 1885.1 1831.74 C 1877.93 1808.66 1869.96 1783.89 1858.69 1762.51 C 1856.23 1757.84 1850.59 1761.87 1848.19 1764.58 L 1844.69 1766.19 C 1825.83 1832.3 1813.59 1863.59 1813.98 1934.93 C 1809.45 1934.95 1803.01 1934.79 1798.65 1935.16 L 1727.2 1935.19 C 1727.03 1926.78 1728.42 1914.73 1725.15 1907.51 C 1717.31 1899.6 1697.68 1902.09 1686.62 1901.16 C 1677.37 1900.38 1666.92 1900.22 1657.58 1899.79 C 1655.67 1864.46 1657.06 1815.97 1657.12 1779.48 C 1701.42 1787.07 1746.59 1791.71 1790.83 1800.05 C 1807.39 1805.06 1807.96 1787.2 1806.55 1775.34 C 1804.22 1755.73 1810.37 1660.5 1803.58 1648.26 C 1792.96 1640.56 1677.77 1615.3 1656.68 1610.43 L 1656.65 1598.46 C 1665.52 1600.42 1675.2 1602.31 1683.76 1605.13 C 1706.49 1596.61 1700.22 1586.04 1699.87 1564.14 C 1717.16 1569.43 1789.09 1593.67 1801.2 1591.36 C 1803.31 1589.93 1803.49 1589.74 1804.66 1587.58 C 1805.61 1585.8 1806.7 1580.88 1806.57 1579.13 C 1805.16 1561.21 1808.53 1479.43 1804.42 1467.71 C 1792.47 1456.25 1643.75 1414.24 1617.97 1406.31 L 1563.63 1389.44 C 1554.64 1386.69 1544.76 1383.78 1535.52 1381.62 C 1532.58 1380.94 1531.94 1382.21 1529.77 1383.95 C 1526.94 1393.58 1527.99 1477.45 1527.99 1492.99 C 1508.74 1486.59 1488.65 1482.49 1468.99 1475.29 L 1468.03 871.853 z" fill="rgb(13,150,104)" transform="translate(0,0)"></path>
<path d="M 1536.68 986.916 C 1545.54 990.312 1558.74 997.888 1567.83 1002.15 C 1596.92 1015.76 1624.66 1031.43 1652.97 1046.31 C 1687.68 1064.29 1722.16 1082.72 1756.39 1101.58 C 1766.16 1106.85 1798.62 1123.4 1804.82 1129.4 C 1805.77 1168.18 1805.38 1208.32 1804.83 1247.14 C 1804.78 1250.4 1799.17 1253.55 1796.64 1255.26 C 1784.92 1256.21 1666.93 1197.61 1645.33 1187.53 L 1573.93 1153.98 C 1562.64 1148.61 1535.75 1137.37 1528.31 1128.89 C 1527.72 1102.72 1528.43 1074.92 1528.08 1048.6 C 1527.91 1036.23 1527.29 1001.01 1529.54 990.952 C 1531.48 988.266 1533.5 988.006 1536.68 986.916 z" fill="rgb(11,3,2)" transform="translate(0,0)"></path>
<path d="M 1586.92 1026.39 C 1609.39 1038.41 1628.9 1048.35 1650.76 1061.93 C 1650.96 1097.03 1650.37 1137.47 1649.29 1172.43 C 1644.35 1171.89 1594.34 1146.59 1586.2 1142.58 C 1585.72 1113.93 1586.19 1085.13 1585.92 1056.47 C 1585.83 1046.93 1585.68 1035.78 1586.92 1026.39 z" fill="rgb(245,158,11)" transform="translate(0,0)"></path>
<path d="M 1662.93 1067.49 C 1682.12 1077.84 1701.23 1088.4 1720.77 1098.07 C 1718.04 1128.88 1720.66 1172.88 1719.93 1205.27 C 1704.94 1199.83 1675.5 1185.65 1661.94 1177.9 C 1661.4 1158.74 1661.89 1138.03 1661.85 1118.72 C 1661.82 1103.26 1661.46 1082.48 1662.93 1067.49 z" fill="rgb(245,158,11)" transform="translate(0,0)"></path>
<path d="M 1731.97 1105.15 C 1742.05 1109.13 1780.57 1130.09 1791.01 1136.12 L 1791.11 1240.34 C 1771.52 1231.21 1750.8 1221.71 1731.87 1211.43 C 1731.16 1199.96 1731.59 1184.54 1731.63 1172.84 L 1731.97 1105.15 z" fill="rgb(245,158,11)" transform="translate(0,0)"></path>
<path d="M 1540.85 1004.09 C 1551.96 1008.93 1563.11 1014.68 1573.99 1020.08 L 1573.37 1134.82 L 1571.93 1135.55 C 1562.01 1132.57 1550.72 1127.36 1541.41 1122.9 C 1540.61 1083.79 1541.04 1043.31 1540.85 1004.09 z" fill="rgb(13,150,104)" transform="translate(0,0)"></path>
<path d="M 1532.94 1192.99 C 1542.62 1192.93 1588.13 1213.42 1599.5 1217.99 L 1751.9 1278.69 C 1767.24 1284.86 1783.12 1290.73 1798.55 1296.74 C 1800.75 1297.6 1803.99 1301.66 1805.57 1303.55 C 1803.52 1338.02 1807.62 1375.2 1805.53 1409.89 C 1805.14 1416.28 1804.63 1418 1799.92 1422.31 C 1795.02 1423.32 1788.19 1420.95 1783.43 1419.32 C 1709.19 1393.89 1635.1 1368.19 1561.61 1340.72 C 1550.45 1336.55 1539.55 1334.27 1529.34 1327.82 C 1527.93 1325.18 1527.77 1323.04 1527.83 1320 C 1528.61 1280.55 1527.93 1241.11 1528.06 1201.69 C 1528.08 1197.2 1529.67 1195.75 1532.94 1192.99 z" fill="rgb(11,3,2)" transform="translate(0,0)"></path>
<path d="M 1585.75 1226.65 C 1605.1 1235.66 1630.19 1245.42 1650.07 1252.94 C 1650.11 1282.44 1651.47 1326.87 1649.49 1355.76 C 1642.64 1356.58 1595.07 1337.65 1585.75 1334.17 C 1584.92 1299.31 1585.64 1261.72 1585.75 1226.65 z" fill="rgb(245,158,11)" transform="translate(0,0)"></path>
<path d="M 1730.48 1285.34 C 1747.18 1290.59 1775.81 1303.24 1792.69 1310.26 C 1791.33 1340.98 1792.28 1374.81 1791.84 1406.04 C 1771.47 1399.31 1749.35 1392.46 1729.37 1385.03 C 1728.78 1371.03 1727.76 1293.97 1730.48 1285.34 z" fill="rgb(245,158,11)" transform="translate(0,0)"></path>
<path d="M 1663.11 1257.6 C 1681.84 1264.73 1700.38 1272.37 1718.71 1280.51 C 1718.06 1313.34 1718.53 1346.59 1718.03 1379.58 C 1711.09 1379.77 1671.83 1364.59 1662.9 1361.28 C 1661.67 1328.94 1662.85 1290.43 1663.11 1257.6 z" fill="rgb(245,158,11)" transform="translate(0,0)"></path>
<path d="M 1541.56 1208.06 C 1551.46 1213.04 1563.61 1218.02 1573.86 1222.1 C 1572.81 1257.49 1573.05 1294.09 1572.88 1329.59 C 1563.49 1327.27 1551.09 1321.82 1541.99 1318 C 1540.6 1299.37 1541.3 1275.04 1541.05 1256.12 C 1540.88 1243.56 1540.33 1219.57 1541.56 1208.06 z" fill="rgb(13,150,104)" transform="translate(0,0)"></path>
<path d="M 1454.97 870.281 C 1456.46 874.493 1455.37 950.746 1455.44 963.395 L 1456.06 1471.85 L 1366.53 1446.52 C 1332.36 1436.94 1334.2 1432.88 1298.79 1440.98 C 1287.61 1443.31 1276.22 1445.43 1264.99 1447.62 L 1264.55 951.321 C 1292.94 937.764 1330.95 922.968 1361.16 909.738 C 1381.36 900.853 1401.64 892.118 1421.98 883.535 C 1432.04 879.243 1444.64 873.072 1454.97 870.281 z" fill="rgb(13,150,104)" transform="translate(0,0)"></path>
<path d="M 1372.24 1211.08 C 1373.66 1211.41 1375.79 1212.2 1376.97 1213.14 C 1378.49 1214.35 1379.34 1215.22 1379.75 1217.09 C 1381.9 1226.89 1380.18 1246.45 1380.19 1257.22 C 1380.24 1285.64 1381.4 1314.57 1380.03 1342.93 C 1379.9 1345.71 1379.73 1352.69 1378.07 1354.72 C 1371.54 1362.66 1309.06 1375.58 1295.41 1378.44 C 1291.14 1377.62 1287.33 1375.49 1287.16 1370.61 C 1286.64 1356.4 1286.89 1342.11 1286.93 1327.89 C 1287.14 1298.69 1287.09 1269.5 1286.79 1240.3 C 1295.86 1235.2 1317.23 1229.06 1328.15 1225.59 C 1342.88 1220.85 1357.58 1216.02 1372.24 1211.08 z" fill="rgb(26,58,40)" transform="translate(0,0)"></path>
<path d="M 1325.38 1241.12 L 1326.13 1241.25 C 1327.85 1244.29 1326.86 1342.3 1326.81 1355.64 C 1318 1359.16 1310.44 1360.99 1301.21 1362.89 L 1300.27 1362.59 C 1297.48 1358.8 1299.29 1262.89 1299.39 1249.15 C 1307.69 1246.16 1316.88 1243.63 1325.38 1241.12 z" fill="rgb(13,150,104)" transform="translate(0,0)"></path>
<path d="M 1365.02 1228.1 C 1366.74 1230.38 1366.2 1331.65 1366.48 1343.68 C 1358.73 1347.53 1350.17 1350.22 1341.97 1353.06 C 1340.16 1345.27 1340.41 1323.4 1340.31 1314.48 C 1340.09 1288.93 1340 1263.39 1340.05 1237.85 C 1348.43 1234.72 1356.82 1231.69 1365.02 1228.1 z" fill="rgb(13,150,104)" transform="translate(0,0)"></path>
<path d="M 1368.72 985.959 C 1373.7 985.935 1378.8 987.727 1379 993.712 C 1379.19 1010.39 1379.73 1027.44 1379.41 1044.11 C 1378.86 1072.34 1380.76 1101.82 1379.23 1129.93 C 1364.09 1137.45 1314.27 1154.35 1298.02 1158.83 C 1292.94 1159.29 1294.28 1159.86 1290.11 1158 C 1284.36 1150.51 1288.31 1078.61 1287.27 1063.73 C 1286.69 1055.5 1287.31 1028.22 1288.2 1019.77 C 1297.43 1013.48 1320.77 1006.03 1332.33 1001.2 C 1344.22 996.229 1356.79 990.974 1368.72 985.959 z" fill="rgb(26,58,40)" transform="translate(0,0)"></path>
<path d="M 1324.74 1018.07 L 1326.2 1018.01 C 1328.62 1020.85 1328.07 1120.93 1328.23 1133.83 C 1319.26 1138.19 1311.16 1138.75 1303.13 1142.91 L 1301.36 1142.06 C 1299.61 1131.77 1300.08 1109.29 1300.08 1098.08 L 1299.92 1027.67 C 1307.26 1024.4 1317.08 1020.98 1324.74 1018.07 z" fill="rgb(13,150,104)" transform="translate(0,0)"></path>
<path d="M 1364.92 1003.2 L 1365.34 1003.54 C 1367.63 1009.33 1366.35 1108.18 1366.16 1122.32 C 1357.5 1124.28 1351.09 1126.61 1342.72 1129.65 L 1341.39 1128.78 C 1339.64 1094.76 1340.96 1046.62 1340.79 1011.77 L 1364.92 1003.2 z" fill="rgb(13,150,104)" transform="translate(0,0)"></path>
<path d="M 1056.66 1567.47 C 1072.19 1570.12 1089.25 1574.13 1104.73 1577.58 C 1166.88 1591.44 1233.63 1598.34 1295.15 1613.84 L 1294.89 1875.51 L 1273.03 1877.85 C 1245.12 1881.86 1214.72 1884.02 1186.57 1886.99 L 1056.27 1900.84 L 1056.66 1567.47 z" fill="rgb(13,150,104)" transform="translate(0,0)"></path>
<path d="M 906.922 1541.57 C 912.86 1541.83 919.077 1542.84 924.963 1543.74 C 964.122 1549.73 1002.99 1557.24 1042.03 1564 L 1042.96 1935.46 C 997.698 1935.2 952.431 1935.47 907.171 1936.26 C 906.805 1921.02 906.836 1905.14 906.957 1889.88 C 907.876 1773.91 905.432 1657.5 906.922 1541.57 z" fill="rgb(13,150,104)" transform="translate(0,0)"></path>
<path d="M 1611.76 1612.45 C 1612.12 1613 1612.48 1613.55 1612.84 1614.1 C 1613.23 1694.9 1613.5 1820.6 1613.01 1896.11 C 1606.25 1896.06 1600.83 1894.91 1594.25 1894.33 C 1556.01 1890.98 1517.32 1890.05 1479.06 1887.24 C 1475.59 1887.2 1470.45 1887.7 1468 1885.73 C 1467.04 1876.63 1467.4 1863.36 1467.4 1853.91 L 1467.52 1798.13 L 1467.73 1629.45 L 1611.76 1612.45 z" fill="rgb(13,150,104)" transform="translate(0,0)"></path>
<path d="M 408.669 1637.29 C 416.445 1636.19 427.104 1637.16 433.993 1640.77 C 466.707 1657.9 468.369 1695.44 469.941 1726.59 C 473.735 1801.8 446.393 1868.6 416.299 1935.8 C 391.294 1935.36 365.574 1934.79 340.608 1935.65 L 339.122 1922.85 C 349.722 1918.06 415.235 1875.26 413.709 1867.01 C 408.749 1863.21 405.527 1864.77 400.516 1868.26 C 381.341 1881.61 358.439 1896.08 341.153 1911.57 C 342.347 1898.76 343.925 1885.98 345.884 1873.27 C 358.919 1860.13 435.787 1809.05 438.547 1800.92 C 437.905 1797.07 438.76 1798.62 436.044 1796.01 C 427.68 1795.86 358.602 1848.69 349.022 1856.28 C 351.473 1849.83 362.027 1819.3 364.757 1816.54 C 385.238 1795.83 415.086 1773.19 438.327 1754.49 C 441.621 1751.84 442.097 1750.32 442.554 1746.58 C 441.192 1743.12 442.341 1744.31 439.149 1742.74 C 427.631 1743.11 382.483 1785.9 371.655 1795.45 L 370.549 1796.56 L 369.336 1796.54 C 370.978 1787.81 398.343 1736.67 404.904 1725.06 C 408.856 1718.06 425.524 1694.62 426.298 1688.02 L 423.855 1685.96 C 422.47 1685.83 420.62 1685.31 419.732 1686.25 C 389.567 1718.41 362.124 1782.67 349.34 1820.99 C 348.82 1806.33 353.161 1728.62 349.802 1721.89 C 349.081 1720.45 348.143 1720.47 346.753 1719.91 L 343.911 1721.31 C 338.521 1728.04 339.704 1740.97 339.221 1749.72 C 337.842 1772.62 337.297 1795.56 337.587 1818.5 C 337.741 1825.94 339.216 1848.15 338.389 1853.64 C 336.011 1869.44 332.917 1884.86 330.842 1901.19 C 322.75 1873.16 319.29 1842.65 315.135 1813.89 C 314.268 1807.89 314.574 1797.92 308.5 1795.31 C 305.417 1796.27 306.598 1795.42 304.648 1797.66 C 303.728 1802.36 304.632 1812.6 305.063 1817.81 C 307.28 1844.65 311.998 1872.1 317.73 1898.41 C 320.466 1910.97 324.127 1922.2 326.619 1935.18 C 312.327 1935.27 298.686 1935.42 284.409 1934.75 C 275.133 1881 276.535 1829.02 293.131 1776.57 C 309.381 1725.21 350.052 1646.95 408.669 1637.29 z" fill="rgb(245,158,11)" transform="translate(0,0)"></path>
<path d="M 790.146 1654.97 L 791.606 1655.58 C 790.238 1688.4 791.644 1729.25 791.845 1762.53 L 791.925 1935.27 C 757.115 1934.44 720.001 1935 685.006 1934.91 L 683.587 1934.26 C 682.211 1929.55 682.872 1916.66 682.841 1911.09 C 682.44 1839.8 683.971 1768.24 681.991 1696.99 C 696.898 1690.2 722.557 1683.23 739.325 1676.29 C 756.229 1669.3 773.383 1661.51 790.146 1654.97 z" fill="rgb(245,158,11)" transform="translate(0,0)"></path>
<path d="M 1343.24 1623.33 C 1374.19 1630.74 1422.39 1641.69 1452.85 1646.28 C 1453.53 1672.36 1453 1701.17 1453.02 1727.47 L 1452.94 1885.01 C 1417.86 1884.78 1378.75 1880.87 1342.94 1879.41 C 1341.36 1852.82 1342.58 1812.41 1342.6 1784.9 C 1342.65 1731.54 1342.28 1676.61 1343.24 1623.33 z" fill="rgb(13,150,104)" transform="translate(0,0)"></path>
<path d="M 890.818 296.044 C 892.26 298.799 891.026 330.248 890.943 335.696 C 880.298 347.444 829.556 380.659 812.437 392.253 L 652.985 499.284 C 545.596 570.377 439.579 644.388 333.071 716.78 C 280.004 752.384 227.954 789.479 176.982 828.023 C 175.13 825.384 176.224 805.057 176.316 800.283 C 192.472 785.596 226.497 763.99 245.769 750.074 L 426.386 622.267 L 890.818 296.044 z" fill="rgb(13,150,104)" transform="translate(0,0)"></path>
<path d="M 905.022 381.581 C 922.199 393.2 941.92 404.409 959.668 415.784 L 1161.95 543.4 C 1179.89 554.817 1197.9 566.132 1215.98 577.342 C 1226.14 583.669 1243.12 593.709 1251.95 601.085 C 1251.1 619.481 1251.89 645.672 1251.91 664.81 C 1247.55 662.98 1231.53 652.324 1226.98 649.438 L 1179.73 619.926 L 1033.47 530.871 C 1002.61 511.774 972.287 492.461 940.33 475.079 C 930.804 469.897 914.39 460.105 904.861 456.208 L 905.022 381.581 z" fill="rgb(13,150,104)" transform="translate(0,0)"></path>
<path d="M 1568.65 1406.26 L 1715.19 1451.06 C 1736.42 1457.46 1772.76 1467.27 1792.66 1475.14 C 1792.77 1503.01 1793.34 1548.91 1791.27 1576.48 C 1789.42 1576.46 1730.49 1556.38 1722.9 1553.96 L 1627.51 1524.16 C 1607.95 1518.14 1587.37 1512.34 1568.18 1505.42 C 1567.53 1486.81 1567.77 1467.07 1567.78 1448.39 C 1567.78 1435.59 1567.42 1418.51 1568.65 1406.26 z" fill="rgb(245,158,11)" transform="translate(0,0)"></path>
<path d="M 1594.77 1462.7 C 1598.41 1462.53 1602.05 1462.89 1605.59 1463.78 C 1655 1475.77 1704.45 1489.78 1753.55 1503.02 C 1756.42 1503.79 1757.03 1504.9 1758.44 1507.2 C 1758.86 1511.27 1757.33 1513.19 1755.42 1517.07 C 1746.45 1516.61 1694.78 1501.62 1682.65 1498.5 L 1625.35 1484.03 C 1616.09 1481.71 1605.17 1479.3 1596.19 1476.06 C 1593.83 1475.21 1592.61 1472.73 1591.82 1470.47 C 1592 1466.55 1592.69 1465.96 1594.77 1462.7 z" fill="rgb(11,3,2)" transform="translate(0,0)"></path>
<path d="M 903.715 197.908 C 916.974 203.419 945.435 219.188 958.66 226.435 C 1012.24 255.793 1074.93 287.205 1112.59 336.68 C 1134.27 365.164 1144.74 407.385 1139.61 442.631 C 1133.46 439.711 1114.88 426.497 1108.79 422.235 C 1091.29 409.913 1073.72 397.683 1056.08 385.546 C 1008.83 353.279 948.99 316.266 904.152 281.697 C 905.31 251.381 903.917 227.573 903.715 197.908 z" fill="rgb(245,158,11)" transform="translate(0,0)"></path>
<path d="M 889.93 196.328 C 891.992 199.643 890.339 271.719 890.193 281.861 C 832.032 322.161 773.329 361.639 714.743 401.319 C 708.751 405.378 702.82 409.682 696.952 413.929 C 691.996 408.112 696.127 377.848 698.003 370.251 C 719.392 283.601 820.095 239.617 889.93 196.328 z" fill="rgb(245,158,11)" transform="translate(0,0)"></path>
<path d="M 1329.74 1451.57 C 1348.85 1457.74 1368.97 1463 1388.36 1468.37 C 1488.77 1496.18 1587.55 1524.71 1686.04 1558.85 C 1686.14 1569.82 1686.14 1580.79 1686.04 1591.76 C 1663.54 1586.49 1642.66 1579.36 1620.69 1573.37 L 1489.99 1538.55 C 1436.23 1523.94 1383.41 1512.13 1328.83 1496.28 C 1328.81 1484.36 1328.24 1462.57 1329.74 1451.57 z" fill="rgb(245,158,11)" transform="translate(0,0)"></path>
<path d="M 659.857 1697.3 C 663.464 1696.83 666.058 1696.06 669.358 1697.4 C 670.404 1703.49 669.845 1716.84 669.818 1723.47 L 669.787 1765.96 L 669.46 1934.07 C 651.816 1934.52 634.168 1934.82 616.519 1934.98 C 613.078 1935.06 610.324 1935.62 607.567 1933.8 C 606.695 1926.39 607.267 1913.24 607.305 1905.22 L 607.268 1858.34 C 607.177 1810.58 605.995 1753.93 607.825 1706.86 C 622.196 1703.22 644.133 1700.37 659.857 1697.3 z" fill="rgb(13,150,104)" transform="translate(0,0)"></path>
<path d="M 904.036 298.391 L 1165.76 475.888 C 1189 491.916 1211.54 507.635 1234.35 524.289 C 1250.66 536.201 1267.76 546.579 1283.86 559.213 C 1284.23 570.265 1284.48 581.32 1284.63 592.377 C 1275.34 586.599 1263.2 575.992 1253.31 569.547 C 1232.18 555.779 1211.1 540.612 1190.11 526.783 L 903.71 340.245 L 904.036 298.391 z" fill="rgb(13,150,104)" transform="translate(0,0)"></path>
<path d="M 1343.15 1516.96 C 1433.41 1539.03 1523.35 1562.38 1612.94 1587.03 L 1612.82 1598.76 L 1601.24 1599.81 C 1572.76 1602.29 1544.32 1605.1 1515.91 1608.25 C 1505.03 1609.37 1471.74 1613.94 1463.14 1612.17 C 1422.26 1603.72 1384.81 1590.71 1343.1 1584.6 L 1343.15 1516.96 z" fill="rgb(13,150,104)" transform="translate(0,0)"></path>
<path d="M 1469.12 825.278 C 1483.18 831.474 1522.44 856.784 1536.91 865.548 L 1662.83 940.792 L 1806.05 1026.86 C 1825.63 1038.85 1843.08 1046.8 1861.45 1060.85 C 1861.84 1071.33 1861.89 1081.81 1861.58 1092.28 C 1827.88 1070.78 1793.24 1050.21 1759 1029.53 C 1743.61 1020.75 1727 1013.15 1711.94 1003.83 C 1673.17 979.971 1633.88 956.796 1594.63 933.726 C 1571.09 919.884 1547.9 905.907 1524.84 891.253 C 1506.31 879.478 1485.25 868.991 1468.05 855.452 C 1467.85 845.533 1468.59 835.218 1469.12 825.278 z" fill="rgb(13,150,104)" transform="translate(0,0)"></path>
<path d="M 1310.58 1891.69 L 1516.55 1903.71 C 1582.56 1907.73 1647.08 1911.33 1713.06 1917.15 L 1713 1935.6 C 1672.11 1937.04 1622.83 1935.57 1581.41 1935.44 L 1311.04 1935.17 C 1311.06 1920.74 1311.24 1906.09 1310.58 1891.69 z" fill="rgb(13,150,104)" transform="translate(0,0)"></path>
<path d="M 904.743 469.918 C 933.577 489.648 968.167 506.293 998.153 526.161 C 998.829 554.627 997.89 583.486 998.302 611.991 C 998.426 620.559 998.708 632.093 997.643 640.474 C 967.073 623.53 934.703 607.005 904.707 589.658 C 904.339 550.673 903.88 508.767 904.743 469.918 z" fill="rgb(13,150,104)" transform="translate(0,0)"></path>
<path d="M 905.504 1235.25 C 933.996 1245.06 970.142 1257.98 998.994 1265.68 L 998.84 1376.75 C 967.747 1367.8 936.511 1359.36 905.144 1351.42 C 904.944 1312.7 905.064 1273.97 905.504 1235.25 z" fill="rgb(13,150,104)" transform="translate(0,0)"></path>
<path d="M 905.422 1107.25 C 935.251 1117.87 968.98 1131.22 998.803 1142.57 C 999.19 1163.57 998.964 1185.14 999.07 1206.18 C 999.138 1219.73 999.597 1238.11 998.61 1251.23 C 969.588 1243.55 933.883 1231.32 905.263 1221.53 C 904.834 1183.54 905.624 1145.32 905.422 1107.25 z" fill="rgb(13,150,104)" transform="translate(0,0)"></path>
<path d="M 905.296 981.249 C 919.464 987.762 934.137 993.505 948.494 999.683 C 964.905 1006.74 982.055 1014.92 999.051 1020.36 C 998.261 1055.66 999.33 1092.34 998.816 1127.98 C 966.731 1115.31 936.431 1105.49 905.029 1093.3 C 904.87 1055.95 904.959 1018.6 905.296 981.249 z" fill="rgb(13,150,104)" transform="translate(0,0)"></path>
<path d="M 905.018 728.787 C 934.204 746.192 968.313 757.919 998.934 777.592 C 997.468 811.586 997.989 848.533 997.887 882.716 C 994.109 883.092 914.873 845.736 904.985 841.154 L 905.018 728.787 z" fill="rgb(13,150,104)" transform="translate(0,0)"></path>
<path d="M 905.321 855.818 C 935.203 870.936 968.315 885.48 998.83 899.311 C 998.965 934.792 998.751 970.273 998.187 1005.75 C 971.808 993.25 933.035 979.009 904.996 967.025 L 905.321 855.818 z" fill="rgb(13,150,104)" transform="translate(0,0)"></path>
<path d="M 906.051 1365 C 914.336 1366.47 923.193 1369.56 931.39 1371.73 C 953.505 1377.6 976.225 1385.46 998.704 1389.61 C 999.379 1423.83 999.014 1459.07 999.057 1493.37 C 968.065 1488.06 936.923 1483.49 906.002 1477.78 C 905.8 1441.45 905.051 1401.04 906.051 1365 z" fill="rgb(13,150,104)" transform="translate(0,0)"></path>
<path d="M 1314.19 1452.37 L 1315.41 1453.1 L 1314.83 1492.8 C 1295.44 1494.03 1257.32 1501.75 1236.53 1505.48 C 1175.78 1516.4 1111.87 1526.87 1052.21 1542.07 L 1050.89 1541.39 C 1049.8 1537.66 1050.12 1509.32 1050.1 1503.5 C 1076.82 1499.85 1110.64 1492.47 1137.59 1487.18 C 1196.37 1475.13 1255.23 1463.53 1314.19 1452.37 z" fill="rgb(245,158,11)" transform="translate(0,0)"></path>
<path d="M 904.913 605.033 C 935.833 622.323 967.432 638.92 997.986 656.626 C 998.207 691.068 998.219 725.51 998.022 759.952 C 989.264 756.293 979.691 750.747 970.907 746.682 C 948.4 736.269 926.97 725.034 905.029 713.56 C 905.182 677.385 905.143 641.208 904.913 605.033 z" fill="rgb(13,150,104)" transform="translate(0,0)"></path>
<path d="M 1657 1624.72 C 1669.36 1628.77 1697.2 1634.17 1711.04 1637.36 C 1738.26 1643.7 1765.32 1650.71 1792.18 1658.39 C 1792.12 1677.24 1792.88 1701.5 1791.66 1719.87 C 1791.32 1719.84 1790.98 1719.8 1790.65 1719.77 C 1746.97 1708.47 1700.97 1702.31 1656.96 1692.83 L 1657 1624.72 z" fill="rgb(13,150,104)" transform="translate(0,0)"></path>
<path d="M 1011 533.556 C 1035.44 548.322 1062.08 564.364 1085.63 580.389 C 1086.06 616.642 1086.13 652.899 1085.84 689.153 C 1068.56 680.201 1050.76 668.918 1033.14 660.089 C 1025.69 656.355 1019.02 651.221 1011.03 648.856 C 1010.49 610.425 1010.48 571.988 1011 533.556 z" fill="rgb(13,150,104)" transform="translate(0,0)"></path>
<path d="M 1011.56 1270.54 C 1036.62 1278.78 1060.62 1287.23 1085.95 1294.77 C 1085.34 1323.77 1084.95 1371.29 1086.71 1399.84 C 1076.37 1398.36 1059.58 1392.96 1049.46 1389.97 C 1037.09 1386.42 1024.68 1382.99 1012.24 1379.69 C 1011.44 1343.88 1011.75 1306.48 1011.56 1270.54 z" fill="rgb(13,150,104)" transform="translate(0,0)"></path>
<path d="M 1010.54 782.73 C 1034.42 796.847 1063.5 808.196 1085.67 821.735 C 1086.21 855.547 1085.4 891.265 1085.4 925.337 C 1083.4 925.194 1017.48 892.954 1011.03 889.782 C 1010.66 854.431 1011.57 817.926 1010.54 782.73 z" fill="rgb(13,150,104)" transform="translate(0,0)"></path>
<path d="M 1012 1147.38 C 1036.94 1156.42 1061.58 1166.27 1085.88 1176.91 C 1084.74 1210.17 1085.36 1246.16 1085.72 1279.48 C 1081.03 1279.77 1020.86 1258.91 1012.75 1256.18 C 1011.71 1220.81 1012.15 1182.94 1012 1147.38 z" fill="rgb(13,150,104)" transform="translate(0,0)"></path>
<path d="M 1657.26 1706.78 C 1697.63 1711.32 1749.11 1725.62 1791.86 1732.03 C 1791.86 1749.44 1792.58 1771.31 1791.61 1788.26 C 1750.82 1779.2 1708.46 1775.24 1667.56 1767.01 C 1665.61 1766.62 1661.73 1767.52 1658.68 1767.12 C 1656.24 1761.73 1657.23 1715.73 1657.26 1706.78 z" fill="rgb(13,150,104)" transform="translate(0,0)"></path>
<path d="M 1011.1 905.234 C 1035.54 917.553 1062.01 928.435 1085.8 941.915 C 1085.84 975.434 1085.68 1008.95 1085.33 1042.47 C 1083.65 1042.34 1020.53 1015.25 1011.46 1011.68 C 1010.49 977.508 1011.17 939.687 1011.1 905.234 z" fill="rgb(13,150,104)" transform="translate(0,0)"></path>
<path d="M 1011.81 1024.76 C 1026.21 1033.59 1068.3 1050.75 1085.19 1057.23 C 1086.1 1091.76 1085.72 1127.41 1085.73 1162.03 C 1058.78 1151.21 1040.06 1142.71 1012.01 1133.11 L 1011.81 1024.76 z" fill="rgb(13,150,104)" transform="translate(0,0)"></path>
<path d="M 1098.94 587.544 C 1121.25 599.332 1146.73 616.441 1169.98 629.507 L 1169.76 736.79 C 1146.21 723.109 1122.53 709.668 1098.7 696.466 C 1097.62 661.115 1098.57 623.086 1098.94 587.544 z" fill="rgb(13,150,104)" transform="translate(0,0)"></path>
<path d="M 1294.29 1890.55 L 1294.96 1890.62 C 1296.93 1893.31 1296.11 1928.7 1296.1 1934.94 C 1218.29 1935.06 1137.7 1934.21 1060 1936.12 L 1058.78 1934.99 C 1057.79 1929.5 1058.31 1920.44 1058.44 1914.58 C 1091.2 1912.99 1127.97 1908.61 1160.76 1905.05 L 1294.29 1890.55 z" fill="rgb(13,150,104)" transform="translate(0,0)"></path>
<path d="M 1010.93 664.04 C 1035.8 677.32 1060.48 690.943 1084.98 704.905 C 1086.3 737.258 1085.78 773.174 1085.96 805.793 C 1062.87 794.095 1032.71 779.496 1010.95 766.543 L 1010.93 664.04 z" fill="rgb(13,150,104)" transform="translate(0,0)"></path>
<path d="M 1308.91 1509.9 C 1316.34 1510.64 1321.84 1511.63 1328.83 1514.27 C 1329.85 1524.38 1329.29 1544.05 1329.24 1554.56 L 1329.06 1626.24 L 1329.11 1877.1 C 1323.19 1876.95 1315.45 1876.12 1309.4 1875.64 C 1308.22 1835.56 1309.44 1792.2 1309.37 1751.67 L 1308.91 1509.9 z" fill="rgb(245,158,11)" transform="translate(0,0)"></path>
<path d="M 1098.86 828.329 C 1123.19 842.055 1144.42 853.19 1170.12 864.579 C 1169.81 898.218 1169.72 931.858 1169.87 965.498 C 1153.11 955.042 1118.52 942.209 1098.36 931.384 C 1098.02 897.032 1098.18 862.676 1098.86 828.329 z" fill="rgb(13,150,104)" transform="translate(0,0)"></path>
<path d="M 1100.02 1298.82 C 1116.89 1305.96 1151.43 1316.6 1169.97 1323.01 L 1169.86 1424 C 1146.55 1417.56 1123.6 1410.59 1100.16 1404.22 C 1099.17 1374.35 1098.64 1328.45 1100.02 1298.82 z" fill="rgb(13,150,104)" transform="translate(0,0)"></path>
<path d="M 1099.14 1063.26 C 1118.59 1069.96 1148.43 1084.81 1169.76 1093.19 C 1169.31 1126.8 1170.07 1160.55 1169.8 1194.19 C 1146.27 1185.13 1122.47 1175.47 1099.04 1166.07 L 1099.14 1063.26 z" fill="rgb(13,150,104)" transform="translate(0,0)"></path>
<path d="M 1183.87 638.014 C 1201.72 651.232 1232.47 668.884 1252.23 680.695 C 1249.49 712.25 1253.26 750.34 1250.66 781.794 C 1248.98 781.269 1234.35 772.73 1231.77 771.247 C 1215.43 761.942 1199.17 752.491 1182.99 742.897 L 1182.99 676.985 C 1183 665.771 1182.62 648.86 1183.87 638.014 z" fill="rgb(13,150,104)" transform="translate(0,0)"></path>
<path d="M 1099.27 711.691 C 1119.71 724.257 1148.16 739.049 1169.65 751.195 C 1169.35 783.599 1169.26 816.004 1169.38 848.409 C 1163.35 848.262 1107.63 817.1 1099.01 811.849 C 1098.82 778.463 1098.9 745.076 1099.27 711.691 z" fill="rgb(13,150,104)" transform="translate(0,0)"></path>
<path d="M 1099.13 947.613 C 1122.09 958.565 1146.23 970.847 1170.05 979.38 C 1170.06 1012.24 1170.64 1045.88 1170.37 1078.59 C 1151.62 1069.53 1131.85 1062.76 1113.15 1053.57 C 1108.5 1051.28 1103.72 1049.26 1098.93 1047.28 C 1098.81 1014.06 1098.88 980.835 1099.13 947.613 z" fill="rgb(13,150,104)" transform="translate(0,0)"></path>
<path d="M 1100.03 1181.51 C 1122.21 1189.61 1147.05 1201.4 1169 1208.2 L 1168.76 1308.06 C 1146.08 1299.26 1122.59 1292.43 1099.69 1283.88 C 1100.05 1249.78 1099.57 1215.67 1100.03 1181.51 z" fill="rgb(245,158,11)" transform="translate(0,0)"></path>
<path d="M 1453.18 819.903 L 1454.12 820.331 C 1455.65 824.686 1454.77 850.177 1454.6 856.165 C 1443.31 861.841 1418.21 871.317 1405.21 876.823 L 1331.4 908.713 C 1308.95 918.17 1288.29 925.947 1265.75 936.276 L 1265.39 936.248 C 1263.15 933.38 1264.06 907.16 1264.08 901.713 C 1277.47 897.081 1290.71 890.776 1303.74 885.113 C 1353.52 863.471 1404.26 843.383 1453.18 819.903 z" fill="rgb(13,150,104)" transform="translate(0,0)"></path>
<path d="M 1182.81 870.778 C 1204.93 883.674 1228.54 895.248 1250.97 908.056 L 1250.67 1001.76 C 1234.15 997.559 1201.63 977.676 1183.09 971.323 L 1182.81 870.778 z" fill="rgb(13,150,104)" transform="translate(0,0)"></path>
<path d="M 1183.53 758.278 C 1198.42 768.588 1234.69 789.243 1251.06 796.865 C 1251.86 801.06 1251.35 819.75 1251.34 825.167 L 1251.33 892.251 C 1226.84 880.579 1206.26 867.223 1183.15 855.559 C 1183.02 826.719 1181.74 786.45 1183.53 758.278 z" fill="rgb(13,150,104)" transform="translate(0,0)"></path>
<path d="M 1183.47 1328.06 C 1202.23 1334.2 1232.67 1343.59 1250.13 1351.22 C 1250.61 1382.32 1250.1 1414.77 1250.07 1445.99 C 1227.73 1440.36 1205.81 1432.37 1183.35 1428.53 C 1183.12 1395.04 1183.16 1361.55 1183.47 1328.06 z" fill="rgb(13,150,104)" transform="translate(0,0)"></path>
<path d="M 1183.4 1098.3 C 1194.17 1103.56 1241.5 1125.76 1250.07 1128.21 C 1249.49 1160.06 1249.85 1192.86 1249.84 1224.79 C 1227.48 1215.98 1205.21 1206.91 1183.06 1197.59 C 1184.49 1167.6 1183.4 1128.7 1183.4 1098.3 z" fill="rgb(13,150,104)" transform="translate(0,0)"></path>
<path d="M 1183.13 1213.97 C 1205.39 1222.68 1227.75 1231.14 1250.2 1239.34 L 1250.05 1335.78 C 1231.94 1331.13 1202.46 1319.88 1183.12 1313.41 L 1183.13 1213.97 z" fill="rgb(13,150,104)" transform="translate(0,0)"></path>
<path d="M 1012.4 1392.45 C 1034.22 1401.22 1062.9 1408.21 1086.01 1414.52 C 1085.72 1436.67 1085.28 1460.28 1085.94 1482.32 L 1074.52 1484.24 C 1045.17 1489.45 1040.38 1498.51 1011.43 1493.79 C 1012 1461.89 1010.77 1423.54 1012.4 1392.45 z" fill="rgb(13,150,104)" transform="translate(0,0)"></path>
<path d="M 1183.98 986.734 C 1205.4 997.824 1229.61 1006.67 1250.36 1018.12 C 1249.64 1049.4 1250.32 1081.45 1249.92 1112.87 C 1240.03 1110.5 1196.49 1089.01 1184.19 1083.71 L 1183.98 986.734 z" fill="rgb(13,150,104)" transform="translate(0,0)"></path>
<path d="M 1293.24 1511.44 L 1294.52 1511.66 C 1296.17 1519.58 1294.18 1559.94 1294.09 1571.66 C 1280.26 1567.84 1261 1564.46 1246.66 1561.45 C 1221.47 1556.11 1196.33 1550.58 1171.23 1544.84 C 1160.34 1542.42 1149.47 1539.9 1138.63 1537.28 C 1188.32 1528.93 1244.48 1517.88 1293.24 1511.44 z" fill="rgb(13,150,104)" transform="translate(0,0)"></path>
<path d="M 1628.15 1591.14 C 1633.02 1592.03 1637.96 1593.21 1642.8 1594.29 C 1641.77 1605.78 1642.48 1618.37 1642.57 1630 L 1642.64 1681.81 C 1642.83 1751.5 1644.54 1828.62 1642.4 1897.75 C 1634.22 1898.65 1627.87 1899.38 1627.99 1890.1 C 1629.23 1790.63 1626.56 1690.55 1628.15 1591.14 z" fill="rgb(13,150,104)" transform="translate(0,0)"></path>
<path d="M 1100.01 1418.57 C 1123.31 1424.45 1146.44 1430.94 1169.39 1438.06 C 1170.3 1446.45 1170.06 1457.92 1170.12 1466.57 L 1158.25 1468.73 C 1139.63 1472.84 1119.07 1475.62 1099.8 1479.69 C 1099.75 1459.32 1099.82 1438.94 1100.01 1418.57 z" fill="rgb(13,150,104)" transform="translate(0,0)"></path>
<path d="M 1184.04 1440.84 C 1196.93 1445.48 1212.15 1449.66 1225.52 1454.02 L 1225.55 1455 L 1220.47 1456.41 C 1208.67 1459.19 1196.27 1460.87 1184.07 1463.71 L 1184.04 1440.84 z" fill="rgb(13,150,104)" transform="translate(0,0)"></path>
<path d="M 1471.83 187.829 C 1514.65 180.049 1558.8 189.876 1594.27 215.085 C 1603.59 221.641 1613.04 229.401 1620.5 238.072 C 1624.45 242.669 1627.52 246.426 1631.17 251.283 C 1651.41 220.015 1689.19 200.354 1724.79 193.046 C 1767.16 184.35 1811.21 193.187 1847.23 216.9 C 1881.72 239.497 1905.66 275.022 1913.66 315.469 C 1926.43 379.898 1912.77 429.492 1882.09 485.915 C 1875.73 497.61 1868.15 512.259 1860.65 523.037 C 1799.89 610.455 1710.15 689.372 1615.86 738.175 C 1604.25 732.919 1587.92 723.121 1576.76 716.389 C 1553.83 702.79 1531.94 687.514 1511.26 670.687 C 1451.16 621.087 1386.29 541.11 1358.98 468.003 C 1358.05 465.54 1357.19 463.056 1356.38 460.553 C 1355.18 457.751 1354.07 454.906 1353.07 452.023 C 1338.42 410.23 1332.58 365.809 1340.15 322.044 C 1342.06 310.994 1344.43 298.706 1349.31 288.541 C 1356.94 264.494 1376.84 240.155 1394.6 222.804 C 1413.28 205.716 1447.07 191.534 1471.83 187.829 z" fill="rgb(245,158,11)" transform="translate(0,0)"></path>
<path d="M 1631.17 251.283 C 1651.41 220.015 1689.19 200.354 1724.79 193.046 C 1767.16 184.35 1811.21 193.187 1847.23 216.9 C 1881.72 239.497 1905.66 275.022 1913.66 315.469 C 1926.43 379.898 1912.77 429.492 1882.09 485.915 C 1875.73 497.61 1868.15 512.259 1860.65 523.037 C 1799.89 610.455 1710.15 689.372 1615.86 738.175 C 1604.25 732.919 1587.92 723.121 1576.76 716.389 C 1553.83 702.79 1531.94 687.514 1511.26 670.687 C 1451.16 621.087 1386.29 541.11 1358.98 468.003 C 1358.05 465.54 1357.19 463.056 1356.38 460.553 L 1357.24 458.734 C 1356.31 455.83 1356.06 455.83 1356.49 452.89 L 1358.91 452.628 C 1359.39 453.169 1359.87 453.71 1360.35 454.25 L 1362.8 453.123 C 1364.08 456.618 1365.44 460.085 1366.87 463.522 C 1406.26 558.261 1487.41 648.664 1574.32 702.592 C 1585.04 709.243 1602.73 720.589 1613.82 725.144 C 1631.67 716.227 1652.58 700.675 1668.77 688.676 C 1729.3 643.797 1781.72 596.806 1827.92 537.035 C 1870.68 482.982 1913.6 398.362 1901.47 327.262 C 1878.35 191.731 1712.08 152.996 1630.62 263.654 C 1624.61 255.805 1619.9 250.32 1613.23 243.007 C 1617.05 242.468 1618.72 241.542 1620.5 238.072 C 1624.45 242.669 1627.52 246.426 1631.17 251.283 z" fill="rgb(26,58,40)" transform="translate(0,0)"></path>
<path d="M 1349.31 288.541 C 1354.05 287.37 1354.54 287.016 1359.13 288.025 C 1338.26 342.766 1343.02 398.924 1362.8 453.123 L 1360.35 454.25 C 1359.87 453.71 1359.39 453.169 1358.91 452.628 L 1356.49 452.89 C 1356.06 455.83 1356.31 455.83 1357.24 458.734 L 1356.38 460.553 C 1355.18 457.751 1354.07 454.906 1353.07 452.023 C 1338.42 410.23 1332.58 365.809 1340.15 322.044 C 1342.06 310.994 1344.43 298.706 1349.31 288.541 z" fill="url(#Gradient3)" transform="translate(0,0)"></path>
<path d="M 1471.83 187.829 C 1514.65 180.049 1558.8 189.876 1594.27 215.085 C 1603.59 221.641 1613.04 229.401 1620.5 238.072 C 1618.72 241.542 1617.05 242.468 1613.23 243.007 C 1609.88 239.469 1606.39 236.074 1602.76 232.832 C 1567.56 201.286 1527.49 191.718 1481.57 194.155 C 1478.82 188.109 1478.5 188.655 1471.83 187.829 z" fill="url(#Gradient2)" transform="translate(0,0)"></path>
<path d="M 1394.6 222.804 C 1413.28 205.716 1447.07 191.534 1471.83 187.829 C 1478.5 188.655 1478.82 188.109 1481.57 194.155 C 1450.39 198.891 1425.7 208.513 1400.97 228.67 C 1398.05 226.341 1397.09 225.551 1394.6 222.804 z" fill="url(#Gradient1)" transform="translate(0,0)"></path>
<path d="M 1394.6 222.804 C 1397.09 225.551 1398.05 226.341 1400.97 228.67 C 1383.75 245.287 1367.57 265.355 1359.13 288.025 C 1354.54 287.016 1354.05 287.37 1349.31 288.541 C 1356.94 264.494 1376.84 240.155 1394.6 222.804 z" fill="rgb(11,3,2)" transform="translate(0,0)"></path>
<path d="M 1654.65 317.477 C 1657.35 317.183 1656.61 317.233 1659.34 317.623 C 1661.23 322.819 1660.11 331.77 1660.5 336.934 C 1661.62 351.586 1658.27 400.881 1662.9 411.209 C 1667.08 413.732 1736.17 412.193 1748.15 412.449 L 1748.1 488.835 L 1661.05 488.757 L 1661.12 590.865 C 1649.41 592.735 1600.43 591.714 1585.34 591.659 C 1585.11 591.5 1584.86 591.372 1584.66 591.182 C 1581.47 588.169 1583.58 502.422 1583.78 488.775 C 1559.51 486.718 1520.96 489.653 1493.77 488.346 C 1494.02 462.644 1494.05 436.94 1493.88 411.237 C 1523.93 411.391 1553.98 411.695 1584.03 412.15 C 1584.11 380.828 1583.85 349.506 1583.24 318.189 C 1606.69 317.314 1630.76 318.504 1654.65 317.477 z" fill="rgb(26,58,40)" transform="translate(0,0)"></path>
<path d="M 233.917 156.524 C 235.521 157.041 240.257 158.544 240.438 160.285 C 244.169 196.08 240.462 232.413 249.036 268.119 C 255.381 294.543 263.08 321.156 285.283 338.6 C 294.113 345.537 325.147 353.435 329.263 358.6 C 326.667 363.9 317.689 364.376 312.004 366.048 C 300.55 369.505 289.822 375.02 280.344 382.322 C 237.563 415.794 236.595 481.081 234.691 530.778 C 234.443 537.228 234.204 543.35 233.439 549.787 C 231.248 552.127 230.277 552.19 227.698 552.311 C 221.515 546.782 223.991 528.865 223.911 520.425 C 223.412 467.793 227.981 391.289 166.923 369.724 C 158.723 366.827 149.891 365.856 141.488 362.578 C 141.726 358.582 186.42 345.82 196.837 331.603 C 227.653 289.546 229.651 228.229 229.776 177.867 C 229.796 169.934 228.49 162.179 233.917 156.524 z" fill="rgb(245,158,11)" transform="translate(0,0)"></path>
<path d="M 444.5 160.194 C 446.684 161.095 450.425 162.857 450.738 165.18 C 452.663 179.468 450.642 197.249 454.156 211.635 C 456.836 222.604 463.827 243.666 472.564 250.693 C 476.785 254.087 485.52 256.797 489.13 262.147 C 487.935 267.859 476.992 271.126 471.975 276.048 C 449.35 298.241 452.411 333.478 451.591 363.312 C 449.273 365.626 450.643 364.749 447.086 365.574 C 444.993 364.297 443.876 363.289 443.785 360.521 C 443.129 339.354 444.009 318.454 437.61 297.941 C 433.101 283.488 414.288 278.114 407.835 268.574 C 411.167 265.524 425.869 252.099 427.805 248.929 C 438.835 230.432 440.717 208.763 442.006 187.734 C 442.555 178.783 442.282 168.834 444.5 160.194 z" fill="rgb(245,158,11)" transform="translate(0,0)"></path>
<metadata><recraft-signature>{"signed_by": "recraft", "signature_b64": "N8XOG6BRuhNEjA2yUctpZbfvX9Je8I2aUPy/mq190bKQOP6DcNPfuidwkaL6n78nbG93ZagFEdiSoWDpfAQ6CQ==", "signing_algo": "Ed25519", "generation_timestamp": 1780404993, "identifier": "8b4c10ce-b46f-41fc-912f-6ff7c5601990"}</recraft-signature></metadata></svg>