<svg xmlns="http://www.w3.org/2000/svg" height="1365" preserveAspectRatio="none" style="display: block;" version="1.1" viewBox="0 0 1536 2048" width="1024">
<path d="M 0 0 L 1536 0 L 1536 2048 L 0 2048 L 0 0 z" fill="rgb(241,236,223)" transform="translate(0,0)"></path>
<path d="M 919.414 44.1839 C 927.117 46.3846 954.595 64.7943 962.341 70.0843 C 960.888 107.982 962.1 153.493 962.125 191.84 L 962.033 413.144 L 961.306 1101.49 C 944.488 1113.62 913.668 1128.57 894.684 1139.49 C 837.093 1172.57 779.279 1205.25 721.246 1237.55 L 303.009 1474.67 L 163.274 1555.18 C 145.298 1565.77 126.099 1576.54 108.652 1587.75 C 94.9944 1578.47 81.197 1569.41 67.264 1560.56 C 65.4275 1523.08 66.8519 1474.3 66.8753 1436.19 L 67.3951 1193.82 C 67.5314 1133.3 66.6394 527.398 68.9319 522.749 C 70.8628 518.834 174.682 461.926 187.523 454.519 C 196.909 449.106 204.353 441.391 213.561 435.726 C 235.615 422.158 259.071 410.598 281.657 397.949 C 290.531 392.979 298.792 386.865 307.675 381.962 C 314.541 378.173 323.283 376.807 330.687 374.142 C 337.005 371.869 343.09 368.357 348.979 365.151 C 401.013 336.819 452.512 307.151 504.1 277.997 L 653.267 193.803 C 661.346 189.218 668.784 185.294 677.003 181.052 C 685.344 176.572 689.598 167.965 697.68 163.071 C 728.721 144.242 761.446 128.029 791.878 108.133 C 797.896 102.902 810.264 105.639 815.235 102.949 C 849.909 84.1915 884.248 61.8435 919.414 44.1839 z" fill="rgb(26,58,40)" transform="translate(0,0)"></path>
<path d="M 895.856 213.006 C 897.928 216.209 897.073 250.47 897.074 257.671 L 897.296 389.922 L 897.977 854.354 L 897.904 988.919 C 897.909 1005.84 898.911 1045.57 896.798 1061.23 C 849.162 1089.56 798.6 1116.44 750.062 1143.36 L 588.061 1234.87 C 551.555 1255.42 513.337 1275.98 477.212 1296.81 L 273.781 1413.16 L 210.148 1450.09 C 197.608 1457.36 180.92 1467.54 167.971 1473.09 L 166.858 1472.53 C 166.097 1455.09 167.502 1437.32 166.511 1419.75 C 167.18 1415.67 166.183 1385.7 166.19 1378.48 L 165.996 1252.62 L 165.772 806.298 L 165.765 686.656 C 165.827 676.101 166.514 630.549 165.169 622.89 C 182.844 611.907 201.73 602.333 219.729 591.844 C 223.888 589.421 227.955 587.287 232.477 585.604 C 235.131 590.906 229.11 601.001 236.415 604.153 C 245.886 602.316 294.018 572.634 305.918 566.307 C 324.579 556.385 346.807 544.509 365.973 534.501 L 365.957 510.123 C 421.733 481.756 479.647 447.568 534.662 416.745 L 725.272 311.032 C 725.314 318.022 725.677 323.624 726.225 330.594 C 743.741 321.036 838.847 269.743 845.916 262.109 C 852.115 255.414 851.768 246.446 851.478 238.015 C 862.638 230.618 883.862 218.845 895.856 213.006 z" fill="rgb(245,158,11)" transform="translate(0,0)"></path>
<path d="M 622.671 487.441 C 626.152 486.422 634.094 487.606 637.696 488.404 C 681.131 498.03 698.072 533.774 700.855 574.444 C 706.989 664.093 628.392 799.315 532.537 807.098 C 374.149 806.349 475.075 502.228 622.671 487.441 z" fill="rgb(26,58,40)" transform="translate(0,0)"></path>
<path d="M 626.749 497.478 C 639.399 495.702 666.06 510.437 672.809 521.386 C 722.034 601.248 661.037 722.898 592.716 773.126 C 581.34 781.49 543.793 799.082 529.36 796.598 C 512.898 792.987 504.491 793.802 489.798 782.042 C 472.697 768.723 465.547 746.517 463.859 725.554 C 456.774 637.583 533.077 505.747 626.749 497.478 z" fill="rgb(13,150,104)" transform="translate(0,0)"></path>
<path d="M 526.878 586.797 C 532.239 586.802 547.743 590.408 553.934 591.649 L 608.801 602.48 C 620.272 604.644 633.162 606.623 644.782 608.747 C 646.731 609.103 647.714 611.699 648.48 613.504 C 646.185 621.916 596.722 678.935 586.803 692.534 C 579.813 702.172 538.162 755.232 530.276 756.863 L 527.871 755.249 C 525.407 744.044 524.679 594.978 526.878 586.797 z" fill="rgb(26,58,40)" transform="translate(0,0)"></path>
<path d="M 535.97 599.837 C 544.608 599.783 630.174 616.296 633.176 619.155 C 624.353 633.388 593.27 668.639 581.09 683.397 C 566.035 701.548 551.659 719.561 536.301 737.695 C 535.422 692.306 535.945 645.283 535.97 599.837 z" fill="rgb(241,236,223)" transform="translate(0,0)"></path>
<path d="M 333.778 1103.7 C 347.985 1108.11 340.815 1121.76 336.764 1131.14 C 332.153 1141.81 333.471 1156.16 333.317 1167.98 C 333.095 1190.74 333.112 1213.49 333.37 1236.25 L 261.155 1278.09 C 255.563 1281.32 236.635 1291.47 233.099 1294.73 C 230.218 1294.51 229.165 1294.71 226.932 1292.89 C 225.779 1288.61 226.481 1259.1 226.53 1252.5 L 226.86 1172.72 C 244.836 1164.41 266.071 1149.72 283.78 1139.82 C 296.666 1132.61 311.44 1124.44 323.744 1116.34 C 324.75 1115.68 331.851 1105.97 333.778 1103.7 z" fill="rgb(26,58,40)" transform="translate(0,0)"></path>
<path d="M 314.135 1133.86 L 315.437 1134.47 C 314.791 1136.23 305.915 1154.58 304.644 1157.1 C 297.232 1171.83 289.203 1193.03 280.987 1206.59 C 274.857 1199.3 266.583 1192.39 259.284 1186.23 L 254.716 1191.29 C 250.563 1195.89 249.765 1197.16 250.222 1203.47 C 254.028 1211.16 277.736 1231.82 286.083 1235.59 C 296.495 1216.3 304.861 1195.98 314.58 1176.34 C 318.713 1167.99 322.763 1159.63 325.469 1150.69 C 326.255 1165.4 325.729 1180.41 325.426 1195.16 C 325.348 1206.95 325.223 1218.04 325.892 1229.8 C 319.045 1234.79 308.519 1240.03 300.974 1244.66 C 279.282 1257.99 256.867 1270.03 234.836 1282.7 C 234.808 1248.22 234.996 1213.73 235.398 1179.25 C 256.805 1166.2 291.999 1145.03 314.135 1133.86 z" fill="rgb(241,236,223)" transform="translate(0,0)"></path>
<path d="M 331.533 665.866 C 333.231 666.397 335.472 666.878 336.825 668.063 C 341.734 672.362 336.371 684.579 334.823 689.588 C 331.749 699.528 333.212 771.491 333.204 789.111 C 303.725 805.329 264.12 828.941 235.416 846.606 C 232.961 848.04 229.733 849.347 226.912 848.62 C 225.571 846.176 225.882 742.721 225.845 728.806 C 229.071 726.352 233.234 723.956 236.871 722.11 C 269.407 705.598 299.445 682.645 331.533 665.866 z" fill="rgb(26,58,40)" transform="translate(0,0)"></path>
<path d="M 313.791 689.047 C 314.162 692.341 282.988 753.139 279.005 762.047 C 272.754 756.167 266.405 750.394 259.96 744.728 C 254.419 749.698 250.442 752.094 250.598 760.188 C 254.403 766.495 276.741 790.265 283 795.049 C 295.69 763.696 310.911 736.229 325.038 705.987 L 324.651 755.75 C 324.717 764.097 326.098 776.734 324.222 784.396 C 319.851 788.076 300.669 798.667 294.85 801.898 C 275.254 812.78 254.996 825.217 235.18 835.414 C 234.201 834.054 234.336 744.264 234.483 734.219 C 238.92 731.205 244.895 728.255 249.752 725.797 C 271.502 714.795 291.964 699.645 313.791 689.047 z" fill="rgb(241,236,223)" transform="translate(0,0)"></path>
<path d="M 329.411 888.877 C 337.289 888.696 336.593 890.201 340.343 896.527 C 338.299 903.139 334.984 909.903 332.938 916.099 C 331.342 920.935 332.919 936.157 332.968 941.836 L 333.174 1015.18 L 268.67 1052.58 C 258.639 1058.36 242.894 1066.34 234.291 1072.74 C 231.493 1074.44 230.793 1075.05 227.85 1074.24 C 223.629 1069.14 227.122 969.94 225.285 956.123 C 230.266 951.61 239.272 946.491 245.258 942.839 C 260.299 933.575 275.59 924.725 291.115 916.298 C 300.899 910.866 311.329 905.426 320.546 899.147 C 322.845 897.58 326.224 891.686 329.411 888.877 z" fill="rgb(26,58,40)" transform="translate(0,0)"></path>
<path d="M 311.344 916.046 C 312.028 920.21 284.674 977.694 280.939 986.054 C 275.933 981.616 262.222 968.412 256.125 967.94 C 251.91 973.593 248.953 975.642 249.257 981.99 C 252.431 988.055 278.089 1012.56 284.236 1017.57 C 296.87 990.207 313.782 956.874 324.897 929.994 L 324.891 973.844 L 325.07 1009.87 C 303.868 1020.41 284.011 1033.77 263.202 1045.13 C 253.942 1050.19 243.188 1055.99 235.045 1062.6 C 234.666 1035.3 235.332 1007.87 235.088 980.561 C 235.026 973.665 235.395 966.662 234.303 959.849 C 258.526 948.982 286.273 927.632 311.344 916.046 z" fill="rgb(241,236,223)" transform="translate(0,0)"></path>
<path d="M 829.956 913.95 C 831.464 914.084 832.849 915.107 834.297 915.904 C 835.515 919.057 835.278 917.405 834.541 921.07 C 829.429 928.319 792.153 947.366 781.622 953.25 L 694.309 1002 L 402.247 1164.1 C 400.329 1164.57 399.112 1163.75 397.232 1162.96 C 396.34 1160.75 396.696 1161.11 397.038 1158.4 C 402.305 1149.81 433.517 1134.81 443.248 1129.43 L 514.655 1089.57 L 704.23 984.459 C 746.466 961.546 788.379 938.04 829.956 913.95 z" fill="rgb(26,58,40)" transform="translate(0,0)"></path>
<path d="M 831.193 807.781 C 833.092 807.85 832.644 808.065 834.696 809.284 C 835.758 815.894 830.18 820.474 824.675 823.306 C 814.064 828.762 803.542 833.998 793.102 839.812 L 705.65 888.393 C 645.641 921.19 585.402 955.637 525.288 988.054 C 499.589 1001.79 474.039 1015.8 448.644 1030.08 C 433.157 1038.62 415.637 1047.67 400.909 1056.95 C 398.935 1056.23 398.487 1055.79 396.776 1054.61 C 394.665 1049.27 397.739 1047.14 402.352 1044.41 C 428.6 1028.89 455.091 1014.04 481.884 999.495 L 588.568 941.295 L 831.193 807.781 z" fill="rgb(26,58,40)" transform="translate(0,0)"></path>
<path d="M 829.28 700.869 C 831.053 701.117 831.955 702.002 833.584 703.035 C 835.279 708.236 830.292 711.672 826.16 713.985 C 773.863 743.259 721.207 772.031 668.849 801.194 C 609.446 834.668 549.704 867.537 489.633 899.795 C 460.972 915.419 432.422 932.092 403.281 946.924 C 402.558 947.085 401.913 946.754 401.046 946.517 C 398.923 942.364 398.616 943.337 399.064 939.477 C 403.465 933.336 520.89 870.849 539.924 860.407 L 829.28 700.869 z" fill="rgb(26,58,40)" transform="translate(0,0)"></path>
<path d="M 950.164 81.8443 L 950.782 82.0527 C 952.578 84.3838 951.781 113.771 951.773 119.775 L 951.701 257.843 L 950.908 711.353 C 949.878 839.787 949.581 968.226 950.018 1096.66 L 114.011 1572.05 C 113.135 1513.43 114.155 1452.02 113.999 1393.18 L 114.099 792.022 C 114.01 712.39 114.814 634.394 113.775 554.515 C 119.712 552.178 137.429 541.591 143.76 537.967 C 163.802 526.251 184.005 514.811 204.362 503.65 C 214.328 497.758 223.363 492.274 233.028 485.915 L 233.006 572.885 C 210.485 586.368 184.448 599.162 162.819 613.879 C 160.743 615.292 156.62 621.082 154.999 623.353 L 155.658 1168.95 L 155.361 1383.93 C 155.392 1414.49 154.105 1456.31 155.659 1485.86 C 158.181 1488.78 156.898 1487.99 160.477 1489.34 C 164.745 1488.69 181.941 1476.78 188.383 1473.18 L 481.262 1306.38 C 624.432 1227.19 767.067 1147.04 909.161 1065.93 C 909.571 1023.51 908.971 980.009 908.941 937.449 L 908.072 584.638 L 908.133 341.082 C 908.145 325.739 909.582 202.197 905.715 197.035 C 896.116 198.197 862.114 220.396 852.057 226.624 C 852.218 197.02 852.227 167.415 852.083 137.811 C 884.39 118.034 918.662 100.943 950.164 81.8443 z" fill="rgb(13,150,104)" transform="translate(0,0)"></path>
<path d="M 723.101 210.812 C 724.325 211.025 723.778 210.919 724.932 211.964 L 725.235 300.408 C 706.568 308.745 687.513 319.763 669.525 329.735 L 575.068 383.134 L 368.531 497.688 L 367.627 497.682 C 366.35 495.262 367.002 416.642 367.008 407.182 C 382.519 402.345 410.518 385.245 425.488 377.232 C 452.926 362.544 480.857 347.353 507.929 331.974 C 579.477 291.328 652.486 253.105 723.101 210.812 z" fill="rgb(13,150,104)" transform="translate(0,0)"></path>
<path d="M 77.6732 538.242 C 83.0351 540.085 98.758 551.184 103.674 554.76 C 105.999 581.671 104.165 626.715 104.155 655.191 C 104.632 722.592 104.672 789.996 104.277 857.399 L 104.079 1565.25 C 104.021 1568.6 104.675 1569.81 102.981 1571.68 C 97.2173 1568.68 81.8037 1558.04 76.9045 1553.69 C 76.1746 1532.59 76.6591 1507.53 76.7075 1486.31 L 77.7068 1338.21 L 78.0316 975.917 L 77.5796 660.157 L 77.7149 582.956 C 77.6735 568.527 77.0793 552.494 77.6732 538.242 z" fill="rgb(13,150,104)" transform="translate(0,0)"></path>
<path d="M 693.099 183.102 C 702.799 187.586 713.727 194.371 724.463 199.485 C 685.701 219.111 645.371 243.295 607.155 264.495 L 366.802 397.167 L 364.074 397.501 C 357.057 393.935 343.601 386.99 337.971 381.795 C 369.437 365.721 403.324 345.618 434.382 328.268 L 596.737 237.617 C 616.576 226.483 636.334 215.204 656.009 203.781 C 665.648 198.188 683.832 186.961 693.099 183.102 z" fill="rgb(13,150,104)" transform="translate(0,0)"></path>
<path d="M 825.82 153.996 L 826.271 154.423 C 828.15 159.869 826.858 230.425 827.031 242.217 C 803.09 257.196 776.691 270.169 752.171 284.917 C 751.35 283.491 751.199 205.714 751.135 196.214 C 776.425 180.903 800.938 168.439 825.82 153.996 z" fill="rgb(13,150,104)" transform="translate(0,0)"></path>
<path d="M 336.624 435.926 C 337.829 437.814 337.197 509.58 337.343 517.478 C 334.048 519.658 330.597 521.546 327.135 523.447 C 305.69 535.219 284.747 547.873 263.386 559.795 C 262.437 555.617 262.935 534.508 262.98 529.478 L 263.166 477.688 C 286.847 463.346 312.316 450.411 336.624 435.926 z" fill="rgb(13,150,104)" transform="translate(0,0)"></path>
<path d="M 204.993 454.643 C 213.523 459.087 226.32 467.768 235.018 473.172 C 215.887 486.161 184.133 501.468 163.418 513.943 C 152.251 520.668 119.974 540.055 109.91 544.33 C 104.733 541.815 85.682 529.908 81.4393 526.522 C 84.5363 523.63 105.113 512.6 110.196 509.464 C 140.775 490.595 175.011 473.761 204.993 454.643 z" fill="rgb(13,150,104)" transform="translate(0,0)"></path>
<path d="M 919.173 54.8517 C 924.406 56.9132 941.666 68.6455 946.624 72.0827 C 942.443 74.8073 937.973 77.1118 933.63 79.5665 C 906.067 95.1445 877.872 109.66 850.81 126.107 L 849.704 126.437 C 844.203 120.668 831.99 116.487 823.884 109.52 C 831.015 105.171 840.242 100.666 847.811 96.3327 C 871.787 82.8332 895.577 69.0049 919.173 54.8517 z" fill="rgb(13,150,104)" transform="translate(0,0)"></path>
<path d="M 1004.31 1206.88 C 1014.04 1210.03 1055.69 1238.77 1066.53 1245.79 L 1161.54 1306.18 C 1171.01 1291.69 1190.52 1279.89 1206.94 1287.21 C 1232.45 1298.59 1259.32 1318.74 1282.94 1333.84 L 1330 1363.7 C 1337.68 1368.57 1351.29 1376.73 1357.72 1382.32 C 1368.68 1412.33 1349.2 1415.42 1346.53 1435.36 C 1354.01 1443.47 1395.29 1467.42 1405.97 1474.31 C 1429.29 1489.36 1454.1 1504.22 1477.06 1519.88 C 1476.5 1533.64 1477.92 1550.25 1475.99 1563.56 C 1475.51 1566.91 1472.28 1569.05 1469.4 1570.74 C 1440.73 1587.54 1411.57 1603.73 1382.79 1620.32 L 1164.09 1747.81 C 1062.89 1808.66 961.048 1868.44 858.583 1927.14 C 825.027 1946.48 789.42 1969.48 755.598 1987.57 C 748.733 1991.16 745.867 1992.42 740.233 1997.58 C 718.117 1982.37 697.231 1969.77 674.608 1955.45 L 593.601 1904.04 C 513.049 1853.84 432.839 1803.1 352.975 1751.81 C 329.455 1736.43 306.093 1722.28 282.389 1707.28 C 274.06 1702.01 259.447 1693.54 252.593 1687.61 C 248.806 1680.28 250.336 1652.61 250.487 1642.84 C 314.006 1608.31 381.232 1567.06 443.86 1530.32 L 684.004 1391.75 C 743.719 1357.29 803.373 1321.94 863.346 1288.1 C 893.223 1271.2 922.993 1254.1 952.652 1236.82 C 968.74 1227.58 989.307 1216.75 1004.31 1206.88 z" fill="rgb(26,58,40)" transform="translate(0,0)"></path>
<path d="M 962.856 1296.83 C 967.973 1297.93 1012.54 1328.69 1019.64 1333.31 L 1135.61 1407.91 L 1343.79 1540.07 C 1336.94 1545.39 1327.91 1550.08 1320.42 1554.55 C 1255.47 1593.3 1188.3 1628.38 1124.03 1668.23 C 1107 1678.79 1089.96 1689.18 1072.79 1699.5 L 869.227 1819.49 C 850.575 1830.34 832.057 1842.07 813.363 1852.88 C 804.35 1858.1 791.085 1866.79 781.642 1870.19 C 778.152 1869.8 778.702 1870.4 776.517 1868.49 C 766.872 1861.48 743.418 1847.93 732.019 1840.9 L 641.202 1785.01 C 557.093 1733.04 473.44 1680.33 390.254 1626.9 C 396.197 1622.44 408.488 1615.9 415.516 1611.78 C 435.196 1600.21 454.99 1588.84 474.896 1577.67 L 641.593 1482.22 C 656.033 1474.14 670.226 1465.21 684.703 1457.04 C 777.73 1404.5 869.379 1348.5 962.856 1296.83 z" fill="rgb(241,236,223)" transform="translate(0,0)"></path>
<path d="M 954.076 1364.25 L 1157.74 1494.96 C 1172.5 1504.45 1187.31 1513.87 1202.18 1523.19 C 1210.02 1528.09 1227.94 1538.46 1234.02 1544.39 C 1225.83 1551.79 1209.24 1560.5 1199.19 1566.37 L 1138.61 1601.9 L 856.172 1769.7 C 848.177 1774.5 799.607 1804.9 793.685 1806.24 C 789.892 1805.79 789.496 1804.96 786.512 1802.19 C 782.539 1798.16 746.986 1777.6 739.112 1772.7 L 558.479 1659.66 C 542.854 1649.81 527.31 1639.83 511.56 1630.19 C 508.251 1628.16 504.751 1626.14 504.957 1621.99 C 513.138 1615.88 535.889 1603.91 545.691 1598.33 L 635.961 1546.98 C 742.313 1486.62 848.353 1425.71 954.076 1364.25 z" fill="rgb(26,58,40)" transform="translate(0,0)"></path>
<path d="M 951.569 1376.8 C 956.415 1376.97 999.483 1406.12 1006.1 1410.37 L 1101.21 1471.14 C 1126.15 1486.65 1150.98 1502.37 1175.67 1518.29 C 1187.53 1525.88 1204.8 1536.2 1215.46 1544.77 L 927.716 1715.25 L 833.002 1771.67 C 821.553 1778.5 809.616 1786.9 797.857 1793.09 C 793.948 1795.15 793.025 1794.28 789.851 1792.94 C 776.845 1785.7 764.738 1777.07 752.214 1769.03 L 693.211 1731.9 C 636.853 1696.94 575.866 1660.97 521.037 1624.28 C 530.904 1617.79 543.42 1611.31 553.825 1605.28 L 623.592 1565.11 L 857.547 1431 C 888.887 1412.97 920.719 1395.61 951.569 1376.8 z" fill="rgb(245,158,11)" transform="translate(0,0)"></path>
<path d="M 856.6 1496.45 C 898.658 1497.23 934.835 1504.81 968.368 1533.64 C 981.753 1546.03 991.374 1563.06 991.569 1581.4 C 992.14 1634.93 922.888 1664.5 877.23 1665.11 C 838.655 1666.84 800.199 1659.93 768.478 1636.29 C 736.03 1612.1 731.835 1571.27 757.129 1540.05 C 781.162 1510.4 820.156 1500.28 856.6 1496.45 z" fill="rgb(26,58,40)" transform="translate(0,0)"></path>
<path d="M 957.441 1536.78 C 1017.16 1593.54 954.905 1644.39 896.018 1652.87 C 873.387 1657.84 853.884 1656.88 831.471 1652.57 C 787.212 1644.07 729.999 1609.98 757.737 1557.68 C 769.024 1536.4 788.616 1525.35 809.881 1516.25 C 848.538 1499.7 890.8 1503.75 928.891 1519.68 C 937.303 1523.46 951.174 1530.24 957.441 1536.78 z" fill="rgb(13,150,104)" transform="translate(0,0)"></path>
<path d="M 805.749 1523.38 C 809.073 1524.5 859.247 1556.8 864.636 1560.85 C 876.582 1553.95 888.361 1546.77 899.961 1539.31 C 907.55 1534.38 918.973 1526.32 926.765 1522.64 C 935.642 1527.72 947.372 1534.21 955.281 1540.4 C 953.01 1548.27 938.846 1554.3 931.666 1558.64 C 919.276 1566.24 906.947 1573.94 894.679 1581.73 C 903.175 1587.67 952.054 1616.89 953.548 1622.07 C 950.513 1628.33 931.405 1636.65 924.854 1639.14 L 925.035 1639.25 C 902.667 1626.93 886.682 1614.5 865.53 1600.8 C 844.653 1613.06 824.057 1625.8 803.759 1639.01 C 795.428 1635.82 779.117 1628.43 777.303 1618.73 C 778.835 1613.45 829.4 1584.96 836.628 1580.68 C 832.298 1578.24 828 1575.74 823.734 1573.19 C 815.289 1568.18 782.738 1549.75 780.517 1541.04 C 783.047 1536.56 800.673 1526.51 805.749 1523.38 z" fill="rgb(26,58,40)" transform="translate(0,0)"></path>
<path d="M 864.332 1572.66 C 883.869 1561.1 907.706 1546.11 926.773 1533.92 C 930.567 1535.4 936.904 1538.07 939.486 1541.24 C 935.934 1545.08 884.868 1575.99 876.777 1581.13 C 888.307 1587.28 927.925 1613.64 937.186 1620.98 C 934.472 1623.03 930.688 1625.23 927.734 1627.06 C 927.545 1627.17 927.375 1627.33 927.167 1627.39 C 920.24 1629.6 879.774 1597.69 870.283 1593.06 C 868.453 1592.16 865.777 1591.04 863.679 1591.18 C 853.469 1591.89 818.014 1621.85 803.495 1626.51 L 792.826 1620.64 L 792.721 1619.11 C 800.959 1611.08 849.418 1586.75 850.123 1580.51 C 843.563 1573.2 801.799 1551.4 794.851 1543.3 C 795.383 1540.89 803.36 1535.75 805.946 1533.84 C 815.506 1540.76 826.707 1548.01 836.622 1554.46 C 846.767 1561.06 854.862 1564.33 864.332 1572.66 z" fill="rgb(241,236,223)" transform="translate(0,0)"></path>
<path d="M 333.398 1690.87 C 345.178 1682.8 377.54 1665.7 384.64 1659.11 C 461.889 1707.14 537.772 1757.74 616.127 1804.07 C 645.642 1821.53 674.053 1840.18 703.837 1857.39 C 707.865 1859.79 711.91 1862.17 715.97 1864.51 C 705.933 1869.74 675.701 1884.6 667.737 1890.28 C 666.309 1894.82 667.636 1896.35 670.253 1900.32 C 682.442 1893.29 714.173 1877.26 724.174 1869.73 L 798.127 1914.44 C 787.627 1921.74 754.12 1941.82 741.821 1947.93 C 720.391 1932.9 693.498 1915.89 671.072 1902.21 C 665.577 1900.01 661.989 1899.09 659.754 1892.96 C 661.645 1883.41 676.592 1883.75 675.276 1876.01 L 671.197 1873.47 C 666.439 1874.27 653.288 1880.14 651.52 1885.17 C 650.902 1886.93 650.936 1887.29 649.324 1888.38 C 643.325 1885.77 622.929 1872.43 616.15 1868.19 L 552.391 1828.43 L 426.851 1749.51 C 395.794 1729.9 364.95 1709.67 333.398 1690.87 z" fill="rgb(13,150,104)" transform="translate(0,0)"></path>
<path d="M 481.466 1733.73 C 487.788 1733.59 519.973 1754.14 519.895 1764.31 C 516.628 1769.91 501.218 1776.6 494.402 1780.26 L 491.655 1780.55 C 482.481 1774.92 454.467 1761.33 456.366 1749.74 C 460.825 1743.11 473.975 1737.57 481.466 1733.73 z" fill="rgb(26,58,40)" transform="translate(0,0)"></path>
<path d="M 481.085 1742.83 C 487.137 1744.23 505.174 1756.86 511.484 1761.06 C 506.14 1764.43 500.856 1767.38 495.355 1770.46 C 490.567 1769.84 470.358 1755.46 464.949 1751.59 C 470.05 1748.62 475.847 1745.65 481.085 1742.83 z" fill="rgb(13,150,104)" transform="translate(0,0)"></path>
<path d="M 615.461 1818.89 C 622.891 1818.15 655.311 1839.02 653.928 1849.48 C 650.615 1854.88 636.825 1860.4 629.638 1865.18 C 621.893 1865.1 591.737 1845.79 591.931 1834.71 C 594.448 1828.93 609.355 1822.21 615.461 1818.89 z" fill="rgb(26,58,40)" transform="translate(0,0)"></path>
<path d="M 616.676 1828.04 C 619.497 1828.45 639.725 1841.64 645.002 1844.58 C 640.226 1848.06 635.507 1850.79 630.451 1853.8 C 623.741 1854.74 607.685 1841.3 601.69 1836.86 C 606.437 1833.59 611.631 1830.84 616.676 1828.04 z" fill="rgb(13,150,104)" transform="translate(0,0)"></path>
<path d="M 409.638 1693.07 C 419.2 1692.34 450.271 1710.28 449.896 1721.84 C 446.594 1727.66 431.781 1734.76 425.415 1738.3 L 423.621 1738.61 C 414.202 1734.4 389.305 1720.57 387.677 1709.7 C 389.211 1704.96 404.487 1696.57 409.638 1693.07 z" fill="rgb(26,58,40)" transform="translate(0,0)"></path>
<path d="M 547.884 1776.81 C 552.93 1775.89 587.914 1797.17 583.59 1805.67 C 581.495 1809.79 561.715 1819.38 557.296 1821.17 C 552.839 1821.39 525.556 1802.77 521.031 1799.02 C 521.81 1796.18 523.224 1792.6 524.25 1789.76 C 532.607 1785.65 539.833 1781.46 547.884 1776.81 z" fill="rgb(26,58,40)" transform="translate(0,0)"></path>
<path d="M 1187.74 1296.18 C 1193.11 1295.68 1204.83 1296.38 1209.5 1299.04 C 1240.29 1316.59 1268.81 1338.41 1299.37 1356.55 C 1307.38 1361.3 1317.61 1367.42 1324.86 1373.18 C 1293.8 1386.1 1263.37 1427.55 1245.75 1455.49 C 1243.63 1458.31 1241.99 1461.29 1238.88 1462.52 C 1201.73 1436.94 1162.54 1414.17 1125.08 1389.01 C 1120.55 1385.97 1117 1383.53 1113.09 1379.63 C 1131.03 1360.53 1167.69 1304.83 1187.74 1296.18 z" fill="rgb(245,158,11)" transform="translate(0,0)"></path>
<path d="M 1465.86 1533.87 L 1467.34 1534.69 C 1467.38 1542.88 1467.65 1551.06 1468.14 1559.24 L 981.601 1844.2 C 905.968 1888.25 822.05 1934.2 749.111 1981.25 L 748.156 1981.63 L 746.919 1980.53 C 746.109 1975.04 746.657 1964.14 746.781 1958.21 C 776.141 1942.04 807.295 1922.38 836.376 1905.36 L 1114.37 1739.67 C 1230.75 1670.15 1349.63 1603.69 1465.86 1533.87 z" fill="rgb(13,150,104)" transform="translate(0,0)"></path>
<path d="M 261.357 1658.43 C 271.825 1662.61 308.53 1687.91 320.234 1695.38 L 444.067 1773.62 C 540.583 1835.48 639.411 1893.74 735.875 1956.56 C 736.53 1963.37 736.351 1975.91 736.448 1983.17 C 723.229 1972.96 693.439 1956.2 678 1945.79 C 624.962 1910.05 569.474 1877.13 515.319 1843.2 L 360.295 1744.84 C 328.918 1724.57 293.024 1699.9 260.983 1681.3 C 260.826 1673.17 260.635 1666.59 261.357 1658.43 z" fill="rgb(13,150,104)" transform="translate(0,0)"></path>
<path d="M 1257.25 1603.89 C 1268.69 1609.67 1282.13 1616.89 1293.71 1622.13 L 1012.49 1788.7 L 933.113 1835.51 C 924.08 1840.78 892.649 1858.12 886.304 1864.22 C 878.608 1858.65 860.658 1846.54 856.821 1838.72 C 865.422 1833.9 873.871 1828.81 882.156 1823.46 C 889.712 1828.47 903.253 1837.61 911.174 1841.47 L 912.115 1840.72 C 920.476 1834.17 950.386 1819.63 951.396 1812.37 C 947.946 1807.06 935.286 1799.95 929.388 1796.28 C 937.357 1791.31 949.968 1784.2 957.076 1779.09 C 966.35 1785.07 974.716 1790.33 984.285 1795.8 C 988.892 1793.1 1027.67 1773.48 1023.35 1766.22 C 1022.28 1764.42 1007.43 1754.3 1004.13 1752.02 C 1012.56 1745.36 1020.69 1741.25 1030.13 1736.2 L 1057.52 1752.21 C 1063.97 1748.91 1098.42 1730.37 1101.03 1726.11 C 1097.51 1718.19 1085.61 1713.86 1077.99 1707.71 L 1106.91 1690.38 C 1116.36 1696.2 1124.59 1702.67 1135.07 1706.4 C 1145.86 1698.36 1168 1685.89 1180.13 1678.57 C 1169.9 1673.58 1160.45 1669.37 1150.33 1664 C 1159.83 1658.4 1169.45 1653 1179.18 1647.82 C 1210.52 1664.77 1212.76 1660.43 1241.73 1640.53 C 1244.78 1638.44 1249.26 1636.62 1252.45 1634.7 C 1243.78 1629.02 1236.14 1625.92 1227.82 1620.85 C 1237.45 1615.15 1247.39 1609.09 1257.25 1603.89 z" fill="rgb(13,150,104)" transform="translate(0,0)"></path>
<path d="M 1252.49 1469.75 C 1257.99 1466.51 1261.16 1464.59 1267.03 1462.25 C 1291.72 1475.64 1316.52 1494.32 1341.09 1508.36 C 1344.18 1510.13 1345.15 1510.73 1347.91 1509.88 C 1352.74 1502.93 1385.51 1486.42 1395.43 1480.78 C 1417.98 1493.06 1440.84 1510.23 1463.62 1522.93 C 1441.88 1534.71 1420.49 1547.14 1399.5 1560.2 C 1383.88 1551.14 1366.46 1537.64 1352.12 1529.75 C 1315.32 1511.58 1286.26 1492.49 1252.49 1469.75 z" fill="rgb(13,150,104)" transform="translate(0,0)"></path>
<path d="M 1004.6 1218.73 C 1012.03 1221.71 1028.93 1233.25 1036.3 1238.05 L 1085.72 1270.31 C 1070.73 1280.82 1049.68 1291.36 1033.48 1301.23 C 1016.5 1287.87 965.156 1261.63 953.918 1248.84 C 956.928 1245.53 996.165 1224.42 1004.6 1218.73 z" fill="rgb(13,150,104)" transform="translate(0,0)"></path>
<path d="M 330.727 1607.83 C 336.099 1609.63 370.756 1632.76 377.817 1637.29 L 378.124 1652.5 C 361.289 1663.38 342.878 1672.98 325.261 1684.28 L 317.292 1680.17 C 299.738 1668.64 281.498 1657.85 263.513 1646.98 L 330.727 1607.83 z" fill="rgb(13,150,104)" transform="translate(0,0)"></path>
<path d="M 941.064 1255.07 C 999.698 1290.14 1057.7 1326.26 1115.05 1363.4 C 1111.39 1367.36 1107.69 1371.73 1104.12 1375.81 C 1092.21 1368.32 1080.42 1360.63 1068.77 1352.76 C 1034.26 1330.68 999.896 1307.68 965.495 1285.92 C 949.08 1292.63 941.428 1297.21 926.249 1306.68 C 916.32 1299.23 902.378 1291.63 891.355 1283.72 C 903.007 1277.22 931.566 1262.13 941.064 1255.07 z" fill="rgb(13,150,104)" transform="translate(0,0)"></path>
<path d="M 439.414 1543.84 C 445.665 1552.05 462.407 1562.1 471.373 1567.72 C 466.441 1571.32 453.586 1582.56 447.935 1580.31 C 452.254 1578.93 378.304 1623.8 377.645 1624.24 C 368.293 1618.28 349.96 1607.23 342.382 1600.3 C 352.745 1594.31 404.131 1563.44 411.038 1562.37 C 416.27 1556.95 432.197 1548.13 439.414 1543.84 z" fill="rgb(13,150,104)" transform="translate(0,0)"></path>
<path d="M 1355.5 1545.04 C 1359.06 1545.92 1384.94 1564.05 1389.23 1567.32 C 1361.8 1583.75 1331.48 1599.59 1303.41 1616.34 C 1299.08 1615.19 1273.43 1600.48 1267.88 1597.42 C 1289.19 1586.19 1336.45 1558.95 1355.5 1545.04 z" fill="rgb(13,150,104)" transform="translate(0,0)"></path>
<path d="M 1319.45 1432.14 C 1334.26 1439.59 1369.6 1464.35 1384.87 1474.48 C 1370.97 1482.34 1356.99 1490.04 1342.93 1497.6 C 1327.48 1485.55 1293.69 1466.21 1275.99 1455.67 C 1289 1449.41 1305.98 1439.2 1319.45 1432.14 z" fill="rgb(13,150,104)" transform="translate(0,0)"></path>
<path d="M 1095.42 1277.83 C 1100.06 1278.43 1141.76 1306.49 1148.44 1311.14 C 1131.1 1320.1 1114.13 1329.78 1097.58 1340.14 C 1097.4 1340.07 1086.18 1332.59 1084.95 1331.82 C 1071.21 1323.23 1057.85 1313.71 1043.47 1306.19 C 1061.76 1296.84 1077.5 1287.72 1095.42 1277.83 z" fill="rgb(13,150,104)" transform="translate(0,0)"></path>
<path d="M 1301.68 1401.45 C 1306.35 1395.84 1313.61 1391.24 1319.76 1387.44 C 1331.64 1380.1 1349.72 1380.76 1349.41 1398.67 C 1349.22 1409.73 1341.65 1420.76 1336 1429.9 C 1332.58 1427.72 1323.65 1421.3 1320.68 1419.95 C 1315.82 1416.79 1299.21 1408.73 1299.11 1403.3 L 1301.68 1401.45 z" fill="rgb(245,158,11)" transform="translate(0,0)"></path>
<path d="M 881.139 1289.77 C 885.252 1290.05 909.034 1308.1 915.333 1312.12 L 888.21 1327.14 C 888.137 1327.1 888.063 1327.07 887.99 1327.03 C 877.447 1319.41 865.319 1312.28 854.255 1305.34 C 863.577 1301.12 872.64 1295.44 881.139 1289.77 z" fill="rgb(13,150,104)" transform="translate(0,0)"></path>
<path d="M 808.319 1331.85 C 806.939 1331.36 839.822 1354.66 841.398 1355.73 C 832.606 1360.71 823.091 1365.53 814.078 1370.18 C 804.805 1358.25 797.584 1358.12 785.001 1351.52 C 782.956 1350.45 783.211 1350.01 782.99 1348.51 C 785.87 1343.37 802.584 1335.04 808.319 1331.85 z" fill="rgb(13,150,104)" transform="translate(0,0)"></path>
<path d="M 731.541 1375.85 C 735.029 1376.28 762.246 1394.18 767.993 1397.6 C 759.341 1402.4 750.846 1407.48 742.521 1412.82 L 742.02 1413.29 C 739.639 1413.66 738.492 1410.98 735.729 1408.49 C 727.772 1401.33 716.711 1395.42 707.429 1389.93 C 715.843 1384.59 722.77 1380.58 731.541 1375.85 z" fill="rgb(13,150,104)" transform="translate(0,0)"></path>
<path d="M 658.385 1419.05 C 661.397 1419.24 687.647 1437.77 692.449 1441.09 C 685.019 1444.84 676.406 1450.65 669.257 1455.19 C 659.461 1447.43 645.695 1439.08 635.039 1432.61 C 642.745 1427.96 650.528 1423.44 658.385 1419.05 z" fill="rgb(13,150,104)" transform="translate(0,0)"></path>
<path d="M 585.272 1461.08 C 592.983 1467.95 609.201 1478.08 618.076 1483.53 L 593.686 1499.01 C 593.012 1498.71 591.742 1497.32 591.58 1496.84 C 588.381 1487.33 562.945 1482.9 565.179 1473.31 C 567.536 1470.91 580.935 1463.73 585.272 1461.08 z" fill="rgb(13,150,104)" transform="translate(0,0)"></path>
<path d="M 511.679 1503.73 C 518.588 1509.85 535.517 1520.3 544.35 1526.59 C 536.665 1532.11 529.428 1534.48 521.404 1540.03 C 515.927 1533.49 496.151 1522.48 488.132 1517.6 C 495.608 1511.81 503.324 1508.17 511.679 1503.73 z" fill="rgb(13,150,104)" transform="translate(0,0)"></path>
<path d="M 1289.93 1413.6 C 1297.36 1416.14 1302.58 1420.25 1308.66 1425.05 C 1295.87 1432.51 1286.19 1437.02 1273.19 1445.33 L 1258.98 1453.51 C 1269.98 1440.56 1279.06 1426.42 1289.93 1413.6 z" fill="rgb(245,158,11)" transform="translate(0,0)"></path>
<path d="M 1216.83 1626.85 C 1220.24 1626.33 1229.38 1633.15 1232.8 1635.42 C 1224.12 1640 1213.46 1646.3 1204.41 1649.29 C 1199.42 1648.88 1192.79 1645.36 1188.43 1643.06 C 1197.68 1638.16 1207.16 1632.04 1216.83 1626.85 z" fill="rgb(13,150,104)" transform="translate(0,0)"></path>
<path d="M 1141.9 1326.95 L 1142.85 1328.07 C 1136.94 1334.74 1128.36 1348.84 1120.17 1353.03 C 1118.59 1353.84 1116.48 1351.85 1114.75 1350.72 C 1111.77 1349.27 1110.5 1348.94 1108.38 1346.5 C 1114.79 1341.18 1134.08 1331.05 1141.9 1326.95 z" fill="rgb(13,150,104)" transform="translate(0,0)"></path>
<path d="M 1116.54 575.41 C 1124.64 562.175 1163.83 513.092 1179 503.078 C 1187.28 497.611 1190.2 518.059 1197.69 520.907 C 1201.11 520.124 1199.86 520.655 1202.55 518.135 C 1203.74 512.263 1195.29 501.587 1192.28 494.535 C 1192.18 478.415 1243.59 446.856 1258.87 442.982 C 1264.59 441.531 1264.41 468.104 1270.1 473.378 L 1272.33 472.724 C 1277.8 465.436 1269.65 447.506 1273.44 439.913 C 1282.45 421.845 1324.53 419.575 1342.62 420.587 C 1345.05 420.723 1346.6 424.783 1347.42 426.53 C 1349.97 427.191 1351.97 427.868 1354.61 427.914 C 1355.49 424.372 1355.63 424.307 1358.54 421.893 C 1370.08 417.966 1416.93 438.562 1418.4 448.523 C 1420.42 462.2 1397.13 485.191 1393.78 501.183 L 1394.01 502.101 C 1403.75 493.68 1420.22 460.65 1430.8 460.933 C 1444.53 467.706 1465.79 511.494 1461.75 527.691 C 1455.05 535.719 1431.97 552.942 1421.97 556.043 L 1423.07 559.211 C 1424.62 558.907 1425.46 558.797 1427.15 558.633 C 1437.82 557.597 1457.47 542.629 1466.47 547.804 C 1468.57 549.047 1469.42 551.073 1469.39 553.472 C 1469.07 577.409 1473.17 609.854 1466.77 632.401 C 1465.04 638.506 1437.82 646.147 1429.46 656.896 C 1444.14 664.295 1465.23 659.055 1456.74 683.97 C 1451.54 699.244 1436.74 747.887 1426.37 758.249 C 1421.02 759.078 1399.06 757.255 1393.33 754.942 C 1390.64 753.854 1389.57 751.127 1384.03 749.844 L 1383.48 752.095 C 1386.44 754.745 1385.5 754.034 1386.56 757.039 C 1389.38 765.088 1402.06 778.767 1408.31 785.054 C 1401.24 800.562 1392.4 809.271 1385.13 822.521 L 1385.52 823.65 C 1387.3 828.7 1389.53 832.699 1391.98 837.417 C 1415.61 882.947 1442.37 926.839 1465.3 972.738 C 1468.18 978.505 1477.63 990.691 1476.41 996.49 C 1474.75 999.413 1474.7 999.86 1471.95 1001.55 C 1463.48 1002.83 1406.26 991.397 1395.98 988.14 L 1395.57 989.366 C 1387.9 1012.84 1385.38 1041.44 1379.16 1065.5 C 1376.9 1074.21 1375.81 1092.46 1368.46 1097.58 C 1366.74 1097.91 1364.4 1098.65 1362.94 1096.96 C 1356.01 1088.93 1348.59 1074.75 1343.39 1065.57 C 1327.36 1037.16 1311.67 1008.56 1296.33 979.781 C 1287.75 963.719 1278.19 944.041 1268.81 929.045 C 1266.97 938.873 1262.34 950.56 1258.78 960.154 C 1233.34 1028.76 1209.27 1097.96 1183.66 1166.5 C 1171.76 1198.38 1144.6 1121.65 1140.47 1113.57 C 1117.96 1143.31 1094.46 1172.12 1071.75 1201.7 C 1067.3 1202.81 1061.11 1204.75 1056.97 1202.46 C 1053.04 1185.27 1157.71 948.368 1155.37 938.515 C 1151.39 936.029 1149.68 935.596 1148.12 931.537 C 1148.53 922.697 1161.95 895.935 1164.05 884.801 L 1161 885.374 C 1153.1 890.455 1139.47 931.143 1127.9 934.934 C 1116.95 933.494 1103.56 917.663 1095.9 909.932 C 1074.13 887.892 1091.5 882.553 1105.29 864.968 C 1107.06 862.709 1115.48 851.797 1115.44 849.184 C 1109.51 847.543 1088.89 872.586 1073.36 876.091 C 1071.34 875.72 1070.34 876.052 1069.24 873.771 C 1061.75 858.275 1054.87 821.271 1056.22 805.348 C 1056.61 800.743 1090.62 780.284 1096.11 776.835 C 1086.43 778.787 1063.5 786.805 1054.38 790.778 C 1052.13 768.62 1055.64 729.204 1062.44 707.321 C 1063.52 703.852 1089.35 695.335 1093.97 695.651 L 1094.52 694.233 C 1088.7 689.411 1074.35 691.69 1069.47 683.451 C 1068.64 669.66 1098.05 614.455 1103.43 597.934 C 1106.13 589.656 1130.28 603.095 1135.58 602.336 C 1133.87 597.997 1121.15 582.809 1117.34 576.698 L 1116.54 575.41 z" fill="rgb(26,58,40)" transform="translate(0,0)"></path>
<path d="M 1394.01 502.101 C 1403.75 493.68 1420.22 460.65 1430.8 460.933 C 1444.53 467.706 1465.79 511.494 1461.75 527.691 C 1455.05 535.719 1431.97 552.942 1421.97 556.043 L 1423.07 559.211 C 1424.62 558.907 1425.46 558.797 1427.15 558.633 C 1437.82 557.597 1457.47 542.629 1466.47 547.804 C 1468.57 549.047 1469.42 551.073 1469.39 553.472 C 1469.07 577.409 1473.17 609.854 1466.77 632.401 C 1465.04 638.506 1437.82 646.147 1429.46 656.896 C 1444.14 664.295 1465.23 659.055 1456.74 683.97 C 1451.54 699.244 1436.74 747.887 1426.37 758.249 C 1421.02 759.078 1399.06 757.255 1393.33 754.942 C 1390.64 753.854 1389.57 751.127 1384.03 749.844 L 1383.48 752.095 L 1379.89 752.983 L 1374.49 754.365 C 1373.22 753.162 1368.95 748.867 1367.34 751.235 C 1333.24 801.292 1285.53 850.405 1224.37 864.643 C 1171.73 876.041 1131.97 847.253 1122.55 794.17 C 1101.31 674.443 1188.87 516.357 1311.62 488.762 C 1336.53 483.162 1357.09 494.243 1377.12 507.415 C 1383.87 502.69 1385.89 499.997 1393.78 501.183 L 1394.01 502.101 z" fill="rgb(247,235,232)" transform="translate(0,0)"></path>
<path d="M 1423.07 559.211 C 1424.62 558.907 1425.46 558.797 1427.15 558.633 C 1437.82 557.597 1457.47 542.629 1466.47 547.804 C 1468.57 549.047 1469.42 551.073 1469.39 553.472 C 1469.07 577.409 1473.17 609.854 1466.77 632.401 C 1465.04 638.506 1437.82 646.147 1429.46 656.896 C 1444.14 664.295 1465.23 659.055 1456.74 683.97 C 1451.54 699.244 1436.74 747.887 1426.37 758.249 C 1421.02 759.078 1399.06 757.255 1393.33 754.942 C 1390.64 753.854 1389.57 751.127 1384.03 749.844 C 1382.09 746.314 1379.48 744.53 1376.39 741.907 C 1375.73 739.985 1376.68 737.325 1377.54 735.438 C 1389.23 709.901 1399.69 684.975 1406.53 657.538 C 1411.39 654.048 1423.89 657.838 1428.97 654.665 C 1420.53 643.49 1406.81 659.016 1411.31 625.264 C 1412.76 614.428 1412.25 589.537 1409.53 579.323 C 1404.71 561.22 1416.5 567.277 1423.07 559.211 z" fill="rgb(26,58,40)" transform="translate(0,0)"></path>
<path d="M 1427.81 666.736 C 1433.84 669.396 1444.19 672.596 1450.7 674.833 C 1445.32 692.225 1430.87 735.765 1420.74 750.384 C 1411.58 748.142 1405.73 747.009 1396.4 745.695 C 1405.2 729.039 1411.91 709.904 1418.52 692.294 C 1421.72 683.742 1423.71 674.898 1427.81 666.736 z" fill="rgb(13,150,104)" transform="translate(0,0)"></path>
<path d="M 1458.28 555.807 L 1459.94 555.995 C 1462.9 560.344 1460.12 619.827 1459.4 627.987 C 1453.03 632.349 1440.37 638.179 1433 641.797 C 1431.8 640.508 1432.67 630.808 1432.8 628.69 C 1434.01 608.728 1434.1 588.463 1432.26 568.521 C 1439.87 563.246 1449.7 559.503 1458.28 555.807 z" fill="rgb(13,150,104)" transform="translate(0,0)"></path>
<path d="M 1394.01 502.101 C 1403.75 493.68 1420.22 460.65 1430.8 460.933 C 1444.53 467.706 1465.79 511.494 1461.75 527.691 C 1455.05 535.719 1431.97 552.942 1421.97 556.043 C 1416.24 554.449 1414.38 560.299 1407.45 559.152 C 1402.59 554.676 1405.02 554.657 1403.09 549.354 C 1399.32 538.984 1392.69 529.142 1387.45 519.404 C 1382.35 509.927 1391.54 511.38 1394.01 502.101 z" fill="rgb(26,58,40)" transform="translate(0,0)"></path>
<path d="M 1428.15 471.598 C 1437.07 475.333 1451.17 510.427 1456.1 520.058 C 1447.53 527.776 1438.56 535.041 1429.22 541.823 C 1425.36 544.294 1426 544.825 1422.54 544.366 C 1420.37 535.824 1409.33 513.554 1404.64 505.922 L 1403.96 504.829 C 1409.65 495.434 1421.26 480.816 1428.15 471.598 z" fill="rgb(13,150,104)" transform="translate(0,0)"></path>
<path d="M 1320.06 498.615 C 1349.49 500.263 1372.74 516.631 1386.99 542.286 C 1446.59 649.571 1331.02 848.768 1213.25 856.168 C 1155.28 856.631 1129.14 812.779 1126.33 760.326 C 1124.03 717.281 1136.82 674.877 1154.97 636.449 C 1183.96 575.094 1248.22 502.864 1320.06 498.615 z" fill="rgb(26,58,40)" transform="translate(0,0)"></path>
<path d="M 1319.2 509.658 C 1333.56 513.211 1342.78 509.822 1356.36 520.933 C 1428.56 579.988 1386.16 700.782 1340.98 761.382 C 1305.15 809.439 1266.42 839.268 1210.76 848.078 C 1196.19 845.109 1186.36 844.72 1172.85 836.329 C 1155.19 825.369 1142.23 804.819 1138.03 784.577 C 1125.07 722.179 1147.13 660.386 1180.17 607.794 C 1208.24 563.12 1245.17 531.761 1295.32 513.965 C 1301.44 511.793 1311.68 511.514 1318.38 509.866 L 1319.2 509.658 z" fill="rgb(245,158,11)" transform="translate(0,0)"></path>
<path d="M 1289.96 566.184 C 1292.82 565.825 1293.74 565.47 1296.42 566.575 C 1298.99 571.979 1297.07 611.767 1298.8 624.025 L 1299.01 625.406 C 1305.44 619.524 1343.94 596.036 1351.89 593.605 L 1353.24 594.354 C 1356.82 602.531 1354.43 654.375 1354.2 668.029 C 1341.33 680.17 1315.08 689.621 1299.4 702.35 L 1299.42 701.422 C 1298.47 772.747 1311.42 758.456 1245.71 793.819 C 1242.21 794.785 1241.25 794.876 1237.95 793.776 C 1237.41 793.108 1236.87 792.441 1236.33 791.773 C 1235.01 775.054 1235.99 749.367 1235.34 733.257 C 1230.21 736.825 1224.96 740.227 1219.61 743.458 C 1211.82 748.113 1186.43 764.098 1179.37 762.335 C 1176.55 756.706 1177.99 700.517 1179.01 692.132 C 1190.28 683.558 1221.88 665.902 1235.03 659.575 C 1234.92 642.453 1234.42 624.913 1235.37 607.867 C 1236.04 595.986 1247.72 591.5 1256.31 586.344 C 1267 579.93 1278.61 574.225 1288.77 567.034 L 1289.96 566.184 z" fill="rgb(26,58,40)" transform="translate(0,0)"></path>
<path d="M 1347.42 426.53 C 1349.97 427.191 1351.97 427.868 1354.61 427.914 C 1349.56 440.356 1349.8 450.888 1343.03 464.549 L 1340.66 464.71 L 1342.69 464.929 L 1342.21 465.276 L 1340.13 463.76 C 1339.11 460.038 1345.94 430.877 1347.42 426.53 z" fill="rgb(247,235,232)" transform="translate(0,0)"></path>
<path d="M 1161 885.374 C 1161.01 880.789 1160.79 879.411 1159.2 875.108 C 1160.49 871.003 1159.58 872.035 1162.45 869.375 C 1170.47 870.71 1166.72 880.114 1164.05 884.801 L 1161 885.374 z" fill="rgb(247,235,232)" transform="translate(0,0)"></path>
<path d="M 1377.39 831.85 C 1395.56 862.94 1411.97 894.776 1429.02 926.48 C 1440.58 947.987 1454.17 970.678 1464.71 992.637 C 1453.43 991.046 1396.47 977.69 1390.35 980.188 C 1381.04 991.352 1371.59 1064.57 1365.23 1083.15 L 1357.72 1071.51 C 1344.63 1047.59 1330.87 1024.24 1318.2 999.973 C 1305.31 975.3 1292.97 949.393 1278.25 925.813 C 1286.86 919.97 1305.58 912.55 1311.14 907.443 C 1318.71 893.295 1308.29 871.326 1308.56 855.814 C 1308.68 848.512 1310.4 845.634 1316.75 845.517 C 1331.25 852.627 1329.29 883.184 1348.08 865.262 C 1358.9 854.946 1367.99 843.35 1377.39 831.85 z" fill="rgb(13,150,104)" transform="translate(0,0)"></path>
<path d="M 1236.24 890.561 C 1241.57 896.31 1239.35 931.325 1245.91 936.107 C 1249.95 936.897 1252.66 935.751 1256.69 934.689 L 1257.3 935.428 C 1250.14 959.475 1237.71 988.126 1229.38 1012.33 C 1219.04 1042.36 1207.3 1072.7 1196.65 1102.47 C 1191.37 1117.25 1178.33 1150.48 1175.24 1164.95 C 1167.03 1149.59 1159.9 1134.47 1153.4 1118.3 C 1151.13 1112.65 1146.74 1100.74 1141.36 1098.21 C 1136.09 1100.4 1116.31 1129.39 1110.97 1136.36 C 1097.87 1153.23 1081.98 1170.69 1071.84 1189.07 C 1078.72 1165.58 1090.18 1137.15 1099.07 1114.18 C 1110.96 1082.59 1123.14 1051.11 1135.61 1019.74 L 1155.18 969.749 C 1158.56 961.106 1162.31 949.887 1166.68 941.942 C 1183.83 944.562 1203.87 943.014 1221.58 945.22 C 1230.67 930.233 1230.92 908.012 1236.24 890.561 z" fill="rgb(13,150,104)" transform="translate(0,0)"></path>
<path d="M 1300 858.235 C 1301.12 860.183 1303.85 894.134 1305.86 901.533 C 1288.1 909.548 1270.55 919.007 1252.83 926.523 C 1249.97 912.622 1248.75 900.887 1246.45 887.099 C 1266.84 877.824 1281.02 870.11 1300 858.235 z" fill="rgb(13,150,104)" transform="translate(0,0)"></path>
<path d="M 1383.21 766.601 C 1388.85 774.455 1391.37 779.241 1397.89 787.562 C 1381.02 813.369 1362.01 837.716 1341.07 860.346 C 1335.96 851.19 1331.82 845.589 1325.6 837.384 C 1354.8 812.791 1361.96 797.99 1383.21 766.601 z" fill="rgb(13,150,104)" transform="translate(0,0)"></path>
<path d="M 1097.06 786.067 C 1100.17 789.49 1102.12 824.846 1109.79 839.803 C 1101.4 848.517 1087.01 857.842 1076.64 864.976 L 1075.14 864.41 C 1071.15 856.78 1065.34 818.831 1064.77 809.118 C 1074.35 801.683 1086.99 793.227 1097.06 786.067 z" fill="rgb(13,150,104)" transform="translate(0,0)"></path>
<path d="M 1110.89 604.502 C 1120.72 608.275 1127.56 610.478 1136.54 616.139 C 1128.6 631.148 1121.6 646.636 1115.58 662.512 C 1113.77 667.268 1108.61 683.648 1106.28 685.661 C 1098.26 682.758 1086.52 682.377 1080.06 677.341 C 1080.03 675.236 1107.86 610.996 1110.89 604.502 z" fill="rgb(13,150,104)" transform="translate(0,0)"></path>
<path d="M 1102 701.917 C 1103.54 703.26 1104.27 704.358 1105.54 705.946 C 1106.97 710.917 1102.21 718.158 1101.17 723.721 C 1098.68 736.982 1096.49 752.3 1094.6 765.632 C 1083.69 771.519 1075.94 772.959 1064.42 776.74 L 1063.16 777.441 L 1062.29 776.246 C 1061.67 763.409 1064.04 751.647 1065.83 739.752 C 1068.38 722.913 1062.97 711.378 1085.68 708.085 C 1090.01 707.456 1096.74 704.791 1100.85 702.549 L 1102 701.917 z" fill="rgb(13,150,104)" transform="translate(0,0)"></path>
<path d="M 1185.02 887.975 C 1200.52 888.373 1211.33 888.913 1227.03 888.237 C 1225.21 899.402 1220.64 922.933 1216.58 934.052 C 1216.12 935.314 1215.35 935.085 1213.74 935.401 C 1205.78 936.135 1179.66 934.193 1169.79 933.845 C 1173.82 919.016 1179.92 902.633 1185.02 887.975 z" fill="rgb(13,150,104)" transform="translate(0,0)"></path>
<path d="M 1121.87 856.628 C 1123.55 857.707 1129.47 864.861 1131.7 867.068 C 1138.18 873.469 1144.58 878.849 1151.64 884.578 C 1147.51 890.86 1129.74 923.804 1126.03 925.337 C 1112.34 913.325 1103.15 906.008 1093.9 890.01 C 1103.26 879.888 1114.47 868.148 1121.87 856.628 z" fill="rgb(13,150,104)" transform="translate(0,0)"></path>
<path d="M 1364.24 428.582 C 1384.5 436.893 1391.42 437.794 1410.05 452.366 C 1404.59 460.555 1397.97 472.743 1392.87 481.49 C 1391.7 483.945 1391.19 485.861 1388.91 487.206 C 1374.51 478.362 1368.18 473.734 1352.34 468.069 C 1354.62 459.576 1364.03 434.529 1364.24 428.582 z" fill="rgb(13,150,104)" transform="translate(0,0)"></path>
<path d="M 1177.91 512.674 C 1181.38 514.839 1189.22 526.167 1192.05 529.98 C 1169.48 553.59 1161.63 567.141 1144.1 594.963 L 1128.79 574.443 C 1140.14 555.93 1163.96 529.884 1177.91 512.674 z" fill="rgb(13,150,104)" transform="translate(0,0)"></path>
<path d="M 1328.59 429.421 C 1330.43 429.183 1335.51 429.161 1337.62 429.089 C 1336.39 439.47 1334.16 451.344 1332.73 462.142 C 1315.38 461.306 1306.04 462.573 1289.13 466.63 C 1286.62 467.934 1285.98 468.464 1283.11 468.665 C 1281.82 465.816 1280.95 441.179 1283.32 439.46 C 1293.5 432.064 1316.35 430.485 1328.59 429.421 z" fill="rgb(13,150,104)" transform="translate(0,0)"></path>
<path d="M 1251.72 453.879 C 1254.97 453.98 1253.66 453.449 1256.06 454.871 C 1258.25 461.244 1259.62 470.867 1261.42 478.118 C 1243.67 488.686 1227.03 498.454 1211.01 511.536 C 1207.79 506.134 1202.2 498.07 1202.06 492.134 C 1206.65 481.786 1240.85 459.084 1251.72 453.879 z" fill="rgb(13,150,104)" transform="translate(0,0)"></path>
<metadata><recraft-signature>{"signed_by": "recraft", "signature_b64": "sc3/hqFsA0VcSkE29lf8hxH/x6tHEvXWrjBwF2TdJNRu33O3CPRLQFysPcrRC7I/TDW9niM5S/3wS/R7byItAQ==", "signing_algo": "Ed25519", "generation_timestamp": 1780384776, "identifier": "39440f1c-79d0-41cc-acc3-0e8791214706"}</recraft-signature></metadata></svg>