<svg xmlns="http://www.w3.org/2000/svg" height="1024" preserveAspectRatio="none" style="display: block;" version="1.1" viewBox="0 0 2048 1152" width="1820">
<path d="M 0 0 L 2048 0 L 2048 613.845 L 2048 673.414 L 2048 678.992 L 2048 721.651 L 2048 855.636 L 2048 932.313 L 2048 936.944 L 2048 988.777 L 2048 1152 L 1493.29 1152 L 1490.65 1152 L 1078.61 1152 L 136.838 1152 L 0 1152 L 0 1004.18 L 0 934.728 L 0 929.95 L 0 809.453 L 0 803.912 L 0 686.7 L 0 681.616 L 0 631.036 L 0 618.666 L 0 0 z" fill="rgb(251,244,227)" transform="translate(0,0)"></path>
<path d="M 1739.83 770.986 C 1756.36 768.659 1772.41 765.414 1788.79 762.229 C 1787.89 786.404 1786.71 810.568 1785.26 834.716 C 1784.5 847.811 1783.03 864.665 1783 877.552 C 1796.69 875.923 1809.49 874.073 1823.32 872.986 C 1827.05 873.121 1839.3 871.511 1843.51 871.058 C 1856.87 869.572 1870.24 868.225 1883.62 867.017 C 1936.48 862.245 1995.37 856.216 2048 855.636 L 2048 932.313 L 2048 936.944 L 2048 988.777 L 2048 1152 L 1493.29 1152 L 1490.65 1152 L 1078.61 1152 L 136.838 1152 L 0 1152 L 0 1004.18 L 0 934.728 L 0 929.95 L 0 809.453 L 0 803.912 C 31.635 802.568 60.4998 798.518 93.8225 797.852 C 221.245 795.489 348.314 812.024 470.888 846.917 C 488.941 801.637 530.349 788.357 574.493 805.611 C 605.034 817.548 617.572 832.168 638.471 856.181 C 654.882 826.413 681.199 815.952 708.558 840.071 C 727.332 813.791 767.342 815.857 778.298 847.457 C 779.119 849.826 778.92 863.297 778.851 866.212 C 794.263 868.577 806.81 868.951 816.557 883.01 C 826.574 897.458 823.746 912.142 811.868 923.734 C 826.331 925.2 834.732 927.958 847.769 934.388 C 870.147 919.05 891.756 911.54 919.118 910.443 C 941.484 909.547 979.491 916.157 992.156 936.734 C 1080.92 914.259 1169.93 892.794 1259.18 872.342 L 1260.2 871.923 C 1264.82 871.647 1269.63 870.25 1274.16 869.165 C 1313.38 859.757 1352.8 851.308 1392.21 842.728 L 1400.64 841.205 C 1424.69 834.465 1463.96 827.783 1490.09 822.058 C 1508.1 818.094 1526.13 814.254 1544.19 810.539 C 1590.54 801.936 1636.56 790.818 1682.92 782.211 C 1695.62 779.854 1709.46 777.625 1721.91 774.335 C 1726.43 773.96 1735.08 771.948 1739.83 770.986 z" fill="rgb(13,150,104)" transform="translate(0,0)"></path>
<path d="M 0 803.912 C 31.635 802.568 60.4998 798.518 93.8225 797.852 C 221.245 795.489 348.314 812.024 470.888 846.917 C 488.941 801.637 530.349 788.357 574.493 805.611 C 605.034 817.548 617.572 832.168 638.471 856.181 C 654.882 826.413 681.199 815.952 708.558 840.071 C 727.332 813.791 767.342 815.857 778.298 847.457 C 779.119 849.826 778.92 863.297 778.851 866.212 C 794.263 868.577 806.81 868.951 816.557 883.01 C 826.574 897.458 823.746 912.142 811.868 923.734 C 826.331 925.2 834.732 927.958 847.769 934.388 C 870.147 919.05 891.756 911.54 919.118 910.443 C 941.484 909.547 979.491 916.157 992.156 936.734 L 917.273 955.58 C 902.505 955.317 867.363 962.64 852.203 965.649 L 735.856 989.779 C 732.947 984.62 733.957 951.585 733.945 943.09 C 745.429 934.689 751.53 928.821 758.132 915.608 C 759.609 912.651 761.717 903.567 760.552 900.57 C 758.052 902.961 754.049 919.371 750.635 923.828 C 745.291 930.801 740.719 933.931 733.839 939.011 C 733.768 936.415 732.72 916.782 733.025 915.827 C 736.295 905.593 744.027 901.197 742.862 887.452 C 738.874 892.419 738.287 902.106 731.178 910.662 L 730.44 911.538 C 720.985 902.316 724.337 901.033 719.965 895.885 L 719.176 896.489 C 719.746 907.677 729.165 912.849 729.313 914.478 C 730.557 928.117 730.684 943.685 730.902 957.502 C 722.071 954.275 715.509 951.107 708.103 944.943 C 704.493 941.938 696.694 928.433 694.163 927.711 C 694.081 928.991 694.028 929.206 694.516 930.42 C 701.626 948.101 713.626 953.564 729.81 960.681 C 730.974 969.938 729.771 980.29 731.444 988.98 C 726.663 995.237 591.295 1021.24 569.867 1029.64 C 567.004 1022.51 565.638 997.706 563.139 988.034 C 582.791 982.614 604.649 971.811 615.028 953.464 C 618.251 947.663 620.442 941.345 621.504 934.794 C 645.492 927.69 656.066 915.503 659.212 890.896 C 651.413 914.465 646.21 922.639 621.512 931.084 C 620.707 925.724 618.479 905.766 613.968 902.934 C 611.923 907.654 625.226 935.824 612.98 951.988 C 598.303 971.364 585.062 977.974 562.689 984.393 C 560.819 973.585 557.229 956.809 555.918 946.586 C 572.923 939.236 585.716 934.914 592.937 915.931 C 595.153 910.104 596.602 906.211 596.372 899.794 L 595.231 899.652 C 593.48 904.066 593.873 907.417 592.538 911.481 C 586.809 928.921 572.178 938.393 555.266 942.424 L 551.068 922.435 C 559.815 915.288 563.854 908.298 568.776 898.271 C 563.4 903.438 551.227 915.938 550.204 923.18 L 548.726 924.257 C 543.132 922.788 539.152 915.711 536.288 910.837 C 532.689 904.801 529.724 898.409 527.438 891.763 C 526.573 889.222 525.018 881.805 522.979 881.123 C 520.615 895.841 538.552 921.357 550.056 930.155 C 550.92 936.381 551.88 944.955 553.121 950.909 C 539.177 949.726 518.251 947.46 508.483 936.247 C 499.737 926.207 499.485 912.951 495.382 904.413 C 496.315 920.444 497.948 928.084 507.865 941.648 C 489.359 936.673 487.809 936.223 477.157 920.373 L 476.253 921.04 C 477.674 931.707 493.25 943.765 503.959 943.076 C 511.865 942.567 521.299 949.195 529.081 950.803 C 538.025 953.171 545.189 953.994 554.354 954.805 C 556.536 974.639 561.486 994.425 563.861 1014.3 C 564.486 1019.53 565.382 1025.74 566.739 1030.79 C 557.226 1032.33 542.282 1036.55 532.616 1038.99 C 507.039 1045.47 481.54 1052.25 456.125 1059.34 C 390.09 1077.16 318.11 1096 253.199 1117.16 C 253.273 1106.96 254.122 1081.68 253.176 1072.74 C 269.784 1071.3 290.82 1073.69 302.538 1060.42 C 305.989 1056.51 307.385 1048.79 304.915 1044.23 C 302.906 1047.1 304.655 1050 303.559 1052.68 C 299.372 1062.91 289.09 1070.01 278.356 1068.86 L 277.237 1067.62 C 279.81 1060.48 287.833 1056.86 287.769 1048.36 L 286.732 1046.21 C 283.905 1049.48 286.477 1056.35 277.932 1061.77 C 267.522 1068.37 265.689 1068.98 253.471 1069.45 C 253.884 1062.68 256.215 1031.69 254.525 1027.41 L 253.075 1027.13 C 248.637 1031.51 250.654 1045.79 251.219 1052.24 C 247.947 1054.63 247.482 1054.71 243.305 1054.11 C 224.967 1051.51 219.26 1036.61 213.459 1021.71 L 212.22 1021.48 C 211.928 1040.92 229.629 1058.14 249.378 1058.01 C 249.787 1058 250.196 1058 250.605 1057.99 C 249.754 1076 249.663 1100.15 250.204 1118.23 C 241.191 1122.14 225.002 1125.48 214.81 1128.78 C 189.296 1137.02 162.146 1143.57 136.838 1152 L 0 1152 L 0 1004.18 L 0 934.728 L 0 929.95 L 0 809.453 L 0 803.912 z" fill="rgb(26,58,40)" transform="translate(0,0)"></path>
<path d="M 0 809.453 C 26.0218 803.934 78.5819 801.971 105.571 801.877 C 228.679 801.286 351.277 817.734 469.876 850.753 C 467.998 858.787 466.894 865.236 466.728 873.452 C 466.661 876.751 466.765 884.538 464.747 886.516 C 452.355 887.384 442.212 883.639 431.713 895.667 C 423.96 904.551 423.801 915.485 423.539 926.477 C 413.2 918.971 401.78 912.245 388.748 915.057 C 364.964 920.188 362.385 937.145 365.404 956.733 C 330.474 956.861 315.023 976.5 309.091 1009.18 C 290.527 982.361 263.084 960.916 228.07 965.898 C 219.35 967.139 211.091 970.283 203.901 975.44 C 193.605 982.816 186.705 994.019 184.752 1006.53 C 183.887 1012.07 184.065 1014.8 184.674 1020.18 C 172.136 1019.37 160.93 1018.74 151.168 1028.11 C 133.316 1045.25 137.173 1065.96 147.024 1085.4 C 130.194 1081.24 121.373 1081.54 107.471 1092.63 C 94.5764 1058.74 74.5238 1023.76 40.1086 1007.56 C 23.4469 999.715 16.0437 1002.82 0 1004.18 L 0 934.728 L 0 929.95 L 0 809.453 z" fill="rgb(13,150,104)" transform="translate(0,0)"></path>
<path d="M 0 929.95 C 106.352 918.009 207.131 920.337 309.389 955.411 C 310.334 955.735 310.19 956.57 310.298 957.369 L 308.418 958.711 C 289.452 954.049 271.077 948.048 251.835 943.915 C 169.131 925.692 83.8122 922.58 -7.10543e-14 934.728 L 0 929.95 z" fill="rgb(26,58,40)" transform="translate(0,0)"></path>
<path d="M 444.985 962.706 C 447.118 965.145 448.595 971.714 448.449 974.818 C 447.538 994.168 430.305 1003.82 413.407 1004.1 C 414.832 1010.86 422.67 1059.98 421.628 1065.34 L 420.211 1064.39 C 417.135 1057.86 414.687 1031.54 413.324 1021.93 C 398.429 1022.56 385.351 1018.77 376.011 1006.5 C 373.891 1002.7 371.961 998.313 371.354 993.998 L 372.689 992.428 C 379.731 1014.17 390.889 1016.91 412.478 1019.27 C 411.889 1010.16 404.557 977.413 408.041 972.767 L 409.667 972.994 C 412.776 978.729 408.855 990.156 413.493 998.071 C 416.281 1000.08 418.142 1001.08 421.721 1000.42 C 442.204 996.659 447.495 980.882 444.985 962.706 z" fill="rgb(13,150,104)" transform="translate(0,0)"></path>
<path d="M 32.0637 1070.53 C 35.9146 1073.02 37.0298 1086.4 47.494 1091.19 C 56.2613 1091.27 57.3528 1084.18 59.4298 1077.23 L 61.0504 1076.84 C 57.3048 1104.87 35.6743 1093.2 32.0637 1070.53 z" fill="rgb(13,150,104)" transform="translate(0,0)"></path>
<path d="M 1622 965.224 C 1434.31 976.765 1253.43 1001.17 1071.6 1049.62 C 1011.34 1065.68 952.006 1085 893.854 1107.52 C 884.237 1111.29 825.685 1137.27 820.659 1137.5 L 819.701 1136.49 C 823.924 1131.11 859.449 1116.82 868.205 1113.28 C 1040.48 1043.55 1226.77 1002.65 1410.76 980.179 C 1458.11 974.51 1505.55 969.695 1553.07 965.736 C 1573.77 964.078 1599.69 962.694 1620.7 960.86 C 1622.31 960.719 1625.21 950.603 1626.41 947.744 C 1631.24 936.222 1644.41 923.816 1654.86 917.746 C 1670.17 908.719 1688.5 906.308 1705.63 911.068 C 1728.93 917.549 1738.95 932.094 1749.97 951.406 C 1769.89 947.347 1799.58 945.091 1820.33 943.137 C 1874.39 938.022 1928.61 934.736 1982.9 933.286 C 2003.87 932.749 2027.53 933.615 2048 932.313 L 2048 936.944 L 2048 988.777 L 2048 1152 L 1493.29 1152 L 1490.65 1152 L 1078.61 1152 C 1141.39 1085.24 1266.84 1075.75 1340.39 1128.98 C 1351.95 1112.23 1375.76 1109.71 1394.28 1112.07 C 1379.43 1091.4 1389.83 1068.37 1415.54 1066.95 C 1418.45 1066.79 1421.66 1066.98 1424.59 1067.06 C 1414.43 1050 1414.49 1030.71 1432.08 1018.85 C 1441.93 1012.18 1454.07 1009.79 1465.71 1012.25 C 1481.34 1015.53 1492.91 1024.6 1501.49 1037.67 C 1515.57 1017.39 1537.08 1007.88 1559.22 1024.07 C 1561.89 1026.02 1565.51 1030.4 1568.43 1031.13 C 1571.73 1026.07 1570 1002.03 1583.91 989.966 C 1596.05 979.437 1604.18 977.914 1619.74 977.935 C 1620.23 972.587 1620.62 970.418 1622 965.224 z" fill="rgb(26,58,40)" transform="translate(0,0)"></path>
<path d="M 1750.28 954.382 C 1840.31 943.776 1958.23 934.548 2048 936.944 L 2048 988.777 C 2045.19 989.012 2026.22 992.024 2026.85 992.424 C 2018.42 987.071 2023.58 970.951 2008.41 963.372 C 1998.52 958.428 1986.91 956.173 1976.69 959.537 C 1953.74 967.091 1953.46 983.225 1945.52 997.937 L 1944.25 998.279 C 1927.75 977.017 1904.19 988.291 1896.38 1010.61 C 1895.35 1013.56 1894.53 1016.65 1893.66 1019.65 L 1894.34 1020.37 C 1870.05 990.653 1840.57 984.614 1810.02 1009.18 C 1800.97 978.904 1783.65 968.086 1752.92 975.761 C 1753.08 966.158 1752.78 963.315 1750.28 954.382 z" fill="rgb(13,150,104)" transform="translate(0,0)"></path>
<path d="M 1466.75 1098.15 C 1471.48 1102.54 1484.32 1114.68 1489.55 1117.29 C 1492.75 1107.87 1478.15 1083.07 1484.9 1065.34 C 1485.71 1068.5 1484.73 1072.77 1485.16 1076.77 C 1486.36 1088.01 1488.52 1098.4 1491.92 1109.15 C 1494.48 1097.55 1498.84 1078.47 1505.27 1068.25 L 1506.45 1067.68 L 1506.93 1068.94 L 1506.49 1069.76 C 1497.46 1086.87 1492.77 1111.51 1492.33 1131.02 C 1506.29 1116.04 1520.73 1109.3 1529.41 1092.65 C 1531.52 1088.61 1534.47 1075.95 1535.51 1075.52 C 1536.78 1106.36 1507.68 1114.23 1493.58 1134.32 C 1493.14 1141.09 1493.03 1145.18 1493.29 1152 L 1490.65 1152 C 1490.35 1142.04 1489.82 1131.3 1490.07 1121.41 C 1472.09 1106.26 1453.4 1093.21 1441.48 1073.05 C 1450.8 1082.51 1454.25 1088.41 1464.71 1097.4 C 1463.14 1089.2 1461.75 1074.85 1465.25 1067.12 C 1466.75 1078.97 1463.73 1084.21 1466.75 1098.15 z" fill="rgb(13,150,104)" transform="translate(0,0)"></path>
<path d="M 1672.28 968.723 C 1677.09 971.926 1681.58 1001.94 1682.22 1008.56 C 1682.31 1009.47 1679.93 1017 1679.56 1019.04 L 1680.52 1019.29 C 1683.02 1017.22 1696.98 994.941 1698.88 990.775 C 1700.99 986.137 1703.27 976.805 1706.55 971.161 L 1707.18 972.51 C 1702.95 991.9 1693.27 1006.33 1681.27 1021.79 C 1687.04 1020.5 1697.87 1017.79 1703.3 1017.5 C 1704.07 1018.81 1704.96 1019.77 1704.74 1021.33 C 1702.61 1036.24 1701.33 1047.2 1690.88 1058.22 C 1707.22 1053.37 1716.16 1051.2 1731.33 1043.49 C 1733.18 1040.22 1734.44 1037.62 1737.08 1034.92 C 1736.94 1038.26 1735.11 1041.22 1733.62 1044.31 C 1718.15 1052.96 1704.38 1057.4 1687.06 1060.82 C 1679.52 1067.99 1676.89 1070.39 1666.83 1074.01 C 1665.31 1081.37 1655.82 1131.65 1652.72 1133.93 C 1650.89 1130.84 1651.97 1130.61 1651.89 1126.16 C 1646.83 1120.89 1634.96 1106.27 1631.06 1103.74 L 1630.14 1103.15 C 1618 1102.51 1605.14 1106.59 1596.56 1101.63 L 1597.58 1100.46 C 1604.66 1104.05 1610.06 1102.24 1617.74 1100.73 C 1626.55 1100.46 1626.7 1101.61 1634.37 1102.17 C 1635.34 1100.1 1633.87 1088.83 1633.64 1085.08 C 1621.35 1072.41 1597.92 1058.63 1606.03 1037.4 C 1608.66 1040.07 1605.51 1049 1607.4 1052.69 C 1609.5 1056.72 1612.05 1060.5 1614.99 1063.96 C 1618.53 1068.16 1627 1077.34 1632.33 1077.81 C 1635.18 1070.51 1628.14 1041.74 1629.04 1030.25 C 1631.84 1030.61 1631.58 1038.28 1632.16 1041.3 C 1638.5 1074.65 1628.36 1097.58 1653.05 1124.88 C 1660.1 1096.31 1663.61 1065.3 1671.96 1036.97 C 1662.95 1029.65 1647.08 1008.86 1650.22 996.44 C 1652.75 998.991 1652.45 1005.47 1655.08 1010.99 C 1660.16 1021.61 1664.13 1026.6 1672 1035.1 C 1673.84 1030.7 1678.25 1012.45 1680.33 1005.8 C 1677.62 997.406 1674.01 977.654 1672.28 968.723 z" fill="rgb(13,150,104)" transform="translate(0,0)"></path>
<path d="M 1700.12 1020.23 C 1701.21 1020.43 1701 1020.59 1702.09 1021.55 C 1702.01 1022.14 1701.93 1022.74 1701.84 1023.33 C 1697.22 1052.64 1694.47 1053.3 1670.07 1071.15 L 1668.04 1069.96 C 1667.23 1063.5 1676.09 1031.44 1678.13 1023.11 C 1685.39 1022.83 1693.18 1022.32 1700.12 1020.23 z" fill="rgb(26,58,40)" transform="translate(0,0)"></path>
<path d="M 1799.05 1033.41 C 1805.34 1037.38 1800.34 1054.68 1810.02 1059.32 C 1821.47 1060.27 1830.74 1039.22 1834.08 1037.05 L 1835.01 1038.82 C 1833.69 1047.75 1818.12 1058.99 1810.19 1062.3 C 1810.48 1083.37 1805.66 1096.67 1818.19 1116.03 L 1819.56 1116.1 C 1825.95 1111.36 1853.02 1080.24 1859.62 1073.07 C 1855.42 1083.78 1828.59 1111.36 1819.64 1120.44 C 1821.1 1123.78 1823.65 1129.14 1823.03 1132.43 L 1821.31 1132.64 C 1820.45 1131.98 1816.65 1129.08 1815.93 1128.98 C 1803.41 1127.32 1790.34 1129.6 1778.37 1124.48 C 1765.78 1119.08 1762.38 1105.87 1751.37 1098.89 C 1744.04 1092.01 1742.08 1088.11 1739.67 1078.77 C 1740.52 1078.73 1747.1 1090.41 1748.54 1092.15 C 1751.38 1095.55 1754.27 1098.18 1757.52 1101.11 C 1756.1 1095.46 1752.27 1074.43 1755.88 1070.81 C 1758.96 1074.46 1755.04 1093.68 1762.64 1106.46 C 1778.61 1133.3 1800.01 1121.42 1818.65 1127.32 L 1819.12 1127.48 C 1814.84 1116.84 1810.3 1106.31 1805.49 1095.9 C 1790 1092.62 1779.34 1082.02 1774.32 1066.93 C 1773.44 1064.3 1772.24 1057.04 1773.52 1054.71 C 1778.1 1070.13 1784.17 1086.54 1801.75 1093.48 C 1803.5 1094.17 1804.63 1093.07 1806.02 1092.14 C 1813.63 1077.12 1800.72 1049.47 1799.05 1033.41 z" fill="rgb(13,150,104)" transform="translate(0,0)"></path>
<path d="M 1953.01 1070.8 C 1950.46 1066.19 1941.09 1048.91 1943.73 1044.41 C 1945.13 1047.27 1946.28 1050.47 1947.46 1053.46 C 1953.57 1068.85 1965.08 1077.73 1977.18 1088.32 C 1977.49 1081.92 1977.1 1049.33 1978.4 1045.88 L 1979.49 1046.49 C 1980.52 1050.93 1980.22 1071.69 1980.24 1077.43 C 1986.01 1073.56 1991.49 1066.44 1994.29 1065.09 C 1994.4 1066.19 1993.34 1067.8 1992.74 1069.02 L 1993.5 1070.25 C 2001.98 1069.47 2008.28 1056.43 2012.13 1049.66 C 2008.47 1069.12 1996.81 1071.59 1980.1 1078.58 C 1979.93 1085.83 1980.52 1120.52 1978.7 1124.57 L 1977.33 1124.01 C 1975.87 1121.05 1976.4 1094.82 1976.64 1090.31 C 1970.88 1086.45 1961.13 1077.14 1956.18 1074.78 C 1943.74 1068.85 1938.84 1074.3 1927.46 1063.44 C 1925.35 1059.51 1923.7 1055.01 1923.45 1050.54 L 1924.15 1050.82 L 1923.87 1050.56 C 1926.2 1052.21 1928.98 1059.91 1930.16 1062.76 C 1938.14 1069.12 1942.8 1068.91 1953.01 1070.8 z" fill="rgb(13,150,104)" transform="translate(0,0)"></path>
<path d="M 1994.29 1065.09 C 1995.89 1060.96 1999.94 1048.61 2002.85 1046.34 C 2001.39 1053.01 2000.6 1061.36 1994.29 1065.09 z" fill="rgb(13,150,104)" transform="translate(0,0)"></path>
<path d="M 1721.01 997.87 L 1721.96 999.486 C 1719.96 1006.44 1716.24 1009.47 1711.08 1014.37 L 1710.46 1013.95 C 1713.77 1007.83 1716.92 1006.74 1721.01 997.87 z" fill="rgb(13,150,104)" transform="translate(0,0)"></path>
<path d="M 1739.83 770.986 C 1756.36 768.659 1772.41 765.414 1788.79 762.229 C 1787.89 786.404 1786.71 810.568 1785.26 834.716 C 1784.5 847.811 1783.03 864.665 1783 877.552 C 1698.02 887.882 1614.3 894.922 1529.09 905.922 C 1328.87 933.085 1129.37 965.333 930.782 1002.63 C 831.521 1021.9 732.594 1042.85 634.045 1065.49 C 572.126 1080.25 507.591 1098.95 446.291 1112.69 C 457.388 1106.57 472.514 1100.62 484.42 1095.66 C 508.668 1085.36 533.204 1075.76 557.998 1066.85 C 642.199 1035.6 727.68 1007.9 814.213 983.837 C 844.176 975.266 874.388 967.435 904.438 959.166 C 908.442 958.064 913.457 956.999 917.273 955.58 L 992.156 936.734 C 1080.92 914.259 1169.93 892.794 1259.18 872.342 L 1260.2 871.923 C 1264.82 871.647 1269.63 870.25 1274.16 869.165 C 1313.38 859.757 1352.8 851.308 1392.21 842.728 L 1400.64 841.205 C 1424.69 834.465 1463.96 827.783 1490.09 822.058 C 1508.1 818.094 1526.13 814.254 1544.19 810.539 C 1590.54 801.936 1636.56 790.818 1682.92 782.211 C 1695.62 779.854 1709.46 777.625 1721.91 774.335 C 1726.43 773.96 1735.08 771.948 1739.83 770.986 z" fill="rgb(245,158,11)" transform="translate(0,0)"></path>
<path d="M 462.021 217.675 C 470.622 209.154 472.864 193.482 486.86 198.921 C 492.143 200.975 492.982 203.618 492.86 208.866 C 494.86 211.733 498.009 216.522 500.695 218.717 C 503.378 220.909 508.104 220.719 510.483 223.412 C 509.617 228.066 508.555 229.084 507.354 233.176 L 506.23 234.076 L 506.298 234.594 L 509.755 235.602 L 510.552 237.106 C 506.075 240.174 497.998 237.469 495.121 240.925 L 494.841 243.163 L 495.381 247.362 C 497.634 254.769 499.441 275.195 500.41 283.982 C 502.708 305.519 505.231 327.032 507.978 348.517 C 508.96 356.342 510.206 369.962 511.682 377.389 L 513.481 392.189 L 525.331 488.893 C 526.703 500.602 529.183 516.103 529.973 527.448 C 532.558 546.071 534.689 565.128 537.047 583.806 C 538.309 593.795 540.876 609.691 540.64 619.24 C 542.502 621.797 543.495 621.654 547.272 622.196 C 580.436 626.96 613.69 630.605 646.798 635.832 C 647.198 621.82 646.857 606.234 646.842 592.104 L 642.852 586.136 C 638.892 582.268 626.807 569.789 625.299 565.317 L 624.425 563.964 C 621.548 565.919 617.631 567.357 614.682 566.681 C 603.239 564.06 605.649 556.069 602.244 549.344 C 601.674 548.217 592.547 544.82 590.318 541.011 C 584.998 531.917 592.834 530.063 593.552 524.143 C 593.789 522.192 587.704 516.48 589.207 511.131 C 590.658 505.968 594.268 504.441 598.739 501.544 C 603.511 493.308 589.859 481.574 617.607 482.015 C 624.86 476.231 615.053 458.862 644.657 472.999 C 655.115 469.698 659.669 452.759 673.254 477.017 C 675.649 475.562 683.47 473.383 685.617 474.564 C 697.725 481.223 685.839 493.325 702.088 498.596 C 710.882 501.449 705.672 512.592 701.214 517.704 L 700.884 518.564 C 705.948 523.902 707.191 523.722 707.085 531.404 C 706.918 543.438 698.753 538.291 694.349 543.834 C 694.757 547.083 695.728 548.93 697.006 551.884 C 692.669 558.801 691.362 559.432 684.281 563.442 L 678.732 561.875 C 676.59 568.432 662.225 585.765 656.07 588.513 C 652.25 593.956 656.07 619.122 654.414 628.419 C 654.714 633.361 653.932 633.476 656.394 636.888 C 657.375 637.41 758.12 653.93 764.598 654.189 C 768.623 649.776 762.858 637.016 778.069 633.973 C 783.764 632.833 789.119 641.929 792.642 642.381 C 793.066 637.029 791.156 628.437 797.535 624.571 C 809.369 617.4 814.841 627.63 817.796 637.393 C 830.267 609.383 865.847 610.654 856.21 653.938 C 864.059 654.178 875.224 648.867 881.369 655.808 C 888.869 664.279 883.048 674.206 875.33 679.009 C 885.179 680.72 907.828 684.417 916.901 687.188 C 951.378 684.224 996.232 671.527 1030.24 668.669 L 1035.34 667.615 C 1037.62 666.63 1056.22 663.863 1060.14 663.282 C 1106.45 656.433 1153.7 645.382 1200.05 639.814 C 1207.59 638.265 1214.94 636.646 1222.58 635.681 C 1226.42 634.289 1246.8 631.107 1251.57 630.317 L 1316.13 620.243 C 1326.49 618.714 1338.12 617.722 1348.19 615.547 C 1349.89 613.096 1349.29 611.675 1349.35 608.19 C 1349.65 610.512 1349.95 612.659 1350.36 614.964 C 1352.62 616.053 1351.41 615.871 1354.13 615.114 C 1447.38 601.793 1541.07 591.785 1635.03 585.107 C 1635.23 583.843 1635.46 582.583 1635.72 581.328 C 1638.33 568.721 1645.1 563.203 1655.08 556.583 C 1648.44 551.883 1641.57 541.201 1640.56 533.151 C 1636.65 501.835 1659.68 482.013 1688.22 479.613 C 1672.19 447.957 1695.02 418.587 1728.65 423.117 C 1731.2 408.581 1734.69 398.808 1747.73 389.688 C 1758.27 382.282 1771.33 379.389 1784.02 381.653 C 1796.02 384.016 1806.56 391.121 1813.26 401.36 C 1814.63 403.46 1815.93 405.866 1817.11 408.094 C 1826.46 399.215 1835.61 393.602 1849.2 393.976 C 1859.18 394.19 1868.67 398.376 1875.57 405.606 C 1883.46 413.977 1885.86 423.205 1888.13 433.98 C 1934.15 407.882 1967.6 451.876 1940.84 480.205 C 1950.64 485.257 1957.4 491.28 1960.84 502.216 C 1963.38 510.073 1962.65 518.623 1958.8 525.929 C 1956.24 530.787 1952.63 534.082 1948.39 537.433 C 1976.59 550.425 1982.42 573.302 1966.21 599.609 C 1970.38 601.444 1983.09 602.977 1988.13 603.909 C 2006.86 607.371 2029.62 609.407 2048 613.845 L 2048 673.414 L 2048 678.992 L 2048 721.651 L 2048 855.636 C 1995.37 856.216 1936.48 862.245 1883.62 867.017 C 1870.24 868.225 1856.87 869.572 1843.51 871.058 C 1839.3 871.511 1827.05 873.121 1823.32 872.986 C 1809.49 874.073 1796.69 875.923 1783 877.552 C 1783.03 864.665 1784.5 847.811 1785.26 834.716 C 1786.71 810.568 1787.89 786.404 1788.79 762.229 C 1772.41 765.414 1756.36 768.659 1739.83 770.986 C 1735.08 771.948 1726.43 773.96 1721.91 774.335 C 1709.46 777.625 1695.62 779.854 1682.92 782.211 C 1636.56 790.818 1590.54 801.936 1544.19 810.539 C 1526.13 814.254 1508.1 818.094 1490.09 822.058 C 1463.96 827.783 1424.69 834.465 1400.64 841.205 L 1392.21 842.728 C 1352.8 851.308 1313.38 859.757 1274.16 869.165 C 1269.63 870.25 1264.82 871.647 1260.2 871.923 L 1259.18 872.342 C 1169.93 892.794 1080.92 914.259 992.156 936.734 C 979.491 916.157 941.484 909.547 919.118 910.443 C 891.756 911.54 870.147 919.05 847.769 934.388 C 834.732 927.958 826.331 925.2 811.868 923.734 C 823.746 912.142 826.574 897.458 816.557 883.01 C 806.81 868.951 794.263 868.577 778.851 866.212 C 778.92 863.297 779.119 849.826 778.298 847.457 C 767.342 815.857 727.332 813.791 708.558 840.071 C 681.199 815.952 654.882 826.413 638.471 856.181 C 617.572 832.168 605.034 817.548 574.493 805.611 C 530.349 788.357 488.941 801.637 470.888 846.917 C 348.314 812.024 221.245 795.489 93.8225 797.852 C 60.4998 798.518 31.635 802.568 0 803.912 L 0 686.7 L 0 681.616 L 0 631.036 L 0 618.666 C 18.0701 616.647 36.7346 613.605 54.8447 611.384 C 59.9629 610.756 79.016 608.437 82.7247 607.19 C 80.7635 603.643 78.4535 601.609 78.6117 597.486 C 79.0683 585.587 93.9343 587.583 101.357 588.483 C 94.9119 571.549 103.81 554.364 121.634 562.163 L 122.22 562.423 C 128.591 565.177 129.05 569.283 133.477 573.859 C 133.976 574.375 134.23 573.598 134.556 573.271 C 137.98 569.842 141.088 564.95 145.785 563.251 C 151.331 561.419 154.133 570.084 155.056 573.977 C 155.209 574.622 153.536 577.524 154.199 580.519 C 158.471 581.447 163.355 576.016 168.901 578.144 C 179.581 582.239 175.812 591.315 178.347 597.193 C 184.496 598.465 211.33 598.569 219.777 598.775 C 226.35 552.843 231.24 506.767 238.348 460.912 C 239.682 452.309 240.447 442.213 242.718 433.926 C 243.027 421.723 244.181 411.982 243.892 399.251 C 239.888 392.872 236.026 380.279 244.175 377.014 C 260.321 370.546 268.453 386.765 254.667 398.508 C 254.783 420.372 257.821 432.111 259.958 452.459 C 267.128 501.555 273.212 550.803 278.204 600.168 C 309.324 601.451 340.418 603.27 371.475 605.626 C 380.856 606.33 413.028 609.472 420.923 608.845 C 422.066 607.278 422.305 607.137 422.902 605.241 C 422.815 597.945 425.942 576.369 427.002 568.014 L 438.082 485.246 C 448.582 406.614 457.922 327.832 466.099 248.924 L 466.809 241.954 L 466.376 240.922 C 460.528 237.126 444.254 246.317 445.138 230.887 C 445.23 229.27 445.813 229.449 447.265 228.507 C 450.757 230.176 446.211 231.876 449.537 235.772 C 452.872 236.492 453.277 236.369 456.455 235.084 C 461.268 228.748 453.544 230.045 453.812 222.992 C 456.637 219.676 456.052 220.622 460.902 219.228 L 462.021 217.675 z" fill="rgb(26,58,40)" transform="translate(0,0)"></path>
<path d="M 0 631.036 C 70.3526 615.301 142.991 619.777 214.352 623.606 C 402.099 633.681 583.627 666.578 766.025 710.631 C 845.729 729.313 924.68 751.074 1002.7 775.865 C 1078.21 800.074 1152.61 828.017 1225.51 858.988 C 1235.76 863.343 1248.7 869.149 1259.18 872.342 C 1169.93 892.794 1080.92 914.259 992.156 936.734 C 979.491 916.157 941.484 909.547 919.118 910.443 C 891.756 911.54 870.147 919.05 847.769 934.388 C 834.732 927.958 826.331 925.2 811.868 923.734 C 823.746 912.142 826.574 897.458 816.557 883.01 C 806.81 868.951 794.263 868.577 778.851 866.212 C 778.92 863.297 779.119 849.826 778.298 847.457 C 767.342 815.857 727.332 813.791 708.558 840.071 C 681.199 815.952 654.882 826.413 638.471 856.181 C 617.572 832.168 605.034 817.548 574.493 805.611 C 530.349 788.357 488.941 801.637 470.888 846.917 C 348.314 812.024 221.245 795.489 93.8225 797.852 C 60.4998 798.518 31.635 802.568 0 803.912 L 0 686.7 L 0 681.616 L 0 631.036 z" fill="rgb(13,150,104)" transform="translate(0,0)"></path>
<path d="M 0 681.616 C 315.913 665.708 656.711 729.709 950.901 845.282 C 966.316 851.338 1062.78 892.712 1069.25 900.929 C 1064.99 904.499 1022.71 881.116 1015.13 877.92 C 1004.41 873.4 992.689 867.954 981.834 863.4 C 938.835 844.864 895.132 828.002 850.826 812.853 C 628.733 737.885 397.154 694.706 162.967 684.597 C 105.632 682.563 57.0779 681.634 0 686.7 L 0 681.616 z" fill="rgb(26,58,40)" transform="translate(0,0)"></path>
<path d="M 1728.65 423.117 C 1731.2 408.581 1734.69 398.808 1747.73 389.688 C 1758.27 382.282 1771.33 379.389 1784.02 381.653 C 1796.02 384.016 1806.56 391.121 1813.26 401.36 C 1814.63 403.46 1815.93 405.866 1817.11 408.094 C 1826.46 399.215 1835.61 393.602 1849.2 393.976 C 1859.18 394.19 1868.67 398.376 1875.57 405.606 C 1883.46 413.977 1885.86 423.205 1888.13 433.98 C 1934.15 407.882 1967.6 451.876 1940.84 480.205 C 1950.64 485.257 1957.4 491.28 1960.84 502.216 C 1963.38 510.073 1962.65 518.623 1958.8 525.929 C 1956.24 530.787 1952.63 534.082 1948.39 537.433 C 1976.59 550.425 1982.42 573.302 1966.21 599.609 C 1970.38 601.444 1983.09 602.977 1988.13 603.909 C 2006.86 607.371 2029.62 609.407 2048 613.845 L 2048 673.414 L 2048 678.992 L 2048 721.651 L 2048 855.636 C 1995.37 856.216 1936.48 862.245 1883.62 867.017 C 1870.24 868.225 1856.87 869.572 1843.51 871.058 C 1839.3 871.511 1827.05 873.121 1823.32 872.986 C 1809.49 874.073 1796.69 875.923 1783 877.552 C 1783.03 864.665 1784.5 847.811 1785.26 834.716 C 1786.71 810.568 1787.89 786.404 1788.79 762.229 C 1772.41 765.414 1756.36 768.659 1739.83 770.986 C 1735.08 771.948 1726.43 773.96 1721.91 774.335 C 1731.84 767.22 1774.41 753.044 1788.67 748.008 C 1778.29 730.302 1769.62 711.149 1758.93 693.804 C 1755.64 695.899 1751.65 698.614 1748.08 699.979 C 1738.91 703.508 1728.7 703.142 1719.81 698.966 C 1708.06 693.377 1704.05 685.125 1699.93 673.904 C 1688.45 676.282 1677.09 675.382 1666.8 669.417 C 1658.39 664.625 1652.3 656.602 1649.96 647.211 C 1646.88 634.772 1650.03 626.196 1656.12 615.827 C 1646.18 611.425 1642.76 607.982 1637.68 598.476 C 1562.6 614.064 1485.55 639.251 1415.1 669.267 C 1412.16 670.521 1409.49 672.155 1406.29 672.021 L 1405.16 669.034 C 1411.43 664.984 1437.23 655 1444.93 651.999 C 1483.18 636.994 1522.2 624.024 1561.82 613.144 C 1585.38 606.696 1612.5 601.132 1635.04 594.165 C 1636.4 591.551 1635.46 588.25 1635.03 585.107 C 1635.23 583.843 1635.46 582.583 1635.72 581.328 C 1638.33 568.721 1645.1 563.203 1655.08 556.583 C 1648.44 551.883 1641.57 541.201 1640.56 533.151 C 1636.65 501.835 1659.68 482.013 1688.22 479.613 C 1672.19 447.957 1695.02 418.587 1728.65 423.117 z" fill="rgb(26,58,40)" transform="translate(0,0)"></path>
<path d="M 1818.43 758.863 L 2048 721.651 L 2048 855.636 C 1995.37 856.216 1936.48 862.245 1883.62 867.017 C 1870.24 868.225 1856.87 869.572 1843.51 871.058 C 1839.3 871.511 1827.05 873.121 1823.32 872.986 C 1822.44 835.748 1820.18 796.173 1818.43 758.863 z" fill="rgb(245,158,11)" transform="translate(0,0)"></path>
<path d="M 1965.17 600.255 L 1966.21 599.609 C 1970.38 601.444 1983.09 602.977 1988.13 603.909 C 2006.86 607.371 2029.62 609.407 2048 613.845 L 2048 673.414 L 2048 678.992 L 2048 721.651 L 1818.43 758.863 C 1818.19 752.982 1817.96 748.138 1817.26 742.248 C 1834.01 735.813 1851.05 730.126 1868.31 725.205 C 1875.43 723.207 1904.73 716.374 1908.48 711.999 L 1907.44 710.563 C 1894.84 710.729 1830.87 732.791 1817.04 737.894 C 1816.72 721.573 1816.16 705.257 1815.38 688.951 C 1822.58 684.29 1825.32 682.232 1831.27 676.224 C 1852.21 701.882 1890.75 695.042 1902.36 663.837 C 1931.41 677.055 1958.14 657.095 1961.41 627.066 C 1968.34 625.12 2017.4 613.491 2018.34 611.824 C 2007.05 608.613 1974.06 619.459 1961.58 623.597 C 1959.98 617.549 1958.52 614.25 1955.14 609.056 C 1959.78 605.711 1961.26 604.427 1965.17 600.255 z" fill="rgb(13,150,104)" transform="translate(0,0)"></path>
<path d="M 2048 678.992 C 2014.52 683.728 1977.95 693.825 1945.17 702.666 C 1941.29 703.712 1939.39 705.298 1935.08 705.058 L 1934.22 704.064 L 1935.54 701.983 C 1944.15 695.99 2032.57 676.653 2048 673.414 L 2048 678.992 z" fill="rgb(26,58,40)" transform="translate(0,0)"></path>
<path d="M 1789.07 752.155 C 1788.91 755.511 1788.82 758.869 1788.79 762.229 C 1772.41 765.414 1756.36 768.659 1739.83 770.986 C 1753.76 763.862 1774.06 757.363 1789.07 752.155 z" fill="rgb(13,150,104)" transform="translate(0,0)"></path>
<path d="M 1696.45 484.178 C 1689.73 474.338 1685.04 465.492 1687.41 452.822 C 1688.86 444.816 1693.45 437.724 1700.17 433.122 C 1711.47 425.378 1720.05 427.068 1732.79 427.674 C 1734.38 423.33 1733.92 419.445 1734.76 415.219 C 1739.26 392.761 1769.65 379.021 1790.24 387.54 C 1803.55 393.044 1809.52 401.658 1815.32 414.049 C 1824.94 404.991 1833.64 397.795 1848.01 398.359 C 1857.14 398.703 1865.74 402.706 1871.88 409.465 C 1880.11 418.376 1882.24 427.941 1885.68 439.071 C 1889.96 436.921 1893.91 434.916 1898.6 433.051 C 1923.18 423.269 1952.79 440.276 1943.52 468.729 C 1941.7 474.306 1938.98 476.746 1934.64 480.956 C 1961.44 497.525 1965.76 516.327 1941.36 537.887 C 1949.35 541.871 1955.04 544.492 1961.23 551.27 C 1972.36 563.468 1972.79 581.68 1964.52 595.621 C 1958.77 602.006 1954.65 603.961 1947.11 607.516 C 1968.44 638.423 1944.21 662.013 1911.9 664.791 L 1899.87 658.835 C 1890.24 684.174 1864.69 697.316 1839.85 679.237 C 1836.16 676.552 1832.95 670.619 1830.55 666.549 C 1824.97 676.444 1823.46 677.834 1814.41 683.975 L 1813.06 655.102 C 1833.8 636.385 1857.39 610.758 1875.24 589.566 C 1880.14 592.75 1893 599.986 1899.12 597.928 C 1897.78 594.327 1884.22 590.192 1878.57 585.226 L 1877.78 584.518 C 1882.46 580.393 1902.58 560.205 1897.83 554.84 C 1896.8 555.127 1896.29 555.207 1895.56 556.073 C 1882.88 571.156 1872.63 584.144 1857.32 596.692 C 1856.15 581.584 1855.61 567.147 1857.1 551.977 C 1857.8 544.853 1864.22 531.03 1862.72 524.765 L 1861.19 523.969 C 1856.21 528.753 1853.56 546.114 1852.01 553.11 C 1848.22 570.218 1850.04 586.028 1851.34 603.378 C 1839.91 612.664 1822.29 631.851 1811.43 643.093 C 1808.79 631.702 1807.99 614.809 1806.92 602.641 C 1804.95 579.017 1802.82 555.406 1800.54 531.809 C 1808.05 524.02 1845.28 482.736 1832.71 472.554 C 1829.08 475.046 1827.02 490.518 1823.56 496.334 C 1816.53 508.134 1809.38 515.441 1799.47 524.649 C 1797.48 505.786 1796.55 486.556 1794.29 467.732 C 1793.92 464.681 1793.95 465.166 1791.95 463.766 L 1790.09 464.531 C 1788.19 467.752 1791 562.627 1791.54 575.033 C 1776.03 561.133 1762.41 533.947 1755.67 514.191 C 1754.01 509.305 1753.67 494.771 1747.92 493.862 C 1743.62 505.784 1760.88 541.943 1766.63 553.517 C 1762.21 552.661 1757.86 551.732 1753.66 550.057 C 1748.12 547.846 1738.05 541.514 1732.5 540.886 L 1732.45 542.101 C 1744.1 554.169 1753.31 555.183 1769.22 557.247 C 1772.83 562.759 1789.64 587.587 1790.27 591.983 C 1794.18 619.18 1791.6 663.914 1790.88 691.006 C 1787.69 688.886 1783.39 684.957 1780.36 682.353 L 1779.43 683.017 C 1766.9 691.826 1764 681.572 1757.75 671.381 C 1758.16 658.348 1759.23 648.094 1761.85 635.378 C 1763.04 629.605 1767.08 610.957 1765.39 606.254 L 1764.15 606.633 C 1758.89 614.882 1753.31 655.112 1751.92 665.958 C 1749.16 656.038 1737.15 608.947 1732.49 605.325 L 1730.66 605.607 C 1729.26 609.922 1741.57 650.186 1743.68 658.121 L 1743.19 657.968 C 1707.59 646.666 1714.22 621.252 1703.36 616.578 L 1702.08 617.487 C 1702.39 622.341 1708.8 635.529 1711.72 639.988 C 1721.13 654.359 1726.67 658.28 1742.11 662.114 C 1746.53 671.852 1751.72 679.907 1757.31 688.962 C 1749.78 694.379 1743.68 697.864 1733.99 697.594 C 1726.33 697.405 1719.06 694.146 1713.82 688.55 C 1706.83 681.003 1706.17 675.286 1706.61 665.738 C 1689.77 673.634 1670.8 672.603 1659.27 656.31 C 1656.24 651.969 1654.38 646.918 1653.88 641.648 C 1652.04 623.863 1664.03 618.931 1665.45 610.176 L 1663.83 609.206 C 1636 615.223 1630.61 570.525 1659.21 559.88 L 1662.01 557.365 C 1661.19 555.122 1656.46 550.764 1654.38 548.854 C 1643.83 539.181 1641.6 523.349 1647.6 510.217 C 1652.6 499.425 1661.65 491.041 1672.79 486.888 C 1681.71 483.632 1687.21 483.94 1696.45 484.178 z" fill="rgb(13,150,104)" transform="translate(0,0)"></path>
<path d="M 1779.27 688.927 C 1781.58 688.923 1788.53 693.376 1791 694.82 C 1790.82 699.816 1790.9 714.938 1789.5 718.491 L 1788.25 717.478 C 1783.14 709.079 1775.61 702.177 1773.58 694.05 C 1774.55 690.681 1775.38 691.181 1779.27 688.927 z" fill="rgb(13,150,104)" transform="translate(0,0)"></path>
<path d="M 1354.13 615.114 C 1447.38 601.793 1541.07 591.785 1635.03 585.107 C 1635.46 588.25 1636.4 591.551 1635.04 594.165 C 1612.5 601.132 1585.38 606.696 1561.82 613.144 C 1522.2 624.024 1483.18 636.994 1444.93 651.999 C 1437.23 655 1411.43 664.984 1405.16 669.034 L 1406.29 672.021 C 1409.49 672.155 1412.16 670.521 1415.1 669.267 C 1485.55 639.251 1562.6 614.064 1637.68 598.476 C 1642.76 607.982 1646.18 611.425 1656.12 615.827 C 1650.03 626.196 1646.88 634.772 1649.96 647.211 C 1652.3 656.602 1658.39 664.625 1666.8 669.417 C 1677.09 675.382 1688.45 676.282 1699.93 673.904 C 1704.05 685.125 1708.06 693.377 1719.81 698.966 C 1728.7 703.142 1738.91 703.508 1748.08 699.979 C 1751.65 698.614 1755.64 695.899 1758.93 693.804 C 1769.62 711.149 1778.29 730.302 1788.67 748.008 C 1774.41 753.044 1731.84 767.22 1721.91 774.335 C 1709.46 777.625 1695.62 779.854 1682.92 782.211 C 1636.56 790.818 1590.54 801.936 1544.19 810.539 C 1545.08 795.834 1543.07 793.762 1531.26 785.434 C 1536.39 781.35 1547.13 775.091 1553.03 771.52 C 1578.84 756.159 1605.4 742.103 1632.62 729.406 C 1638.99 726.399 1657.94 719.427 1661.55 714.889 L 1660.59 713.284 C 1652.44 712.307 1574.19 753.966 1562.96 760.529 C 1552.69 766.537 1542.96 774.604 1532.24 779.69 C 1525.2 783.03 1520.19 780.827 1513.06 781.82 C 1509.63 782.298 1505.9 784.035 1502.68 785.3 C 1506.12 775.929 1509.16 768.185 1506.38 758.047 C 1504.27 750.58 1499.27 744.261 1492.49 740.486 C 1475.88 731.287 1460.57 739.684 1452.16 755.115 C 1438.12 737.033 1417.7 736.936 1422.22 764.877 C 1398.77 748.712 1381.85 753.397 1365.35 775.642 C 1358.76 771.647 1354.19 770.082 1347.07 767.821 C 1358.7 741.036 1333.18 735.079 1311.8 740.344 C 1315.4 731.389 1316.64 726.596 1317.08 716.708 C 1336.14 705.508 1361.33 695.052 1378.96 683.718 L 1376.67 680.419 C 1359.04 688.516 1333.75 702.978 1317.01 712.529 C 1307.27 664.588 1252.66 663.489 1230.94 703.641 C 1213.49 678.604 1178.3 687.348 1166.81 715.296 C 1145.27 699.859 1125.04 702.768 1114.36 727.987 C 1093.42 723.547 1057.9 714.05 1037.83 712.377 C 1083.5 690.159 1133.81 673.585 1180.43 653.21 C 1187.59 650.08 1218.62 640.381 1222.58 635.681 C 1226.42 634.289 1246.8 631.107 1251.57 630.317 L 1316.13 620.243 C 1326.49 618.714 1338.12 617.722 1348.19 615.547 C 1349.89 613.096 1349.29 611.675 1349.35 608.19 C 1349.65 610.512 1349.95 612.659 1350.36 614.964 C 1352.62 616.053 1351.41 615.871 1354.13 615.114 z" fill="rgb(13,150,104)" transform="translate(0,0)"></path>
<path d="M 1636.57 650.048 L 1638.89 649.933 L 1639.86 651.029 C 1638.24 655.59 1629.22 657.022 1624.47 658.415 C 1551.89 679.706 1483.92 709.923 1416.3 743.402 C 1414.38 744.006 1415.34 743.959 1413.32 743.44 L 1413.46 742.263 C 1417.43 738.358 1423.84 735.871 1428.77 733.199 C 1494.77 697.454 1565.13 671.625 1636.57 650.048 z" fill="rgb(26,58,40)" transform="translate(0,0)"></path>
<path d="M 1424.15 607.237 L 1425.9 608.588 C 1424.07 611.794 1397.64 617.973 1391.72 619.642 C 1335.99 635.44 1282.01 656.895 1230.65 683.674 L 1229.01 682.493 L 1229.04 680.969 C 1232.63 676.998 1270.59 659.352 1277.68 656.48 C 1324.22 637.612 1374.84 617.595 1424.15 607.237 z" fill="rgb(26,58,40)" transform="translate(0,0)"></path>
<path d="M 112.364 614.286 C 235.876 598.386 396.456 614.08 522.201 628.299 C 629.581 640.802 736.23 658.933 841.708 682.618 C 885.698 692.958 934.433 707.397 978.154 720.016 L 1219.09 791.604 L 1306.79 817.667 C 1317.7 820.802 1386.81 838.906 1392.21 842.728 C 1352.8 851.308 1313.38 859.757 1274.16 869.165 C 1269.63 870.25 1264.82 871.647 1260.2 871.923 C 1259.96 871.155 1259.89 870.43 1259.32 869.845 C 1251.22 861.592 1154.41 824.712 1135.44 817.718 C 937.62 744.368 733.274 689.99 525.161 655.319 C 403.275 634.401 263.264 617.796 139.527 616.811 C 128.578 617.015 105.999 617.861 96.4372 615.835 C 101.752 615.381 107.061 614.864 112.364 614.286 z" fill="rgb(13,150,104)" transform="translate(0,0)"></path>
<path d="M 1400.64 841.205 L 1400.3 840.961 C 1392.37 835.272 1296.81 809.844 1281.65 805.369 L 1006.05 723.141 C 994.298 719.654 939.292 705.894 933.687 702.666 L 934.819 702.381 C 945.153 705.721 959.088 706.779 970.043 709.131 L 1065.58 730.402 C 1097.78 737.717 1130.84 743.995 1162.72 751.727 C 1257.1 774.61 1351.53 797.849 1447.37 813.828 C 1460.47 816.011 1477.54 818.293 1490.09 822.058 C 1463.96 827.783 1424.69 834.465 1400.64 841.205 z" fill="rgb(13,150,104)" transform="translate(0,0)"></path>
<path d="M 624.425 563.964 C 621.548 565.919 617.631 567.357 614.682 566.681 C 603.239 564.06 605.649 556.069 602.244 549.344 C 601.674 548.217 592.547 544.82 590.318 541.011 C 584.998 531.917 592.834 530.063 593.552 524.143 C 593.789 522.192 587.704 516.48 589.207 511.131 C 590.658 505.968 594.268 504.441 598.739 501.544 C 603.511 493.308 589.859 481.574 617.607 482.015 C 624.86 476.231 615.053 458.862 644.657 472.999 C 655.115 469.698 659.669 452.759 673.254 477.017 C 675.649 475.562 683.47 473.383 685.617 474.564 C 697.725 481.223 685.839 493.325 702.088 498.596 C 710.882 501.449 705.672 512.592 701.214 517.704 L 700.884 518.564 C 705.948 523.902 707.191 523.722 707.085 531.404 C 706.918 543.438 698.753 538.291 694.349 543.834 C 694.757 547.083 695.728 548.93 697.006 551.884 C 692.669 558.801 691.362 559.432 684.281 563.442 L 678.732 561.875 C 674.962 563.378 671.612 569.025 668.093 572.647 C 664.278 571.954 662.543 570.444 659.351 568.255 L 657.825 567.613 L 655.16 569.035 L 654.014 568.25 C 650.887 561.433 660.187 550.606 664.22 545.382 C 667.25 546.293 674.015 548.668 675.86 545.323 C 673.013 543.111 669.558 543.628 665.718 543.579 L 673.362 534.188 C 676.873 533.934 682.525 533.737 684.942 531.168 C 682.498 529.24 679.559 529.743 676.231 529.751 C 680.214 525.32 684.497 518.342 688.696 514.42 C 689.302 513.853 693.343 514.629 695.696 512.444 C 688.289 506.309 694.713 508.981 691.619 503.511 C 689.484 505.39 688.482 511.287 686.43 513.481 C 685.163 514.836 685.922 512.528 682.418 512.583 C 682.39 513.371 682.063 518.393 681.752 518.767 C 672.357 530.018 662.735 540.314 654.106 552.218 C 654.052 544.642 653.412 503.332 650.51 499.385 C 645.38 504.09 650.865 513.947 647.748 521.155 C 645.032 518.445 631.491 505.886 631.137 502.531 C 630.892 500.215 633.23 498.932 631.134 495.138 L 629.079 494.801 C 621.373 501.859 638.779 516.925 644.306 522.475 C 644.731 522.895 645.16 523.31 645.594 523.721 C 648.163 528.016 649.37 540.681 648.803 543.953 C 647.167 543.653 617.117 515.114 609.536 510.63 C 618.453 526.155 643.114 537.057 647.804 554.723 C 648.409 557.003 648.026 564.939 647.928 567.597 C 646.086 569.565 647.21 568.97 644.34 569.223 C 640.331 568.799 636.315 568.814 632.283 568.749 C 631.428 567.778 626.811 565.317 625.299 565.317 L 624.425 563.964 z" fill="rgb(13,150,104)" transform="translate(0,0)"></path>
<path d="M 624.425 563.964 C 621.548 565.919 617.631 567.357 614.682 566.681 C 603.239 564.06 605.649 556.069 602.244 549.344 C 601.674 548.217 592.547 544.82 590.318 541.011 C 584.998 531.917 592.834 530.063 593.552 524.143 C 593.789 522.192 587.704 516.48 589.207 511.131 C 590.658 505.968 594.268 504.441 598.739 501.544 C 603.511 493.308 589.859 481.574 617.607 482.015 C 624.86 476.231 615.053 458.862 644.657 472.999 C 655.115 469.698 659.669 452.759 673.254 477.017 L 673.048 478.361 C 665.072 474.724 671.255 465.384 653.654 468.606 C 650.952 471.748 648.151 474.768 646.085 478.356 C 641.698 474.181 637.425 469.869 631.155 469.206 C 622.638 472.186 625.372 481.126 619.465 484.444 C 615.449 486.7 605.847 481.654 602.118 489.782 C 598.824 495.108 608.594 502.134 599.231 505.539 C 596.249 506.624 594.012 507.185 592.551 509.908 C 591.244 515.525 594.879 520.682 597.662 525.506 C 578.461 541.293 602.36 542.957 606.564 548.389 C 603.965 570.479 616.938 560.323 624.425 563.964 z" fill="rgb(26,58,40)" transform="translate(0,0)"></path>
<path d="M 1035.34 667.615 C 1037.62 666.63 1056.22 663.863 1060.14 663.282 C 1106.45 656.433 1153.7 645.382 1200.05 639.814 C 1198.97 640.917 1197.85 641.924 1196.4 642.513 C 1148.25 662.12 1099.77 680.868 1052.2 701.849 C 1045.14 704.959 1037.99 708.103 1030.85 710.993 C 1013.94 707.305 987.654 700.713 971.233 698.402 C 980.676 693.844 1030.34 673.69 1034.74 669.556 L 1035.34 667.615 z" fill="rgb(13,150,104)" transform="translate(0,0)"></path>
<path d="M 916.901 687.188 C 951.378 684.224 996.232 671.527 1030.24 668.669 C 1009.67 677.346 985.066 687.474 965.087 697.069 C 958.477 694.995 948.057 693.833 940.933 692.405 C 932.84 690.783 924.931 688.843 916.901 687.188 z" fill="rgb(13,150,104)" transform="translate(0,0)"></path>
<path d="M 462.021 217.675 C 470.622 209.154 472.864 193.482 486.86 198.921 C 492.143 200.975 492.982 203.618 492.86 208.866 C 490.894 211.506 490.471 211.239 490.124 214.277 C 486.12 210.59 480.506 210.767 475.27 212.049 C 473.977 213.906 474.102 213.991 473.81 216.153 C 474.479 219.527 474.144 220.011 472.577 223.127 L 471.058 223.687 L 469.65 221.268 C 469.77 217.924 470.454 216.038 468.952 213.624 C 466.618 214.933 464.307 216.284 462.021 217.675 z" fill="rgb(0,5,1)" transform="translate(0,0)"></path>
<path d="M 506.298 234.594 C 493.165 238.849 489.928 219.815 495.76 216.131 C 503.148 218.23 504.058 229.331 506.23 234.076 L 506.298 234.594 z" fill="rgb(251,244,227)" transform="translate(0,0)"></path>
<path d="M 462.021 217.675 C 464.307 216.284 466.618 214.933 468.952 213.624 C 470.454 216.038 469.77 217.924 469.65 221.268 C 469.008 223.065 468.739 233.583 468.623 236.165 C 461.516 228.929 459.522 229.639 460.902 219.228 L 462.021 217.675 z" fill="rgb(251,244,227)" transform="translate(0,0)"></path>
<path d="M 632.283 568.749 C 636.315 568.814 640.331 568.799 644.34 569.223 C 647.109 573.574 648.569 579.182 645.809 583.975 C 642.753 581.593 632.837 572.496 632.283 568.749 z" fill="rgb(251,244,227)" transform="translate(0,0)"></path>
<path d="M 473.81 216.153 C 474.102 213.991 473.977 213.906 475.27 212.049 C 480.506 210.767 486.12 210.59 490.124 214.277 C 488.857 217.717 488.606 219.131 485.597 221.388 C 481.914 221.894 480.999 221.855 477.572 219.219 C 476.298 218.222 475.043 217.2 473.81 216.153 z" fill="rgb(251,244,227)" transform="translate(0,0)"></path>
<path d="M 659.351 568.255 C 662.543 570.444 664.278 571.954 668.093 572.647 C 664.256 577.133 659.353 581.478 655.008 585.544 C 654.77 583.62 654.572 581.692 654.414 579.759 C 653.947 573.592 655.794 572.886 659.351 568.255 z" fill="rgb(251,244,227)" transform="translate(0,0)"></path>
<path d="M 483.997 568.219 C 493.171 561.547 513.564 535.559 524.475 528.405 C 526.414 530.352 526.311 532.889 526.951 536.063 C 528.401 553.166 534.411 603.835 537.884 619.192 C 536.124 620.998 536.869 620.451 533.584 620.598 C 531.097 619.497 486.323 572.276 483.997 568.219 z" fill="rgb(251,244,227)" transform="translate(0,0)"></path>
<path d="M 437.011 524.675 C 442.813 530.803 474.143 564.91 478.775 568.473 C 467.797 579.509 446.563 599.759 437.393 610.946 C 434.866 610.596 427.976 609.847 426.046 608.929 C 430.56 582.629 432.488 552.254 437.011 524.675 z" fill="rgb(251,244,227)" transform="translate(0,0)"></path>
<path d="M 441.958 514.918 C 455.478 499.806 466.661 483.749 480.999 468.367 C 486.361 475.5 519.593 515.078 520.929 518.85 C 519.605 519.92 519.789 519.942 518.249 520.608 C 506.253 518.302 447.678 519.338 441.795 516.56 L 441.958 514.918 z" fill="rgb(251,244,227)" transform="translate(0,0)"></path>
<path d="M 481.11 571.879 C 485.952 574.73 520.775 613.402 526.782 619.976 C 515.568 618.561 504.334 617.305 493.084 616.208 C 477.751 613.807 457.747 612.764 442.137 611.596 C 453.78 598.618 468.566 584.054 481.11 571.879 z" fill="rgb(251,244,227)" transform="translate(0,0)"></path>
<path d="M 441.725 520.939 C 468.61 522.481 494.683 522.261 521.594 524.571 C 513.665 532.546 487.171 558.349 482.368 566.063 C 479.367 565.422 445.073 528.288 441.007 522.715 L 441.725 520.939 z" fill="rgb(251,244,227)" transform="translate(0,0)"></path>
<path d="M 512.669 430.997 C 514.248 433.218 523.834 508.608 523.237 515.01 C 509.992 498.3 496.645 481.67 483.197 465.123 C 493.201 453.945 502.622 442.047 512.669 430.997 z" fill="rgb(251,244,227)" transform="translate(0,0)"></path>
<path d="M 450.128 429.688 C 455.031 434.019 474.419 459.795 478.308 465.811 C 471.852 472.922 466.137 479.393 460.141 486.714 C 456.184 491.544 443.085 508.546 439.379 511.512 C 440.108 494.278 446.713 445.897 450.128 429.688 z" fill="rgb(251,244,227)" transform="translate(0,0)"></path>
<path d="M 482.446 381.492 C 489.126 386.421 505.652 414.116 510.747 422.919 C 502.144 423.091 493.538 422.982 484.943 422.592 C 474.708 422.57 464.478 422.171 454.273 421.398 C 462.102 409.115 473.875 393.514 482.446 381.492 z" fill="rgb(251,244,227)" transform="translate(0,0)"></path>
<path d="M 467.419 426.783 C 474.76 426.793 505.86 425.651 509.937 428.927 C 507.131 431.154 485.239 457.015 480.726 462.015 C 471.805 450.94 462.557 438.294 453.859 426.905 L 467.419 426.783 z" fill="rgb(251,244,227)" transform="translate(0,0)"></path>
<path d="M 459.294 350.479 C 461.799 352.171 477.863 373.419 480.862 377.341 C 475.41 385.499 467.542 395.426 461.552 403.445 L 451.768 417.241 C 454.779 399.417 457.673 368.789 459.294 350.479 z" fill="rgb(251,244,227)" transform="translate(0,0)"></path>
<path d="M 503.57 352.929 C 505.794 355.479 511.155 409.443 511.912 416.416 L 504.94 404.95 C 499.617 396.441 491.581 385.857 485.613 377.517 C 490.34 370.137 498.226 360.074 503.57 352.929 z" fill="rgb(251,244,227)" transform="translate(0,0)"></path>
<path d="M 461.485 344.959 C 474.932 344.958 488.951 345.462 502.419 345.834 L 490.682 363.505 C 488.511 366.845 485.669 370.63 483.321 373.927 C 476.514 366.067 467.833 353.599 461.485 344.959 z" fill="rgb(251,244,227)" transform="translate(0,0)"></path>
<path d="M 480.622 313.735 C 484.697 317.978 497.548 336.199 501.007 341.274 C 495.442 341.315 489.091 340.956 483.467 340.774 C 477.601 340.226 468.999 340.228 462.917 340.069 C 469.058 331.651 474.888 322.475 480.622 313.735 z" fill="rgb(251,244,227)" transform="translate(0,0)"></path>
<path d="M 481.329 267.724 C 484.774 271.775 490.054 280.462 494.682 286.147 C 490.765 292.38 485.438 299.67 481.186 305.827 C 479.519 304.928 469.779 291.042 467.9 288.502 C 473.404 281.267 476.714 275.602 481.329 267.724 z" fill="rgb(251,244,227)" transform="translate(0,0)"></path>
<path d="M 248.71 577.813 C 256.783 585.13 264.773 592.539 272.676 600.039 C 266.211 599.277 258.818 599.172 252.25 598.919 C 242.51 598.399 234.558 598.063 224.834 598.305 C 232.36 591.077 240.646 584.455 248.71 577.813 z" fill="rgb(251,244,227)" transform="translate(0,0)"></path>
<path d="M 248.462 543.013 C 250.444 544.248 262.35 555.143 265.091 557.528 L 248.421 571.892 C 242.624 566.664 238.285 562.945 232.059 558.262 C 238.473 552.917 242.591 548.974 248.462 543.013 z" fill="rgb(251,244,227)" transform="translate(0,0)"></path>
<path d="M 248.256 507.129 C 251.397 509.758 260.352 519.761 263.47 523.118 C 258.693 527.266 254.067 531.894 249.514 536.31 C 244.947 534.191 237.99 526.222 234.569 522.283 C 238.871 515.43 242.405 512.484 248.256 507.129 z" fill="rgb(251,244,227)" transform="translate(0,0)"></path>
<path d="M 495.513 291.768 C 497.688 294.48 501.164 329.176 501.853 334.945 C 499.568 332.256 497.038 328.671 494.884 325.784 L 482.615 310.262 C 487.06 305.012 491.627 297.654 495.513 291.768 z" fill="rgb(251,244,227)" transform="translate(0,0)"></path>
<path d="M 266.856 561.663 L 267.844 562.1 C 270.574 566.036 272.519 589.371 273.216 595.555 L 265.737 588.36 C 261.245 584.598 256.311 579.555 252.045 575.413 L 266.856 561.663 z" fill="rgb(251,244,227)" transform="translate(0,0)"></path>
<path d="M 465.788 293.598 C 469.312 296.295 475.983 306.085 478.808 310.019 C 474.657 315.605 470.668 321.678 466.743 327.452 C 464.834 330.763 464.314 331.588 461.722 334.527 C 460.813 332.958 465.216 298.616 465.788 293.598 z" fill="rgb(251,244,227)" transform="translate(0,0)"></path>
<path d="M 229.957 562.347 C 235.058 565.176 240.745 570.624 245.239 574.587 L 235.367 583.023 C 232.214 585.309 228.403 589.131 225.479 591.895 C 226.775 581.646 227.943 572.525 229.957 562.347 z" fill="rgb(251,244,227)" transform="translate(0,0)"></path>
<path d="M 249.878 477.729 C 251.55 479.073 258.554 487.631 260.377 489.783 C 255.709 493.964 252.78 496.584 248.65 501.43 C 245.792 499.272 241.405 493.865 238.889 490.957 C 242.11 486.041 245.942 482.067 249.878 477.729 z" fill="rgb(251,244,227)" transform="translate(0,0)"></path>
<path d="M 263.754 528.74 L 264.661 529.638 C 266.112 534.703 269.175 548.061 266.972 552.714 C 264.217 552.674 263.924 551.451 261.43 549.036 C 257.607 545.663 255.613 543.553 252.223 539.717 C 255.755 536.827 260.378 532.035 263.754 528.74 z" fill="rgb(251,244,227)" transform="translate(0,0)"></path>
<path d="M 470.29 250.606 C 473.536 253.627 476.994 259.494 479.51 263.372 L 472.133 275.695 C 470.827 278.214 470.597 278.809 468.528 280.72 C 466.153 276.64 469.533 256.626 470.29 250.606 z" fill="rgb(251,244,227)" transform="translate(0,0)"></path>
<path d="M 234.165 528.556 C 238.264 531.192 242.193 535.665 245.634 539.24 C 243.103 542.325 239.525 545.737 236.65 548.629 L 230.33 554.83 L 234.165 528.556 z" fill="rgb(251,244,227)" transform="translate(0,0)"></path>
<path d="M 491.369 250.016 C 493.944 253.475 494.895 275.725 495.328 281.359 C 491.083 275.17 486.413 268.812 483.468 261.917 C 486.497 258.218 488.872 254.093 491.369 250.016 z" fill="rgb(251,244,227)" transform="translate(0,0)"></path>
<path d="M 254.068 459.001 C 254.663 459.81 255.241 461.489 255.65 462.496 C 254.877 466.177 255.543 464.783 252.777 467.736 C 248.833 468.822 250.504 468.725 246.2 467.675 C 240.399 461.851 245.101 457.478 249.196 452.088 L 254.068 459.001 z" fill="rgb(251,244,227)" transform="translate(0,0)"></path>
<path d="M 259.686 495.669 C 262.383 498.163 264.211 513.237 262.821 516.619 L 261.249 515.2 C 258.334 511.771 254.253 507.941 251.002 504.716 L 259.686 495.669 z" fill="rgb(251,244,227)" transform="translate(0,0)"></path>
<path d="M 473.893 221.852 C 478.003 224.77 485.974 229.909 487.36 234.383 C 482.775 234.501 477.789 234.397 473.166 234.394 L 473.893 221.852 z" fill="rgb(251,244,227)" transform="translate(0,0)"></path>
<path d="M 473.998 249.099 L 475.095 247.679 C 478.699 246.433 484.588 246.798 488.604 246.822 C 486.489 250.201 483.163 255.165 481.422 258.58 L 473.998 249.099 z" fill="rgb(251,244,227)" transform="translate(0,0)"></path>
<path d="M 247.724 426.081 C 252.594 429.582 255.001 434.358 251.786 440.047 C 248.268 442.359 249.829 442.017 245.946 441.567 C 246.711 439.114 247.435 429.186 247.724 426.081 z" fill="rgb(251,244,227)" transform="translate(0,0)"></path>
<path d="M 471.549 243.144 C 472.152 240.52 471.724 241.477 473.715 239.449 C 479.281 238.248 484.666 237.724 490.207 239.561 L 490.958 241.899 C 486.384 243.327 476.841 242.999 471.549 243.144 z" fill="rgb(251,244,227)" transform="translate(0,0)"></path>
<path d="M 238.424 496.684 C 240.813 499.058 242.397 500.377 244.056 503.353 C 243.332 507.222 242.422 506.979 239.031 510.334 C 237.946 511.541 238.066 511.565 236.498 511.905 C 235.836 508.36 237.69 500.584 238.424 496.684 z" fill="rgb(251,244,227)" transform="translate(0,0)"></path>
<path d="M 248.584 380.612 C 251.762 380.816 253.572 380.658 256.229 382.513 L 256.325 384.363 L 253.686 387.282 C 250.323 387.367 248.612 387.783 245.834 385.984 C 245.734 383.039 246.29 383.375 248.584 380.612 z" fill="rgb(251,244,227)" transform="translate(0,0)"></path>
<path d="M 1521.99 144.056 C 1547.08 105.845 1576.98 83.2818 1621.18 70.0403 C 1705.95 44.6428 1814.89 83.6395 1833.64 178.01 C 1833.93 179.441 1834.15 180.882 1834.32 182.332 C 1870.97 169.854 1903.35 181.361 1912.06 221.563 C 1937.35 225.532 1965.06 229.935 1989.01 239.149 C 1942 232.024 1887.44 227.631 1839.96 223.367 C 1603.52 201.487 1365.22 211.263 1131.37 252.435 C 1057.45 265.978 984.005 281.934 911.137 300.279 C 809.426 325.406 712.459 351.629 609.839 373.914 C 588.781 378.617 567.658 383.02 546.475 387.122 C 538.454 388.659 521.364 392.048 513.481 392.189 L 511.682 377.389 C 549.741 372.617 587.86 362.15 625.045 352.782 C 755.317 319.962 881.533 274.893 1008.58 231.614 C 1043.94 219.358 1079.56 207.889 1115.42 197.214 C 1149.14 186.918 1187.33 175.839 1222.32 170.917 C 1250.55 166.945 1272.59 167.412 1296.52 184.432 C 1356.87 115.945 1441.62 99.5305 1521.99 144.056 z" fill="rgb(245,158,11)" transform="translate(0,0)"></path>
<path d="M 1347.7 594.323 C 1341.55 593.677 1340.4 596.209 1336.23 594.419 L 1335.25 592.511 C 1336.61 590.537 1337.5 589.43 1339.08 587.628 C 1337.04 584.414 1333.37 584.984 1330.38 580.86 L 1332.86 578.418 C 1332.41 576.377 1331.59 575.903 1330.08 574.459 L 1330.4 572.602 C 1332.67 571.828 1334.03 572.638 1336.43 573.457 L 1337.15 572.015 C 1335.94 568.656 1333.61 563.913 1334.9 561.027 C 1340.01 561.929 1338.94 567.36 1342.13 565.143 C 1343.79 561.516 1344.93 557.998 1348.14 555.741 L 1350.67 555.349 C 1354.21 559.537 1352.25 563.285 1355.01 564.031 C 1356.88 561.408 1358.36 559.088 1360.87 557.021 L 1362.29 557.697 C 1363.28 561.119 1364.15 564.57 1364.92 568.045 C 1368.79 568.903 1369.11 565.393 1372.77 566.009 C 1372.42 571.695 1368.79 570.03 1369.64 573.894 L 1372.93 574.923 C 1371.25 579.415 1367.26 578.969 1367.66 581.664 L 1372.17 584.453 L 1372.4 585.717 C 1368.37 587.255 1361.41 589.145 1359.06 592.142 L 1359.56 593.172 L 1363.82 594.299 L 1364.5 595.843 C 1361.6 597.487 1358.91 597.011 1355.26 596.551 C 1352.97 592.464 1353.52 590.266 1355.75 586.433 L 1356.19 585.681 C 1354.73 583.924 1354.79 584.035 1352.55 583.409 L 1350.57 584.945 C 1348.29 590.331 1349.87 587.686 1349.81 593.81 L 1347.7 594.323 z" fill="rgb(13,150,104)" transform="translate(0,0)"></path>
<path d="M 1347.7 594.323 L 1349.81 593.81 C 1349.87 587.686 1348.29 590.331 1350.57 584.945 L 1352.55 583.409 C 1354.79 584.035 1354.73 583.924 1356.19 585.681 L 1355.75 586.433 C 1353.52 590.266 1352.97 592.464 1355.26 596.551 C 1353.89 601.495 1354.18 609.742 1354.13 615.114 C 1351.41 615.871 1352.62 616.053 1350.36 614.964 C 1349.95 612.659 1349.65 610.512 1349.35 608.19 C 1349.19 602.76 1349.28 599.608 1347.7 594.323 z" fill="rgb(26,58,40)" transform="translate(0,0)"></path>
<path d="M 697.006 551.884 C 695.728 548.93 694.757 547.083 694.349 543.834 C 698.753 538.291 706.918 543.438 707.085 531.404 C 707.191 523.722 705.948 523.902 700.884 518.564 L 701.214 517.704 C 717.622 526.448 708.159 537.943 698.9 545.405 C 698.794 545.49 701.435 565.013 684.281 563.442 C 691.362 559.432 692.669 558.801 697.006 551.884 z" fill="rgb(26,58,40)" transform="translate(0,0)"></path>
<path d="M 1314.17 291.325 C 1371.43 283.368 1426.08 316.079 1451.08 367.158 C 1510.79 368.223 1586.37 390.649 1640.73 413.992 C 1609.13 407.341 1584.69 404.136 1552.95 399.457 C 1370.85 372.608 1193.66 382.961 1012.77 412.073 C 958.779 420.299 899.721 432.118 846.135 443.337 L 789.435 454.796 C 774.567 457.883 745.614 464.2 731.343 464.034 C 735.072 461.908 756.413 457.76 761.934 456.349 C 796.38 447.544 830.096 438.268 864.097 427.873 C 925.661 409.05 984.993 384.346 1045.42 362.289 C 1075.17 351.809 1103.39 337.413 1134.82 332.394 C 1170.11 326.762 1193.07 329.07 1222.6 349.547 C 1224.61 346.578 1226.66 343.64 1228.76 340.735 C 1249.52 312.276 1279.88 296.714 1314.17 291.325 z" fill="rgb(245,158,11)" transform="translate(0,0)"></path>
<path d="M 168.806 197.247 C 198.713 194.141 211.374 203.774 227.486 227.213 C 260.071 212.439 288.13 225.511 306.639 254.094 L 207.25 254.192 C 159.617 254.013 109.086 253.221 61.6578 254.326 C 78.7914 232.262 101.831 224.564 128.79 231.543 C 136.678 211.591 147.362 201.438 168.806 197.247 z" fill="rgb(245,158,11)" transform="translate(0,0)"></path>
<path d="M 1825.66 295.335 C 1851.87 292.044 1875.17 299.487 1895.52 315.812 C 1922.35 306.708 1949.7 304.58 1964.81 333.746 C 1920.97 331.812 1871.98 333.258 1827.25 332.283 C 1778.43 332.065 1728.08 333.542 1679.42 332.11 C 1708.5 322.522 1745.21 310.847 1774.42 321.526 C 1774.93 320.802 1775.45 320.084 1775.99 319.375 C 1787.98 303.489 1806.94 297.914 1825.66 295.335 z" fill="rgb(245,158,11)" transform="translate(0,0)"></path>
<path d="M 471.933 71.435 C 497.683 68.811 528.129 78.4936 549.592 92.2523 C 606.384 128.658 621.884 200.366 585.72 257.162 L 576.754 250.709 C 585.988 236.273 590.667 226.061 593.385 208.858 C 597.696 180.6 590.606 151.787 573.674 128.757 C 552.542 99.9973 523.691 87.21 489.393 82.0542 C 483.739 81.9093 478.154 81.8226 472.515 81.9734 C 411.799 83.5965 355.518 137.561 360.037 199.9 C 361.406 218.782 367.159 231.188 377.332 247.012 L 369.441 252.732 C 339.21 212.688 345.16 156.537 376.973 119.28 C 402.416 89.4831 433.179 74.7482 471.933 71.435 z" fill="rgb(245,158,11)" transform="translate(0,0)"></path>
<path d="M 757.869 74.3726 C 778.445 73.4162 791.045 78.7872 801.168 96.5472 C 817.889 83.8676 838.473 80.7214 852.93 98.1957 C 870.615 100.233 891.461 104.778 908.991 108.586 C 877.571 109.566 842.492 109.033 810.75 109.22 L 653.128 108.908 C 674.821 104.068 696.188 99.8666 718.278 97.3029 C 728.872 80.3538 738.259 76.5499 757.869 74.3726 z" fill="rgb(245,158,11)" transform="translate(0,0)"></path>
<path d="M 475.046 103.426 C 513.471 104.021 545.424 120.371 562.868 156.305 C 573.383 177.967 572.117 203.577 563.829 225.614 C 562.112 230.18 560.114 234.896 555.384 237.033 C 552.368 237.333 551.768 236.715 549.166 235.039 C 546.513 230.034 558.44 213.159 559.491 204.718 C 565.735 154.605 532.549 121.738 486.29 114.109 C 424.066 110.951 371.397 169.368 405.665 229.059 L 397.438 234.067 C 358.489 173.171 408.873 107.736 475.046 103.426 z" fill="rgb(245,158,11)" transform="translate(0,0)"></path>
<path d="M 476.633 136.416 C 493.007 137.006 506.442 139.651 519.037 151.38 C 529.294 160.817 535.263 174.026 535.567 187.96 C 535.747 195.69 534.256 208.823 528.703 214.726 C 525.602 215.12 526.851 215.305 523.773 213.231 C 519.656 206.627 526.958 195.875 525.845 186.943 C 522.682 161.565 499.725 145.569 474.976 147.34 C 437.654 152.405 422.217 180.523 436.21 215.03 L 435.432 216.452 C 431.854 218.614 432.983 218.619 429.263 218.477 C 404.455 192.235 429.079 147.975 459.554 139.427 C 466.18 137.569 469.882 136.91 476.633 136.416 z" fill="rgb(245,158,11)" transform="translate(0,0)"></path>
<path d="M 245.574 304.326 C 254.242 303.117 266.456 305.266 274.562 308.129 C 292.425 314.265 307.082 327.306 315.255 344.333 C 323.768 362.612 324.539 383.553 317.393 402.408 L 315.826 403.033 L 313.079 401.58 C 309.053 394.837 314.9 387.45 315.434 379.855 C 318.01 343.15 294.676 317.226 259.219 312.123 C 217.564 309.225 182.007 336.298 187.65 381.949 C 188.229 386.63 192.825 394.62 191.804 398.204 C 189.196 400.552 190.452 399.988 187.094 400.449 C 183.333 397.288 182.3 391.003 181.232 386.364 C 171.408 343.675 205.159 309.073 245.574 304.326 z" fill="rgb(245,158,11)" transform="translate(0,0)"></path>
<path d="M 242.907 324.183 C 253.801 323.507 261.106 323.427 271.663 327.793 C 284.267 332.894 294.301 342.833 299.524 355.387 C 302.653 363.032 307.185 388.662 297.429 392.602 C 296.874 392.371 296.042 392.023 294.932 391.56 C 297.205 377.599 298.925 365.529 291.224 352.433 C 283.815 339.836 273.921 334.89 260.015 331.226 C 227.386 327.573 198.687 349.57 208.875 384.572 C 209.684 387.351 210.226 388.925 209.606 391.79 L 207.878 392.805 L 205.078 391.911 C 203.191 390.062 203.536 389.428 202.739 387.131 C 194.762 364.162 204.98 341.635 226.142 330.358 C 232.026 327.222 236.458 325.951 242.907 324.183 z" fill="rgb(245,158,11)" transform="translate(0,0)"></path>
<path d="M 243.432 342.189 C 268.05 339.647 287.076 351.968 284.91 380.018 C 284.711 382.592 283.943 383.721 281.921 385.076 L 279.766 384.408 C 274.903 377.549 284.637 359.475 261.737 349.397 C 260.936 349.228 260.134 349.066 259.33 348.911 C 250.58 347.253 241.513 348.103 234.149 353.436 C 219.359 364.148 226.964 375.956 225.733 383.007 C 223.809 384.397 224.372 383.958 221.531 384.022 L 219.662 382.061 C 213.056 362.458 225.673 348.14 243.432 342.189 z" fill="rgb(245,158,11)" transform="translate(0,0)"></path>
<metadata><recraft-signature>{"signed_by": "recraft", "signature_b64": "FaErWOBc4BOZRL/hFoTm6xsu2IFQW0eeh0Qs1T6QpvJZwHD8yDShdyU9szhRdNQQ9yyscEonlwYdRr2dHWKGBw==", "signing_algo": "Ed25519", "generation_timestamp": 1780403812, "identifier": "eeb47fd3-306a-46c2-915a-5b1611ea1264"}</recraft-signature></metadata></svg>