<svg xmlns="http://www.w3.org/2000/svg" height="1365" preserveAspectRatio="none" style="display: block;" version="1.1" viewBox="0 0 1536 2048" width="1024">
<path d="M 0 0 L 1536 0 L 1536 2048 L 0 2048 L 0 0 z" fill="rgb(244,231,206)" transform="translate(0,0)"></path>
<path d="M 474.969 280.26 C 476.325 280.04 477.613 279.865 478.985 279.78 C 499.218 278.525 548.652 288.722 562.986 302.155 C 570.505 309.202 611.82 402.575 619.944 419.734 L 798.516 798.172 C 814.205 831.318 830.78 866.754 846.97 899.574 C 860.011 925.415 872.537 951.513 884.542 977.851 C 888.981 987.342 894.461 997.735 898.509 1007.29 C 902.643 1017.27 904.907 1027.92 905.189 1038.72 C 906.395 1093.73 851.362 1111.06 811.09 1133.14 L 661.587 1214.37 L 574.307 1262.89 C 553.749 1274.26 526.468 1292.69 503.032 1293.01 C 486.666 1293.23 478.647 1289.57 463.15 1284.75 C 456.173 1282.58 448.153 1281.57 440.837 1279.16 C 406.913 1267.96 397.61 1246.15 384.283 1215.93 L 356.677 1153.74 C 353.668 1147.09 343.215 1122.53 339.537 1117.77 C 335.504 1120.25 334.454 1120.83 330.19 1119.96 C 322.109 1113.14 328.224 1106.53 331.612 1098.41 C 324.757 1088.18 308.209 1050.76 302.53 1038.42 L 246.273 915.054 L 141.08 686.589 L 106.488 610.895 C 91.1818 577.761 68.1444 543.163 83.3097 506.309 C 94.6067 478.856 127.842 467.767 152.43 453.949 C 191.061 432.247 229.861 410.846 268.825 389.749 C 280.052 383.704 291.871 378.367 303.089 372.318 L 416.232 310.911 C 432.544 302.118 459.041 286.849 474.969 280.26 z" fill="rgb(26,58,40)" transform="translate(0,0)"></path>
<path d="M 511.701 295.278 C 521.544 295.288 540.619 300.943 548.664 306.905 C 562.914 317.466 570.674 341.861 578.287 358.158 L 611.175 427.297 C 671.844 552.857 731.397 678.955 789.827 805.573 L 843.805 918.505 C 855.986 943.658 889.082 1006.47 892.87 1030.1 C 895.37 1045.7 892.008 1061.81 882.575 1074.6 C 877.818 1081.05 871.784 1086.37 865.028 1090.65 C 846.104 1102.64 824.954 1112.24 805.176 1122.85 L 701.611 1179.2 L 578.406 1246.81 C 558.172 1257.73 526.549 1277.64 505.232 1280.82 C 492.594 1281.65 470.211 1275.03 462.968 1264.42 C 439.682 1230.29 427.883 1186.8 409.06 1150.07 C 389.025 1110.98 371.882 1070.92 353.089 1031.37 C 337.25 998.042 321.101 965.097 305.364 931.909 C 261.962 840.738 219.53 749.107 178.077 657.033 C 168.01 634.686 156.805 612.272 146.851 589.691 C 140.687 575.707 129.262 555.553 125.309 541.159 C 121.972 529.008 127.113 510.25 134.375 500.296 C 139.058 493.878 144.865 490.329 151.873 486.246 C 178.127 470.95 205.388 457.063 232.263 442.869 L 328.038 391.301 L 442.164 329.886 C 456.453 322.21 497.245 297.662 511.701 295.278 z" fill="rgb(13,150,104)" transform="translate(0,0)"></path>
<path d="M 515.429 310.072 C 546.522 308.602 555.714 328.365 568.147 352.302 C 577.313 369.95 584.546 387.469 592.864 405.444 L 633.056 490.499 L 769.729 780.598 C 789.614 823.339 809.902 865.89 830.591 908.247 C 838.23 924.228 855.569 958.464 860.755 974.385 C 858.518 980.298 774.967 1022.77 763.375 1029.17 L 516.039 1165.52 C 510.34 1168.67 458.482 1196.02 457.397 1197.03 C 457.925 1200.88 464.095 1214.52 466.024 1219.11 C 468.821 1225.19 472.9 1232.48 468.954 1238.73 C 458.971 1239.34 452.887 1219.79 449.435 1212.26 C 444.882 1202.33 440.505 1192.22 435.951 1182.28 L 391.437 1086.82 L 204.114 689.447 C 185.975 650.463 167.311 611.055 150.441 571.38 C 142.162 551.91 127.677 535.472 141.533 512.789 C 144.502 507.928 148.3 503.529 153.037 500.26 C 212.77 466.098 274.19 435.026 334.964 402.855 L 451.005 340.891 C 467.799 332.047 498.266 314.492 515.429 310.072 z" fill="rgb(26,58,40)" transform="translate(0,0)"></path>
<path d="M 559.179 364.789 C 563.78 367.121 579.151 402.043 582.023 408.08 L 622.913 494.455 C 670.06 592.682 716.545 691.225 762.365 790.078 L 822.265 916.44 C 830.47 933.554 839.224 954.068 847.796 970.456 C 769.484 1014.04 690.816 1056.99 611.799 1099.28 C 559.02 1127.88 506.06 1158.49 452.768 1185.9 L 452.041 1185.67 C 447.31 1178.79 430.767 1142.47 426.093 1132.59 L 372.692 1020.17 L 294.032 852.417 C 251.817 763.474 207.408 671.534 167.751 581.629 C 188.841 571.788 220.912 552.317 241.785 540.328 C 274.497 521.657 307.347 503.228 340.333 485.044 C 412.936 444.341 487.172 406.952 559.179 364.789 z" fill="rgb(244,231,206)" transform="translate(0,0)"></path>
<path d="M 536.4 522.437 C 543.208 524.037 570.568 536.057 574.655 540.992 C 575.614 549.135 568.548 562.34 564.321 569.294 C 580.329 583.301 593.252 600.482 602.272 619.746 C 645.692 711.538 589.248 817.116 491.218 837.661 C 457.154 844.8 429.512 839.901 397.531 828.07 C 392.759 825.768 387.8 823.496 383.144 820.88 C 259.056 751.168 283.446 571.075 418.165 531.902 C 450.895 522.385 497.556 523.337 528.006 540.018 C 531.507 534.049 532.827 527.865 536.4 522.437 z" fill="rgb(26,58,40)" transform="translate(0,0)"></path>
<path d="M 450.283 565.5 C 473.344 563.094 488.908 566.197 510.129 574.868 C 506.456 580.893 498.34 599.664 495.042 606.716 C 479.862 639.207 465.505 672.077 451.987 705.295 C 433.584 692.239 403.381 669.039 384.528 658.495 C 376.594 669.794 365.049 687.399 359.904 700.015 C 359.308 701.475 358.206 704.29 359.026 705.791 C 363.056 713.17 445.972 772.025 455.768 778.254 C 458.72 780.131 461.915 781.518 465.199 782.699 C 474.915 768.662 481.872 747.851 489.519 732.39 C 505.735 699.603 519.109 663.421 536.331 631.382 C 540.409 622.643 544.234 613.788 547.804 604.828 C 644.135 727.674 489.01 859.389 385.468 773.787 C 360.17 753.054 344.375 722.936 341.705 690.335 C 339.11 660.644 349.698 630.079 368.794 607.393 C 389.33 583.179 418.641 568.11 450.283 565.5 z" fill="rgb(13,150,104)" transform="translate(0,0)"></path>
<path d="M 451.115 537.555 C 460.449 537.237 476.844 537.076 485.512 539.14 C 493.293 540.993 518.372 545.207 522.042 551.215 C 520.927 554.305 515.712 563.253 513.23 565.382 C 501.134 558.84 495.325 557.224 481.423 555.021 C 446.42 549.681 410.726 558.416 382.144 579.314 C 356.304 598.186 336.049 631.888 331.273 663.529 C 326.225 696.429 334.353 729.993 353.894 756.938 C 399.155 818.181 479.695 831.374 540.498 783.973 C 595.674 740.959 605.373 662.375 562.827 606.694 C 561.389 604.435 554.444 596.557 552.351 594.081 L 559.589 579.939 C 586.447 609.578 602.38 635.461 604.794 677.106 C 607.022 715.356 593.792 752.897 568.074 781.299 C 536.463 816.777 482.468 836.728 435.445 827.251 C 366.658 813.388 317.243 760.595 313.593 689.647 C 309.593 611.89 373.497 541.431 451.115 537.555 z" fill="rgb(244,231,206)" transform="translate(0,0)"></path>
<path d="M 540.35 537.218 C 546.145 538.812 558.095 543.839 560.207 549.675 C 557.595 557.155 554.514 563.339 551.19 570.483 C 528.925 618.036 507.21 666.029 484.076 713.157 C 475.901 729.811 468.802 750.724 459.672 766.315 C 438.319 750.723 417.052 735.014 395.873 719.187 C 387.813 713.346 379.886 707.326 372.095 701.131 C 377.15 692.37 382.876 683.409 388.226 674.774 C 399.541 683.341 445.562 719.797 455.633 720.919 C 464.144 708.784 471.392 689.728 477.497 675.715 C 486.111 655.969 494.88 636.291 503.803 616.682 C 510.471 602.242 517.264 587.861 524.183 573.539 C 528.829 563.988 538.251 546.744 540.35 537.218 z" fill="rgb(245,158,11)" transform="translate(0,0)"></path>
<path d="M 706.358 759.65 C 709.639 759.843 709.729 759.912 712.52 761.785 C 713.06 763.205 713.961 764.821 712.878 765.968 C 703.041 776.387 674.256 788.62 662.746 794.793 L 504.487 879.518 L 430.973 918.985 C 418.866 925.56 389.103 942.134 377.184 946.119 C 374.956 946.06 373.953 945.058 372.095 943.789 C 370.69 940.788 370.951 942.361 371.602 938.867 C 376.223 932.395 401.475 920.905 410.035 916.54 L 461.9 889.709 L 611.626 809.723 C 631.357 799.271 650.786 788.773 670.369 778.047 C 682.071 771.638 694.662 766.474 706.358 759.65 z" fill="rgb(26,58,40)" transform="translate(0,0)"></path>
<path d="M 444.918 917.943 C 452.967 917.489 453.68 918.802 460.267 923.519 C 468.714 939.171 460.531 968.924 459.44 986.609 C 457.302 1021.27 439.135 1008.82 417.228 1001.53 C 405.888 998.363 391.293 994.839 391.537 979.781 C 391.64 974.645 393.883 969.785 397.725 966.374 C 405.194 959.71 414.413 961.493 423.956 961.917 C 432.098 953.868 420.78 928.975 444.918 917.943 z" fill="rgb(26,58,40)" transform="translate(0,0)"></path>
<path d="M 447.526 927.809 C 451.578 928.305 450.293 927.605 453.198 930.014 C 457.115 938.398 450.488 994.003 444.91 998.464 C 436.823 997.249 422.489 991.796 413.201 989.398 C 407.295 987.611 402.729 986.703 401.383 980.267 C 402.4 976.128 404.893 974.405 408.033 971.376 C 416.012 973.78 425.483 975.12 435.017 977.977 C 437.058 963.746 436.72 945.902 441.556 932.265 C 442.751 928.895 444.631 928.85 447.526 927.809 z" fill="rgb(13,150,104)" transform="translate(0,0)"></path>
<path d="M 483.594 997.836 C 486.727 997.894 489.923 997.87 492.884 999.032 C 496.922 1000.62 500.173 1003.6 501.683 1007.71 C 505.474 1018.01 488.714 1070.17 483.053 1081.32 C 482.292 1082.82 480.396 1086.23 478.568 1086.56 C 472.536 1087.62 456.302 1078.13 450.548 1075.22 C 445.11 1074.22 441.862 1071.5 437.052 1070.21 C 422.338 1066.28 417.063 1051.39 427.319 1039.63 C 434.714 1031.15 450.862 1038.61 460.448 1038.79 C 469.657 1031.46 459.191 1004.97 483.594 997.836 z" fill="rgb(26,58,40)" transform="translate(0,0)"></path>
<path d="M 484.665 1006.82 C 489.255 1007.08 491.221 1007.36 493.949 1011.05 C 493.642 1018.35 478.185 1068.05 473.529 1073.56 C 469.137 1073.04 451.357 1066.16 445.612 1064.16 C 441.538 1062.47 430.981 1057.75 431.534 1052.2 C 433.23 1035.17 468.685 1056.68 471.123 1048.78 C 476.065 1032.77 471.492 1020.57 484.665 1006.82 z" fill="rgb(13,150,104)" transform="translate(0,0)"></path>
<path d="M 773.138 885.004 C 775.825 885.602 775.776 885.695 777.987 887.103 C 779.661 890.374 779.412 888.688 778.692 892.345 C 774.005 898.994 725.113 923.608 713.967 929.621 L 609.863 986.95 C 587.346 999.191 556.68 1014.58 535.616 1028.15 C 532.41 1027.59 532.036 1027.67 529.498 1025.81 C 527.901 1022.4 528.086 1024.12 528.899 1020.46 C 534.422 1012.75 569.779 995.802 579.856 990.429 C 601.843 978.636 623.715 966.631 645.47 954.416 C 673.346 938.775 701.343 923.351 729.458 908.144 C 742.142 901.261 760.337 890.761 773.138 885.004 z" fill="rgb(26,58,40)" transform="translate(0,0)"></path>
<path d="M 736.748 823.758 C 738.622 823.851 739.789 824.371 741.545 824.971 C 744.123 827.743 743.41 826.157 743.811 829.874 C 742.647 832.363 741.594 833.978 739.068 835.312 C 661.421 876.311 584.967 920.53 507.362 961.515 C 500.286 962.603 497.627 953.696 504.203 950.122 C 511.657 946.071 519.168 942.122 526.649 938.122 L 567.893 915.666 C 623.755 885.047 681.461 854.627 736.748 823.758 z" fill="rgb(26,58,40)" transform="translate(0,0)"></path>
<path d="M 513.587 322.131 C 537.542 320.097 546.469 333.732 555.653 353.708 C 545.862 358.529 534.881 365.711 524.949 371.043 L 421.396 427.615 C 373.898 453.074 326.676 479.047 279.741 505.529 C 247.779 523.218 213.753 541.584 182.616 560.359 L 163.051 571.529 C 150.216 548.49 141.658 532.86 157.596 509.626 C 178.718 501.575 199.732 488.014 219.813 477.58 C 317.888 426.618 414.843 371.619 513.587 322.131 z" fill="rgb(13,150,104)" transform="translate(0,0)"></path>
<path d="M 387.853 412.698 C 390.395 413.511 393.833 415.56 395.083 418.024 C 396 419.831 395.926 421.464 395.107 423.289 C 392.917 428.17 316.271 468.261 308.283 471.496 C 306.641 469.33 304.851 469.003 302.061 466.48 C 301.331 463.952 301.148 463.275 301.871 460.782 C 303.613 454.771 377.189 418.191 387.853 412.698 z" fill="rgb(26,58,40)" transform="translate(0,0)"></path>
<path d="M 719.701 1104.8 C 724.461 1105.07 727.45 1107.54 726.992 1112.48 C 723.292 1118.08 635.044 1163.94 623.377 1170.48 C 619.353 1169.52 616.63 1167.12 616.011 1162.93 C 618.39 1157.5 708.109 1111.81 719.701 1104.8 z" fill="rgb(26,58,40)" transform="translate(0,0)"></path>
<path d="M 475.572 291.427 C 480.793 290.891 486.81 290.937 492.121 290.854 C 472.939 298.587 454.401 309.576 436.172 319.372 C 412.716 331.977 389.45 345.599 365.977 358.046 L 223.373 434.645 C 197.175 448.558 170.187 462.293 144.188 476.637 C 130.799 484.367 117.993 500.66 114.379 515.651 C 107.337 544.865 126.977 575.085 138.853 600.912 L 186.037 703.293 C 238.255 817.949 291.817 931.989 346.712 1045.39 C 368.559 1091.32 389.297 1138.69 411.116 1184.76 C 425.345 1214.8 433.312 1241.45 451.274 1270.36 L 440.221 1265.76 C 409.385 1255.18 400.046 1219.13 387.848 1192.4 C 374.521 1163.19 362.471 1133.42 348.652 1104.4 C 286.13 973.247 225.001 841.432 165.278 708.978 L 121.602 613.062 C 109.78 587.417 86.3638 550.938 91.6263 522.1 C 93.3692 512.549 96.9367 502.367 104.739 496.136 C 119.708 484.182 137.519 475.379 154.378 466.198 L 201.27 440.449 L 386.605 340.119 L 441.089 310.73 C 452.767 304.455 464.469 298.711 475.572 291.427 z" fill="rgb(13,150,104)" transform="translate(0,0)"></path>
<path d="M 959.708 1185.56 C 994.211 1182.12 1041.77 1198.99 1069.46 1219.99 C 1074.77 1214.38 1088.26 1207.85 1094.9 1205.09 C 1158.01 1178.84 1225.4 1208.31 1255.65 1267.77 C 1256.8 1270.02 1269.37 1265.87 1271.5 1265.54 C 1366.16 1250.68 1438.9 1354.04 1402.65 1439.41 C 1384.63 1482.16 1367.25 1489.76 1330.48 1511.43 C 1306.21 1525.85 1281.79 1540 1257.22 1553.9 L 1051.46 1670.62 L 935.009 1736.63 C 916.601 1747.22 878.753 1770.2 860.299 1777.7 C 845.204 1772.13 813.204 1757.49 799.107 1749.55 C 808.118 1770.47 820.466 1793.23 830.988 1813.74 C 846.652 1844.09 861.837 1874.68 876.539 1905.51 C 878.819 1910.33 881.703 1914.68 879.983 1919.48 C 874.868 1924.99 870.058 1921.31 864.268 1917.83 C 792.634 1874.74 720.231 1833.18 647.728 1791.58 C 644.536 1789.75 642.926 1790.32 639.867 1791.27 C 639.226 1793.51 645.566 1815.92 646.569 1819.75 C 655.933 1825.29 667.11 1830.14 675.48 1835.47 C 677.824 1844.16 657.707 1891.62 651.415 1897.67 C 645.417 1898.66 628.646 1889.47 622.999 1886.18 C 619.025 1889.39 608.723 1896.79 606.583 1900.49 C 608.605 1906.31 612.94 1924.96 610.396 1930.11 C 603.706 1934.91 564.935 1941.32 553.362 1943.71 C 550.9 1939.43 545.053 1919.28 542.621 1912.23 C 508.226 1898.99 520.391 1916.45 495.949 1921.76 L 494.843 1921.99 C 484.133 1906.98 466.029 1886.11 458.219 1870.7 C 461.531 1865.58 473.035 1856.38 478.431 1850.86 C 474.494 1841.92 474.248 1834.93 473.987 1825.2 C 459.762 1816.46 441.943 1816.64 450.222 1793.55 C 451.787 1789.19 452.069 1786.12 454.584 1781.63 C 458.181 1774.89 468.326 1753.34 476.995 1754.13 C 479.974 1754.39 491.549 1759.02 496.634 1759.81 C 502.073 1758.22 506.601 1754.43 509.132 1749.36 C 511.796 1744.01 512.84 1736.4 510.859 1730.66 C 507.331 1727.57 504.711 1732.03 502.833 1731.34 C 493.621 1727.97 483.286 1722.18 474.342 1718.08 C 464.046 1724 455.358 1733.03 446.345 1737.78 C 444.402 1758.07 444.536 1785.96 444.084 1806.94 C 429.941 1809.87 343.16 1813.16 333.978 1807.82 C 330.421 1801.51 329.426 1763.65 329.075 1754.22 C 309.472 1745.85 295.439 1738.99 276.693 1729.43 C 266.454 1737.89 250.181 1749.65 238.427 1755.68 C 236.865 1756.49 234.354 1757.81 232.614 1757.15 C 227.395 1755.18 177.714 1674.24 174.659 1666.03 C 186.4 1655.78 208.547 1642.15 217.997 1633.22 C 219.295 1625.95 216.878 1614.03 216.962 1606.77 C 217.029 1601.04 219.045 1579.3 216.684 1575.67 C 210.71 1566.47 176.282 1552.48 170.593 1542.77 C 170.51 1540.64 172.576 1535.47 173.602 1533.78 C 180.25 1522.8 215.538 1451.46 220.784 1449.56 C 229.852 1450.17 265.841 1471.69 275.34 1477.35 C 284.48 1469.57 297.342 1465.76 306.102 1457.77 C 316.13 1448.61 302.926 1406.3 311.445 1398.7 C 321.273 1397.08 414.992 1393.44 418.302 1395.4 C 422.31 1403.01 421.504 1439.95 422.477 1451.56 C 427.02 1453.72 456.249 1469.93 458.288 1468.93 C 476.215 1460.19 495.437 1449.74 513.368 1440.7 C 521.273 1447.54 563.327 1513.94 569.024 1525.13 C 557.66 1537.79 540.852 1545.51 528.819 1558.69 C 527.763 1564.29 530.332 1575.64 530.431 1581.81 C 530.163 1590.43 529.481 1599.11 530.453 1607.55 C 531.792 1619.18 583.96 1638.56 580.571 1645.96 C 571.058 1666.72 560.384 1686.21 551.09 1706.61 C 562.581 1702.08 574.519 1692.96 585.735 1687.55 C 616.835 1672.56 648.405 1650.26 679.417 1636.14 L 679.055 1635.33 C 660.336 1593.35 659.112 1545.64 675.655 1502.75 C 695.697 1450.63 728.374 1422.18 778.284 1399.94 C 777.553 1396.09 777.009 1392.52 776.74 1388.6 C 769.123 1277.48 852.133 1192.78 959.708 1185.56 z" fill="rgb(26,58,40)" transform="translate(0,0)"></path>
<path d="M 962.727 1197.46 C 997.62 1197.61 1030.62 1205.01 1058.02 1227.9 C 1061.08 1230.46 1064.14 1232.96 1067.25 1235.45 C 1074.12 1236.02 1083.85 1224.6 1091.47 1220.66 C 1117.36 1207.27 1139.58 1204.02 1167 1211.19 C 1204.28 1220.95 1225.88 1239.83 1244.28 1273.59 C 1245.04 1274.98 1249.7 1281.86 1250.2 1281.93 C 1258.24 1283.1 1272.38 1277.41 1280.69 1277.01 C 1293.62 1276.38 1303.18 1277.04 1314.92 1280 C 1345.14 1287.61 1368.3 1308.31 1383.86 1334.62 C 1398.22 1358.93 1403.49 1391.37 1395.97 1418.73 C 1391.06 1436.6 1382.09 1457.17 1368.58 1470.34 C 1355.01 1483.57 1334.78 1494.29 1318.21 1504.07 C 1296.68 1516.92 1274.96 1529.44 1253.04 1541.61 L 1150.1 1600.91 C 1115.55 1620.41 1080.76 1638.73 1046.21 1658.94 C 1000.71 1683.65 956.71 1710.2 911.525 1735.43 C 894.564 1744.9 875.604 1755.9 858.284 1764.41 C 816.384 1743.6 773.075 1726.61 730.632 1708.07 C 719.774 1684.25 704.272 1663.92 692.913 1640.27 C 656.312 1564.08 680.7 1472.04 752.028 1426.16 C 763.895 1418.53 778.556 1412.92 791.501 1407.13 C 790.151 1398.62 788.752 1390.32 788.384 1381.68 C 784.068 1280.47 863.222 1201.97 962.727 1197.46 z" fill="rgb(245,158,11)" transform="translate(0,0)"></path>
<path d="M 958.703 1216.45 C 989.374 1210.35 1048.55 1234.09 1070.09 1256.37 C 1109.56 1224.85 1151.15 1220.01 1195.12 1248.78 C 1217.54 1263.46 1232.63 1290.04 1237.52 1316.15 C 1261.92 1301.34 1280.86 1298.3 1308.3 1305.97 C 1352.69 1318.38 1378.98 1365.26 1366.46 1409.36 C 1363.9 1418.39 1356.16 1431.82 1348.53 1437.34 C 1330.17 1450.98 1308.24 1460.31 1288.34 1471.55 C 1264.51 1485.22 1240.73 1498.31 1216.74 1511.55 L 1117.02 1567.12 C 1091 1581.96 1060.12 1600.4 1033.49 1613.68 C 1026.68 1618.14 1018.22 1622.14 1011.14 1626.5 C 957.728 1659.38 897.016 1686.18 845.287 1721.24 C 837.342 1719.79 831.239 1717.54 823.785 1714.72 C 768.937 1694.05 724.131 1675.49 703.514 1615.28 C 682.48 1553.85 702.098 1487.93 753.259 1447.95 C 770.785 1434.25 792.382 1428.02 813.02 1421.26 C 809.74 1411.78 808.818 1402.67 807.778 1392.83 C 799.597 1315.44 853.043 1237.61 929.512 1220.39 C 939.19 1218.21 948.576 1217.29 958.703 1216.45 z" fill="rgb(26,58,40)" transform="translate(0,0)"></path>
<path d="M 949.196 1228.68 C 952.334 1229.21 966.424 1227.79 972.018 1228.01 C 995.266 1228.9 1014.57 1237.38 1035.78 1246.32 C 1046.82 1250.98 1060.41 1267.64 1068.47 1269.82 C 1074.63 1269.06 1086.42 1259.15 1090.88 1256.14 C 1136.47 1225.41 1194.98 1247.96 1218.45 1294.98 C 1222.53 1305.03 1224.18 1319.79 1230.85 1328.14 C 1235.29 1333.68 1255.11 1320.19 1261.56 1317.94 C 1268.93 1315.34 1276.72 1314.09 1284.54 1314.27 C 1306.8 1314.84 1324.64 1325.3 1339.55 1341.13 C 1331.87 1346.66 1307.66 1359.26 1298.38 1364.57 C 1261.64 1385.61 1223.83 1405.24 1187.55 1427.18 C 1173.83 1408.72 1152.67 1403.31 1132.19 1414.03 C 1129.88 1409.1 1125.63 1403.63 1122.37 1399.11 C 1146.91 1325.32 1054.42 1305.39 1035.28 1360.86 C 1031.24 1372.87 1032.14 1385.99 1037.76 1397.34 C 1043.84 1409.71 1052.83 1415.98 1065.47 1420.38 C 1057.82 1466.34 1057.32 1439.08 1027.41 1462.19 C 1021.2 1466.99 1018.48 1479.99 1018.83 1488.23 C 1016.88 1505.95 1033.79 1522.89 1050.13 1526.16 C 1056.72 1539.86 1059.07 1554.54 1055.35 1569.45 C 1054.12 1574.41 1048.58 1588.29 1044.8 1590.97 C 1020.14 1608.45 988.324 1624.11 962.205 1638.57 C 922.073 1660.85 882.256 1683.7 842.767 1707.1 C 781.061 1687.55 726.377 1665.69 710.769 1595.82 C 697.478 1536.31 723.627 1481.47 773.697 1448.77 C 788.583 1439.05 811.033 1437.83 826.223 1429.34 C 828.37 1424.79 823.109 1406.26 822.408 1402.9 C 814.971 1367.26 821.82 1330.78 841.111 1299.17 C 868.211 1254.78 900.297 1240.38 949.196 1228.68 z" fill="rgb(13,150,104)" transform="translate(0,0)"></path>
<path d="M 1346.03 1351.05 C 1355.75 1360.52 1359.48 1389.62 1354.97 1402 C 1352.36 1409.16 1347.37 1422.99 1340.91 1427.57 C 1320.4 1442.14 1296.56 1451.48 1274.9 1464.16 C 1204.26 1503.99 1133.86 1542.89 1063.66 1583.52 C 1066.2 1576.88 1067.26 1573.92 1068.69 1567.02 C 1069.98 1549.53 1070.47 1542.65 1064.24 1526.28 C 1063.11 1523.29 1079.12 1518.26 1082.39 1514.24 C 1091.81 1502.65 1092.46 1491.3 1092.95 1476.99 C 1096.21 1473.5 1111.36 1467.61 1118.15 1462.93 L 1119.29 1462.14 C 1127.53 1476.08 1140.61 1486.66 1157.2 1484.92 C 1183.87 1482.12 1193.34 1463.08 1191.57 1439.6 C 1205.26 1429.48 1241.93 1409.76 1258.58 1400.72 C 1288.03 1384.7 1317.19 1368.14 1346.03 1351.05 z" fill="rgb(13,150,104)" transform="translate(0,0)"></path>
<path d="M 1075.59 1341.61 C 1094.63 1339.53 1111.71 1353.38 1113.62 1372.43 C 1115.53 1391.49 1101.54 1408.45 1082.47 1410.19 C 1063.63 1411.92 1046.92 1398.14 1045.03 1379.31 C 1043.14 1360.48 1056.78 1343.66 1075.59 1341.61 z" fill="rgb(245,158,11)" transform="translate(0,0)"></path>
<path d="M 1147.11 1421.28 C 1160.7 1417.6 1174.7 1425.63 1178.4 1439.21 C 1182.1 1452.79 1174.1 1466.81 1160.52 1470.53 C 1148.29 1473.89 1135.45 1467.75 1130.37 1456.13 C 1127.4 1449.32 1127.55 1441.56 1130.76 1434.87 C 1133.97 1428.18 1139.94 1423.21 1147.11 1421.28 z" fill="rgb(245,158,11)" transform="translate(0,0)"></path>
<path d="M 1049.99 1462.76 C 1056.81 1461.26 1063.95 1462.69 1069.66 1466.71 C 1075.37 1470.73 1079.13 1476.96 1080.02 1483.88 C 1080.73 1489.43 1079.56 1495.05 1076.69 1499.84 C 1073.33 1505.45 1067.89 1509.52 1061.55 1511.15 C 1054.77 1512.9 1047.58 1511.71 1041.72 1507.88 C 1035.87 1504.05 1031.9 1497.93 1030.79 1491.02 C 1028.68 1478 1037.11 1465.6 1049.99 1462.76 z" fill="rgb(245,158,11)" transform="translate(0,0)"></path>
<path d="M 1114.03 1408.96 C 1118.01 1411.69 1120.99 1416.54 1123.7 1420.52 C 1116.51 1434.67 1116.1 1436.98 1115.07 1452.64 C 1104.45 1456.13 1098.06 1461.15 1088.1 1465.42 C 1086.73 1466.01 1086.58 1465.38 1084.91 1464.3 C 1079.6 1459.48 1077.34 1457.64 1071.22 1454.06 C 1073.96 1443.89 1075.68 1433.47 1076.37 1422.95 C 1092.25 1423.06 1101.64 1418.68 1114.03 1408.96 z" fill="rgb(13,150,104)" transform="translate(0,0)"></path>
<path d="M 374.464 1407.52 C 385.614 1407.02 397.711 1407.12 408.94 1407.01 C 409.252 1421.46 409.07 1446.16 412.095 1459.36 C 424.896 1466.64 446.476 1478.03 459.679 1483.93 C 463.058 1481.86 466.632 1479.41 469.999 1477.23 C 482.675 1469.02 497.966 1463.06 510.182 1454.37 C 525.217 1478.35 540.376 1500.41 555.563 1523.87 C 541.924 1530.85 527.084 1544.11 515.103 1554.23 C 518.671 1578.45 518.569 1592.98 518.845 1617.77 C 534.644 1628.12 550.88 1637.39 566.828 1648.13 C 557.694 1663.86 546.854 1688.94 537.945 1706.28 C 525.911 1710.37 517.337 1712.42 506.093 1718.97 C 494.473 1713.89 483.019 1708.68 471.317 1703.76 C 466.019 1708.5 435.41 1729.67 434.903 1733.68 C 432.339 1754.05 433.919 1776.29 432.679 1797.17 C 409.099 1799.07 384.076 1797.34 360.042 1798.37 C 355.345 1799.04 346.838 1799.59 342.946 1796.67 C 342 1781.67 339.8 1761.23 340.145 1746.76 C 325.243 1739.82 310.296 1732.98 295.306 1726.24 C 288.243 1723 282.647 1719.59 275.257 1716.78 C 262.533 1724.3 247.688 1735.31 235.389 1743.96 C 222.117 1719.25 200.1 1690.51 189.338 1668.32 C 197.11 1661.62 221.821 1645.8 231.383 1639.27 C 229.521 1612.58 228.179 1598.14 231.187 1571.31 C 223.135 1564.18 189.935 1544.46 186.091 1538.79 C 188.031 1530.58 219.02 1472.04 225.137 1461.76 C 241.142 1471.55 257.276 1481.13 273.535 1490.5 C 283.179 1486.66 309.962 1470.88 320.052 1465.25 C 321.011 1448.84 321.593 1433.27 320.591 1416.85 C 320.456 1414.64 321.581 1412.55 322.831 1410.78 C 328.768 1406.73 363.89 1407.75 374.464 1407.52 z" fill="rgb(245,158,11)" transform="translate(0,0)"></path>
<path d="M 413.369 1550.61 C 418.619 1550.78 435.905 1567.26 439.616 1571.84 C 433.799 1577.94 416.621 1593.94 409.763 1600.12 C 398.001 1610.73 371.128 1640.14 359.353 1646.35 C 354.562 1642.92 344.603 1633.57 339.568 1629.14 C 330.311 1621.99 321.178 1615.62 314.141 1606.22 C 320.409 1597.58 325.235 1591.85 333.31 1584.91 C 340.603 1587.16 353.226 1598.26 359.529 1603.35 C 369.224 1592.1 402.188 1559.31 413.369 1550.61 z" fill="rgb(26,58,40)" transform="translate(0,0)"></path>
<path d="M 414.228 1563.85 C 416.382 1565.79 419.334 1569.03 421.441 1571.19 C 404.979 1588.59 377.244 1617.54 359.434 1631.69 C 351.678 1624.35 345.031 1618.58 336.522 1612.21 C 335.781 1611.4 329.25 1606.46 327.967 1605.46 L 335.376 1599.23 C 342.389 1604.52 354.201 1612.47 361.913 1616.45 C 378.461 1598.52 398.639 1581.68 414.228 1563.85 z" fill="rgb(13,150,104)" transform="translate(0,0)"></path>
<path d="M 471.287 1582.01 C 470.683 1580.41 465.943 1568.21 465.964 1568.12 C 468.383 1557.81 448.306 1546.93 452.084 1538.62 C 460.601 1541.23 473.154 1573.04 475.239 1581.99 C 476.152 1586.74 477.422 1590.26 475.717 1594.62 L 474.107 1595.67 C 470.192 1592.79 470.655 1586.49 471.287 1582.01 z" fill="rgb(26,58,40)" transform="translate(0,0)"></path>
<path d="M 474.109 1597.44 L 476.324 1599.08 C 479.186 1609.16 475.533 1624.78 471.215 1634.1 L 468.901 1632.79 C 468.015 1629.79 472.335 1599.91 474.109 1597.44 z" fill="rgb(26,58,40)" transform="translate(0,0)"></path>
<path d="M 410.16 1691.1 C 413.512 1691.79 412.299 1690.99 414.459 1692.89 L 413.197 1694.69 C 406.738 1698.2 396.823 1700.54 389.557 1701.71 L 388.284 1701.56 L 387.471 1700.22 L 388.435 1698 C 396.405 1693.87 403.892 1696 410.16 1691.1 z" fill="rgb(26,58,40)" transform="translate(0,0)"></path>
<path d="M 316.902 1684.96 C 321.869 1684.51 329.314 1687.47 333.502 1690.19 C 336.812 1692.35 336.327 1693.04 336.805 1696.21 C 330.734 1696.31 318.704 1691.2 316.902 1684.96 z" fill="rgb(26,58,40)" transform="translate(0,0)"></path>
<path d="M 386.931 1500.13 C 394.467 1500.42 405.814 1501.47 409.765 1508.51 C 402.985 1509.91 390.136 1506.92 386.931 1500.13 z" fill="rgb(26,58,40)" transform="translate(0,0)"></path>
<path d="M 459.391 1649.53 C 462.355 1650.73 461.181 1649.79 462.986 1652.5 C 462.754 1657.84 457.153 1662.56 453.432 1666.38 L 450.712 1665.23 L 450.173 1663.12 C 451.924 1658.64 456.334 1653.49 459.391 1649.53 z" fill="rgb(26,58,40)" transform="translate(0,0)"></path>
<path d="M 447.405 1664.57 C 449.993 1667.69 449.619 1666.31 449.488 1669.79 C 447.372 1674.2 441.623 1678.84 437.831 1682.31 C 436.285 1680.68 435.988 1680.75 435.733 1678.6 C 437.779 1673.82 443.603 1668.57 447.405 1664.57 z" fill="rgb(26,58,40)" transform="translate(0,0)"></path>
<path d="M 365.712 1697.74 C 371.769 1700.18 375.847 1697.53 383.104 1698.83 L 383.943 1700.38 L 382.734 1702.77 C 377.851 1703.94 366.607 1706.08 364.212 1700.61 L 365.712 1697.74 z" fill="rgb(26,58,40)" transform="translate(0,0)"></path>
<path d="M 339.656 1695.09 C 344.597 1694.64 357.264 1696.41 361.585 1698.89 L 361.579 1700.95 C 355.467 1702.71 342.536 1701.58 339.656 1695.09 z" fill="rgb(26,58,40)" transform="translate(0,0)"></path>
<path d="M 433.818 1518.93 C 438.607 1521.49 448.269 1529.31 448.249 1534.95 C 442.516 1534.47 435.752 1527.65 432.935 1522.74 C 432.084 1521.26 433.039 1520.57 433.818 1518.93 z" fill="rgb(26,58,40)" transform="translate(0,0)"></path>
<path d="M 301.33 1669.45 C 304.855 1670.55 311.233 1676.76 313.896 1679.67 C 316.317 1682.32 315.613 1683.17 315.289 1686.3 C 309.848 1682.42 303.06 1678.43 300.2 1672.5 L 301.33 1669.45 z" fill="rgb(26,58,40)" transform="translate(0,0)"></path>
<path d="M 332.534 1507.97 C 334.222 1509.77 333.642 1508.73 334.199 1511.25 C 331.36 1514.83 322.208 1518.65 317.81 1520.78 C 316.336 1520.13 317.031 1520.56 316.1 1518.46 C 317.812 1514.59 328.263 1510.08 332.534 1507.97 z" fill="rgb(26,58,40)" transform="translate(0,0)"></path>
<path d="M 286.891 1551.26 L 289 1552.02 C 289.88 1556.73 284.661 1565.82 282.437 1570.42 C 279.634 1568.3 280.541 1569.61 279.394 1566.51 C 280.086 1560.04 283.061 1556.26 286.891 1551.26 z" fill="rgb(26,58,40)" transform="translate(0,0)"></path>
<path d="M 352.891 1501.23 C 355.437 1500.88 355.796 1500.56 358.079 1501.73 L 357.639 1503.43 C 352.487 1506.71 349.209 1507.08 343.195 1508.39 C 340.061 1508.48 341.311 1508.98 339.138 1507.45 L 339.662 1505.82 C 344.534 1502.65 347.215 1502.4 352.891 1501.23 z" fill="rgb(26,58,40)" transform="translate(0,0)"></path>
<path d="M 363.479 1499.35 C 368.881 1498.56 376.853 1498.08 382.06 1499.73 L 382.826 1501.28 L 380.755 1503.57 C 375.176 1504.24 365.798 1504.96 363.479 1499.35 z" fill="rgb(26,58,40)" transform="translate(0,0)"></path>
<path d="M 410.299 1507.97 C 415.896 1507.72 426.103 1511.48 428.434 1516.88 C 426.757 1517.61 425.855 1517.56 424.031 1517.74 C 418.621 1515.92 413.37 1512.97 410.299 1507.97 z" fill="rgb(26,58,40)" transform="translate(0,0)"></path>
<path d="M 311.136 1520.77 C 313.858 1522.77 312.98 1521.53 314.177 1524.36 C 312.379 1528.29 308.16 1531.02 304.641 1533.86 C 303.381 1533.64 302.895 1533.25 301.692 1532.66 L 301.716 1530.51 C 304.096 1526.39 307.526 1523.87 311.136 1520.77 z" fill="rgb(26,58,40)" transform="translate(0,0)"></path>
<path d="M 429.994 1681.84 C 430.511 1681.97 431.989 1682.81 432.534 1683.1 L 432.321 1684.74 C 429.068 1688.13 423.662 1690.69 419.408 1693.01 L 417.598 1692.73 L 416.6 1691.35 C 418.425 1686.68 425.225 1684.26 429.994 1681.84 z" fill="rgb(26,58,40)" transform="translate(0,0)"></path>
<path d="M 271.443 1605.25 C 273.586 1605.76 273.45 1605.71 275.234 1607.01 C 276.915 1611.94 277.604 1618.55 276.148 1623.58 L 273.41 1622.24 C 270.612 1616.7 271.191 1611.32 271.443 1605.25 z" fill="rgb(26,58,40)" transform="translate(0,0)"></path>
<path d="M 298.776 1533.57 C 301.058 1535.22 300.362 1534.14 300.918 1536.92 C 299.409 1541.58 295.151 1546.22 291.989 1550.16 L 290.715 1548.57 C 290.081 1542.73 294.847 1538.53 298.776 1533.57 z" fill="rgb(26,58,40)" transform="translate(0,0)"></path>
<path d="M 274.406 1585.39 C 276.345 1586.28 275.474 1585.69 276.768 1587.52 C 277.314 1592.78 277.125 1598.97 274.109 1603.52 L 271.744 1601.39 C 270.699 1595.19 271.88 1590.98 274.406 1585.39 z" fill="rgb(26,58,40)" transform="translate(0,0)"></path>
<path d="M 277.14 1625.5 C 281.142 1628.6 283.729 1637.39 281.013 1641.91 C 276.52 1637.47 271.813 1630.65 277.14 1625.5 z" fill="rgb(26,58,40)" transform="translate(0,0)"></path>
<path d="M 467.232 1633.47 C 473.858 1637.81 469.054 1642.99 465.601 1647.66 L 462.984 1646.4 L 462.213 1644.1 C 462.718 1639.81 464.887 1637.18 467.232 1633.47 z" fill="rgb(26,58,40)" transform="translate(0,0)"></path>
<path d="M 290.77 1655.67 C 295.877 1659.43 300.157 1663.59 297.358 1669.67 C 291.814 1667.3 287.459 1661.59 290.77 1655.67 z" fill="rgb(26,58,40)" transform="translate(0,0)"></path>
<path d="M 282.969 1642.74 C 286.157 1645.08 289.456 1651.35 288.952 1655.38 L 287.699 1655.4 C 282.447 1653.2 281.544 1647.68 282.969 1642.74 z" fill="rgb(26,58,40)" transform="translate(0,0)"></path>
<path d="M 276.758 1572.3 L 279.428 1573.86 C 280.282 1577.41 278.492 1580.97 277.235 1584.63 C 275.68 1584 275.795 1583.86 274.443 1582.74 C 273.819 1579.15 275.482 1575.88 276.758 1572.3 z" fill="rgb(26,58,40)" transform="translate(0,0)"></path>
<path d="M 553.863 1719.29 C 557.07 1721.2 565.111 1743.97 567.072 1749.04 C 581.937 1750.72 584.31 1751.34 597.636 1758.09 C 605.364 1753.35 613.082 1746.38 621.427 1740.94 C 628.612 1749.22 638.431 1760.12 647.076 1766.65 C 642.21 1773.15 631.405 1783.31 625.426 1789.18 C 630.291 1804.73 632.245 1811.29 633.928 1827.41 C 640.245 1831.77 655.489 1838.88 663.035 1842.48 C 662.518 1843.88 661.993 1845.27 661.458 1846.65 C 658.61 1854.01 649.511 1879.97 643.057 1882.81 C 638.916 1881.61 626.964 1873.77 620.531 1870.92 L 619.176 1870.33 C 612.051 1877.86 605.879 1883.5 598.112 1889.88 C 592.283 1894.67 597.566 1912.21 597.935 1922.52 C 592.727 1924.23 583.966 1925.32 578.306 1926.2 L 562.015 1930.4 C 558.889 1919.24 556.202 1910.93 552.193 1900.05 C 538.342 1897.31 532.794 1895.57 520.083 1889.48 C 514.923 1896.06 506.183 1902.2 499.467 1907.78 C 490.83 1895.46 481.55 1885.49 472.987 1872.03 C 479.567 1866.03 486.672 1859.92 491.691 1852.62 C 486.916 1839.8 486.557 1832.71 487.575 1819.26 C 478.349 1813.94 470.587 1808.71 460.815 1804.23 C 463.208 1792.66 469.554 1775.5 477.766 1766.84 C 487.633 1770.32 492.477 1771.57 502.522 1773.35 C 509.247 1767.15 514.457 1762.09 522.503 1757.65 C 524.513 1746.2 524.092 1737.23 524.052 1725.61 C 534.037 1723.73 543.976 1721.63 553.863 1719.29 z" fill="rgb(245,158,11)" transform="translate(0,0)"></path>
<path d="M 558.083 1773.49 C 613.339 1775.93 623.59 1845.1 575.808 1866.41 C 570.959 1868.58 564.729 1869.26 559.485 1870.04 C 534.854 1870.97 515.494 1855.29 512.947 1830.43 C 511.505 1815.76 515.975 1801.12 525.366 1789.75 C 534.538 1778.87 544.222 1774.56 558.083 1773.49 z" fill="rgb(26,58,40)" transform="translate(0,0)"></path>
<path d="M 559.484 1785.32 C 567.294 1786.82 572.776 1787.83 579.38 1792.56 C 586.651 1797.67 591.568 1805.48 593.028 1814.25 C 594.751 1824.3 592.381 1834.63 586.446 1842.93 C 580.332 1851.43 571.547 1856.44 561.246 1858.03 C 544.276 1858.33 529.667 1850.56 526.281 1832.69 C 524.165 1821.8 526.475 1810.51 532.701 1801.33 C 539.965 1790.77 547.463 1787.43 559.484 1785.32 z" fill="rgb(245,158,11)" transform="translate(0,0)"></path>
<path d="M 559.897 1805.94 C 577.16 1811.7 581.699 1828.54 563.288 1836.5 C 560.259 1836.3 557.332 1836 554.518 1834.75 C 550.879 1833.1 548.056 1830.06 546.683 1826.31 C 545.385 1822.71 545.627 1818.74 547.352 1815.32 C 550.339 1809.27 554.078 1807.86 559.897 1805.94 z" fill="rgb(26,58,40)" transform="translate(0,0)"></path>
<path d="M 681.965 1647.8 C 688.125 1651.31 717.309 1714.87 724.231 1718.88 C 737.336 1726.47 767.975 1737.26 783.657 1744.04 C 795.216 1771.54 810.086 1798.95 823.826 1825.45 C 837.058 1850.98 849.028 1877.2 862.225 1902.6 C 854.639 1898.42 845.051 1891.95 837.387 1887.3 C 816.773 1874.66 796.01 1862.26 775.103 1850.11 C 733.91 1827.58 694.115 1802.9 652.726 1780.43 C 657.569 1774.9 658.708 1773.28 662.27 1766.88 C 652.151 1755.23 632.495 1733.59 620.06 1725.47 C 611.866 1731.87 604.733 1737 596.608 1743.78 C 589.737 1741.48 583.305 1739.23 576.228 1737.56 C 572.963 1730.05 569.561 1720.17 566.688 1712.35 C 604.199 1689.72 643.733 1670.24 681.965 1647.8 z" fill="rgb(245,158,11)" transform="translate(0,0)"></path>
<path d="M 1160.12 113.5 C 1165.59 114.693 1179.24 119.836 1183.74 123.011 C 1184.36 131.714 1150.72 229.148 1145.63 244.054 C 1159.35 251.282 1154.09 257.69 1148.91 269.243 C 1190.12 295.379 1212.14 313.272 1224.86 362.628 C 1237.2 367.083 1255.38 383.722 1265.67 392.551 C 1364.65 477.478 1424.89 609.373 1418.12 740.258 C 1417.11 761.139 1414.91 781.945 1411.53 802.574 C 1410.32 809.979 1402.36 838.734 1403.73 842.246 C 1410.31 855.245 1420.1 867.026 1426.44 880.425 C 1462.53 956.677 1450.44 1043.07 1394.34 1106.97 C 1360.71 1145.56 1313.07 1169.13 1261.99 1172.45 C 1206.33 1175.71 1154.47 1155.08 1113.79 1117.91 C 984.747 999.861 1061.7 770.937 1240.24 764.821 C 1304.62 762.616 1346.67 788.569 1392.66 830.061 C 1397.31 813.427 1403.63 782.539 1404.26 765.752 C 1405.24 742.88 1407.7 724.47 1406.1 700.452 C 1399.28 598.089 1360.4 509.538 1291.43 434.42 C 1278.45 420.071 1263.76 407.405 1249.47 394.42 C 1243.4 388.903 1232.42 383.319 1228.36 376.757 L 1227.01 376.65 C 1226.26 378.423 1216.82 501.351 1215.9 513.659 C 1215.71 516.205 1215.88 523.386 1216.44 526.369 C 1219.4 542.148 1223.08 558.646 1227.63 573.979 C 1230.41 583.349 1236.14 599.205 1237.13 607.83 C 1237.8 613.679 1230.45 659.475 1228.71 661.795 C 1226.49 662.523 1221.42 660.591 1219.22 659.728 C 1169.55 640.195 1119.63 621.127 1069.3 603.369 C 1030.74 620.858 998.841 611.501 978.819 573.078 C 925.96 551.298 869.361 533.911 816.09 512.786 C 813.181 511.632 802.09 507.477 804.782 502.551 C 814.271 485.189 824.785 466.941 835.208 450.201 C 840.835 441.164 868.849 432.771 876.992 423.931 C 912.227 392.304 934.303 349.793 958.299 310.054 C 924.427 312.29 910.167 317.882 877.609 328.045 C 882.858 333.209 884.169 335.994 887.645 342.382 C 881.951 345.814 880.556 346.635 876.028 351.396 C 871.303 345.382 866.622 340.204 861.892 333.876 C 832.797 344.836 823.275 351.53 798.078 369.749 C 795.33 365.412 793.643 363.599 790.248 359.787 C 803.681 347.01 832.24 333.831 848.951 325.76 C 853.428 323.598 864.597 316.054 868.485 315.4 C 869.717 316.224 872.315 318.229 873.727 317.65 C 902.667 305.761 934.557 298.895 966.06 297.384 C 995.729 248.004 1044.87 231.898 1098.68 252.69 C 1103.25 237.624 1101.43 230.34 1119.56 234.125 C 1121.96 223.676 1155.65 120.604 1160.12 113.5 z" fill="rgb(26,58,40)" transform="translate(0,0)"></path>
<path d="M 1230.77 780.679 C 1334.85 771.075 1426.92 847.858 1436.16 951.963 C 1445.4 1056.07 1368.3 1147.87 1264.16 1156.75 C 1160.54 1165.59 1069.28 1088.95 1060.08 985.351 C 1050.89 881.756 1127.21 790.236 1230.77 780.679 z" fill="rgb(13,150,104)" transform="translate(0,0)"></path>
<path d="M 1336.47 862.996 C 1340.02 862.774 1343 862.693 1345.75 865.31 C 1358.36 877.312 1369.73 890.989 1382.08 903.377 C 1383.63 904.931 1384.36 907.026 1384.58 909.08 C 1383.55 913.526 1380.27 918.702 1377.23 922.09 C 1343.32 959.819 1306.8 996.585 1271.15 1032.45 C 1201.41 1102.59 1225.53 1106.88 1158.31 1041.43 C 1149.21 1033.4 1114.45 998.802 1108.22 989.791 C 1113.58 982.809 1122.5 976.083 1129.18 969.45 C 1133.66 965.651 1149.9 942.131 1156.04 943.324 C 1172.43 946.506 1197.51 981.566 1209.92 991.835 C 1222.13 982.633 1245.01 956.724 1256.59 944.978 C 1282.97 918.208 1309.16 888.665 1336.47 862.996 z" fill="rgb(26,58,40)" transform="translate(0,0)"></path>
<path d="M 1338.22 877.707 C 1344.13 879.135 1365.59 905.189 1371.81 911.636 C 1359.26 922.161 1337.11 947.574 1324.4 960.122 C 1286.14 997.895 1249.16 1039.6 1210.8 1077 C 1194.12 1060.63 1177.92 1043.12 1160.96 1027.35 C 1148.32 1015.13 1138.1 1003.06 1124.28 990.843 C 1131.86 983.625 1151.29 963.428 1157.15 955.768 C 1163.86 963.776 1202.35 1003.74 1210.26 1005.25 C 1225.22 999.388 1315.62 897.739 1338.22 877.707 z" fill="rgb(244,231,206)" transform="translate(0,0)"></path>
<path d="M 1052.21 255.467 C 1104.34 254.061 1146.21 291.936 1162.29 339.86 C 1179.14 390.096 1164.51 441.301 1163.59 492.777 C 1163.49 498.336 1164.25 504.215 1163.45 509.601 C 1161.97 509.652 1070.67 476.351 1061.31 472.996 C 1052.21 468.868 1039.93 465.307 1030.17 461.928 C 987.66 447.211 945.042 429.882 901.953 417.081 C 912.088 404.096 923.158 390.588 932.391 377.009 C 964.51 329.773 983.972 256.975 1052.21 255.467 z" fill="rgb(13,150,104)" transform="translate(0,0)"></path>
<path d="M 1135.37 276.868 C 1149.87 278.934 1180.7 306.693 1191.05 318.185 C 1226.82 357.913 1210.75 411.619 1208.15 459.586 C 1207.05 479.731 1205.89 502.699 1204.07 523.011 L 1203.75 525.202 C 1198.77 526.334 1181.02 517.708 1174.88 515.378 C 1175.28 436.214 1205.03 336.282 1135.37 276.868 z" fill="rgb(245,158,11)" transform="translate(0,0)"></path>
<path d="M 867.07 443.895 C 878.817 447.208 893.36 452.957 905.054 457.203 L 985.647 487.04 L 1112.85 534.411 C 1130.22 540.931 1147.54 546.104 1164.62 553.238 C 1165.9 562.156 1167.77 567.251 1170.98 575.637 C 1166.72 573.58 1162.2 571.947 1157.78 570.239 C 1087.47 545.712 1015.7 520.411 945.924 494.622 C 924.901 486.804 903.948 478.797 883.07 470.601 C 872.139 466.361 855.836 459.438 844.873 456.717 C 851.497 453.32 860.498 447.734 867.07 443.895 z" fill="rgb(13,150,104)" transform="translate(0,0)"></path>
<path d="M 838.134 467.468 C 850.593 469.357 870.604 479.167 883.035 483.489 C 915.845 494.898 951.009 511.48 984.163 520.763 C 975.809 533.439 976.577 542.837 975.614 557.926 C 973.155 558.978 973.129 558.306 969.759 557.321 C 951.403 549.513 926.2 541.602 906.927 534.291 C 878.007 523.322 848.749 512.24 819.703 501.724 C 825.781 490.271 831.925 478.852 838.134 467.468 z" fill="rgb(13,150,104)" transform="translate(0,0)"></path>
<path d="M 1094.01 560.267 C 1135.25 573.681 1184.29 596.777 1224.89 607.65 C 1223.55 620.379 1222.32 633.342 1220.35 645.97 C 1217.74 646.92 1218.17 646.36 1214.66 644.804 C 1185.58 632.24 1152.1 620.174 1122.34 609.176 C 1108.15 603.934 1092.43 597.99 1078.02 594.047 C 1087.39 584.337 1093.98 573.909 1094.01 560.267 z" fill="rgb(13,150,104)" transform="translate(0,0)"></path>
<path d="M 995.191 524.395 C 1018.05 535.119 1056.11 546.554 1081.16 557.129 C 1086.11 564.406 1070.89 583.451 1065.56 588.819 C 1023.14 620.962 967.552 574.077 995.191 524.395 z" fill="rgb(245,158,11)" transform="translate(0,0)"></path>
<path d="M 892.454 426.863 C 916.449 432.662 963.206 450.598 987.918 459.363 C 1047.14 480.248 1106.11 501.819 1164.83 524.073 C 1164.89 528.774 1166.36 535.056 1164.34 538.633 C 1161.07 539.455 1159.88 538.198 1156.21 536.715 C 1147.57 534.198 1135.33 529.165 1126.61 525.892 L 1068.39 504.004 C 1005.77 480.354 942.774 457.707 879.431 436.072 L 892.454 426.863 z" fill="rgb(13,150,104)" transform="translate(0,0)"></path>
<path d="M 1177.34 556.456 C 1185.58 558.31 1204.74 565.717 1213.61 568.806 C 1216.63 577.326 1218.55 583.901 1220.9 592.613 C 1212.17 591.167 1194.9 582.855 1184.7 579.605 L 1177.34 556.456 z" fill="rgb(245,158,11)" transform="translate(0,0)"></path>
<path d="M 1166.51 126.663 C 1168.12 127.363 1169.62 128.165 1171.18 128.968 C 1171.32 133.224 1165.42 148.029 1164.05 152.938 C 1157.42 176.76 1139.93 217.332 1136.36 240.092 C 1133.84 239.008 1133.22 238.914 1131.32 236.835 C 1131.69 232.452 1137.63 215.059 1139.26 209.967 C 1148.22 182.138 1158 154.67 1166.51 126.663 z" fill="rgb(245,158,11)" transform="translate(0,0)"></path>
<path d="M 1176.28 526.956 C 1192.23 531.789 1211.12 536.221 1208.57 556.933 C 1199.03 553.054 1185.56 548.04 1177.09 542.846 L 1177.13 542.25 C 1177.49 535.712 1177.47 533.535 1176.28 526.956 z" fill="rgb(245,158,11)" transform="translate(0,0)"></path>
<path d="M 1113.53 244.665 C 1123.34 247.426 1132 250.562 1141.54 254.119 L 1138.01 264.758 C 1136.04 264.855 1114.63 256.326 1110.64 254.921 L 1113.53 244.665 z" fill="rgb(245,158,11)" transform="translate(0,0)"></path>
<path d="M 608.045 1307.61 C 614.98 1308.03 615.07 1310.44 618.593 1316.18 C 622.637 1322.77 625.702 1329.79 630.209 1336.14 L 630.834 1337.01 C 638.832 1335.86 660.457 1328.34 664.066 1337.37 C 662.916 1345.05 649.935 1359.17 644.392 1365.51 C 647.96 1370.06 653.638 1380.75 655.923 1386.07 C 665.592 1408.62 632.111 1391.98 624.21 1389.35 L 624.005 1389.11 C 620.611 1388.59 606.975 1415.4 596.429 1411.82 C 593.092 1406.51 594.862 1385.53 595.094 1377.86 C 589.087 1373.5 567.955 1364.47 567.318 1358.02 C 574.275 1352.3 589.893 1349.18 598.488 1343.24 C 599.091 1339.23 599.628 1335.21 600.099 1331.18 C 601.373 1320.81 600.628 1313.41 608.045 1307.61 z" fill="rgb(26,58,40)" transform="translate(0,0)"></path>
<path d="M 612.139 1327.67 C 626.638 1343.48 613.231 1351.47 643.606 1346.31 C 640.352 1351.64 635.321 1357.65 631.378 1362.65 C 634.988 1371.84 637.776 1376.03 643.045 1384.14 C 636.572 1381.45 628.73 1377.49 622.269 1374.46 C 619.385 1376.47 608.907 1388.92 605.929 1392.4 L 606.018 1369.47 C 601.823 1366.28 593.604 1362.21 588.707 1359.59 C 611.856 1352.65 608.644 1350.58 612.139 1327.67 z" fill="rgb(245,158,11)" transform="translate(0,0)"></path>
<path d="M 138.683 1024.57 L 139.341 1024.73 C 148.701 1027.12 154.576 1041.29 160.14 1050.51 C 168.577 1049.91 190.858 1042.79 193.927 1052.38 C 192.931 1059.8 182.367 1071.88 177.51 1078.19 C 181.19 1087.26 192.731 1100.95 191.287 1111.44 C 185.294 1119.75 167.66 1103.92 158.032 1106.66 C 152.745 1112.44 139.475 1130.53 131.641 1125.69 C 127.402 1118.72 129.624 1103.15 130.614 1095.05 C 123.379 1092.22 101.854 1082.95 101.929 1074.43 C 106 1067.65 121.005 1064.07 128.983 1061.25 C 132.541 1050.69 133.609 1030.4 138.683 1024.57 z" fill="rgb(26,58,40)" transform="translate(0,0)"></path>
<path d="M 143.099 1047.77 C 147.001 1050.79 150.451 1057.42 153.727 1061.98 C 159.32 1065.03 166.36 1061.43 173.449 1060.46 L 174.49 1061.53 C 172.898 1067.21 168.109 1071.68 164.098 1076.11 C 168.005 1084.07 171.448 1091.3 174.975 1099.45 C 168.202 1096.66 162.343 1094.33 155.369 1091.95 C 151.368 1095.79 144.229 1105.31 142.231 1106.5 L 140.821 1105.85 C 139.588 1100.08 142.394 1092.5 141.482 1088.73 C 140.794 1085.88 123.737 1077.73 120.513 1076.07 C 144.17 1070.64 139.523 1068.18 143.099 1047.77 z" fill="rgb(245,158,11)" transform="translate(0,0)"></path>
<path d="M 1362.04 264.881 L 1366.52 264.813 C 1373.16 267.428 1381.72 282.322 1385.63 288.509 C 1394.45 288.611 1412.44 285.238 1418.6 290.932 C 1422.34 301.705 1403.98 310.681 1402.95 318.546 C 1401.79 327.485 1422.83 343.269 1412.26 353.493 C 1406.54 354.808 1392.36 348.071 1386.28 345.626 C 1385.31 345.273 1382.06 344.135 1381.26 344.582 C 1373.08 349.168 1366.41 360.081 1358.19 363.293 C 1354.41 363.149 1356.03 363.757 1353.1 361.541 C 1350 354.893 1352.26 338.264 1352.63 329.493 C 1345.72 325.768 1326.44 316.895 1325.07 308.916 C 1327.11 304.787 1336.5 302.573 1341.12 301.224 C 1361.49 295.279 1352.82 283.695 1362.04 264.881 z" fill="rgb(26,58,40)" transform="translate(0,0)"></path>
<path d="M 1369.84 287.669 C 1381.86 305.123 1382.94 302.783 1402.91 299.96 C 1393.29 308.526 1392.08 308.129 1387.61 320.432 C 1391.89 326.832 1394.4 331.204 1398 338.024 L 1379.73 330.896 C 1371.19 331.007 1371.59 338.838 1364.7 342.234 C 1362.81 338.106 1367.07 331.445 1364.5 324.846 C 1362.07 318.595 1351.57 315.209 1345.22 312.185 C 1350.65 310 1357.84 308.727 1363.68 307.483 C 1366.24 301.171 1368 294.254 1369.84 287.669 z" fill="rgb(245,158,11)" transform="translate(0,0)"></path>
<path d="M 948.513 769.561 C 956.453 773.192 965.525 792.949 971.827 795.292 C 979.458 798.13 992.759 786.907 1002.45 790.391 C 1003.09 790.971 1003.9 791.698 1004.88 792.572 C 1007.34 797.93 986.356 821.601 987.058 824.955 C 988.39 831.318 1001.92 843.214 1003.07 852.498 C 999.318 861.845 976.791 851.27 969.861 848.875 C 958.937 853.874 951.499 875.374 941.223 872.4 C 937.62 866.832 938.641 843.69 936.479 839.124 C 934.157 834.221 911.607 828.232 908.556 821.177 L 909.45 819.101 C 912.306 816.562 933.842 808.936 938.154 808.061 C 941.806 796.835 940.75 786.568 943.11 775.083 C 943.763 771.91 945.925 771.217 948.513 769.561 z" fill="rgb(26,58,40)" transform="translate(0,0)"></path>
<path d="M 952.437 791.9 C 954.734 793.991 962.859 805.366 965.692 808.942 L 984.178 805.806 C 971.765 823.019 971.246 823.027 983.186 840.933 C 978.009 839.866 965.906 834.111 962.345 836.605 L 949.189 853.074 C 950.209 830.312 950.968 831.64 930.4 822.188 C 938.23 818.89 943.722 816.567 951.929 814.153 C 951.117 807.394 951.991 798.832 952.437 791.9 z" fill="rgb(245,158,11)" transform="translate(0,0)"></path>
<path d="M 289.746 1256.07 C 310.161 1256.51 300.149 1282.16 291.175 1290.17 C 290.475 1289.68 289.669 1289.16 288.782 1288.98 C 277.463 1286.58 282.136 1276.09 283.68 1268.65 C 284.992 1262.34 285.575 1260.32 289.746 1256.07 z" fill="rgb(26,58,40)" transform="translate(0,0)"></path>
<path d="M 282.371 1383.57 C 295.771 1388.07 296.984 1411.2 285.315 1417.49 C 283.044 1416.75 278.834 1416.04 277.616 1413.73 C 274.03 1406.91 273.475 1399.33 275.318 1391.92 C 276.574 1386.88 277.956 1386.22 282.371 1383.57 z" fill="rgb(26,58,40)" transform="translate(0,0)"></path>
<path d="M 283.29 1300.79 C 301.807 1301.35 297.687 1325.63 287.288 1332.03 C 278.349 1330.67 275.486 1327 276.144 1316.58 C 276.548 1310.19 278.179 1304.98 283.29 1300.79 z" fill="rgb(26,58,40)" transform="translate(0,0)"></path>
<path d="M 1085.92 739.932 L 1087.04 740.041 C 1089.4 743.191 1094.72 758.925 1096.43 763.631 C 1091.17 766.957 1088.42 768.955 1082.27 769.976 C 1080.72 769.137 1080.36 768.654 1078.99 767.463 C 1076.61 761.21 1071.84 748.737 1074.46 742.478 C 1077.66 740.039 1081.53 740.411 1085.92 739.932 z" fill="rgb(26,58,40)" transform="translate(0,0)"></path>
<path d="M 709.815 427.651 C 714.322 430.398 716.233 432.977 719.702 436.934 C 712.847 444.998 705.761 452.538 698.583 460.304 C 693.957 457.51 691.312 453.966 687.774 449.891 C 694.122 442.917 702.963 434.211 709.815 427.651 z" fill="rgb(26,58,40)" transform="translate(0,0)"></path>
<path d="M 323.85 1130.94 C 325.098 1131.04 326.686 1131.14 327.902 1131.33 C 341.754 1133.57 330.656 1158.07 324.336 1162.06 L 323.859 1162 C 306.7 1160.27 315.782 1135.21 323.85 1130.94 z" fill="rgb(26,58,40)" transform="translate(0,0)"></path>
<path d="M 282.307 1342.82 C 296.153 1346.73 292.059 1357.82 290.754 1369.44 C 287.877 1372.21 287.378 1372.53 283.789 1374.28 L 283.281 1374.04 C 273.638 1369.75 272.893 1363.73 274.46 1353.19 C 275.372 1347.06 277.257 1346.12 282.307 1342.82 z" fill="rgb(26,58,40)" transform="translate(0,0)"></path>
<path d="M 312.906 280.835 C 317.062 283.677 320.969 286.693 324.94 289.781 C 319.604 297.151 312.817 304.489 306.771 311.367 C 302.876 310.307 297.83 305.369 294.535 302.527 C 300.557 294.67 305.631 287.592 312.906 280.835 z" fill="rgb(26,58,40)" transform="translate(0,0)"></path>
<path d="M 1055.16 657.907 C 1058.94 659.106 1060.6 663.165 1062.24 666.563 C 1068.83 680.219 1071.87 681.679 1057.23 688.962 L 1055.02 688.858 C 1052.5 686.704 1045.54 670.202 1043.49 665.786 C 1047.43 663.229 1051.32 660.602 1055.16 657.907 z" fill="rgb(26,58,40)" transform="translate(0,0)"></path>
<path d="M 300.099 1212.47 C 316.576 1215.25 308.381 1239.32 302.102 1244.74 C 283.514 1245.44 292.477 1219.24 300.099 1212.47 z" fill="rgb(26,58,40)" transform="translate(0,0)"></path>
<path d="M 779.629 366.831 L 787.966 376.999 C 779.471 383.497 771.874 390.774 763.065 397.05 C 759.436 392.438 757.555 390.428 753.322 386.345 C 762.456 380.473 769.57 372.937 779.629 366.831 z" fill="rgb(26,58,40)" transform="translate(0,0)"></path>
<path d="M 310.647 1170.8 C 314.889 1171.12 316.771 1171.52 319.633 1174.38 C 323.358 1181.88 317.826 1197.98 312.07 1203.12 C 295.751 1199.24 303.515 1178.92 310.647 1170.8 z" fill="rgb(26,58,40)" transform="translate(0,0)"></path>
<path d="M 1072.27 697.227 C 1074.01 698.302 1079.36 709.028 1080.08 711.49 C 1083.49 723.201 1079.05 725.648 1070.27 728.345 C 1066.81 726.182 1060.99 708.917 1060.6 704.537 C 1063.3 701.32 1068.36 699.242 1072.27 697.227 z" fill="rgb(26,58,40)" transform="translate(0,0)"></path>
<path d="M 284.221 314.407 L 296.798 324.016 C 293.035 330.861 287.067 339.96 282.8 346.607 C 278.717 344.675 273.624 339.565 270.077 336.343 C 275.193 328.822 279.622 322.274 284.221 314.407 z" fill="rgb(26,58,40)" transform="translate(0,0)"></path>
<path d="M 742.484 397.006 L 752.029 405.481 C 744.587 414.182 736.658 420.209 729.783 428.247 C 728.039 426.801 722.64 420.442 720.748 418.321 C 727.47 410.015 735.023 404.877 742.484 397.006 z" fill="rgb(26,58,40)" transform="translate(0,0)"></path>
<path d="M 1038.65 624.193 L 1039.42 624.099 C 1041.77 625.369 1047.26 633.977 1048.26 636.701 C 1051.81 646.281 1045.62 649.625 1038.84 652.276 C 1035.81 650.48 1028.29 636.667 1025.81 632.563 C 1030.84 627.287 1032.13 626.696 1038.65 624.193 z" fill="rgb(26,58,40)" transform="translate(0,0)"></path>
<path d="M 678.023 460.876 C 683.035 464.779 685.316 467.11 689.741 471.743 C 683.345 477.87 677.442 485.571 671.811 490.608 L 669.967 490.652 C 666.548 488.473 664.022 484.659 661.448 481.383 C 664.564 476.845 673.877 466.138 678.023 460.876 z" fill="rgb(26,58,40)" transform="translate(0,0)"></path>
<path d="M 377.323 220.818 L 387.714 230.358 C 380.798 236.872 373.174 242.347 365.727 248.313 C 362.398 245.028 359.095 241.716 355.817 238.379 C 363.362 231.77 369.294 226.814 377.323 220.818 z" fill="rgb(26,58,40)" transform="translate(0,0)"></path>
<path d="M 693.64 179.489 C 701.505 180.758 713.048 187.154 719.569 191.661 C 717.615 195.095 715.531 199.369 713.685 202.936 C 710.371 202.901 692.175 194.197 690.126 191.568 C 690.285 186.606 692.91 184.829 693.64 179.489 z" fill="rgb(26,58,40)" transform="translate(0,0)"></path>
<path d="M 496.749 163.225 C 499.778 162.811 498.377 162.583 501.105 163.892 C 503.004 168.242 503.399 171.181 501.966 175.764 C 499.229 177.787 484.851 181.137 480.235 182.432 L 479.173 182.739 L 476.967 181.503 C 474.825 177.477 474.362 176.726 473.576 172.272 C 476.275 167.976 491.116 164.831 496.749 163.225 z" fill="rgb(26,58,40)" transform="translate(0,0)"></path>
<path d="M 261.333 351.389 C 264.458 352.54 270.843 356.744 273.943 358.663 C 271.073 365.688 266.921 375.069 263.007 381.411 L 249.83 373.759 C 253.128 366.195 257.396 358.674 261.333 351.389 z" fill="rgb(26,58,40)" transform="translate(0,0)"></path>
<path d="M 807.144 252.346 C 812.725 254.065 823.919 266.14 828.25 270.774 C 825.004 275.595 824.411 276.518 819.964 280.26 L 818.068 280.736 C 814.141 278.316 804.824 267.285 801.223 263.278 C 803.122 260.194 805.384 255.652 807.144 252.346 z" fill="rgb(26,58,40)" transform="translate(0,0)"></path>
<path d="M 772.643 225.507 C 776.586 225.982 791.296 238.103 795.468 241.335 C 793.015 245.092 790.394 247.897 787.455 251.257 L 786.514 251.542 C 782.045 249.784 769.205 238.472 765.15 234.863 C 767.612 231.716 770.11 228.597 772.643 225.507 z" fill="rgb(26,58,40)" transform="translate(0,0)"></path>
<path d="M 415.99 196.13 C 419.475 199.704 414.545 194.4 417.418 198.417 C 425.53 209.762 410.891 217.541 401.236 221.571 C 396.498 217.332 392.996 215.955 394.107 209.424 C 396.54 206.64 411.235 198.963 415.99 196.13 z" fill="rgb(26,58,40)" transform="translate(0,0)"></path>
<path d="M 343.015 249.868 C 347.084 254.011 349.379 255.385 354.266 258.604 C 348.59 263.714 340.692 271.732 335.676 277.347 C 331.41 276.868 327.198 271.428 324.245 268.249 C 330.318 261.895 336.194 255.404 343.015 249.868 z" fill="rgb(26,58,40)" transform="translate(0,0)"></path>
<path d="M 574.552 152.482 C 580.369 151.005 588.977 152.39 591.608 158.726 C 591.636 162.5 589.963 164.188 587.404 166.811 C 585.358 166.476 584.72 166.227 582.798 167.067 C 569.002 166.329 560.875 172.09 562.92 153.985 C 565.164 152.452 571.246 152.681 574.552 152.482 z" fill="rgb(26,58,40)" transform="translate(0,0)"></path>
<path d="M 735.438 199.344 C 743.437 204.712 753.254 206.491 755.919 214.143 C 756.102 218.097 753.378 221.304 751.141 224.878 C 744.856 221.578 732.56 217.116 730.442 210.769 C 729.298 207.338 733.558 202.18 735.438 199.344 z" fill="rgb(26,58,40)" transform="translate(0,0)"></path>
<path d="M 651.268 165.313 C 658.802 165.769 674.426 167.927 677.076 175.896 C 677.004 179.933 675.248 182.475 673.379 186.125 C 670.277 184.988 666.36 183.532 663.172 182.901 C 649.384 180.171 649.873 178.182 651.268 165.313 z" fill="rgb(26,58,40)" transform="translate(0,0)"></path>
<path d="M 451.9 177.795 C 454.171 177.778 454.017 177.734 456.063 178.712 C 458.168 182.888 458.681 185.475 459.816 189.924 C 452.759 193.594 445.604 197.074 438.36 200.358 C 422.42 187.554 441.42 182.952 451.9 177.795 z" fill="rgb(26,58,40)" transform="translate(0,0)"></path>
<path d="M 607.057 154.453 C 618.442 157.394 622.759 156.213 635.085 161.242 C 634.071 164.848 633.429 169.48 632.783 173.239 C 629.038 173.078 611.229 170.593 608.928 167.775 C 605.827 163.976 606.834 159.211 607.057 154.453 z" fill="rgb(26,58,40)" transform="translate(0,0)"></path>
<path d="M 543.157 154.817 L 543.816 154.787 C 545.962 157.793 545.586 163.24 545.718 167.324 C 537.552 169.366 528.048 168.473 521.359 172.314 L 519.644 170.908 C 518.078 166.891 518.01 162.183 517.637 157.804 C 523.367 156.553 537.295 155.223 543.157 154.817 z" fill="rgb(26,58,40)" transform="translate(0,0)"></path>
<path d="M 284.357 1426.61 C 299.588 1429.83 300.231 1445.07 288.999 1453.9 C 275.636 1451.36 277.111 1435.17 284.357 1426.61 z" fill="rgb(26,58,40)" transform="translate(0,0)"></path>
<path d="M 839.198 282.816 C 844.322 285.541 852.189 297.154 855.401 301.993 L 846.936 310.41 C 841.738 308.086 834.083 299.57 831.248 294.763 C 831.281 291.819 836.903 285.757 839.198 282.816 z" fill="rgb(26,58,40)" transform="translate(0,0)"></path>
<path d="M 1093.41 781.09 L 1095.01 781.17 C 1103.88 789.432 1102.82 801.594 1088.22 802.522 C 1079.71 801.773 1078.57 792.332 1082.45 786.229 C 1085.03 782.16 1089.02 781.985 1093.41 781.09 z" fill="rgb(26,58,40)" transform="translate(0,0)"></path>
<path d="M 898.714 358.808 C 901.478 361.322 909.784 373.084 912.715 376.797 C 906.16 380.847 905.508 380.829 900.068 386.456 C 895.196 380.517 890.824 373.693 886.678 367.217 C 890.878 364.014 894.279 361.689 898.714 358.808 z" fill="rgb(26,58,40)" transform="translate(0,0)"></path>
<path d="M 1076.7 1178.45 C 1082.43 1180.37 1087.08 1183.13 1092.2 1186.26 C 1090.42 1192.73 1089.14 1196.38 1085.32 1201.84 C 1079.4 1199.98 1074.58 1199.49 1071.78 1194.33 C 1071.1 1189.61 1074.62 1182.96 1076.7 1178.45 z" fill="rgb(26,58,40)" transform="translate(0,0)"></path>
<path d="M 1087.14 1147.25 C 1091.3 1148.93 1098.59 1152.9 1103.08 1155.04 C 1100.86 1161.45 1100.03 1165.42 1095.82 1170.78 C 1077.54 1165.86 1081.05 1161.89 1087.14 1147.25 z" fill="rgb(26,58,40)" transform="translate(0,0)"></path>
<path d="M 1099.28 1117.5 L 1113.18 1125.07 C 1112.11 1130.18 1110.45 1136.27 1107.55 1140.62 C 1101.13 1139.29 1097.41 1137.04 1091.96 1133.65 C 1094.24 1126.28 1095.05 1123.93 1099.28 1117.5 z" fill="rgb(26,58,40)" transform="translate(0,0)"></path>
<metadata><recraft-signature>{"signed_by": "recraft", "signature_b64": "Hl96FHAIVZNobUIQpWH40Zbo3gDa4+WPRHfWaDSBf0XDvFwswYC5JBoef84yaMEVN/+doo/SmZxn4P9tOabwBg==", "signing_algo": "Ed25519", "generation_timestamp": 1780384793, "identifier": "fe26c170-583e-4221-8b53-4076021440f1"}</recraft-signature></metadata></svg>