<svg xmlns="http://www.w3.org/2000/svg" height="1024" preserveAspectRatio="none" style="display: block;" version="1.1" viewBox="0 0 2048 1152" width="1820">
<path d="M 0 0 L 2048 0 L 2048 1152 L 0 1152 L 0 0 z" fill="rgb(244,234,215)" transform="translate(0,0)"></path>
<path d="M 1499.75 502.861 C 1501.86 498.544 1501.01 498.583 1504.53 496.542 C 1507.96 497.787 1508.97 499.859 1510.49 503.24 C 1517.38 523.566 1524.6 543.779 1532.14 563.871 L 1534.76 570.109 C 1539.44 583.257 1544.22 596.369 1549.1 609.446 L 1550.76 615.058 C 1553.07 622.216 1563.81 653.473 1567.19 658.757 L 1568.78 663.888 C 1572.19 673.196 1584.26 704.865 1585.78 712.75 L 1587.23 717.487 C 1591.99 728.149 1602.15 762.063 1605.12 767.347 L 1606.42 771.852 C 1609.3 781.998 1631.84 832.238 1629.49 837.902 L 1629.8 838.512 C 1651.63 833.089 1677.64 825.671 1699.46 822.312 C 1702.54 821.597 1705.59 820.776 1708.61 819.85 C 1711.35 816.654 1709.98 787.471 1709.9 781.29 C 1686.03 774.278 1673.97 759.31 1665.43 736.686 C 1645.8 684.705 1665.02 626.7 1685.71 578.071 C 1691.67 566.698 1698.95 547.5 1709.75 540.334 C 1717.19 537.858 1726.45 556.869 1728.41 560.553 C 1758.75 617.476 1786.72 694.531 1750.68 755.198 C 1742.07 769.692 1730.82 777.748 1714.69 781.307 L 1714.68 818.832 C 1727.42 815.331 1788.89 804.568 1801.6 803.928 C 1786.26 780.537 1783.63 751.379 1789.25 724.51 C 1801.6 665.461 1838.49 607.712 1873.3 559.193 C 1878.16 552.423 1885.09 539.437 1892.05 535.098 C 1892.94 534.545 1894.55 533.584 1895.64 533.848 C 1906.33 536.446 1960.85 619.992 1967.94 632.397 C 1992.94 676.143 2013.54 720.924 1999.4 772.065 C 1996.55 782.341 1992.39 792.207 1987.02 801.419 C 1983.9 806.789 1967.23 828.494 1967.08 830.716 C 1964.67 832.097 1963.25 832.486 1962.34 835.614 C 1931.52 854.856 1931.77 854.779 1896.86 860.867 L 1896.16 860.895 L 1896.86 948.26 L 1902.96 953.987 C 1917.3 899.763 1989.44 897.622 1994.83 950.607 C 1997.99 981.661 1993.33 1021.11 1995.15 1053.21 C 1996.61 1105.23 1978.69 1102 1935.88 1101.72 L 1872.54 1101.66 L 1494.39 1101.55 L 1402.35 1101.57 C 1397.54 1101.55 1371.31 1102.03 1368.99 1100.31 C 1359.04 1099.87 1348.35 1100.04 1338.34 1100.13 C 1240.88 1100.93 1142.95 1098.87 1045.53 1100.48 C 996.936 1102.18 942.346 1100.96 893.261 1101.11 L 717.706 1101.86 C 629.687 1100.94 541.661 1100.88 453.641 1101.68 C 452.433 1101.75 451.224 1101.78 450.014 1101.79 L 200.189 1101.77 L 120.694 1101.94 C 107.213 1101.97 93.6644 1102.2 80.2176 1101.57 C 72.3805 1101.2 56.5809 1092.09 54.9808 1084.48 C 50.4 1062.68 52.1796 1037.24 52.2058 1014.8 L 52.1799 901.305 L 52.2095 848 L 52.5101 844.649 C 56.3443 843.148 210.785 874.827 226.155 877.867 C 237.506 871.116 248.349 865.924 259.777 858.472 C 258.438 842.491 252.735 787.422 256.068 773.267 C 223.666 767.387 243.939 733.435 258.36 720.102 C 252.464 716.427 243.32 709.131 248.115 700.896 C 252.822 692.811 265.253 691.295 272.491 685.917 C 277.168 682.442 280.853 674.808 286.882 673.373 C 293.33 672.704 299.839 672.099 305.46 675.522 C 318.342 680.148 316.659 696.87 315.971 708.505 C 318.882 710.901 320.689 712.392 323.317 715.135 C 334.731 732.979 325.444 763.205 340.454 786.981 C 349.069 800.628 367.004 809.773 367.807 816.734 C 361.717 825.972 354.186 818.835 347.782 814.584 C 338.965 808.731 331.122 803.549 323.536 796.097 C 321.122 799.734 323.005 817.511 323.131 822.79 C 323.729 847.903 325.138 874.226 323.709 899.296 C 382.711 911.096 441.321 924.778 499.449 940.321 C 539.276 936.797 583.156 937.222 623.072 939.362 C 643.266 940.444 671.612 941.997 691.318 945.35 C 691.917 945.051 692.633 944.694 693.465 944.278 C 696.934 935.535 701.141 926.155 705.812 918.284 L 706.6 917.72 C 715.723 924.524 734.881 922.526 745.891 921.187 C 745.501 924.966 742.755 947.754 743.765 949.846 C 752.239 950.994 760.394 951.595 768.921 952.259 C 794.418 932.6 821.668 911.652 849.339 895.062 C 961.177 826.614 1093.99 800.919 1223.29 822.716 C 1248.05 827.046 1272.84 832.685 1297.05 839.516 C 1297.28 839.582 1298.96 838.928 1299.31 838.822 C 1299.33 837.211 1299.37 835.248 1299.4 832.933 C 1293.46 822.729 1276.14 809.753 1268.2 801.295 C 1263.96 798.141 1249.65 782.341 1245.27 777.858 C 1226.77 759.006 1215.74 737.234 1217.09 710.293 C 1219.42 663.681 1259.51 625.682 1306.64 628.444 C 1328.81 629.727 1349.54 639.809 1364.24 656.452 C 1381.4 675.84 1387.82 697.623 1386.17 723.109 C 1383.77 760.216 1365.64 776.77 1339.79 799.628 C 1330.25 808.604 1313.69 821.883 1306.08 830.972 L 1305.65 831.476 C 1303.45 834.101 1303.78 837.467 1303.8 840.886 C 1313.28 845.229 1349.18 856.252 1361.42 860.45 C 1393.95 871.6 1413.11 881.886 1442.96 895.675 C 1457.29 891.068 1490.53 879.785 1504.13 876.927 L 1504.29 862.258 C 1493.12 861.889 1398.79 839.949 1388.46 834.361 C 1388.19 833.832 1387.92 833.304 1387.64 832.775 C 1392.76 815.393 1403.61 788.258 1408.52 771.872 L 1410.08 767.069 C 1415.21 753.882 1421.99 731.103 1426.28 717.247 L 1427.84 712.051 C 1429.74 708.601 1441.53 669.972 1443.85 662.878 L 1445.72 658.287 C 1450.6 646.706 1457.23 624.506 1461.41 611.823 L 1462.31 608.428 C 1467.06 597.995 1473.52 577.994 1477.5 566.615 L 1479.39 561.274 C 1486.33 543.599 1493.12 521.39 1499.75 502.861 z" fill="rgb(26,58,40)" transform="translate(0,0)"></path>
<path d="M 52.2095 848 C 78.3951 851.552 112.54 860.421 139.376 865.284 C 163.864 869.72 197.319 875.389 220.582 881.618 C 214.894 887.548 215.006 888.749 207.029 887.125 L 203.429 887.103 C 198.95 892.537 202.656 912.085 204.333 919.078 L 209.559 904.477 C 212.786 897.438 214.118 901.896 222.152 899.111 C 231.81 895.764 245.974 889.752 256.01 891.061 C 268.789 892.727 280.595 896.038 293.483 897.437 C 295.003 904.475 301.987 943.32 304.143 947.777 C 306.451 948.705 307.291 948.411 309.859 948.186 C 311.19 951.377 309.266 959.912 309.337 964.618 C 314.49 962.86 330.39 958.252 332.681 954.52 C 328.769 950.618 318.448 950.969 316.979 947.131 C 318.969 945.421 319.721 945.312 322.234 944.373 C 324.644 936.198 324.018 913.387 324.017 903.861 C 362.233 911.507 400.306 919.852 438.217 928.894 C 452.362 932.362 486.675 942.965 499.794 944.535 C 533.695 954.331 567.745 963.794 601.57 973.816 C 618.35 978.788 635.218 985.098 651.987 990.29 C 677.799 998.513 691.61 996.715 688.954 1028.17 C 685.759 1028.84 683.494 1028.87 681.528 1031.29 C 682.397 1034.88 684.155 1035.75 686.99 1038.78 C 693.837 1031.89 698.898 1025.75 699.516 1015.35 L 700.806 1012.89 C 701.417 1010.73 701.948 1008.83 702.704 1006.71 C 708.431 1005.42 721.449 1011.31 726.655 1014.21 C 730.023 1016.09 730.603 1018.77 731.457 1022.32 C 732.358 1026.62 734.536 1033.39 732.451 1036.49 C 731.88 1037.33 730.122 1041.54 729.96 1042.49 L 731.706 1043.54 C 735.801 1041.19 737.017 1039.73 740.332 1036.33 C 742.279 1030.99 742.904 1026.05 743.82 1020.48 C 843.297 1051.11 943.945 1077.8 1045.53 1100.48 C 996.936 1102.18 942.346 1100.96 893.261 1101.11 L 717.706 1101.86 C 629.687 1100.94 541.661 1100.88 453.641 1101.68 C 452.433 1101.75 451.224 1101.78 450.014 1101.79 L 200.189 1101.77 L 120.694 1101.94 C 107.213 1101.97 93.6644 1102.2 80.2176 1101.57 C 72.3805 1101.2 56.5809 1092.09 54.9808 1084.48 C 50.4 1062.68 52.1796 1037.24 52.2058 1014.8 L 52.1799 901.305 L 52.2095 848 z" fill="rgb(13,150,104)" transform="translate(0,0)"></path>
<path d="M 52.1799 901.305 C 76.7674 900.606 100.652 909.555 118.727 926.239 C 128.497 935.382 133.01 942.934 139.071 954.637 C 159.258 955.069 180.63 957.355 200.702 959.799 C 251.481 965.982 304.09 971.596 354.392 980.684 C 455.375 999.335 554.587 1026.55 650.955 1062.03 C 660.185 1065.33 706.142 1080.49 709.667 1085.51 L 709.158 1087.01 C 706.767 1087.75 684.549 1079.29 675.04 1075.68 C 537.548 1023.5 393.216 985.965 247.089 969.734 C 211.727 965.806 166.824 959.66 140.833 958.968 C 145.764 970.433 146.689 975.154 148.286 987.588 C 175.117 978.852 208.073 987.988 218.415 1016.84 C 221.286 1024.86 220.191 1037.38 219.843 1046.12 C 242.199 1029.69 274.027 1023.09 301.051 1027.73 C 340.565 1034.51 364.612 1050.21 388.946 1080.87 C 411.702 1080.22 434.081 1082.37 451.951 1098.65 C 453.484 1100.05 452.886 1099.42 453.641 1101.68 C 452.433 1101.75 451.224 1101.78 450.014 1101.79 L 200.189 1101.77 L 120.694 1101.94 C 107.213 1101.97 93.6644 1102.2 80.2176 1101.57 C 72.3805 1101.2 56.5809 1092.09 54.9808 1084.48 C 50.4 1062.68 52.1796 1037.24 52.2058 1014.8 L 52.1799 901.305 z" fill="rgb(26,58,40)" transform="translate(0,0)"></path>
<path d="M 1801.6 803.928 C 1786.26 780.537 1783.63 751.379 1789.25 724.51 C 1801.6 665.461 1838.49 607.712 1873.3 559.193 C 1878.16 552.423 1885.09 539.437 1892.05 535.098 C 1892.94 534.545 1894.55 533.584 1895.64 533.848 C 1906.33 536.446 1960.85 619.992 1967.94 632.397 C 1992.94 676.143 2013.54 720.924 1999.4 772.065 C 1996.55 782.341 1992.39 792.207 1987.02 801.419 C 1983.9 806.789 1967.23 828.494 1967.08 830.716 C 1964.67 832.097 1963.25 832.486 1962.34 835.614 C 1931.52 854.856 1931.77 854.779 1896.86 860.867 L 1896.88 825.254 C 1905.98 816.207 1955.13 777.268 1956.76 771.365 L 1956.31 773.191 L 1955.53 771.192 C 1947.15 772.359 1906.59 810.323 1896.9 818.655 L 1897.12 759.544 C 1903.72 753.738 1952.19 712.178 1952.42 709.186 C 1952.2 709.153 1951.98 709.094 1951.76 709.087 C 1943.57 708.852 1904.88 745.899 1897.05 753.207 L 1897.12 694.634 C 1902.74 689.768 1940.2 656.803 1943.24 652.473 L 1942.43 650.185 L 1940.36 649.974 C 1935.51 652.282 1902.85 682.894 1897 688.306 L 1897.03 632.425 C 1901.9 627.988 1921.92 611.95 1922.78 606.655 L 1921.04 606.019 C 1914.56 607.303 1902.58 620.833 1897.03 626.12 C 1896.88 616.379 1898.01 596.851 1896.21 588.004 L 1894.88 587.172 C 1889.9 591.187 1891.97 618.28 1892 625.639 C 1885.73 620.075 1872.89 606 1866.57 605.818 L 1866.09 607.29 C 1868.77 612.919 1885.86 626.5 1891.97 632.433 L 1891.94 687.129 C 1883.13 678.851 1857.57 652.811 1847.56 649.514 L 1846.75 651.684 L 1847.45 649.525 L 1846.99 651.991 C 1849.11 654.441 1858.59 662.989 1861.38 665.606 C 1871.74 675.144 1881.95 684.859 1891.98 694.748 L 1891.96 753.355 C 1884.8 746.2 1841.67 704.999 1835.18 703.293 C 1834.36 703.077 1833.88 703.683 1833.19 704.11 L 1833.08 706.357 C 1837.81 711.553 1847.74 720.029 1853.2 724.981 C 1866.25 736.758 1879.19 748.662 1892.02 760.691 C 1891.96 780.023 1892.08 799.356 1892.37 818.686 C 1876.99 805.849 1862.88 790.771 1847.26 778.138 C 1842.71 774.463 1835.96 765.295 1830.44 766.584 C 1830.22 771.842 1844.6 782.216 1848.96 786.181 C 1863.48 799.297 1877.85 812.581 1892.07 826.032 L 1892.07 860.121 C 1874.33 858.828 1870.57 856.869 1853.97 851.89 L 1853.32 850.218 C 1847.12 846.847 1795.86 864.37 1785.55 867.972 C 1769.72 873.608 1753.95 879.4 1738.24 885.347 C 1731.34 887.913 1715.26 894.681 1708.68 895.372 C 1686.83 897.669 1662.9 897.733 1640.96 899.521 C 1595.36 903.238 1553.38 912.368 1509.38 923.821 C 1509.15 909.546 1509.21 895.096 1509.17 880.806 C 1528.47 874.958 1546.15 871.646 1565.68 867.959 C 1643.15 853.333 1721.86 847.049 1800.61 846.203 C 1810.79 846.094 1830.08 847.612 1839.18 843.807 L 1838.55 842.876 C 1830.88 841.244 1805.33 841.91 1796.21 841.874 C 1729.48 841.612 1661.65 845.694 1595.99 857.898 C 1587.38 859.499 1580.55 858.879 1571.64 861.82 L 1571.2 861.97 C 1578.88 857.539 1596.93 853.035 1605.89 850.267 C 1641.57 839.245 1677.81 831.537 1714.19 823.119 C 1743.1 817.352 1772.02 813.322 1800.96 807.98 C 1801.35 807.503 1801.73 807.027 1802.12 806.55 L 1801.6 803.928 z" fill="rgb(13,150,104)" transform="translate(0,0)"></path>
<path d="M 1853.97 851.89 C 1870.57 856.869 1874.33 858.828 1892.07 860.121 L 1892.29 868.586 C 1891.61 890.058 1891.35 924.499 1892.17 945.884 C 1890.89 944.98 1889.53 944.399 1888.09 943.817 C 1836.7 923.072 1674.47 978.486 1622.84 1000.15 C 1609.57 987.439 1593.72 984.228 1577.36 993.549 C 1570.49 976.771 1566.45 971.527 1550.73 962.987 C 1570.83 952.765 1614.5 937.215 1636.81 928.291 C 1708.07 899.783 1780.2 873.176 1853.97 851.89 z" fill="rgb(244,234,215)" transform="translate(0,0)"></path>
<path d="M 1268.2 801.295 C 1263.96 798.141 1249.65 782.341 1245.27 777.858 C 1226.77 759.006 1215.74 737.234 1217.09 710.293 C 1219.42 663.681 1259.51 625.682 1306.64 628.444 C 1328.81 629.727 1349.54 639.809 1364.24 656.452 C 1381.4 675.84 1387.82 697.623 1386.17 723.109 C 1383.77 760.216 1365.64 776.77 1339.79 799.628 C 1321.46 807.753 1317.36 809.048 1304.22 823.913 L 1304.66 770.969 C 1314.65 763.199 1352.11 730.341 1356.18 719.523 L 1354.97 718.731 C 1350.46 721.414 1310.38 760.107 1305.01 765.749 C 1304.88 750.199 1305.05 733.594 1304.56 718.136 C 1312.74 709.457 1339.07 686.762 1342.26 679.228 L 1341.86 677.806 C 1336.73 678.714 1310.04 705.477 1304.75 710.964 C 1304.67 702.662 1305.6 667.72 1303.28 662.834 L 1300.6 662.925 L 1303.09 662.448 L 1300.5 663.451 C 1299.2 677.087 1299.81 697.871 1299.87 712.103 C 1293.24 705.578 1268.03 679.135 1261.22 677.947 L 1259.68 678.604 C 1260.77 683.047 1294.38 713.082 1299.9 718.35 C 1299.76 733.085 1299.72 747.82 1299.79 762.556 C 1293.1 756.226 1258.61 721.782 1251.69 721.103 C 1252.06 725.794 1293.24 763.238 1299.75 769.495 C 1299.8 786.206 1299.7 803.129 1299.94 819.819 C 1293.08 813.489 1277.12 801.241 1268.2 801.295 z" fill="rgb(13,150,104)" transform="translate(0,0)"></path>
<path d="M 1709.9 781.29 C 1686.03 774.278 1673.97 759.31 1665.43 736.686 C 1645.8 684.705 1665.02 626.7 1685.71 578.071 C 1691.67 566.698 1698.95 547.5 1709.75 540.334 C 1717.19 537.858 1726.45 556.869 1728.41 560.553 C 1758.75 617.476 1786.72 694.531 1750.68 755.198 C 1742.07 769.692 1730.82 777.748 1714.69 781.307 C 1714.71 754.432 1714.16 725.719 1714.65 699.024 C 1721.76 693.049 1750.97 670.404 1752.77 664.184 L 1752.05 663.051 C 1751.33 663.044 1750.45 663.034 1749.42 663.024 C 1738.49 671.059 1724.53 683.635 1714.86 692.187 C 1714.71 677.575 1714.75 662.962 1714.96 648.35 C 1721.67 643.107 1742.08 628.671 1745.64 622.256 L 1744.98 621.122 C 1738.29 621.157 1722.13 636.35 1714.95 641.731 C 1714.95 634.899 1717.76 594.793 1711.06 594.831 C 1707.79 599.408 1709.62 634.75 1709 643.141 C 1703.9 639.118 1681.54 620.315 1676.91 619.853 L 1675.46 621.853 C 1676.46 625.528 1704.8 646.167 1709.96 650.45 C 1709.97 663.64 1710.3 678.991 1709.7 691.982 C 1702.97 686.543 1675.89 662.559 1669.7 661.906 L 1669.03 662.835 C 1672.59 669.287 1701.85 692.429 1709.74 699.326 L 1709.9 781.29 z" fill="rgb(13,150,104)" transform="translate(0,0)"></path>
<path d="M 1606.42 771.852 C 1609.3 781.998 1631.84 832.238 1629.49 837.902 C 1612.56 841.199 1594.99 845.673 1577.99 849.29 C 1555.17 853.952 1532.29 858.3 1509.36 862.333 C 1508.85 854.181 1509.26 842.043 1509.29 833.595 C 1527.22 823.274 1545.2 810.111 1562.77 798.971 C 1577.15 789.859 1592.45 781.347 1606.42 771.852 z" fill="rgb(13,150,104)" transform="translate(0,0)"></path>
<path d="M 1408.52 771.872 C 1436.87 789.084 1464.45 808.096 1492.57 825.732 C 1496.54 828.218 1500.87 830.903 1504.6 833.665 C 1504.56 840.224 1504.91 856.477 1504.29 862.258 C 1493.12 861.889 1398.79 839.949 1388.46 834.361 C 1388.19 833.832 1387.92 833.304 1387.64 832.775 C 1392.76 815.393 1403.61 788.258 1408.52 771.872 z" fill="rgb(13,150,104)" transform="translate(0,0)"></path>
<path d="M 1509.58 771.029 L 1557.66 738.265 C 1566.78 732.096 1579.07 724.485 1587.23 717.487 C 1591.99 728.149 1602.15 762.063 1605.12 767.347 C 1582 778.353 1532.08 812.589 1509.77 827.778 C 1509.53 808.863 1509.47 789.946 1509.58 771.029 z" fill="rgb(13,150,104)" transform="translate(0,0)"></path>
<path d="M 1426.28 717.247 C 1449.42 733.913 1480.13 754.699 1504.22 770.26 C 1504.01 789.036 1503.94 807.812 1503.98 826.588 C 1483.8 813.907 1463.7 801.107 1443.67 788.191 C 1435.63 783.01 1417.75 770.847 1410.08 767.069 C 1415.21 753.882 1421.99 731.103 1426.28 717.247 z" fill="rgb(13,150,104)" transform="translate(0,0)"></path>
<path d="M 1568.78 663.888 C 1572.19 673.196 1584.26 704.865 1585.78 712.75 C 1576.99 719.562 1562.31 728.618 1552.74 734.944 C 1538.05 744.595 1523.61 754.638 1509.45 765.06 C 1508.85 746.154 1509.32 725.62 1509.43 706.592 C 1519.78 699.578 1530.36 691.299 1540.64 683.961 C 1548.53 678.331 1562.03 670.076 1568.78 663.888 z" fill="rgb(13,150,104)" transform="translate(0,0)"></path>
<path d="M 1443.85 662.878 C 1460.35 675.416 1489.91 693.35 1504.1 706.105 L 1504.14 763.715 C 1481.85 748.765 1448.24 727.686 1427.84 712.051 C 1429.74 708.601 1441.53 669.972 1443.85 662.878 z" fill="rgb(13,150,104)" transform="translate(0,0)"></path>
<path d="M 261.51 719.296 C 261.937 716.923 265.41 713.514 267.243 712.031 C 273.739 706.842 282.01 704.406 290.281 705.247 C 292.333 710.926 294.117 714.564 300.722 711.639 C 302.224 709.598 302.47 709.442 302.99 707.029 C 307.324 707.454 311.652 707.946 315.971 708.505 C 318.882 710.901 320.689 712.392 323.317 715.135 C 323.726 720.948 325.916 731.188 327.068 737.314 C 323.741 738.521 318.763 739.916 316.421 742.281 C 316.554 744.346 316.13 743.566 317.162 745.006 C 319.128 754.4 319.811 767.84 320.177 777.545 C 309.137 792.145 272.747 792.57 257.974 783.301 C 256.57 780.142 257.067 777.428 257.24 773.907 C 266.577 775.979 275.535 776.501 284.831 778.424 C 285.282 778.517 286.694 782.117 289.972 783.323 C 295.257 782.04 297.775 778.364 297.58 772.928 C 293.491 764.695 279.661 762.21 272.152 755.821 C 265.23 749.932 276.329 746.284 275.708 738.102 L 276.823 736.783 L 278.102 736.308 L 278.105 734.614 C 275.335 730.622 265.731 721.81 261.51 719.296 z" fill="rgb(13,150,104)" transform="translate(0,0)"></path>
<path d="M 1445.72 658.287 C 1450.6 646.706 1457.23 624.506 1461.41 611.823 C 1463.79 616.712 1497.41 639.115 1503.94 645.155 C 1503.9 662.791 1504.09 680.968 1503.78 698.557 C 1484.55 684.949 1465.2 671.526 1445.72 658.287 z" fill="rgb(13,150,104)" transform="translate(0,0)"></path>
<path d="M 1550.76 615.058 C 1553.07 622.216 1563.81 653.473 1567.19 658.757 L 1509.33 699.362 C 1509.07 681.13 1509.08 662.895 1509.37 644.663 C 1523.39 635.292 1537.08 624.984 1550.76 615.058 z" fill="rgb(13,150,104)" transform="translate(0,0)"></path>
<path d="M 1499.75 502.861 C 1501.86 498.544 1501.01 498.583 1504.53 496.542 C 1507.96 497.787 1508.97 499.859 1510.49 503.24 C 1517.38 523.566 1524.6 543.779 1532.14 563.871 C 1525.23 569.591 1516.33 575.949 1509.06 581.439 C 1509.12 575.036 1510.46 543.722 1506.1 540.834 C 1502.65 547.572 1503.55 570.775 1503.55 579.765 C 1496.03 574.534 1486.81 566.987 1479.39 561.274 C 1486.33 543.599 1493.12 521.39 1499.75 502.861 z" fill="rgb(13,150,104)" transform="translate(0,0)"></path>
<path d="M 1462.31 608.428 C 1467.06 597.995 1473.52 577.994 1477.5 566.615 C 1483.54 571.475 1499.47 582.681 1503.96 587.023 L 1503.76 637.796 C 1498.24 633.699 1467.32 610.396 1462.31 608.428 z" fill="rgb(13,150,104)" transform="translate(0,0)"></path>
<path d="M 1534.76 570.109 C 1539.44 583.257 1544.22 596.369 1549.1 609.446 C 1535.95 619.335 1522.64 629.029 1509.2 638.523 C 1508.91 621.897 1509.24 604.399 1509.3 587.709 C 1516.08 581.999 1527.13 574.595 1534.76 570.109 z" fill="rgb(13,150,104)" transform="translate(0,0)"></path>
<path d="M 260.037 721.32 C 265.808 725.998 271.426 731.618 276.823 736.783 L 275.708 738.102 C 272.132 742.064 268.617 747.75 265.608 752.279 C 273.071 759.533 293.953 768.851 294.919 776.621 C 292.097 778.803 292.564 778.172 288.61 778.696 L 288.357 777.802 C 289.7 776.465 289.615 776.262 290.166 774.493 L 288.956 773.454 C 287.74 774.547 286.874 775.403 285.73 776.579 C 273.377 771.944 258.345 774.604 247.69 766.707 C 231.432 754.658 251.739 732.097 260.037 721.32 z" fill="rgb(244,234,215)" transform="translate(0,0)"></path>
<path d="M 317.162 745.006 L 326.445 740.291 C 327.313 759.544 329.56 774.288 339.785 791.065 C 344.897 799.452 361.872 811.139 364.484 816.471 L 362.558 818.179 C 357.486 816.401 360.611 820.098 355.472 817.293 L 354.994 814.344 C 343.071 809.233 335.074 803.342 325.222 794.813 C 319.172 788.154 320.034 786.643 320.177 777.545 C 319.811 767.84 319.128 754.4 317.162 745.006 z" fill="rgb(244,234,215)" transform="translate(0,0)"></path>
<path d="M 1629.49 837.902 L 1629.8 838.512 C 1590.4 849.805 1547.51 862.367 1508.8 876.134 C 1508.86 873.684 1508.93 864.193 1509.36 862.333 C 1532.29 858.3 1555.17 853.952 1577.99 849.29 C 1594.99 845.673 1612.56 841.199 1629.49 837.902 z" fill="rgb(244,234,215)" transform="translate(0,0)"></path>
<path d="M 304.399 680.479 C 319.813 691.884 307.094 696.144 302.165 704.471 L 302.99 707.029 C 302.47 709.442 302.224 709.598 300.722 711.639 C 294.117 714.564 292.333 710.926 290.281 705.247 L 293.37 703.282 C 294.474 699.588 293.119 699.292 291.121 694.468 C 291.499 688.622 299.067 685.461 304.399 680.479 z" fill="rgb(245,158,11)" transform="translate(0,0)"></path>
<path d="M 690.779 1027.29 C 690.864 1023.02 690.424 1016.23 692.518 1012.85 C 695.989 1010.99 695.877 1011.87 700.806 1012.89 L 699.516 1015.35 C 696.832 1020.24 695.139 1025.55 690.779 1027.29 z" fill="rgb(244,234,215)" transform="translate(0,0)"></path>
<path d="M 742.168 953.743 C 838.56 961.683 927.461 981.556 1021.39 999.457 C 1073.41 1009.6 1125.77 1017.96 1178.36 1024.52 C 1185.49 1025.39 1232.13 1031.35 1236.34 1030.77 C 1276.61 1036.66 1346.95 1036.94 1388.62 1036.72 C 1403.51 1037.27 1418.44 1035.94 1433.18 1036.18 C 1423.53 1040.6 1422.76 1040.08 1415.9 1048.29 C 1398.25 1046.45 1391.4 1042.83 1375.66 1055.37 C 1363.94 1064.7 1357.47 1083.33 1366.98 1096.2 L 1148.35 1095.98 L 1084.8 1096.14 C 1052.63 1096.23 1045.18 1095.82 1013.86 1088.71 C 994.077 1084.32 974.358 1079.64 954.711 1074.67 C 885.222 1057.19 813.205 1038.16 745.243 1015.52 C 742.627 996.125 743.318 973.755 742.168 953.743 z" fill="rgb(244,234,215)" transform="translate(0,0)"></path>
<path d="M 1500.19 883.143 L 1502.74 882.85 C 1505.37 885.965 1504.48 918.213 1504.5 925.234 C 1493.68 927.224 1473.77 934.235 1463.01 937.856 C 1414.68 953.715 1367.82 973.771 1322.98 997.795 C 1311.48 1003.81 1274.73 1027.3 1267.34 1028.11 C 1252.25 1029.78 1208.08 1025.06 1192 1022.81 C 1189.91 1022.78 1183.46 1021.61 1181.06 1021.23 C 1286.82 954.637 1380.46 918.253 1500.19 883.143 z" fill="rgb(13,150,104)" transform="translate(0,0)"></path>
<path d="M 1287.77 893.446 C 1291.47 893.225 1295.57 892.536 1298.73 894.083 C 1299.5 897.458 1298.86 899.958 1298.31 903.332 C 1296.52 905.648 1291.95 907.434 1289.17 908.262 C 1214.33 930.551 1147.02 964.974 1080.74 1005.61 C 1064.62 1003.91 1034.06 998.172 1018.22 994.841 C 1009.52 993.102 1002.4 991.754 993.962 989.06 C 1038.64 962.867 1094.41 939.153 1142.13 919.485 C 1153.57 914.771 1186.41 901.559 1197.74 899.872 C 1225.15 895.791 1260.21 894.356 1287.77 893.446 z" fill="rgb(13,150,104)" transform="translate(0,0)"></path>
<path d="M 1833.51 945.376 L 1834.82 945.346 L 1835.13 945.985 C 1803.09 961.371 1789.94 986.283 1789.73 1020.69 C 1741.93 1007.96 1712.86 1024.57 1693.27 1069.03 C 1688.5 1045.62 1675.66 1037.59 1651.76 1038.3 C 1640.34 1039.48 1634.68 1042.2 1624.99 1047.59 C 1625.81 1045.52 1626.58 1043.43 1627.28 1041.31 C 1632.22 1026.12 1632.41 1017.82 1625.21 1003.71 C 1691.97 975.748 1761.94 956.155 1833.51 945.376 z" fill="rgb(244,234,215)" transform="translate(0,0)"></path>
<path d="M 1296.65 910.982 L 1297.77 911.014 C 1300.15 914.32 1299.04 944.776 1298.99 950.986 C 1250.61 972.263 1217.77 993.384 1173.3 1020.33 C 1150.1 1017.02 1126.92 1013.59 1103.76 1010.03 C 1099.15 1008.9 1091.99 1008.15 1087.11 1007.48 C 1123.57 986.115 1158.78 965.288 1197.76 948.312 C 1230.15 934.206 1263.25 922.355 1296.65 910.982 z" fill="rgb(13,150,104)" transform="translate(0,0)"></path>
<path d="M 1503.44 930.652 C 1504.38 941.835 1503.78 961.175 1503.56 972.878 C 1493.4 977.229 1481.85 981.876 1472.1 986.855 C 1462.73 985.193 1449.05 985.146 1440.84 990.758 C 1436.1 993.998 1431.82 1001.77 1427.49 1004.33 C 1409.76 1014.79 1392.2 1022.1 1374.36 1032.9 C 1365.36 1032.81 1333.41 1033.18 1326.24 1032.23 C 1309.72 1031.19 1294.46 1031.04 1277.03 1029.76 C 1322.9 1003.8 1369.18 977.683 1418.73 959.301 C 1445.68 949.303 1475.5 936.855 1503.44 930.652 z" fill="rgb(13,150,104)" transform="translate(0,0)"></path>
<path d="M 1172.76 901.386 L 1173.2 901.989 C 1163.47 906.966 1133.16 917.478 1121.21 922.323 C 1087.77 936.244 1054.92 951.568 1022.77 968.256 C 1011.35 974.162 995.98 981.56 985.472 988.491 C 962.47 982.301 924.825 976.247 900.715 972.206 C 895.072 970.997 887.318 969.968 881.485 969.035 C 900.732 959.826 921.51 954.944 941.499 948.093 C 1017.17 922.161 1093.26 909.982 1172.76 901.386 z" fill="rgb(13,150,104)" transform="translate(0,0)"></path>
<path d="M 1687.72 901.427 L 1692.76 901.463 L 1692.49 902.388 C 1688.92 903.565 1685.95 905.018 1682.51 906.356 C 1639.1 923.162 1595.48 939.188 1552.61 957.334 C 1537.66 963.662 1529.12 959.159 1512.89 967.065 L 1511.53 967.718 L 1510.01 966.933 C 1508.7 961.783 1509.38 936.512 1509.47 929.254 C 1567.62 913.169 1627.43 903.832 1687.72 901.427 z" fill="rgb(13,150,104)" transform="translate(0,0)"></path>
<path d="M 509.59 942.963 C 562.543 941.319 615.489 940.923 668.268 946.329 C 675.524 947.072 686.003 948.168 693.118 947.659 C 687.351 964.67 685.468 978.539 684.896 996.605 C 679.312 994.858 665.209 990.014 660.159 988.987 C 630.738 978.616 600.992 969.194 570.966 960.735 C 554.037 955.89 525.222 948.834 509.59 942.963 z" fill="rgb(244,234,215)" transform="translate(0,0)"></path>
<path d="M 1362.76 893.408 C 1390.56 892.692 1410.29 894.564 1437.79 896.386 C 1410.11 906.145 1382.59 916.366 1355.24 927.044 C 1338.45 933.503 1320.84 941.279 1304.11 948.258 L 1304.18 908.938 C 1318.69 904.094 1348.55 894.134 1362.76 893.408 z" fill="rgb(13,150,104)" transform="translate(0,0)"></path>
<path d="M 714.556 962.733 L 715.279 963.45 C 716.707 967.97 717.35 977.361 718.466 982.618 C 719.926 989.492 725.904 1000.6 724.851 1006.7 C 722.263 1008.29 721.811 1007.43 717.992 1006.59 C 712.598 1004.9 708.414 1003.26 703.206 1001.17 C 706.171 987.99 708.458 974.801 714.556 962.733 z" fill="rgb(244,234,215)" transform="translate(0,0)"></path>
<path d="M 1425.76 1009.78 C 1423.14 1020.01 1423.82 1022.8 1425.84 1032.88 L 1397.12 1033.08 L 1381.35 1032.96 C 1385.45 1030.51 1389.76 1028.4 1394.02 1026.23 C 1403.71 1020.56 1415.62 1014.9 1425.76 1009.78 z" fill="rgb(244,234,215)" transform="translate(0,0)"></path>
<path d="M 1394.02 1026.23 C 1395.93 1028.92 1395.8 1031.3 1397.12 1033.08 L 1381.35 1032.96 C 1385.45 1030.51 1389.76 1028.4 1394.02 1026.23 z" fill="rgb(244,234,215)" transform="translate(0,0)"></path>
<path d="M 287.41 859.845 C 289.823 862.102 292.639 888.865 293.211 893.68 C 286.8 892.872 277.053 890.565 270.478 889.197 L 259.309 887.283 C 269.97 883.325 278.112 880.42 287.751 874.364 C 287.553 869.527 287.439 864.686 287.41 859.845 z" fill="rgb(244,234,215)" transform="translate(0,0)"></path>
<path d="M 1304.59 893.067 C 1313.09 894.017 1327.29 892.425 1332.96 893.618 L 1332.6 894.464 L 1327.23 896.055 C 1320.25 898.112 1311.09 903.437 1305.46 901.352 C 1303.71 898.243 1304.44 897.124 1304.59 893.067 z" fill="rgb(13,150,104)" transform="translate(0,0)"></path>
<path d="M 1495.63 980.018 L 1496.31 980.587 C 1495.82 983.708 1490.23 992.259 1487.03 993.605 L 1483.89 992.088 L 1479.35 989.877 L 1479 988.4 C 1481.45 984.869 1491.09 981.835 1495.63 980.018 z" fill="rgb(244,234,215)" transform="translate(0,0)"></path>
<path d="M 208.207 903.047 C 207.601 904.632 206.871 905.972 206.1 907.475 L 204.915 906.918 C 203.558 902.542 203.618 894.246 204.654 889.807 L 207.028 889.054 C 209.815 890.478 213.137 891.628 214.431 894.209 C 212.801 896.629 212.049 897.12 209.76 898.962 L 208.207 903.047 z" fill="rgb(245,158,11)" transform="translate(0,0)"></path>
<path d="M 312.077 949.633 C 316.445 951.931 323.788 952.898 326.515 955.386 L 324.744 956.532 C 320.404 957.867 316.181 959.931 312.34 958.63 C 310.775 955.856 311.64 952.986 312.077 949.633 z" fill="rgb(245,158,11)" transform="translate(0,0)"></path>
<path d="M 733.318 1021 C 734.371 1019.47 734.234 1019.44 735.913 1018.7 C 738.996 1018.85 737.84 1018.39 740.223 1020.56 C 741.814 1025.58 740.738 1028.97 739.03 1033.9 L 737.227 1033.56 C 735.342 1031.14 734.118 1024.36 733.318 1021 z" fill="rgb(244,234,215)" transform="translate(0,0)"></path>
<path d="M 618.238 178.736 C 653.592 156.096 683.971 138.034 722.679 120.281 C 866.753 54.9069 1028.29 38.5716 1182.53 73.7779 C 1290 97.402 1373.41 139.3 1460.87 204.615 C 1502.36 240.641 1528.11 261.866 1560.51 307.075 C 1547.82 313.402 1514.75 328.849 1504.54 335.334 C 1502.02 336.16 1501.11 336.903 1498.74 336.454 C 1490.33 335.276 1479.58 336.24 1471.16 335.905 C 1448.03 334.986 1414.69 337.998 1392.2 335.22 C 1360.22 309.433 1333.36 291.428 1296.69 272.769 C 1302.21 267.259 1306.17 263.438 1312.18 258.501 C 1283.93 246.62 1263.75 236.256 1233.45 225.318 C 1103.99 178.58 974.396 174.46 838.877 192.74 C 813.605 196.214 788.364 199.902 763.154 203.803 C 750.945 205.781 702.426 214.17 692.13 213.248 C 638.898 243.71 586.015 285.303 545.535 331.769 C 543.129 334.53 540.914 336.691 538.029 338.949 C 529.297 334.291 483.788 311.387 480.831 306.172 C 480.643 299.157 492.978 287.549 498.023 282.227 C 512.928 266.586 528.427 251.522 544.487 237.068 C 553.063 229.469 564.108 220.861 572.077 213.461 C 587.485 202.359 603.059 190.237 618.238 178.736 z" fill="rgb(13,150,104)" transform="translate(0,0)"></path>
<path d="M 692.13 213.248 C 723.136 193.311 765.191 173.957 799.731 161.647 C 917.675 119.61 1041.04 111.329 1163.33 138.031 C 1298.53 167.551 1405.55 235.44 1498.74 336.454 C 1490.33 335.276 1479.58 336.24 1471.16 335.905 C 1448.03 334.986 1414.69 337.998 1392.2 335.22 C 1360.22 309.433 1333.36 291.428 1296.69 272.769 C 1302.21 267.259 1306.17 263.438 1312.18 258.501 C 1283.93 246.62 1263.75 236.256 1233.45 225.318 C 1103.99 178.58 974.396 174.46 838.877 192.74 C 813.605 196.214 788.364 199.902 763.154 203.803 C 750.945 205.781 702.426 214.17 692.13 213.248 z" fill="rgb(245,158,11)" transform="translate(0,0)"></path>
<path d="M 1338.91 246.284 C 1350.19 245.721 1370.42 247.939 1377.44 257.997 C 1373.97 259.313 1362.1 253.473 1357.54 251.891 C 1333.59 246.567 1328.31 257.003 1318.07 256.732 L 1317.28 255.667 C 1321.95 249.421 1331.81 247.562 1338.91 246.284 z" fill="rgb(26,58,40)" transform="translate(0,0)"></path>
<path d="M 1399.63 294.436 C 1401.21 294.069 1402.87 294.583 1403.96 295.779 C 1405.06 296.975 1405.42 298.669 1404.92 300.211 C 1404.42 301.753 1403.12 302.904 1401.53 303.224 C 1399.12 303.708 1396.77 302.169 1396.25 299.767 C 1395.73 297.365 1397.24 294.99 1399.63 294.436 z" fill="rgb(202,96,9)" transform="translate(0,0)"></path>
<path d="M 1431.94 306.706 C 1433.04 305.879 1434.5 305.712 1435.76 306.269 C 1437.02 306.826 1437.89 308.02 1438.02 309.392 C 1438.15 310.764 1437.54 312.101 1436.4 312.89 C 1434.7 314.08 1432.35 313.682 1431.13 311.995 C 1429.91 310.307 1430.27 307.954 1431.94 306.706 z" fill="rgb(202,96,9)" transform="translate(0,0)"></path>
<path d="M 165.152 294.349 C 168.763 293.222 202.306 288.493 208.059 287.652 C 238.033 283.271 269.555 276.742 299.417 273.258 L 299.721 274.831 C 302.354 284.825 305.464 291.344 316.325 293.688 C 319.049 292.96 317.818 292.803 320.163 293.833 C 324.834 293.229 327.101 291.806 331.334 289.681 L 332.483 288.43 C 334.959 286.512 335.493 285.437 337.166 282.838 L 337.53 281.101 L 480.772 349.689 L 520.412 368.659 C 525.38 371.038 538.551 377.138 542.723 379.932 L 542.347 381.182 C 542.633 390.597 541.224 394.723 548.056 403.115 C 530.532 421.325 514.803 441.156 497.691 459.742 C 495.389 462.243 493.012 464.702 490.939 467.398 C 483.327 461.946 474.904 462.069 467.115 466.973 L 465.041 466.929 C 462.872 469.395 461.199 471.022 459.855 474.071 L 458.93 475.971 C 457.66 481.045 457.963 487.733 456.417 489.851 L 457.54 491.077 C 461.621 496.855 466.006 502.355 473.518 503.365 L 475.648 504.166 C 482.95 504.339 484.316 503.978 490.936 500.723 L 492.379 498.91 C 509.822 521.495 529.607 543.628 547.473 566.002 C 554.612 574.942 563.76 584.724 570.201 593.916 L 568.719 595.968 C 558.737 607.924 565.83 615.352 562.667 619.585 C 534.268 631.646 505.463 642.414 477.135 654.567 C 471.165 657.128 450.759 665.389 446.248 668.826 C 442.635 662.134 440.791 661.039 434.08 657.279 L 432.439 657.315 C 425.502 656.156 420.869 656.761 414.734 660.844 L 413.689 661.313 C 410.83 663.836 408.823 665.651 406.218 668.436 L 405.939 670.299 L 315.386 620.894 C 301.217 613.328 269.891 597.569 257.489 588.881 L 258.308 587.912 C 257.105 586.354 258.256 579.156 258.104 575.11 L 257.164 572.687 C 255.483 567.929 251.891 565.047 247.894 562.268 L 245.698 562.903 C 238.712 561.047 232.331 561.448 226.034 565.205 L 225.43 565.005 L 223.598 565.538 C 219.104 562.133 204.705 543.95 200.084 538.916 C 181.174 518.317 162.678 494.31 143.026 474.615 L 145.1 473.565 C 149.832 468.992 150.1 465.346 151.545 459.121 L 150.893 457.394 C 146.201 446.962 145.212 444.797 133.779 442.528 L 131.715 442.579 C 136.988 401.477 139.706 359.337 145.384 318.087 L 147.92 317.564 C 153.388 316.265 156.472 314.013 160.503 310.351 L 161.444 308.985 C 164.335 304.809 164.71 301.307 165.125 296.419 L 165.152 294.349 z" fill="rgb(244,234,215)" transform="translate(0,0)"></path>
<path d="M 379.181 522.577 C 381.996 520.848 393.433 516.633 397.036 515.338 C 416.802 508.238 436.921 496.799 456.417 489.851 L 457.54 491.077 C 461.621 496.855 466.006 502.355 473.518 503.365 L 475.648 504.166 C 482.95 504.339 484.316 503.978 490.936 500.723 L 492.379 498.91 C 509.822 521.495 529.607 543.628 547.473 566.002 C 554.612 574.942 563.76 584.724 570.201 593.916 L 568.719 595.968 C 558.737 607.924 565.83 615.352 562.667 619.585 C 534.268 631.646 505.463 642.414 477.135 654.567 C 471.165 657.128 450.759 665.389 446.248 668.826 C 442.635 662.134 440.791 661.039 434.08 657.279 L 432.439 657.315 C 425.502 656.156 420.869 656.761 414.734 660.844 L 413.689 661.313 C 410.83 663.836 408.823 665.651 406.218 668.436 L 405.939 670.299 L 315.386 620.894 C 301.217 613.328 269.891 597.569 257.489 588.881 L 258.308 587.912 C 257.105 586.354 258.256 579.156 258.104 575.11 L 257.164 572.687 L 309.309 549.871 C 318.348 545.987 331.278 541.208 339.705 536.888 L 341.028 538.553 C 348.819 549.864 351.831 550.035 365.252 550.007 L 366.882 549.199 C 377.749 543.43 380.733 536.377 378.61 524.684 L 379.181 522.577 z" fill="rgb(244,234,215)" transform="translate(0,0)"></path>
<path d="M 490.936 500.723 L 492.379 498.91 C 509.822 521.495 529.607 543.628 547.473 566.002 C 554.612 574.942 563.76 584.724 570.201 593.916 L 568.719 595.968 C 558.737 607.924 565.83 615.352 562.667 619.585 C 534.268 631.646 505.463 642.414 477.135 654.567 C 471.165 657.128 450.759 665.389 446.248 668.826 C 442.635 662.134 440.791 661.039 434.08 657.279 C 446.945 606.313 463.298 554.998 475.648 504.166 C 482.95 504.339 484.316 503.978 490.936 500.723 z" fill="rgb(244,234,215)" transform="translate(0,0)"></path>
<path d="M 490.936 500.723 L 492.379 498.91 C 509.822 521.495 529.607 543.628 547.473 566.002 C 554.612 574.942 563.76 584.724 570.201 593.916 L 568.719 595.968 C 559.368 582.997 547.278 569.057 537.01 556.543 C 521.784 537.828 506.425 519.22 490.936 500.723 z" fill="rgb(245,158,11)" transform="translate(0,0)"></path>
<path d="M 339.705 536.888 L 341.028 538.553 C 348.819 549.864 351.831 550.035 365.252 550.007 C 378.754 583.808 394.762 616.815 408.796 650.425 C 410.289 654.002 411.892 657.91 413.689 661.313 C 410.83 663.836 408.823 665.651 406.218 668.436 L 405.939 670.299 L 315.386 620.894 C 301.217 613.328 269.891 597.569 257.489 588.881 L 258.308 587.912 C 257.105 586.354 258.256 579.156 258.104 575.11 L 257.164 572.687 L 309.309 549.871 C 318.348 545.987 331.278 541.208 339.705 536.888 z" fill="rgb(244,234,215)" transform="translate(0,0)"></path>
<path d="M 258.308 587.912 C 264.6 590.207 284.15 601.544 291.521 605.521 C 316.952 619.111 342.286 632.883 367.519 646.836 C 375.949 651.48 400.286 663.534 406.218 668.436 L 405.939 670.299 L 315.386 620.894 C 301.217 613.328 269.891 597.569 257.489 588.881 L 258.308 587.912 z" fill="rgb(245,158,11)" transform="translate(0,0)"></path>
<path d="M 339.705 536.888 L 341.028 538.553 C 314.176 549.859 285.882 561.872 259.653 574.536 C 258.697 574.997 259.525 574.682 258.104 575.11 L 257.164 572.687 L 309.309 549.871 C 318.348 545.987 331.278 541.208 339.705 536.888 z" fill="rgb(245,158,11)" transform="translate(0,0)"></path>
<path d="M 473.518 503.365 L 475.648 504.166 C 463.298 554.998 446.945 606.313 434.08 657.279 L 432.439 657.315 C 433.057 650.417 440.741 624.455 442.959 616.004 C 452.88 578.205 464.549 541.533 473.518 503.365 z" fill="rgb(245,158,11)" transform="translate(0,0)"></path>
<path d="M 365.252 550.007 L 366.882 549.199 C 382.642 585.915 400.575 623.701 414.734 660.844 L 413.689 661.313 C 411.892 657.91 410.289 654.002 408.796 650.425 C 394.762 616.815 378.754 583.808 365.252 550.007 z" fill="rgb(245,158,11)" transform="translate(0,0)"></path>
<path d="M 379.181 522.577 C 381.996 520.848 393.433 516.633 397.036 515.338 C 416.802 508.238 436.921 496.799 456.417 489.851 L 457.54 491.077 C 436.283 501.635 400.524 516.812 378.61 524.684 L 379.181 522.577 z" fill="rgb(245,158,11)" transform="translate(0,0)"></path>
<path d="M 165.152 294.349 C 168.763 293.222 202.306 288.493 208.059 287.652 C 238.033 283.271 269.555 276.742 299.417 273.258 L 299.721 274.831 C 302.354 284.825 305.464 291.344 316.325 293.688 C 311.261 324.121 307.325 354.706 302.476 385.23 C 295.276 385.096 290.42 386.824 285.123 391.95 C 284.542 392.513 283.973 393.087 283.414 393.672 L 282.39 395.085 C 279.48 401.975 279.27 406.37 281.074 413.795 C 238.434 426.77 192.486 445.434 150.893 457.394 C 146.201 446.962 145.212 444.797 133.779 442.528 L 131.715 442.579 C 136.988 401.477 139.706 359.337 145.384 318.087 L 147.92 317.564 C 153.388 316.265 156.472 314.013 160.503 310.351 L 161.444 308.985 C 164.335 304.809 164.71 301.307 165.125 296.419 L 165.152 294.349 z" fill="rgb(244,234,215)" transform="translate(0,0)"></path>
<path d="M 165.152 294.349 C 168.763 293.222 202.306 288.493 208.059 287.652 C 238.033 283.271 269.555 276.742 299.417 273.258 L 299.721 274.831 C 302.354 284.825 305.464 291.344 316.325 293.688 C 311.261 324.121 307.325 354.706 302.476 385.23 C 295.276 385.096 290.42 386.824 285.123 391.95 C 284.542 392.513 283.973 393.087 283.414 393.672 L 282.39 395.085 C 277.316 390.018 255.674 376.404 248.757 371.612 L 160.503 310.351 L 161.444 308.985 C 164.335 304.809 164.71 301.307 165.125 296.419 L 165.152 294.349 z" fill="rgb(244,234,215)" transform="translate(0,0)"></path>
<path d="M 161.444 308.985 C 188.525 327.262 215.414 345.823 242.105 364.665 C 253.005 372.237 273.765 385.708 283.414 393.672 L 282.39 395.085 C 277.316 390.018 255.674 376.404 248.757 371.612 L 160.503 310.351 L 161.444 308.985 z" fill="rgb(245,158,11)" transform="translate(0,0)"></path>
<path d="M 165.152 294.349 C 168.763 293.222 202.306 288.493 208.059 287.652 C 238.033 283.271 269.555 276.742 299.417 273.258 L 299.721 274.831 C 267.415 281.11 232.912 284.91 200.411 290.822 C 193.172 292.139 170.287 294.852 165.125 296.419 L 165.152 294.349 z" fill="rgb(245,158,11)" transform="translate(0,0)"></path>
<path d="M 145.384 318.087 L 147.92 317.564 C 146.045 325.573 145.359 333.821 144.432 341.986 C 140.648 375.334 138.377 409.307 133.779 442.528 L 131.715 442.579 C 136.988 401.477 139.706 359.337 145.384 318.087 z" fill="rgb(245,158,11)" transform="translate(0,0)"></path>
<path d="M 281.074 413.795 L 281.866 415.312 C 285.943 420.145 288.377 423.097 294.661 424.509 L 296.925 425.488 C 303.496 426.483 306.877 425.274 309.564 425.608 C 317.033 444.197 326.899 464.171 335.31 482.512 C 338.331 489.099 346.861 509.561 349.755 514.407 C 341.505 518.875 337.941 527.82 339.705 536.888 C 331.278 541.208 318.348 545.987 309.309 549.871 L 257.164 572.687 C 255.483 567.929 251.891 565.047 247.894 562.268 L 245.698 562.903 C 238.712 561.047 232.331 561.448 226.034 565.205 L 225.43 565.005 L 223.598 565.538 C 219.104 562.133 204.705 543.95 200.084 538.916 C 181.174 518.317 162.678 494.31 143.026 474.615 L 145.1 473.565 C 149.832 468.992 150.1 465.346 151.545 459.121 L 150.893 457.394 C 192.486 445.434 238.434 426.77 281.074 413.795 z" fill="rgb(244,234,215)" transform="translate(0,0)"></path>
<path d="M 296.925 425.488 C 303.496 426.483 306.877 425.274 309.564 425.608 C 317.033 444.197 326.899 464.171 335.31 482.512 C 338.331 489.099 346.861 509.561 349.755 514.407 C 341.505 518.875 337.941 527.82 339.705 536.888 C 331.278 541.208 318.348 545.987 309.309 549.871 L 257.164 572.687 C 255.483 567.929 251.891 565.047 247.894 562.268 C 249.55 553.021 295.369 426.999 296.925 425.488 z" fill="rgb(244,234,215)" transform="translate(0,0)"></path>
<path d="M 294.661 424.509 L 296.925 425.488 C 295.369 426.999 249.55 553.021 247.894 562.268 L 245.698 562.903 C 247.638 551.605 259.455 521.797 263.717 509.551 C 273.527 481.367 284.052 452.446 294.661 424.509 z" fill="rgb(245,158,11)" transform="translate(0,0)"></path>
<path d="M 281.074 413.795 L 281.866 415.312 L 194.544 444.878 C 183.562 448.571 161.848 456.56 151.545 459.121 L 150.893 457.394 C 192.486 445.434 238.434 426.77 281.074 413.795 z" fill="rgb(245,158,11)" transform="translate(0,0)"></path>
<path d="M 143.026 474.615 L 145.1 473.565 C 171.098 498.766 199.37 537.324 225.43 565.005 L 223.598 565.538 C 219.104 562.133 204.705 543.95 200.084 538.916 C 181.174 518.317 162.678 494.31 143.026 474.615 z" fill="rgb(245,158,11)" transform="translate(0,0)"></path>
<path d="M 337.166 282.838 L 337.53 281.101 L 480.772 349.689 L 520.412 368.659 C 525.38 371.038 538.551 377.138 542.723 379.932 L 542.347 381.182 C 542.633 390.597 541.224 394.723 548.056 403.115 C 530.532 421.325 514.803 441.156 497.691 459.742 C 495.389 462.243 493.012 464.702 490.939 467.398 C 483.327 461.946 474.904 462.069 467.115 466.973 L 465.041 466.929 C 458.298 456.203 437.991 431.091 429.362 419.703 L 361.151 329.124 C 351.706 316.521 340.138 302.291 331.334 289.681 L 332.483 288.43 C 334.959 286.512 335.493 285.437 337.166 282.838 z" fill="rgb(244,234,215)" transform="translate(0,0)"></path>
<path d="M 337.166 282.838 L 337.53 281.101 L 480.772 349.689 L 520.412 368.659 C 525.38 371.038 538.551 377.138 542.723 379.932 L 542.347 381.182 C 532.023 377.086 517.376 369.602 507.171 364.685 C 485.961 354.511 464.809 344.218 443.716 333.806 C 408.648 316.635 371.891 300.443 337.166 282.838 z" fill="rgb(245,158,11)" transform="translate(0,0)"></path>
<path d="M 332.483 288.43 C 345.802 304.494 465.839 462.887 467.115 466.973 L 465.041 466.929 C 458.298 456.203 437.991 431.091 429.362 419.703 L 361.151 329.124 C 351.706 316.521 340.138 302.291 331.334 289.681 L 332.483 288.43 z" fill="rgb(245,158,11)" transform="translate(0,0)"></path>
<path d="M 320.646 415.787 C 328.533 420.734 356.1 432.298 366.404 436.514 C 395.214 448.303 430.189 465.546 458.93 475.971 C 457.66 481.045 457.963 487.733 456.417 489.851 C 436.921 496.799 416.802 508.238 397.036 515.338 C 393.433 516.633 381.996 520.848 379.181 522.577 L 378.61 524.684 C 380.733 536.377 377.749 543.43 366.882 549.199 L 365.252 550.007 C 351.831 550.035 348.819 549.864 341.028 538.553 L 339.705 536.888 C 337.941 527.82 341.505 518.875 349.755 514.407 C 346.861 509.561 338.331 489.099 335.31 482.512 C 326.899 464.171 317.033 444.197 309.564 425.608 L 311.4 424.511 C 316.071 421.546 317.071 420.109 320.646 415.787 z" fill="rgb(244,234,215)" transform="translate(0,0)"></path>
<path d="M 351.669 513.48 C 363.827 507.892 371.232 513.808 379.181 522.577 L 378.61 524.684 C 380.733 536.377 377.749 543.43 366.882 549.199 L 365.252 550.007 C 351.831 550.035 348.819 549.864 341.028 538.553 L 339.705 536.888 C 337.941 527.82 341.505 518.875 349.755 514.407 L 351.669 513.48 z" fill="rgb(245,158,11)" transform="translate(0,0)"></path>
<path d="M 309.564 425.608 L 311.4 424.511 C 324.346 454.381 337.771 484.041 351.669 513.48 L 349.755 514.407 C 346.861 509.561 338.331 489.099 335.31 482.512 C 326.899 464.171 317.033 444.197 309.564 425.608 z" fill="rgb(245,158,11)" transform="translate(0,0)"></path>
<path d="M 302.476 385.23 L 306.001 385.437 C 320.391 389.608 326.892 399.651 320.964 414.179 L 320.646 415.787 C 317.071 420.109 316.071 421.546 311.4 424.511 L 309.564 425.608 C 306.877 425.274 303.496 426.483 296.925 425.488 L 294.661 424.509 C 288.377 423.097 285.943 420.145 281.866 415.312 L 281.074 413.795 C 279.27 406.37 279.48 401.975 282.39 395.085 L 283.414 393.672 C 283.973 393.087 284.542 392.513 285.123 391.95 C 290.42 386.824 295.276 385.096 302.476 385.23 z" fill="rgb(245,158,11)" transform="translate(0,0)"></path>
<path d="M 320.964 414.179 C 331.992 420.194 353.668 428.467 366.406 434.143 C 387.927 443.907 409.626 453.277 431.491 462.247 C 439.28 465.503 452.186 471.524 459.855 474.071 L 458.93 475.971 C 430.189 465.546 395.214 448.303 366.404 436.514 C 356.1 432.298 328.533 420.734 320.646 415.787 L 320.964 414.179 z" fill="rgb(245,158,11)" transform="translate(0,0)"></path>
<path d="M 316.325 293.688 C 319.049 292.96 317.818 292.803 320.163 293.833 C 319.647 294.373 318.945 295.107 318.056 296.036 C 313.475 324.95 309.316 354.122 305.087 383.104 C 304.985 383.803 305.763 385.17 306.001 385.437 L 302.476 385.23 C 307.325 354.706 311.261 324.121 316.325 293.688 z" fill="rgb(245,158,11)" transform="translate(0,0)"></path>
<path d="M 655.42 497.689 C 667.784 499.743 693.595 507.739 706.6 511.264 C 721.042 515.177 744.305 520.576 757.829 525.475 C 784.03 492.25 810.226 553.657 774.122 552.806 C 769.958 574.738 767.11 598.527 762.805 620.641 C 760.792 630.983 759.673 643.508 756.952 653.459 C 764.218 659.62 765.374 661.048 768.379 670.049 C 830.684 661.983 886.827 650.195 950.761 647.869 C 950.787 648.88 950.833 649.891 950.901 650.901 C 864.317 668.172 779.919 704.086 703.208 747.062 C 685.363 757.06 666.317 767.051 649.448 778.421 L 646.938 776.765 L 646.175 774.186 L 645.021 772.308 C 641.011 768.819 634.636 766.204 629.219 766.413 L 624.444 767.131 C 619.63 769.451 618.735 770.703 615.213 774.779 L 613.786 775.787 C 608.313 774.658 574.072 756.042 566.786 752.223 C 542.045 739.136 517.192 726.263 492.229 713.605 C 476.898 705.684 458.912 695.843 443.285 688.937 L 445.005 687.087 C 448.426 680.933 447.528 676.291 446.668 669.419 L 446.248 668.826 C 450.759 665.389 471.165 657.128 477.135 654.567 C 505.463 642.414 534.268 631.646 562.667 619.585 L 564.618 621.27 C 572.443 627.662 575.83 631.591 586.307 630.722 C 586.999 630.277 589.274 629.751 590.206 629.494 C 596.035 628.533 599.553 623.105 603.116 618.598 L 603.063 617.13 C 608.419 603.886 602.348 597.257 592.272 589.86 C 602.027 567.646 615.045 533.925 622.629 510.94 C 631.096 514.778 636.564 515.444 644.65 510.331 L 646.22 509.716 C 650.914 505.895 651.081 504.183 654.488 499.385 L 655.42 497.689 z" fill="rgb(244,234,215)" transform="translate(0,0)"></path>
<path d="M 655.42 497.689 C 667.784 499.743 693.595 507.739 706.6 511.264 C 721.042 515.177 744.305 520.576 757.829 525.475 C 784.03 492.25 810.226 553.657 774.122 552.806 C 769.958 574.738 767.11 598.527 762.805 620.641 C 760.792 630.983 759.673 643.508 756.952 653.459 L 754.854 653.062 C 746.715 651.673 743.976 651.906 736.455 655.713 L 734.271 656.651 C 729.814 659.958 728.973 661.16 726.01 665.908 C 718.806 659.964 617.283 621.787 603.063 617.13 C 608.419 603.886 602.348 597.257 592.272 589.86 C 602.027 567.646 615.045 533.925 622.629 510.94 C 631.096 514.778 636.564 515.444 644.65 510.331 L 646.22 509.716 C 650.914 505.895 651.081 504.183 654.488 499.385 L 655.42 497.689 z" fill="rgb(244,234,215)" transform="translate(0,0)"></path>
<path d="M 644.65 510.331 L 734.271 656.651 C 729.814 659.958 728.973 661.16 726.01 665.908 C 718.806 659.964 617.283 621.787 603.063 617.13 C 608.419 603.886 602.348 597.257 592.272 589.86 C 602.027 567.646 615.045 533.925 622.629 510.94 C 631.096 514.778 636.564 515.444 644.65 510.331 z" fill="rgb(244,234,215)" transform="translate(0,0)"></path>
<path d="M 757.829 525.475 C 784.03 492.25 810.226 553.657 774.122 552.806 C 773.294 552.601 770.701 552.501 769.703 552.435 C 757.592 549.89 752.534 537.849 756.165 526.648 L 757.829 525.475 z" fill="rgb(245,158,11)" transform="translate(0,0)"></path>
<path d="M 644.65 510.331 L 646.22 509.716 L 705.027 604.292 C 714.98 620.6 725.863 640.162 736.455 655.713 L 734.271 656.651 L 644.65 510.331 z" fill="rgb(245,158,11)" transform="translate(0,0)"></path>
<path d="M 769.703 552.435 C 770.701 552.501 773.294 552.601 774.122 552.806 C 769.958 574.738 767.11 598.527 762.805 620.641 C 760.792 630.983 759.673 643.508 756.952 653.459 L 754.854 653.062 C 758.61 635.537 761.168 614.566 764.617 596.773 C 765.729 591.038 772.04 557.234 771.849 553.645 L 769.703 552.435 z" fill="rgb(245,158,11)" transform="translate(0,0)"></path>
<path d="M 655.42 497.689 C 667.784 499.743 693.595 507.739 706.6 511.264 C 721.042 515.177 744.305 520.576 757.829 525.475 L 756.165 526.648 C 722.562 517.267 688.215 508.411 654.488 499.385 L 655.42 497.689 z" fill="rgb(245,158,11)" transform="translate(0,0)"></path>
<path d="M 446.248 668.826 C 450.759 665.389 471.165 657.128 477.135 654.567 C 505.463 642.414 534.268 631.646 562.667 619.585 L 564.618 621.27 C 572.443 627.662 575.83 631.591 586.307 630.722 C 590.285 632.464 591.605 640.634 592.732 644.929 C 603.347 685.37 615.14 726.4 624.444 767.131 C 619.63 769.451 618.735 770.703 615.213 774.779 L 613.786 775.787 C 608.313 774.658 574.072 756.042 566.786 752.223 C 542.045 739.136 517.192 726.263 492.229 713.605 C 476.898 705.684 458.912 695.843 443.285 688.937 L 445.005 687.087 C 448.426 680.933 447.528 676.291 446.668 669.419 L 446.248 668.826 z" fill="rgb(244,234,215)" transform="translate(0,0)"></path>
<path d="M 445.005 687.087 C 483.261 706.323 521.323 725.941 559.186 745.94 C 576.29 754.836 598.238 767.008 615.213 774.779 L 613.786 775.787 C 608.313 774.658 574.072 756.042 566.786 752.223 C 542.045 739.136 517.192 726.263 492.229 713.605 C 476.898 705.684 458.912 695.843 443.285 688.937 L 445.005 687.087 z" fill="rgb(245,158,11)" transform="translate(0,0)"></path>
<path d="M 446.248 668.826 C 450.759 665.389 471.165 657.128 477.135 654.567 C 505.463 642.414 534.268 631.646 562.667 619.585 L 564.618 621.27 C 535.544 631.898 505.803 645.916 476.754 657.115 C 468.472 660.308 454.59 666.877 446.668 669.419 L 446.248 668.826 z" fill="rgb(245,158,11)" transform="translate(0,0)"></path>
<path d="M 768.379 670.049 C 830.684 661.983 886.827 650.195 950.761 647.869 C 950.787 648.88 950.833 649.891 950.901 650.901 C 864.317 668.172 779.919 704.086 703.208 747.062 C 685.363 757.06 666.317 767.051 649.448 778.421 L 646.938 776.765 L 646.175 774.186 L 645.021 772.308 C 652.413 766.225 665.883 751.602 673.273 744.297 C 692.424 725.415 711.901 706.867 731.696 688.661 C 731.058 687.872 730.439 687.068 729.841 686.249 C 725.184 679.833 724.971 675.316 726.15 667.81 L 726.01 665.908 C 728.973 661.16 729.814 659.958 734.271 656.651 L 736.455 655.713 C 743.976 651.906 746.715 651.673 754.854 653.062 L 756.952 653.459 C 764.218 659.62 765.374 661.048 768.379 670.049 z" fill="rgb(244,234,215)" transform="translate(0,0)"></path>
<path d="M 736.455 655.713 C 743.976 651.906 746.715 651.673 754.854 653.062 L 756.952 653.459 C 764.218 659.62 765.374 661.048 768.379 670.049 L 767.558 677.002 C 765.841 689.887 756.36 692.264 745.22 694.167 C 741.2 692.853 736.827 691.647 733.28 689.398 L 731.696 688.661 C 731.058 687.872 730.439 687.068 729.841 686.249 C 725.184 679.833 724.971 675.316 726.15 667.81 L 726.01 665.908 C 728.973 661.16 729.814 659.958 734.271 656.651 L 736.455 655.713 z" fill="rgb(245,158,11)" transform="translate(0,0)"></path>
<path d="M 768.379 670.049 C 830.684 661.983 886.827 650.195 950.761 647.869 C 950.787 648.88 950.833 649.891 950.901 650.901 C 864.317 668.172 779.919 704.086 703.208 747.062 C 685.363 757.06 666.317 767.051 649.448 778.421 L 646.938 776.765 C 728.849 728.794 811.15 683.847 903.571 659.364 C 913.929 656.62 924.292 653.907 934.662 651.213 C 931.223 651.233 927.781 651.683 924.354 651.919 C 880.269 654.955 836.729 661.998 793.071 668.543 C 785.518 669.676 776.877 670.507 769.542 672.462 L 767.558 677.002 L 768.379 670.049 z" fill="rgb(245,158,11)" transform="translate(0,0)"></path>
<path d="M 731.696 688.661 L 733.28 689.398 C 705.038 718.038 674.756 745.158 646.175 774.186 L 645.021 772.308 C 652.413 766.225 665.883 751.602 673.273 744.297 C 692.424 725.415 711.901 706.867 731.696 688.661 z" fill="rgb(245,158,11)" transform="translate(0,0)"></path>
<path d="M 586.307 630.722 C 586.999 630.277 589.274 629.751 590.206 629.494 C 598.247 656.385 605.607 683.475 612.28 710.737 C 614.843 720.831 623.409 760.204 629.219 766.413 L 624.444 767.131 C 615.14 726.4 603.347 685.37 592.732 644.929 C 591.605 640.634 590.285 632.464 586.307 630.722 z" fill="rgb(245,158,11)" transform="translate(0,0)"></path>
<path d="M 603.063 617.13 C 617.283 621.787 718.806 659.964 726.01 665.908 L 726.15 667.81 C 714.97 662.215 704.774 658.92 693.538 654.15 C 663.536 641.414 633.227 631.129 603.116 618.598 L 603.063 617.13 z" fill="rgb(245,158,11)" transform="translate(0,0)"></path>
<path d="M 674.063 413.079 C 666.231 408.463 622.663 382.558 618.15 378.078 C 617.127 370.998 631.573 359.502 636.704 354.699 C 727.268 269.924 847.19 218.105 970.506 206.166 C 1083.42 195.733 1196.91 218.905 1296.69 272.769 C 1333.36 291.428 1360.22 309.433 1392.2 335.22 C 1408.26 349.912 1421.46 359.874 1436.12 376.462 C 1424.44 380.931 1383.7 404.429 1372.11 411.581 C 1358.86 397.859 1342.89 383.984 1327.82 372.33 C 1151.04 235.592 879.254 235.944 708.18 382.347 C 696.485 392.355 685.61 402.946 674.063 413.079 z" fill="rgb(13,150,104)" transform="translate(0,0)"></path>
<path d="M 1460.87 204.615 C 1477.93 172.124 1501.35 150.456 1536.78 139.212 C 1593.62 121.172 1662.58 147.773 1680.39 207.566 C 1682.22 213.701 1683.29 219.663 1684.41 225.929 C 1701.79 225.825 1715.33 226.394 1730.99 234.886 C 1755.09 247.952 1770.43 269.738 1773.39 297.024 C 1814.73 288.122 1850.15 295.374 1870.98 335.875 L 1606.62 335.825 L 1541.7 336.017 C 1533.95 336.071 1511 336.587 1504.54 335.334 C 1514.75 328.849 1547.82 313.402 1560.51 307.075 C 1528.11 261.866 1502.36 240.641 1460.87 204.615 z" fill="rgb(245,158,11)" transform="translate(0,0)"></path>
<path d="M 1558.28 155.387 C 1592.72 153.322 1621.78 168.188 1641.72 196.374 C 1650.97 209.449 1653.98 220.986 1657.22 236.43 C 1670.96 235.042 1683.55 235.351 1696.78 239.698 C 1715.11 245.851 1730.28 258.994 1738.97 276.268 C 1741.19 280.785 1745.47 290.13 1743.84 294.807 L 1742.04 295.641 C 1739.62 294.137 1736.41 281.534 1733.6 276.238 C 1730.25 270.058 1725.97 264.427 1720.91 259.541 C 1704.62 243.813 1685.72 240.488 1664.25 240.969 C 1663.01 241.075 1661.76 241.168 1660.51 241.248 C 1659 241.342 1654 241.563 1653.63 240.173 C 1647.54 216.901 1645.07 203.658 1626.89 185.741 C 1589.7 149.083 1532.1 153.045 1498.4 192.196 C 1491.57 200.133 1487.52 210.828 1480.49 218.991 L 1478.63 218.102 C 1489.41 183.909 1522.76 158.522 1558.28 155.387 z" fill="rgb(26,58,40)" transform="translate(0,0)"></path>
<path d="M 1620.68 287.686 C 1622.21 286.442 1624.32 286.168 1626.12 286.977 C 1627.92 287.786 1629.11 289.54 1629.21 291.513 C 1629.3 293.487 1628.27 295.344 1626.55 296.316 C 1624.18 297.657 1621.18 296.957 1619.64 294.704 C 1618.11 292.452 1618.56 289.4 1620.68 287.686 z" fill="rgb(202,96,9)" transform="translate(0,0)"></path>
<path d="M 1692.08 292.293 C 1694.78 291.732 1697.43 293.401 1698.09 296.071 C 1698.76 298.742 1697.19 301.457 1694.54 302.219 C 1692.74 302.738 1690.8 302.231 1689.49 300.897 C 1688.17 299.564 1687.69 297.618 1688.23 295.824 C 1688.77 294.03 1690.25 292.676 1692.08 292.293 z" fill="rgb(202,96,9)" transform="translate(0,0)"></path>
<path d="M 1619.53 228.594 C 1621.89 227.664 1624.56 228.745 1625.62 231.055 C 1626.67 233.364 1625.73 236.093 1623.48 237.264 C 1621.91 238.078 1620.02 237.962 1618.57 236.963 C 1617.12 235.963 1616.33 234.244 1616.53 232.491 C 1616.73 230.739 1617.89 229.24 1619.53 228.594 z" fill="rgb(202,96,9)" transform="translate(0,0)"></path>
<path d="M 1546.67 247.601 C 1548.88 247.114 1551.06 248.506 1551.54 250.71 C 1552.03 252.914 1550.63 255.094 1548.43 255.578 C 1546.23 256.061 1544.05 254.669 1543.57 252.468 C 1543.08 250.266 1544.47 248.088 1546.67 247.601 z" fill="rgb(202,96,9)" transform="translate(0,0)"></path>
<path d="M 1560.27 185.335 C 1562.3 184.996 1564.27 186.227 1564.85 188.205 C 1565.44 190.183 1564.45 192.285 1562.56 193.105 C 1561.11 193.731 1559.43 193.468 1558.25 192.428 C 1557.06 191.389 1556.58 189.759 1557.01 188.243 C 1557.45 186.726 1558.71 185.594 1560.27 185.335 z" fill="rgb(202,96,9)" transform="translate(0,0)"></path>
<path d="M 1763.95 322.443 C 1765.03 321.584 1766.5 321.39 1767.76 321.939 C 1769.03 322.487 1769.89 323.688 1770.01 325.064 C 1770.12 326.44 1769.47 327.767 1768.31 328.517 C 1766.63 329.601 1764.4 329.179 1763.24 327.557 C 1762.07 325.935 1762.39 323.685 1763.95 322.443 z" fill="rgb(202,96,9)" transform="translate(0,0)"></path>
<path d="M 998.881 330.425 C 1006.12 329.642 1017.55 329.734 1025.04 329.777 C 1113.53 330.293 1200.7 354.63 1272.91 406.708 C 1287.62 417.316 1304.38 429.505 1317.17 442.415 C 1297.31 452.581 1275.13 466.974 1256.39 479.242 C 1193.93 426.095 1130.49 404.537 1050.14 395.354 C 1043.56 394.939 1036.97 394.621 1030.37 394.401 C 946.673 391.442 852.864 422.564 791.193 480.038 C 772.702 468.039 750.995 453.626 731.723 443.256 C 811.048 372.227 892.709 337.424 998.881 330.425 z" fill="rgb(13,150,104)" transform="translate(0,0)"></path>
<path d="M 373.431 129.928 C 383.903 110.079 396.854 93.5008 418.169 84.7456 C 460.656 67.2941 505.118 84.3125 522.77 127.293 C 542.783 126.305 557.366 126.355 574.747 138.631 C 589.754 149.23 594.977 157.448 598.193 174.655 C 607.322 174.577 610.096 174.731 618.238 178.736 C 603.059 190.237 587.485 202.359 572.077 213.461 C 556.863 214.849 536.613 214.238 521.094 214.175 L 442.001 213.929 L 184.16 214.002 L 184.718 212.361 C 195.392 181.41 222.669 162.64 256.034 165.768 C 265.026 166.611 272.22 169.291 280.67 172.241 C 286.74 143.727 301.068 125.826 331.472 119.498 C 345.599 116.558 361.77 121.601 373.431 129.928 z" fill="rgb(245,158,11)" transform="translate(0,0)"></path>
<path d="M 504.391 143.555 C 502.4 127.206 491.175 112.454 476.837 104.741 C 462.431 97.0749 445.562 95.4719 429.97 100.288 C 405.377 107.976 400.008 129.025 394.733 130.667 C 393.753 127.277 396.868 120.962 398.709 118.131 C 406.505 106.142 420.406 97.9701 434.164 94.8825 C 451.301 90.911 469.317 94.0962 484.054 103.703 C 498.212 112.976 504.512 125.199 507.935 141.403 C 517.861 137.137 529.895 141.758 539.516 144.096 C 548.053 146.17 567.316 163.03 565.202 171.703 C 555.481 169.607 558.481 144.045 511.726 145.348 C 509.291 145.416 506.328 146.154 504.447 144.563 L 504.391 143.555 z" fill="rgb(26,58,40)" transform="translate(0,0)"></path>
<path d="M 336.151 134.3 C 339.468 134.037 346.325 133.971 348.853 135.916 L 348.765 137.901 C 345.284 139.689 343.129 137.765 338.926 138.383 C 322.128 140.854 317.181 143.41 306.792 155.976 C 305.163 159.366 304.178 162.996 300.395 163.827 L 299.606 161.994 C 302.199 144.819 321.166 137.019 336.151 134.3 z" fill="rgb(26,58,40)" transform="translate(0,0)"></path>
<path d="M 1484.75 456.969 C 1489.57 447.436 1494.04 438.338 1501.18 430.326 C 1548.91 376.735 1632.6 390.972 1654.64 460.561 C 1654.83 461.191 1655.02 461.825 1655.2 462.463 C 1672.96 453.789 1688.69 449.71 1708.5 456.425 C 1723.58 461.537 1735.91 472.593 1742.63 487.026 C 1745.16 492.348 1746.53 497.387 1747.99 503.026 L 1600.84 503.031 C 1572.34 502.981 1538.75 502.095 1510.49 503.24 C 1508.97 499.859 1507.96 497.787 1504.53 496.542 C 1501.01 498.583 1501.86 498.544 1499.75 502.861 L 1326.85 503.221 C 1342.98 476.776 1358.78 459.024 1388.49 447.609 C 1423.05 434.326 1453.06 439.773 1484.75 456.969 z" fill="rgb(245,158,11)" transform="translate(0,0)"></path>
<path d="M 124.782 825.271 C 68.9779 816.472 71.087 703.334 76.9757 661.291 C 81.0906 631.913 112.186 528.968 154.159 590.548 C 182.708 632.433 185.124 707.82 176.75 755.925 C 172.055 782.967 159.489 820.27 128.826 825.854 C 128.926 830.666 129.636 836.466 127.442 840.591 L 126.147 840.246 C 124.103 835.732 124.685 830.307 124.782 825.271 z" fill="rgb(13,150,104)" transform="translate(0,0)"></path>
<path d="M 124.684 662.029 L 124.778 661.063 C 125.711 650.988 124.421 636.359 125.81 627.434 L 126.909 627.53 C 130.286 635.119 128.801 654.12 129.051 663.774 L 129.659 663.316 C 134.568 659.558 145.861 646.333 149.617 645.56 L 151.127 646.83 C 150.937 653.238 134.795 665.417 129.117 671.631 L 129.094 716.145 C 134.32 710.671 148.502 692.979 155.215 693.972 L 155.923 695.416 C 150.024 704.614 136.754 713.727 129.128 723.54 C 128.98 737.306 128.921 751.072 128.949 764.839 C 133.401 760.307 148.784 743.255 153.593 742.688 L 154.745 743.676 C 153.354 749.89 134.484 766.241 128.727 773.152 C 128.845 790.012 129.401 809.177 128.826 825.854 C 128.926 830.666 129.636 836.466 127.442 840.591 L 126.147 840.246 C 124.103 835.732 124.685 830.307 124.782 825.271 C 124.404 808.914 124.914 790.529 124.995 774.011 C 118.923 766.501 98.4713 750.798 97.6092 744.347 L 99.1769 743.303 C 103.529 743.897 120.77 762.393 124.985 766.668 L 125.072 724.949 C 120.089 720.088 97.1384 699.023 96.6907 694.262 L 98.6995 692.885 C 102.419 693.859 120.622 713.248 124.941 717.602 L 125.332 671.025 C 120.629 666.086 102.452 652.592 103.766 646.795 C 110.765 646.67 118.008 659.859 124.684 662.029 z" fill="rgb(26,58,40)" transform="translate(0,0)"></path>
<path d="M 1004.26 455.439 C 1013.32 454.002 1035.11 454.772 1044.56 455.607 C 1108.59 461.261 1149.38 478.589 1201.94 513.617 C 1183.82 526.672 1157.71 542.715 1138.44 555.348 C 1112.64 536.683 1074.76 523.558 1042.87 520.693 C 997.394 514.816 946.314 529.209 909.163 555.723 C 892.39 543.001 865.16 527.688 846.573 516.045 C 890.044 477.221 946.814 459.268 1004.26 455.439 z" fill="rgb(13,150,104)" transform="translate(0,0)"></path>
<path d="M 950.761 647.869 C 949.753 607.95 981.073 574.661 1020.98 573.236 C 1060.89 571.812 1094.5 602.783 1096.34 642.673 C 1098.18 682.562 1067.56 716.497 1027.69 718.752 C 987.823 721.008 953.572 690.743 950.901 650.901 C 950.833 649.891 950.787 648.88 950.761 647.869 z" fill="rgb(13,150,104)" transform="translate(0,0)"></path>
<path d="M 1022.79 598.443 C 1050.21 598.393 1064 618.003 1060.69 644.097 C 1049.71 659.813 1037.22 676.129 1025.78 691.631 L 1024.65 691.761 C 1021.13 689.413 988.791 646.477 987.798 641.188 C 983.7 619.364 1001.24 600.922 1022.79 598.443 z" fill="rgb(245,158,11)" transform="translate(0,0)"></path>
<path d="M 1020.55 620.62 C 1023.66 619.141 1027.33 619.453 1030.15 621.436 C 1032.97 623.418 1034.5 626.765 1034.17 630.196 C 1033.83 633.626 1031.67 636.61 1028.52 638.005 C 1023.74 640.122 1018.14 638.002 1015.96 633.246 C 1013.78 628.49 1015.82 622.864 1020.55 620.62 z" fill="rgb(244,234,215)" transform="translate(0,0)"></path>
<path d="M 548.056 403.115 L 549.928 404.386 C 562.591 409.27 565.769 403.377 570.694 404.384 L 571.736 403.464 C 584.581 418.949 596.124 440.316 607.248 457.19 C 610.018 461.393 616.905 473.279 619.948 476.601 L 618.524 477.971 C 615.526 481.945 613.053 484.885 612.711 490.048 L 612.111 492.099 C 612.076 499.795 613.347 502.167 618.889 507.794 C 619.447 508.359 620.017 508.912 620.597 509.454 L 622.629 510.94 C 615.045 533.925 602.027 567.646 592.272 589.86 L 591.767 589.346 C 583.656 587.673 579.666 587.604 572.466 592.363 C 571.703 592.869 570.948 593.386 570.201 593.916 C 563.76 584.724 554.612 574.942 547.473 566.002 C 529.607 543.628 509.822 521.495 492.379 498.91 C 495.913 494.005 496.627 493.289 498.174 487.432 L 498.527 481.904 C 497.856 475.308 496.627 473.471 492.123 468.687 L 490.939 467.398 C 493.012 464.702 495.389 462.243 497.691 459.742 C 514.803 441.156 530.532 421.325 548.056 403.115 z" fill="rgb(244,234,215)" transform="translate(0,0)"></path>
<path d="M 548.056 403.115 L 549.928 404.386 C 562.591 409.27 565.769 403.377 570.694 404.384 L 571.736 403.464 C 584.581 418.949 596.124 440.316 607.248 457.19 C 610.018 461.393 616.905 473.279 619.948 476.601 L 618.524 477.971 C 615.526 481.945 613.053 484.885 612.711 490.048 C 604.932 488.474 592.233 488.507 583.921 487.649 C 557.416 484.913 524.374 485.706 498.527 481.904 C 497.856 475.308 496.627 473.471 492.123 468.687 L 490.939 467.398 C 493.012 464.702 495.389 462.243 497.691 459.742 C 514.803 441.156 530.532 421.325 548.056 403.115 z" fill="rgb(244,234,215)" transform="translate(0,0)"></path>
<path d="M 571.736 403.464 C 584.581 418.949 596.124 440.316 607.248 457.19 C 610.018 461.393 616.905 473.279 619.948 476.601 L 618.524 477.971 C 606.469 461.605 596.547 442.58 584.863 425.872 C 580.046 418.984 575.091 411.532 570.694 404.384 L 571.736 403.464 z" fill="rgb(245,158,11)" transform="translate(0,0)"></path>
<path d="M 548.056 403.115 L 549.928 404.386 C 531.28 422.095 511.208 449.228 492.123 468.687 L 490.939 467.398 C 493.012 464.702 495.389 462.243 497.691 459.742 C 514.803 441.156 530.532 421.325 548.056 403.115 z" fill="rgb(245,158,11)" transform="translate(0,0)"></path>
<path d="M 498.527 481.904 C 524.374 485.706 557.416 484.913 583.921 487.649 C 592.233 488.507 604.932 488.474 612.711 490.048 L 612.111 492.099 C 607.286 490.744 502.964 484.823 499.627 485.263 L 498.174 487.432 L 498.527 481.904 z" fill="rgb(245,158,11)" transform="translate(0,0)"></path>
<path d="M 620.597 509.454 L 622.629 510.94 C 615.045 533.925 602.027 567.646 592.272 589.86 L 591.767 589.346 C 591.905 581.998 617.205 524.793 620.597 509.454 z" fill="rgb(245,158,11)" transform="translate(0,0)"></path>
<path d="M 655.032 857.623 C 692.757 846.289 686.606 846.492 699.917 880.256 L 700.155 881.022 C 701.725 880.619 704.566 872.164 707.44 868.771 C 713.108 862.081 715.023 860.037 722.982 856.382 C 729.476 855.627 739.132 853.873 744.976 857.176 C 745.647 862.402 748.789 869.338 748.983 873.853 C 749.655 889.483 747.075 905.549 745.891 921.187 C 734.881 922.526 715.723 924.524 706.6 917.72 L 705.812 918.284 L 698.28 921.402 L 696.984 921.919 L 695.358 920.913 C 693.611 915.49 694.415 910.417 696.078 905.116 L 690.191 900.129 C 684.587 901.116 677.781 902.797 672.121 904.051 C 667.078 889.436 661.064 871.644 655.032 857.623 z" fill="rgb(245,158,11)" transform="translate(0,0)"></path>
<path d="M 655.032 857.623 C 692.757 846.289 686.606 846.492 699.917 880.256 C 698.952 882.257 698.551 883.445 697.038 885.038 C 696.961 887.403 692.758 891.984 690.871 896.258 C 696.792 895.957 703.007 895.794 708.839 894.86 C 706.442 896.743 700.827 899.355 700.002 901.315 L 701 905.123 L 699.994 906.389 C 698.437 905.984 697.575 905.8 696.078 905.116 L 690.191 900.129 C 684.587 901.116 677.781 902.797 672.121 904.051 C 667.078 889.436 661.064 871.644 655.032 857.623 z" fill="rgb(0,6,4)" transform="translate(0,0)"></path>
<path d="M 662.087 861.494 L 685.085 855.168 C 688.223 862.133 694.158 880.475 697.038 885.038 C 696.961 887.403 692.758 891.984 690.871 896.258 C 688.81 890.603 688.398 884.872 681.844 884.629 C 677.879 886.213 675.483 889.063 672.445 892.077 C 668.788 881.624 666.278 872.089 662.087 861.494 z" fill="rgb(251,251,252)" transform="translate(0,0)"></path>
<path d="M 708.839 894.86 C 713.696 889.462 718.377 882.758 723.592 877.818 C 727.76 873.871 729.456 876.9 730.566 881.242 C 729.395 885.32 701.965 916.796 697.646 920.292 L 698.28 921.402 L 696.984 921.919 L 695.358 920.913 C 693.611 915.49 694.415 910.417 696.078 905.116 C 697.575 905.8 698.437 905.984 699.994 906.389 L 701 905.123 L 700.002 901.315 C 700.827 899.355 706.442 896.743 708.839 894.86 z" fill="rgb(244,208,154)" transform="translate(0,0)"></path>
<path d="M 619.948 476.601 C 639.342 464.36 654.321 476.468 655.42 497.689 L 654.488 499.385 C 651.081 504.183 650.914 505.895 646.22 509.716 L 644.65 510.331 C 636.564 515.444 631.096 514.778 622.629 510.94 L 620.597 509.454 C 620.017 508.912 619.447 508.359 618.889 507.794 C 613.347 502.167 612.076 499.795 612.111 492.099 L 612.711 490.048 C 613.053 484.885 615.526 481.945 618.524 477.971 L 619.948 476.601 z" fill="rgb(245,158,11)" transform="translate(0,0)"></path>
<path d="M 570.201 593.916 C 570.948 593.386 571.703 592.869 572.466 592.363 C 579.666 587.604 583.656 587.673 591.767 589.346 L 592.272 589.86 C 602.348 597.257 608.419 603.886 603.063 617.13 L 603.116 618.598 C 599.553 623.105 596.035 628.533 590.206 629.494 C 589.274 629.751 586.999 630.277 586.307 630.722 C 575.83 631.591 572.443 627.662 564.618 621.27 L 562.667 619.585 C 565.83 615.352 558.737 607.924 568.719 595.968 L 570.201 593.916 z" fill="rgb(245,158,11)" transform="translate(0,0)"></path>
<path d="M 414.734 660.844 C 420.869 656.761 425.502 656.156 432.439 657.315 L 434.08 657.279 C 440.791 661.039 442.635 662.134 446.248 668.826 L 446.668 669.419 C 447.528 676.291 448.426 680.933 445.005 687.087 L 443.285 688.937 C 438.77 695.461 434.114 696.292 426.784 698.451 C 410.438 695.085 402.39 687.701 405.939 670.299 L 406.218 668.436 C 408.823 665.651 410.83 663.836 413.689 661.313 L 414.734 660.844 z" fill="rgb(245,158,11)" transform="translate(0,0)"></path>
<path d="M 467.115 466.973 C 474.904 462.069 483.327 461.946 490.939 467.398 L 492.123 468.687 C 496.627 473.471 497.856 475.308 498.527 481.904 L 498.174 487.432 C 496.627 493.289 495.913 494.005 492.379 498.91 L 490.936 500.723 C 484.316 503.978 482.95 504.339 475.648 504.166 L 473.518 503.365 C 466.006 502.355 461.621 496.855 457.54 491.077 L 456.417 489.851 C 457.963 487.733 457.66 481.045 458.93 475.971 L 459.855 474.071 C 461.199 471.022 462.872 469.395 465.041 466.929 L 467.115 466.973 z" fill="rgb(245,158,11)" transform="translate(0,0)"></path>
<path d="M 714.343 831.448 C 712.656 828.125 713.027 829.606 713.36 825.488 C 719.339 814.58 738.666 816.505 742.667 828.25 C 743.26 829.99 743.308 834.307 743.362 836.271 C 749.864 839.301 763.374 844.316 758.867 853.636 C 754.654 857.103 750.317 857.086 744.976 857.176 C 739.132 853.873 729.476 855.627 722.982 856.382 C 725.244 853.332 725.586 852.639 727.118 849.226 C 716.174 849.272 711.296 841.558 714.343 831.448 z" fill="rgb(26,58,40)" transform="translate(0,0)"></path>
<path d="M 716.525 832.986 C 719.044 831.314 718.067 831.441 720.66 831.595 C 720.718 832.954 720.734 833.756 720.93 835.126 C 724.411 835.223 726.994 834.91 729.897 836.684 C 732.043 840.666 727.286 845.064 724.256 847.426 C 717.348 842.501 718.295 841.072 716.525 832.986 z" fill="rgb(244,234,215)" transform="translate(0,0)"></path>
<path d="M 299.417 273.258 C 309.93 246.067 341.378 253.63 337.53 281.101 L 337.166 282.838 C 335.493 285.437 334.959 286.512 332.483 288.43 L 331.334 289.681 C 327.101 291.806 324.834 293.229 320.163 293.833 C 317.818 292.803 319.049 292.96 316.325 293.688 C 305.464 291.344 302.354 284.825 299.721 274.831 L 299.417 273.258 z" fill="rgb(245,158,11)" transform="translate(0,0)"></path>
<path d="M 629.219 766.413 C 634.636 766.204 641.011 768.819 645.021 772.308 L 646.175 774.186 L 646.938 776.765 L 649.448 778.421 C 650.717 787.848 648.251 796.464 639.401 801.307 C 634.89 803.737 629.584 804.223 624.707 802.651 C 612.159 798.551 610.004 787.053 613.786 775.787 L 615.213 774.779 C 618.735 770.703 619.63 769.451 624.444 767.131 L 629.219 766.413 z" fill="rgb(245,158,11)" transform="translate(0,0)"></path>
<path d="M 225.43 565.005 L 226.034 565.205 C 232.331 561.448 238.712 561.047 245.698 562.903 L 247.894 562.268 C 251.891 565.047 255.483 567.929 257.164 572.687 L 258.104 575.11 C 258.256 579.156 257.105 586.354 258.308 587.912 L 257.489 588.881 L 256.084 588.606 C 238.82 602.202 226.871 602.487 219.477 579.372 C 221.039 574.39 224.186 569.783 223.598 565.538 L 225.43 565.005 z" fill="rgb(245,158,11)" transform="translate(0,0)"></path>
<path d="M 131.715 442.579 L 133.779 442.528 C 145.212 444.797 146.201 446.962 150.893 457.394 L 151.545 459.121 C 150.1 465.346 149.832 468.992 145.1 473.565 L 143.026 474.615 C 127.904 495.384 91.4061 449.908 131.715 442.579 z" fill="rgb(245,158,11)" transform="translate(0,0)"></path>
<path d="M 145.384 318.087 C 139.646 316.364 135.271 314.781 131.523 309.788 C 128.573 305.854 127.379 300.877 128.224 296.033 C 129.066 291.149 131.829 286.805 135.896 283.973 C 139.66 281.315 144.339 280.29 148.87 281.133 C 157.189 282.667 160.786 287.821 165.152 294.349 L 165.125 296.419 C 164.71 301.307 164.335 304.809 161.444 308.985 L 160.503 310.351 C 156.472 314.013 153.388 316.265 147.92 317.564 L 145.384 318.087 z" fill="rgb(245,158,11)" transform="translate(0,0)"></path>
<path d="M 542.723 379.932 C 550.138 374.817 551.023 368.319 562.796 370.026 C 567.655 370.72 572.018 373.374 574.869 377.369 C 577.763 381.503 578.915 386.609 578.074 391.585 C 577.215 396.531 572.329 400.209 571.736 403.464 L 570.694 404.384 C 565.769 403.377 562.591 409.27 549.928 404.386 L 548.056 403.115 C 541.224 394.723 542.633 390.597 542.347 381.182 L 542.723 379.932 z" fill="rgb(245,158,11)" transform="translate(0,0)"></path>
<path d="M 1967.08 830.716 C 1972.67 828.537 1986.27 822.114 1991.04 823.569 C 1988.96 828.279 1967.85 834.121 1962.34 835.614 C 1963.25 832.486 1964.67 832.097 1967.08 830.716 z" fill="rgb(26,58,40)" transform="translate(0,0)"></path>
<metadata><recraft-signature>{"signed_by": "recraft", "signature_b64": "rUAkpVoCuhnWFlb3i/9rBJY58XBLM0Mc8DH5c1EZlciUU+iHXktbkzBcOzO+ITomV037fONZsF6AnoqItce3Cw==", "signing_algo": "Ed25519", "generation_timestamp": 1780413209, "identifier": "3891c39a-d856-4fdd-97bc-3507f58a6fae"}</recraft-signature></metadata></svg>