<svg xmlns="http://www.w3.org/2000/svg" height="1024" preserveAspectRatio="none" style="display: block;" version="1.1" viewBox="0 0 2048 1152" width="1820">
<path d="M 0 0 L 2048 0 L 2048 690.277 L 2048 877.882 L 2048 1152 L 744.858 1152 L 0 1152 L 0 1105.7 L 0 0 z" fill="rgb(245,241,226)" transform="translate(0,0)"></path>
<path d="M 1662.49 479.654 C 1671.08 478.962 1905.74 535.802 1923.48 541.7 L 1922.63 542.991 C 1924.81 550.719 1923.35 579.602 1923.52 589.328 C 1924.03 618.943 1922.03 653.825 1923.75 683.144 C 1938.21 682.928 1952.68 683.024 1967.13 683.433 C 1965.65 669.318 1964.09 661.844 1958.28 648.735 C 1975.43 656.487 1977.41 658.537 1982.8 676.731 C 1985.75 666.542 1989 658.296 1998.89 652.902 C 2001.38 651.563 2003.94 650.351 2006.55 649.271 C 2004.51 658.548 2002.26 667.778 1999.82 676.957 C 2002.43 674.298 2005.44 671.072 2008.11 668.555 C 2014.04 667.029 2017.37 666.434 2023.45 665.671 C 2014.38 672.056 2011.26 676.525 2006.5 686.598 C 2018.01 687.162 2036.54 688.322 2048 690.277 L 2048 877.882 L 2048 1152 L 744.858 1152 L 0 1152 L 0 1105.7 C 29.0486 1096.09 59.5584 1082.67 88.7622 1074.31 C 100.9 1068.72 119.039 1062.2 131.845 1057.31 C 136.89 1056.66 163.385 1046.92 169.18 1044.8 C 177.025 1041.9 186.528 1039.59 194.72 1037.4 C 199.607 1035.69 205.736 1034.01 210.782 1032.47 L 235.033 1025.64 L 241.578 1023.5 C 247.671 1022.76 252.887 1021.52 258.795 1020.04 C 292.03 1011.7 326.061 1003.23 360.108 998.867 C 359.442 1004.5 359.042 1010.27 358.583 1015.93 C 385.278 1016.55 403.426 1010.34 421.328 989.988 C 423.644 989.705 424.648 989.657 426.836 988.903 C 437.532 989.464 451.389 988.566 462.408 988.324 L 528.351 986.893 C 537.794 986.679 555.086 985.66 563.85 986.678 C 559.059 987.738 559.869 986.829 556.918 989.944 C 554.604 997.264 555.179 1005.48 562.472 1009.81 C 566.474 1008.76 573.085 992.354 577.446 987.172 C 587.39 987.029 597.335 986.978 607.28 987.017 C 603.603 1011.2 592.101 1035.44 628.426 1022.94 C 622.113 1018.61 618.791 1016.8 611.915 1013.38 C 614.533 1006.73 619.911 994.135 621.736 987.735 C 625.166 977.59 629.649 966.384 633.436 956.261 C 650.761 949.344 645.791 940.819 645.371 924.772 C 679.525 912.217 714.702 902.704 749.724 892.848 L 873.628 858.064 C 883.145 855.405 939.532 840.911 944.812 837.948 L 945.582 834.294 L 946.426 837.314 C 950.307 838.4 952.955 836.693 957.135 835.042 C 977.036 829.968 1015.38 821.619 1033.35 815.151 C 1028.01 813.578 1018.43 811.146 1015.56 806.424 C 1017.65 798.949 1037.27 803.92 1043.07 805.367 C 1035.19 799.219 1029.3 794.508 1022.75 786.947 C 1042.02 788.572 1042.51 790.847 1058.26 800.783 C 1056.92 793.108 1058.57 772.297 1066.89 769.587 L 1068.68 771.302 C 1071.79 780.081 1069.84 789.184 1068.74 798.424 C 1073.46 794.685 1077.24 777.069 1087.41 774.597 L 1088.58 776.543 C 1089.42 787.847 1085.55 795.111 1080.31 804.62 C 1102.56 801.737 1127.86 791.893 1150.21 788.834 C 1154.74 788.877 1156.39 789.31 1158.38 785.202 C 1161.01 786.876 1210.6 775.519 1217.7 774.01 C 1219.69 774.05 1361.99 744.904 1362.16 744.812 C 1362.91 744.385 1363.03 742.978 1363.26 742.145 L 1365.05 744.231 L 1366.85 743.831 L 1367.67 742.316 L 1368.15 743.039 C 1370.87 744.303 1383.91 741.231 1387.27 740.355 C 1389.62 739.727 1388.88 739.941 1390.81 738.008 L 1392.99 738.67 L 1395.99 737.942 L 1400.12 736.953 C 1404.42 735.854 1417.38 734.286 1421.91 734.05 L 1426.19 732.634 C 1433.25 731.475 1440.34 730.505 1447.45 729.726 L 1455 728.79 C 1455.82 727.095 1455.95 725.998 1456.39 724.17 L 1457.03 726.861 C 1461.23 728.757 1471.83 724.978 1477.42 725.152 L 1478.95 724.752 C 1481.05 721.482 1480.38 711.774 1480.32 707.212 C 1481.55 710.77 1481.09 720.259 1481.07 724.509 C 1495.3 721.126 1510.87 719.729 1525.33 717.294 C 1527.93 716.856 1538.65 715.653 1540.08 715.23 L 1544.19 714.95 C 1547.92 714.855 1559.72 713.181 1563.05 711.673 L 1565.41 711.171 C 1566.99 707.251 1565.57 701.012 1566.7 696.028 L 1566.52 711.584 C 1576.02 709.665 1582.75 708.873 1592.2 707.579 L 1594.64 707.658 C 1612.38 704.362 1644.29 700.865 1662.43 699.116 C 1660.67 656.035 1662.56 607.422 1662.07 563.664 C 1661.84 543.226 1660.69 498.215 1662.49 479.654 z" fill="rgb(13,150,104)" transform="translate(0,0)"></path>
<path d="M 426.836 988.903 C 437.532 989.464 451.389 988.566 462.408 988.324 L 528.351 986.893 C 537.794 986.679 555.086 985.66 563.85 986.678 C 559.059 987.738 559.869 986.829 556.918 989.944 C 554.604 997.264 555.179 1005.48 562.472 1009.81 C 566.474 1008.76 573.085 992.354 577.446 987.172 C 587.39 987.029 597.335 986.978 607.28 987.017 C 603.603 1011.2 592.101 1035.44 628.426 1022.94 C 622.113 1018.61 618.791 1016.8 611.915 1013.38 C 614.533 1006.73 619.911 994.135 621.736 987.735 C 809.167 989.533 995.749 1013.17 1177.71 1058.18 C 1192.07 1061.6 1254.43 1076.25 1263.41 1081.07 C 1225.81 1088.78 1188.13 1096.02 1150.35 1102.8 C 1121.94 1108.02 1092.74 1113.8 1064.28 1117.97 C 1022.81 1125.28 981.095 1131.1 939.21 1135.41 C 908.383 1138.89 878.545 1142.43 847.488 1144.93 C 824.954 1146.56 802.405 1147.96 779.842 1149.11 C 772.807 1149.51 750.981 1150.52 744.858 1152 L 0 1152 L 0 1105.7 C 29.0486 1096.09 59.5584 1082.67 88.7622 1074.31 C 100.9 1068.72 119.039 1062.2 131.845 1057.31 C 136.89 1056.66 163.385 1046.92 169.18 1044.8 C 177.025 1041.9 186.528 1039.59 194.72 1037.4 C 199.607 1035.69 205.736 1034.01 210.782 1032.47 L 235.033 1025.64 L 241.578 1023.5 C 247.671 1022.76 252.887 1021.52 258.795 1020.04 C 292.03 1011.7 326.061 1003.23 360.108 998.867 C 359.442 1004.5 359.042 1010.27 358.583 1015.93 C 385.278 1016.55 403.426 1010.34 421.328 989.988 C 423.644 989.705 424.648 989.657 426.836 988.903 z" fill="rgb(13,150,104)" transform="translate(0,0)"></path>
<path d="M 426.836 988.903 C 437.532 989.464 451.389 988.566 462.408 988.324 L 528.351 986.893 C 537.794 986.679 555.086 985.66 563.85 986.678 C 559.059 987.738 559.869 986.829 556.918 989.944 C 554.604 997.264 555.179 1005.48 562.472 1009.81 C 566.474 1008.76 573.085 992.354 577.446 987.172 C 587.39 987.029 597.335 986.978 607.28 987.017 C 603.603 1011.2 592.101 1035.44 628.426 1022.94 C 622.113 1018.61 618.791 1016.8 611.915 1013.38 C 614.533 1006.73 619.911 994.135 621.736 987.735 C 809.167 989.533 995.749 1013.17 1177.71 1058.18 C 1192.07 1061.6 1254.43 1076.25 1263.41 1081.07 C 1225.81 1088.78 1188.13 1096.02 1150.35 1102.8 C 1121.94 1108.02 1092.74 1113.8 1064.28 1117.97 C 976.017 1091.58 864.317 1073.43 772.998 1063.23 C 634.602 1047.08 495.148 1041.86 355.932 1047.63 C 266.549 1052.88 177.418 1061.78 88.7622 1074.31 C 100.9 1068.72 119.039 1062.2 131.845 1057.31 C 136.89 1056.66 163.385 1046.92 169.18 1044.8 C 177.025 1041.9 186.528 1039.59 194.72 1037.4 C 199.607 1035.69 205.736 1034.01 210.782 1032.47 L 235.033 1025.64 L 241.578 1023.5 C 247.671 1022.76 252.887 1021.52 258.795 1020.04 C 292.03 1011.7 326.061 1003.23 360.108 998.867 C 359.442 1004.5 359.042 1010.27 358.583 1015.93 C 385.278 1016.55 403.426 1010.34 421.328 989.988 C 423.644 989.705 424.648 989.657 426.836 988.903 z" fill="rgb(245,158,11)" transform="translate(0,0)"></path>
<path d="M 522.472 1086.38 C 524.52 1084.03 526.615 1081.73 528.753 1079.47 C 530.943 1077.19 533.395 1074.88 536.64 1074.82 L 537.538 1076.57 C 537.418 1081.7 534.377 1087.6 532.3 1092.47 C 536.135 1091.19 542.176 1088.4 545.705 1090.56 L 545.56 1093.37 C 541.484 1095.52 536.057 1098.55 531.579 1099.18 L 530.875 1099.27 C 523.297 1100.36 514.336 1098.61 506.618 1097.49 L 494.873 1087.67 L 511.913 1088.92 C 511.751 1082.92 511.925 1079.4 512.484 1073.42 C 517.4 1076.57 519.753 1081.41 522.472 1086.38 z" fill="rgb(245,158,11)" transform="translate(0,0)"></path>
<path d="M 214.696 1073 C 220.004 1072.88 225.7 1072.75 227.924 1078.36 C 227.307 1081.73 226.055 1082.43 223.521 1084.62 C 218.106 1084.8 210.794 1085.31 209.681 1078.67 C 210.895 1075.3 211.817 1074.92 214.696 1073 z" fill="rgb(26,58,40)" transform="translate(0,0)"></path>
<path d="M 230.329 1090.99 C 235.963 1090.65 241.166 1090.05 243.151 1096.32 C 242.686 1099.58 240.982 1100.64 238.57 1102.82 C 233.212 1102.92 230.829 1103.36 227.644 1098.71 C 227.18 1095.26 228.475 1093.89 230.329 1090.99 z" fill="rgb(26,58,40)" transform="translate(0,0)"></path>
<path d="M 254.318 1064.8 C 259.894 1065.33 263.827 1066.19 263.994 1072.34 C 262.442 1075.2 261.31 1075.43 258.382 1076.9 C 254.67 1076.73 254.063 1076.57 250.561 1075.49 C 247.814 1072.79 248.352 1074.07 248.085 1070.77 C 249.428 1067.38 251.257 1066.67 254.318 1064.8 z" fill="rgb(26,58,40)" transform="translate(0,0)"></path>
<path d="M 330.009 1070.89 C 333.453 1071.43 333.861 1071.59 336.834 1073.41 C 338.78 1076.6 338.536 1075.17 337.797 1078.75 C 335.833 1081.54 333.672 1081.94 330.498 1083.07 C 327.859 1082.52 326.927 1081.96 324.462 1080.8 C 322.325 1077.87 322.669 1079.22 323.075 1075.76 C 325.393 1072.65 326.56 1072.37 330.009 1070.89 z" fill="rgb(26,58,40)" transform="translate(0,0)"></path>
<path d="M 291.907 1081.93 C 296.918 1082.42 300.608 1082.78 300.952 1088.24 C 299.834 1091.26 297.698 1092.14 294.97 1093.81 C 289.806 1093.14 285.841 1092.39 285.464 1086.67 C 287.273 1083.59 288.693 1083.29 291.907 1081.93 z" fill="rgb(26,58,40)" transform="translate(0,0)"></path>
<path d="M 1898.19 958.217 C 1924.76 945.056 1952.9 928.415 1979.87 914.377 C 1999.12 904.357 2030.53 888.899 2048 877.882 L 2048 1152 L 744.858 1152 C 750.981 1150.52 772.807 1149.51 779.842 1149.11 C 802.405 1147.96 824.954 1146.56 847.488 1144.93 C 878.545 1142.43 908.383 1138.89 939.21 1135.41 C 981.095 1131.1 1022.81 1125.28 1064.28 1117.97 C 1092.74 1113.8 1121.94 1108.02 1150.35 1102.8 C 1188.13 1096.02 1225.81 1088.78 1263.41 1081.07 C 1281.95 1078.99 1308.54 1072.02 1327.57 1068.3 C 1377.53 1058.52 1425.41 1046.52 1474.54 1033.24 C 1458.02 1021.02 1433.71 1001.78 1419.5 986.844 C 1451.04 981.446 1486.13 973.377 1518.29 967.321 C 1546.32 980.695 1597.46 1007.96 1621.36 1026.39 C 1606.73 1029.65 1526.71 1041.03 1519.22 1045.49 L 1519.26 1046.67 C 1524.43 1049.23 1531.2 1046.8 1536.5 1046.01 C 1567.7 1041.38 1598.63 1034 1630.01 1030.71 C 1656.34 1050.13 1676.5 1068.66 1699.3 1091.88 C 1689.13 1093.55 1638.73 1101.49 1634.37 1107.48 C 1639.94 1109.07 1693.75 1098.03 1702.93 1096.42 C 1708.51 1101.39 1715.44 1112.84 1722.36 1113.34 C 1725.48 1111.74 1724.49 1112.72 1726.13 1109.66 C 1725.35 1102.55 1708.7 1089.81 1702.43 1080.54 L 1702.14 1080.12 C 1718.03 1086.96 1733.12 1107.22 1741.45 1107.61 C 1743.92 1105.7 1744.86 1097.87 1745.41 1094.41 C 1747.52 1081.04 1752.28 1069.5 1757.42 1057.05 C 1760.9 1067.57 1771.11 1106.09 1782.85 1107.06 C 1788.08 1103.58 1790.31 1079.29 1793.63 1069.11 C 1797.06 1078.02 1801.25 1114.07 1816 1106.4 C 1843.44 1092.14 1863.98 1077.14 1894.47 1068.06 C 1890.51 1075.77 1880.25 1094.83 1880.91 1103.1 C 1882.58 1106.19 1881.56 1105.32 1884.64 1106.49 C 1894 1103.26 1933.52 1079.17 1944.86 1072.6 C 1945.91 1069.99 1945.92 1071.23 1945.09 1068.76 C 1940.53 1067.6 1935.18 1071.64 1930.9 1072 C 1916.59 1073.17 1913.12 1073.81 1900.94 1080.89 C 1904 1074.72 1911.68 1065.01 1912.45 1059.12 L 1911.05 1057.9 C 1907.77 1057.89 1889.45 1061.63 1883.98 1062.4 C 1886.15 1056.58 1889.62 1047.11 1884.81 1041.77 C 1877.7 1043.16 1876.32 1051.94 1865.12 1059.68 C 1856 1060.35 1848.28 1059.55 1838.72 1060.92 C 1854.14 1043.63 1859.55 1037.54 1878.88 1024.79 C 1890.23 1024.9 1901.57 1025.54 1912.87 1026.68 C 1915.83 1027 1930 1029.64 1931.85 1028.65 C 1934.99 1026.96 1940.08 1022.19 1941.24 1018.14 L 1939.73 1017.67 C 1934.94 1019.37 1933.9 1020.65 1930.16 1024.21 C 1914.8 1023.13 1898.05 1022.24 1882.92 1020.27 C 1897.38 1012.92 1924.25 993.145 1937.96 990.255 C 1949.53 987.817 1969.35 992.945 1984.16 988.719 L 1984.68 987.722 C 1975.1 985.524 1952.65 986.197 1942.07 986.297 C 1951.11 981.171 1990.27 960.912 1995.08 956.475 L 1993.24 955.771 L 1994.29 955.653 C 1976.94 958.871 1952.3 976.373 1935.07 985.005 C 1937.85 975.721 1947.25 957.332 1948.11 950.014 L 1946.95 950.316 C 1939.16 960.803 1933.32 976.084 1928.01 988.297 C 1907.11 1000.34 1888.14 1012.46 1867.91 1025.63 C 1878.49 1002.88 1886.91 981.646 1898.19 958.217 z" fill="rgb(26,58,40)" transform="translate(0,0)"></path>
<path d="M 1380.15 1103.92 C 1384.24 1103.46 1390.25 1104.66 1392.69 1108.21 L 1391.79 1110.7 C 1388.9 1113.51 1384.31 1114.01 1380.28 1114.88 L 1379.55 1115.22 C 1375.67 1115.05 1368.78 1111.82 1364.87 1110.23 C 1369.36 1108.07 1375.42 1105.82 1380.15 1103.92 z" fill="rgb(13,150,104)" transform="translate(0,0)"></path>
<path d="M 1182.58 1124.08 C 1183.55 1123.96 1196.8 1127.85 1199.28 1128.5 C 1193.48 1131.01 1186.76 1133.47 1180.8 1135.79 C 1177.55 1134.99 1169.44 1131.78 1165.93 1130.5 C 1172.21 1127.06 1175.8 1126.14 1182.58 1124.08 z" fill="rgb(13,150,104)" transform="translate(0,0)"></path>
<path d="M 1244.59 1122.02 C 1251.11 1122.74 1255.31 1124.88 1261.28 1127.4 C 1256.5 1129.72 1251.27 1131.5 1246.26 1133.33 C 1242.44 1134.14 1233.89 1130.61 1229.94 1129.19 C 1235.31 1126.9 1239.47 1124.73 1244.59 1122.02 z" fill="rgb(13,150,104)" transform="translate(0,0)"></path>
<path d="M 1378.77 1074.84 C 1385.12 1074.17 1389.25 1076.58 1394.93 1079.13 L 1383.27 1083.5 C 1380.46 1084.39 1371.52 1081.54 1368.27 1080.66 C 1371.27 1078.59 1375.46 1076.56 1378.77 1074.84 z" fill="rgb(13,150,104)" transform="translate(0,0)"></path>
<path d="M 1472.11 1062.99 C 1476.02 1063.69 1480.57 1063.66 1481.66 1067.8 C 1479.73 1070.66 1477.33 1071.12 1474 1072.38 C 1470.18 1071.73 1465.05 1071.52 1463.23 1067.93 C 1465.15 1064.94 1468.55 1064.29 1472.11 1062.99 z" fill="rgb(245,158,11)" transform="translate(0,0)"></path>
<path d="M 1464.52 1094.2 C 1468.09 1093.85 1472.92 1095.13 1473.54 1099.2 C 1471.82 1101.8 1469.67 1102 1466.57 1102.98 C 1462.74 1102.74 1457.13 1103.27 1456.07 1099.09 C 1457.88 1096.19 1461.26 1095.41 1464.52 1094.2 z" fill="rgb(245,158,11)" transform="translate(0,0)"></path>
<path d="M 1972.65 1060.01 L 1984.32 1064.97 L 1971.56 1070.29 L 1961.32 1065.78 C 1964.57 1063.9 1969.2 1061.74 1972.65 1060.01 z" fill="rgb(245,158,11)" transform="translate(0,0)"></path>
<path d="M 1994.11 1036.97 L 1994.65 1036.95 C 1999 1036.76 2004.46 1039.32 2008.7 1040.93 C 2006.08 1042.03 2001.12 1043.39 1998.25 1044.26 C 1994.86 1045.25 1989.53 1044.79 1987.42 1041.75 C 1988.85 1038.59 1990.24 1038.83 1994.11 1036.97 z" fill="rgb(245,158,11)" transform="translate(0,0)"></path>
<path d="M 1990.95 1008.93 C 1994.36 1008.82 1999.29 1009.83 2001.37 1012.61 C 2000.23 1015.57 1998.67 1015.37 1994.94 1017.09 C 1991.02 1016.9 1986.47 1016.99 1984 1013.69 C 1985.56 1010.54 1987.04 1010.75 1990.95 1008.93 z" fill="rgb(245,158,11)" transform="translate(0,0)"></path>
<path d="M 1341.83 1087.99 C 1344.78 1087.56 1348.2 1087.7 1350.76 1089.33 L 1350.93 1090.98 C 1349.17 1093.95 1345.68 1094.58 1342.32 1095.69 C 1340.83 1095.91 1336.6 1095.1 1335.06 1094.75 L 1334.19 1093.1 C 1336.66 1089.55 1337.31 1090.1 1341.83 1087.99 z" fill="rgb(245,158,11)" transform="translate(0,0)"></path>
<path d="M 1304.92 1111.98 C 1308.61 1111.49 1313.02 1111.59 1315.54 1114.72 C 1314.79 1117.78 1314.56 1117.1 1311.22 1119.17 C 1307.71 1119.15 1303.22 1118.89 1300.6 1116.46 C 1301.31 1113.48 1301.7 1114.05 1304.92 1111.98 z" fill="rgb(245,158,11)" transform="translate(0,0)"></path>
<path d="M 1222.03 1114.09 C 1224.45 1114.21 1227.63 1114.95 1228.83 1117.04 C 1226.99 1119.74 1223.72 1120.41 1220.57 1121.48 C 1217.73 1120.31 1215.28 1119.68 1213.44 1117.34 C 1215.27 1115.21 1219.05 1114.81 1222.03 1114.09 z" fill="rgb(13,150,104)" transform="translate(0,0)"></path>
<path d="M 1662.49 479.654 C 1671.08 478.962 1905.74 535.802 1923.48 541.7 L 1922.63 542.991 C 1924.81 550.719 1923.35 579.602 1923.52 589.328 C 1924.03 618.943 1922.03 653.825 1923.75 683.144 C 1907.04 683.948 1890.35 683.897 1873.64 684.561 C 1819.48 686.459 1765.39 689.912 1711.44 694.915 C 1696.23 696.449 1680.31 697.147 1665.33 699.561 C 1664.22 699.526 1664.53 699.385 1663.31 698.437 C 1662.04 690.331 1662.99 648.822 1662.79 638.361 C 1661.85 586.227 1664.15 531.581 1662.49 479.654 z" fill="rgb(26,58,40)" transform="translate(0,0)"></path>
<path d="M 1662.49 479.654 C 1671.08 478.962 1905.74 535.802 1923.48 541.7 L 1922.63 542.991 C 1882.34 535.469 1833.11 522.541 1793.37 512.743 C 1752.63 502.697 1705.76 493.747 1665.79 482.629 C 1665.24 532.185 1666.19 581.779 1665.75 631.306 C 1665.57 652.096 1667.42 679.685 1665.33 699.561 C 1664.22 699.526 1664.53 699.385 1663.31 698.437 C 1662.04 690.331 1662.99 648.822 1662.79 638.361 C 1661.85 586.227 1664.15 531.581 1662.49 479.654 z" fill="rgb(245,241,226)" transform="translate(0,0)"></path>
<path d="M 1724.26 639.413 C 1730.8 640.422 1741.21 643.098 1747.95 644.604 L 1747.84 666.524 C 1740.66 665.501 1731.9 663.601 1724.66 662.231 L 1724.26 639.413 z" fill="rgb(245,158,11)" transform="translate(0,0)"></path>
<path d="M 1860.92 555.413 C 1868.08 556.382 1877.56 558.444 1885.04 559.704 L 1884.94 581.272 C 1878.19 580.455 1867.75 577.824 1860.82 576.278 L 1860.92 555.413 z" fill="rgb(245,158,11)" transform="translate(0,0)"></path>
<path d="M 1724.14 580.932 C 1731.6 582.314 1740.67 584.708 1748.17 586.477 L 1748.07 607.704 C 1742.57 607.036 1730.36 603.683 1724.5 602.235 C 1724.51 595.266 1724.27 587.932 1724.14 580.932 z" fill="rgb(245,158,11)" transform="translate(0,0)"></path>
<path d="M 1770.19 590.657 C 1778.32 592.128 1785.79 593.763 1793.84 595.608 C 1793.44 602.101 1793.54 610.13 1793.47 616.751 C 1789.46 616.974 1774.78 613.098 1770.01 611.949 L 1770.19 590.657 z" fill="rgb(245,158,11)" transform="translate(0,0)"></path>
<path d="M 1769.82 535.02 L 1793.47 540.629 L 1793.83 562.034 C 1785.69 559.757 1778.01 558.244 1769.73 556.564 L 1769.82 535.02 z" fill="rgb(245,158,11)" transform="translate(0,0)"></path>
<path d="M 1724.15 524.492 C 1732.97 526.884 1738.93 528.174 1747.94 529.691 L 1747.87 551.054 C 1740.32 550.057 1731.8 548.03 1724.27 546.409 L 1724.15 524.492 z" fill="rgb(245,158,11)" transform="translate(0,0)"></path>
<path d="M 1815.98 599.368 C 1822.89 601.695 1832.05 603.902 1839.26 605.833 L 1839.45 626.588 C 1831.49 625.527 1823.83 623.384 1816.05 621.397 C 1815.94 614.055 1815.92 606.711 1815.98 599.368 z" fill="rgb(245,158,11)" transform="translate(0,0)"></path>
<path d="M 1816.11 544.673 C 1823.43 546.662 1831.84 548.462 1839.3 550.239 C 1839.38 556.117 1839.78 566.347 1838.93 571.739 C 1832.21 570.484 1823.08 567.671 1816.28 565.766 C 1816.55 558.364 1816.37 552.078 1816.11 544.673 z" fill="rgb(245,158,11)" transform="translate(0,0)"></path>
<path d="M 1861.1 610.448 C 1868.88 612.342 1877.38 613.998 1885.26 615.69 L 1885.07 636.781 C 1877.13 634.275 1869.22 633.255 1861.06 630.382 L 1861.1 610.448 z" fill="rgb(245,158,11)" transform="translate(0,0)"></path>
<path d="M 1770.01 648.518 C 1776.64 649.486 1785.71 651.681 1792.44 653.121 C 1792.42 659.972 1792.21 667.048 1792.09 673.919 C 1784.83 672.773 1777.07 671.121 1769.8 669.699 C 1770 662.768 1769.95 655.482 1770.01 648.518 z" fill="rgb(245,158,11)" transform="translate(0,0)"></path>
<path d="M 1444.09 878.399 C 1450.96 877.861 1458.27 878.003 1465.19 877.989 C 1467.21 881.016 1469.36 884.544 1471.23 887.71 C 1485.43 911.826 1502.17 934.709 1516 958.978 C 1503.89 952.688 1414.77 914.854 1407.51 919.329 C 1412.62 924.536 1448.04 937.619 1457.27 941.39 C 1474.36 948.031 1492.05 956.536 1509.12 963.839 C 1480.35 971.111 1447.31 975.493 1416.65 983.347 C 1370.58 936.119 1365.22 885.93 1444.09 878.399 z" fill="rgb(26,58,40)" transform="translate(0,0)"></path>
<path d="M 1563.82 898.878 C 1587.61 906.12 1625.93 927.759 1646.45 941.114 C 1656.94 977.635 1664.85 1015.98 1675.22 1051.5 C 1670.79 1049.59 1647.61 1032.14 1641.42 1027.66 C 1631.2 1020.28 1620.69 1013.32 1609.89 1006.82 C 1604.26 997.044 1592.94 970.373 1588.48 959.388 C 1581.17 941.353 1569.73 916.744 1563.82 898.878 z" fill="rgb(26,58,40)" transform="translate(0,0)"></path>
<path d="M 1471.53 878.537 C 1504.7 879.799 1526.54 886.567 1557.23 896.863 C 1559.54 904.17 1564.22 914.176 1567.11 921.765 C 1577.06 947.925 1590.14 974.361 1600.41 1000.15 C 1593.56 997.574 1574.11 986.183 1566.81 982.26 C 1552.45 974.717 1537.86 967.62 1523.05 960.978 C 1507.21 933.351 1488.28 905.968 1471.53 878.537 z" fill="rgb(26,58,40)" transform="translate(0,0)"></path>
<path d="M 1811.44 825.797 C 1813.66 832.12 1815.13 886.969 1813.61 895.329 C 1802.16 910.281 1790.93 930.738 1781.03 947.033 C 1776.2 954.986 1764.84 978.326 1759.5 983.735 C 1759.17 979.43 1759 974.281 1758.99 969.97 C 1758.9 939.58 1754.92 907.743 1755.26 877.524 C 1777.67 855.922 1783.92 845.733 1811.44 825.797 z" fill="rgb(26,58,40)" transform="translate(0,0)"></path>
<path d="M 1867.98 796.196 C 1872.19 795.707 1878.44 796.087 1882.82 796.216 C 1905.55 808.688 1901.33 835.47 1896.44 856.58 C 1873.12 866.446 1850.62 874.815 1827.27 885.331 C 1842.03 863.497 1856.35 842.031 1871.92 820.747 C 1873.96 817.805 1877.53 813.771 1876.11 810.229 C 1869.11 814.648 1830.74 875.536 1820.1 888.114 C 1817.96 869.438 1816.61 841.622 1815.91 822.639 C 1829.59 813.454 1852.27 799.327 1867.98 796.196 z" fill="rgb(26,58,40)" transform="translate(0,0)"></path>
<path d="M 1750.67 883.851 C 1752.64 886.941 1755.48 980.516 1754.94 991.784 C 1754.8 994.789 1739.84 1026.62 1737.24 1033.54 C 1732.81 1024.47 1729.89 1017.6 1724.21 1009.21 C 1715.52 995.645 1705.03 985.093 1693.62 973.943 C 1706.34 946.427 1729.11 905.16 1750.67 883.851 z" fill="rgb(26,58,40)" transform="translate(0,0)"></path>
<path d="M 1894.85 859.918 C 1895.48 871.211 1875.36 918.082 1869.78 929.915 C 1840.24 939.391 1811.27 952.326 1781.92 962.118 C 1781.49 956.678 1817.29 900.994 1823.05 890.893 C 1846.42 879.987 1871.1 870.897 1894.85 859.918 z" fill="rgb(26,58,40)" transform="translate(0,0)"></path>
<path d="M 1653.82 946.772 C 1655.54 947.674 1656.78 948.445 1658.28 949.657 C 1700.78 983.956 1725.91 1029.79 1732.18 1083.69 C 1730.02 1083.08 1726.53 1080.24 1724.36 1078.85 C 1714.36 1072.46 1710.79 1072.07 1699.66 1070.7 C 1693.78 1066.01 1687.95 1061.26 1682.16 1056.46 C 1673.58 1020.07 1662.03 984.096 1653.82 946.772 z" fill="rgb(26,58,40)" transform="translate(0,0)"></path>
<path d="M 1864.35 935.9 L 1865.97 936.255 C 1865.01 946.841 1837 987.331 1829.82 996.079 C 1822.26 996.804 1764.15 1019.05 1755.45 1022.52 L 1754.45 1022.55 L 1753.8 1021.03 C 1761.11 1000.85 1768.39 987.526 1777.62 968.639 C 1800.4 958.113 1838.99 945.894 1864.35 935.9 z" fill="rgb(26,58,40)" transform="translate(0,0)"></path>
<path d="M 1821.8 1002.17 C 1821.36 1006.8 1808.61 1015.45 1803.18 1027.66 C 1803.79 1027.43 1823.22 1007.76 1827.04 1004.57 C 1830.45 1019.43 1834.87 1035.59 1838.81 1050.36 C 1829.19 1062.41 1818.18 1075.4 1811.52 1089.19 C 1808.26 1078.2 1801.84 1055.76 1805.93 1044.05 C 1806.4 1042.71 1808.98 1036.99 1809.7 1035.34 C 1808.62 1032.68 1809.51 1033.64 1806.9 1032.38 C 1801.21 1033.44 1799.23 1036 1795.98 1040.42 C 1788.98 1050.77 1781.65 1070.37 1780.35 1082.78 C 1777.98 1074.72 1767.21 1032.29 1758.71 1033.86 C 1753.34 1038.5 1747.9 1051.84 1744.68 1058.81 L 1744.06 1058.87 C 1745.5 1049.66 1750.24 1036.08 1753 1026.76 C 1762.37 1025 1811.47 1006.55 1821.8 1002.17 z" fill="rgb(26,58,40)" transform="translate(0,0)"></path>
<path d="M 1891.6 960.985 L 1892.48 961.87 C 1891.77 966.442 1882.33 982.289 1880.44 987.69 C 1877.06 997.332 1853.81 1049.47 1841.87 1044.88 L 1839.88 1039.02 C 1837.28 1027.08 1833.02 1012.4 1829.87 1000.37 C 1851.09 982.932 1867.68 974.324 1891.6 960.985 z" fill="rgb(26,58,40)" transform="translate(0,0)"></path>
<path d="M 1254.02 995.598 C 1257.46 996.475 1256.45 995.695 1258.09 998.282 C 1258.73 1013.79 1239.01 1033.53 1223.03 1027.63 C 1218.21 1025.85 1210.6 1021.86 1208.15 1017.35 C 1209.02 1014.91 1208.99 1015.63 1212.26 1014.08 C 1216.23 1014.6 1220.77 1016.39 1224.62 1017.74 L 1225.5 1017.22 C 1223.1 1011.84 1218.18 1003.25 1225.52 999.897 C 1230.79 1002.13 1233.81 1013.53 1234.61 1018.72 C 1240.2 1006.74 1242.39 1002.4 1254.02 995.598 z" fill="rgb(245,158,11)" transform="translate(0,0)"></path>
<path d="M 1835.94 1063.97 C 1844.03 1063.93 1850.17 1064.51 1858.26 1065.29 C 1847.28 1071.37 1839.79 1076.53 1829.97 1084.22 L 1817.02 1094.38 C 1821 1085.42 1830.2 1072.38 1835.94 1063.97 z" fill="rgb(26,58,40)" transform="translate(0,0)"></path>
<path d="M 874.18 901.035 C 882.49 900.647 884.66 902.849 891.259 908.05 C 886.206 910.902 883.929 912.233 878.498 914.09 C 874.069 914.903 870.722 914.327 866.923 911.915 C 865.222 909.116 865.558 910.418 865.878 906.896 C 867.705 903.758 870.869 902.671 874.18 901.035 z" fill="rgb(26,58,40)" transform="translate(0,0)"></path>
<path d="M 879.834 930.989 C 883.923 931.243 890.205 933.191 890.224 937.999 C 888.183 940.885 885.083 941.553 881.626 942.881 C 877.885 943.227 874.325 942.872 871.075 940.921 C 869.443 938.155 869.642 939.443 870.503 936.067 C 872.994 932.84 875.937 932.295 879.834 930.989 z" fill="rgb(26,58,40)" transform="translate(0,0)"></path>
<path d="M 917.364 914.848 C 921.981 915.101 928.729 916.403 930.751 920.874 C 928.685 924.388 927.974 923.921 923.821 926.203 C 918.792 926.33 911.27 927.11 910.124 921.048 C 911.538 917.802 914.2 916.757 917.364 914.848 z" fill="rgb(26,58,40)" transform="translate(0,0)"></path>
<path d="M 1341.55 990.755 C 1346.06 990.104 1352.8 990.897 1354.95 995.392 C 1353.21 998.552 1352.04 998.216 1348.1 999.989 C 1343.96 1000.59 1337.5 1000.4 1335.21 996.537 C 1336.9 992.872 1337.57 993.35 1341.55 990.755 z" fill="rgb(245,158,11)" transform="translate(0,0)"></path>
<path d="M 1241.24 942.96 C 1247.13 944.505 1248.86 945.539 1254.28 948.5 C 1250.65 949.606 1247.09 951.509 1243.67 953.179 C 1239.51 953.27 1232.68 952.949 1232.28 948.002 C 1234.12 945.005 1237.84 944.186 1241.24 942.96 z" fill="rgb(26,58,40)" transform="translate(0,0)"></path>
<path d="M 1297.12 963.085 C 1301.51 962.344 1306.94 965.728 1311 967.769 L 1300.54 972.674 C 1296.51 973.366 1290.42 972.375 1289.43 967.704 C 1291.8 964.283 1292.48 964.912 1297.12 963.085 z" fill="rgb(26,58,40)" transform="translate(0,0)"></path>
<path d="M 1287.61 925.028 C 1291.84 924.836 1298.94 925.833 1300.67 930.141 C 1297.85 933.18 1297.12 932.644 1292.6 934.108 C 1287.25 934.82 1282.56 931.888 1277.81 929.514 L 1287.61 925.028 z" fill="rgb(26,58,40)" transform="translate(0,0)"></path>
<path d="M 817.065 931.803 C 821.768 931.197 826.495 932.167 829.29 936.129 L 828.691 938.427 L 824.571 940.713 C 820.056 941.342 813.89 942.132 811.418 937.657 C 812.93 933.924 813.273 934.576 817.065 931.803 z" fill="rgb(26,58,40)" transform="translate(0,0)"></path>
<path d="M 819.405 909.058 C 824.019 908.395 831.019 908.657 833.378 913.28 C 831.555 915.96 831.534 915.396 828.391 916.865 C 824.132 917.902 817.708 918.003 815.022 914.078 C 816.047 910.954 816.526 911.334 819.405 909.058 z" fill="rgb(26,58,40)" transform="translate(0,0)"></path>
<path d="M 793.879 919.288 C 797.723 920.114 801.919 920.214 802.578 924.491 C 800.475 927.258 797.764 927.659 794.328 928.778 C 790.516 928.221 784.805 927.598 785.188 922.946 C 787.617 920.37 790.447 920.078 793.879 919.288 z" fill="rgb(26,58,40)" transform="translate(0,0)"></path>
<path d="M 208.924 206.063 C 209.15 198.472 209.145 190.86 209.732 183.403 C 220.323 48.833 387.228 21.4684 477.367 98.5051 C 490.596 109.811 498.812 119.085 509.704 132.145 C 563.672 122.333 632.662 152.005 657.61 201.961 C 670.838 228.448 670.228 252.422 661.264 280.023 C 702.091 279.312 747.461 283.534 779.145 312.518 C 841.816 369.849 789.772 452.183 731.55 488.316 C 657.74 534.124 581.44 535.821 498.987 518.569 C 467.422 563.134 444.968 588.636 401.939 622.844 C 412.153 746.75 415.096 866.101 421.328 989.988 C 403.426 1010.34 385.278 1016.55 358.583 1015.93 C 359.042 1010.27 359.442 1004.5 360.108 998.867 C 371.164 916.724 377.106 833.972 377.9 751.092 C 378.21 698.525 375.945 647.803 374.574 595.468 C 357.047 583.784 347.615 576.144 332.009 562.385 C 283.437 594.585 221.103 617.126 162.375 605.396 C 133.003 599.529 103.157 586.53 86.2952 560.591 C 61.4302 522.34 68.9835 470.181 99.3836 437.215 C 110.463 425.099 119.199 418.559 132.775 409.558 C 119.954 395.518 110.627 383.351 104.858 364.821 C 96.2896 336.544 99.3713 306.016 113.418 280.022 C 133.08 242.767 169.424 218.36 208.924 206.063 z" fill="rgb(13,150,104)" transform="translate(0,0)"></path>
<path d="M 323.24 320.966 C 308.127 283.052 293.945 245.927 287.465 205.385 C 286.066 196.63 279.798 171.421 285.653 165.208 L 287.666 165.678 C 291.768 170.216 293.051 181.007 294.392 187.177 C 305.339 237.546 324.869 284.678 345.486 331.71 C 353.188 349.282 358.837 368.295 366.135 386.15 C 372.31 352.728 374.379 318.677 372.294 284.754 C 371.821 276.158 364.401 238.482 370.888 235.573 C 371.995 236.191 374.432 237.884 374.688 239.068 C 385.712 290.198 384.129 355.808 371.722 404.976 C 422.116 367.127 458.064 319.513 478.333 259.7 C 481.109 251.508 488.046 210.962 496.222 210.972 C 500.718 216.485 495.842 230.509 494.463 236.943 C 486.119 275.869 469.666 312.117 447.503 345.068 C 484.878 334.816 511.926 324.29 539.914 295.69 C 546.783 288.671 558.482 273.996 565.161 268.675 C 567.71 267.849 568.027 267.919 570.56 268.827 L 571.319 271.116 C 570.645 274.26 569.236 276.996 567.285 279.534 C 532.687 324.541 494.864 345.587 440.628 355.365 C 424.045 376.915 397.314 407.191 374.072 422.205 C 378.896 440.176 389.16 495.042 390.027 513.64 C 400.868 504.023 409.778 495.012 419.804 484.553 C 443.391 499.727 455.499 505.119 482.67 514.261 C 485.677 507.072 495.576 493.164 499.81 485.334 C 510.458 465.644 521.422 445.065 530.448 424.604 C 519.843 421.976 487.659 412.299 483.913 401.624 L 484.776 399.955 C 488.7 398.926 501.741 404.813 505.991 406.438 C 515.881 410.221 525.357 412.531 535.648 414.852 C 540.542 405.379 571.403 339.565 574.285 336.726 C 577.761 335.782 576.275 335.763 579.99 337.154 C 580.827 338.243 582.213 339.332 581.656 340.615 C 566.41 375.756 552.529 412.576 537.351 447.657 C 592.71 432.604 645.339 432.446 692.932 394.552 C 704.64 385.229 715.102 375.223 726.833 366.166 C 728.216 365.187 730.164 366.557 731.347 367.118 C 732.992 370.259 732.796 368.841 731.957 372.464 C 694.586 414.236 646.781 435.784 592.83 446.69 C 571.4 451.022 552.036 453.874 531.103 460.517 C 521.903 479.693 511.199 501.151 498.987 518.569 C 467.422 563.134 444.968 588.636 401.939 622.844 C 412.153 746.75 415.096 866.101 421.328 989.988 C 403.426 1010.34 385.278 1016.55 358.583 1015.93 C 359.042 1010.27 359.442 1004.5 360.108 998.867 C 371.164 916.724 377.106 833.972 377.9 751.092 C 378.21 698.525 375.945 647.803 374.574 595.468 C 357.047 583.784 347.615 576.144 332.009 562.385 C 310.4 542.317 298.282 528.47 278.955 506.541 C 229.804 495.004 195.301 506.011 147.087 508.909 C 140.495 509.306 113.183 506.563 113.486 497.983 C 119.18 494.439 141.677 498.561 151.107 498.072 C 175.214 496.821 196.684 488.967 220.462 487.989 C 235.508 487.37 250.595 489.366 265.446 491.586 C 255.68 478.121 178.445 379.933 188.213 368.555 L 190.67 368.445 C 194.234 371.642 212.803 398.118 217.111 404.05 C 236.061 430.138 254.043 454.99 277.33 477.636 C 279.85 455.557 275.421 427.997 273.226 406.039 C 272.4 397.775 265.213 373.875 270.264 368.272 L 271.702 368.493 C 286.559 382.969 290.237 472.1 290.817 494.391 C 299.316 502.656 340.647 547.64 347.952 551.142 C 351.947 547.658 366.374 535.469 370.899 534.689 C 370.42 520.864 367.343 506.038 366.148 492.228 C 361.312 436.329 345.601 386.87 328.352 333.952 C 300.569 325.686 275.795 314.985 252.717 297.027 C 246.978 292.561 219.482 270.991 224.436 263.412 C 228.384 262.919 229.244 263.323 232.377 266.206 C 259.669 291.333 288.123 308.379 323.24 320.966 z" fill="rgb(26,58,40)" transform="translate(0,0)"></path>
<path d="M 390.027 513.64 C 400.868 504.023 409.778 495.012 419.804 484.553 C 443.391 499.727 455.499 505.119 482.67 514.261 C 467.882 540.009 424.804 581.454 400.115 598.878 C 398.651 591.084 397.634 576.777 396.77 568.517 C 395.028 550.166 392.779 531.867 390.027 513.64 z" fill="rgb(245,241,226)" transform="translate(0,0)"></path>
<path d="M 347.952 551.142 C 351.947 547.658 366.374 535.469 370.899 534.689 C 371.673 545.533 373.108 559.969 372.988 570.572 C 363.688 564.366 356.511 558.341 347.952 551.142 z" fill="rgb(245,241,226)" transform="translate(0,0)"></path>
<path d="M 1587.71 413.118 C 1621.11 418.685 1665.22 430.968 1698.89 439.117 C 1698.54 450.929 1698.27 462.745 1698.09 474.561 C 1715.52 476.981 1748.48 485.899 1766.54 490.19 C 1816.67 501.904 1866.63 514.318 1916.41 527.428 C 1922.27 528.939 1929.43 529.957 1932.44 535.034 C 1932.21 541.341 1929.02 541.891 1923.48 541.7 C 1905.74 535.802 1671.08 478.962 1662.49 479.654 C 1660.69 498.215 1661.84 543.226 1662.07 563.664 C 1662.56 607.422 1660.67 656.035 1662.43 699.116 C 1644.29 700.865 1612.38 704.362 1594.64 707.658 L 1592.2 707.579 C 1582.75 708.873 1576.02 709.665 1566.52 711.584 L 1566.7 696.028 C 1565.57 701.012 1566.99 707.251 1565.41 711.171 L 1563.05 711.673 C 1559.72 713.181 1547.92 714.855 1544.19 714.95 L 1540.08 715.23 C 1538.65 715.653 1527.93 716.856 1525.33 717.294 C 1510.87 719.729 1495.3 721.126 1481.07 724.509 C 1481.09 720.259 1481.55 710.77 1480.32 707.212 C 1480.38 711.774 1481.05 721.482 1478.95 724.752 L 1477.42 725.152 C 1471.83 724.978 1461.23 728.757 1457.03 726.861 L 1456.39 724.17 C 1455.95 725.998 1455.82 727.095 1455 728.79 L 1447.45 729.726 C 1440.34 730.505 1433.25 731.475 1426.19 732.634 L 1421.91 734.05 C 1417.38 734.286 1404.42 735.854 1400.12 736.953 L 1395.99 737.942 L 1392.99 738.67 L 1390.81 738.008 C 1388.88 739.941 1389.62 739.727 1387.27 740.355 C 1383.91 741.231 1370.87 744.303 1368.15 743.039 L 1367.67 742.316 L 1366.85 743.831 L 1365.05 744.231 L 1363.26 742.145 C 1363.03 742.978 1362.91 744.385 1362.16 744.812 C 1361.99 744.904 1219.69 774.05 1217.7 774.01 L 1217.18 687.617 C 1217.14 678.713 1217.7 667.113 1216.97 658.31 C 1216.68 654.719 1211.95 653.505 1208.67 651.518 C 1207.83 648.856 1208.78 647.329 1209.77 644.626 C 1217.01 640.134 1251.16 628.049 1261.17 624.367 C 1295.57 611.357 1330.14 598.78 1364.85 586.641 C 1364.87 562.07 1364.74 537.499 1364.47 512.93 C 1402.17 499.653 1441.97 483.772 1479.99 469.89 L 1480.06 451.942 C 1496.9 447.281 1520.03 437.78 1536.98 431.76 C 1551.74 426.521 1574.17 419.299 1587.71 413.118 z" fill="rgb(26,58,40)" transform="translate(0,0)"></path>
<path d="M 1363.57 604.657 L 1281.88 633.62 C 1271.67 637.306 1232.87 652.585 1224.21 652.049 C 1227.08 648.004 1353.99 604.486 1366.73 600.05 L 1367.16 696.203 C 1367.25 710.409 1368.46 728.834 1367.67 742.316 L 1366.85 743.831 L 1365.05 744.231 L 1363.26 742.145 C 1365.66 699.317 1362.6 648.879 1363.57 604.657 z" fill="rgb(245,241,226)" transform="translate(0,0)"></path>
<path d="M 1591.94 427.318 C 1607.66 431.61 1680.26 445.487 1687.43 451.547 C 1685.23 452.435 1604.35 433.995 1595.02 431.286 L 1594.87 617.996 L 1594.98 674.435 C 1595.01 683.695 1595.46 698.865 1594.64 707.658 L 1592.2 707.579 L 1591.94 427.318 z" fill="rgb(245,241,226)" transform="translate(0,0)"></path>
<path d="M 1544.92 670.536 C 1551.12 670.316 1557.28 670.52 1563.48 670.655 C 1563.71 681.53 1562.09 702.239 1563.05 711.673 C 1559.72 713.181 1547.92 714.855 1544.19 714.95 C 1543.47 701.6 1544.17 683.901 1544.92 670.536 z" fill="rgb(26,58,40)" transform="translate(0,0)"></path>
<path d="M 1540.98 649.401 C 1528.26 651.857 1506.67 658.439 1495.55 658.749 C 1499.65 654.796 1560.67 642.459 1569.64 641.416 L 1569.6 641.986 C 1561.42 645.094 1552.87 646.74 1544.32 648.609 C 1544.72 654.636 1544.44 661.7 1544.36 667.814 L 1566.85 667.964 C 1566.87 677.319 1566.82 686.674 1566.7 696.028 C 1565.57 701.012 1566.99 707.251 1565.41 711.171 L 1563.05 711.673 C 1562.09 702.239 1563.71 681.53 1563.48 670.655 C 1557.28 670.52 1551.12 670.316 1544.92 670.536 C 1544.17 683.901 1543.47 701.6 1544.19 714.95 L 1540.08 715.23 C 1539.49 704.448 1539.19 679.633 1541.65 670.123 C 1528.44 672.372 1515.94 675.62 1502.93 678.673 C 1497.48 679.953 1490.19 682.598 1485.07 682.875 L 1484.28 682.005 C 1489.25 677.51 1532.07 669.321 1541.02 668.445 L 1540.98 649.401 z" fill="rgb(245,241,226)" transform="translate(0,0)"></path>
<path d="M 1416.76 701.597 L 1419.83 701.887 C 1423.09 706.456 1421.87 727.032 1421.91 734.05 C 1417.38 734.286 1404.42 735.854 1400.12 736.953 C 1400.55 726.846 1400.3 716.444 1400.19 706.307 C 1405.87 704.832 1411.19 703.497 1416.76 701.597 z" fill="rgb(245,158,11)" transform="translate(0,0)"></path>
<path d="M 1426.73 704.452 C 1434.19 701.087 1440.71 697.581 1447.92 693.703 C 1447.58 705.27 1446.99 718.238 1447.45 729.726 C 1440.34 730.505 1433.25 731.475 1426.19 732.634 C 1426.17 725.519 1425.77 710.876 1426.73 704.452 z" fill="rgb(245,158,11)" transform="translate(0,0)"></path>
<path d="M 1477.42 725.152 C 1476.62 715.881 1475.56 642.858 1477.86 638.486 L 1479.1 638.721 C 1481.29 645.101 1479.82 695.698 1480.32 707.212 C 1480.38 711.774 1481.05 721.482 1478.95 724.752 L 1477.42 725.152 z" fill="rgb(245,241,226)" transform="translate(0,0)"></path>
<path d="M 1388 706.14 C 1407.33 700.101 1426.75 694.788 1446.15 689.072 C 1441.15 692.491 1432.28 696.471 1426.36 697.882 C 1423.9 698.438 1418.99 699.392 1416.78 700.105 C 1412 701.376 1395.99 706.044 1392.09 705.86 L 1389.92 707.581 C 1389.7 714.985 1389.73 730.84 1390.81 738.008 C 1388.88 739.941 1389.62 739.727 1387.27 740.355 C 1386.83 729.491 1387.58 717.12 1388 706.14 z" fill="rgb(245,241,226)" transform="translate(0,0)"></path>
<path d="M 1453.91 695.62 C 1453.94 692.778 1453.37 690.346 1454.88 688.725 C 1456.57 694.073 1456.05 717.207 1456.39 724.17 C 1455.95 725.998 1455.82 727.095 1455 728.79 C 1453.43 723.225 1453.9 702.493 1453.91 695.62 z" fill="rgb(245,241,226)" transform="translate(0,0)"></path>
<path d="M 1392.99 738.67 C 1393.46 731.576 1392.78 724.301 1393.1 717.19 C 1393.27 713.147 1392.73 713.375 1395.51 710.681 C 1396.27 719.452 1396.03 729.073 1395.99 737.942 L 1392.99 738.67 z" fill="rgb(245,241,226)" transform="translate(0,0)"></path>
<path d="M 1459.71 554.125 L 1460.05 605.217 C 1455.56 606.498 1427.91 615.609 1425.18 615.638 C 1424.43 601.163 1425.03 580.919 1425 565.989 C 1434.37 563.316 1451.21 558.544 1459.71 554.125 z" fill="rgb(245,158,11)" transform="translate(0,0)"></path>
<path d="M 1421.48 567.482 C 1422.01 581.252 1421.03 603.79 1422.33 615.7 C 1419.38 619.644 1394.78 626.184 1388.96 627.955 L 1388.88 578.403 C 1399.68 575.108 1410.76 571.144 1421.48 567.482 z" fill="rgb(245,158,11)" transform="translate(0,0)"></path>
<path d="M 1540.73 549.616 C 1540.81 547.088 1540.36 542.908 1542.06 541.658 C 1549.08 536.482 1562.98 534.886 1572.04 532.069 C 1572.08 539.274 1573.2 581.387 1570.86 584.506 C 1565.37 585.759 1545.86 590.084 1541.3 592.542 L 1540.63 584.478 C 1541.54 577.493 1541.12 556.872 1540.73 549.616 z" fill="rgb(245,158,11)" transform="translate(0,0)"></path>
<path d="M 1506.05 550.159 C 1512.89 548.182 1530.13 542.82 1536.36 542.219 C 1537.83 544.824 1537.41 549.342 1537.4 552.588 C 1537.3 561.692 1536.99 571.602 1537.31 580.633 C 1537.4 584.466 1537.94 589.906 1536.44 593.236 L 1533.89 594.303 C 1525.08 596.298 1514.56 598.669 1506 601.62 L 1506.05 550.159 z" fill="rgb(245,158,11)" transform="translate(0,0)"></path>
<path d="M 1569.58 477.953 C 1570.97 477.901 1570.26 477.8 1571.7 478.979 C 1572.86 489.977 1572.08 516.198 1572.05 528.305 C 1562.88 530.985 1552.64 533.433 1543.32 535.834 L 1542.21 535.737 C 1540.02 533.031 1541 494.229 1541.03 487.557 C 1550.77 484.747 1560.05 481.353 1569.58 477.953 z" fill="rgb(245,158,11)" transform="translate(0,0)"></path>
<path d="M 1534.59 489.944 L 1535.95 489.971 C 1538.38 493.31 1537.11 530.512 1537.03 537.511 C 1527.61 540.756 1517.92 543.261 1508.3 545.873 L 1507.03 545.815 C 1505.31 543.08 1505.96 505.65 1505.97 500.001 C 1514.56 496.472 1525.64 492.977 1534.59 489.944 z" fill="rgb(245,158,11)" transform="translate(0,0)"></path>
<path d="M 1535.89 597.174 C 1538.22 600.611 1537.18 631.944 1538.15 640.503 C 1527.45 643.213 1516.64 646.049 1505.91 648.617 C 1505.95 636.231 1505.34 616.406 1506.11 604.647 C 1516 602.684 1526.11 599.796 1535.89 597.174 z" fill="rgb(245,158,11)" transform="translate(0,0)"></path>
<path d="M 1571.86 587.295 C 1572.03 601.995 1572.09 616.697 1572.01 631.398 C 1561.79 634.193 1551.22 636.865 1541.07 639.743 C 1541.14 631.461 1540.05 601.136 1542.31 596.151 C 1543.89 595.375 1544.52 594.958 1546.31 594.696 C 1554.09 592.095 1563.86 589.563 1571.86 587.295 z" fill="rgb(245,158,11)" transform="translate(0,0)"></path>
<path d="M 1424.96 525.967 C 1436.48 521.873 1447.97 517.685 1459.42 513.403 C 1459.62 520.303 1461.03 546.486 1458.79 551.342 L 1456.2 552.222 C 1445.69 555.789 1434.55 559.39 1424.16 563.124 C 1425.22 557.627 1424.96 533.299 1424.96 525.967 z" fill="rgb(245,158,11)" transform="translate(0,0)"></path>
<path d="M 1388.96 538.667 C 1400.14 534.767 1411.3 530.802 1422.44 526.772 C 1421.68 533.061 1423.28 561.735 1420.18 564.553 C 1419.86 564.847 1419.54 564.961 1419.16 565.129 C 1409.77 567.431 1397.84 571.788 1388.46 574.931 C 1388.76 562.845 1388.92 550.756 1388.96 538.667 z" fill="rgb(245,158,11)" transform="translate(0,0)"></path>
<path d="M 1465.88 506.539 L 1467.49 508.125 C 1468.46 515.011 1467.94 538.726 1467.92 546.902 L 1467.87 624.424 C 1437.51 632.051 1405.02 644.526 1374.33 653.024 L 1373.34 651.096 C 1376.36 647.881 1454.71 624.205 1464.96 620.901 L 1464.89 544.014 C 1464.89 536.958 1464.32 512.079 1465.88 506.539 z" fill="rgb(245,241,226)" transform="translate(0,0)"></path>
<path d="M 1494.26 478.419 L 1495.88 479.193 C 1497.88 482.341 1497.54 639.108 1496.76 654.554 C 1495.12 653.774 1495.65 654 1494.34 652.54 C 1492.98 643.507 1493.76 592.649 1493.75 581.029 L 1493.75 515.623 C 1493.75 504.693 1493.3 489.02 1494.26 478.419 z" fill="rgb(245,241,226)" transform="translate(0,0)"></path>
<path d="M 1307.82 650.152 C 1309.86 649.705 1309.72 649.746 1311.71 650.445 C 1313.89 655.185 1312.84 667.621 1312.62 673.318 C 1307 674.822 1299.87 677.304 1294.22 679.109 C 1292.53 679.609 1293.41 679.57 1291.53 678.883 C 1290.3 674.086 1290.87 662.537 1290.07 655.745 C 1295.76 653.746 1302.02 651.943 1307.82 650.152 z" fill="rgb(245,158,11)" transform="translate(0,0)"></path>
<path d="M 1268.64 663.107 C 1270.6 666.078 1270.02 682.441 1270.04 687.109 C 1263.81 688.955 1255.62 692.166 1249.36 694.426 C 1246.98 690.842 1248.11 676.004 1248.25 670.628 C 1254.13 668.085 1262.45 665.337 1268.64 663.107 z" fill="rgb(245,158,11)" transform="translate(0,0)"></path>
<path d="M 1310.24 704.044 L 1311.45 704.339 C 1312.92 707.722 1312.78 723.823 1312.88 728.541 L 1294.23 733.216 C 1292.33 733.297 1293.25 733.488 1291.46 732.329 C 1290.41 726.579 1290.89 716.046 1290.99 709.814 C 1296.11 708.693 1304.91 705.705 1310.24 704.044 z" fill="rgb(245,158,11)" transform="translate(0,0)"></path>
<path d="M 1267.99 717.254 L 1268.58 717.676 C 1269.83 720.593 1269.46 735.848 1269.47 740.075 L 1247.58 746.94 C 1246.89 741.781 1247.38 729.42 1247.26 723.355 C 1254.68 720.868 1260.4 719.142 1267.99 717.254 z" fill="rgb(245,158,11)" transform="translate(0,0)"></path>
<path d="M 1483.15 484.162 L 1484.47 485.059 L 1484.7 486.559 C 1481.53 488.213 1477.61 489.487 1474.18 490.578 C 1441.52 500.94 1409.5 514.295 1377.02 524.948 L 1375.52 523.121 C 1377.48 520.142 1472.5 487.496 1483.15 484.162 z" fill="rgb(245,241,226)" transform="translate(0,0)"></path>
<path d="M 1453.49 663.067 C 1454.69 663.045 1454.67 663.233 1455.9 663.722 L 1455.53 665.255 C 1448.22 669.621 1389.44 685.84 1378.23 688.833 L 1375.71 688.992 L 1375.09 687.349 C 1379.15 683.652 1443.82 665.892 1453.49 663.067 z" fill="rgb(245,241,226)" transform="translate(0,0)"></path>
<path d="M 1579.66 430.03 C 1581.03 430.211 1580.36 429.955 1581.47 431.285 C 1579.01 435.199 1503.02 460.816 1494.12 463.958 L 1492.28 464.045 L 1490.8 462.648 C 1492.57 460.66 1569.67 433.651 1579.66 430.03 z" fill="rgb(245,241,226)" transform="translate(0,0)"></path>
<path d="M 1451.57 648.258 C 1454.21 648.232 1453.1 647.825 1455.07 649.25 C 1452.57 652.713 1388.46 671.009 1378.27 674.46 C 1377.28 674.67 1376.22 674.606 1375.18 674.615 L 1374.8 673.351 C 1380.58 667.999 1439.24 652.124 1451.57 648.258 z" fill="rgb(245,241,226)" transform="translate(0,0)"></path>
<path d="M 1381.89 538.454 C 1382.45 538.878 1383.27 539.943 1383.77 540.53 C 1384.68 550.96 1386.17 626.838 1382.49 631.803 C 1379.82 625.204 1381.48 550.155 1381.89 538.454 z" fill="rgb(245,241,226)" transform="translate(0,0)"></path>
<path d="M 1454.68 675.172 C 1455.71 676.05 1455.27 675.509 1455.56 677.206 C 1450.99 679.225 1434.86 683.376 1429.47 684.866 L 1375.38 699.699 L 1374.74 698.844 L 1375.13 697.383 C 1396.38 689.612 1431.14 682.129 1454.68 675.172 z" fill="rgb(245,241,226)" transform="translate(0,0)"></path>
<path d="M 150.158 695.621 C 150.017 688.431 149.844 681.688 152.368 674.849 C 165.013 640.584 220.461 637.938 241.718 664.712 C 244.68 668.443 246.257 671.901 248.135 676.248 C 267.525 670.475 292.17 669.151 304.013 690.677 C 308.803 699.386 306.858 708.715 303.756 717.796 C 341.958 729.737 331.111 760.252 307.098 781.817 C 285.231 801.454 252.848 811.04 223.878 807.891 C 219.908 807.459 215.581 807.284 211.513 807.013 C 216.934 884.777 213.115 950.491 211.114 1028.03 L 210.782 1032.47 C 205.736 1034.01 199.607 1035.69 194.72 1037.4 C 197.773 1002.97 199.646 970.475 200.74 935.905 C 201.452 913.401 203.039 891.316 203.082 868.698 C 184.128 849.561 182.025 849.462 166.411 825.996 C 154.674 831.223 141.039 835.502 127.961 834.977 C 109.82 834.248 88.3902 822.727 90.074 801.807 C 91.2899 786.7 100.47 777.998 111.217 768.609 C 88.209 728.854 114.497 708.599 150.158 695.621 z" fill="rgb(245,158,11)" transform="translate(0,0)"></path>
<path d="M 194.702 749.014 L 194.61 748.124 C 193.5 738.104 181.801 699.937 184.174 695.414 C 190.934 698.197 202.196 754.904 204.92 765.448 C 209.433 753.036 222.061 719.458 228.988 709.455 L 229.866 709.971 C 229.781 725.087 210.268 754.729 208.986 773.027 C 208.11 785.546 209.405 788.39 210.487 800.547 C 235.373 778.321 243.228 748.66 258.142 720.545 C 258.416 720.028 259.078 719.094 259.411 718.593 C 257.328 734.548 245.726 759.008 237.893 773.156 C 253.87 768.5 266.871 764.988 280.466 754.223 C 286.376 749.543 296.368 734.354 301.25 735.886 C 300.728 741.435 287.061 753.812 282.598 757.807 C 272.2 767.114 254.379 774.508 240.45 776.694 C 231.859 778.403 227.795 790.526 221.652 796.806 C 218.121 800.415 215.299 803.561 211.513 807.013 C 216.934 884.777 213.115 950.491 211.114 1028.03 L 210.782 1032.47 C 205.736 1034.01 199.607 1035.69 194.72 1037.4 C 197.773 1002.97 199.646 970.475 200.74 935.905 C 201.452 913.401 203.039 891.316 203.082 868.698 C 184.128 849.561 182.025 849.462 166.411 825.996 C 160.137 816.607 155.094 805.902 150.298 795.709 C 139.007 798.809 129.773 801.42 118.106 796.931 C 122.802 794.483 141.795 798.143 148.491 791.852 L 148.354 788.548 C 145.507 783.359 134.081 757.311 135.853 753.192 L 137.505 753.351 C 143.203 761.606 145.145 777.887 152.289 787.01 C 154.59 783.624 163.188 769.681 165.515 768.166 L 166.632 769.1 C 166.224 776.954 155.513 786.056 153.553 792.259 C 157.322 797.438 169.802 815.646 172.286 821.012 C 177.461 816.101 196.073 803.276 203.08 797.785 C 203.079 797.031 203.092 795.568 202.931 794.524 C 200.909 781.426 199.991 766.801 195.586 754.325 C 194.301 753.288 193.26 752.447 192.463 751.804 C 178.866 743.061 161.907 733.552 152.178 721.06 C 159.976 724.857 186.273 743.282 194.702 749.014 z" fill="rgb(26,58,40)" transform="translate(0,0)"></path>
<path d="M 172.286 821.012 C 177.461 816.101 196.073 803.276 203.08 797.785 C 203.793 813.033 202.805 842.751 204.121 855.287 C 189.473 842.686 184.354 835.931 172.286 821.012 z" fill="rgb(245,241,226)" transform="translate(0,0)"></path>
<path d="M 901.272 604.602 C 902.096 600.355 902.785 595.407 904.01 591.309 C 920.213 537.096 992.709 554.087 1013.82 594.64 C 1027.82 593.389 1040.84 594.975 1052.04 604.339 C 1059.91 611.01 1064.79 620.554 1065.59 630.843 C 1068.09 659.888 1042.37 681.561 1017.33 690.485 C 997.435 697.574 977.177 697.35 956.387 699.172 C 956.536 705.592 956.791 712.232 957.322 718.633 C 960.491 756.818 955.548 797.134 957.135 835.042 C 952.955 836.693 950.307 838.4 946.426 837.314 L 945.582 834.294 C 946.034 809.31 946.856 784.335 948.045 759.375 C 939.698 750.626 922.494 727.724 916.374 718.153 C 915.281 718.853 914.157 719.502 913.004 720.098 C 855.568 749.847 810.58 694.48 864.228 669.005 C 844.463 637.937 867.553 607.785 901.272 604.602 z" fill="rgb(245,158,11)" transform="translate(0,0)"></path>
<path d="M 941.445 639.957 C 937.827 627.463 935.673 614.549 932.095 601.866 L 933.26 601.683 C 936.993 604.838 941.5 623.318 942.798 628.888 C 946.062 639.377 948.391 649.257 950.94 659.908 C 959.144 645.232 973.254 614.328 980.47 603.31 C 976.937 621.171 962.225 649.552 952.051 664.442 C 953.233 671.953 954.631 679.945 955.593 687.441 C 984.87 666.02 987.479 648.307 1002.56 620.061 C 1000.81 633.854 992.059 655.662 982.958 666.197 C 1002.56 662.032 1016 656.725 1032.37 644.631 C 1037.1 641.136 1044.17 634.985 1048.86 632.325 C 1036.71 650.918 1014.92 663.563 993.505 668.288 C 991.83 668.657 990.136 668.934 988.431 669.119 C 987.775 669.231 981.323 670.328 981.323 670.328 C 973.131 678.684 966.107 686.784 956.249 693.404 C 955.652 696.177 955.761 696.338 956.387 699.172 C 956.536 705.592 956.791 712.232 957.322 718.633 C 960.491 756.818 955.548 797.134 957.135 835.042 C 952.955 836.693 950.307 838.4 946.426 837.314 L 945.582 834.294 C 946.034 809.31 946.856 784.335 948.045 759.375 C 939.698 750.626 922.494 727.724 916.374 718.153 C 911.335 710.631 907.126 703.508 902.54 695.691 C 893.38 696.024 881.348 696.967 872.668 694.218 C 875.092 692.095 896.217 692.516 900.902 692.491 C 897.472 685.798 888.282 664.261 887.503 657.048 L 888.633 656.371 C 893.256 661.404 895.992 678.712 902.063 683.116 L 904.222 681.104 C 906.67 672.746 909.521 666.529 913.999 659.14 C 912.722 667.164 910.495 675.008 907.365 682.506 L 903.545 689.725 C 908.979 698.873 915.059 707.623 921.737 715.907 C 932.566 706.646 934.39 699.62 949.817 700.142 C 949.333 697.225 949.274 692.61 949.063 689.503 C 948.102 675.38 946.185 662.419 942.692 648.702 C 925.577 643.398 914.888 638.5 901.881 626.115 C 908.85 629.866 934.906 645.389 941.519 643.199 L 941.445 639.957 z" fill="rgb(26,58,40)" transform="translate(0,0)"></path>
<path d="M 921.737 715.907 C 932.566 706.646 934.39 699.62 949.817 700.142 C 949.444 714.847 948.842 729.892 948.833 744.57 C 938.864 735.704 930.339 726.087 921.737 715.907 z" fill="rgb(245,241,226)" transform="translate(0,0)"></path>
<path d="M 621.633 811.371 C 642.343 823.55 637.675 835.839 635.101 855.034 C 634.24 861.461 655.48 879.902 661.586 882.82 C 665.918 885.311 675.562 889.391 676.96 891.378 L 676.494 893.928 C 670.202 895.724 656.167 888.26 650.151 884.997 C 639.011 878.956 625.258 869.079 621.173 856.613 C 620.064 862.928 636.229 892.723 639.053 900.959 C 642.215 910.18 643.439 914.832 645.371 924.772 C 645.791 940.819 650.761 949.344 633.436 956.261 C 629.649 966.384 625.166 977.59 621.736 987.735 C 619.911 994.135 614.533 1006.73 611.915 1013.38 C 618.791 1016.8 622.113 1018.61 628.426 1022.94 C 592.101 1035.44 603.603 1011.2 607.28 987.017 C 597.335 986.978 587.39 987.029 577.446 987.172 C 573.085 992.354 566.474 1008.76 562.472 1009.81 C 555.179 1005.48 554.604 997.264 556.918 989.944 C 559.869 986.829 559.059 987.738 563.85 986.678 C 572.509 973.171 573.638 969.935 585.43 959.07 C 571.946 953.677 572.835 951.126 563.86 942.7 L 560.142 942.964 C 544.778 939.187 532.456 935.773 517.743 929.999 C 518.774 924.707 522.181 906.872 526.421 906.387 C 538.571 904.998 532.852 902.007 539.658 895.215 C 542.832 894.311 545.904 895.405 549.13 896.195 C 549.935 893.191 551.552 888.993 552.636 885.941 C 558.233 872.99 566.725 861.486 570.619 852.032 C 568.924 850.537 568.73 850.46 567.746 848.475 C 568.246 847.129 568.796 845.802 569.395 844.496 C 574.947 832.48 588.082 817.024 600.921 812.176 C 604.329 817.054 607.824 821.869 611.404 826.621 C 615.477 822.232 620.305 817.31 621.633 811.371 z" fill="rgb(26,58,40)" transform="translate(0,0)"></path>
<path d="M 559.497 891.897 C 568.196 876.734 574.57 866.329 586.395 853.66 C 581.968 865.78 580.948 872.069 579.512 884.681 C 578.18 896.38 586.364 934.656 570.816 936.763 C 568.668 933.058 570.148 929.126 571.245 925.014 C 572.158 921.696 573.018 918.364 573.825 915.018 C 570.299 914.158 565.392 913.494 563.338 910.723 C 561.916 903.905 563.999 900.931 558.687 896.557 L 558.138 895.409 L 559.497 891.897 z" fill="rgb(245,241,226)" transform="translate(0,0)"></path>
<path d="M 577.446 987.172 C 583.561 981.13 602.894 961.317 611.106 962.591 C 612.191 965.839 607.914 981.696 607.28 987.017 C 597.335 986.978 587.39 987.029 577.446 987.172 z" fill="rgb(13,150,104)" transform="translate(0,0)"></path>
<path d="M 552.636 885.941 C 554.807 887.723 557.635 889.878 559.497 891.897 L 558.138 895.409 L 558.687 896.557 C 556.981 899.481 556.622 899.94 556.764 903.284 C 553.003 906.126 551.91 905.057 548.392 906.207 C 546.853 903.761 547.012 903.458 547.072 900.432 C 549.259 898.245 548.693 899.357 549.13 896.195 C 549.935 893.191 551.552 888.993 552.636 885.941 z" fill="rgb(13,150,104)" transform="translate(0,0)"></path>
<path d="M 547.178 907.939 C 544.107 907.626 543.676 907.591 541.061 905.983 C 539.439 902.924 539.557 904.186 540.313 901.215 C 543.375 899.344 542.754 899.97 547.072 900.432 C 547.012 903.458 546.853 903.761 548.392 906.207 L 547.178 907.939 z" fill="rgb(245,241,226)" transform="translate(0,0)"></path>
<path d="M 556.764 903.284 C 557.618 907.41 557.969 906.239 556.647 909.292 C 553.541 910.346 550.522 908.93 547.178 907.939 L 548.392 906.207 C 551.91 905.057 553.003 906.126 556.764 903.284 z" fill="rgb(245,241,226)" transform="translate(0,0)"></path>
<path d="M 1150.52 745.451 C 1140.51 743.616 1130.74 739.511 1125.1 730.092 C 1110.38 705.289 1112.89 670.9 1117.2 643.025 C 1121.21 617.113 1145.71 557.535 1175.16 601.155 C 1195.81 631.734 1209.53 738.639 1157.2 744.518 C 1157.53 755.675 1157.38 774.851 1158.38 785.202 C 1156.39 789.31 1154.74 788.877 1150.21 788.834 C 1150.16 774.372 1150.26 759.911 1150.52 745.451 z" fill="rgb(13,150,104)" transform="translate(0,0)"></path>
<path d="M 1150.64 686.019 C 1146.53 682.02 1127.3 663.086 1126.75 658.319 C 1133.39 663.452 1144.85 674.327 1150.98 680.436 C 1150.96 675.198 1150.05 663.013 1153.11 659.425 C 1155.68 665.991 1156.79 714.372 1157.55 725.037 C 1166.23 713.85 1176.85 704.301 1188.88 696.838 C 1179.16 711.513 1169.53 718.785 1157.47 731.216 L 1157.2 744.518 C 1157.53 755.675 1157.38 774.851 1158.38 785.202 C 1156.39 789.31 1154.74 788.877 1150.21 788.834 C 1150.16 774.372 1150.26 759.911 1150.52 745.451 C 1150.56 737.744 1150.9 727.505 1150.46 720.001 C 1138.21 708.903 1128.04 699.787 1117.5 686.9 C 1128.47 693.583 1141.3 704.368 1150.89 713.077 C 1150.78 705.692 1150.2 692.982 1150.64 686.019 z" fill="rgb(26,58,40)" transform="translate(0,0)"></path>
<path d="M 1174.31 669.796 L 1175.42 670.184 L 1175.38 672.201 C 1172.59 676.423 1164.82 682.688 1160.73 686.266 L 1159.41 686.633 L 1158.86 685.239 C 1161.27 679.322 1169.18 673.642 1174.31 669.796 z" fill="rgb(26,58,40)" transform="translate(0,0)"></path>
<path d="M 560.142 942.964 L 563.86 942.7 C 572.835 951.126 571.946 953.677 585.43 959.07 C 573.638 969.935 572.509 973.171 563.85 986.678 C 555.086 985.66 537.794 986.679 528.351 986.893 L 462.408 988.324 C 451.389 988.566 437.532 989.464 426.836 988.903 C 439.904 983.302 459.02 977.99 473.2 973.21 C 502.275 963.404 531.257 953.322 560.142 942.964 z" fill="rgb(13,150,104)" transform="translate(0,0)"></path>
<path d="M 609.007 792.916 C 606.258 800.487 600.662 802.517 595.12 807.914 C 583.478 819.252 550.185 830.962 545.805 806.763 C 544.659 781.977 572.511 786.129 586.119 779.163 C 594.875 774.682 611.958 754.22 623.736 764.308 C 625.544 767.415 626.343 768.308 625.804 771.968 C 624.055 776.296 617.852 779.447 616.21 783.54 C 615.206 786.043 617.88 786.65 614.014 790.289 L 609.657 791.426 L 609.007 792.916 z" fill="rgb(26,58,40)" transform="translate(0,0)"></path>
<path d="M 144.914 1037.15 C 144.794 1028.8 145.162 997.009 155.897 996.107 C 159.641 1000.85 159.813 1020.45 160.372 1027.57 C 162.64 1021.96 165.656 1016.68 169.337 1011.88 C 171.539 1009 173.492 1006.37 177.151 1005.85 C 185.262 1011.84 173.089 1037.47 169.18 1044.8 C 163.385 1046.92 136.89 1056.66 131.845 1057.31 C 123.412 1054.95 95.4028 1047.72 92.0829 1039.27 L 93.5585 1037.86 C 102.074 1035.42 121.414 1038.07 130.175 1039.94 C 124.914 1035.77 112.842 1027.14 110.429 1021.16 L 111.606 1019.65 C 122.248 1019.98 137.125 1030.21 144.914 1037.15 z" fill="rgb(13,150,104)" transform="translate(0,0)"></path>
<path d="M 609.007 792.916 L 609.657 791.426 L 614.014 790.289 C 617.88 786.65 615.206 786.043 616.21 783.54 C 617.852 779.447 624.055 776.296 625.804 771.968 C 625.771 778.374 631.589 778.314 630.613 784.784 C 629.456 792.449 624.404 797.496 620.261 803.525 C 619.494 804.641 620.114 809.872 621.633 811.371 C 620.305 817.31 615.477 822.232 611.404 826.621 C 607.824 821.869 604.329 817.054 600.921 812.176 C 611.573 811.241 609.516 800.295 609.007 792.916 z" fill="rgb(13,150,104)" transform="translate(0,0)"></path>
<path d="M 211.114 1028.03 C 216.635 1027.03 213.675 1023.22 224.431 1022.74 C 227.885 1018.07 222.389 1009.54 230.078 1007.49 C 235.221 1010.26 234.165 1016.96 234.323 1022.31 C 237.148 1019.05 239.666 1015.46 243.708 1014.13 L 245.804 1014.21 C 246.594 1017.79 243.746 1020.76 241.578 1023.5 L 235.033 1025.64 L 210.782 1032.47 L 211.114 1028.03 z" fill="rgb(13,150,104)" transform="translate(0,0)"></path>
<path d="M 1775.23 96.3958 C 1776.3 96.2826 1777.37 96.2095 1778.44 96.1767 C 1790.34 95.8249 1796.93 98.1859 1805.35 106.063 C 1808.47 116.709 1808.27 119.943 1804.33 130.194 C 1809.19 127.341 1814.22 124.569 1819.26 121.92 C 1844.47 108.677 1915.38 92.5988 1913.98 139.997 C 1913.48 157.1 1903.5 167.513 1891.81 178.627 C 1908.06 177.464 1996.79 173.262 1982.02 211.041 C 1972.44 235.558 1927.27 232.385 1904.25 232.707 C 1888.62 232.923 1872.99 233.283 1857.36 233.786 C 1783.59 236.256 1709.94 241.599 1636.58 249.802 C 1454.12 269.138 1277.79 302.871 1106.27 370.075 C 1068.67 384.783 1031.66 400.933 995.302 418.49 C 978.066 426.897 956.646 439.56 940.287 446.583 C 988.297 404.5 1034.17 376.613 1090.81 346.633 C 1192.33 293.516 1300.07 253.229 1411.53 226.697 C 1455.62 216.069 1497.12 208.49 1541.62 200.481 C 1556.47 176.917 1589.08 143.528 1621.88 152.215 C 1630.38 154.467 1635.14 161.672 1638.82 169.324 C 1647.68 161.564 1657.77 153.953 1667.25 146.921 C 1701.45 121.559 1731.99 100.869 1775.23 96.3958 z" fill="rgb(245,158,11)" transform="translate(0,0)"></path>
<path d="M 1213.76 396.949 C 1251.63 380.88 1294.15 367.99 1333.52 356.106 C 1512 302.237 1705.92 277.562 1890.32 314.45 C 1909.16 318.219 1992.48 335.503 2004.51 346.33 L 2004.76 347.774 C 1998.11 348.37 1940.29 339.262 1929.44 337.798 C 1891.25 332.56 1852.88 328.765 1814.4 326.423 C 1786.27 324.659 1758.69 324.691 1730.55 324.678 C 1586.77 325.225 1443.53 342.394 1303.69 375.844 C 1283.75 380.434 1263.87 385.307 1244.06 390.461 C 1237.76 392.081 1220.86 396.202 1215.63 398.408 L 1213.76 396.949 z" fill="rgb(245,158,11)" transform="translate(0,0)"></path>
<path d="M 875.463 102.682 C 877.928 105.039 877.065 110.059 877.253 113.262 C 878.641 136.873 858.359 145.781 846.597 162.285 C 842.963 167.384 841.862 174.997 840.586 181.255 C 866.126 174.264 879.677 171.291 901.567 189.317 C 897.104 189.245 886.105 188.585 882.311 189.49 C 859.285 194.982 863.252 207.099 835.253 211.926 C 818.206 216.229 800.64 207.217 783.877 211.215 C 776.607 212.949 768.18 223.529 762.004 227.723 C 753.767 233.316 741.839 222.076 733.847 219.479 C 729.525 218.074 725.996 217.334 721.687 216.487 C 730.803 211.517 736.515 209.727 746.39 207.289 C 763.832 202.206 786.053 198.495 804.33 196.666 C 771.529 160.49 742.127 189.217 722.049 131.42 C 732.552 139.009 741.619 145.226 753.978 149.563 C 775.165 156.996 793.535 156.086 812.075 169.924 C 813.176 160.886 814.808 154.504 821.779 148.257 C 839.567 132.317 862.828 124.355 875.463 102.682 z" fill="rgb(26,58,40)" transform="translate(0,0)"></path>
<path d="M 1102.34 440.368 C 1128.89 437.955 1142.84 451.764 1151.24 474.88 C 1174.85 454.819 1201.82 452.545 1213.08 485.89 C 1182.46 486.159 1151.83 486.194 1121.21 485.994 L 1007.52 486.444 C 1008.67 483.42 1010.16 479.808 1012 477.17 C 1017.54 469.171 1026.14 463.815 1035.76 462.368 C 1048.64 460.36 1056.08 464.541 1065.82 471.528 C 1073.8 452.566 1082.79 445.663 1102.34 440.368 z" fill="rgb(245,158,11)" transform="translate(0,0)"></path>
<path d="M 91.682 133.227 L 95.5474 133.973 C 100.048 137.136 101.039 148.309 103.042 154.944 C 108.602 157.277 125.901 158.922 127.046 164.926 C 124.25 167.539 115.158 169.668 110.727 171.334 C 97.538 176.294 104.929 185.182 99.0208 198.824 C 90.8646 196.848 90.9829 183.112 88.1246 174.746 C 81.7942 172.845 64.4126 171.756 62.4443 166.664 C 64.8055 162.489 80.2496 158.336 86.2516 155.627 C 89.0786 151.366 90.6823 138.837 91.682 133.227 z" fill="rgb(245,158,11)" transform="translate(0,0)"></path>
<path d="M 990.441 232.261 C 997.476 234.755 999.308 252.45 1002.05 260.148 C 1008.31 261.842 1019.27 262.432 1023.8 266.559 L 1023 268.218 C 1016.59 271.673 1008.37 273.406 1001.23 275.281 C 999.473 283.588 997.634 294.488 994.327 302.047 C 988.275 300.108 985.931 282.171 984.506 275.853 C 976.918 272.934 964.602 271.68 959.353 266.902 L 959.504 265.462 C 964.383 262.335 976.679 261.692 981.56 258.967 C 986.553 256.179 987.765 240.103 990.441 232.261 z" fill="rgb(245,158,11)" transform="translate(0,0)"></path>
<path d="M 765.612 724.662 C 769.633 728.148 772.952 742.156 774.67 747.998 C 783.425 750.639 791.706 753.264 799.914 757.321 C 792.394 760.137 783.652 762.874 775.965 765.482 C 773.382 773.882 770.748 783.172 767.457 791.237 C 764.357 786.686 760.217 771.123 758.404 765.018 C 747.754 763.216 741.287 761.926 731.357 757.836 C 740.339 754.438 749.847 751.802 759.08 749.09 C 761.043 740.694 763.23 732.953 765.612 724.662 z" fill="rgb(245,158,11)" transform="translate(0,0)"></path>
<path d="M 516.367 635.317 C 521.801 637.776 523.969 653.884 525.271 659.715 C 530.909 661.204 543.546 662.807 547.239 666.671 L 546.751 668.287 C 540.719 672.332 531.926 672.329 524.685 676.488 C 523.689 685.361 522.186 692.121 518.891 700.367 C 511.721 696.744 510.578 682.512 509.13 675.038 C 498.723 672.526 493.436 671.853 483.518 667.651 C 490.897 664.832 501.136 662.323 508.956 660.186 C 511.774 652.016 512.204 643.441 516.367 635.317 z" fill="rgb(245,158,11)" transform="translate(0,0)"></path>
<path d="M 1524.19 90.2778 C 1529.82 93.7306 1531.09 105.608 1534.16 114.033 C 1540.48 115.626 1548.88 117.131 1554.09 120.613 L 1554.03 122.211 C 1549.41 125.239 1539.82 127.769 1533.96 129.786 C 1531.51 138.282 1531.99 148.223 1525.85 152.766 C 1522.62 149.603 1517.42 133.843 1514.59 127.638 C 1505.94 126.269 1499.27 125.391 1490.93 122.688 C 1496.97 119.895 1508.85 116.448 1515.97 113.823 C 1518.8 107.264 1521.34 97.6622 1524.19 90.2778 z" fill="rgb(245,158,11)" transform="translate(0,0)"></path>
<path d="M 1101.17 89.4298 C 1107.35 91.1851 1108.46 103.681 1109.7 109.41 C 1114.04 110.622 1123.05 112.815 1126.67 114.827 C 1126.36 119.418 1110.39 121.713 1109.78 122.812 C 1106.24 129.281 1107.44 136.106 1103.5 143.344 C 1098.61 139.551 1098.11 129.422 1096.98 122.84 C 1088.61 120.8 1082.51 119.405 1074.52 116.26 C 1081.55 113.184 1088.51 111.545 1095.91 109.577 C 1097.77 102.891 1099.53 96.1745 1101.17 89.4298 z" fill="rgb(245,158,11)" transform="translate(0,0)"></path>
<path d="M 872.993 325.586 C 876.647 327.923 878.008 340.878 878.868 345.395 C 884.009 346.284 894.049 347.466 897.958 350.091 L 897.35 351.4 C 892.136 353.826 885.018 354.71 879.235 355.729 C 878.481 361.564 877.451 372.045 875.597 377.146 L 874.043 376.4 C 871.627 372.946 869.875 360.52 868.979 355.578 L 866.858 355.357 C 862.786 354.923 853.613 354.413 851.143 351.359 C 854.323 348.175 864.376 348.051 869.077 347.789 C 869.56 342.545 870.207 329.251 872.993 325.586 z" fill="rgb(245,158,11)" transform="translate(0,0)"></path>
<path d="M 653.073 634.606 C 655.476 638.157 657.356 645.553 658.364 649.661 C 663.901 650.81 669.627 652.488 675.105 653.984 C 668.107 656.788 666.09 657.398 658.63 658.809 C 657.604 665.202 656.522 669.932 653.633 675.722 C 650.912 670.79 650.211 665.175 649.595 659.689 C 645.326 658.83 639.833 658.125 636.363 655.747 L 636.137 654.028 C 639.077 651.393 645.206 650.191 649.227 649.077 C 650.223 642.537 650.621 640.727 653.073 634.606 z" fill="rgb(245,158,11)" transform="translate(0,0)"></path>
<path d="M 1237.15 153.15 C 1249.7 152.12 1253.71 154.239 1260.38 164.851 C 1269.9 156.14 1281.21 153.897 1292.4 162.685 C 1294.21 164.108 1294.39 163.929 1294.57 166.172 C 1291.43 166.699 1284.33 163.234 1279.77 161.89 C 1263.16 161.234 1265.7 172.85 1259.29 175.807 C 1251.57 160.231 1246.92 149.375 1230.03 162.777 L 1229.06 162.09 C 1230.76 155.982 1231.75 155.916 1237.15 153.15 z" fill="rgb(26,58,40)" transform="translate(0,0)"></path>
<path d="M 173.121 62.7029 C 178.569 60.1161 185.082 62.4318 187.674 67.8769 C 190.265 73.322 187.956 79.8373 182.513 82.4341 C 177.063 85.0343 170.538 82.7209 167.942 77.2687 C 165.347 71.8166 167.667 65.2931 173.121 62.7029 z" fill="rgb(245,158,11)" transform="translate(0,0)"></path>
<path d="M 1159.35 219.846 C 1162.94 218.231 1167.12 218.704 1170.25 221.079 C 1173.39 223.455 1174.98 227.353 1174.4 231.244 C 1173.81 235.134 1171.15 238.396 1167.46 239.748 C 1162.02 241.737 1155.99 239.067 1153.8 233.707 C 1151.62 228.348 1154.07 222.221 1159.35 219.846 z" fill="rgb(245,158,11)" transform="translate(0,0)"></path>
<path d="M 1853.87 414.106 C 1862.81 413.909 1865.16 417.054 1869.73 424.022 C 1876.88 418.585 1885.54 413.069 1894.84 418.299 C 1896.74 419.363 1899.45 421.244 1900.04 423.38 C 1895.42 424.121 1891.98 420.372 1882.11 421.125 C 1875.04 425.145 1874.49 427.009 1869.67 433.494 C 1864.78 431.58 1864.47 406.69 1842.53 424.294 L 1841.36 423.89 C 1840.67 417.609 1848.91 415.514 1853.87 414.106 z" fill="rgb(26,58,40)" transform="translate(0,0)"></path>
<path d="M 743.442 566.036 C 753.368 567.086 755.843 570.361 761.728 577.786 C 769.047 570.157 784.67 562.965 791.145 575.071 C 787.279 576.078 784.671 571.524 773.912 573.216 C 765.917 576.647 764.743 579.591 760.995 587.394 C 751.046 558.404 742.287 575.238 731.347 574.161 L 731.765 572.92 C 735.008 569.839 739.391 568.008 743.442 566.036 z" fill="rgb(26,58,40)" transform="translate(0,0)"></path>
<path d="M 1254.6 139.064 C 1249.79 133.059 1247.64 134.273 1240.62 131.689 L 1239.85 129.916 C 1245.71 126.014 1255.36 131.886 1259.13 137.191 C 1264 134.476 1273.43 129.849 1278.85 133.883 C 1276.81 137.544 1269.65 137.006 1265.71 137.676 C 1262.64 142.11 1260.12 145.831 1257.34 150.496 L 1254.6 139.064 z" fill="rgb(26,58,40)" transform="translate(0,0)"></path>
<path d="M 1110.45 556.106 C 1113.82 556.298 1117.07 556.067 1119.63 557.813 C 1116.81 561.85 1115.38 558.436 1110.42 560.411 C 1107.51 561.57 1106.28 569.495 1104.64 573.49 C 1102.78 572.779 1099.94 567.562 1098.72 565.624 C 1091.68 564.888 1095.91 565.222 1089.02 567.358 L 1088.87 566.229 C 1090.81 563.325 1091.08 562.871 1094.12 561.215 C 1099.17 561.329 1097.55 562.842 1101.64 564.389 C 1103.81 565.209 1104.61 559.711 1110.45 556.106 z" fill="rgb(26,58,40)" transform="translate(0,0)"></path>
<path d="M 1870.35 397.936 C 1875.01 397.654 1878.31 398.381 1882.26 400.725 L 1882.27 401.784 C 1879.13 403.411 1874.74 402.229 1871.06 401.939 C 1867.84 403.719 1865.41 405.514 1861.82 405.645 L 1861.36 404.462 C 1863.65 401.11 1866.76 399.862 1870.35 397.936 z" fill="rgb(26,58,40)" transform="translate(0,0)"></path>
<path d="M 757.803 550.053 C 762.688 549.723 768.789 550.044 771.791 554.625 C 769.478 555.482 767.772 554.103 764.855 552.947 C 759.664 552.777 757.068 554.189 752.232 556.019 C 752.621 554.051 756.083 551.553 757.803 550.053 z" fill="rgb(26,58,40)" transform="translate(0,0)"></path>
<path d="M 1096.57 544.364 L 1100.21 545.567 C 1102.57 547.857 1103.07 548.203 1103.62 551.397 C 1102.59 553.837 1103.36 552.823 1101.09 554.43 C 1097.78 545.981 1095.22 550.513 1093.89 545.955 L 1096.57 544.364 z" fill="rgb(26,58,40)" transform="translate(0,0)"></path>
<path d="M 1200.24 402.821 C 1205.77 399.807 1207.77 398.728 1213.76 396.949 L 1215.63 398.408 C 1210.79 400.058 1205.21 401.454 1200.24 402.821 z" fill="rgb(238,199,117)" transform="translate(0,0)"></path>
<metadata><recraft-signature>{"signed_by": "recraft", "signature_b64": "6+8WhpYFPVvTIZ0E8jWwCryPKoAZkKUXPzKwNk0kHD5L4jkgX0OkXVXYzFZoGyjNGul3utxKSbDZP7hOLoaRAA==", "signing_algo": "Ed25519", "generation_timestamp": 1780403826, "identifier": "b3c485d9-3e11-4a8b-ba60-8f0c9c21430e"}</recraft-signature></metadata></svg>