<svg xmlns="http://www.w3.org/2000/svg" height="1024" preserveAspectRatio="none" style="display: block;" version="1.1" viewBox="0 0 2048 1152" width="1820">
<defs>
	<linearGradient gradientUnits="userSpaceOnUse" id="Gradient1" x1="1690.84" x2="1728.11" y1="1034.6" y2="1042.32">
		<stop class="stop0" offset="0" stop-color="rgb(246,234,204)" stop-opacity="1"></stop>
		<stop class="stop1" offset="1" stop-color="rgb(245,245,245)" stop-opacity="1"></stop>
	</linearGradient>
</defs>
<path d="M 0 0 L 2048 0 L 2048 1152 L 0 1152 L 0 0 z" fill="rgb(249,233,199)" transform="translate(0,0)"></path>
<path d="M 1607.22 294.72 C 1617.49 292.988 1625.39 298.602 1632.91 304.996 C 1651.39 320.718 1675.16 331.764 1642.89 353.581 C 1647.36 365.119 1648.89 366.062 1658.66 373.421 C 1673.28 384.431 1719.39 393.946 1724.34 412.877 C 1729.61 424.214 1730.06 437.202 1725.58 448.875 C 1717.54 470.26 1687.73 487.04 1665.5 486.006 C 1662.21 490.774 1660.54 554.153 1660.1 564.523 C 1659.34 582.513 1657.44 606.154 1657 624.103 C 1652.55 624.502 1648.1 624.868 1643.64 625.201 C 1641.89 672.455 1639.69 719.69 1637.03 766.902 C 1636.06 783.371 1634.94 817.323 1632.65 832.423 C 1642.48 850.953 1720.45 990.511 1720.83 998.401 C 1719.18 1001.93 1717.41 1002.18 1713.59 1004.45 C 1719.36 1013.19 1739.98 1041.45 1739.48 1050.8 C 1733.98 1058.31 1676.02 1080.61 1663.93 1085.37 L 1664.94 1088.26 C 1692.2 1087.44 1721.97 1087.93 1749.42 1087.9 C 1751.69 1038.49 1770.31 1006.3 1803.29 970.996 C 1796.58 948.894 1793.54 917.571 1777.8 901.799 C 1754.39 889.185 1714.77 879.499 1695.22 859.654 C 1695.57 854.25 1696.71 848.838 1697.7 843.502 C 1697.01 843.439 1696.32 843.36 1695.63 843.264 C 1684.74 841.799 1675.88 838.598 1669.07 829.372 C 1663.84 822.207 1661.68 813.256 1663.06 804.494 C 1664.13 798.083 1667.48 791.841 1672.93 788.138 C 1677.35 785.165 1682.79 784.119 1687.99 785.242 C 1699.18 787.646 1704.97 796.213 1710.74 804.973 C 1714.64 800.335 1717.54 795.062 1723.91 795.051 C 1729.26 799.873 1737.47 825.485 1740.56 833.915 C 1742.72 831.41 1743.54 829.91 1746.67 829.011 C 1749.09 827.914 1749.89 826.864 1751.78 824.986 C 1763.35 835.624 1766.11 867.26 1769.52 883.009 C 1772.94 889.392 1785 905.034 1790.03 913.041 C 1782.86 886.804 1780.72 851.229 1778.14 823.776 C 1777.44 816.327 1778.26 797.3 1774.93 792.559 C 1735.58 765.76 1681.71 721.497 1662.98 677.123 C 1649.43 645.001 1692.16 621.929 1718.04 652.101 C 1743.17 681.392 1754.23 715.168 1767.7 750.772 C 1769.7 756.053 1773.64 778.133 1776.68 779.707 C 1777.96 743.379 1782.68 707.254 1790.77 671.816 C 1781.73 664.967 1766.9 646.823 1760.37 637.477 C 1741.25 610.118 1720.01 574.931 1719.23 540.602 C 1718.78 524.305 1732.27 505.584 1749.88 507.239 C 1785.69 510.605 1789.56 565.94 1790.93 593.165 C 1792.05 615.399 1793.13 641.691 1791.35 663.426 C 1791.76 664.27 1791.61 663.911 1792.7 664.524 C 1802.8 635.074 1810.17 606.128 1824.66 578.021 C 1827.89 571.756 1832.8 563.75 1834.96 557.316 C 1836.56 539.314 1839.65 519.337 1845.63 501.557 C 1856.12 470.375 1884.89 402.954 1928.63 422.585 C 1932.73 424.422 1937.38 428.071 1940.21 431.614 C 1945.1 437.645 1947.33 445.407 1946.38 453.115 C 1942.97 481.798 1862.96 546.009 1837.47 559.939 C 1825.49 582.273 1802.27 635.149 1797.63 659.845 L 1798.17 659.231 C 1804.08 652.506 1808.2 643.782 1814.12 636.929 C 1839.09 607.988 1865.77 569.44 1905.61 562.57 C 1935.81 557.362 1952.9 591.905 1934.7 606.602 C 1905.41 630.257 1831.14 663.518 1794.72 671.333 C 1787.51 682.05 1781.85 752.225 1780.78 767.474 C 1780.63 770.64 1780.03 773.985 1781.53 776.549 C 1784.44 773.732 1792.17 756.328 1795.26 750.821 C 1813.95 717.564 1844.52 668.616 1887.15 665.938 C 1911.99 664.377 1932.47 696.935 1909.44 715.21 C 1889.43 731.729 1863.94 744.527 1841.93 758.332 C 1822.08 769.855 1801.19 783.305 1780.85 793.741 C 1779.61 806.673 1786.83 901.604 1792.94 908.249 C 1794.09 906.906 1794.67 906.359 1795.58 904.817 C 1797.68 888.814 1809.88 847.08 1820.97 833.887 C 1822.78 831.726 1825.2 832.358 1827.49 832.655 L 1828.57 833.058 C 1831.91 828.885 1831.12 822.59 1832.3 818.875 C 1835.61 808.495 1840.53 790.189 1853.48 789.081 C 1861.53 788.391 1863.46 791.381 1870.09 795.042 C 1882.35 767.213 1890.49 756.282 1922.67 758.259 C 1949.8 773.892 1932.43 786.714 1914.39 797.045 C 1933.57 810.491 1909.67 823.321 1898.12 829.725 C 1901.5 831.561 1906.23 833.614 1908.15 836.744 C 1907.8 850.401 1859.11 868.354 1846.97 874.774 L 1852.08 882.331 C 1835.59 888.971 1817.25 898.471 1801.39 903.927 C 1797.98 908.985 1795.8 912.155 1793.1 917.71 C 1797.28 934.338 1800.82 952.686 1806.35 968.725 C 1835.79 941.329 1871.16 921.094 1909.7 909.594 C 1938.86 901.072 1942.53 900.426 1948.9 929.581 C 1960.74 983.827 1945.81 1043.75 1912.54 1087.7 C 1920.99 1087.68 1979.48 1086.66 1982.65 1088.86 C 1980.92 1090.74 1979.05 1091.5 1976.4 1091.48 C 1961.59 1091.41 1946.61 1091.34 1931.81 1091.33 L 1838.04 1091.44 L 1532.41 1091.46 L 680.223 1091.08 L 231.347 1091.04 L 121.741 1091.09 C 111.72 1091.1 78.8571 1091.84 71.2112 1090.44 L 70.6703 1089.27 C 71.8178 1088.46 73.62 1087.24 75.0039 1087.22 C 93.8913 1086.97 114.277 1087.15 133.079 1087.14 L 273.528 1087.11 C 287.264 1087.11 324.934 1088.24 337.493 1087.16 C 341.809 1086.88 354.034 1087.19 356.809 1085.41 C 359.97 1086.02 362.216 1086.23 365.021 1087.83 L 365.872 1087.03 L 365.998 1086 C 368.088 1085.04 376.653 1086.58 379.34 1086.93 L 380.767 1085.78 C 396.391 1086.62 412.035 1087.05 427.681 1087.08 L 433.188 1086.71 C 435.688 1086.17 458.009 1087.1 461.212 1087.4 C 466.704 1089 466.34 1087.34 469.77 1087.8 C 469.911 1083.44 468.54 1079.85 467.283 1075.68 L 466.67 1073.37 L 468.679 1069.16 L 474.263 1087.29 L 478.916 1087.49 C 483.356 1087.2 494.922 1087.54 497.934 1085.84 L 500.18 1085.98 C 503.422 1087.96 509.865 1087.23 513.333 1086.03 L 516.369 1086.69 C 533.163 1089.19 545.57 1080.79 560.232 1073.77 C 618.227 1046.04 662.169 1010.85 702.477 960.6 C 702.471 963.81 701.483 964.765 699.664 967.32 L 699.882 969.165 C 693.924 978.383 680.745 992.359 672.942 1000.15 C 632.633 1040.39 591.104 1063.02 540.53 1087.09 L 712.854 1087.14 C 722.928 1087.14 773.004 1087.88 779.094 1086.73 L 779.218 1086.34 C 778.723 1078.92 779.208 1065.68 779.246 1057.92 L 779.311 1003.28 L 779.175 821.162 C 824.673 820.487 871.027 820.927 916.588 820.928 C 917.841 844.601 916.702 881.905 916.732 906.478 C 916.937 966.791 916.761 1027.1 916.204 1087.42 C 933.253 1087.63 950.304 1087.58 967.352 1087.25 L 967.43 735.983 C 1011.38 734.976 1061.22 735.554 1105.27 736.168 L 1105.32 1087.18 C 1122.26 1087.3 1139.21 1087.31 1156.16 1087.21 C 1155.28 1024.18 1156.25 958.608 1156.37 895.351 L 1156.16 608.072 C 1202.28 608.622 1249.66 608.016 1295.88 607.978 L 1295.97 1088.01 C 1323.12 1087.81 1350.26 1087.82 1377.4 1088.06 C 1377.97 1085.27 1378.34 1079.85 1380.16 1077.85 C 1392.72 1064.9 1416.17 1067.61 1429.26 1053.54 C 1433.25 1049.25 1438.7 1042.25 1433.1 1037.32 C 1428.6 1036.09 1421.05 1037.57 1416.15 1038.2 C 1412.66 1008.26 1411.6 965.72 1409.83 934.462 C 1408.17 908.274 1406.84 882.067 1405.82 855.846 C 1405.34 842.902 1403.92 819.092 1406.34 807.207 C 1411.58 781.49 1424.48 750.685 1434.29 726.246 C 1453.68 677.938 1474.9 630.046 1499.3 584.091 L 1488.32 578.309 C 1496.37 567.957 1505.33 556.901 1512.62 546.1 C 1479.38 550.832 1446.18 554.067 1412.95 558.838 C 1397.95 560.99 1382.26 562.324 1367.4 565.08 C 1348.26 500.57 1332.31 433.942 1313.77 369.143 C 1311.47 361.118 1306.74 344.687 1306.61 337.016 C 1311.44 333.41 1339.25 333.202 1347.22 332.857 L 1341.95 318.039 C 1345.88 317.797 1349.55 317.834 1353.2 316.376 C 1353.46 314.282 1354.65 305.495 1355.59 304.253 C 1367.17 288.989 1383.9 299.35 1387.53 314.62 C 1404.56 313.483 1408.5 316.079 1414.97 332.296 C 1426.71 331.214 1439.25 330.099 1450.99 329.823 C 1456.15 340.666 1461.48 357.999 1465.49 369.698 C 1474.63 396.535 1483.56 423.443 1492.27 450.421 C 1540.57 433.286 1557.18 394.463 1599.03 377.052 C 1581.02 366.109 1581.49 365.632 1574.97 346.173 C 1569.85 338.508 1568.38 330.401 1567.79 321.456 C 1568.24 305.698 1571.1 304.141 1585.36 306.939 C 1592.72 298.849 1596.11 295.497 1607.22 294.72 z" fill="rgb(0,0,1)" transform="translate(0,0)"></path>
<path d="M 783.061 824.949 L 913.059 824.571 L 912.953 1087.44 L 828.292 1087.46 C 815.526 1087.49 790.768 1088.08 779.094 1086.73 L 779.218 1086.34 L 781.88 1086.05 C 784.493 1080.16 782.959 852.232 783.061 824.949 z" fill="rgb(245,158,11)" transform="translate(0,0)"></path>
<path d="M 1607.22 294.72 C 1617.49 292.988 1625.39 298.602 1632.91 304.996 C 1651.39 320.718 1675.16 331.764 1642.89 353.581 C 1647.36 365.119 1648.89 366.062 1658.66 373.421 C 1673.28 384.431 1719.39 393.946 1724.34 412.877 C 1729.61 424.214 1730.06 437.202 1725.58 448.875 C 1717.54 470.26 1687.73 487.04 1665.5 486.006 C 1664.18 482.898 1663.97 483.76 1664.75 481.226 C 1666.26 460.542 1666.63 422.449 1658.32 403.725 C 1652.63 390.908 1642.49 388.431 1630.41 384.077 C 1629.9 375.207 1629.16 368.374 1627.95 359.56 C 1632.8 357.455 1635.39 356.269 1640.48 355.05 L 1640.02 351.335 C 1643 346.175 1644.76 341.6 1639.56 336.889 C 1632.7 334.051 1629.38 338.902 1626.06 343.886 C 1611.19 338.79 1593.68 332.535 1584.05 319.725 C 1585.08 318.279 1584.44 316.199 1584.24 313.996 C 1579.97 317.504 1579.29 322.354 1577.96 327.746 C 1577.95 330.376 1575.58 342.95 1574.97 346.173 C 1569.85 338.508 1568.38 330.401 1567.79 321.456 C 1568.24 305.698 1571.1 304.141 1585.36 306.939 C 1592.72 298.849 1596.11 295.497 1607.22 294.72 z" fill="rgb(26,58,40)" transform="translate(0,0)"></path>
<path d="M 1870.09 795.042 C 1882.35 767.213 1890.49 756.282 1922.67 758.259 C 1949.8 773.892 1932.43 786.714 1914.39 797.045 C 1933.57 810.491 1909.67 823.321 1898.12 829.725 C 1901.5 831.561 1906.23 833.614 1908.15 836.744 C 1907.8 850.401 1859.11 868.354 1846.97 874.774 L 1852.08 882.331 C 1835.59 888.971 1817.25 898.471 1801.39 903.927 C 1820.81 873.425 1831.92 875.49 1862.93 857.506 C 1867.84 854.655 1875.5 851.137 1879.25 846.808 C 1874.5 846.285 1838.21 866.328 1831.31 869.945 C 1830.2 870.964 1823 874.943 1821.23 875.959 L 1829.29 866.907 C 1834.59 859.862 1840.44 851.406 1847.21 845.808 C 1857.63 837.188 1883.65 833.264 1893.29 824.403 C 1888.08 823.774 1869.12 831.576 1863.03 833.884 C 1861.41 834.729 1854.9 837.038 1852.85 837.82 L 1863.65 827.371 C 1870.93 820.185 1882.11 808.108 1891.23 804.419 C 1896.86 802.14 1904.72 801.251 1910.29 797.54 L 1910.58 796.025 L 1908.37 795.175 C 1904.08 796.731 1899.39 797.98 1894.99 799.244 C 1898.31 796.851 1901.48 794.786 1904.93 792.571 C 1907.3 790.947 1914.95 786.239 1915.8 784.138 L 1914.52 782.984 C 1908.91 783.407 1890.32 798.802 1883.85 803.145 C 1887.27 794.939 1898.84 771.695 1897.41 765.124 L 1896.48 765.386 C 1890.93 777.96 1884.61 792.747 1879.59 805.114 C 1876.98 811.556 1856.67 829.447 1850.43 836.107 C 1851.75 825.997 1854.69 809.538 1858.8 800.402 L 1857.68 799.75 C 1855.17 801.093 1853.93 802.205 1853.12 805.018 C 1849.86 816.732 1847.62 828.708 1846.44 840.81 C 1840.42 847.321 1834.64 854.047 1829.1 860.974 L 1820.11 871.991 C 1820.83 864.994 1821.44 861.585 1823.02 854.788 C 1823.39 848.367 1826.8 841.511 1826.96 833.536 L 1824.93 833.981 C 1819.61 843.934 1818.01 868.756 1814.7 879.26 C 1813.84 881.993 1798.72 900.232 1795.58 904.817 C 1797.68 888.814 1809.88 847.08 1820.97 833.887 C 1822.78 831.726 1825.2 832.358 1827.49 832.655 L 1828.57 833.058 C 1831.91 828.885 1831.12 822.59 1832.3 818.875 C 1835.61 808.495 1840.53 790.189 1853.48 789.081 C 1861.53 788.391 1863.46 791.381 1870.09 795.042 z" fill="rgb(245,158,11)" transform="translate(0,0)"></path>
<path d="M 1774.93 792.559 C 1735.58 765.76 1681.71 721.497 1662.98 677.123 C 1649.43 645.001 1692.16 621.929 1718.04 652.101 C 1743.17 681.392 1754.23 715.168 1767.7 750.772 C 1769.7 756.053 1773.64 778.133 1776.68 779.707 L 1776.54 785.87 C 1776.09 785.716 1775.64 785.561 1775.2 785.407 C 1757.01 754.329 1735.33 725.51 1715.63 695.372 C 1711.98 689.782 1695.74 664.988 1691.88 662.25 L 1690.59 662.919 C 1690.38 667.486 1699 676.546 1701.95 681.052 C 1717.96 705.472 1734.82 729.37 1750.89 753.76 C 1758.1 764.828 1769.23 781.088 1774.93 792.559 z" fill="rgb(13,150,104)" transform="translate(0,0)"></path>
<path d="M 1834.96 557.316 C 1836.56 539.314 1839.65 519.337 1845.63 501.557 C 1856.12 470.375 1884.89 402.954 1928.63 422.585 C 1932.73 424.422 1937.38 428.071 1940.21 431.614 C 1945.1 437.645 1947.33 445.407 1946.38 453.115 C 1942.97 481.798 1862.96 546.009 1837.47 559.939 C 1850.9 530.63 1875.56 498.13 1894.59 472.031 C 1899.06 465.905 1917.9 446.423 1918.59 442.635 L 1916.75 442.545 C 1887.76 466.129 1853.85 524.664 1834.96 557.316 z" fill="rgb(13,150,104)" transform="translate(0,0)"></path>
<path d="M 1780.78 767.474 C 1780.63 770.64 1780.03 773.985 1781.53 776.549 C 1784.44 773.732 1792.17 756.328 1795.26 750.821 C 1813.95 717.564 1844.52 668.616 1887.15 665.938 C 1911.99 664.377 1932.47 696.935 1909.44 715.21 C 1889.43 731.729 1863.94 744.527 1841.93 758.332 C 1822.08 769.855 1801.19 783.305 1780.85 793.741 C 1796.87 770.321 1836.96 737.295 1860.16 720.39 C 1870.38 712.946 1883.06 706.059 1893.52 697.96 L 1893.53 696.338 C 1890.1 696.36 1881.18 702.366 1877.99 704.347 C 1841.07 727.27 1808.69 756.38 1779.85 788.766 C 1780.21 781.024 1779.44 775.433 1780.78 767.474 z" fill="rgb(13,150,104)" transform="translate(0,0)"></path>
<path d="M 1790.77 671.816 C 1781.73 664.967 1766.9 646.823 1760.37 637.477 C 1741.25 610.118 1720.01 574.931 1719.23 540.602 C 1718.78 524.305 1732.27 505.584 1749.88 507.239 C 1785.69 510.605 1789.56 565.94 1790.93 593.165 C 1792.05 615.399 1793.13 641.691 1791.35 663.426 C 1778.05 631.339 1767.81 594.749 1757.04 561.514 C 1754.83 554.696 1753.85 536.855 1749.34 533.328 L 1748.22 534.643 C 1752.79 567.657 1768.5 608.097 1779.23 639.403 C 1780.76 643.869 1790.31 669.137 1790.77 671.816 z" fill="rgb(13,150,104)" transform="translate(0,0)"></path>
<path d="M 1797.63 659.845 L 1798.17 659.231 C 1804.08 652.506 1808.2 643.782 1814.12 636.929 C 1839.09 607.988 1865.77 569.44 1905.61 562.57 C 1935.81 557.362 1952.9 591.905 1934.7 606.602 C 1905.41 630.257 1831.14 663.518 1794.72 671.333 C 1797.06 668.301 1805.18 661.901 1808.69 658.916 C 1831.99 639.076 1857.03 620.935 1883.51 605.572 C 1894.39 599.259 1911.27 593.125 1920.72 585.973 C 1887.33 594.115 1853.97 620.132 1826.11 639.889 C 1820.63 643.776 1801.54 661.654 1797.46 661.999 L 1797.63 659.845 z" fill="rgb(13,150,104)" transform="translate(0,0)"></path>
<path d="M 1697.7 843.502 C 1697.01 843.439 1696.32 843.36 1695.63 843.264 C 1684.74 841.799 1675.88 838.598 1669.07 829.372 C 1663.84 822.207 1661.68 813.256 1663.06 804.494 C 1664.13 798.083 1667.48 791.841 1672.93 788.138 C 1677.35 785.165 1682.79 784.119 1687.99 785.242 C 1699.18 787.646 1704.97 796.213 1710.74 804.973 C 1714.64 800.335 1717.54 795.062 1723.91 795.051 C 1729.26 799.873 1737.47 825.485 1740.56 833.915 C 1742.72 831.41 1743.54 829.91 1746.67 829.011 C 1750.79 842.012 1753.5 849.445 1754.45 862.89 C 1748.58 856.909 1738.74 847.33 1734.69 840.14 C 1731.61 834.688 1730.14 822.631 1723.55 818.925 C 1723.62 822.725 1725.05 824.828 1726.81 828.203 C 1728.67 831.814 1730.69 835.571 1732.45 839.217 C 1730.35 837.293 1725.37 832.969 1723.73 831.033 C 1711.37 821.085 1693.72 806.091 1677.63 803.131 L 1676.21 803.843 C 1678.04 807.337 1692.51 811.85 1697.14 814.805 C 1706.42 820.721 1714.95 827.787 1723.37 834.779 C 1718.23 833.932 1684.19 826.432 1681.94 827.755 C 1684.86 831.966 1719.47 837.062 1725.9 837.375 C 1733.2 843.561 1743.48 855.416 1749.94 862.968 C 1742.54 861.375 1708.8 853.527 1703.51 855.479 C 1710.22 859.808 1741.64 864.28 1752.32 867.05 C 1762.04 876.188 1770.32 890.612 1777.8 901.799 C 1754.39 889.185 1714.77 879.499 1695.22 859.654 C 1695.57 854.25 1696.71 848.838 1697.7 843.502 z" fill="rgb(245,158,11)" transform="translate(0,0)"></path>
<path d="M 1584.05 319.725 C 1593.68 332.535 1611.19 338.79 1626.06 343.886 C 1629.38 338.902 1632.7 334.051 1639.56 336.889 C 1644.76 341.6 1643 346.175 1640.02 351.335 C 1629.52 359.884 1630.53 354.094 1623.94 354.553 C 1621.47 361.676 1633.26 383.011 1624.99 392.152 C 1620.25 397.395 1601.14 402.964 1596.16 398.333 C 1595.49 392.396 1603.88 377.826 1606.92 369.999 C 1609.47 368.749 1613.69 366.097 1615 363.511 L 1614.05 363.067 C 1581.17 385.264 1571.06 346.099 1584.05 319.725 z" fill="rgb(254,253,253)" transform="translate(0,0)"></path>
<path d="M 1592.47 338.653 C 1593.27 341.72 1593.58 342.202 1593.09 345.232 C 1590.06 347.004 1590.53 346.409 1586.46 346.178 L 1585.76 344.969 C 1590.75 344.055 1590.64 342.633 1592.47 338.653 z" fill="rgb(26,58,40)" transform="translate(0,0)"></path>
<path d="M 1602.43 348.799 L 1602.53 349.978 C 1600.54 352.421 1598.91 352.419 1595.86 353.002 L 1594.96 351.512 L 1595.49 350.247 C 1598.34 350.011 1599.06 349.901 1601.79 349.013 L 1602.43 348.799 z" fill="rgb(168,168,168)" transform="translate(0,0)"></path>
<path d="M 1751.78 824.986 C 1763.35 835.624 1766.11 867.26 1769.52 883.009 C 1766.33 879.523 1762.52 872.716 1757.59 867.232 C 1756.91 856.067 1750.63 830.901 1751.78 824.986 z" fill="rgb(245,158,11)" transform="translate(0,0)"></path>
<path d="M 356.809 1085.41 C 359.97 1086.02 362.216 1086.23 365.021 1087.83 C 356.546 1088.28 345.934 1087.78 337.493 1087.16 C 341.809 1086.88 354.034 1087.19 356.809 1085.41 z" fill="rgb(234,227,215)" transform="translate(0,0)"></path>
<path d="M 1664.94 1088.26 C 1662.6 1088.09 1660.76 1088.39 1659.2 1087.15 L 1663.93 1085.37 L 1664.94 1088.26 z" fill="rgb(234,227,215)" transform="translate(0,0)"></path>
<path d="M 1162.79 611.487 L 1292.83 611.051 C 1291.04 652.391 1292.12 701.05 1292.12 742.74 L 1292.29 984.776 C 1292.29 998.185 1293.85 1078.81 1291.43 1086.91 L 1289.58 1087.49 C 1259.19 1086.57 1227.07 1087.99 1196.56 1087.38 C 1188.29 1087.22 1165.69 1088.03 1158.72 1086.55 C 1161.98 1075.51 1160.16 987.924 1160.12 970.066 L 1159.95 688.983 C 1159.95 679.401 1158.54 618.703 1160.21 612.332 L 1162.79 611.487 z" fill="rgb(245,158,11)" transform="translate(0,0)"></path>
<path d="M 970.238 739.073 L 1102.09 739.092 C 1102.24 774.601 1103.43 1083.88 1100.94 1087.35 C 1057.79 1087.83 1013.56 1087.08 970.206 1087.31 C 972.208 972.852 970.456 853.859 970.238 739.073 z" fill="rgb(245,158,11)" transform="translate(0,0)"></path>
<path d="M 1527.02 598.11 C 1564.77 615.07 1599.08 624.973 1641.02 625.164 C 1641.11 691.86 1630.92 767.067 1630.94 833.573 C 1622.77 835.316 1606.32 838.48 1599.68 842.413 C 1603.38 843.958 1626.5 837.817 1631.78 836.552 C 1634.05 842.754 1650.2 871.433 1654.54 879.236 C 1673.66 913.66 1692.29 947.22 1710.25 982.372 C 1712.47 986.468 1717.08 993.913 1716.72 998.249 C 1710.19 1004.84 1662.8 1021.03 1650.88 1025.95 L 1580.01 923.053 C 1567.26 904.443 1547.52 877.002 1538.17 857.259 C 1532.95 846.232 1530.26 808.468 1529.35 795 C 1526.07 752.156 1524.61 709.193 1524.98 666.225 C 1525.16 643.273 1526.81 620.785 1527.02 598.11 z" fill="rgb(13,150,104)" transform="translate(0,0)"></path>
<path d="M 1502.23 585.544 L 1523.7 596.422 C 1523.88 610.306 1522.71 628.32 1522.3 642.545 C 1521.88 662.566 1521.74 682.592 1521.89 702.618 C 1522 724.989 1524.61 754.09 1524.47 774.988 C 1524.42 783.412 1501.45 828.306 1496.26 839.153 C 1483.54 836.199 1468.82 832.581 1455.92 831.978 C 1468.47 837.41 1483.22 839.867 1496.7 842.635 C 1497.52 904.815 1500.88 967.569 1501.88 1029.56 C 1493.64 1029.71 1485.4 1030.05 1477.17 1030.59 C 1457.75 1031.44 1438.36 1032.56 1418.97 1033.93 C 1416.4 1015.74 1415.19 973.976 1413.96 953.547 C 1411.76 920.88 1410 888.186 1408.67 855.472 C 1408.29 845.359 1406.89 821.078 1408.64 811.787 C 1412.96 788.885 1424.15 760.942 1432.75 739.151 C 1452.97 687.936 1476.01 634.014 1502.23 585.544 z" fill="rgb(13,150,104)" transform="translate(0,0)"></path>
<path d="M 1592.28 387.949 L 1595.69 385.646 L 1596.56 386.205 C 1594.89 389.282 1593.78 391.099 1591.79 394.001 C 1597.1 411.935 1623.11 399.385 1630.48 387.456 C 1640.09 390.626 1650.33 393.296 1655.15 403.137 C 1667.31 427.99 1658.86 547.926 1656.81 583.858 C 1656.11 596.234 1654.53 609.04 1654.7 621.404 C 1593.77 623.893 1545.13 607.553 1492.93 576.783 L 1498.78 568.544 C 1534.13 572.303 1554.15 567.85 1563.58 530.281 C 1590.26 516.507 1631.96 482.758 1651.55 459.033 C 1620.89 482.696 1584.74 525.209 1546.45 532.94 C 1511.38 540.02 1459.15 525.964 1425.06 515.768 C 1425.99 502.857 1427.22 488.138 1426.83 475.31 C 1446.61 479.266 1465.48 483.126 1485.49 485.521 C 1508.22 488.24 1523.23 488.832 1542.89 474.999 C 1568.5 456.985 1590.71 435.123 1613.19 413.441 C 1615.26 410.793 1616.2 409.739 1617.59 406.573 C 1598.56 424.16 1575.17 447.383 1555.18 462.792 C 1552.15 465.301 1548.05 468.174 1544.83 470.574 C 1546.88 466.652 1549.01 462.77 1551.21 458.929 C 1561.38 438.123 1576.9 404.222 1592.28 387.949 z" fill="rgb(245,158,11)" transform="translate(0,0)"></path>
<path d="M 1617.59 406.573 C 1621.32 402.666 1625.32 399.908 1630.3 397.741 C 1625.13 402.493 1618.42 409.065 1613.19 413.441 C 1615.26 410.793 1616.2 409.739 1617.59 406.573 z" fill="rgb(86,53,9)" transform="translate(0,0)"></path>
<path d="M 1521.17 794.084 C 1522.5 791.148 1522.97 788.562 1525.29 787.251 C 1526.49 790.878 1526.38 793.972 1526.5 797.78 C 1527.43 816.499 1527.65 839.827 1534.71 857.382 C 1541.29 873.757 1637.36 1016.16 1650.43 1029.39 C 1654.78 1027.77 1660.9 1024.97 1665.31 1025.29 C 1673.25 1029.62 1666.17 1041.2 1666.37 1046.75 L 1665.9 1047.78 C 1661.64 1050.6 1658.34 1057.66 1654.76 1060.91 C 1650.85 1064.47 1643.61 1067.3 1639.72 1071.29 C 1633.83 1077.32 1638.48 1081.18 1638.42 1087.47 C 1629.27 1088.56 1600.8 1087.87 1590.56 1087.86 L 1494.07 1087.85 C 1494.4 1068.22 1487.82 1053.59 1485.72 1033.76 C 1492.12 1033.27 1498.52 1032.74 1504.9 1032.15 C 1505.13 1017.07 1503.93 997.652 1503.48 982.255 L 1500.9 884.252 C 1500.71 876.248 1498.79 845.594 1500.21 840.288 C 1502.97 829.947 1515.86 804.625 1521.17 794.084 z" fill="rgb(249,233,199)" transform="translate(0,0)"></path>
<path d="M 1521.17 794.084 C 1522.5 791.148 1522.97 788.562 1525.29 787.251 C 1526.49 790.878 1526.38 793.972 1526.5 797.78 C 1524.56 796.663 1522.96 795.412 1521.17 794.084 z" fill="rgb(234,227,215)" transform="translate(0,0)"></path>
<path d="M 1349.71 345.769 L 1351.32 346.921 C 1351.65 349.072 1351.6 350.37 1353.04 351.978 C 1374.62 352.372 1401.84 351.114 1422.94 346.59 C 1429.5 345.184 1436.67 345.176 1443.32 345.007 C 1459.37 383.964 1476.83 442.809 1489.19 483.422 C 1475.08 483.007 1448.89 477.221 1433.55 474.834 C 1439.9 474.143 1446.01 473.767 1452.37 473.285 C 1466.25 472.236 1462.22 463.701 1459.16 455.093 C 1445.69 457.331 1432.15 459.053 1418.55 460.256 C 1407.13 461.157 1368.24 462.719 1361.99 469.797 C 1362.05 472.587 1362.98 472.624 1365.37 475.136 C 1364.21 477.115 1363.25 476.803 1360.46 477.602 C 1366.94 483.579 1368.28 487.291 1376.91 490.043 C 1397.28 495.982 1397.36 500.434 1423.47 504.748 L 1422.85 517.648 C 1445.63 524.592 1469.79 530.063 1493.05 534.95 C 1454.93 538.316 1416.88 542.484 1378.94 547.452 C 1360.57 480.499 1341.57 413.722 1321.93 347.13 C 1331.18 346.533 1340.44 346.079 1349.71 345.769 z" fill="rgb(254,253,253)" transform="translate(0,0)"></path>
<path d="M 1419.06 376.468 C 1420.26 375.356 1421.4 373.658 1423.09 373.928 C 1426.77 374.52 1431.33 377.407 1432.14 381.234 C 1429.11 390.078 1424.72 398.245 1421.04 406.861 C 1416.43 417.635 1412.27 428.597 1407.74 439.38 C 1391.6 427.532 1375.82 417.125 1367.26 398.536 C 1376.19 401.697 1387.2 405.251 1395.83 408.749 C 1402.96 397.183 1407.72 388.825 1416.95 378.684 L 1419.48 377.706 L 1419.06 376.468 z" fill="rgb(13,150,104)" transform="translate(0,0)"></path>
<path d="M 1416.95 378.684 C 1412.56 374.924 1402.15 372.36 1396.46 372.161 C 1388.21 371.891 1380.18 374.918 1374.16 380.574 C 1367.93 386.364 1364.28 394.405 1364.01 402.905 C 1363.19 435.24 1403.46 458.482 1426.15 435.757 C 1436.14 425.901 1439.57 411.176 1434.96 397.919 C 1433.68 394.292 1430.94 391.013 1430.97 387.827 C 1448.97 393.436 1438.7 443.809 1412.09 446.862 C 1387.46 449.687 1367.15 435.835 1361.82 412.787 C 1353.95 378.793 1391.82 358.178 1419.06 376.468 L 1419.48 377.706 L 1416.95 378.684 z" fill="rgb(26,58,40)" transform="translate(0,0)"></path>
<path d="M 1822.9 958.823 C 1826.02 959.799 1861.21 1001.46 1865.23 1007.1 C 1853.45 1029.1 1848.36 1041.7 1840.63 1064.84 L 1830.23 1056.21 C 1812.19 1040.5 1794.31 1024.59 1776.61 1008.5 C 1792.17 987.262 1801.59 975.211 1822.9 958.823 z" fill="rgb(13,150,104)" transform="translate(0,0)"></path>
<path d="M 1940.35 1004.44 L 1944.1 1004.4 L 1945.11 1005.66 C 1945.96 1017.73 1933.31 1045.1 1927.52 1056.09 C 1903.6 1059.25 1877.12 1060.97 1852.22 1064.1 C 1849.26 1064.32 1848.54 1064.43 1845.67 1063.74 C 1843.66 1055.58 1863.77 1017.54 1868.86 1007.9 C 1891.61 1007.43 1917.4 1005.61 1940.35 1004.44 z" fill="rgb(13,150,104)" transform="translate(0,0)"></path>
<path d="M 1775.13 1012.56 C 1796.94 1030.21 1817.41 1050.43 1839.48 1068.55 L 1834.44 1088.11 L 1817.2 1087.95 C 1798.03 1087.96 1771.37 1088.75 1752.79 1087.43 C 1756.19 1054.1 1758.74 1042.02 1775.13 1012.56 z" fill="rgb(13,150,104)" transform="translate(0,0)"></path>
<path d="M 1343.76 335.43 L 1346.84 335.631 C 1348.94 337.678 1348.88 338.717 1349.51 341.667 C 1345.02 345.346 1326.09 344.707 1319.28 344.9 C 1338.09 413.43 1357.44 481.81 1377.33 550.035 C 1396.72 546.745 1501.38 532.977 1514.25 537.119 C 1516.21 537.751 1516.45 537.755 1517.38 539.566 L 1516.82 541.278 C 1514.74 542.855 1514.14 543.154 1511.78 544.317 C 1464.41 550.794 1417.51 555.203 1369.54 562.494 C 1361.77 530.703 1351.87 498.339 1343.1 466.697 L 1307.94 336.853 C 1319.7 336.21 1331.96 335.894 1343.76 335.43 z" fill="rgb(245,158,11)" transform="translate(0,0)"></path>
<path d="M 1912.78 952.533 C 1922.85 951.916 1938.41 952.365 1948.99 952.309 C 1950.59 968.698 1949.07 984.567 1947.28 1000.83 C 1933.6 1002.12 1920.04 1001.47 1906.24 1002.7 C 1895.69 1003.68 1881.08 1003.92 1870.57 1004.09 C 1880.65 986.176 1891.91 968.953 1904.28 952.533 L 1912.78 952.533 z" fill="rgb(13,150,104)" transform="translate(0,0)"></path>
<path d="M 1879.37 924.072 C 1881.93 924.779 1897.1 948.986 1899.68 952.901 C 1887.69 968.892 1876.89 985.736 1867.36 1003.3 L 1858.75 993.432 C 1848.31 981.693 1836.31 968.733 1826.91 956.365 C 1844.91 940.952 1858.36 934.753 1879.37 924.072 z" fill="rgb(13,150,104)" transform="translate(0,0)"></path>
<path d="M 1556.47 410.883 C 1557.01 415.392 1539.12 468.168 1535.46 476.778 C 1522.69 483.431 1518.44 484.072 1504.61 484.727 L 1501.2 476.621 C 1498.58 468.706 1495.89 460.817 1493.11 452.956 C 1520.19 442.139 1534.31 429.285 1556.47 410.883 z" fill="rgb(245,158,11)" transform="translate(0,0)"></path>
<path d="M 1387.77 317.437 C 1390.6 316.964 1397.68 317.054 1400.88 317.016 C 1412.22 326.076 1412.51 333.374 1415.52 347.036 C 1403.6 347.022 1387.05 347.816 1375.25 348.836 C 1367.94 349.165 1362.17 349.579 1354.91 350.447 C 1352.81 340.776 1348.82 330.039 1346.03 320.15 C 1359.59 318.898 1374.17 318.127 1387.77 317.437 z" fill="rgb(13,150,104)" transform="translate(0,0)"></path>
<path d="M 1918.77 1060.39 C 1921.88 1060.05 1921.35 1059.65 1923.83 1060.75 C 1923.78 1066.64 1912.79 1081.98 1909.01 1087.6 C 1888.49 1088.43 1865.46 1088.01 1844.75 1088.07 C 1841.39 1087.99 1841.64 1088.55 1839.52 1086.91 C 1838.74 1081.95 1841.45 1073.6 1842.76 1068.27 C 1868.06 1065.32 1893.4 1062.69 1918.77 1060.39 z" fill="rgb(13,150,104)" transform="translate(0,0)"></path>
<path d="M 1432.65 333.564 L 1450.17 332.403 C 1463.63 369.242 1475.97 407.057 1487.83 444.419 C 1490.56 452.997 1499.35 475.713 1500.36 483.012 L 1498.73 484.06 C 1491.9 484.256 1492.49 484.222 1489.86 478.378 C 1481.19 448.378 1471.73 418.615 1461.48 389.12 C 1457.62 377.696 1449.54 352.345 1443.78 342.647 C 1437.88 342.6 1420.99 344.398 1417.25 342.179 C 1416.22 337.929 1415.75 338.872 1417.32 335.643 C 1421.04 333.556 1428.12 333.77 1432.65 333.564 z" fill="rgb(245,158,11)" transform="translate(0,0)"></path>
<path d="M 1440.1 1059.16 C 1436.81 1056.15 1434.1 1057 1432.28 1053.53 C 1433.33 1050.96 1433.73 1050.75 1436.06 1049.19 C 1442.97 1047.64 1448.02 1054.32 1453.68 1057.76 C 1471.34 1057.1 1470.36 1053.38 1485.09 1049.91 C 1487.15 1057.28 1489.84 1068.39 1490.26 1076.03 C 1473.23 1078.54 1429.73 1077.36 1411.07 1077.11 C 1408.18 1073.74 1406.36 1073 1406.51 1069.54 C 1415.22 1061.76 1415.85 1071.84 1421.87 1072.62 L 1422.76 1071.78 C 1420.45 1069.26 1417.98 1067.5 1417.49 1064.64 C 1420.16 1063.31 1418.97 1063.56 1422.03 1063.76 C 1425.56 1066.31 1427.66 1068.27 1431.97 1068.88 L 1435.53 1068 C 1437.89 1064.99 1440.09 1062.56 1440.1 1059.16 z" fill="rgb(254,253,253)" transform="translate(0,0)"></path>
<path d="M 1476.5 1055.37 L 1478.34 1056.85 C 1479.68 1061.85 1480.31 1069.75 1479.76 1074.91 C 1475.91 1070.67 1476.03 1060.87 1476.5 1055.37 z" fill="rgb(0,0,1)" transform="translate(0,0)"></path>
<path d="M 1374.95 477.821 C 1372.11 475.775 1366.43 472.383 1365.64 469.349 C 1370.26 467.247 1389.56 476.668 1394.75 474.493 C 1390.91 473.009 1381.89 469.992 1379.28 467.47 C 1382.05 464.981 1392.2 464.562 1395.92 464.752 C 1406.04 465.268 1415.65 473.245 1424.86 475.659 C 1424.99 485.179 1424.56 492.893 1423.92 502.419 C 1411.32 500.038 1374.23 491.45 1368.24 480.795 L 1366.84 480.302 C 1365.78 478.551 1365.81 479.383 1366.05 477.793 C 1368.93 476.268 1371.74 477.201 1374.95 477.821 z" fill="rgb(254,253,253)" transform="translate(0,0)"></path>
<path d="M 1368.24 480.795 L 1366.84 480.302 C 1365.78 478.551 1365.81 479.383 1366.05 477.793 C 1368.93 476.268 1371.74 477.201 1374.95 477.821 L 1375.73 478.491 L 1379.2 482.748 C 1375.83 483.834 1371.32 482.255 1368.24 480.795 z" fill="rgb(234,227,215)" transform="translate(0,0)"></path>
<path d="M 1375.73 478.491 C 1378.88 479.494 1382.12 480.189 1384.4 482.545 L 1383.11 483.489 L 1379.2 482.748 L 1375.73 478.491 z" fill="rgb(26,58,40)" transform="translate(0,0)"></path>
<path d="M 1698.01 1031.74 C 1702.06 1024.57 1704.52 1017.98 1711.84 1014.51 C 1721.04 1014.56 1728.84 1032.23 1732.65 1040.08 C 1715.98 1047.33 1700.79 1055.31 1683.89 1062.24 C 1684.97 1058.2 1689.77 1041.79 1689.22 1038.89 L 1688.4 1038.08 L 1686.57 1035.21 C 1690.43 1034.19 1694.35 1033.3 1698.01 1031.74 z" fill="url(#Gradient1)" transform="translate(0,0)"></path>
<path d="M 1716.18 1022.33 C 1717.27 1022.96 1717.52 1023.33 1718.47 1024.23 C 1717.28 1029.39 1716.94 1031.61 1716.6 1036.91 C 1715.47 1036.72 1715.37 1036.5 1714.31 1035.93 C 1712.98 1030.72 1713.81 1027.03 1716.18 1022.33 z" fill="rgb(0,0,1)" transform="translate(0,0)"></path>
<path d="M 1555.75 533.136 L 1557.93 533.154 L 1558.64 534.941 C 1555 563.096 1530.54 567.47 1507.22 566.867 C 1505.55 566.346 1504.63 565.878 1503.09 565.14 C 1503.34 563.166 1519.64 541.202 1522.28 537.049 C 1533.4 536.965 1545.44 537.351 1555.75 533.136 z" fill="rgb(26,58,40)" transform="translate(0,0)"></path>
<path d="M 1930.69 908.239 C 1932.35 908.01 1932.42 908.208 1934.05 908.769 C 1932.4 911.929 1907.43 942.709 1902.49 949.245 L 1897.04 942.27 C 1892.46 935.785 1887.93 929.267 1883.44 922.715 C 1899.11 916.169 1913.91 911.002 1930.69 908.239 z" fill="rgb(13,150,104)" transform="translate(0,0)"></path>
<path d="M 1938.88 908.982 C 1944.73 917.643 1947.26 938.161 1948.9 948.913 L 1920.51 948.972 L 1906.8 948.892 C 1917.7 935.441 1927.62 922.389 1938.88 908.982 z" fill="rgb(13,150,104)" transform="translate(0,0)"></path>
<path d="M 1408.67 1080.44 C 1424.72 1079.38 1444.17 1080.57 1460.54 1080.12 C 1465.61 1079.98 1486.37 1079.82 1490 1080.48 L 1490.88 1082.34 C 1489.69 1091.56 1473.23 1088.3 1465.37 1088.14 C 1453.2 1088.13 1386.61 1089.82 1380.7 1086.9 C 1380.29 1084.54 1380.29 1085.42 1381.91 1082.84 C 1385.01 1080.56 1403.5 1080.69 1408.67 1080.44 z" fill="rgb(245,158,11)" transform="translate(0,0)"></path>
<path d="M 1733.02 1042.98 C 1735.47 1044.09 1736.62 1047.51 1736.61 1050.07 C 1731.64 1055.29 1655.1 1086.61 1647.23 1087.73 C 1646.45 1087.78 1644.65 1087.58 1643.78 1087.51 C 1642.47 1084.84 1642.64 1086.02 1643.14 1083.07 C 1644.72 1081.09 1647.85 1079.24 1650.2 1078.41 C 1678.46 1068.46 1705.58 1054.95 1733.02 1042.98 z" fill="rgb(245,158,11)" transform="translate(0,0)"></path>
<path d="M 1478.97 1034.46 C 1480.45 1034.33 1480.65 1034.5 1482.17 1034.79 C 1484.33 1037.52 1484.33 1043.28 1484.64 1046.99 C 1472.34 1050.43 1460.62 1060.56 1449.22 1051.17 C 1444.32 1048.18 1435.99 1044.61 1439.96 1038.09 C 1446.41 1034.37 1469.8 1034.95 1478.97 1034.46 z" fill="rgb(245,158,11)" transform="translate(0,0)"></path>
<path d="M 1672.35 1032.79 C 1677.25 1033.71 1681.49 1034.08 1686.57 1035.21 L 1688.4 1038.08 C 1683.92 1042.39 1682.95 1056.31 1680.81 1063.15 C 1674.15 1066.39 1647.44 1078.3 1641.18 1077.34 C 1641.34 1073.5 1654.22 1064.99 1658.16 1061.68 C 1660.9 1064.32 1661.28 1065.63 1664.49 1066.18 C 1666.33 1063.94 1666.15 1063.16 1666.48 1060.12 C 1663.82 1057.25 1663.24 1057.63 1663.09 1054.37 C 1666.71 1054.83 1666.3 1055.63 1669.48 1059.07 C 1670.53 1057.95 1670.91 1057.19 1671.73 1055.9 L 1671.2 1053.93 C 1668.72 1051.81 1667.45 1050.78 1665.9 1047.78 L 1666.37 1046.75 C 1668.89 1047.22 1670.67 1049.51 1672.44 1051.36 L 1673.86 1051.13 L 1674.51 1048.84 C 1667.35 1043.09 1670.04 1041.51 1672.35 1032.79 z" fill="rgb(254,253,253)" transform="translate(0,0)"></path>
<path d="M 1587.81 385.128 C 1589.05 386.359 1588.5 385.712 1588.87 387.951 C 1585.44 394.367 1573.02 409.67 1567.95 418.767 C 1563.64 426.486 1547.5 461.992 1543.75 464.304 C 1546.34 456.397 1559.55 416.223 1559.97 410.22 L 1557.63 408.689 C 1560.4 403.307 1581.34 386.887 1587.81 385.128 z" fill="rgb(26,58,40)" transform="translate(0,0)"></path>
<path d="M 1451.91 458.419 C 1453.61 457.965 1454.67 458.165 1456.4 458.292 C 1459.18 460.237 1460.27 465.179 1461.38 468.584 C 1448.89 471.494 1429.82 475.26 1417.75 470.523 L 1401.54 463.172 C 1415.56 463.86 1437.15 460.35 1451.91 458.419 z" fill="rgb(254,253,253)" transform="translate(0,0)"></path>
<path d="M 1708.49 1006.83 C 1710.99 1007.03 1712.24 1008.15 1712.81 1010.42 C 1692.77 1023.38 1705.94 1032.34 1678.26 1030.79 C 1676.36 1030.42 1675.14 1030 1673.3 1029.4 C 1671.08 1026.71 1671.49 1027.97 1671.56 1024.71 C 1675.31 1019.31 1700.64 1010.12 1708.49 1006.83 z" fill="rgb(245,158,11)" transform="translate(0,0)"></path>
<path d="M 1365.44 299.885 C 1371.82 299.266 1374.14 301.075 1379.76 304.048 C 1382.01 307.088 1384.41 309.709 1384.28 313.429 L 1382.99 313.764 C 1379.95 311.897 1378.25 307.814 1376.47 304.519 C 1372.41 304.045 1370.01 303.523 1366.02 304.508 C 1362.55 307.559 1362.13 311.56 1359.86 316.549 L 1358.36 316.693 C 1353.29 308.79 1359.1 303.742 1365.44 299.885 z" fill="rgb(13,150,104)" transform="translate(0,0)"></path>
<path d="M 1367.42 305.724 C 1372.77 305.914 1378.02 308.692 1378.59 314.468 L 1376.77 315.595 C 1371.75 315.935 1366.06 317.357 1363.53 312.367 C 1364.07 308.94 1365.1 308.186 1367.42 305.724 z" fill="rgb(254,253,253)" transform="translate(0,0)"></path>
<path d="M 1435.53 1068 C 1430.18 1066.37 1428.32 1065.55 1423.31 1063 L 1422.88 1061.32 C 1425.52 1060.5 1429.79 1062.31 1432.9 1063.21 L 1433.98 1062.55 C 1432.52 1060.69 1429.55 1060.11 1426.96 1059.15 L 1426.63 1057.83 C 1429.15 1056.13 1428.37 1056.66 1431.81 1056.44 C 1434.83 1058.54 1435.56 1058.65 1439.15 1059.06 L 1440.1 1059.16 C 1440.09 1062.56 1437.89 1064.99 1435.53 1068 z" fill="rgb(254,253,253)" transform="translate(0,0)"></path>
<path d="M 1397.27 1071.15 C 1400.59 1070.66 1402.93 1071.27 1405.18 1073.8 L 1404.91 1075.85 C 1401.62 1078.25 1401.11 1077.51 1396.35 1077.88 C 1393.42 1078.04 1387.91 1078.88 1386.13 1076.55 C 1388.74 1073.85 1393.61 1072.49 1397.27 1071.15 z" fill="rgb(234,227,215)" transform="translate(0,0)"></path>
<path d="M 380.32 305.962 C 392.268 311.483 409.47 324.235 420.269 332.52 C 483.273 380.859 522.619 431.757 558.635 501.661 L 563.082 510.576 C 567.845 520.898 576.004 539.473 580.046 549.483 C 587.661 568.345 612.933 645.707 610.711 662.871 C 610.995 664.646 611.657 667.117 611.192 668.665 L 609.421 671.271 C 610.272 686.791 612.235 709.002 611.356 723.736 C 582.308 768.164 551.429 811.593 523.073 856.543 C 521.29 859.808 519.188 863.912 517.2 866.956 C 514.396 868.961 503.868 887.059 501.12 891.353 C 510.195 938.523 509.61 988.127 505.471 1035.95 C 504.761 1044.15 497.748 1081.72 497.934 1085.84 C 494.922 1087.54 483.356 1087.2 478.916 1087.49 L 474.263 1087.29 L 468.679 1069.16 L 466.67 1073.37 L 467.283 1075.68 C 468.54 1079.85 469.911 1083.44 469.77 1087.8 C 466.34 1087.34 466.704 1089 461.212 1087.4 C 458.009 1087.1 435.688 1086.17 433.188 1086.71 L 427.681 1087.08 C 412.035 1087.05 396.391 1086.62 380.767 1085.78 L 379.34 1086.93 C 376.653 1086.58 368.088 1085.04 365.998 1086 L 365.872 1087.03 L 365.021 1087.83 C 362.216 1086.23 359.97 1086.02 356.809 1085.41 C 208.565 1063.36 122.308 1004.81 87.4427 855.346 C 90.7679 855.222 94.006 854.777 97.288 854.27 C 141.33 847.473 187.251 843.366 230.907 855.466 C 230.623 852.109 217.767 830.084 215.164 825.371 C 176.789 755.874 159.609 647.739 179.779 569.991 C 223.64 577.854 276.014 602.248 313.945 625.484 C 272.071 502.049 311.446 407.651 380.32 305.962 z" fill="rgb(26,58,40)" transform="translate(0,0)"></path>
<path d="M 381.967 310.947 C 384.725 312.598 385.212 312.928 387.412 315.259 C 396.663 318.497 404.592 325.293 416.19 334.191 C 448.779 359.192 481.936 389.34 505.672 423.413 C 505.713 423.643 505.755 423.874 505.796 424.105 L 508.968 427.973 C 528.829 456.032 540.103 473.891 556.087 505.062 L 559.689 512.802 C 580.128 555.541 596.766 601.748 605.471 648.501 C 606.277 652.83 606.101 661.295 609.846 662.954 L 610.711 662.871 C 610.995 664.646 611.657 667.117 611.192 668.665 L 609.421 671.271 C 610.272 686.791 612.235 709.002 611.356 723.736 C 582.308 768.164 551.429 811.593 523.073 856.543 C 521.29 859.808 519.188 863.912 517.2 866.956 C 516.602 865.805 516.184 865.121 516.268 863.768 C 517.916 837.176 517.268 811.09 516.791 784.476 C 511.131 778.706 501.626 770.793 495.424 765.173 C 481.916 752.746 468.318 740.419 454.631 728.19 C 407.433 686.015 357.125 642.544 310.911 599.782 C 310.446 597.537 309.276 594.201 308.557 591.923 C 292.897 536.898 301.753 477 320.611 424.082 L 322.186 418.626 C 332.462 398.728 341.956 375.504 353.168 356.124 C 361.68 341.411 372.817 325.879 381.967 310.947 z" fill="rgb(254,253,253)" transform="translate(0,0)"></path>
<path d="M 320.611 424.082 C 374.334 484.587 426.39 546.921 480.27 607.33 C 485.702 613.42 491.453 619.983 497.168 625.787 C 506.812 675.72 513.17 726.231 516.202 776.996 L 308.557 591.923 C 292.897 536.898 301.753 477 320.611 424.082 z" fill="rgb(13,150,104)" transform="translate(0,0)"></path>
<path d="M 472.163 508.601 C 484.218 481.568 497.054 455.182 508.968 427.973 C 528.829 456.032 540.103 473.891 556.087 505.062 L 559.689 512.802 C 580.128 555.541 596.766 601.748 605.471 648.501 C 606.277 652.83 606.101 661.295 609.846 662.954 C 582.752 693.059 548.865 725.921 519.906 754.495 C 513.759 678.371 496.214 581.626 472.163 508.601 z" fill="rgb(13,150,104)" transform="translate(0,0)"></path>
<path d="M 381.967 310.947 C 384.725 312.598 385.212 312.928 387.412 315.259 C 387.49 319.694 401.215 342.948 404.001 348.638 C 444.799 431.96 477.366 525.082 495.091 616.171 C 479.245 599.692 464.591 582.131 449.52 564.94 L 361.533 464.225 C 355.262 457.111 327.249 423.245 322.186 418.626 C 332.462 398.728 341.956 375.504 353.168 356.124 C 361.68 341.411 372.817 325.879 381.967 310.947 z" fill="rgb(13,150,104)" transform="translate(0,0)"></path>
<path d="M 609.421 671.271 C 610.272 686.791 612.235 709.002 611.356 723.736 C 582.308 768.164 551.429 811.593 523.073 856.543 C 521.958 829.907 524.161 785.683 519.967 761.292 C 550.246 731.747 580.067 701.737 609.421 671.271 z" fill="rgb(13,150,104)" transform="translate(0,0)"></path>
<path d="M 387.412 315.259 C 396.663 318.497 404.592 325.293 416.19 334.191 C 448.779 359.192 481.936 389.34 505.672 423.413 C 505.713 423.643 505.755 423.874 505.796 424.105 C 504.236 426.403 497.166 442.491 495.672 445.772 C 487.078 464.465 478.699 483.257 470.538 502.143 C 458.968 461.727 414.425 344.845 387.412 315.259 z" fill="rgb(13,150,104)" transform="translate(0,0)"></path>
<path d="M 171.877 851.814 C 195.245 851.967 203.994 854.062 226.705 857.761 C 234.201 859.925 246.548 863.247 253.249 866.46 L 258.758 868.787 C 298.63 883.345 329.501 901.123 361.286 929.041 L 365.768 932.36 C 366.39 945.918 369.136 962.265 371.051 975.93 C 373.663 993.914 375.758 1011.97 377.335 1030.07 C 397.264 1047.51 416.971 1065.66 433.188 1086.71 L 427.681 1087.08 C 412.035 1087.05 396.391 1086.62 380.767 1085.78 C 377.79 1084.16 354.286 1081.9 348.429 1080.65 C 314.529 1073.44 258.277 1061.01 228.757 1043.92 C 227.489 1042.97 224.45 1041.22 222.968 1040.29 C 209.857 1036.53 166.786 1007.22 160.214 995.476 L 156.901 992.306 C 144.472 979.291 120.786 944.608 114.294 927.272 L 113.842 925.637 C 113.35 923.974 109.137 915.772 107.934 912.64 C 103.613 901.397 92.4929 871.058 92.6769 859.737 L 94.7318 858.441 C 98.0493 858.813 98.9299 859.06 102.04 857.698 C 119.082 853.627 149.811 851.632 166.886 851.924 L 171.877 851.814 z" fill="rgb(254,253,253)" transform="translate(0,0)"></path>
<path d="M 281.272 962.331 C 302.531 976.207 338.023 1001.36 356.866 1018.83 C 339.253 1021.33 231.696 1035.16 222.968 1040.29 C 209.857 1036.53 166.786 1007.22 160.214 995.476 C 189.48 985.749 223.611 979.557 253.423 970.315 C 262.105 967.623 272.885 965.413 281.272 962.331 z" fill="rgb(13,150,104)" transform="translate(0,0)"></path>
<path d="M 258.758 868.787 C 298.63 883.345 329.501 901.123 361.286 929.041 C 359.888 938.707 370.99 1011.51 372.831 1025.12 C 341.445 998.663 308.388 974.25 273.866 952.035 C 269.654 924.143 264.616 896.381 258.758 868.787 z" fill="rgb(13,150,104)" transform="translate(0,0)"></path>
<path d="M 192.274 912.79 C 218.09 924.864 251.408 944.424 276.269 959.158 C 261.291 962.932 162.217 988.665 156.901 992.306 C 144.472 979.291 120.786 944.608 114.294 927.272 C 118.417 928.221 184.731 914.668 192.274 912.79 z" fill="rgb(13,150,104)" transform="translate(0,0)"></path>
<path d="M 228.757 1043.92 C 239.928 1040.63 253.942 1039.28 265.508 1037.09 C 297.418 1031.07 331.204 1028.29 362.889 1022.58 C 387.958 1047.61 403.088 1058.69 427.681 1087.08 C 412.035 1087.05 396.391 1086.62 380.767 1085.78 C 377.79 1084.16 354.286 1081.9 348.429 1080.65 C 314.529 1073.44 258.277 1061.01 228.757 1043.92 z" fill="rgb(13,150,104)" transform="translate(0,0)"></path>
<path d="M 171.877 851.814 C 195.245 851.967 203.994 854.062 226.705 857.761 C 234.201 859.925 246.548 863.247 253.249 866.46 C 253.645 870.087 258.201 890.002 259.278 895.351 C 262.898 913.329 265.665 932.504 269.739 950.154 C 242.585 934.184 214.046 919.803 187.753 904.121 C 182.833 886.575 177.54 869.135 171.877 851.814 z" fill="rgb(13,150,104)" transform="translate(0,0)"></path>
<path d="M 113.842 925.637 C 113.35 923.974 109.137 915.772 107.934 912.64 C 103.613 901.397 92.4929 871.058 92.6769 859.737 L 94.7318 858.441 C 99.1416 862.435 119.683 872.573 126.078 875.965 C 146.771 886.817 167.345 897.894 187.797 909.194 C 177.89 911.229 117.337 920.751 113.842 925.637 z" fill="rgb(13,150,104)" transform="translate(0,0)"></path>
<path d="M 102.04 857.698 C 119.082 853.627 149.811 851.632 166.886 851.924 C 172.209 868.168 177.289 884.491 182.125 900.887 C 155.482 885.291 128.182 872.5 102.04 857.698 z" fill="rgb(13,150,104)" transform="translate(0,0)"></path>
<path d="M 474.564 822.061 C 499.585 894.418 508.972 971.878 487.309 1046.34 C 483.739 1058.61 480.699 1076.44 474.263 1087.29 L 468.679 1069.16 C 459.115 1030.43 438.324 974.112 421.495 937.927 L 474.564 822.061 z" fill="rgb(13,150,104)" transform="translate(0,0)"></path>
<path d="M 310.911 599.782 C 357.125 642.544 407.433 686.015 454.631 728.19 C 468.318 740.419 481.916 752.746 495.424 765.173 C 501.626 770.793 511.131 778.706 516.791 784.476 C 517.268 811.09 517.916 837.176 516.268 863.768 C 516.184 865.121 516.602 865.805 517.2 866.956 C 514.396 868.961 503.868 887.059 501.12 891.353 C 510.195 938.523 509.61 988.127 505.471 1035.95 C 504.761 1044.15 497.748 1081.72 497.934 1085.84 C 494.922 1087.54 483.356 1087.2 478.916 1087.49 C 543.85 902.098 474.712 739.832 319.457 629.378 C 316.43 620.571 312.255 608.838 310.911 599.782 z" fill="rgb(13,150,104)" transform="translate(0,0)"></path>
<path d="M 365.768 932.36 C 404.805 969.452 440.647 1009.68 457.029 1062.16 C 458.576 1067.12 464.002 1081.93 463.276 1086.44 L 461.212 1087.4 C 458.009 1087.1 435.688 1086.17 433.188 1086.71 C 416.971 1065.66 397.264 1047.51 377.335 1030.07 C 375.758 1011.97 373.663 993.914 371.051 975.93 C 369.136 962.265 366.39 945.918 365.768 932.36 z" fill="rgb(13,150,104)" transform="translate(0,0)"></path>
<path d="M 465.74 1077.21 C 447.594 1003.83 381.142 928.648 316.041 891.249 C 305.396 885.065 294.401 879.502 283.113 874.586 C 273.574 870.522 260.311 865.78 251.574 860.917 C 257.358 862.082 263.218 863.083 269.04 864.046 C 310.112 870.837 350.905 880.098 392.015 886.562 C 400.957 901.921 406.926 916.182 414.406 932.06 C 436.064 978.033 451.566 1024.86 466.67 1073.37 L 467.283 1075.68 C 468.54 1079.85 469.911 1083.44 469.77 1087.8 C 467.163 1085.01 466.661 1081.02 465.74 1077.21 z" fill="rgb(13,150,104)" transform="translate(0,0)"></path>
<path d="M 378.422 682.311 C 382.872 685.73 392.919 696.958 397.35 701.739 C 430.287 737.277 453.675 771.634 472.079 816.545 C 468.473 826.974 461.465 841.336 456.703 851.663 L 431.573 906.246 L 419.396 933.367 C 402.478 895.544 383.187 858.828 361.64 823.437 C 364.126 807.054 365.747 789.228 367.812 772.617 C 371.843 742.575 375.38 712.469 378.422 682.311 z" fill="rgb(13,150,104)" transform="translate(0,0)"></path>
<path d="M 188.967 749.432 C 240.76 769.482 299.132 794.492 350.749 812.518 C 363.379 833.58 380.232 860.692 390.452 882.722 C 350.275 874.883 310.04 867.336 269.753 860.082 C 259.964 858.365 247.69 857.279 237.775 855.431 C 236.051 853.693 234.598 852.229 233.417 851.038 L 232.596 849.561 C 212.034 810.648 202.076 792.493 188.967 749.432 z" fill="rgb(13,150,104)" transform="translate(0,0)"></path>
<path d="M 277.295 609.439 C 313.318 627.459 346.342 650.937 375.196 679.042 C 372.831 694.951 371.527 711.003 369.63 726.982 L 359.555 809.987 C 359.177 812.866 359.65 813.17 358.072 814.886 C 354.882 813.161 331.685 773.908 327.298 767.361 C 308.827 739.808 289.562 712.795 269.526 686.357 C 273.451 660.247 275.075 635.667 277.295 609.439 z" fill="rgb(13,150,104)" transform="translate(0,0)"></path>
<path d="M 175.713 656.094 C 205.878 665.43 237.608 679.96 266.771 688.848 C 273.706 697.062 281.509 709.11 288.06 717.954 C 309.005 746.233 329.47 776.797 347.303 807.129 C 335.444 803.691 317.369 795.29 305.107 790.779 C 265.935 776.369 226.005 758.067 186.883 744.257 C 182.861 721.457 178.186 698.722 177.164 675.531 C 176.878 669.044 176.233 662.566 175.713 656.094 z" fill="rgb(13,150,104)" transform="translate(0,0)"></path>
<path d="M 182.41 578.588 C 188.531 582.308 261.797 679.041 262.286 682.757 L 259.608 682.995 C 235.967 672.301 201.205 660.824 176.046 651.266 C 175.912 633.855 175.984 593.408 182.41 578.588 z" fill="rgb(13,150,104)" transform="translate(0,0)"></path>
<path d="M 187.013 575.694 C 216.952 583.193 246.024 593.808 273.751 607.365 C 271.969 628.829 269.933 650.271 267.643 671.687 C 267.379 674.839 267.481 677.197 265.921 679.907 C 264.15 679.101 258.899 670.597 257.548 668.573 C 236.034 636.352 209.321 607.227 187.013 575.694 z" fill="rgb(13,150,104)" transform="translate(0,0)"></path>
<path d="M 1072.5 71.5664 C 1078.44 76.6256 1086.83 84.6998 1093.12 88.6887 C 1148.1 123.582 1205.93 131.694 1268.55 132.65 C 1267.93 147.818 1269.03 163.893 1268.5 179.333 C 1266.72 231.286 1262.68 284.332 1247.98 334.261 C 1221.27 425.021 1153.41 470.526 1074.11 512.288 C 992.685 479.513 918.304 413.053 895.89 326.803 C 881.697 272.187 871.673 190.233 879.236 133.741 C 943.946 134.331 1023.61 115.953 1072.5 71.5664 z" fill="rgb(26,58,40)" transform="translate(0,0)"></path>
<path d="M 1073.11 75.8671 C 1078.06 78.9732 1088.37 89.8794 1097.52 95.2189 C 1150.54 126.169 1205.88 134.776 1265.75 135.919 C 1260.99 324.27 1258.08 413.846 1074.32 508.636 C 1035.88 494.503 987.652 461.22 958.861 431.542 C 884.585 354.977 878.959 238.188 881.229 137.24 C 951.028 135.819 1017.89 120.377 1073.11 75.8671 z" fill="rgb(13,150,104)" transform="translate(0,0)"></path>
<path d="M 1073.08 113.905 C 1119.04 153.701 1175.33 162.753 1234.11 165.866 C 1233.31 226.04 1232.24 282.399 1210.55 339.516 C 1185.91 404.382 1129.9 439.321 1073.56 473.703 C 1041.52 457.772 1005.48 433.084 980.115 408.001 C 915.132 343.733 912.234 252.351 911.816 166.87 C 971.945 160.654 1024.01 154.065 1073.08 113.905 z" fill="rgb(0,0,1)" transform="translate(0,0)"></path>
<path d="M 1072.88 118.848 C 1076.12 120.162 1087.83 129.529 1091.67 132.003 C 1129.49 156.33 1186.66 168.574 1231.13 168.984 C 1228.07 239.333 1229.31 317.496 1186.88 377.935 C 1159.42 417.042 1114.04 445.807 1073.58 470.129 C 1067.04 467.102 1060.79 462.448 1054.5 459.159 C 931.684 394.932 914.633 298.148 915.056 169.526 C 969.016 168.343 1029.24 151.48 1072.88 118.848 z" fill="rgb(245,158,11)" transform="translate(0,0)"></path>
<path d="M 1167.54 195.025 C 1185.44 195.972 1192.25 210.567 1180.51 224.141 C 1166.69 240.122 1151.41 255.385 1136.87 270.823 L 1095.77 314.3 C 1087.02 323.505 1065.89 351.808 1051.84 342.466 C 1032.06 329.314 1013.33 312.917 994.359 298.325 C 988.001 293.522 976.388 286.497 975.39 278.037 C 972.061 262.111 986.89 254.078 999.25 262.489 C 1017.77 275.095 1039.55 292.697 1056.32 307.296 C 1082.35 282.428 1105.84 252.808 1131.57 227.412 C 1141.21 217.898 1155 198.403 1167.54 195.025 z" fill="rgb(13,150,104)" transform="translate(0,0)"></path>
<path d="M 625.118 669.885 C 648.176 643.993 706.428 606.83 739.618 597.134 C 779.518 658.288 783.748 754.081 769.244 823.47 C 758.906 872.927 735.184 921.875 705.485 962.655 C 704.402 964.15 701.291 968.379 699.882 969.165 L 699.664 967.32 C 701.483 964.765 702.471 963.81 702.477 960.6 C 662.169 1010.85 618.227 1046.04 560.232 1073.77 C 545.57 1080.79 533.163 1089.19 516.369 1086.69 L 513.333 1086.03 C 509.865 1087.23 503.422 1087.96 500.18 1085.98 L 497.934 1085.84 C 497.748 1081.72 504.761 1044.15 505.471 1035.95 C 509.61 988.127 510.195 938.523 501.12 891.353 C 503.868 887.059 514.396 868.961 517.2 866.956 C 519.188 863.912 521.29 859.808 523.073 856.543 C 551.429 811.593 582.308 768.164 611.356 723.736 C 612.235 709.002 610.272 686.791 609.421 671.271 L 611.192 668.665 C 615.489 678.406 615.227 707.221 615.247 719.104 C 618.597 712.607 623.361 703.446 624.952 696.326 C 625.41 690.911 623.128 672.033 625.118 669.885 z" fill="rgb(26,58,40)" transform="translate(0,0)"></path>
<path d="M 597.08 962.338 C 609.743 958.985 624.248 953.563 636.869 949.571 C 667.931 939.748 698.669 928.422 729.664 918.46 C 720.972 932.742 711.906 946.794 702.477 960.6 C 662.169 1010.85 618.227 1046.04 560.232 1073.77 C 545.57 1080.79 533.163 1089.19 516.369 1086.69 C 552.283 1043.03 569.996 1011.29 597.08 962.338 z" fill="rgb(13,150,104)" transform="translate(0,0)"></path>
<path d="M 505.269 892.436 C 516.069 874.651 527.016 856.077 539.936 839.757 C 546.318 879.354 550.695 913.71 554.26 953.821 C 555.833 971.524 557.642 1002.62 560.286 1019.18 C 551.058 1033.15 541.556 1046.95 531.785 1060.55 C 527.239 1066.76 516.707 1079.95 513.333 1086.03 C 509.865 1087.23 503.422 1087.96 500.18 1085.98 C 513.908 1045.44 515.601 935.222 505.269 892.436 z" fill="rgb(13,150,104)" transform="translate(0,0)"></path>
<path d="M 608.351 735.581 C 613.102 745.178 630.39 859.462 632.573 876.374 C 613.06 920.558 590.016 970.015 565.108 1011.22 L 564.375 1011.46 C 562.393 1010.04 562.895 1007.34 562.639 1004.16 C 558.05 947.154 553.203 889.436 542.99 833.139 C 564.343 800.331 586.131 767.809 608.351 735.581 z" fill="rgb(13,150,104)" transform="translate(0,0)"></path>
<path d="M 767.821 797.837 L 769.147 798.163 L 769.998 799.913 C 760.154 850.245 754.333 866.959 732.635 913.006 C 720.202 916.686 706.258 922.018 693.771 926.266 C 663.17 936.886 632.406 947.033 601.492 956.701 L 600.494 956.587 C 600.352 953.925 609.563 936.161 611.359 932.339 C 622.149 909.528 632.522 886.522 642.472 863.333 C 658.881 856.378 676.852 845.658 692.886 837.361 C 717.912 824.412 743.121 811.365 767.821 797.837 z" fill="rgb(13,150,104)" transform="translate(0,0)"></path>
<path d="M 765.429 680.852 L 766.814 682.14 C 775.016 704.386 773.454 766.583 770.935 791.066 C 731.045 812.024 692.115 833.846 651.614 854.739 L 645.368 857.439 L 644.63 856.53 C 665.157 811.549 676.297 771.416 692.737 726.233 C 715.59 710.425 741.391 697.851 765.429 680.852 z" fill="rgb(13,150,104)" transform="translate(0,0)"></path>
<path d="M 628.467 671.799 C 637.727 663.543 647.136 655.454 656.689 647.538 L 691.087 718.262 C 682.936 741.009 676.15 763.909 668.051 786.695 C 658.001 814.396 647.189 841.815 635.628 868.92 C 627.763 823.635 621.885 774.503 611.792 730.094 C 619.915 717.198 624.056 711.71 628.85 696.974 C 629.908 687.265 629.419 681.314 628.467 671.799 z" fill="rgb(13,150,104)" transform="translate(0,0)"></path>
<path d="M 736.393 600.38 C 745.739 604.667 762.949 663.502 766.109 676.809 C 750.276 687.213 730.969 698.314 714.577 708.311 L 693.52 720.913 C 697.724 710.854 702.48 694.34 706.04 683.489 C 715.585 654.398 724.203 628.392 736.393 600.38 z" fill="rgb(13,150,104)" transform="translate(0,0)"></path>
<path d="M 727.34 605.956 L 728.424 606.352 C 728.529 606.857 710.418 657.737 708.349 663.717 C 703.085 678.934 697.913 697.363 692.695 712.608 L 683.466 693.729 C 675.704 677.86 667.058 660.904 660.087 644.799 C 679.525 630.254 704.95 615.181 727.34 605.956 z" fill="rgb(13,150,104)" transform="translate(0,0)"></path>
<path d="M 732.742 125.533 C 734.529 128.138 735.174 158.034 735.404 163.283 C 749.154 166.544 756.772 167.99 769.294 174.09 C 775.747 165.148 783.914 154.416 789.489 145.12 C 803.679 154.726 819.93 168.5 834.033 179.244 L 808.475 206.268 C 815.715 216.201 818.92 222.329 823.806 233.569 L 863.74 227.641 C 866.727 239.865 869.08 268.832 870.493 282.666 C 858.761 283.419 841.609 282.992 829.451 283.025 C 827.168 296.942 826.29 301.792 820.617 314.513 C 831.796 322.29 843.208 330.493 854.815 337.559 C 841.918 351.835 828.891 365.993 815.735 380.031 C 807.246 371.69 796.639 362.42 787.744 354.277 C 779.244 360.479 770.491 364.083 760.532 367.08 C 761.109 374.842 765.389 395.466 766.968 404.814 C 750.439 408.404 726.415 410.982 709.423 412.788 C 707.694 400.088 705.536 387.001 703.602 374.295 C 690.59 371.631 685.36 370.389 673.541 364.558 C 666.075 375.397 658.204 385.951 649.944 396.198 C 640.1 386.815 617.751 369.618 606.283 360.13 C 614.162 353.78 625.288 341.555 632.589 333.949 C 624.103 321.681 621.726 316.884 616.678 302.945 C 605.539 305.013 590.381 305.693 578.116 307.582 C 577.442 292.828 575.891 269.343 574.011 255.073 C 585.586 254.88 600.798 253.5 612.605 252.748 C 615.279 240.425 617.675 233.615 623.132 222.227 C 614.79 216.152 597.48 204.005 590.594 197.126 C 602.762 183.842 616.959 168.854 629.609 156.104 C 637.012 165.26 647.401 175.645 655.767 184.13 C 663.91 176.695 674.887 171.755 685.12 167.977 C 682.868 155.263 682.071 143.777 679.012 130.773 L 732.742 125.533 z" fill="rgb(0,0,1)" transform="translate(0,0)"></path>
<path d="M 727.024 129.465 L 729.393 129.619 C 731.996 135.093 731.968 159.017 732.13 166.606 C 747.073 167.794 756.72 171.892 770.126 178.027 L 790.445 149.531 C 803.502 159.337 816.317 169.462 828.878 179.896 C 822.623 187.594 811.609 198.314 804.461 205.703 C 811.727 216.301 817.261 225.325 821.2 237.551 C 833.203 235.183 849.122 232.901 861.155 231.564 C 863.852 248.038 865.069 263.164 866.934 279.695 C 854.309 280.09 839.625 279.717 826.843 279.693 C 825.517 294.001 822.444 302.849 816.396 315.604 C 827.553 323.212 838.616 330.655 849.43 338.754 C 838.598 351.139 826.704 363.585 815.572 375.847 C 806.551 367.016 797.513 358.94 788.386 349.83 C 775.567 358.882 771.263 360.821 756.401 364.806 L 763.783 402.435 L 714.03 409.317 L 712.793 408.583 C 711.153 405.525 706.988 376.907 705.841 371.115 C 691.766 369.266 685.456 366.985 673.249 360.458 C 665.549 371.062 657.69 381.549 649.674 391.915 C 638.625 381.823 623.506 370.613 611.441 360.072 C 620.032 351.982 628.313 342.975 637.213 334.58 C 627.605 321.378 624.351 315.014 619.115 299.715 C 606.231 301.303 594.253 301.898 581.228 304.127 C 579.825 288.816 578.647 273.485 577.692 258.139 C 589.49 256.854 603.631 256.223 615.675 255.262 C 617.25 241.999 621.007 232.619 627.245 221.054 C 617.844 214.617 603.343 204.377 595.005 196.76 C 606.719 185.039 617.563 172.604 629.52 161.081 C 637.097 169.835 647.256 180.135 655.327 188.715 C 666.24 179.051 675.454 174.88 688.853 169.879 C 686.669 159.549 684.948 144.715 682.83 133.429 C 697.153 132.513 712.521 130.653 727.024 129.465 z" fill="rgb(245,158,11)" transform="translate(0,0)"></path>
<path d="M 713.244 230.837 C 734.61 226.945 755.098 241.075 759.052 262.431 C 763.006 283.786 748.937 304.315 727.593 308.332 C 706.161 312.366 685.528 298.224 681.557 276.78 C 677.586 255.336 691.788 234.745 713.244 230.837 z" fill="rgb(0,0,1)" transform="translate(0,0)"></path>
<path d="M 713.625 233.974 C 726.492 231.549 739.665 236.266 748.069 246.307 C 756.473 256.348 758.795 270.147 754.142 282.386 C 749.488 294.625 738.584 303.394 725.632 305.314 C 706.14 308.205 687.919 294.964 684.648 275.532 C 681.378 256.1 694.26 237.624 713.625 233.974 z" fill="rgb(249,233,199)" transform="translate(0,0)"></path>
<path d="M 734.857 412.816 C 745.005 413.549 753.598 414.808 763.605 416.312 L 761.147 434.563 C 766.018 436.56 771.415 438.431 774.962 442.417 L 776.969 443.377 C 779.309 442.317 788.676 433.312 792.118 430.631 C 795.592 433.859 797.513 436.429 800.449 440.167 C 803.95 444.36 809.071 450.129 812.108 454.472 C 806.883 459.392 801.57 464.218 796.172 468.948 C 799.042 475.464 799.741 478.145 801.438 484.935 L 821.92 486.667 C 822.074 498.89 821.328 509.519 818.51 521.501 L 796.256 518.279 C 793.537 523.995 791.9 527.609 788.276 532.909 C 793.065 537.347 797.782 541.862 802.426 546.451 C 793.882 555.042 785.875 561.248 776.208 568.55 L 760.619 551.978 L 745.256 555.324 C 744.474 563.003 743.89 569.812 742.253 577.375 C 731.734 576.299 720.119 573.901 709.624 571.969 C 710.452 565.9 711.764 557.865 712.151 551.947 C 706.412 549.073 701.747 546.817 696.342 543.298 C 691.41 546.992 685.482 551.709 680.254 554.754 C 673.257 546.673 666.37 538.497 659.595 530.23 C 665.888 524.533 669.625 521.3 676.548 516.458 C 673.941 509.839 673.568 507.513 672.469 500.691 C 665.2 499.776 657.924 498.922 650.641 498.129 C 651.934 487.117 653.525 476.142 655.414 465.216 C 662.023 466.56 670.909 468.143 677.197 469.983 C 680.63 463.607 682.537 460.468 686.758 454.604 C 683.119 449.867 676.594 440.923 672.694 436.974 C 681.034 430.006 689.448 422.809 698.084 416.238 L 712.871 434.646 C 719.283 433.17 725.379 431.612 731.934 430.922 C 732.761 425.657 733.771 417.829 734.857 412.816 z" fill="rgb(26,58,40)" transform="translate(0,0)"></path>
<path d="M 736.564 414.985 L 761.717 418.437 C 760.296 423.973 759.551 430.249 758.721 435.95 C 763.927 438.111 769.04 439.987 773.687 443.191 C 775.24 444.363 776.375 445.795 777.729 445.345 C 782.933 443.614 787.792 437.329 792.295 433.922 L 799.862 443.25 L 809.543 454.328 C 805.276 458.466 797.93 464.312 793.204 468.31 C 796.832 475.758 797.815 479.341 799.507 487.136 L 820.044 488.365 C 819.558 499.465 818.969 507.531 816.353 518.305 C 809.746 517.782 801.207 516.46 794.485 515.615 C 792.138 522.185 789.42 526.906 785.027 532.264 C 789.484 537.002 794.423 541.488 799.174 545.947 C 792.852 552.804 783.99 559.671 776.644 565.339 C 771.347 560.073 766.394 554.156 761.484 548.506 C 754.794 550.524 749.155 551.518 742.305 552.802 C 742.178 561.36 741.628 566.731 740.538 575.252 C 730.917 573.251 721.236 571.552 711.509 570.159 C 712.839 563.869 713.971 556.993 715.134 550.628 C 708.798 547.86 702.807 543.775 696.945 540.058 C 691.961 543.788 686.042 547.744 680.891 551.369 C 675.966 545.856 666.711 535.87 663.195 530.001 C 668.145 525.645 674.25 520.897 679.42 516.673 C 676.843 509.751 676.24 505.914 674.94 498.73 L 653.632 495.568 C 654.671 486.691 656.157 477.271 657.399 468.37 L 678.643 472.692 C 681.948 465.689 685.608 460.238 689.782 453.744 L 676.564 437.427 C 683.789 431.188 690.118 425.69 697.874 420.062 C 703.399 426.052 707.38 430.895 712.41 437.322 C 720.994 434.812 725.72 434.094 734.641 432.844 C 735.009 427.168 735.908 420.7 736.564 414.985 z" fill="rgb(245,158,11)" transform="translate(0,0)"></path>
<path d="M 729.988 470.288 C 736.636 468.466 743.754 469.922 749.153 474.208 C 754.552 478.494 757.584 485.096 757.317 491.984 C 756.955 501.345 750.608 509.408 741.594 511.959 C 730.067 515.22 718.084 508.491 714.87 496.951 C 711.656 485.41 718.434 473.455 729.988 470.288 z" fill="rgb(0,0,1)" transform="translate(0,0)"></path>
<path d="M 732.154 473.149 C 757.568 471.645 764.06 498.269 739.639 509.425 C 716.246 513.529 706.55 485.428 732.154 473.149 z" fill="rgb(13,150,104)" transform="translate(0,0)"></path>
<path d="M 1216.6 527.087 L 1221.65 532.158 C 1207.38 548.028 1190.52 561.813 1174.13 575.516 C 1069.96 662.58 947.111 728.571 816.245 765.095 C 810.935 766.578 794.267 772.966 791.839 767.105 C 792.158 766.231 792.536 765.197 792.972 764.004 C 796.639 762.141 805.313 760.275 809.115 759.285 C 832.075 753.139 854.76 746.004 877.104 737.898 C 987.365 698.504 1088.07 637.997 1177.64 562.943 C 1191.4 551.41 1203.1 538.839 1216.6 527.087 z" fill="rgb(13,150,104)" transform="translate(0,0)"></path>
<path d="M 1187.85 516.183 C 1212 507.383 1244.84 493.298 1268.02 485.964 C 1256.8 505.865 1247.25 538.724 1233.97 557.943 C 1230.72 551.349 1224.79 537.287 1221.65 532.158 L 1216.6 527.087 C 1207.2 523.463 1197.33 519.473 1187.85 516.183 z" fill="rgb(0,0,1)" transform="translate(0,0)"></path>
<path d="M 1259.92 492.106 L 1260.51 493.42 C 1254.08 510.907 1242.59 535.504 1234.05 552.236 C 1230.59 543.152 1227.67 536.093 1223.54 527.301 C 1221.19 524.153 1202.04 517.759 1197.11 515.937 C 1213.97 511.03 1243.35 498.976 1259.92 492.106 z" fill="rgb(13,150,104)" transform="translate(0,0)"></path>
<metadata><recraft-signature>{"signed_by": "recraft", "signature_b64": "jymK7VOjNMxakO03dUpcCYhWJxD9bI1jcQrMR52EApYXXL945mnKk9A+v5KEHwHuj9k6wF9eABGIpdEAfQRsCg==", "signing_algo": "Ed25519", "generation_timestamp": 1780387138, "identifier": "3b8cfb94-33b0-4565-9b46-291703953e87"}</recraft-signature></metadata></svg>