<svg xmlns="http://www.w3.org/2000/svg" height="1365" preserveAspectRatio="none" style="display: block;" version="1.1" viewBox="0 0 1536 2048" width="1024">
<path d="M 0 0 L 1536 0 L 1536 2048 L 0 2048 L 0 0 z" fill="rgb(243,240,231)" transform="translate(0,0)"></path>
<path d="M 845.92 919.687 L 846.228 346.38 L 846.02 216.387 C 846.01 205.449 845.488 164.536 847.309 156.555 L 849.559 155.355 C 851.516 159.036 852.608 163.116 852.753 167.283 C 853.219 184.597 852.193 208.098 852.158 226.155 L 852.169 364.125 L 851.883 781.94 L 851.789 874.971 C 851.657 891.422 850.643 912.222 852.13 928.433 C 852.552 933.036 862.642 953.221 865.175 958.918 C 859.254 969.532 855.185 974.598 848.288 984.371 C 846.382 1015.1 853.591 1049.1 853.911 1079.09 C 854.213 1107.43 853.143 1137.6 853.067 1166.24 C 853.231 1231.4 853.055 1296.56 852.541 1361.72 C 903.665 1367.36 956.089 1374.82 1007.4 1380.8 C 1042.89 1384.93 1093.19 1389.56 1127 1396.83 L 1126.97 1384.6 C 1111.78 1375.1 1095.92 1364.67 1086.5 1349.26 C 1092.86 1326.85 1104.41 1299.59 1106.85 1277.2 C 1107.16 1274.36 1103.14 1260.14 1102.51 1255.23 C 1107.57 1253.07 1112.59 1250.81 1117.57 1248.48 L 1120.68 1234.84 C 1103.59 1230.29 1086.27 1224.84 1069.28 1220.54 C 1059.66 1203.13 1049.46 1174.07 1040.28 1159.59 C 1018.63 1151.38 1018.22 1138.14 1013.59 1117.96 C 1013.15 1116.03 1011.13 1113.86 1010.28 1111.89 C 1002.83 1108.66 919.817 1100.02 906.021 1098.67 L 905.98 951.71 C 950.136 956.348 994.991 963.424 1038.85 967.347 C 1038.51 979.792 1038.5 992.481 1038.27 1004.97 C 1055.55 1008.68 1073.82 1021.26 1084.91 1035.01 C 1083.66 1023.65 1084.77 989.021 1084.81 975.423 C 1106.03 977.443 1127.23 979.635 1148.41 981.999 C 1156.39 982.872 1175.9 984.564 1182.78 986.503 C 1194.62 969.611 1212.29 961.963 1230.89 955.376 C 1235.49 953.748 1241.59 951.758 1245.23 948.766 L 1243.84 946.477 C 1237.56 945.77 1229.57 945.322 1223.24 945.034 C 1177.44 942.948 1130.45 933.104 1085 930.749 C 1085.12 881.837 1084.31 832.855 1084.7 783.933 C 1124.16 788.768 1164.88 789.999 1204.45 794.622 C 1217.16 796.106 1231.78 798.395 1244.45 798.2 L 1246.96 798.326 C 1249.02 797.459 1252.5 791.368 1255.1 788.44 L 1255.81 787.656 C 1259.78 786.653 1265.37 784.237 1269.07 783.33 C 1276.34 781.552 1293.42 780.814 1300.68 781.894 C 1316.34 774.003 1331.67 782.423 1347.74 785.95 C 1351.43 786.759 1352.49 788.665 1357.25 789.279 L 1359.84 793.803 C 1360.62 794.48 1367.34 798.433 1368.2 798.529 C 1375.17 801.27 1380.16 809.189 1380.59 809.233 C 1394.28 810.622 1394.34 814.837 1400.63 826.452 C 1401.76 828.525 1411.6 829.69 1412.51 833.145 C 1414.71 836.461 1418.24 843.045 1420.82 845.663 C 1425.34 850.244 1425.09 851.054 1426.34 857.28 C 1423.73 862.949 1423.02 863.639 1423.43 869.988 C 1424.9 892.504 1402.73 903.998 1389.68 917.999 C 1387.84 917.862 1385.62 917.697 1383.02 917.502 C 1371.58 924.239 1371.05 929.778 1356.25 930.481 C 1356.74 930.986 1357.23 931.492 1357.71 931.998 C 1358.84 944.903 1356.96 964.339 1358.61 976.607 C 1385.78 995.614 1413.16 1017.31 1418.12 1052.36 C 1425.66 1105.64 1400.07 1169.53 1386.27 1219.99 C 1376.9 1217.85 1361.09 1213.32 1352.57 1211.97 C 1363.05 1244.23 1375.74 1275.77 1384.6 1308.6 C 1386.03 1313.9 1388.05 1320.32 1389.93 1325.48 C 1394.12 1340.82 1405.21 1377.64 1406.11 1391.62 C 1391.4 1396.8 1379.94 1399.77 1364.68 1403.11 C 1363.68 1468.18 1353.4 1529.25 1345.48 1593.5 C 1344.7 1599.77 1352.11 1620.58 1354.13 1627.36 C 1356.95 1636.8 1359.22 1646.4 1360.95 1656.11 C 1370.85 1714.47 1364.26 1773.71 1355.82 1831.91 C 1398.24 1842.48 1481.78 1882.95 1442.33 1939.75 C 1422.74 1967.95 1368.64 1987.22 1333.96 1991.88 C 1252.01 2002.9 1147.9 1997.36 1076.61 1950.41 C 1050.01 1933.24 1034.42 1899.62 1054.41 1871.39 C 1072.9 1845.27 1120.55 1822.58 1151.84 1817.86 L 1160.95 1811.12 C 1157.99 1785.16 1156.65 1759.13 1154.57 1733.07 L 1144.06 1610.08 C 1140.46 1570.03 1134.18 1532.21 1130.19 1492.81 C 1127.54 1466.68 1127.48 1429 1126.75 1402.26 C 1103.62 1397.14 1065.03 1394.4 1040.33 1391.03 C 1003.04 1385.94 964.493 1381.52 927.185 1377.11 C 911.206 1375.22 860.242 1370.17 846.282 1365.89 C 846.732 1351.51 846.112 1335.22 846.095 1320.66 L 846.249 1230.12 C 845.497 1218.8 848.176 1148.84 844.087 1143.13 C 844.452 1213.83 836.445 1283.47 831.043 1353.78 C 824.197 1442.88 816.329 1531.85 809.08 1620.91 C 808.279 1630.76 807.415 1648.14 805.202 1657.26 C 813.018 1656.31 824.488 1658.5 833.221 1659.78 C 880.471 1666.69 954.193 1688.99 965.955 1742.45 C 968.749 1755.15 963.018 1772.79 954.846 1782.02 C 923.214 1822.65 852.98 1841.16 804.199 1845.45 C 730.401 1851.95 636.311 1846.69 575.423 1800.12 C 519.235 1757.14 556.27 1706.47 610.015 1686.43 C 606.986 1653.21 605.514 1617.77 603.509 1584.29 C 600.532 1539.91 598.253 1495.48 596.671 1451.02 C 595.871 1419.96 597.2 1389.32 596.551 1358.55 C 596.326 1347.87 591.673 1324.6 590.331 1312.22 C 585.564 1271.98 584.578 1231.38 587.387 1190.95 C 568.202 1163.65 527.01 1110.71 524.103 1078.4 C 522.954 1065.63 528.001 1036.94 529.606 1022.31 C 522.214 1017.18 515.647 1012.88 509.024 1006.73 C 516.85 991.904 524.3 968.852 531.348 953.918 C 540.686 934.128 559.934 886.379 571.53 870.557 C 587.892 848.232 643.364 810.948 667.553 794.747 C 665.612 785.241 664.071 775.034 662.474 765.413 C 628.583 756.594 609.721 725.88 602.292 693.28 C 550.417 711.624 517.308 653.326 539.22 608.389 C 562.521 560.602 630.547 566.507 645.88 614.498 C 679.588 600.124 729.422 604.339 744.606 642.74 C 749.607 655.389 748.785 662.436 745.331 675.115 C 756.003 711.076 778.252 752.09 731.652 773.3 C 732.019 778.425 732.304 784 733.018 789.045 C 793.09 820.079 818.312 858.875 845.92 919.687 z" fill="rgb(0,0,1)" transform="translate(0,0)"></path>
<path d="M 805.202 1657.26 C 813.018 1656.31 824.488 1658.5 833.221 1659.78 C 880.471 1666.69 954.193 1688.99 965.955 1742.45 C 968.749 1755.15 963.018 1772.79 954.846 1782.02 C 923.214 1822.65 852.98 1841.16 804.199 1845.45 C 730.401 1851.95 636.311 1846.69 575.423 1800.12 C 519.235 1757.14 556.27 1706.47 610.015 1686.43 C 609.876 1695.36 612.971 1704.48 612.477 1713.34 C 611.815 1725.2 598.882 1760.02 602.783 1770.01 C 605.734 1777.56 629.608 1781.97 637.591 1786.36 C 657.831 1797.51 668.246 1811.56 692.154 1817.33 C 711.342 1821.96 731.575 1821.63 749.793 1812.13 C 753.076 1810.42 754.051 1808.66 755.464 1805.49 C 757.76 1800.35 746.478 1791.43 741.966 1788.1 C 722.582 1773.79 717.071 1756.58 705.779 1736.63 C 701.024 1728.23 694.148 1718.85 688.294 1710.73 C 692.807 1696.4 695.017 1677.35 697.115 1662.33 C 708.611 1660.7 719.532 1659.97 731.116 1659.12 C 731.302 1660.58 731.501 1662.04 731.712 1663.5 C 732.174 1666.91 735.006 1675.94 734.945 1676.56 C 733.787 1688.17 726.716 1708.06 728.681 1719.4 C 731.448 1735.37 761.92 1737.35 773.298 1744.69 C 783.796 1751.45 792.138 1759.62 803.145 1766.26 C 820.334 1776.63 839.164 1777.75 858.415 1773 C 865.301 1771.3 874.848 1768.14 878.588 1761.58 C 879.742 1759.55 880.084 1755.91 879.096 1754.08 C 873.103 1743 860.618 1735.33 851.64 1724.22 C 837.589 1706.82 825.401 1669.62 806.6 1660 L 805.578 1659.48 L 805.202 1657.26 z" fill="rgb(245,158,11)" transform="translate(0,0)"></path>
<path d="M 1234.31 1816.81 C 1246.5 1817.41 1272.13 1818.69 1283.64 1821.49 C 1287.13 1833.51 1290.31 1845.32 1295.32 1856.82 C 1285.67 1867.93 1282.08 1877.98 1274.11 1888.26 C 1260.8 1905.4 1244.92 1921.96 1230.57 1938.22 C 1230.72 1942.89 1230.46 1951.22 1234.22 1954.3 C 1250.67 1967.82 1285.55 1965.63 1304.04 1958.12 C 1315.82 1953.34 1324.9 1940.67 1335.69 1934.24 C 1352.43 1924.53 1372.21 1928.64 1384.15 1910.73 C 1384.32 1895.65 1378.61 1861.03 1370.93 1847 C 1366.96 1839.75 1352.64 1848.11 1355.82 1831.91 C 1398.24 1842.48 1481.78 1882.95 1442.33 1939.75 C 1422.74 1967.95 1368.64 1987.22 1333.96 1991.88 C 1252.01 2002.9 1147.9 1997.36 1076.61 1950.41 C 1050.01 1933.24 1034.42 1899.62 1054.41 1871.39 C 1072.9 1845.27 1120.55 1822.58 1151.84 1817.86 C 1145.85 1846.9 1131.29 1864.73 1108.27 1883.05 C 1065.1 1917.42 1120.12 1926.21 1147.42 1924.21 C 1170.39 1922.53 1180.3 1905.38 1199.39 1895.86 C 1225.2 1884.5 1254.13 1894.19 1245.03 1852.36 C 1241.85 1837.7 1243.04 1831.29 1234.31 1816.81 z" fill="rgb(245,158,11)" transform="translate(0,0)"></path>
<path d="M 1084.7 783.933 C 1124.16 788.768 1164.88 789.999 1204.45 794.622 C 1217.16 796.106 1231.78 798.395 1244.45 798.2 C 1242.91 800.193 1240.27 803.404 1239.14 805.496 C 1232.64 812.514 1226.44 828.122 1226 837.106 C 1224.42 840.963 1225.26 841.018 1227.4 844.593 L 1226.91 845.826 C 1215.6 874.705 1214.26 914.225 1237.14 937.823 C 1241.63 938.898 1244.65 938.809 1247.59 941.6 C 1247.84 944.601 1246.7 945.952 1245.23 948.766 L 1243.84 946.477 C 1237.56 945.77 1229.57 945.322 1223.24 945.034 C 1177.44 942.948 1130.45 933.104 1085 930.749 C 1085.12 881.837 1084.31 832.855 1084.7 783.933 z" fill="rgb(243,240,231)" transform="translate(0,0)"></path>
<path d="M 1084.7 783.933 C 1124.16 788.768 1164.88 789.999 1204.45 794.622 C 1217.16 796.106 1231.78 798.395 1244.45 798.2 C 1242.91 800.193 1240.27 803.404 1239.14 805.496 C 1212.86 802.612 1186.42 800.647 1160.09 798.227 C 1137.45 796.148 1114.69 793.351 1092.03 792.148 C 1092.27 836.164 1092.25 880.181 1091.96 924.197 C 1106.17 925.607 1236.59 938 1244.24 942.254 C 1245.1 945.125 1245.21 943.76 1243.84 946.477 C 1237.56 945.77 1229.57 945.322 1223.24 945.034 C 1177.44 942.948 1130.45 933.104 1085 930.749 C 1085.12 881.837 1084.31 832.855 1084.7 783.933 z" fill="rgb(245,158,11)" transform="translate(0,0)"></path>
<path d="M 1206.42 817.462 C 1211.74 818.363 1215.75 822.771 1216.13 828.177 C 1211.59 839.985 1179.72 884.205 1170.41 897.033 C 1169.58 898.172 1165.07 902.52 1163.79 902.258 C 1156.86 900.828 1145.82 883.221 1141.88 877.746 C 1138.95 874.176 1132.97 867.652 1131.82 863.488 C 1130.45 858.564 1135.5 853.681 1140.38 853.094 C 1146.59 854.779 1156.17 869.754 1161.32 876.194 C 1168.51 867.874 1175.27 859.194 1181.58 850.19 C 1188.3 840.634 1198.42 824.946 1206.42 817.462 z" fill="rgb(245,158,11)" transform="translate(0,0)"></path>
<path d="M 1300.68 781.894 C 1316.34 774.003 1331.67 782.423 1347.74 785.95 C 1351.43 786.759 1352.49 788.665 1357.25 789.279 L 1359.84 793.803 C 1360.62 794.48 1367.34 798.433 1368.2 798.529 C 1369.41 804.175 1380.38 814.798 1385.69 817.424 C 1386.35 815.796 1386.19 815.721 1387.53 814.564 C 1392.35 818.295 1392.24 820.142 1392.13 826.015 C 1402 839.441 1404.09 824.811 1414.75 849.052 C 1412.78 860.848 1419.06 871.658 1416.44 880.059 L 1415.36 880.52 C 1415.03 879.38 1414.69 878.246 1414.33 877.117 C 1411.69 879.022 1407.83 882.929 1406.38 885.778 C 1403.89 890.682 1405.39 903.463 1397.2 901.469 C 1392.58 900.343 1388.02 896.546 1384.03 898.924 C 1383.56 904.649 1384.3 905.992 1381.44 910.13 C 1374.17 913.534 1369 907.939 1368.6 919.523 C 1362.38 920.88 1355.29 909.576 1348.96 917.565 L 1350.08 921.604 C 1347.18 924.506 1344.68 922.788 1340.6 923.469 C 1340.65 923.46 1336.83 928.499 1336.42 929.03 L 1334.69 928.953 L 1332.6 924.95 C 1330.03 924.146 1331.24 924.106 1328.84 924.818 L 1328.32 926.163 L 1329.78 928.981 C 1328.64 930.4 1329.34 929.779 1327 930.245 C 1320.39 931.433 1311.7 922.881 1310.67 918.303 C 1312.32 914.551 1318.74 910.367 1322.38 907.367 C 1329.56 900.403 1335.54 879.188 1325.33 872.346 C 1319.22 868.254 1311.56 872.478 1305.32 874.353 L 1303.07 871.665 C 1299.13 872.487 1301.04 877.393 1296.18 880.022 C 1293.58 879.168 1294.61 879.932 1293.07 877.568 C 1293.97 874.131 1297.19 871.941 1299.99 869.409 C 1298.35 860.903 1286.43 866.978 1288.65 853.093 L 1289.64 847.194 C 1285.72 847.817 1286.52 848.284 1283.42 846.954 L 1283.38 845.457 L 1288.65 844.303 L 1289.35 842.939 C 1286.53 838.442 1283.18 840.15 1283.18 839.05 C 1283.13 831.37 1283.11 817.956 1273.75 814.852 C 1270.16 813.66 1263.48 817.547 1259.84 820.345 C 1249.26 828.476 1239.79 839.468 1232.56 850.771 C 1236.2 851.681 1240.22 852.179 1242.79 854.642 L 1242.81 856.836 C 1240.83 857.907 1240.36 857.806 1238.15 858.088 L 1236.4 860.533 C 1234.95 856.49 1235.73 856.409 1232.94 854.953 C 1229.67 855.652 1229.59 855.741 1227.1 858.099 L 1228.37 861.199 C 1233.63 863.33 1232.56 861.294 1236.6 864.76 C 1233.26 864.616 1229.09 863.932 1226.46 865.631 C 1225.23 868.649 1225.29 868.514 1225.22 871.793 L 1225.3 873.378 C 1221.65 883.932 1228.41 891.327 1238.94 886.407 C 1243.37 884.336 1248.6 872.594 1251.39 867.805 C 1249.08 877.602 1244.39 884.376 1245.6 892.185 C 1239.43 896.824 1230.95 887.001 1224.37 888.839 C 1219.27 896.987 1230.06 923.033 1234.23 931.274 C 1216.88 916.713 1219.85 877.899 1226.09 858.477 C 1225.32 855.895 1224.88 854.979 1225.03 852.238 C 1227.12 850.251 1228.73 849.206 1229.41 846.448 C 1226.69 840.236 1228.89 838.992 1227.44 835.112 L 1226 837.106 C 1226.44 828.122 1232.64 812.514 1239.14 805.496 C 1240.27 803.404 1242.91 800.193 1244.45 798.2 L 1246.96 798.326 C 1249.02 797.459 1252.5 791.368 1255.1 788.44 L 1255.81 787.656 C 1259.78 786.653 1265.37 784.237 1269.07 783.33 C 1276.34 781.552 1293.42 780.814 1300.68 781.894 z" fill="rgb(26,58,40)" transform="translate(0,0)"></path>
<path d="M 1300.68 781.894 C 1316.34 774.003 1331.67 782.423 1347.74 785.95 C 1351.43 786.759 1352.49 788.665 1357.25 789.279 L 1359.84 793.803 C 1358.38 794.868 1358.21 794.872 1356.58 795.671 C 1345.77 785.806 1338.09 791.795 1333.05 789.119 L 1333.65 785.427 C 1331.62 784.396 1332.63 784.469 1330.53 785.094 L 1330.64 788.999 L 1329.1 788.966 C 1328.12 786.918 1327.84 786.225 1326.5 784.339 C 1323.19 785.927 1323.99 785.871 1321.59 789.388 C 1312.57 784.936 1308.45 792.565 1303.1 788.975 C 1302.88 785.509 1302.5 784.865 1300.68 781.894 z" fill="rgb(0,0,1)" transform="translate(0,0)"></path>
<path d="M 905.98 951.71 C 950.136 956.348 994.991 963.424 1038.85 967.347 C 1038.51 979.792 1038.5 992.481 1038.27 1004.97 C 1033.22 1004.18 1030.28 1004.16 1025.19 1004.08 C 1013.66 1008.66 1010.95 1011.13 1004.14 1021.41 C 998.924 1019.98 986.916 1016.14 982.117 1016.29 C 975.396 1025.56 1013.09 1083.94 1011.79 1099.45 C 1011.5 1102.53 1011.05 1109.19 1010.28 1111.89 C 1002.83 1108.66 919.817 1100.02 906.021 1098.67 L 905.98 951.71 z" fill="rgb(243,240,231)" transform="translate(0,0)"></path>
<path d="M 905.98 951.71 C 950.136 956.348 994.991 963.424 1038.85 967.347 C 1038.51 979.792 1038.5 992.481 1038.27 1004.97 C 1033.22 1004.18 1030.28 1004.16 1025.19 1004.08 C 1024.77 995.864 1024.51 987.643 1024.4 979.419 C 999.883 974.723 946.388 968.629 920.944 967.436 C 919.279 1005.95 920.136 1048.01 920.3 1086.78 C 951.419 1090.55 980.879 1093.85 1011.79 1099.45 C 1011.5 1102.53 1011.05 1109.19 1010.28 1111.89 C 1002.83 1108.66 919.817 1100.02 906.021 1098.67 L 905.98 951.71 z" fill="rgb(245,158,11)" transform="translate(0,0)"></path>
<path d="M 1232.56 850.771 C 1239.79 839.468 1249.26 828.476 1259.84 820.345 C 1263.48 817.547 1270.16 813.66 1273.75 814.852 C 1283.11 817.956 1283.13 831.37 1283.18 839.05 C 1283.18 840.15 1286.53 838.442 1289.35 842.939 L 1288.65 844.303 L 1283.38 845.457 L 1283.42 846.954 C 1286.52 848.284 1285.72 847.817 1289.64 847.194 L 1288.65 853.093 C 1286.43 866.978 1298.35 860.903 1299.99 869.409 C 1297.19 871.941 1293.97 874.131 1293.07 877.568 C 1294.61 879.932 1293.58 879.168 1296.18 880.022 C 1301.04 877.393 1299.13 872.487 1303.07 871.665 L 1305.32 874.353 C 1304.02 878.145 1303.73 877.124 1304.72 880.253 C 1308.48 881.685 1307.02 881.364 1311.32 880.63 C 1321.88 885.572 1319.42 892.762 1316.43 902.243 L 1317.43 905.482 C 1313.82 909.024 1313.56 909.444 1308.89 910.804 C 1306.83 907.829 1306.21 907.003 1306.07 903.371 C 1307.2 899.985 1309.19 897.978 1309.88 895.716 L 1308.08 894.612 C 1301.72 897.872 1302.52 907.804 1308.14 912.626 C 1307.54 916.696 1307.35 915.004 1306.34 917.264 C 1302.45 925.976 1303.41 943.704 1304.21 952.945 C 1311.44 957.474 1318.79 961.803 1326.26 965.929 C 1295.39 988.846 1259.75 1007.13 1229.41 1030.4 C 1233.19 1004.15 1230.02 970.025 1250.46 949.71 C 1258.02 948.016 1257.24 964.782 1264.76 965.145 C 1266.31 963.374 1264.72 947.778 1264.7 943.551 C 1271.42 942.258 1285.98 940.478 1287.36 931.54 C 1282.65 926.027 1257.45 947.251 1234.23 931.274 C 1230.06 923.033 1219.27 896.987 1224.37 888.839 C 1230.95 887.001 1239.43 896.824 1245.6 892.185 C 1244.39 884.376 1249.08 877.602 1251.39 867.805 C 1248.6 872.594 1243.37 884.336 1238.94 886.407 C 1228.41 891.327 1221.65 883.932 1225.3 873.378 L 1225.22 871.793 C 1225.29 868.514 1225.23 868.649 1226.46 865.631 C 1229.09 863.932 1233.26 864.616 1236.6 864.76 C 1232.56 861.294 1233.63 863.33 1228.37 861.199 L 1227.1 858.099 C 1229.59 855.741 1229.67 855.652 1232.94 854.953 C 1235.73 856.409 1234.95 856.49 1236.4 860.533 L 1238.15 858.088 C 1240.36 857.806 1240.83 857.907 1242.81 856.836 L 1242.79 854.642 C 1240.22 852.179 1236.2 851.681 1232.56 850.771 z" fill="rgb(144,84,8)" transform="translate(0,0)"></path>
<path d="M 1225.22 871.793 C 1230.18 867.924 1234.91 865.848 1239.56 871.115 C 1240.02 875.148 1240.38 873.627 1238.61 877.095 C 1232.84 879.981 1229.91 877.517 1225.3 873.378 L 1225.22 871.793 z" fill="rgb(0,0,1)" transform="translate(0,0)"></path>
<path d="M 1260.65 861.102 C 1270.74 858.18 1281.65 862.291 1284.95 872.74 L 1281.09 873.097 C 1278.35 876.866 1279.42 879.781 1278.41 883.976 C 1276.39 884.014 1275.64 883.075 1273.96 881.804 L 1273.27 881.269 L 1271.67 882.673 L 1271.89 884.44 C 1273.49 886.212 1275.26 887.637 1275.54 889.871 C 1265.69 898.604 1251.68 891.947 1262.02 875.158 L 1260.32 872.396 C 1260.89 867.902 1261.06 866.594 1260.73 862.07 L 1260.65 861.102 z" fill="rgb(0,0,1)" transform="translate(0,0)"></path>
<path d="M 1260.65 861.102 C 1270.74 858.18 1281.65 862.291 1284.95 872.74 L 1281.09 873.097 C 1278.35 876.866 1279.42 879.781 1278.41 883.976 C 1277.65 873.731 1271.16 870.593 1262.02 875.158 L 1260.32 872.396 C 1260.89 867.902 1261.06 866.594 1260.73 862.07 L 1260.65 861.102 z" fill="rgb(112,70,11)" transform="translate(0,0)"></path>
<path d="M 1260.65 861.102 C 1270.74 858.18 1281.65 862.291 1284.95 872.74 C 1283.15 872.122 1279.13 869.286 1276.97 868.136 C 1270.91 864.912 1268.01 865.255 1262.17 863.921 L 1260.65 861.102 z" fill="rgb(0,0,1)" transform="translate(0,0)"></path>
<path d="M 1266.38 876.436 L 1268.22 877.372 C 1265.29 883.275 1264.44 880.482 1266.24 887.867 C 1265.23 888.005 1264.71 887.555 1263.48 887.081 L 1262.69 884.413 C 1263.27 880.116 1263.48 879.662 1266.38 876.436 z" fill="rgb(243,240,231)" transform="translate(0,0)"></path>
<path d="M 1223.42 892.916 C 1228.63 897.378 1236.15 904.706 1242.85 906.612 C 1247.13 907.828 1255.99 906.134 1258.09 910.29 C 1255.34 912.12 1255.48 912.007 1252.14 912.244 L 1249.08 913.214 L 1249.54 913.969 L 1248.72 915.342 C 1234.95 918.39 1230.15 902.808 1223.42 892.916 z" fill="rgb(0,0,1)" transform="translate(0,0)"></path>
<path d="M 1249.08 913.214 C 1244.42 913.08 1243.72 912.977 1239.32 911.475 L 1238.95 910.624 C 1243.33 909.559 1247.59 911.145 1252.14 912.244 L 1249.08 913.214 z" fill="rgb(143,138,105)" transform="translate(0,0)"></path>
<path d="M 1084.81 975.423 C 1106.03 977.443 1127.23 979.635 1148.41 981.999 C 1156.39 982.872 1175.9 984.564 1182.78 986.503 L 1176.79 993.151 C 1153.71 1026.75 1142.86 1041.32 1137.18 1083.47 C 1133.14 1074.55 1126.86 1059.87 1121.91 1051.51 C 1108.47 1050.34 1100.99 1046.4 1091.3 1045.02 C 1089.05 1041.73 1087.01 1038.39 1084.91 1035.01 C 1083.66 1023.65 1084.77 989.021 1084.81 975.423 z" fill="rgb(243,240,231)" transform="translate(0,0)"></path>
<path d="M 1084.81 975.423 C 1106.03 977.443 1127.23 979.635 1148.41 981.999 C 1156.39 982.872 1175.9 984.564 1182.78 986.503 L 1176.79 993.151 C 1156.86 988.987 1113.55 985.607 1091.53 983.058 C 1091.66 991.557 1092.86 1038.93 1091.3 1045.02 C 1089.05 1041.73 1087.01 1038.39 1084.91 1035.01 C 1083.66 1023.65 1084.77 989.021 1084.81 975.423 z" fill="rgb(245,158,11)" transform="translate(0,0)"></path>
<path d="M 1249.48 1677.23 C 1257.52 1713.08 1264.4 1749.52 1273.68 1785.09 C 1276.36 1795.38 1280.24 1811.88 1283.64 1821.49 C 1272.13 1818.69 1246.5 1817.41 1234.31 1816.81 C 1234.92 1807.77 1236.34 1798.83 1237.48 1789.86 C 1242.24 1752.47 1248.12 1714.95 1249.48 1677.23 z" fill="rgb(243,240,231)" transform="translate(0,0)"></path>
<path d="M 697.115 1662.33 C 704.027 1617.6 710.272 1571.06 718.273 1526.77 C 719.015 1538.88 720.914 1552.88 722.07 1565.31 L 731.116 1659.12 C 719.532 1659.97 708.611 1660.7 697.115 1662.33 z" fill="rgb(243,240,231)" transform="translate(0,0)"></path>
<path d="M 1309.25 950.558 C 1308.56 944.989 1306.89 936.245 1309.34 931.259 C 1310.15 932.415 1311.07 934.012 1312.12 934.943 C 1314.35 936.923 1350.43 930.908 1356.25 930.481 C 1356.74 930.986 1357.23 931.492 1357.71 931.998 C 1358.84 944.903 1356.96 964.339 1358.61 976.607 C 1342.58 967.153 1326.1 958.461 1309.25 950.558 z" fill="rgb(243,240,231)" transform="translate(0,0)"></path>
<path d="M 826.639 1005.29 C 832.048 1000.86 836.39 997.647 840.713 992.073 C 842.245 1000.2 842.862 1016.63 843.628 1025.69 C 846.022 1054.03 849.019 1078.38 846.686 1106.81 C 844.607 1111.81 844.125 1120.5 844.198 1125.93 L 843.36 1121.64 L 842.069 1120.98 L 841.761 1121.12 C 840.454 1117.38 838.966 1101.76 838.472 1096.88 C 835.396 1066.54 829.205 1035.52 826.639 1005.29 z" fill="rgb(245,158,11)" transform="translate(0,0)"></path>
<path d="M 645.88 614.498 C 623.324 625.192 612.446 636.57 604.251 661.243 C 602.349 666.971 602.253 673.774 600.592 678.381 L 599.308 677.297 C 597.346 671.176 595.868 663.361 596.164 656.944 C 596.754 644.598 602.239 632.997 611.404 624.704 C 621.112 615.998 633.221 613.872 645.88 614.498 z" fill="rgb(245,158,11)" transform="translate(0,0)"></path>
<path d="M 1311.32 880.63 C 1314.63 878.12 1315.96 876.482 1320 876.615 C 1330.77 881.812 1323.17 898.653 1317.43 905.482 L 1316.43 902.243 C 1319.42 892.762 1321.88 885.572 1311.32 880.63 z" fill="rgb(111,90,31)" transform="translate(0,0)"></path>
<path d="M 841.761 1121.12 L 842.069 1120.98 L 843.36 1121.64 L 844.198 1125.93 C 844.125 1120.5 844.607 1111.81 846.686 1106.81 L 846.91 1188.57 C 846.904 1198.45 847.403 1221.4 846.249 1230.12 C 845.497 1218.8 848.176 1148.84 844.087 1143.13 C 842.769 1136.85 842.226 1127.68 841.761 1121.12 z" fill="rgb(228,207,103)" transform="translate(0,0)"></path>
<path d="M 837.761 1164.9 C 840.51 1173.4 831.047 1281.07 829.677 1297.59 L 812.75 1509 L 805.143 1597.45 C 803.183 1618.69 800.155 1644.02 799.477 1665.06 C 798.789 1665.33 798.098 1665.6 797.404 1665.85 C 784.373 1670.68 755.792 1676.78 742.378 1671.78 C 734.847 1666.82 733.033 1630.88 733.121 1623.14 C 733.509 1589.16 719.125 1530.91 723.177 1499.87 C 733.494 1420.85 753.652 1343.85 760.502 1264.21 C 760.983 1258.63 763.665 1239.83 762.272 1235.29 L 760.329 1234.64 C 757.544 1238.7 756.792 1248.93 756.234 1254.09 C 746.038 1348.45 725.383 1440.89 711.567 1534.76 C 710.472 1538.67 709.843 1543.81 709.139 1547.86 C 700.02 1600.38 693.815 1653.19 684.864 1705.74 C 676.335 1709.1 669.087 1714.8 658.477 1717.72 C 643.931 1721.72 631.864 1721.34 618.514 1714.15 C 614.026 1672.66 612.941 1631.78 609.522 1590.51 C 603.311 1515.56 601.792 1443.63 602.102 1368.49 C 604.71 1374.24 612.102 1389.91 618.441 1391.57 L 619.893 1390.46 C 619.942 1386.89 603.48 1361.33 601.894 1351.55 C 593.865 1302.01 587.875 1247.09 592.038 1197.21 C 597.747 1203.67 604.023 1212.88 609.599 1220 C 621.298 1234.91 633.36 1249.55 645.772 1263.88 C 640.277 1277.45 634.855 1290.91 628.847 1304.27 C 627.422 1307.43 626.823 1309.94 628.095 1312.96 L 630.099 1313.05 C 636.177 1308.33 662.43 1237.01 666.794 1225.15 C 716.035 1225.35 794.707 1189.6 837.761 1164.9 z" fill="rgb(13,150,104)" transform="translate(0,0)"></path>
<path d="M 792.612 1228.59 C 793.849 1229.45 794.295 1230.14 795.336 1231.3 C 796.024 1239.27 768.231 1297.11 762.78 1307.61 C 759.642 1305.69 760.263 1306.71 759.261 1303.81 C 762.525 1293.84 770.269 1278.11 774.746 1268.01 C 779.496 1257.29 786.867 1237.99 792.612 1228.59 z" fill="rgb(0,0,1)" transform="translate(0,0)"></path>
<path d="M 1131.89 1388.79 C 1149.05 1398.81 1170.77 1407.98 1190.35 1411.02 C 1246.31 1419.73 1305.08 1415.49 1360.06 1403.82 C 1357.87 1443.17 1354.67 1480.69 1349.07 1519.72 C 1345.99 1541.17 1343.67 1562.67 1338.86 1583.89 C 1335.42 1598.87 1331.3 1613.7 1326.49 1628.3 C 1322.98 1639.1 1317.12 1655.54 1315.06 1666.39 L 1314.81 1667.77 C 1325.89 1651.61 1336.1 1619.29 1341.22 1600.38 C 1343.48 1613.32 1348.02 1627.3 1351.19 1640.24 C 1357.14 1663.58 1360.15 1687.57 1360.16 1711.66 C 1360.14 1730.17 1359.23 1748.66 1357.44 1767.08 C 1356.22 1779.74 1346.3 1849.87 1347.68 1856.19 C 1353.49 1852.93 1351.79 1849.18 1355.08 1845.3 C 1358.47 1844.95 1356.9 1844.66 1359.96 1846.17 C 1361.65 1849.69 1361.4 1847.88 1360.64 1851.79 C 1357.53 1856.07 1353.11 1856.9 1348.03 1857.9 C 1334.18 1863.55 1314.99 1857.22 1300.32 1854.61 C 1295.97 1844.76 1288.35 1814.92 1285.39 1803.63 C 1271.29 1749.95 1257.24 1694.24 1248 1639.61 C 1255.57 1655.67 1266.39 1681.79 1276.88 1694.93 C 1272.97 1678.86 1253.42 1638.87 1246 1621.55 C 1231.05 1586.75 1218.14 1551.11 1207.33 1514.82 C 1198.94 1486.83 1195.53 1456.68 1190.93 1427.88 C 1190.16 1423.05 1190.17 1412.7 1185.28 1410.99 C 1181.1 1414.76 1184.13 1423.41 1184.94 1428.86 L 1190.59 1466.45 C 1199.68 1523.08 1219.08 1571.56 1240.16 1624.03 C 1247.28 1641.77 1243.96 1677.96 1242.28 1697.37 C 1240.06 1723.81 1237.08 1750.18 1233.34 1776.45 C 1231.61 1788.53 1230.27 1804.52 1227.85 1816.11 L 1227.62 1817.17 C 1212.41 1819.55 1197.43 1817.13 1183.03 1812.43 C 1176.48 1810.29 1172.53 1808.86 1165.57 1809.75 C 1160.16 1740.83 1157.55 1669.64 1149.41 1601.07 C 1140.71 1527.77 1130.19 1463.34 1131.89 1388.79 z" fill="rgb(13,150,104)" transform="translate(0,0)"></path>
<path d="M 1340.33 1536.67 L 1341.5 1538.25 C 1342.77 1557.12 1315.28 1618.24 1303.74 1634.45 L 1302.17 1632.53 C 1304.97 1622.63 1317 1597.58 1321.21 1585.99 C 1324.48 1576.98 1336.81 1542.59 1340.33 1536.67 z" fill="rgb(0,0,1)" transform="translate(0,0)"></path>
<path d="M 521.689 992.094 C 536.248 956.076 558.311 903.349 579.435 870.52 C 587.6 857.83 638.161 819.381 651.951 811.307 C 651.205 821.512 649.542 833.639 649.278 843.438 C 648.543 870.743 653.468 897.439 661.434 923.422 C 630.876 937.863 632.194 987.518 665.57 998.43 C 667.93 999.197 670.328 999.842 672.754 1000.36 C 717.359 990.151 712.937 926.207 668.14 922.802 C 656.852 883.875 652.6 856.93 657.642 816.99 C 669.767 831.96 678.614 849.171 691.369 863.876 C 703.13 877.435 712.583 894.907 722.33 910.047 C 730.038 922.022 738.455 934.519 744.933 947.091 L 745.241 947.702 C 741.316 957.737 745.363 979.271 745.203 991.506 C 741.823 992.694 739.381 993.059 737.393 995.886 C 736.586 1004.16 735.821 1051.47 738.658 1056.89 C 745.61 1061.86 771.689 1062.81 776.072 1056.33 C 779.461 1051.33 777.963 1022.87 777.071 1016.08 C 781.481 1016.43 786.589 1017.46 790.284 1015.6 C 792.528 1012.15 792.334 1010.33 790.422 1006.66 C 787.511 1005.97 784.805 1008.94 779.919 1008.54 C 771.107 1000.48 786.34 993.227 759.097 992.623 C 757.812 978.797 757.986 964.291 756.964 950.799 C 755.317 929.057 777.078 937.881 782.391 933.588 L 782.149 930.891 C 768.325 928.338 764.14 930.906 751.306 935.786 C 763.369 925.405 769.194 920.4 783.866 930.027 L 785.543 930.231 C 786.218 927.595 785.747 928.052 784.167 924.825 C 780.523 921.962 775.151 921.191 774.16 917.11 C 764.874 878.86 761.253 846.184 744.928 809.768 C 756.151 821.426 770.133 836.031 779.368 848.994 C 804.779 884.665 824.267 936.249 822.338 980.364 C 821.951 989.207 820.819 1007.07 821.534 1015.06 C 825.647 1060.98 837.23 1111.29 838.312 1157.22 C 798.655 1182.46 710.577 1220.86 664.342 1218.98 L 659.183 1207.72 C 678.333 1170.39 693.017 1131.31 710.521 1093.24 C 713.032 1087.78 714.42 1082.48 715.637 1076.63 L 714.53 1074.74 C 706.593 1082.82 678.614 1152.61 671.68 1167.68 C 667.249 1177.31 660.724 1191.19 655.446 1201.47 C 652.423 1193.58 649.099 1185.33 646.445 1177.34 C 652.07 1164.86 698.431 1079.57 699.014 1071.48 L 698.166 1069.99 C 695.873 1070.52 694.119 1071.31 692.904 1073.54 C 675.579 1105.4 660.221 1138.87 642.574 1170.49 C 633.162 1146.35 617.489 1104.42 604.638 1083.33 C 606.684 1077.91 613.379 1050.79 616.275 1050.44 C 624.041 1049.5 627.07 1040.41 627.924 1032.79 C 630.9 1006.22 617.99 903.64 604.984 885.597 L 603.39 885.986 C 600.7 892.348 606.915 906.29 608.05 913.495 C 613.995 951.244 624.233 991.523 622.542 1029.86 C 577.163 1021.8 561.774 1013.94 521.689 992.094 z" fill="rgb(13,150,104)" transform="translate(0,0)"></path>
<path d="M 787.845 1018.48 C 793.771 1022.93 788.319 1056.94 797.891 1060.31 C 801.869 1059.09 803.275 1057.52 806.474 1054.88 L 807.471 1056.64 C 804.688 1060.9 802.091 1063.67 796.778 1063.89 C 785.18 1059.26 785.421 1028.73 787.845 1018.48 z" fill="rgb(0,0,1)" transform="translate(0,0)"></path>
<path d="M 787.193 933.505 C 792.452 936.176 796.893 945.146 796.958 950.95 L 794.634 949.975 C 790.778 944.652 788.581 939.921 787.193 933.505 z" fill="rgb(0,0,1)" transform="translate(0,0)"></path>
<path d="M 1182.32 1174.57 C 1192.43 1181.13 1204.74 1190.99 1214.91 1198.18 C 1250.28 1223.21 1279.14 1241.08 1319.81 1255.86 L 1320.7 1255.49 C 1336.29 1248.87 1343.68 1235.75 1349.72 1220.8 C 1368.92 1270.71 1387.52 1335.27 1401.27 1386.65 C 1384.61 1392.94 1354.76 1399.24 1336.76 1402.42 C 1283.19 1410.37 1192.37 1417.19 1145.13 1388.29 C 1146.22 1369.88 1152.34 1337.97 1155.75 1319.39 C 1159.69 1297.9 1165.11 1270.22 1170.74 1249.13 C 1178.6 1251.49 1218.34 1265.28 1223.33 1261.53 C 1224.27 1255.56 1187.97 1186.06 1182.32 1174.57 z" fill="rgb(13,150,104)" transform="translate(0,0)"></path>
<path d="M 1349.68 1272.89 C 1351.66 1274.01 1352.5 1274.47 1352.88 1277.1 C 1358.28 1314.22 1390.96 1361.28 1335.99 1376.26 C 1320.07 1380.59 1307.87 1380.83 1292.96 1372.99 C 1285.06 1366.39 1280.74 1357.81 1277.46 1348.22 C 1275.12 1341.4 1262.17 1288.79 1269.05 1288.22 C 1295.17 1286.07 1326.18 1285.65 1349.68 1272.89 z" fill="rgb(0,0,1)" transform="translate(0,0)"></path>
<path d="M 1351.54 1297.66 C 1355.64 1310.38 1359.99 1327.89 1361.47 1340.88 C 1364.39 1366.4 1328.34 1375.1 1309.22 1372.4 C 1300.81 1371.21 1297.09 1368.9 1291.21 1363.17 C 1281.45 1349.59 1278.94 1328.52 1275.75 1311.96 C 1303.28 1323.36 1331.58 1321.65 1351.54 1297.66 z" fill="rgb(13,150,104)" transform="translate(0,0)"></path>
<path d="M 1345.26 1283.04 C 1347.28 1282.77 1346.26 1282.76 1348.34 1283.66 L 1350.48 1290.97 C 1330.92 1311.65 1310.78 1317.51 1283.09 1308.63 L 1274.49 1304.79 L 1272.17 1293.84 C 1293.36 1294.24 1325.08 1289.79 1345.26 1283.04 z" fill="rgb(13,150,104)" transform="translate(0,0)"></path>
<path d="M 1338.63 971.629 C 1362.58 982.501 1389.88 1004.66 1402.89 1027.27 C 1431.27 1076.58 1396.6 1161.57 1382.23 1213.73 C 1373.38 1211.76 1361.89 1209.31 1353.76 1205.77 L 1348.55 1213.47 C 1338.32 1205.81 1328.24 1197.93 1318.34 1189.84 C 1306.06 1179.79 1295.94 1169.12 1282.03 1161.34 C 1283.61 1155.6 1287.06 1146.89 1289.16 1141.07 C 1290.57 1142.55 1291.99 1144.02 1293.43 1145.47 C 1301.17 1153.29 1345.54 1194.99 1352.41 1195.03 L 1353.15 1193.02 C 1351.68 1187.61 1321.15 1162.69 1314.99 1157.31 C 1307.06 1150.61 1298.68 1142.49 1291.01 1135.34 C 1299.61 1109 1311.84 1079.16 1326.08 1055.41 C 1332.22 1045.16 1344.1 1030.57 1348.76 1021.67 L 1347.36 1019.26 L 1345.39 1019.04 C 1337.34 1023.79 1311.85 1066.23 1307.51 1076.59 C 1296.86 1102.06 1284 1132.56 1276.72 1159.37 C 1266.56 1155.27 1255.87 1151.34 1245.6 1147.48 C 1244.8 1132.2 1247.32 1104.46 1253.15 1090.59 C 1271.67 1046.53 1310.74 1008.3 1338.63 971.629 z" fill="rgb(13,150,104)" transform="translate(0,0)"></path>
<path d="M 985.502 1022.39 C 1007.86 1027.54 1029.89 1035.83 1052.36 1041 C 1074.46 1046.08 1096.21 1052.11 1118.52 1056.35 C 1137.96 1092.29 1152.77 1134.08 1173.34 1170.36 C 1177.61 1177.88 1215.67 1252.41 1215.97 1254.83 C 1213.47 1255.99 1211.76 1254.96 1208.53 1254.23 C 1166.14 1240.69 1115.55 1227.5 1072.21 1215.58 C 1065.56 1204.2 1049.86 1168.39 1045.65 1155.89 C 1063.31 1144.81 1053 1123.18 1043.44 1109.33 C 1039.81 1104.07 1024.83 1095.46 1018.5 1095.52 C 1017.47 1094.81 989.387 1030.27 985.502 1022.39 z" fill="rgb(245,158,11)" transform="translate(0,0)"></path>
<path d="M 535.501 1025.86 C 558.41 1038.28 582.813 1047.03 608.696 1050.3 C 606.097 1061.98 604.098 1072.68 597.748 1082.93 C 609.187 1101.42 614.349 1117.06 622.912 1136.81 C 635.336 1165.47 647.603 1196.93 661.671 1224.76 C 658.945 1232.12 656.066 1239.42 653.035 1246.66 L 648.187 1258.85 C 627.788 1236.92 606.403 1204.71 587.465 1180.83 C 575.64 1165.93 564.076 1145.63 553.589 1130.74 C 523.358 1087.82 527.879 1075.26 535.501 1025.86 z" fill="rgb(245,158,11)" transform="translate(0,0)"></path>
<path d="M 1139.43 1084.49 C 1145.49 1085.18 1151.93 1091.08 1155.95 1095.34 C 1184.73 1125.76 1222.12 1147.03 1261.62 1160.13 C 1284.35 1167.67 1295.39 1178.94 1312.9 1194.11 C 1322.66 1202.57 1333.15 1209.53 1344.04 1216.58 C 1341.03 1225.35 1338.3 1230.56 1333.21 1238.23 C 1329.64 1241.94 1325.72 1246.52 1320.37 1247.41 C 1298.39 1251.05 1211.08 1188.09 1191.31 1173.2 C 1185.59 1168.89 1179.43 1164.56 1175.05 1158.82 C 1167.74 1149.28 1140.98 1095.51 1139.43 1084.49 z" fill="rgb(144,84,8)" transform="translate(0,0)"></path>
<path d="M 698.566 639.265 C 719.737 645.348 735.745 651.636 741.102 674.643 C 741.51 676.148 744.246 692.356 743.506 690.513 C 746.376 691.427 745.23 690.633 747.108 692.913 C 747.377 697.941 750.179 705.075 751.727 710.083 C 756.741 726.307 757.964 744.052 746.42 757.882 C 740.081 765.438 730.941 770.09 721.101 770.767 C 711.651 771.486 701.836 768.723 693.434 764.242 C 685.597 760.063 678.244 748.877 670.559 745.53 C 669.281 744.789 667.763 744.277 666.367 743.726 C 658.768 741.925 655.913 747.576 649.035 735.27 C 644.705 727.524 638.873 718.139 649.418 712.077 C 656.297 711.126 662.372 717.788 668.407 722.26 L 669.774 721.677 L 670.089 719.493 C 668.074 715.747 665.364 714.156 661.958 711.542 C 665.912 704.605 673.728 695.725 678.395 688.396 C 688.913 671.878 692.92 657.589 698.566 639.265 z" fill="rgb(144,84,8)" transform="translate(0,0)"></path>
<path d="M 728.99 696.834 C 730.532 692.735 734.033 686.016 739.148 686.723 C 740.927 689.709 740.11 690.183 739.529 694.285 L 743.506 690.513 C 746.376 691.427 745.23 690.633 747.108 692.913 C 746.125 697.235 745.998 698.463 743.472 702.211 L 741.097 702.957 C 739.449 705.811 739.387 706.283 736.266 706.528 C 733.167 704.501 731.036 700.16 728.99 696.834 z" fill="rgb(0,0,1)" transform="translate(0,0)"></path>
<path d="M 743.506 690.513 C 746.376 691.427 745.23 690.633 747.108 692.913 C 746.125 697.235 745.998 698.463 743.472 702.211 L 741.097 702.957 L 737.27 704.415 L 735.944 703.789 C 738.969 699.296 738.694 699.632 739.529 694.285 L 743.506 690.513 z" fill="rgb(157,90,28)" transform="translate(0,0)"></path>
<path d="M 741.102 674.643 C 741.51 676.148 744.246 692.356 743.506 690.513 L 739.529 694.285 C 740.11 690.183 740.927 689.709 739.148 686.723 C 734.033 686.016 730.532 692.735 728.99 696.834 C 727.254 695.288 727.364 695.649 724.881 694.993 L 723.615 694.725 C 725.15 690.859 726.007 692.862 726.205 688.262 C 730.697 685.988 739.379 679.632 741.102 674.643 z" fill="rgb(112,70,11)" transform="translate(0,0)"></path>
<path d="M 723.615 694.725 L 724.881 694.993 C 724.966 706.555 741.06 718.478 731.943 726.874 C 727.535 728.271 724.155 727.794 719.981 725.766 C 721.921 725.499 733.409 724.766 731.404 720.942 C 726.637 711.846 721.566 705.721 723.615 694.725 z" fill="rgb(0,0,1)" transform="translate(0,0)"></path>
<path d="M 726.205 688.262 C 725.912 679.791 732.831 673.743 741.102 674.643 C 739.379 679.632 730.697 685.988 726.205 688.262 z" fill="rgb(0,0,1)" transform="translate(0,0)"></path>
<path d="M 698.976 712.035 C 699.749 706.622 701.475 704.373 706.299 701.799 C 709.661 702.328 708.407 701.7 710.876 704.601 C 710.318 706.662 710.31 706.687 709.251 708.54 C 710.643 709.832 711.165 709.968 712.869 710.848 C 713.116 713.476 712.504 714.199 710.278 715.896 C 708.969 717.241 709.482 716.76 707.499 717.419 C 703.222 716.475 702.326 716.411 698.914 713.745 L 698.976 712.035 z" fill="rgb(0,0,1)" transform="translate(0,0)"></path>
<path d="M 710.278 715.896 C 708.969 717.241 709.482 716.76 707.499 717.419 C 703.222 716.475 702.326 716.411 698.914 713.745 L 698.976 712.035 C 702.824 713.44 706.333 714.722 710.278 715.896 z" fill="rgb(157,90,28)" transform="translate(0,0)"></path>
<path d="M 701.258 691.051 C 705.344 690.957 706.512 690.548 709.273 692.592 C 707.111 695.697 700.408 698.634 697.434 700.954 C 695.41 702.534 692.624 705.628 690.821 707.576 C 689.233 708.931 688.703 709.148 686.94 710.194 L 686.139 709.507 C 687.67 701.661 694.622 694.974 701.258 691.051 z" fill="rgb(0,0,1)" transform="translate(0,0)"></path>
<path d="M 743.794 731.052 C 744.89 732.456 744.467 733.278 744.503 735.535 C 740.852 743.646 728.868 745.81 720.844 744.248 C 719.373 742.258 719.286 742.421 719.115 739.993 C 725.807 733.956 733.18 745.11 743.794 731.052 z" fill="rgb(0,0,1)" transform="translate(0,0)"></path>
<path d="M 729.643 740.198 L 732.169 739.895 L 732.16 741.032 L 728.007 744.005 C 725.138 743.386 725.099 743.39 722.492 742.065 C 723.967 740.568 727.335 740.503 729.643 740.198 z" fill="rgb(143,138,105)" transform="translate(0,0)"></path>
<path d="M 649.57 719.877 C 657.7 719.511 664.694 727.548 665.143 735.09 L 663.707 736.145 L 660.319 735.455 C 657.332 733.715 656.949 733.634 654.846 730.998 L 655.457 729.97 C 657.565 730.803 658.617 731.672 660.458 731.314 C 657.392 726.436 653.862 723.699 649.57 719.877 z" fill="rgb(0,0,1)" transform="translate(0,0)"></path>
<path d="M 671.58 612.247 C 679.971 610.74 692.626 612.436 701.075 613.989 C 719.053 617.293 725.392 623.336 735.387 638.102 C 738.583 642.823 745.468 657.119 744.27 662.76 L 742.731 663.485 C 735.001 649.991 711.821 630.943 695.615 634.538 C 692.961 639.647 688.949 658.072 683.781 669.403 C 675.542 687.465 667.729 693.586 660.12 707.988 L 659.498 709.184 C 651.753 706.983 648.021 706.357 641.215 711.08 C 639.984 713.809 638.801 717.449 637.771 720.33 C 638.198 722.171 638.686 723.997 639.235 725.805 C 643.006 738.407 648.959 744.453 660.241 750.474 L 662.199 759.885 C 631.238 753.076 615.854 726.38 608.118 696.845 C 603.85 680.553 609.204 656.756 618.575 642.727 C 631.515 623.354 649.546 616.665 671.58 612.247 z" fill="rgb(26,58,40)" transform="translate(0,0)"></path>
<path d="M 1333.69 966.886 C 1334.55 967.876 1334.26 967.682 1334.56 969.199 C 1325.43 978.857 1316.52 988.717 1307.82 998.771 C 1288.91 1020.46 1269.57 1046.79 1255.04 1071.7 C 1243.46 1091.55 1237.75 1122.03 1239.34 1145.17 C 1228.75 1140.78 1206.78 1129.68 1198.93 1121.61 C 1187.82 1110.17 1189.61 1084.6 1190.05 1069.33 C 1196.57 1034.85 1214.08 998.061 1233.72 969.125 C 1230.27 980.35 1220.43 1034.37 1223.65 1040.49 C 1226.92 1039.68 1326.56 973.215 1333.69 966.886 z" fill="rgb(13,150,104)" transform="translate(0,0)"></path>
<path d="M 584.459 580.162 C 608.733 578.978 626.591 587.949 638.862 609.407 C 625.882 612.348 617.607 614.201 607.586 623.589 C 593.05 636.973 588.407 656.73 595.447 675.214 C 596.748 678.631 600.185 687.028 599.813 690.224 C 524.566 703.748 513.837 595.178 584.459 580.162 z" fill="rgb(26,58,40)" transform="translate(0,0)"></path>
<path d="M 1176.24 1845.89 C 1182.12 1829.26 1140.73 1831.89 1160.23 1818.42 C 1167.76 1813.21 1189.06 1822.22 1197.78 1823.19 C 1210.66 1824.82 1218.67 1825.03 1230.8 1821.3 C 1236.56 1835.6 1237.3 1842.27 1239.49 1857.3 C 1221.43 1873.01 1210.85 1869.23 1190.8 1879.24 C 1179.14 1885.06 1169.24 1898.1 1156.7 1903.09 C 1139.1 1910.1 1116.82 1904.75 1100.1 1897.87 C 1115.26 1885.56 1128.51 1874.22 1140.14 1858.22 C 1144.59 1852.09 1159.55 1866.32 1163.87 1866.77 C 1164.2 1858.91 1147.9 1852.74 1147.3 1848.88 L 1148.4 1848.08 C 1155.72 1850.37 1164.07 1858.69 1169.42 1859.24 L 1171.77 1856.46 C 1168.62 1854.85 1153.47 1844.89 1151.89 1841.53 L 1153.1 1840.52 C 1161.51 1840.83 1170.07 1847.05 1171.92 1855.54 C 1173.83 1851.83 1174.02 1851.34 1174.29 1847.18 C 1165.43 1839.95 1163.53 1840.75 1154.73 1835.36 L 1154.43 1833.38 L 1156.05 1832.52 C 1162.5 1833.67 1171.33 1841.54 1176.24 1845.89 z" fill="rgb(13,150,104)" transform="translate(0,0)"></path>
<path d="M 1368.56 1853.5 C 1371.65 1867.38 1374.66 1881.28 1377.59 1895.19 C 1354.5 1909.41 1331.35 1909.01 1311.32 1929.63 C 1292.15 1949.37 1261.01 1949.59 1236.44 1940.05 C 1249.31 1926.55 1261.42 1913.32 1272.64 1898.4 C 1274.73 1895.61 1277.17 1892.49 1279.53 1889.97 C 1283.85 1891.43 1293.65 1894.29 1296.25 1898.08 C 1295.28 1899.75 1294.51 1900.94 1293.45 1902.52 C 1297.47 1903.57 1299 1901.18 1301.51 1898.23 C 1301.55 1895.06 1301.49 1895.99 1299.59 1892.85 C 1302.5 1893.52 1281.29 1884.17 1283.4 1885.29 L 1283.39 1884.26 C 1289.67 1884.01 1298.94 1886.13 1302.98 1891.13 L 1304.71 1892.78 L 1306.67 1892.37 C 1308.5 1885.22 1293.82 1879.4 1288.62 1877.15 C 1290.83 1876.01 1297.18 1877 1300.07 1877.28 C 1302.81 1879.75 1305.01 1882.37 1308.47 1882.98 L 1309.26 1881.67 C 1304.48 1872.77 1298.85 1873.24 1290.67 1871.57 C 1292.9 1868.04 1295.32 1863.95 1297.83 1860.67 C 1322.82 1865.67 1348.6 1874.68 1368.56 1853.5 z" fill="rgb(13,150,104)" transform="translate(0,0)"></path>
<path d="M 1125.24 1236.02 C 1138.15 1240.47 1151.83 1244.06 1165.01 1247.73 C 1155.71 1283 1148.95 1320.74 1143.1 1356.8 C 1142.32 1361.59 1140.31 1382.61 1138.03 1384.86 L 1136.56 1383.71 C 1120.41 1375.99 1104.91 1362.14 1092.04 1349.86 C 1094.97 1339.41 1100.09 1327.86 1103.17 1317.28 C 1110.74 1291.27 1120.05 1262.45 1125.24 1236.02 z" fill="rgb(13,150,104)" transform="translate(0,0)"></path>
<path d="M 741.366 1678 C 757.739 1682.52 794.45 1678.76 806.646 1666.14 C 814.196 1673.24 816.091 1675.82 820.678 1685.14 C 814.593 1687.59 802.033 1694.69 803.561 1702.19 C 810.336 1706.7 810.556 1692.2 821.34 1690.35 C 824.22 1691.54 824.322 1692.17 826.092 1694.96 L 825.729 1696.4 C 819.011 1698.13 812.234 1701.56 809.581 1708.41 C 810.15 1711.77 809.464 1710.53 812.603 1712.9 C 816.281 1707.54 822.797 1695.95 830.137 1702.76 L 829.746 1704.12 C 822.222 1708.04 820.325 1708.93 814.318 1714.76 L 816.305 1717.68 L 817.956 1717.59 C 822.271 1713.36 825.729 1709.66 831.931 1708.7 L 833.905 1709.38 L 834.203 1710.83 C 828.502 1714.38 825.416 1714.51 820.951 1719.33 L 822.27 1721.72 C 828.023 1725.92 837.514 1725.2 844.793 1725.35 L 844.26 1724.82 C 854.995 1737.59 858.236 1741.04 870.87 1752.3 C 832.842 1772.36 803.278 1743.3 774.074 1725.52 C 763.265 1718.95 748.111 1716.96 735.125 1709.09 C 735.791 1696.35 737.741 1690 741.366 1678 z" fill="rgb(13,150,104)" transform="translate(0,0)"></path>
<path d="M 803.161 1683.44 C 804.635 1683.57 804.908 1683.89 806.345 1684.5 C 806.983 1689.02 797.719 1695.88 793.574 1702.67 L 792.99 1703.64 C 791.892 1703.27 790.938 1702.64 789.895 1702.07 L 789.559 1700.12 C 791.806 1694.1 798.543 1688.08 803.161 1683.44 z" fill="rgb(0,0,1)" transform="translate(0,0)"></path>
<path d="M 682.458 1713.99 C 685.413 1714.81 692.629 1727.07 694.688 1730.31 C 688.785 1733.26 679.347 1739.35 676.773 1745.58 C 677.213 1750.48 679.075 1746.8 679.634 1749.71 C 683.757 1771.18 699.722 1777.63 720.419 1775.56 C 729.437 1786.47 734.264 1790.61 745.136 1798.98 C 725.619 1804.42 710.631 1804.61 691.346 1798.66 C 671.948 1790.57 661.503 1778.52 643.573 1768.23 C 631.991 1761.59 620.753 1760.74 609.36 1754.6 C 610.091 1744.72 614.129 1730.65 616.695 1720.65 C 639.618 1731.02 661.347 1726.03 682.458 1713.99 z" fill="rgb(13,150,104)" transform="translate(0,0)"></path>
<path d="M 675.845 1730.43 C 679.107 1731.14 678.048 1730.27 679.584 1732.51 C 678.633 1735.26 672.733 1741.07 670.131 1744.45 C 668.682 1745.24 669.354 1744.9 667.338 1744.84 C 665.354 1739.55 672.102 1733.36 675.845 1730.43 z" fill="rgb(0,0,1)" transform="translate(0,0)"></path>
<path d="M 666.367 743.726 C 667.763 744.277 669.281 744.789 670.559 745.53 C 675.74 756.735 685.863 767.182 697.871 771.203 C 706.413 774.064 716.391 775.024 725.611 775.449 C 726.025 776.031 726.439 776.612 726.852 777.194 L 727.045 778.932 L 729.5 799.549 C 738.365 809.045 741.223 820.187 741.144 833.039 C 741.088 842.003 736.504 854.739 725.252 852.581 C 708.622 849.392 692.995 833.471 682.903 820.708 C 677.42 813.535 673.831 798.902 671.518 790.461 C 669.493 782.93 663.211 749.628 666.367 743.726 z" fill="rgb(144,84,8)" transform="translate(0,0)"></path>
<path d="M 666.367 743.726 C 667.763 744.277 669.281 744.789 670.559 745.53 C 675.74 756.735 685.863 767.182 697.871 771.203 C 706.413 774.064 716.391 775.024 725.611 775.449 C 726.025 776.031 726.439 776.612 726.852 777.194 L 727.045 778.932 C 710.959 792.425 692.204 790.259 671.518 790.461 C 669.493 782.93 663.211 749.628 666.367 743.726 z" fill="rgb(112,70,11)" transform="translate(0,0)"></path>
<path d="M 1231.71 961.086 L 1232.52 961.617 C 1224.83 972.117 1217.21 982.702 1211.5 994.404 C 1191.6 1035.17 1173.86 1070.48 1188.21 1116.18 C 1181.2 1111.2 1176.03 1107.25 1169.73 1101.35 C 1163.3 1094.5 1155.31 1085.36 1147.96 1080 C 1150.94 1069.16 1154.91 1058.61 1159.81 1048.48 C 1171.03 1025.03 1187.5 1006.31 1203.59 986.166 C 1213.84 973.328 1215.46 966.842 1231.71 961.086 z" fill="rgb(13,150,104)" transform="translate(0,0)"></path>
<path d="M 680.146 826.528 C 682.66 827.998 686.461 832.57 688.862 835.205 C 700.144 847.587 736.039 874.432 743.661 844.955 C 744.625 841.226 745.694 837.072 746.689 833.237 C 752.426 852.444 760.033 894.252 761.254 914.245 L 761.843 922.097 C 755.445 927.242 753.052 929.721 748.591 936.537 C 724.445 899.463 700.899 865.76 680.146 826.528 z" fill="rgb(13,150,104)" transform="translate(0,0)"></path>
<path d="M 672.286 928.313 C 703.124 931.378 710.292 989.72 670.798 994.3 C 644.513 986.986 637.264 959.748 652.235 938.466 C 658.279 929.874 663.517 930.46 672.286 928.313 z" fill="rgb(243,240,231)" transform="translate(0,0)"></path>
<path d="M 666.603 930.784 C 679.382 930.714 687.134 935.26 692.532 947.112 C 696.32 955.258 696.673 964.585 693.512 972.994 C 690.321 981.256 685.711 985.619 677.841 989.221 C 643.41 990.616 636.908 943.93 666.603 930.784 z" fill="rgb(0,0,1)" transform="translate(0,0)"></path>
<path d="M 665.981 936.058 C 674.616 934.773 680.985 937.475 685.906 944.953 C 690.064 951.41 691.558 959.226 690.076 966.762 C 688.534 974.342 684.671 979.759 678.375 983.99 C 649.912 985.106 644.382 949.613 665.981 936.058 z" fill="rgb(13,150,104)" transform="translate(0,0)"></path>
<path d="M 779.566 825.812 C 803.299 842.949 838.512 915.841 851.433 942.873 C 847.884 950.061 845.474 953.916 841.155 960.551 C 837.646 964.685 832.822 969.497 829.019 973.504 C 829.196 936.037 814.365 889.801 797.767 856.159 C 793.769 848.057 784.624 833.959 779.566 825.812 z" fill="rgb(13,150,104)" transform="translate(0,0)"></path>
<path d="M 756.416 997.405 C 758.82 997.29 761.225 997.201 763.631 997.137 C 767.598 997.053 769.514 996.833 772.173 999.387 C 773.29 1008.36 773.446 1045.02 771.801 1053.23 C 768.419 1055.45 760.037 1055.09 755.745 1055.13 C 750.628 1054.89 746.815 1054.36 741.738 1053.63 C 741.338 1046.65 740.638 1003.86 742.463 999.335 C 746.533 997.267 751.671 997.592 756.416 997.405 z" fill="rgb(243,240,231)" transform="translate(0,0)"></path>
<path d="M 519.742 996.805 C 554.412 1015.37 579.555 1030.47 620.815 1033.42 L 617.993 1044.31 C 581.769 1043.08 544.642 1025.91 515.523 1005.03 C 516.912 1002.28 518.318 999.539 519.742 996.805 z" fill="rgb(13,150,104)" transform="translate(0,0)"></path>
<path d="M 1024.87 1009.16 C 1048.92 1011.43 1071.64 1021.51 1083.27 1043.95 L 1070.76 1040.9 C 1049.72 1035.66 1028.87 1029.68 1008.25 1022.98 C 1014.34 1015.47 1015.97 1012.78 1024.87 1009.16 z" fill="rgb(13,150,104)" transform="translate(0,0)"></path>
<path d="M 1377.11 1901.16 L 1378.03 1902.97 C 1377.58 1913.09 1367.38 1917.53 1359.05 1918.83 C 1331.99 1923.04 1319.25 1942.41 1297.65 1953.66 C 1284.86 1960.31 1252.91 1957.3 1239.1 1951.2 L 1236.52 1948.15 L 1236.65 1946.67 L 1243.6 1948.12 C 1268.97 1953.29 1292.6 1953.67 1311.2 1935.36 C 1316.05 1930.58 1330.68 1919.95 1336.35 1917.32 C 1351.8 1910.16 1362.09 1911.07 1377.11 1901.16 z" fill="rgb(243,240,231)" transform="translate(0,0)"></path>
<path d="M 1239.81 1862.91 C 1247.78 1873.09 1228.33 1882.54 1220.46 1883.08 C 1193.11 1884.97 1179.87 1905.41 1156.83 1915.24 C 1140.21 1922.33 1115.94 1916.49 1100.37 1909.27 C 1099.28 1906.33 1099.29 1906.47 1099.35 1903.34 C 1101.69 1902.69 1113.72 1908.15 1119.35 1909.45 C 1125.01 1910.78 1130.79 1911.47 1136.6 1911.5 C 1165.72 1911.39 1173.57 1892.72 1195.39 1882.05 C 1210.85 1874.49 1224.63 1878.22 1239.81 1862.91 z" fill="rgb(243,240,231)" transform="translate(0,0)"></path>
<path d="M 606.533 1759.95 C 617.284 1765.46 629.428 1767.26 639.954 1772.78 C 653.225 1779.73 664.392 1790.42 677.404 1798.08 C 701.248 1812.12 722.181 1810.44 747.78 1803.5 L 749.572 1805.47 C 725.788 1820.27 680.238 1813.39 660.13 1794.54 C 648.637 1783.7 638.633 1778.58 623.457 1774.53 C 614.883 1772.25 606.01 1770.05 606.533 1759.95 z" fill="rgb(243,240,231)" transform="translate(0,0)"></path>
<path d="M 734.786 1714.99 C 747.21 1723.81 761.839 1724.43 774.089 1731.2 C 793.854 1742.13 804.201 1756.15 827.534 1761.96 C 846.553 1766.7 854.665 1762.06 872.319 1757.81 L 873.026 1760.08 C 863.546 1766.11 854.54 1767.66 844.389 1768.84 C 813.123 1772.7 794.44 1751.94 770.953 1736.28 C 760.882 1729.56 735.206 1732.3 734.786 1714.99 z" fill="rgb(243,240,231)" transform="translate(0,0)"></path>
<path d="M 1010.55 1107.47 C 1016.95 1108.52 1022.75 1110.8 1030.09 1112.05 C 1033.44 1113.29 1034.56 1112.91 1036.96 1115.71 L 1038.41 1115.98 C 1041.22 1118.46 1042.4 1133.11 1042.81 1137.32 C 1043.43 1143.83 1046.24 1151.21 1038.45 1153.66 C 1029.89 1153.03 1021.15 1139.21 1020.8 1131.28 L 1021.39 1129.28 C 1019.21 1125.64 1018.65 1122.41 1017.58 1118.3 C 1021.4 1120.64 1024.2 1122.71 1028.67 1123.38 C 1028.66 1121.12 1015.85 1113.91 1011.33 1108.43 L 1010.55 1107.47 z" fill="rgb(112,70,11)" transform="translate(0,0)"></path>
<path d="M 1021.39 1129.28 C 1024.54 1131.41 1031.72 1135.69 1033.43 1138.36 L 1032.97 1138.72 L 1030.5 1137.41 L 1032.95 1137.93 L 1032.41 1137.49 C 1029.16 1138.27 1023.54 1133.41 1020.8 1131.28 L 1021.39 1129.28 z" fill="rgb(26,58,40)" transform="translate(0,0)"></path>
<path d="M 852.755 948.801 C 854.429 950.443 857.345 956.883 858.562 959.326 C 850.904 974.398 842.742 982.599 831.22 994.38 L 829.874 995.466 L 828.591 995.257 C 827.61 990.828 828.704 983.002 829.143 978.15 C 840.221 967.878 846.543 962.748 852.755 948.801 z" fill="rgb(13,150,104)" transform="translate(0,0)"></path>
<path d="M 1143.29 1072.13 C 1153.72 1031.04 1176.72 996.525 1208.77 968.832 C 1184.35 1005.34 1155.53 1025.88 1144.6 1073.54 L 1143.29 1072.13 z" fill="rgb(13,150,104)" transform="translate(0,0)"></path>
<path d="M 754.344 808.751 C 767.317 813.416 780.188 835.524 786.578 847.356 C 783.013 845.46 756.284 812.953 754.344 808.751 z" fill="rgb(13,150,104)" transform="translate(0,0)"></path>
<path d="M 1030.09 1112.05 C 1025.2 1104.03 1014.86 1106.57 1014.33 1101.31 C 1020.28 1096.6 1033.44 1105.11 1037.56 1110.02 C 1038.97 1111.71 1038.46 1113.92 1038.41 1115.98 L 1036.96 1115.71 C 1034.56 1112.91 1033.44 1113.29 1030.09 1112.05 z" fill="rgb(111,90,31)" transform="translate(0,0)"></path>
<path d="M 751.965 959.575 C 752.886 960.421 752.984 960.882 753.646 962.018 C 753.921 968.948 755.152 987.285 752.493 992.942 C 751.729 992.274 750.285 991.044 750.276 989.957 C 750.215 981.962 747.803 966.198 751.965 959.575 z" fill="rgb(13,150,104)" transform="translate(0,0)"></path>
<path d="M 706.546 1755.02 C 707.662 1755.26 708.424 1755.89 709.493 1756.52 L 709.47 1758.05 C 705.44 1761.11 697.64 1764.05 692.727 1766.15 C 690.874 1766.21 691.533 1766.27 689.759 1765.69 C 691.77 1759.37 700.747 1756.49 706.546 1755.02 z" fill="rgb(13,150,104)" transform="translate(0,0)"></path>
<path d="M 702.777 1747.21 C 704.402 1748 704.102 1748.05 705.422 1749.51 C 704.635 1752.26 694.347 1753.28 688.047 1757.44 L 687.079 1758.08 L 685.584 1758.5 C 685.44 1749.71 695.863 1748.17 702.777 1747.21 z" fill="rgb(13,150,104)" transform="translate(0,0)"></path>
<path d="M 696.569 1735.98 C 698.602 1737.83 700.182 1738.79 700.814 1741.41 C 698.414 1743.54 692.085 1744.29 686.607 1747.2 L 685.449 1747.83 L 683.773 1748.81 L 682.633 1748.19 C 683.345 1744.06 693.191 1738.15 696.569 1735.98 z" fill="rgb(13,150,104)" transform="translate(0,0)"></path>
<path d="M 1043.23 1113.84 C 1048.19 1120.61 1051.5 1141.13 1049.84 1149.54 L 1048.88 1149.6 C 1047.05 1148.19 1044.03 1118.64 1043.23 1113.84 z" fill="rgb(111,90,31)" transform="translate(0,0)"></path>
<path d="M 661.592 804.354 C 666.214 806.945 671.681 823.113 673.072 828.625 C 666.618 820.878 659.446 814.996 661.592 804.354 z" fill="rgb(13,150,104)" transform="translate(0,0)"></path>
<path d="M 1113.62 1254.49 C 1114.94 1255.36 1114.49 1255.08 1115.41 1256.52 C 1115.11 1261.8 1113.24 1265.63 1111.28 1270.54 C 1107.6 1263.11 1105.91 1258.83 1113.62 1254.49 z" fill="rgb(243,240,231)" transform="translate(0,0)"></path>
<path d="M 710.412 1763.83 C 713.887 1763.62 716.012 1765.4 716.035 1768.82 C 713.428 1770.91 712.761 1770.17 708.736 1770.12 C 705.627 1769.71 705.37 1769.64 702.406 1768.6 C 703.105 1766.74 708.033 1764.99 710.412 1763.83 z" fill="rgb(13,150,104)" transform="translate(0,0)"></path>
<path d="M 835.999 1714.74 C 837.978 1715.7 839.529 1717.35 840.352 1719.39 L 839.552 1720.57 L 835.354 1720.35 C 832.266 1720.71 831.72 1720.93 828.785 1720.17 C 830.076 1717.62 833.139 1716.48 835.999 1714.74 z" fill="rgb(13,150,104)" transform="translate(0,0)"></path>
<path d="M 1143.29 1072.13 L 1144.6 1073.54 C 1144.52 1075.96 1144.33 1080.74 1142.86 1082.56 C 1141.61 1079.28 1142.68 1075.76 1143.29 1072.13 z" fill="rgb(26,58,40)" transform="translate(0,0)"></path>
<path d="M 101.984 1101.48 C 97.8227 1098.86 90.6727 1095.38 88.1371 1091.1 C 81.8629 1080.5 123.444 991.174 130.082 978.703 C 139.59 960.838 150.256 941.887 163.318 926.346 C 169.431 919.131 175.788 912.126 182.375 905.341 C 186.422 901.229 210.997 878.982 211.549 876.659 C 208.338 875.978 205.722 878.509 202.367 878.311 C 175.259 876.711 153.735 852.733 153.079 826.025 C 152.422 799.279 172.856 778.753 181.217 754.618 C 185.575 742.037 186.5 727.984 191.964 716.193 C 195.205 709.169 199.595 702.736 204.953 697.158 C 229.605 671.603 284.85 667.84 310.201 692.418 C 319.953 694.305 326.777 695.709 335.206 701.39 C 344.712 707.701 351.279 717.571 353.428 728.776 C 356.265 743.85 350.304 758.963 341.939 771.276 C 342.311 795.583 343.586 821.159 325.715 840.305 C 315.595 843.913 312.821 844.157 301.999 843.78 C 311.587 862.242 326.915 860.262 344.231 868.561 C 365.927 878.96 381.748 889.801 393.584 911.11 C 414.771 949.253 431.313 990.064 446.856 1030.8 C 436.528 1047.8 432.113 1052.57 418.117 1066.1 C 424.512 1106.65 429.196 1147.76 427.714 1188.84 C 426.756 1215.39 424.622 1241.64 422.357 1268.11 L 409.093 1414.45 L 380.258 1769.64 C 388.374 1775.87 389.9 1777.44 394.684 1786.44 C 435.904 1793.24 497.609 1810.04 523.203 1845.91 C 546.102 1877.99 522.504 1907.9 493.524 1925.29 C 411.747 1974.56 299.931 1975.3 208.36 1959.34 C 172.178 1953.03 118.294 1933.77 98.466 1901.92 C 64.8448 1847.92 126.53 1807.6 170.38 1793.13 C 171.578 1780.29 169.912 1746.04 169.713 1731.7 C 169.432 1691.64 169.39 1651.57 169.589 1611.5 C 169.822 1591.25 170.683 1571 172.169 1550.8 C 173.006 1540.67 176.692 1513.15 175.592 1504.69 C 166.056 1431.36 164.895 1355.17 170.861 1281.15 C 147.956 1249.71 126.314 1219.87 106.343 1186.2 C 93.3455 1164.29 94.0467 1151.78 97.5195 1126.58 C 98.6637 1118.28 99.8626 1109.65 101.984 1101.48 z" fill="rgb(0,0,1)" transform="translate(0,0)"></path>
<path d="M 309.764 1773.23 C 309.797 1777.51 306.342 1781.47 305.439 1786.18 C 303.396 1796.82 303.413 1807.24 303.612 1818.03 C 304.34 1823.74 301.964 1833.56 306.149 1838 C 315.431 1847.84 332.157 1848.61 343.913 1853.75 C 367.824 1864.25 379.967 1885.81 408.195 1886.47 C 421.162 1886.78 480.245 1882.42 452.652 1858.44 C 433.001 1841.36 425.463 1837.75 411.386 1814.38 C 412.436 1812.78 411.959 1813.27 413.547 1812.25 C 411.759 1809.97 409.974 1809.7 407.207 1808.73 C 406.583 1806.7 407.039 1804.62 407.238 1804.84 C 402.557 1799.65 397.727 1792.09 394.684 1786.44 C 435.904 1793.24 497.609 1810.04 523.203 1845.91 C 546.102 1877.99 522.504 1907.9 493.524 1925.29 C 411.747 1974.56 299.931 1975.3 208.36 1959.34 C 172.178 1953.03 118.294 1933.77 98.466 1901.92 C 64.8448 1847.92 126.53 1807.6 170.38 1793.13 C 170.113 1804.11 171.425 1817.42 170.678 1827.71 C 169.676 1841.5 156.026 1866.41 164.444 1880.22 C 171.408 1891.64 190.388 1893.64 201.808 1899.26 C 221.403 1909.05 229.016 1927.43 251.577 1932.88 C 263.334 1935.72 305.097 1937.1 310.906 1920.27 C 312.936 1914.38 298.031 1900.94 293.57 1894.86 C 277.467 1872.9 262.764 1845.06 254.884 1819.01 C 252.593 1810.88 255.967 1786.68 257.109 1778.08 C 269.611 1776.48 300.583 1775.11 309.764 1773.23 z" fill="rgb(245,158,11)" transform="translate(0,0)"></path>
<path d="M 257.109 1778.08 C 264.719 1730.94 274.61 1683.79 282.752 1636.72 C 284.776 1625.02 287.076 1611.73 290.323 1600.4 C 290.972 1615.75 291.692 1631.36 293.367 1646.63 C 297.685 1686.03 300.682 1725.71 306.364 1764.92 C 306.744 1767.54 308.476 1770.91 309.764 1773.23 C 300.583 1775.11 269.611 1776.48 257.109 1778.08 z" fill="rgb(243,240,231)" transform="translate(0,0)"></path>
<path d="M 415.735 1245.92 C 415.862 1246.02 416.016 1246.1 416.116 1246.23 C 418.401 1249.19 414.733 1286.7 414.262 1293.02 C 411.393 1331.49 407.192 1369.91 403.979 1408.37 L 375.611 1768.63 C 361.008 1775.94 331.426 1786.85 317.779 1775.3 C 309.939 1768.67 306.901 1724.05 305.72 1713.15 C 302.126 1680.94 299.157 1648.67 296.812 1616.35 C 296.167 1607.01 293.946 1586.6 294.68 1578.17 C 295.709 1566.33 299.335 1548.54 301.606 1536.66 C 305.988 1513.51 310.624 1490.41 315.513 1467.36 C 319.03 1450.37 322.724 1433.29 325.797 1416.16 C 332.554 1378.52 356.473 1345.42 374.244 1312.15 C 376.089 1308.7 377.452 1305.69 374.4 1302.88 C 369.41 1304.78 337.423 1367.65 332.928 1376.87 C 334.428 1369.15 341.525 1317.47 336.715 1313.86 C 333.633 1319.93 332.469 1330.96 331.793 1337.86 C 325.458 1402.59 309.487 1464.86 297.247 1528.63 C 283.659 1598.01 272.011 1668.14 258.746 1737.61 C 253.571 1764.71 247.295 1792.28 248.562 1819.9 C 226.53 1831.73 197.109 1842.24 176.326 1822.56 C 174.806 1747.05 174.761 1671.52 176.191 1596 C 176.86 1569.33 179.942 1542.48 180.34 1516.27 C 184.331 1525.86 193.967 1545.75 200.769 1553.31 C 203.346 1552.71 204.715 1550.81 203.403 1548.17 C 194.039 1529.28 181.73 1511.22 179.046 1489.81 C 170.572 1422.21 172.395 1353.37 174.173 1285.39 C 191.617 1310.91 200.034 1320.08 224.673 1339.94 C 217.689 1353.62 213.497 1366.8 207.038 1380.56 C 204.66 1385.63 202.552 1390.86 204.569 1396.43 L 206.102 1396.86 C 209.212 1393.95 240.241 1318.49 244.014 1308.42 C 303.874 1295.64 361.667 1274.61 415.735 1245.92 z" fill="rgb(13,150,104)" transform="translate(0,0)"></path>
<path d="M 230.776 869.947 C 232.112 872.195 229.974 893.31 229.74 897.614 C 229.205 906.991 229.124 916.389 229.496 925.775 C 230.588 958.211 234.508 980.423 243.712 1010.95 C 239.4 1012.66 234.704 1014.62 231.127 1017.57 C 223.542 1023.75 218.764 1032.72 217.874 1042.46 C 215.523 1070.4 248.014 1090.69 271.044 1069.62 C 277.987 1063.33 282.044 1054.46 282.266 1045.09 C 282.842 1025.95 270.655 1011.15 251.065 1010.77 C 238.428 981.742 233.323 915.009 235.408 882.902 C 253.001 924.724 279.168 954.384 299.111 992.854 C 304.738 1003.92 309.662 1015.34 313.854 1027.02 C 317.237 1036.7 323.393 1064.05 333.896 1066.94 C 336.131 1065.72 338.152 1064.19 338.91 1061.57 C 353.58 1010.77 349.009 927.699 332.121 878.943 C 370.215 914.428 396.468 960.995 396.039 1014.33 C 395.808 1043.01 390.58 1066.61 394.383 1096.81 C 400.453 1145.01 411.545 1190.45 417.148 1239.03 C 359.077 1268.7 305.718 1288.92 241.484 1302.48 C 238.366 1296.01 236.484 1291.39 233.996 1284.64 C 247.914 1252.24 268.717 1215.17 284.456 1182.28 C 286.761 1177.47 297.986 1156.71 294.338 1152.56 C 292.382 1153.5 290.495 1154.89 289.524 1156.9 C 270.025 1197.12 249.22 1237.01 231.773 1278.14 C 228.342 1270.85 224.887 1262.38 221.646 1254.91 C 231.077 1237.18 265.554 1173.45 269.491 1156.9 L 269.232 1157.36 L 268.392 1154.77 C 260.58 1158.97 252.844 1180.8 248.67 1189.15 C 238.813 1208.86 229.795 1229.14 219.158 1248.46 C 213.922 1238.96 191.773 1189.25 192.29 1179.8 C 192.853 1169.51 195.848 1142.62 196.253 1129.1 L 203.313 1124.69 C 218.248 1080.9 200.529 1010.16 184.166 968.423 C 181.784 962.348 175.734 946.164 168.999 945.248 C 167.159 949.314 171.694 955.032 173.608 958.989 C 194.642 1002.49 204.942 1057.52 202.563 1105.35 C 172.645 1103.98 147.084 1096.36 119.681 1084.24 C 114.641 1082.01 104.335 1076.78 98.9744 1078.18 L 98.9598 1079.76 C 107.422 1088.26 158.559 1103.9 171.856 1107.07 C 177.792 1108.49 196.82 1108.71 200.397 1111.76 C 200.652 1115.65 200.334 1116.34 199.101 1120.07 C 187.866 1129.14 107.114 1101.67 94.9612 1088.9 C 90.2626 1083.96 107.475 1046.14 110.002 1038.7 C 135.575 963.426 171.643 920.437 230.776 869.947 z" fill="rgb(13,150,104)" transform="translate(0,0)"></path>
<path d="M 343.647 1073.43 C 347.4 1072.97 352.136 1072.51 355.341 1074.52 C 356.581 1080.56 355.84 1134.79 355.807 1143.75 C 347.597 1144.79 339.364 1145.65 331.113 1146.31 C 327.919 1146.98 324.264 1147.3 321.193 1146.19 C 318.221 1140.5 319.939 1084.4 319.998 1075.03 C 327.638 1074.3 335.939 1073.93 343.647 1073.43 z" fill="rgb(0,0,1)" transform="translate(0,0)"></path>
<path d="M 346.614 1077.46 C 347.03 1077.37 349.189 1077.52 349.701 1077.54 C 351.959 1081.47 350.537 1130.31 350.866 1139.51 L 328.76 1141.2 L 325.903 1140.54 C 323.597 1135.16 324.549 1088.36 324.589 1078.94 C 331.444 1078.81 339.674 1077.98 346.614 1077.46 z" fill="rgb(243,240,231)" transform="translate(0,0)"></path>
<path d="M 347.984 982.544 C 356.892 983.443 366.632 997.903 372.564 1005.09 C 372.301 1000.36 372.129 996.643 372.231 991.885 L 372.408 992.433 L 374.321 989.21 L 372.875 988.852 L 373.447 987.863 C 377.43 991.536 378.208 1004.02 378.922 1009.77 C 379.717 1014.2 381.36 1021.56 379.556 1025.61 L 377.706 1025.73 C 374.156 1022.35 374.732 1017.44 371.627 1012.98 C 366.524 1005.65 349.54 990.031 347.984 982.544 z" fill="rgb(0,0,1)" transform="translate(0,0)"></path>
<path d="M 182.224 866.94 C 179.704 865.27 176.433 862.85 174.242 860.75 C 164.319 851.111 158.703 837.876 158.667 824.043 C 158.725 801.654 175.201 781.26 183.762 761.065 C 192.346 740.823 193.032 714.596 209.915 698.73 C 232.683 677.331 275.73 675.706 301.739 691.837 C 306.732 694.934 306.579 696.268 312.239 696.268 C 337.548 701.111 353.506 721.965 347.593 747.43 C 346.005 754.271 343.607 760.755 341.278 767.359 C 341.131 746.076 339.673 727.935 324.051 711.859 C 321.348 709.077 317.784 706.844 314.791 703.784 C 314.144 706.62 314.3 711.238 313.775 714.378 C 310.13 741.595 289.145 752.847 266.34 762.878 C 261.074 765.194 253.446 768.536 248.997 772.27 C 247.581 771.224 246.15 770.196 244.707 769.187 C 224.648 755.232 222.132 774.547 226.648 790.046 C 229.346 799.305 235.689 803.632 244.094 807.525 C 244.194 822.784 244.884 838.108 244.963 853.6 L 234.395 860.244 C 228.881 848.047 227.111 842.266 224.246 828.83 C 222.93 822.655 223.364 807.603 222.436 806.124 L 221.175 806.562 C 215.135 820.96 223.793 848.995 229.671 862.923 L 222.939 868.401 C 202.999 839.204 210.996 815.094 212.424 782.939 C 210.307 789.744 208.671 796.689 207.526 803.723 C 203.307 829.377 202.79 849.487 218.446 871.34 L 217.628 872.754 C 214.68 874.703 214.347 875.236 211.028 875.052 C 203.642 872.023 201.328 860.847 198.742 853.956 C 189.642 829.705 195.859 805.149 202.244 781.167 C 182.906 814.074 186.657 844.533 203.384 876.917 C 191.606 870.394 185.137 864.102 180.475 851.081 C 169.167 819.499 179.732 794.496 192.639 766.318 C 166.32 793.183 164.263 834.906 182.224 866.94 z" fill="rgb(13,150,104)" transform="translate(0,0)"></path>
<path d="M 107.116 1103.67 C 134.017 1115.39 150.086 1119.54 178.392 1127.27 C 178.068 1137.73 175.503 1149.8 173.603 1160.25 C 183.379 1178.18 189.762 1196.75 197.735 1215.24 C 211.125 1246.3 223.914 1278.15 237.731 1308.96 C 235.115 1313.52 232.551 1320.12 230.447 1325.11 L 227.032 1334.32 C 187.624 1306.36 157.364 1248.5 128.739 1210.19 C 99.2124 1170.67 97.1226 1152.06 107.116 1103.67 z" fill="rgb(245,158,11)" transform="translate(0,0)"></path>
<path d="M 319.632 713.405 C 328.151 723.886 332.784 737.944 335.927 750.919 C 329.393 750.881 322.432 750.408 317.015 754.48 C 315.105 757.834 315.479 756.282 315.407 760.247 L 316.41 761.582 C 323.146 762.386 326.163 753.446 335.906 759.285 C 337.606 762.136 337.718 763.568 335.789 766.52 C 334.227 765.485 332.631 764.57 330.985 763.679 C 327.885 764.779 327.618 767.006 327.665 770.189 L 328.808 771.659 C 331.499 771.883 332.89 771.933 335.589 771.846 C 338.772 776.051 337.2 797.665 336.378 803.167 C 332.99 825.84 325.359 843.577 298.411 837.767 C 285.731 835.033 272.691 829.926 263.367 820.169 C 260.136 816.634 254.62 808.536 251.634 805.634 C 248.483 802.571 245.504 804.328 239.7 798.913 C 235.41 796.809 234.428 795.021 231.861 791.249 C 229.542 783.923 228.795 775.291 234.793 769.445 C 242.542 768.448 245.841 780.479 246.736 786.481 C 245.279 782.302 241.884 778.005 237.063 779.587 L 236.552 780.94 C 239.512 783.322 241.859 784.838 243.878 788.048 L 243.284 789.186 C 241.181 787.84 240.615 787.482 238.248 786.424 L 235.971 787.946 C 236.831 791.753 239.387 792.61 241.746 796.004 C 251.716 791.673 251.812 786.057 250.251 776.527 C 257.767 773.05 273.769 765.258 280.984 763.356 C 282.782 766.068 279.887 767.724 283.799 768.476 C 286.996 769.09 291.477 768.702 294.564 768.04 L 295.652 766.511 C 293.565 761.52 289.982 762.291 284.902 761.735 C 304.473 745.405 314.515 743.983 319.632 713.405 z" fill="rgb(245,158,11)" transform="translate(0,0)"></path>
<path d="M 311.816 768.325 C 318.757 769.639 330.494 785.155 330.644 792.507 C 330.724 796.468 328.577 798.029 326.02 800.547 C 323.211 799.027 323.941 800.113 323.135 797.674 L 326.683 793.794 C 328.188 785.972 315.118 784.372 311.816 768.325 z" fill="rgb(0,0,1)" transform="translate(0,0)"></path>
<path d="M 284.238 772.534 L 285.503 772.97 C 289.354 774.335 289.665 774.735 291.159 777.86 C 291.103 781.401 289.864 783.315 288.363 786.532 C 284.837 784.557 283.819 783.974 282.198 780.499 C 281.829 776.614 282.356 776.183 284.238 772.534 z" fill="rgb(0,0,1)" transform="translate(0,0)"></path>
<path d="M 322.969 805.077 C 323.516 806.006 323.364 806.991 323.442 808.285 C 319.869 815.96 310.455 813.579 304.29 810.844 C 304.027 808.861 303.982 809.629 304.734 807.698 C 307.599 807.621 310.856 810.371 313.429 812.09 C 316.628 810.011 319.906 807.397 322.969 805.077 z" fill="rgb(0,0,1)" transform="translate(0,0)"></path>
<path d="M 240.504 863.852 C 241.692 865.366 242.622 872.513 245.269 875.329 C 263.597 894.826 282.554 913.851 301.188 933.078 C 303.832 936.031 314.848 945.196 318.849 943.983 C 325.36 942.009 322.351 913.906 322.129 908.979 C 321.43 893.459 317.561 878.656 313.821 863.945 C 314.961 864.927 316.081 865.932 317.18 866.959 C 334.846 883.552 339.087 946.31 339.934 970.75 C 340.268 1004.6 343.293 1026.76 333.238 1060.78 C 326.822 1048.46 315.712 1017.38 310.521 1002.55 C 301.704 977.37 227.379 883.554 240.504 863.852 z" fill="rgb(13,150,104)" transform="translate(0,0)"></path>
<path d="M 312.968 1780.71 C 314.768 1781.71 316.617 1782.62 318.508 1783.44 C 347.979 1796.17 367.34 1770.32 385.329 1778.21 C 390.336 1786.17 369.255 1791.17 367.719 1798.39 L 369.215 1798.82 C 374.451 1797.69 379.964 1794.57 384.23 1791.37 C 387.145 1789.19 386.74 1788.71 389.657 1790.76 C 389.858 1791.57 390.059 1792.38 390.26 1793.19 C 384.347 1798.1 376.12 1802.09 372.389 1808.77 L 373.081 1810.53 L 374.944 1811.15 C 382.857 1808.47 386.6 1797.72 395.189 1799.79 C 396.063 1806.8 382.675 1808.75 378.695 1817.53 C 379.614 1820.41 379.238 1819.46 382.536 1821.49 C 385.31 1817.16 394.484 1808.99 399.576 1808.66 L 400.779 1810.62 C 399.114 1812.58 386.731 1821.22 383.718 1823.49 C 386.254 1826.22 385.4 1826.18 388.338 1826.68 L 388.971 1826.44 C 394.349 1822.15 399.052 1817.13 405.888 1817.63 L 406.859 1818.8 C 405.174 1824.07 401.577 1825.27 396.734 1827.8 C 392.934 1827.74 390.119 1827.5 388.892 1831.55 C 390.168 1832.92 391.209 1833.11 393.023 1833.92 C 398.607 1833.41 403.442 1831.48 407.959 1828.18 C 408.819 1826.3 408.79 1826.02 410.201 1824.55 C 416.086 1829.88 422.64 1839.53 429.128 1846 C 433.267 1850.13 447.78 1861.11 449.145 1863.42 L 448.501 1864.83 C 445.222 1866.7 441.95 1867.28 438.342 1867.57 C 412.908 1869.56 393.966 1869.54 374.229 1851.46 C 368.543 1846.24 357.695 1838.9 350.649 1835.58 C 335.141 1828.29 324.374 1830.68 310.845 1819.57 C 306.462 1805.32 308.441 1794.74 312.968 1780.71 z" fill="rgb(13,150,104)" transform="translate(0,0)"></path>
<path d="M 175.802 1830.41 C 214.143 1855.42 240.425 1823.32 251.986 1828.65 C 251.822 1833.3 238.555 1844.49 234.6 1848.22 C 235.561 1852.45 236.133 1856.97 236.776 1861.27 C 241.623 1856.44 251.603 1847.41 257.56 1844.44 L 259.05 1845.63 C 258.133 1850.3 251.548 1852.37 248.197 1856.4 C 245.569 1859.57 244.245 1861.75 242.178 1865.21 C 246.467 1864.31 254.275 1853.5 261.653 1851.92 L 263.186 1853.11 C 261.767 1858.3 247.573 1864.77 246.319 1874.32 C 247.452 1877.38 246.46 1876.54 248.705 1877.63 C 249.896 1875.25 251.136 1872.89 252.422 1870.56 C 255.255 1865.51 258.661 1860.47 264.419 1858.88 C 267.445 1860.28 266.625 1860.3 268.474 1864.27 L 268.611 1866.51 C 274.77 1880.69 292.256 1902.76 302.088 1914.76 C 250.698 1926.41 247.246 1907.85 210.305 1882.74 C 197.998 1874.38 180.077 1874.37 168.306 1860.93 C 170.421 1849.43 172.397 1841.48 175.802 1830.41 z" fill="rgb(13,150,104)" transform="translate(0,0)"></path>
<path d="M 268.611 1866.51 C 265.777 1870.63 259.372 1880.94 254.485 1881.49 C 255.513 1876.13 264.349 1868.11 268.474 1864.27 L 268.611 1866.51 z" fill="rgb(26,58,40)" transform="translate(0,0)"></path>
<path d="M 248.972 809.775 C 262.947 827.916 272.455 837.247 295.895 842.9 C 299.356 864.961 310.047 876.518 314.994 896.367 C 316.814 903.669 319.173 932.805 315.376 938.565 C 305.729 930.653 292.345 916.512 283.101 907.114 C 272.861 896.703 254.719 879.691 246.619 868.509 C 252.715 855.075 249.816 825.442 248.972 809.775 z" fill="rgb(245,158,11)" transform="translate(0,0)"></path>
<path d="M 327.816 868.674 C 371.282 878.495 392.29 913.186 407.571 951.174 C 416.82 974.164 429.208 996.465 435.688 1020.59 C 430.062 1027.93 425.951 1033.47 419.376 1040.04 C 412.719 1046.11 407.019 1050.25 399.686 1055.35 C 402.886 1016.44 405.964 992.594 391.865 955.119 C 377.608 917.226 358.309 894.24 327.816 868.674 z" fill="rgb(13,150,104)" transform="translate(0,0)"></path>
<path d="M 245.244 1015.04 C 250.308 1014.87 256.961 1014.52 261.187 1017.23 C 286.459 1033.47 282.117 1063.03 254.993 1072.75 C 249.383 1073.24 246.32 1073.75 240.879 1071.87 C 233.77 1069.49 227.965 1064.27 224.841 1057.45 C 216.303 1039.03 228.471 1022.25 245.244 1015.04 z" fill="rgb(13,150,104)" transform="translate(0,0)"></path>
<path d="M 257.196 1028.74 C 258.272 1029.43 259.336 1030.15 260.386 1030.88 C 278.588 1043.52 265.748 1060.53 247.731 1062.3 C 238.03 1059.16 229.773 1051.3 236.15 1040.97 C 241.621 1032.11 247.878 1030.85 257.196 1028.74 z" fill="rgb(0,0,1)" transform="translate(0,0)"></path>
<path d="M 251.857 1032.98 C 255.079 1033.17 260.949 1035.4 262.343 1038.15 C 267.704 1048.7 258.371 1054.59 251.581 1058.19 C 235.98 1058.05 232.981 1039.21 251.857 1032.98 z" fill="rgb(243,240,231)" transform="translate(0,0)"></path>
<path d="M 248.258 1035.75 C 252.153 1035.5 252.983 1035.26 256.122 1037.46 C 255.666 1040.02 251.342 1039.52 247.577 1043.72 C 246.814 1047.2 246.508 1045.68 248.122 1048.49 L 249.942 1051.77 L 248.22 1052.41 C 240.247 1048.27 244.58 1041.07 248.258 1035.75 z" fill="rgb(0,0,1)" transform="translate(0,0)"></path>
<path d="M 399.988 1077.94 C 405.512 1075.29 408.533 1073.14 413.613 1069.65 C 418.551 1106.65 423.315 1151.44 421.923 1187.86 C 422.05 1197.96 422.022 1205.12 420.795 1215.33 C 420.076 1211.15 417.298 1196.64 417.27 1193.21 C 415.823 1188.52 412.886 1170.3 411.906 1164.71 C 407.109 1137.34 400.606 1105.58 399.988 1077.94 z" fill="rgb(245,158,11)" transform="translate(0,0)"></path>
<path d="M 417.27 1193.21 C 417.763 1193.31 419.256 1194.17 419.779 1194.45 L 418.648 1196.35 L 419.189 1197.45 L 420.789 1196.73 L 420.852 1194.81 L 419.987 1193.81 C 419.662 1190.93 420.298 1191.02 421.923 1187.86 C 422.05 1197.96 422.022 1205.12 420.795 1215.33 C 420.076 1211.15 417.298 1196.64 417.27 1193.21 z" fill="rgb(228,207,103)" transform="translate(0,0)"></path>
<path d="M 308.719 1826.71 C 324.016 1834.38 338.593 1836.24 353.736 1843.4 C 366.972 1849.66 377.127 1862.16 390.617 1868.54 C 408.844 1877.16 432.631 1876 451.179 1869.4 L 452.127 1869.05 L 453.098 1869.86 L 451.692 1872.64 C 438.442 1879.06 424.835 1880.02 410.673 1880.18 C 379.424 1880.54 369.756 1857.27 343.553 1846.99 C 333.813 1843.17 317.293 1841.34 309.685 1833.55 C 307.708 1831.53 308.428 1829.09 308.719 1826.71 z" fill="rgb(243,240,231)" transform="translate(0,0)"></path>
<path d="M 166.754 1867.83 C 179.575 1878.89 193.404 1880.31 207.771 1887.96 C 217.859 1893.34 227.888 1903.18 236.978 1910.55 C 251.487 1922.29 270.488 1926.93 288.776 1923.19 C 294.224 1922.12 298.5 1919.92 304.283 1919.29 L 304.48 1920.96 C 296.736 1926.8 285.278 1927.57 276.875 1928.33 C 242.315 1933.62 231.317 1911.32 206.314 1894.79 C 193.943 1886.61 167.653 1888.18 166.754 1867.83 z" fill="rgb(243,240,231)" transform="translate(0,0)"></path>
<path d="M 436.556 1022.89 C 438.217 1025.42 439.208 1029.43 440.131 1032.43 C 428.569 1048.87 418.234 1059.79 401.45 1070.83 L 400.2 1070.91 L 399.149 1069.6 C 399.047 1068.12 398.933 1064.73 399.809 1063.67 C 413.729 1046.81 427.911 1044.77 436.556 1022.89 z" fill="rgb(13,150,104)" transform="translate(0,0)"></path>
<path d="M 185.341 1127.53 L 188.861 1129.15 C 191.723 1133.63 189.392 1169.25 185.831 1172.45 L 179.554 1158.36 C 180.403 1149.43 183.293 1136.27 185.341 1127.53 z" fill="rgb(243,240,231)" transform="translate(0,0)"></path>
<path d="M 254.725 1834.89 L 256.425 1837.72 C 255.884 1842.58 244.611 1850 239.779 1854.26 L 238.798 1853.87 L 238.836 1852.07 C 243.326 1844.98 248.232 1840.08 254.725 1834.89 z" fill="rgb(13,150,104)" transform="translate(0,0)"></path>
<path d="M 505.636 143.681 C 516.326 154.587 529.571 166.755 539.382 177.808 C 522.122 192.007 494.548 224.465 477.96 241.875 C 492.483 260.374 505.819 296.977 508.467 320.465 C 514.888 377.436 503.997 422.733 469.116 468.011 C 435.346 511.873 385.432 540.402 330.499 547.237 C 276.195 554.144 223.254 543.028 179.58 509.152 C 34.3383 396.434 102.491 172.007 281.878 148.479 C 351.046 139.407 396.513 160.017 449.775 201.905 C 468.565 182.66 487.186 163.252 505.636 143.681 z" fill="rgb(245,158,11)" transform="translate(0,0)"></path>
<path d="M 505.636 143.681 C 516.326 154.587 529.571 166.755 539.382 177.808 C 522.122 192.007 494.548 224.465 477.96 241.875 C 439.947 279.954 404.51 320.895 367.206 359.483 C 333.399 394.455 300.303 432.054 265.95 466.07 C 227.919 426.085 190.369 385.646 153.306 344.761 C 163.786 332.831 176.643 319.494 187.63 307.93 C 213.202 333.835 241.246 366.504 266.69 393.698 C 271.715 387.117 284.377 374.332 290.535 367.737 C 308.588 348.136 327.014 328.881 345.803 309.984 C 380.461 274.678 415.249 237.613 449.775 201.905 C 468.565 182.66 487.186 163.252 505.636 143.681 z" fill="rgb(26,58,40)" transform="translate(0,0)"></path>
<path d="M 898.542 84.6461 C 966.682 83.7591 1039.06 85.8352 1107.9 86.0084 L 1429.66 86.2694 C 1433.26 86.3065 1441.63 86.0562 1444.17 87.7891 C 1447.86 93.2905 1446.76 128.399 1446.76 137.001 C 1446.77 162.854 1446.63 188.706 1446.37 214.557 L 1446.18 398.007 L 1445.84 1038.16 L 1446.42 1220.32 C 1446.37 1258.8 1445.12 1303.93 1446.54 1342.04 C 1436.17 1338.65 1425.72 1335.51 1415.21 1332.6 C 1408.84 1330.88 1395.49 1327.77 1389.93 1325.48 C 1388.05 1320.32 1386.03 1313.9 1384.6 1308.6 C 1375.74 1275.77 1363.05 1244.23 1352.57 1211.97 C 1361.09 1213.32 1376.9 1217.85 1386.27 1219.99 C 1400.07 1169.53 1425.66 1105.64 1418.12 1052.36 C 1413.16 1017.31 1385.78 995.614 1358.61 976.607 C 1356.96 964.339 1358.84 944.903 1357.71 931.998 C 1357.23 931.492 1356.74 930.986 1356.25 930.481 C 1371.05 929.778 1371.58 924.239 1383.02 917.502 C 1385.62 917.697 1387.84 917.862 1389.68 917.999 C 1402.73 903.998 1424.9 892.504 1423.43 869.988 C 1423.02 863.639 1423.73 862.949 1426.34 857.28 C 1425.09 851.054 1425.34 850.244 1420.82 845.663 C 1418.24 843.045 1414.71 836.461 1412.51 833.145 C 1411.6 829.69 1401.76 828.525 1400.63 826.452 C 1394.34 814.837 1394.28 810.622 1380.59 809.233 C 1380.16 809.189 1375.17 801.27 1368.2 798.529 C 1367.34 798.433 1360.62 794.48 1359.84 793.803 L 1357.25 789.279 C 1356.25 766.242 1356.92 738.825 1356.94 715.311 L 1357.33 570.201 L 1357.03 161.932 L 1003.42 157.52 L 903.537 156.773 C 889.316 156.716 864.627 157.347 851.28 156.224 L 882.107 109.082 C 886.723 102.084 893.531 91.0638 898.542 84.6461 z" fill="rgb(245,158,11)" transform="translate(0,0)"></path>
<path d="M 1083.99 410.89 C 1156.54 414.242 1228.15 420.263 1300.18 424.187 C 1300.07 473.437 1300.28 522.686 1300.82 571.932 C 1293.79 572.32 1277.42 570.944 1270.03 570.457 C 1249.64 569.175 1229.27 567.598 1208.93 565.726 C 1167.48 562.258 1126 559.227 1084.49 556.634 C 1083.25 509.291 1084.07 458.496 1083.99 410.89 z" fill="rgb(245,158,11)" transform="translate(0,0)"></path>
<path d="M 1091.03 419.041 C 1097.58 419.186 1104.58 419.813 1111.17 420.261 C 1171.48 424.361 1232.32 426.449 1292.53 431.333 C 1292.7 475.598 1292.61 519.864 1292.27 564.128 C 1283.29 563.939 1272.63 563.207 1263.68 562.35 C 1206.71 556.893 1148.28 554.994 1091.49 548.888 L 1091.03 419.041 z" fill="rgb(243,240,231)" transform="translate(0,0)"></path>
<path d="M 1266.02 452.865 C 1271.51 454.715 1274.07 455.938 1275.86 461.328 C 1272.25 471.441 1237.9 526.508 1229.32 539.637 C 1228.64 540.677 1226.95 540.397 1225.82 540.149 C 1222.49 535.8 1215.43 520.585 1212.07 514.234 C 1208.96 508.598 1192.73 485.666 1210.34 486.273 C 1216.99 489.776 1225.13 507.342 1229.26 514.832 C 1236.51 500.743 1255.56 462.833 1266.02 452.865 z" fill="rgb(245,158,11)" transform="translate(0,0)"></path>
<path d="M 1083.1 222.242 C 1110.45 221.957 1143.12 223.775 1170.59 224.773 L 1300.11 229.033 C 1299.46 278.317 1300.02 328.73 1300.04 378.099 C 1230.05 376.536 1154.66 369.409 1083.93 366.15 C 1084.51 318.693 1083.61 269.727 1083.1 222.242 z" fill="rgb(245,158,11)" transform="translate(0,0)"></path>
<path d="M 1090.92 230.917 C 1112.71 230.554 1135.05 232.039 1156.89 232.616 L 1292.67 237.035 L 1292.83 369.957 C 1229.03 369.394 1156.22 361.337 1091.31 358.701 L 1090.92 230.917 z" fill="rgb(243,240,231)" transform="translate(0,0)"></path>
<path d="M 1264.11 258.804 C 1270.49 258.704 1273.06 259.118 1275.54 265.135 C 1273.55 273.789 1237.82 339.067 1231.59 345.748 C 1230.06 346.219 1229.19 346.852 1228.04 346.245 C 1223.56 343.881 1216.68 328.403 1214.11 323.489 C 1209.86 315.93 1199.2 302.458 1204.21 294.597 C 1207.58 292.811 1207.91 292.965 1211.87 292.989 C 1217.28 294.935 1226.41 311.871 1230.84 318.234 C 1239.07 304.302 1255.77 268.652 1264.11 258.804 z" fill="rgb(245,158,11)" transform="translate(0,0)"></path>
<path d="M 1084.68 601.525 C 1154.47 604.874 1229.52 615.892 1300.15 620.442 L 1300.01 761.987 C 1282.78 762.302 1247.18 758.208 1228.86 756.532 L 1084.73 742.922 L 1084.68 601.525 z" fill="rgb(245,158,11)" transform="translate(0,0)"></path>
<path d="M 1091.96 609.811 C 1156.26 613.238 1228.15 621.752 1292.89 627.594 L 1292.09 754.503 C 1281.25 754.704 1244.81 749.997 1232.1 748.795 L 1091.98 735.814 L 1091.96 609.811 z" fill="rgb(243,240,231)" transform="translate(0,0)"></path>
<path d="M 905.849 216.847 C 949.692 217.393 994.244 219.807 1038.01 220.07 L 1037.83 239.079 C 1038.4 238.49 1038.98 237.911 1039.57 237.34 C 1043.3 233.7 1044.12 233.482 1048.54 233.54 C 1052.57 235.326 1054.17 237.861 1057.04 241.254 C 1050.86 250.879 1043.87 259.98 1037.01 269.139 C 1037.37 292.35 1037.61 315.562 1037.73 338.776 L 1037.77 365.23 L 956.963 361.524 C 947.285 361.141 914.66 360.438 907.555 358.505 C 903.853 346.367 905.913 235.808 905.849 216.847 z" fill="rgb(245,158,11)" transform="translate(0,0)"></path>
<path d="M 919.88 230.856 C 954.86 231.538 989.831 232.594 1024.79 234.023 L 1024.89 252.038 C 1009.96 273.358 991.033 294.555 977.165 316.089 C 967.944 305.907 952.774 286.996 943.205 278.627 C 937.129 282.463 935.566 283.735 930.383 288.762 C 936.824 303.011 955.676 322.322 965.88 335.635 C 968.698 339.786 970.098 342.991 974.874 344.125 C 984.542 342.149 1016.65 296.026 1024.58 285.212 C 1025.19 304.944 1025.48 331.21 1024.47 350.779 C 992.638 348.341 951.789 346.333 919.964 345.783 L 919.88 230.856 z" fill="rgb(243,240,231)" transform="translate(0,0)"></path>
<path d="M 906.367 402.928 C 920.569 404.562 940.503 404.741 955.465 405.504 L 1038.15 410.084 C 1038.17 457.718 1038.81 506.578 1038.05 554.075 C 995.146 550.968 948.99 546.325 906.366 544.474 C 905.79 500.338 905.021 446.861 906.367 402.928 z" fill="rgb(245,158,11)" transform="translate(0,0)"></path>
<path d="M 920.519 419.755 C 950.202 420.007 994.799 422.596 1024.09 426.141 C 1025.54 459.607 1024.19 503.03 1024.15 537.273 C 1018.68 537.171 1012.97 536.863 1007.52 536.392 C 978.733 533.908 949.108 533.294 920.462 529.861 C 919.532 518.929 919.958 499.978 919.963 488.656 C 919.842 465.688 920.027 442.719 920.519 419.755 z" fill="rgb(243,240,231)" transform="translate(0,0)"></path>
<path d="M 906.002 768.487 C 948.887 771.984 994.926 777.411 1038.01 781.721 C 1037.62 827.858 1038.95 876.746 1039.01 923.324 C 1027.61 923.213 1001.75 919.636 988.884 918.239 C 961.265 915.227 933.622 912.452 905.956 909.914 L 906.002 768.487 z" fill="rgb(245,158,11)" transform="translate(0,0)"></path>
<path d="M 920.21 784.914 C 932.108 784.959 946.828 786.727 958.969 787.885 C 980.956 789.943 1002.92 792.23 1024.86 794.745 C 1023.95 832.421 1025.23 870.62 1024.34 908.484 C 991.838 906.485 953.595 901.758 920.713 898.357 C 919.122 864.108 920.284 819.911 920.21 784.914 z" fill="rgb(243,240,231)" transform="translate(0,0)"></path>
<path d="M 906.271 1144.36 C 936.858 1147.59 967.353 1151.63 997.724 1156.49 C 1007.93 1158.07 1028.51 1160.74 1037.75 1163.35 C 1039.01 1208.73 1037.84 1257.23 1037.88 1302.98 C 1021.64 1299.84 1000.65 1297.57 983.808 1295.08 C 958.808 1291.39 930.803 1286.73 905.873 1284.77 L 905.929 1192.22 C 905.932 1177.69 905.415 1158.53 906.271 1144.36 z" fill="rgb(245,158,11)" transform="translate(0,0)"></path>
<path d="M 920.803 1159.66 C 930.743 1159.83 950.375 1162.82 960.955 1164.14 C 982.796 1166.72 1004.6 1169.56 1026.38 1172.67 L 1026.17 1287.65 C 995.551 1285.19 952.094 1278.15 920.76 1273.72 L 920.803 1159.66 z" fill="rgb(243,240,231)" transform="translate(0,0)"></path>
<path d="M 906.658 585.177 C 920.461 587.862 946.089 589.562 960.486 590.71 C 985.728 592.721 1012.44 595.055 1037.64 596.204 C 1037.28 642.669 1038.01 690.596 1038.38 737.134 C 1022.2 736.689 1000.3 734.089 984.084 732.376 C 958.208 729.395 932.281 726.884 906.314 724.844 C 906.028 693.457 905.918 662.069 905.986 630.681 C 905.983 621.002 905.37 593.598 906.658 585.177 z" fill="rgb(245,158,11)" transform="translate(0,0)"></path>
<path d="M 920.115 602.699 C 925.802 602.833 931.893 603.313 937.558 603.98 C 966.29 607.363 996.33 607.417 1024.92 611.17 C 1023.72 646.535 1024.9 684.076 1024.44 719.752 C 1023.31 720.74 1022.2 721.101 1020.7 720.993 C 987.273 718.578 953.793 713.739 920.326 711.881 L 920.115 602.699 z" fill="rgb(243,240,231)" transform="translate(0,0)"></path>
<metadata><recraft-signature>{"signed_by": "recraft", "signature_b64": "77xhjo3u+vDaMzccTrWSF9t6BrOfFkY+HjThL7hQZIRuartZ7WE+d+zlrFfs3UdOiO5jsqrM6+8jSgwBJYrRBA==", "signing_algo": "Ed25519", "generation_timestamp": 1780412123, "identifier": "03245004-5fc4-41e5-98cd-341b43daddb0"}</recraft-signature></metadata></svg>