<svg xmlns="http://www.w3.org/2000/svg" height="1024" preserveAspectRatio="none" style="display: block;" version="1.1" viewBox="0 0 2048 1365" width="1536">
<defs>
	<linearGradient gradientUnits="userSpaceOnUse" id="Gradient1" x1="1157.82" x2="1110.64" y1="833.938" y2="748.244">
		<stop class="stop0" offset="0" stop-color="rgb(8,0,0)" stop-opacity="1"></stop>
		<stop class="stop1" offset="1" stop-color="rgb(17,71,53)" stop-opacity="1"></stop>
	</linearGradient>
</defs>
<path d="M 0 0 L 2048 0 L 2048 1365 L 0 1365 L 0 0 z" fill="rgb(244,241,225)" transform="translate(0,0)"></path>
<path d="M 223.682 155.024 C 226.45 154.269 225.236 154.076 227.476 155.045 C 249.563 160.808 269.086 169.294 290.013 178.236 L 293.451 180.313 C 326.339 199.167 370.962 223.874 396.73 252.333 L 400.559 255.713 C 418.547 266.717 444.283 298.86 459.343 314.232 L 465.639 307.423 C 469.091 301.699 486.372 282.282 492.29 274.004 C 516.9 239.582 540.642 198.973 553.922 158.76 L 555.547 157.554 C 562.042 158.972 579.944 170.352 586.652 174.225 C 604.47 184.724 621.951 195.784 639.071 207.387 C 653.939 217.311 686.67 240.636 702.292 245.999 C 711.352 249.109 758.739 248.685 769.405 247.526 C 805.705 244.268 842.05 234.28 876.746 223.236 C 891.662 218.488 906.811 211.802 921.687 206.506 C 927.605 204.184 934.468 201.685 940.208 199.135 C 956.717 207.04 973.066 214.039 989.695 221.561 C 996.029 250.667 1001.32 285.655 1005.83 315.125 C 1008.64 333.554 1013.89 370.486 1014.26 388.988 C 1015.43 393.283 1017.82 420.74 1017.75 426.167 C 1013.95 432.045 1018.82 470.652 1018.31 482.22 C 1019.57 485.556 1019.04 489.413 1018.89 493.095 C 1022.08 665.09 991.336 819.509 912.965 973.397 C 907.974 983.198 880.404 1025.49 880.19 1032.95 C 901.158 1001.85 921.758 959.732 938.33 926.221 C 947.138 923.54 956.158 921.15 964.038 916.27 C 968.67 913.401 968.404 911.446 969.644 905.778 C 976.942 904.049 983.496 905.883 989.87 905.318 C 1009.63 903.235 1032.79 896.63 1047.15 882.448 C 1060.09 869.667 1045.66 860.759 1035.93 853.206 C 1061.48 852.397 1072.25 849.365 1095.21 838.438 C 1080.91 861.94 1073.63 886.165 1067.11 912.807 C 1065.48 919.498 1055.73 956.45 1057.15 960.485 C 1059.44 960.979 1059.96 960.943 1061.8 962.475 L 1061.83 964.926 C 1065.97 990.611 1106.06 1025.09 1106.8 1030.28 C 1111.54 1035.19 1126.92 1053.07 1131.44 1056.39 C 1135.3 1061.19 1147.09 1075.49 1147.81 1081.67 C 1151.41 1112.52 1143.68 1152.02 1141.91 1183.54 C 1141.54 1190.14 1138.73 1211.28 1137.62 1216.04 C 1141.71 1217.88 1147.74 1216.88 1150.05 1218.61 C 1148.67 1232.94 1141.97 1234.31 1145.65 1253.35 C 1149.92 1253.21 1154.2 1253 1158.46 1253.12 C 1173.78 1252.4 1192.52 1254.6 1207.72 1252.79 C 1210.33 1254.77 1276.18 1253.93 1284.26 1253.92 L 1527.47 1253.96 C 1538.2 1253.96 1610.53 1252.94 1615.02 1255.51 L 1614.89 1256.97 C 1612.74 1258.45 1610.7 1259.2 1608.06 1259.18 C 1583.35 1258.99 1558.28 1258.93 1533.6 1258.92 L 1371.02 1258.94 L 532.095 1258.91 L 283.509 1258.98 L 207.21 1258.99 C 196.314 1259 177.455 1259.59 167.233 1258.79 C 160.313 1259.01 127.495 1259.89 123.388 1257.94 L 122.833 1256.3 C 130.066 1252.31 155.959 1255.41 166.265 1253.62 C 154.147 1247.86 135.942 1233.94 127.449 1223.72 C 130.977 1218.95 132.293 1217.5 136.609 1213.41 L 137.261 1212.68 L 148.141 1198.12 L 140.545 1193.42 C 155.143 1171.11 181.768 1117.27 192.616 1093.07 C 186.357 1061.14 175.363 1006.53 177.842 975.059 C 178.484 966.91 189.203 937.189 191.186 922.448 C 193.476 905.426 195.941 877.964 201.095 862.926 C 195.509 859.794 188.262 851.174 187.954 844.39 C 187.497 834.318 191.486 829.854 197.741 822.632 C 190.259 811.994 176.587 798.15 168.915 787.484 C 151.806 763.701 118.68 708.247 111.41 680.714 L 109.647 678.011 C 103.817 660.417 96.3131 642.28 91.0802 624.287 C 86.6949 609.209 82.9972 593.305 79.2523 578.023 C 79.0343 576.82 79.4028 575.535 79.6167 574.255 C 132.772 564.142 179.41 564.121 232.912 573.382 C 206.741 508.236 185.2 425.295 186.178 354.614 L 185.955 351.433 C 184.113 329.214 189.312 272.798 194.505 251.413 L 195.373 247.322 C 199.924 221.031 210.43 178.143 223.682 155.024 z" fill="rgb(26,58,40)" transform="translate(0,0)"></path>
<path d="M 1035.93 853.206 C 1061.48 852.397 1072.25 849.365 1095.21 838.438 C 1080.91 861.94 1073.63 886.165 1067.11 912.807 C 1065.48 919.498 1055.73 956.45 1057.15 960.485 C 1059.44 960.979 1059.96 960.943 1061.8 962.475 L 1061.83 964.926 C 1065.97 990.611 1106.06 1025.09 1106.8 1030.28 C 1111.54 1035.19 1126.92 1053.07 1131.44 1056.39 C 1135.3 1061.19 1147.09 1075.49 1147.81 1081.67 C 1151.41 1112.52 1143.68 1152.02 1141.91 1183.54 C 1141.54 1190.14 1138.73 1211.28 1137.62 1216.04 C 1141.71 1217.88 1147.74 1216.88 1150.05 1218.61 C 1148.67 1232.94 1141.97 1234.31 1145.65 1253.35 C 1149.92 1253.21 1154.2 1253 1158.46 1253.12 C 1173.78 1252.4 1192.52 1254.6 1207.72 1252.79 C 1210.33 1254.77 1276.18 1253.93 1284.26 1253.92 L 1527.47 1253.96 C 1538.2 1253.96 1610.53 1252.94 1615.02 1255.51 L 1614.89 1256.97 C 1612.74 1258.45 1610.7 1259.2 1608.06 1259.18 C 1583.35 1258.99 1558.28 1258.93 1533.6 1258.92 L 1371.02 1258.94 L 532.095 1258.91 L 283.509 1258.98 L 207.21 1258.99 C 196.314 1259 177.455 1259.59 167.233 1258.79 C 169.501 1257.27 178.659 1258.07 181.938 1258.2 L 185.988 1251.96 L 185.969 1253.72 C 194.177 1254.8 226.6 1254.16 236.528 1254.16 C 257.911 1253.12 280.876 1254.5 302.462 1253.89 L 303.345 1252.82 C 319.462 1252.82 340.664 1253.45 356.372 1252.42 C 364.99 1230.56 327.471 1241.25 322.745 1211.97 C 324.017 1208.87 325.113 1209.73 329.325 1207.62 C 330.764 1204.29 327.776 1193.53 327.005 1189.5 L 320.618 1154.6 C 312.175 1106.57 302.497 1047.27 291.057 1000.31 C 302.511 1007.43 311.818 1011.17 324.28 1016.26 C 320.301 1026.13 316.204 1035.95 311.992 1045.72 C 321.43 1049.23 335.71 1056.38 345.388 1060.69 L 409.854 1088.95 C 414.065 1077.86 421.149 1062.82 425.983 1051.71 C 435.273 1029.75 445.001 1007.99 455.159 986.423 C 495.702 1002.43 554.128 1013.04 597.604 1012.93 C 602.169 1014.68 615.071 1023.65 620.02 1026.72 C 633.658 1035.2 647.513 1043.32 661.571 1051.08 C 698.809 1071.44 751.967 1093.27 792.066 1107.29 C 794.594 1107.95 796.495 1107.89 797.568 1109.66 L 795.23 1110.48 C 787.546 1109.88 776.712 1110.05 768.897 1109.99 C 749.091 1110.65 727.448 1110.14 707.452 1110.22 L 588.93 1110.7 L 543.57 1110.73 C 537.718 1110.72 523.62 1109.37 519.262 1112.49 L 519.246 1113.31 C 526.632 1115.29 591.497 1114.18 604.174 1114.14 L 801.14 1113.88 C 804.073 1113.92 809.237 1114.15 811.981 1113.9 C 823.952 1114.07 922.549 1114.96 925.93 1112.56 C 917.008 1109.32 839.111 1110.44 824.58 1110.38 C 839.847 1092.35 853.953 1073.37 866.813 1053.55 C 868.87 1051.41 878.454 1035.95 880.19 1032.95 C 901.158 1001.85 921.758 959.732 938.33 926.221 C 947.138 923.54 956.158 921.15 964.038 916.27 C 968.67 913.401 968.404 911.446 969.644 905.778 C 976.942 904.049 983.496 905.883 989.87 905.318 C 1009.63 903.235 1032.79 896.63 1047.15 882.448 C 1060.09 869.667 1045.66 860.759 1035.93 853.206 z" fill="rgb(244,241,225)" transform="translate(0,0)"></path>
<path d="M 1061.83 964.926 C 1065.97 990.611 1106.06 1025.09 1106.8 1030.28 C 1100.77 1047.08 1094.59 1065.38 1082.79 1078.99 C 1067.49 1096.64 1043.73 1113.93 1024.8 1127.98 C 997.461 1148.27 968.402 1170.22 940.238 1189.26 C 937.622 1189 937.416 1187.82 935.221 1185.37 C 931.029 1189.36 922.881 1194.87 921.308 1198.73 C 922.668 1212.23 939.98 1223.94 932.604 1236.22 C 919.126 1243.02 887.18 1199.69 880.619 1189.21 C 885.679 1186.2 896.234 1179.1 901.592 1179.3 C 906.617 1176.57 916.062 1171.98 916.655 1166.35 C 914.565 1165.06 909.848 1160.47 907.779 1158.55 C 918.717 1150.78 941.375 1132.44 951.351 1124.27 C 964.069 1113.87 1016.16 1077.25 1022.47 1067.62 C 1035.27 1048.1 1055.84 988.008 1061.83 964.926 z" fill="rgb(26,58,40)" transform="translate(0,0)"></path>
<path d="M 920.782 1170.86 C 924.531 1175.33 928.844 1181.1 933.773 1184.04 C 927.766 1188.99 914.074 1197.77 906.597 1198.96 L 904.415 1182.12 C 908.76 1178.07 915.612 1174.05 920.782 1170.86 z" fill="rgb(244,241,225)" transform="translate(0,0)"></path>
<path d="M 185.988 1251.96 L 185.969 1253.72 C 194.177 1254.8 226.6 1254.16 236.528 1254.16 C 257.911 1253.12 280.876 1254.5 302.462 1253.89 L 303.345 1252.82 C 319.462 1252.82 340.664 1253.45 356.372 1252.42 L 355.997 1253.97 C 398.459 1254.1 480.358 1254.33 525.995 1253.61 C 526.44 1253.19 526.884 1252.78 527.329 1252.36 L 529.01 1254.13 L 530.865 1253.9 C 549.454 1254.85 571.101 1254.22 589.957 1254.13 L 685.931 1253.86 L 981.303 1253.58 L 1090.18 1253.7 C 1102.12 1253.76 1130.75 1253.15 1141.76 1254.29 L 1145.65 1253.35 C 1149.92 1253.21 1154.2 1253 1158.46 1253.12 C 1173.78 1252.4 1192.52 1254.6 1207.72 1252.79 C 1210.33 1254.77 1276.18 1253.93 1284.26 1253.92 L 1527.47 1253.96 C 1538.2 1253.96 1610.53 1252.94 1615.02 1255.51 L 1614.89 1256.97 C 1612.74 1258.45 1610.7 1259.2 1608.06 1259.18 C 1583.35 1258.99 1558.28 1258.93 1533.6 1258.92 L 1371.02 1258.94 L 532.095 1258.91 L 283.509 1258.98 L 207.21 1258.99 C 196.314 1259 177.455 1259.59 167.233 1258.79 C 169.501 1257.27 178.659 1258.07 181.938 1258.2 L 185.988 1251.96 z" fill="rgb(83,104,74)" transform="translate(0,0)"></path>
<path d="M 303.345 1252.82 C 319.462 1252.82 340.664 1253.45 356.372 1252.42 L 355.997 1253.97 C 346.301 1255.25 322.255 1255.06 311.308 1254.96 C 287.434 1254.73 260.093 1255.56 236.528 1254.16 C 257.911 1253.12 280.876 1254.5 302.462 1253.89 L 303.345 1252.82 z" fill="rgb(150,152,123)" transform="translate(0,0)"></path>
<path d="M 1145.65 1253.35 C 1149.92 1253.21 1154.2 1253 1158.46 1253.12 C 1164.6 1254.01 1168.31 1254.28 1174.53 1254.49 C 1166.17 1255.98 1149.96 1256.19 1141.76 1254.29 L 1145.65 1253.35 z" fill="rgb(150,152,123)" transform="translate(0,0)"></path>
<path d="M 553.387 1183.42 L 558.959 1185.16 C 559.689 1189.82 560.388 1194.48 561.055 1199.15 C 565.645 1231.68 550.857 1221.59 531.589 1247.24 C 530.741 1234.01 530.837 1225.64 526.308 1212.89 C 536.255 1198.38 540.063 1195.07 553.387 1183.42 z" fill="rgb(244,241,225)" transform="translate(0,0)"></path>
<path d="M 509.261 1176.11 C 510.651 1175.21 510.722 1175.4 512.418 1174.99 C 518.419 1187.17 521.722 1195.08 525.872 1208.06 C 535.171 1195.05 538.269 1191.57 550.638 1181.39 L 553.387 1183.42 C 540.063 1195.07 536.255 1198.38 526.308 1212.89 C 530.837 1225.64 530.741 1234.01 531.589 1247.24 C 550.857 1221.59 565.645 1231.68 561.055 1199.15 C 560.388 1194.48 559.689 1189.82 558.959 1185.16 L 561.409 1184.06 C 564.921 1195.79 565.56 1207.62 563.977 1219.72 C 577.396 1211.89 585.168 1208 601.108 1205.54 L 601.581 1207.69 L 600.979 1208.24 C 574.109 1214.74 546.721 1230.94 530.865 1253.9 L 529.01 1254.13 L 527.329 1252.36 C 533.97 1234.09 517.784 1192.59 509.261 1176.11 z" fill="rgb(2,3,2)" transform="translate(0,0)"></path>
<path d="M 550.638 1181.39 C 548.284 1176.34 544.321 1168.78 546.759 1163.51 C 557.125 1141.11 582.115 1156.17 574.774 1176.44 C 573.027 1181.27 566.506 1183.95 561.409 1184.06 L 558.959 1185.16 L 553.387 1183.42 L 550.638 1181.39 z" fill="rgb(245,158,11)" transform="translate(0,0)"></path>
<path d="M 601.108 1205.54 C 603.496 1199.1 603.433 1195.35 611.537 1191.93 C 614.529 1190.7 617.892 1190.74 620.855 1192.04 C 628.099 1195.24 632.968 1207.72 628.382 1212.97 C 617.732 1225.16 606.869 1219.06 600.979 1208.24 L 601.581 1207.69 L 601.108 1205.54 z" fill="rgb(245,158,11)" transform="translate(0,0)"></path>
<path d="M 509.261 1176.11 C 503.831 1177.95 496.905 1173.64 493.96 1169.36 C 486.619 1158.68 500.451 1146.54 511.108 1149.41 C 518.036 1151.28 522.054 1159.92 520.352 1166.47 C 519.316 1170.45 515.783 1173.14 512.418 1174.99 C 510.722 1175.4 510.651 1175.21 509.261 1176.11 z" fill="rgb(245,158,11)" transform="translate(0,0)"></path>
<path d="M 223.682 155.024 C 226.45 154.269 225.236 154.076 227.476 155.045 C 249.563 160.808 269.086 169.294 290.013 178.236 L 293.451 180.313 C 326.339 199.167 370.962 223.874 396.73 252.333 L 400.559 255.713 C 418.547 266.717 444.283 298.86 459.343 314.232 C 403.309 369.907 355.634 401.255 281.852 429.27 C 276.55 431.283 245.93 441.596 245.54 444.856 C 245.421 445.848 245.787 447.246 245.947 448.245 C 256.675 540.128 287.695 625.913 330.558 707.235 C 333.666 713.132 338.247 720.665 340.722 726.644 C 311.201 706.57 277.52 689.922 247.28 671.246 C 245.916 660.257 243.028 596.861 239.051 592.723 L 237.655 593.024 C 236.067 597.488 242.086 660.322 243.25 669.044 L 192.675 639.742 C 185.205 635.421 169.335 626.714 163.381 621.745 C 161.508 610.332 157.472 573.204 150.659 567.586 C 149.908 571.306 158.556 614.224 159.889 620.471 C 142.743 611.199 126.418 600.643 109.661 590.751 C 101.146 585.724 88.595 577.582 79.6167 574.255 C 132.772 564.142 179.41 564.121 232.912 573.382 C 206.741 508.236 185.2 425.295 186.178 354.614 L 185.955 351.433 C 184.113 329.214 189.312 272.798 194.505 251.413 L 195.373 247.322 C 199.924 221.031 210.43 178.143 223.682 155.024 z" fill="rgb(245,158,11)" transform="translate(0,0)"></path>
<path d="M 223.682 155.024 C 226.45 154.269 225.236 154.076 227.476 155.045 C 249.563 160.808 269.086 169.294 290.013 178.236 L 293.451 180.313 C 326.339 199.167 370.962 223.874 396.73 252.333 L 400.559 255.713 C 395.855 261.092 392.168 267.19 388.354 273.211 C 374.915 294.429 360.618 315.079 346.85 336.081 C 340.734 345.411 335.363 355.484 327.975 363.896 C 333.01 374.562 340.307 389.056 344.201 400.018 C 330.807 395.692 316.066 392.411 302.349 388.628 L 228.16 367.441 C 219.005 364.797 193.972 358.059 186.178 354.614 L 185.955 351.433 C 184.113 329.214 189.312 272.798 194.505 251.413 L 195.373 247.322 C 199.924 221.031 210.43 178.143 223.682 155.024 z" fill="rgb(245,158,11)" transform="translate(0,0)"></path>
<path d="M 293.451 180.313 C 326.339 199.167 370.962 223.874 396.73 252.333 C 373.71 289.053 350.066 325.378 325.806 361.29 L 267.546 241.754 C 273.336 228.484 287.543 189.45 293.451 180.313 z" fill="rgb(245,158,11)" transform="translate(0,0)"></path>
<path d="M 223.682 155.024 C 225.824 161.491 229.328 168.707 232.334 174.919 C 249.097 209.554 264.563 244.78 281.722 279.217 C 283.309 282.403 284.805 286.332 286.132 289.671 C 257.12 277.403 224.128 260.915 195.373 247.322 C 199.924 221.031 210.43 178.143 223.682 155.024 z" fill="rgb(245,158,11)" transform="translate(0,0)"></path>
<path d="M 223.682 155.024 C 226.45 154.269 225.236 154.076 227.476 155.045 C 249.563 160.808 269.086 169.294 290.013 178.236 L 293.451 180.313 C 287.543 189.45 273.336 228.484 267.546 241.754 L 325.806 361.29 C 350.066 325.378 373.71 289.053 396.73 252.333 L 400.559 255.713 C 395.855 261.092 392.168 267.19 388.354 273.211 C 374.915 294.429 360.618 315.079 346.85 336.081 C 340.734 345.411 335.363 355.484 327.975 363.896 C 333.01 374.562 340.307 389.056 344.201 400.018 C 330.807 395.692 316.066 392.411 302.349 388.628 L 228.16 367.441 C 219.005 364.797 193.972 358.059 186.178 354.614 L 185.955 351.433 C 196.889 353.505 209.473 357.622 220.299 360.889 C 259.267 372.653 298.05 383.573 337.316 394.267 C 330.189 376.842 320.323 358.078 311.889 341.199 C 304.493 326.397 296.981 309.096 288.929 294.993 C 257.257 280.898 225.78 266.37 194.505 251.413 L 195.373 247.322 C 224.128 260.915 257.12 277.403 286.132 289.671 C 284.805 286.332 283.309 282.403 281.722 279.217 C 264.563 244.78 249.097 209.554 232.334 174.919 C 229.328 168.707 225.824 161.491 223.682 155.024 z" fill="rgb(26,58,40)" transform="translate(0,0)"></path>
<path d="M 227.476 155.045 C 249.563 160.808 269.086 169.294 290.013 178.236 C 283.016 191.002 271.708 222.1 265.294 237.418 C 254.08 212.243 239.853 179.392 227.476 155.045 z" fill="rgb(245,158,11)" transform="translate(0,0)"></path>
<path d="M 352.647 746.923 C 371.438 777.696 390.03 806.901 412.891 834.958 C 403.658 839.651 373.085 852.305 369.267 859.277 L 370.946 860.009 C 385.446 852.551 400.152 846.297 415.143 838.324 C 459.457 895.336 508.783 947.071 566.588 990.635 C 575.032 996.999 588.858 1007.89 597.604 1012.93 C 554.128 1013.04 495.702 1002.43 455.159 986.423 C 458.425 977.878 460.578 973.038 465.344 965.26 C 455.229 960.291 431.309 951.954 419.563 947.456 C 415.678 935.252 408.545 929.754 397.447 938.695 C 386.929 934.331 376.217 930.105 365.632 925.88 C 363.577 929.619 361.235 934.744 359.296 938.669 C 325.237 926.177 308.311 916.005 283.85 888.487 C 278.433 882.393 264.044 867.447 258.357 862.89 L 257.31 862.063 C 266.916 859.534 276.88 859.888 283.261 850.722 C 293.063 836.644 288.301 795.041 274.022 786.191 C 301.176 773.701 326.129 760.65 352.647 746.923 z" fill="rgb(245,158,11)" transform="translate(0,0)"></path>
<path d="M 111.41 680.714 C 131 674.443 174.617 654.498 194.13 645.64 C 224.463 662.436 254.491 679.778 284.199 697.656 L 202.115 731.437 C 192.666 735.264 159.095 746.98 153.669 753.367 C 159.501 754.899 272.752 705.816 288.85 700.152 L 341.654 730.939 C 346.4 734.919 348.024 737.957 350.928 743.499 C 325.452 755.934 295.808 770.966 270.626 783.933 C 265.027 778.833 256.587 776.211 249.09 776.525 C 239.946 776.828 231.318 780.833 225.185 787.621 C 221.951 791.17 220.521 796.212 218.904 800.765 C 207.483 803.438 199.069 810.179 197.741 822.632 C 190.259 811.994 176.587 798.15 168.915 787.484 C 151.806 763.701 118.68 708.247 111.41 680.714 z" fill="rgb(245,158,11)" transform="translate(0,0)"></path>
<path d="M 177.69 1212.63 C 205.093 1172.94 238.515 1134.17 250.88 1086.4 C 258.243 1113.87 266.958 1141.36 274.649 1168.74 C 278.052 1180.85 285.312 1201.75 286.766 1213.38 C 292.67 1218.88 298.384 1209.72 299.643 1223.42 C 300.476 1232.49 294.976 1247.36 303.345 1252.82 L 302.462 1253.89 C 280.876 1254.5 257.911 1253.12 236.528 1254.16 C 226.6 1254.16 194.177 1254.8 185.969 1253.72 L 185.988 1251.96 C 183.471 1243.54 170.689 1231.99 164.814 1221.41 C 167.185 1216.72 167.873 1213.24 171.879 1211.17 C 174.828 1211.35 174.956 1211.42 177.69 1212.63 z" fill="rgb(244,241,225)" transform="translate(0,0)"></path>
<path d="M 79.2523 578.023 C 112.271 596.12 144.197 616.969 177.076 635.415 C 181.336 637.805 186.132 640.509 190.162 643.243 C 172.702 651.445 156.679 658.296 138.771 665.411 C 132.784 667.79 114.161 675.235 109.647 678.011 C 103.817 660.417 96.3131 642.28 91.0802 624.287 C 86.6949 609.209 82.9972 593.305 79.2523 578.023 z" fill="rgb(245,158,11)" transform="translate(0,0)"></path>
<path d="M 614.447 262.31 C 662.865 292.576 708.998 318.593 766.826 326.267 C 831.08 334.794 890.705 321.279 948.892 293.689 C 959.092 329.98 963.509 387.197 966.778 424.997 C 982.94 611.915 950.484 806.713 856.896 970.744 C 841.796 997.209 824.364 1024.61 805.033 1048.58 C 673.661 989.404 553.948 892.527 472.041 774.684 C 468.23 769.2 464.547 762.858 460.415 757.765 L 459.297 755.189 C 423.286 703.276 386.874 616.368 366.691 556.283 C 361.271 540.147 356.053 515.636 351.328 498.28 C 427.378 463.484 513.898 418.956 565.638 349.999 C 579.619 331.365 602.322 285.096 614.447 262.31 z" fill="rgb(244,241,225)" transform="translate(0,0)"></path>
<path d="M 615.551 281.749 C 616.459 280.182 617.365 278.832 618.364 277.333 L 620.166 277.36 C 639.538 290.27 660.545 300.732 681.468 310.883 C 767.612 352.677 855.324 344.421 942.249 308.039 C 957.149 385.496 964.31 490.325 960.118 569.423 L 959.634 573.896 C 949.9 713.086 919.339 840.836 849.849 963.19 C 836.513 986.67 818.955 1015.79 801.824 1036.17 C 668.286 974.998 554 878.502 471.311 757.107 L 468.927 754.275 C 467.678 750.446 443.951 711.815 440.096 704.324 C 411.265 648.285 372.192 566.231 362.342 504.201 C 436.076 471.611 527.737 419.444 575.76 353.433 C 588.385 336.079 604.078 302.337 615.551 281.749 z" fill="rgb(26,58,40)" transform="translate(0,0)"></path>
<path d="M 819.215 426.082 C 831.907 431.235 848.047 437.394 859.852 443.875 C 846.562 474.446 833.083 504.934 819.418 535.338 L 817.58 538.286 C 904.251 599.834 883.905 724.571 814.477 791.158 C 782.791 822.006 739.959 838.703 695.755 837.438 C 655.293 836.434 615.636 820.764 587.416 791.581 C 519.214 721.054 540.819 612.103 607.93 549.588 C 643.495 516.125 692.147 500.296 740.593 506.426 C 751.688 507.831 771.531 514.838 779.607 514.785 C 793.123 485.363 805.704 455.344 819.215 426.082 z" fill="rgb(13,150,104)" transform="translate(0,0)"></path>
<path d="M 819.215 426.082 C 831.907 431.235 848.047 437.394 859.852 443.875 C 846.562 474.446 833.083 504.934 819.418 535.338 L 817.58 538.286 C 816.599 543.545 798.462 580.347 794.961 587.984 L 741.233 707.031 C 733.535 724.145 717.429 757.662 712.053 774.261 C 698.433 768.66 678.255 757.929 664.407 751.215 C 638.916 738.997 613.324 726.99 587.634 715.195 C 592.655 701.237 600.404 684.04 606.292 670.125 C 625.465 678.437 644.301 688.938 663.55 697.275 C 672.712 701.243 682.123 705.526 691.001 710.051 C 711.979 657.5 739.39 605.06 761.84 552.975 C 767.342 540.211 774.027 527.745 779.607 514.785 C 793.123 485.363 805.704 455.344 819.215 426.082 z" fill="rgb(244,241,225)" transform="translate(0,0)"></path>
<path d="M 772.028 904.634 C 774.419 903.22 777.389 903.212 779.787 904.615 C 782.184 906.018 783.633 908.611 783.571 911.388 C 783.509 914.165 781.947 916.69 779.489 917.985 C 775.816 919.92 771.271 918.572 769.246 914.949 C 767.221 911.325 768.456 906.748 772.028 904.634 z" fill="rgb(13,150,104)" transform="translate(0,0)"></path>
<path d="M 181.787 968.218 C 203.325 976.688 238.98 982.291 261.498 977.659 C 271.361 986.949 277.07 991.8 288.408 999.103 C 302.859 1067.56 315.905 1136.3 327.538 1205.29 C 319.368 1208.29 300.104 1213.26 291.763 1212.32 C 285.762 1207.64 260.814 1106.84 255.366 1092.45 C 252.207 1084.1 251.955 1045.5 250.241 1031.77 C 248.841 1024 247.604 1015.85 245.271 1008.34 L 243.253 1007.56 L 244.705 1007.32 L 242.975 1008.29 C 242.347 1010.86 247.395 1034.04 247.946 1040.09 C 249.124 1053.02 250.967 1071.94 248.203 1084.64 C 239.025 1126.82 202.399 1176.3 175.999 1210.15 C 167.577 1204.78 153.173 1198.61 143.725 1194.24 C 153.326 1175.36 191.865 1109.14 193.134 1094.66 C 195.7 1065.36 171.93 1005.39 181.787 968.218 z" fill="rgb(13,150,104)" transform="translate(0,0)"></path>
<path d="M 366.489 930.431 C 396.342 940.098 429.713 954.618 460.061 966.047 C 455.368 980.911 447.002 995.908 440.766 1010.36 C 430.046 1035.2 419.493 1060.63 407.927 1085.08 C 403 1083.84 387.729 1076.83 382.25 1074.47 C 359.145 1064.39 338.337 1055.39 315.853 1044.08 C 319.544 1035.41 323.282 1026.76 327.069 1018.13 C 335.591 1021.55 359.813 1030.58 366.252 1022.02 C 366.653 1020.27 367.343 1018.63 366.401 1017 C 362.244 1009.83 343.967 1002.7 336.439 999.258 C 345.319 976.288 356.386 953.001 366.489 930.431 z" fill="rgb(13,150,104)" transform="translate(0,0)"></path>
<path d="M 383.388 993.72 C 390.439 991.334 398.103 995.029 400.628 1002.03 C 403.153 1009.03 399.61 1016.77 392.658 1019.43 C 388.038 1021.2 382.822 1020.34 379.021 1017.17 C 375.22 1014 373.426 1009.03 374.332 1004.17 C 375.238 999.301 378.701 995.307 383.388 993.72 z" fill="rgb(244,241,225)" transform="translate(0,0)"></path>
<path d="M 218.994 855.553 C 231.564 866.065 238.462 872.079 255.491 866.642 C 290.685 906.466 274.982 904.847 280.501 949.998 C 266.271 933.234 253.323 916.177 243.32 896.486 C 241.812 893.518 234.683 872.808 233.238 872.583 C 232.905 887.391 249.867 916.019 258.72 927.784 C 282.331 959.161 310.66 990.63 347.316 1006.69 C 352.379 1008.91 362.789 1014.4 364.194 1019.97 C 363.466 1021.52 363.518 1022.36 362.121 1022.5 C 344.4 1024.28 310.381 1008.19 296.489 1000.44 C 263.957 982.288 242.503 954.496 221.952 924.524 C 213.19 911.746 203.767 897.504 198.771 883.013 C 199.935 876.618 200.982 869.678 204.206 863.976 C 209.296 859.299 212.601 858.173 218.994 855.553 z" fill="rgb(244,241,225)" transform="translate(0,0)"></path>
<path d="M 198.429 891.691 C 199.912 893.08 207.389 907.912 209.311 911.189 C 223.479 935.337 239.874 955.629 259.136 975.788 L 243.905 976.504 C 217.107 975.744 208.071 974.373 182.608 966.228 C 187.936 950.494 191.182 937.874 193.797 921.454 C 195.261 912.264 196.475 900.418 198.429 891.691 z" fill="rgb(244,241,225)" transform="translate(0,0)"></path>
<path d="M 270.52 881.443 C 268.582 878.993 268.454 878.871 267.467 875.952 C 269.443 876.006 269.879 877.308 271.766 879.296 C 299.649 910.006 317.134 928.5 358.982 941.031 C 355.905 947.332 352.945 953.69 350.103 960.101 C 324.042 952.091 302.249 944.721 281.774 925.562 C 283.818 908.613 282.627 896.959 271.542 882.727 C 271.205 882.295 270.865 881.868 270.52 881.443 z" fill="rgb(244,241,225)" transform="translate(0,0)"></path>
<path d="M 281.932 931.301 C 284.644 932.723 289.008 935.963 291.719 937.85 C 309.618 950.309 327.688 956.136 348.271 962.693 L 338.708 984.252 L 333.617 996.626 C 314.557 984.762 297.124 968.508 282.07 951.942 C 282.382 945.761 282.027 937.627 281.932 931.301 z" fill="rgb(244,241,225)" transform="translate(0,0)"></path>
<path d="M 258.968 808.879 L 260.229 806.581 L 258.421 804.386 C 261.012 801.882 259.821 802.402 263.123 801.586 C 268.707 802.865 274.92 811.458 274.729 816.907 C 274.057 816.4 272.296 815.49 271.475 815.033 C 267.952 814.733 267.424 815.105 264.231 816.722 C 268.509 817.148 272.057 817.561 275.451 820.698 C 275.683 823.686 275.846 823.942 274.34 826.36 L 272.542 826.469 C 270.348 823.024 268.906 820.15 265.364 818.048 C 266.76 821.968 267.513 825.656 271.394 827.56 C 279.401 835.676 256.423 845.467 249.981 846.884 C 246.119 844.863 240.936 841.494 237.092 839.162 C 235.226 834.937 233.353 829.953 230.37 826.538 C 228.173 824.219 225.527 820.311 226.224 817.018 C 229.635 813.873 233.248 815.368 235.559 813.928 C 239.778 811.299 235.397 811.216 242.368 811.339 C 241.579 814.806 239.901 819.33 242.68 822.181 C 252.369 829.484 259.967 829.637 262.368 816.41 C 260.774 814.681 259.663 813.394 258.208 811.544 L 258.968 808.879 z" fill="rgb(244,241,225)" transform="translate(0,0)"></path>
<path d="M 255.763 835.189 L 252.931 833.734 C 249.335 834.297 248.594 834.571 245.416 832.928 L 245.721 831.942 C 249.857 830.974 253.663 832.258 257.484 833.745 L 255.763 835.189 z" fill="rgb(189,187,184)" transform="translate(0,0)"></path>
<path d="M 257.484 833.745 L 260.138 833.111 C 260.633 832.182 262.497 828.452 263.087 827.973 C 263.664 832.053 263.887 830.423 262.307 834.162 C 259.514 836.099 259.424 836.125 255.763 835.189 L 257.484 833.745 z" fill="rgb(80,82,77)" transform="translate(0,0)"></path>
<path d="M 231.715 832.459 C 235.022 842.612 237.078 840.997 243.405 847.735 C 242.815 854.052 244.156 858.231 250.214 861.106 C 250.741 863.032 250.598 862.353 250.412 864.43 C 242.691 869.34 227.679 860.686 223.299 853.991 C 227.309 850.79 230.157 837.88 231.715 832.459 z" fill="rgb(244,241,225)" transform="translate(0,0)"></path>
<path d="M 301.86 1214.7 L 318.891 1211.22 C 321.538 1218.41 326.21 1227.67 323.636 1234.66 L 313.416 1234.51 C 305.806 1228.13 305.179 1224.22 301.86 1214.7 z" fill="rgb(244,241,225)" transform="translate(0,0)"></path>
<path d="M 150.761 1200.45 C 155.325 1202.29 162.564 1206.21 167.171 1208.51 C 164.31 1213.93 161.467 1218.75 159.918 1224.71 C 159.283 1226.26 159.52 1225.7 158.055 1226.89 C 151.105 1225.67 147.076 1215.38 145.379 1209.43 C 147.054 1206.46 148.989 1203.38 150.761 1200.45 z" fill="rgb(244,241,225)" transform="translate(0,0)"></path>
<path d="M 248.367 808.907 C 252.581 807.729 253.651 807.875 257.851 808.062 C 254.462 812.695 252.092 810.319 248.15 813.314 C 253.073 816.738 251.891 816.462 258 815.237 C 260.466 818.521 260.335 817.365 260.552 820.882 C 255.939 826.378 248.691 824.89 243.384 821.342 C 242.919 817.946 242.745 817.69 244.088 814.684 C 245.392 813.149 247.124 810.606 248.367 808.907 z" fill="rgb(244,241,225)" transform="translate(0,0)"></path>
<path d="M 402.063 937.038 C 408.659 936.45 415.072 939.477 416.529 946.369 L 415.196 946.741 C 408.98 936.1 406.968 942.33 401.119 939.177 L 402.063 937.038 z" fill="rgb(92,155,157)" transform="translate(0,0)"></path>
<path d="M 1442.17 552.36 C 1451.08 475.463 1500 506.081 1520.82 477.731 C 1539.15 452.769 1504.32 435.357 1500.8 409.09 C 1499.34 398.186 1501.64 387.906 1505.6 377.752 C 1524.93 328.268 1571.4 347.601 1586.58 319.505 C 1598.64 297.198 1576.44 272.12 1605.5 235.367 C 1621.05 215.712 1644.64 204.286 1669.29 201.51 C 1696.5 198.445 1725.3 205.256 1746.85 222.509 C 1766.68 238.388 1775.25 257.617 1777.93 282.331 C 1776.17 288.676 1778.24 290.688 1777.42 293.968 C 1776.15 303.537 1776.62 312.862 1782.77 320.787 C 1801.32 344.669 1841.4 325.731 1863.5 371.948 C 1869.04 383.521 1871.53 395.693 1869.98 408.499 C 1869.12 415.542 1866.95 422.36 1863.56 428.598 C 1855.5 443.722 1837.59 460.939 1850.27 478.914 C 1858.92 491.18 1885.34 490.316 1898.61 497.246 C 1941.8 519.802 1948.35 582.264 1910.35 612.899 C 1901.13 620.332 1893.15 622.639 1883.54 627.985 C 1902.54 631.313 1922.75 635.172 1941.76 637.725 C 1942.04 680.842 1946.12 732.157 1948.64 775.837 L 1958.66 955.462 L 1966.64 1082.12 C 1967.72 1099.55 1968.51 1128.41 1970.55 1145.03 L 1968.27 1147.78 C 1954.35 1154.7 1931.8 1169.7 1917.79 1178.31 C 1903.38 1187.15 1882.62 1198.42 1869.26 1207.57 L 1865.22 1209.86 C 1863.81 1210.54 1594.17 1163.39 1569.21 1158.9 L 1497.33 1146.34 C 1487.99 1144.69 1468 1140.47 1459.25 1140 C 1459.53 1128.71 1459.27 1116.53 1459.24 1105.17 C 1457.96 1076.47 1467.3 1060.36 1440.16 1042.86 L 1439.14 1042.58 L 1438.54 1040.36 L 1437.29 1042.34 C 1432.67 1043.12 1392.42 1036.17 1385.02 1035.06 C 1385.33 1028.31 1385.17 1023.79 1384.8 1017.08 C 1378.82 1007.01 1375.25 1004.49 1364.69 999.734 C 1355 998.15 1344.34 997.484 1334.48 996.671 C 1340.43 938.3 1350.22 877.994 1357.88 819.639 C 1362.36 785.44 1366.27 751.237 1371.14 717.038 C 1376.18 682.981 1380.65 648.841 1384.53 614.633 C 1386.34 599.788 1389.64 578.928 1390.23 564.495 L 1391.08 562.731 C 1399.56 558.501 1414.29 553.662 1423.66 550.428 C 1426 549.619 1438.8 551.842 1442.17 552.36 z" fill="rgb(244,241,225)" transform="translate(0,0)"></path>
<path d="M 1442.17 552.36 C 1451.08 475.463 1500 506.081 1520.82 477.731 C 1539.15 452.769 1504.32 435.357 1500.8 409.09 C 1499.34 398.186 1501.64 387.906 1505.6 377.752 C 1524.93 328.268 1571.4 347.601 1586.58 319.505 C 1598.64 297.198 1576.44 272.12 1605.5 235.367 C 1621.05 215.712 1644.64 204.286 1669.29 201.51 C 1696.5 198.445 1725.3 205.256 1746.85 222.509 C 1766.68 238.388 1775.25 257.617 1777.93 282.331 C 1776.17 288.676 1778.24 290.688 1777.42 293.968 C 1776.15 303.537 1776.62 312.862 1782.77 320.787 C 1801.32 344.669 1841.4 325.731 1863.5 371.948 C 1869.04 383.521 1871.53 395.693 1869.98 408.499 C 1869.12 415.542 1866.95 422.36 1863.56 428.598 C 1855.5 443.722 1837.59 460.939 1850.27 478.914 C 1858.92 491.18 1885.34 490.316 1898.61 497.246 C 1941.8 519.802 1948.35 582.264 1910.35 612.899 C 1901.13 620.332 1893.15 622.639 1883.54 627.985 C 1902.54 631.313 1922.75 635.172 1941.76 637.725 C 1942.04 680.842 1946.12 732.157 1948.64 775.837 L 1958.66 955.462 L 1966.64 1082.12 C 1967.72 1099.55 1968.51 1128.41 1970.55 1145.03 L 1968.27 1147.78 C 1954.35 1154.7 1931.8 1169.7 1917.79 1178.31 C 1903.38 1187.15 1882.62 1198.42 1869.26 1207.57 L 1865.22 1209.86 C 1863.48 1207.04 1865.73 1197.75 1866.4 1194.11 L 1866.71 1193.15 C 1867.03 1187.02 1868.22 1180.41 1868.93 1174.27 C 1874.37 1127.41 1881.39 1080.66 1886.72 1033.8 C 1893.83 968.442 1901.41 903.137 1909.46 837.89 C 1912.1 815.869 1913.07 792.002 1916.48 770.662 C 1920.24 746.895 1921.64 720.514 1924.75 696.511 C 1926.27 684.822 1926.88 672.116 1929.75 660.687 L 1929.04 655.928 C 1925.51 651.113 1913.02 650.44 1906.67 649.229 C 1871.94 643.136 1826.82 634.93 1792.08 630.485 C 1791.49 636.334 1789.85 649.262 1790.38 654.409 L 1789.57 656.163 C 1788.2 664.459 1789.46 671.443 1784.11 675.6 C 1781.74 675.528 1780.16 675.455 1777.81 675.156 C 1719.64 666.661 1661.16 654.88 1602.97 646.289 C 1581.9 643.178 1549.13 635.682 1529.23 634.706 L 1526.99 633.109 C 1525.35 629.378 1527.51 621.223 1528.33 616.952 L 1528.17 611.705 C 1528.88 609.476 1531.07 591.527 1531.57 587.939 C 1528.99 587.026 1499.88 582.318 1494.66 581.411 L 1432.98 571.241 C 1418.84 568.901 1404.45 565.862 1390.23 564.495 L 1391.08 562.731 C 1399.56 558.501 1414.29 553.662 1423.66 550.428 C 1426 549.619 1438.8 551.842 1442.17 552.36 z" fill="rgb(26,58,40)" transform="translate(0,0)"></path>
<path d="M 1676.11 474.48 L 1676.14 322.836 L 1676.06 273.464 C 1676.01 264.422 1673.81 247.107 1679.5 240.005 L 1681.94 241.169 C 1683.58 246.729 1683.3 294.447 1683.24 303.007 C 1683.07 325.564 1684.22 351.427 1683.59 373.719 C 1689.06 372.759 1762.22 293.609 1777.93 282.331 C 1776.17 288.676 1778.24 290.688 1777.42 293.968 C 1759.06 310.941 1740.82 330.516 1722.96 348.349 C 1712.49 358.799 1691.64 377.875 1683.67 388.3 C 1683.61 393.576 1683.75 405.606 1683.15 410.273 C 1683.76 419.533 1683.6 430.04 1683.42 439.409 C 1682.68 476.567 1684.09 514.261 1682.89 551.354 L 1676.27 550.684 C 1675.18 534.575 1676.25 504.405 1676.11 486.734 C 1642 454.136 1609.75 418.99 1574.92 387.029 C 1571.86 384.226 1571.16 381.163 1573.49 377.749 L 1576.17 377.374 C 1580.13 378.974 1667.69 466.139 1676.11 474.48 z" fill="rgb(245,158,11)" transform="translate(0,0)"></path>
<path d="M 1793.99 461.269 C 1793.93 453.376 1792.49 425.753 1796.07 419.958 L 1797.81 420.007 C 1803.48 426.388 1802.93 462.844 1796.06 470.437 C 1768.75 500.632 1739.94 527.787 1713.06 558.652 C 1710.46 556.924 1707.63 556.378 1704.6 555.515 C 1710.08 547.905 1716.72 541.487 1723.08 534.631 C 1746.2 509.713 1770.78 486.076 1793.99 461.269 z" fill="rgb(245,158,11)" transform="translate(0,0)"></path>
<path d="M 1830.39 573.846 C 1830.43 566.547 1829.15 536.8 1833.06 532.155 C 1834.65 532.41 1835.19 532.127 1835.92 533.364 C 1839.8 539.971 1838.21 569.011 1837.6 576.58 C 1828.82 587.062 1812.32 605.712 1802.52 614.529 C 1800.21 613.635 1796.18 612.879 1793.62 612.303 C 1804.41 600.621 1819.22 585.187 1830.39 573.846 z" fill="rgb(245,158,11)" transform="translate(0,0)"></path>
<path d="M 1556.32 561.443 C 1550.64 552.339 1534.78 540.821 1534.22 532.635 C 1535.85 530.034 1534.73 530.878 1537.77 530.101 C 1542.44 531.804 1562.42 553.842 1567.23 558.918 C 1564.45 559.589 1558.91 561.077 1556.32 561.443 z" fill="rgb(245,158,11)" transform="translate(0,0)"></path>
<path d="M 1676.19 571.577 L 1682.96 573.103 C 1682.92 577.945 1683.09 585.284 1682.74 589.916 L 1675.95 588.673 C 1675.67 583.722 1676.06 576.683 1676.19 571.577 z" fill="rgb(245,158,11)" transform="translate(0,0)"></path>
<path d="M 1569 564.262 C 1571.09 567.291 1571.73 568.242 1573.14 571.615 C 1568.64 570.575 1563.4 569.781 1558.78 568.977 C 1561.6 566.794 1565.59 565.571 1569 564.262 z" fill="rgb(245,158,11)" transform="translate(0,0)"></path>
<path d="M 1792.08 630.485 C 1826.82 634.93 1871.94 643.136 1906.67 649.229 C 1913.02 650.44 1925.51 651.113 1929.04 655.928 L 1929.75 660.687 C 1926.88 672.116 1926.27 684.822 1924.75 696.511 C 1921.64 720.514 1920.24 746.895 1916.48 770.662 C 1913.07 792.002 1912.1 815.869 1909.46 837.89 C 1901.41 903.137 1893.83 968.442 1886.72 1033.8 C 1881.39 1080.66 1874.37 1127.41 1868.93 1174.27 C 1868.22 1180.41 1867.03 1187.02 1866.71 1193.15 L 1866.4 1194.11 C 1865.73 1197.75 1863.48 1207.04 1865.22 1209.86 C 1863.81 1210.54 1594.17 1163.39 1569.21 1158.9 L 1497.33 1146.34 C 1487.99 1144.69 1468 1140.47 1459.25 1140 C 1459.53 1128.71 1459.27 1116.53 1459.24 1105.17 C 1482.03 1109.5 1503.87 1112.76 1526.47 1116.8 L 1705.96 1148.5 C 1749.94 1155.58 1793.81 1163.28 1837.56 1171.6 C 1840.21 1158.97 1842.44 1131.84 1844.2 1117.75 L 1859.34 995.068 L 1878.96 845.493 C 1886.08 787.522 1892.54 729.471 1898.33 671.352 C 1873.68 669.234 1843.85 661.896 1818.98 658.669 C 1811.7 657.724 1796.89 654.193 1790.38 654.409 C 1789.85 649.262 1791.49 636.334 1792.08 630.485 z" fill="rgb(13,150,104)" transform="translate(0,0)"></path>
<path d="M 1390.23 564.495 C 1404.45 565.862 1418.84 568.901 1432.98 571.241 L 1494.66 581.411 C 1499.88 582.318 1528.99 587.026 1531.57 587.939 C 1531.07 591.527 1528.88 609.476 1528.17 611.705 C 1492.97 607.945 1453.99 598.162 1420.51 594.519 C 1415.64 643.321 1408.07 696.271 1401.29 744.961 C 1394.09 799.083 1386.5 853.151 1378.51 907.163 L 1370.78 964.126 C 1369.46 973.96 1367.88 991.243 1364.69 999.734 C 1355 998.15 1344.34 997.484 1334.48 996.671 C 1340.43 938.3 1350.22 877.994 1357.88 819.639 C 1362.36 785.44 1366.27 751.237 1371.14 717.038 C 1376.18 682.981 1380.65 648.841 1384.53 614.633 C 1386.34 599.788 1389.64 578.928 1390.23 564.495 z" fill="rgb(13,150,104)" transform="translate(0,0)"></path>
<path d="M 1438.54 1040.36 C 1441.1 1015.94 1474.59 786.106 1476.43 783.082 L 1477.85 782.753 C 1478.92 784.715 1479.04 784.527 1478.57 787.122 C 1475.64 803.551 1473.34 820.212 1470.97 836.724 C 1465.12 879.482 1458.75 922.167 1451.86 964.768 C 1448.86 983.873 1444.41 1026.82 1440.16 1042.86 L 1439.14 1042.58 L 1438.54 1040.36 z" fill="rgb(2,3,2)" transform="translate(0,0)"></path>
<path d="M 1821.87 750.664 C 1821.52 746.756 1820.38 743.063 1823.36 740.306 C 1828.83 740.559 1839.05 754.454 1843.27 759.231 C 1838.27 760.155 1828.81 763.214 1823.78 762.825 C 1822.58 762.732 1821.94 760.317 1821.22 758.733 C 1809.15 757.706 1780.55 767.035 1768.7 772.575 C 1758.72 777.272 1749 782.49 1739.57 788.206 C 1725.87 796.416 1712.59 806.126 1699.21 814.918 C 1694.35 818.11 1673.22 830.378 1671.97 833.807 C 1690 836.819 1709.4 840.037 1727.46 842.458 C 1724.22 856.726 1721.67 879.919 1719.54 894.983 L 1707.93 974.721 C 1704.14 1001.23 1700.68 1027.78 1697.54 1054.37 C 1696.37 1063.88 1693.75 1078.3 1693.44 1087.38 L 1723.21 1091.74 C 1727.52 1061.75 1762.85 793.299 1767.12 787.095 C 1775.99 786.483 1812.79 793.37 1822.42 795.624 C 1805.27 896.336 1794.21 999.717 1777.82 1100.58 C 1783.6 1101.4 1788.57 1101.75 1793.83 1104.41 L 1793.65 1105.15 C 1782.08 1105.33 1761.32 1101.66 1749.3 1099.75 C 1722.98 1095.46 1696.69 1091 1670.42 1086.38 L 1463.2 1051.25 C 1467.88 1031.28 1471.94 997.454 1474.77 976.479 C 1477.44 956.67 1481.52 931.684 1483.49 912.109 C 1479.43 909.795 1478.14 913.049 1475.45 906.405 L 1476.3 904.682 C 1480.52 902.577 1487.12 902.03 1491.87 901.278 C 1517.53 897.219 1542.92 890.635 1567.12 881.237 C 1614.9 862.685 1656.55 832.492 1699.08 804.554 C 1722.91 788.895 1746.65 772.199 1773.28 761.689 C 1788.69 755.607 1805.67 753.109 1821.87 750.664 z" fill="rgb(2,3,2)" transform="translate(0,0)"></path>
<path d="M 1579.82 885.752 C 1581.81 884.573 1601.63 874.774 1602.84 874.531 C 1611.53 872.781 1665.82 836.626 1667.77 836.729 L 1668.76 839.429 C 1663.8 889.201 1654.62 940.657 1647.28 990.233 C 1643.02 1019 1639.92 1048.5 1634.98 1077.06 C 1627.57 1075.81 1616.67 1074.29 1609.6 1072.6 C 1615.16 1021.57 1624.5 970.323 1629.85 919.169 C 1630.74 910.657 1631.83 901.603 1633.06 893.129 C 1616.43 890.698 1595.73 888.663 1579.82 885.752 z" fill="rgb(244,241,225)" transform="translate(0,0)"></path>
<path d="M 1485.81 910.99 C 1510.94 905.108 1536.61 902.78 1560.66 892.209 C 1563.63 890.904 1570.57 888.499 1573.61 888.403 L 1574.59 890.713 C 1569.1 928.494 1563.82 966.303 1558.74 1004.14 C 1556.29 1021.81 1553.69 1045.3 1549.93 1062.34 C 1540.97 1060.59 1531.96 1059.12 1522.91 1057.94 C 1526.66 1041.64 1530.66 1004.67 1533.16 986.447 C 1535.48 969.499 1541.27 934.262 1542.12 918.757 C 1525.13 917.524 1502.96 913.759 1485.81 910.99 z" fill="rgb(244,241,225)" transform="translate(0,0)"></path>
<path d="M 1821.87 750.664 C 1821.52 746.756 1820.38 743.063 1823.36 740.306 C 1828.83 740.559 1839.05 754.454 1843.27 759.231 C 1838.27 760.155 1828.81 763.214 1823.78 762.825 C 1822.58 762.732 1821.94 760.317 1821.22 758.733 C 1809.15 757.706 1780.55 767.035 1768.7 772.575 C 1758.72 777.272 1749 782.49 1739.57 788.206 C 1725.87 796.416 1712.59 806.126 1699.21 814.918 C 1694.35 818.11 1673.22 830.378 1671.97 833.807 L 1669.55 834.799 C 1668.98 836.913 1668.87 837.152 1668.76 839.429 L 1667.77 836.729 C 1665.82 836.626 1611.53 872.781 1602.84 874.531 C 1601.63 874.774 1581.81 884.573 1579.82 885.752 L 1576.07 886.366 C 1574.92 888.473 1574.96 888.345 1574.59 890.713 L 1573.61 888.403 C 1570.57 888.499 1563.63 890.904 1560.66 892.209 C 1536.61 902.78 1510.94 905.108 1485.81 910.99 L 1483.49 912.109 C 1479.43 909.795 1478.14 913.049 1475.45 906.405 L 1476.3 904.682 C 1480.52 902.577 1487.12 902.03 1491.87 901.278 C 1517.53 897.219 1542.92 890.635 1567.12 881.237 C 1614.9 862.685 1656.55 832.492 1699.08 804.554 C 1722.91 788.895 1746.65 772.199 1773.28 761.689 C 1788.69 755.607 1805.67 753.109 1821.87 750.664 z" fill="rgb(13,150,104)" transform="translate(0,0)"></path>
<path d="M 1768.32 789.652 C 1780.11 790.829 1806.78 795.501 1818.44 798.034 C 1817.06 816.75 1812.88 839.511 1809.98 858.105 L 1798.06 939.698 C 1793.39 975.097 1788.44 1010.46 1783.22 1045.78 C 1780.74 1062.77 1778.44 1083.94 1774.51 1100.25 C 1759.75 1098.48 1741.26 1094.87 1726.18 1092.47 C 1728.39 1078.85 1730.15 1065.08 1731.97 1051.39 C 1743.59 964.189 1755.07 876.622 1768.32 789.652 z" fill="rgb(245,158,11)" transform="translate(0,0)"></path>
<path d="M 1671.41 837.513 C 1684.97 839.033 1710.96 842.372 1723.06 845.524 C 1715.16 908.389 1704.83 971.11 1697.29 1034.06 C 1695.23 1051.24 1692.69 1069.47 1689.57 1086.47 C 1672.28 1083.99 1655.03 1080.63 1637.85 1077.44 C 1643 1052.94 1646.17 1017.28 1650.21 991.275 C 1655.12 960.092 1659.77 928.869 1664.16 897.608 C 1666.77 879.359 1670.57 855.668 1671.41 837.513 z" fill="rgb(245,158,11)" transform="translate(0,0)"></path>
<path d="M 1577.22 888.824 C 1588.62 891.263 1616.2 893.76 1629.52 895.57 C 1627.33 913.45 1609.22 1066.12 1605.71 1071.98 C 1588.41 1069.39 1569.76 1066.56 1552.71 1063.09 C 1558.85 1024.94 1564.37 986.696 1569.26 948.368 C 1571.93 928.674 1575.15 908.526 1577.22 888.824 z" fill="rgb(245,158,11)" transform="translate(0,0)"></path>
<path d="M 1486.4 914.722 C 1503.74 917.045 1521.06 919.468 1538.37 921.992 C 1536.93 939.827 1523.94 1047.42 1519.42 1057.53 C 1501.71 1054.7 1484.03 1051.7 1466.38 1048.55 C 1469.17 1036.4 1471.76 1016.3 1473.66 1003.64 L 1486.4 914.722 z" fill="rgb(245,158,11)" transform="translate(0,0)"></path>
<path d="M 1442.74 682.203 C 1464.95 683.469 1513.11 693.764 1536.92 697.776 L 1631.12 713.47 C 1644.26 715.74 1657.56 717.966 1670.68 720.376 C 1674.74 721.121 1674.59 721.22 1677.17 723.716 C 1669.57 724.314 1650.83 720.109 1642.51 718.646 L 1580.19 707.787 L 1493.57 693.27 C 1479.31 690.931 1464.84 688.78 1450.62 686.23 C 1445.67 685.342 1445.63 685.363 1442.74 682.203 z" fill="rgb(2,3,2)" transform="translate(0,0)"></path>
<path d="M 1438.12 706.251 C 1445.21 706.069 1458.96 709.18 1466.56 710.5 L 1522.99 720.238 C 1557.1 725.632 1591.15 731.371 1625.14 737.453 C 1634.05 738.985 1644.76 740.821 1653.84 742.378 C 1654.75 743.29 1655.52 744.06 1656.15 744.686 C 1650.79 745.409 1635.77 742.21 1630.02 741.216 C 1615.22 738.608 1600.4 736.11 1585.57 733.72 C 1552.84 728.693 1520.17 723.262 1487.57 717.426 C 1473.18 714.886 1458.46 712.391 1444.11 709.573 C 1440.18 708.8 1440.42 708.787 1438.12 706.251 z" fill="rgb(2,3,2)" transform="translate(0,0)"></path>
<path d="M 1434.41 730.264 C 1443.23 730.876 1475.36 737.477 1487.34 739.401 C 1535.42 746.83 1583.41 754.862 1631.29 763.497 L 1632.52 766.656 L 1507.63 745.766 C 1485.35 742.266 1461.02 738.721 1438.79 734.112 C 1435.41 733.409 1435.75 732.873 1434.41 730.264 z" fill="rgb(2,3,2)" transform="translate(0,0)"></path>
<path d="M 1107.34 829.849 C 1108.46 831.602 1109.76 833.23 1111.23 834.703 C 1118.72 842.093 1134.14 848.503 1142.62 839.183 C 1144.85 841.584 1145.51 842.141 1147.06 844.968 L 1149.1 843.171 C 1157.95 861.319 1177.41 913.065 1186.32 924.011 C 1201.73 942.941 1245.35 975.365 1265.87 991.037 C 1277.72 1000.09 1287.51 1001.87 1296.37 1015.27 C 1302.92 997.284 1317.88 996.402 1334.48 996.671 C 1344.34 997.484 1355 998.15 1364.69 999.734 C 1375.25 1004.49 1378.82 1007.01 1384.8 1017.08 C 1385.17 1023.79 1385.33 1028.31 1385.02 1035.06 C 1392.42 1036.17 1432.67 1043.12 1437.29 1042.34 L 1438.54 1040.36 L 1439.14 1042.58 L 1440.16 1042.86 C 1467.3 1060.36 1457.96 1076.47 1459.24 1105.17 C 1459.27 1116.53 1459.53 1128.71 1459.25 1140 C 1459.31 1149.58 1461 1188.27 1456.93 1196.56 C 1455.28 1199.93 1440.38 1205.99 1435.51 1208.11 L 1426.99 1213.3 C 1417.68 1211.56 1404.46 1210.22 1394.53 1208.71 L 1274.92 1191.44 C 1260.32 1189.2 1243.6 1187.13 1229.14 1183.91 C 1224.32 1182.84 1221.42 1176.57 1219.15 1172.35 C 1219.49 1153.12 1217.14 1051.08 1222.32 1039.76 C 1225.4 1033.03 1231.47 1029.47 1238.16 1027.18 C 1245.46 1025.97 1250.16 1025.19 1257.65 1024.88 C 1261.22 1024.25 1267.21 1024.31 1271.02 1024.24 C 1267.71 1018.04 1252.96 1011.23 1246.19 1007.76 C 1208.3 988.28 1177.18 963.782 1145.74 935.143 C 1151.64 956.017 1150.74 966.256 1159.46 985.717 C 1165.29 998.736 1171.74 1011.47 1178.79 1023.87 C 1190 1043.7 1204.4 1063.88 1201.4 1087.44 C 1198.44 1110.65 1192.31 1202.93 1183.83 1217.61 C 1179.79 1217.83 1178.09 1217.23 1175.15 1219.22 L 1174.69 1220.24 C 1173.96 1224.41 1173.81 1225.03 1174.87 1229.11 C 1187.16 1240.41 1206.24 1238.87 1207.72 1252.79 C 1192.52 1254.6 1173.78 1252.4 1158.46 1253.12 C 1154.2 1253 1149.92 1253.21 1145.65 1253.35 C 1141.97 1234.31 1148.67 1232.94 1150.05 1218.61 C 1147.74 1216.88 1141.71 1217.88 1137.62 1216.04 C 1138.73 1211.28 1141.54 1190.14 1141.91 1183.54 C 1143.68 1152.02 1151.41 1112.52 1147.81 1081.67 C 1147.09 1075.49 1135.3 1061.19 1131.44 1056.39 L 1132.05 1055.86 C 1131.17 1053.11 1123.6 1045.57 1121.23 1042.8 C 1111.53 1031.41 1058.03 977.188 1064.91 962.132 C 1070.25 961.414 1096.46 966.767 1104.65 967.709 C 1108.03 965.946 1109.4 965.645 1113.01 964.66 C 1095.06 963.909 1077.69 960.348 1060.05 957.132 C 1062.65 948.501 1064.14 937.222 1066.38 928.28 C 1074.23 896.968 1082.43 851.934 1107.34 829.849 z" fill="rgb(26,58,40)" transform="translate(0,0)"></path>
<path d="M 1107.34 829.849 C 1108.46 831.602 1109.76 833.23 1111.23 834.703 C 1118.72 842.093 1134.14 848.503 1142.62 839.183 C 1144.85 841.584 1145.51 842.141 1147.06 844.968 C 1156.24 864.186 1162.64 880.891 1170.28 900.713 C 1159.42 892.98 1152.37 864.801 1143.38 853.146 C 1146.18 867.05 1162.07 895.887 1171.55 906.854 C 1195.08 946.054 1233.28 967.58 1267.44 996.276 C 1263.66 1002.56 1262.18 1005.55 1259.37 1012.34 C 1217.33 988.611 1160.98 954.987 1133.53 913.962 C 1128.99 907.215 1125.15 900.021 1122.07 892.494 C 1120.46 888.53 1114.15 868.899 1111.77 867.139 C 1116.57 892.961 1125.48 908.877 1141.07 928.696 C 1142.89 931.004 1149.38 958.76 1150.95 964.193 C 1142.1 964.997 1134.81 964.535 1126.94 965.107 L 1113.01 964.66 C 1095.06 963.909 1077.69 960.348 1060.05 957.132 C 1062.65 948.501 1064.14 937.222 1066.38 928.28 C 1074.23 896.968 1082.43 851.934 1107.34 829.849 z" fill="rgb(245,158,11)" transform="translate(0,0)"></path>
<path d="M 1240.86 1029.68 C 1247.21 1031.31 1256.37 1031.75 1263.1 1032.3 C 1267.9 1033.08 1276.14 1034.7 1280.69 1035.12 C 1318.74 1042.27 1358.09 1045.82 1396.34 1052.07 C 1398.89 1052.49 1400.97 1053.63 1402.97 1055.19 C 1426.04 1080.04 1426.16 1081.56 1426.12 1113.84 L 1426.06 1130.34 C 1403.48 1129.24 1360.93 1121.35 1336.45 1118.23 C 1319.07 1102.15 1315.15 1115.73 1302.8 1113.51 C 1276.03 1108.7 1249.11 1104.68 1222.27 1100.55 C 1222.27 1089.67 1222.28 1078.75 1222.22 1067.87 C 1222.13 1052 1221.23 1033.21 1240.86 1029.68 z" fill="rgb(245,158,11)" transform="translate(0,0)"></path>
<path d="M 1222.51 1103.37 C 1248.62 1107.52 1280.54 1112.03 1306.25 1117.31 C 1305.8 1121.08 1305.12 1125.55 1305.11 1129.29 C 1306.96 1138.61 1306.75 1146.35 1308.48 1155.24 C 1312.01 1156.38 1315.31 1153.05 1317.69 1153.77 C 1321.3 1154.86 1326.5 1157.12 1330.16 1158.56 L 1331.38 1157.82 C 1332.26 1146.88 1335.47 1136.58 1335.98 1127.1 C 1336.32 1123.32 1335.64 1123.21 1337.7 1121.41 C 1358.3 1122.76 1405.27 1131.39 1426.71 1134.85 C 1426.61 1150.73 1428.97 1194.82 1420.95 1206.37 C 1409.36 1212 1256.7 1184.69 1230.66 1180.82 C 1216.74 1178.75 1223.01 1117.34 1222.51 1103.37 z" fill="rgb(245,158,11)" transform="translate(0,0)"></path>
<path d="M 1407.08 1053.09 C 1418.49 1052.82 1437.88 1056.33 1438.37 1070.92 C 1439.66 1109.55 1438.75 1148.75 1438.35 1187.44 C 1438.28 1193.97 1437.17 1199.84 1433.32 1205.21 C 1429.13 1208.56 1427.96 1210.25 1422.63 1208.59 C 1432.7 1196.2 1429.68 1181.13 1429.59 1165.74 L 1429.26 1110 C 1431.74 1080.09 1429.26 1072.04 1407.08 1053.09 z" fill="rgb(245,158,11)" transform="translate(0,0)"></path>
<path d="M 1330.46 1010.9 C 1340.03 1010.91 1355.05 1009.15 1362.09 1016.3 C 1367.19 1019.11 1372.71 1023.2 1371.65 1029.78 C 1367.92 1034.4 1365.49 1032.82 1359.89 1031.81 C 1352.35 1031.44 1335.37 1028.65 1327.17 1027.56 C 1322.32 1027.02 1314.53 1026.99 1311.22 1024.08 C 1309.9 1020.45 1310.9 1019.5 1311.89 1015.15 C 1319.04 1011.97 1322.71 1011.11 1330.46 1010.9 z" fill="rgb(13,150,104)" transform="translate(0,0)"></path>
<path d="M 1311.89 1015.15 C 1319.04 1011.97 1322.71 1011.11 1330.46 1010.9 C 1330.26 1016.32 1331.65 1024.77 1327.17 1027.56 C 1322.32 1027.02 1314.53 1026.99 1311.22 1024.08 C 1309.9 1020.45 1310.9 1019.5 1311.89 1015.15 z" fill="rgb(244,241,225)" transform="translate(0,0)"></path>
<path d="M 1362.09 1016.3 C 1367.19 1019.11 1372.71 1023.2 1371.65 1029.78 C 1367.92 1034.4 1365.49 1032.82 1359.89 1031.81 C 1360.68 1026.65 1361.42 1021.48 1362.09 1016.3 z" fill="rgb(244,241,225)" transform="translate(0,0)"></path>
<path d="M 1268.98 998.187 C 1274.6 1001.37 1278.45 1003.25 1284.37 1005.85 C 1287.55 1009.07 1289.78 1011.02 1292 1015 L 1294.63 1018.64 C 1296.59 1023.61 1298.44 1027.23 1296.39 1032.4 L 1294.1 1033.32 L 1287.52 1032.57 C 1284.94 1032.32 1283.4 1032.03 1280.86 1031.51 L 1280.91 1030.6 L 1285.77 1028.97 C 1290.18 1027.05 1288.78 1028.25 1291.44 1024.65 C 1292.22 1020.9 1291.84 1019.97 1290.96 1016.19 C 1287.5 1013.18 1285.92 1010.52 1281.56 1009.91 C 1282.69 1012.07 1286.53 1015.73 1288.63 1018.96 C 1288.45 1022.53 1289.02 1021.25 1286.55 1023.77 C 1278.05 1026.33 1268.75 1021.57 1265.49 1013.39 C 1263.34 1007.97 1266.62 1003.03 1268.98 998.187 z" fill="rgb(244,241,225)" transform="translate(0,0)"></path>
<path d="M 1308.48 1122.42 C 1309.34 1118.68 1309.48 1116.52 1312.88 1114.56 C 1315.76 1112.88 1319.2 1112.41 1322.42 1113.27 C 1331.16 1115.61 1333.21 1121.29 1332.87 1129.28 C 1329.09 1138 1317.41 1135.87 1310.97 1131.04 C 1308.33 1129.06 1308.76 1125.63 1308.48 1122.42 z" fill="rgb(244,241,225)" transform="translate(0,0)"></path>
<path d="M 1153.35 1218.08 C 1158.43 1217.96 1170.46 1216.45 1173.33 1220.24 C 1172.39 1223.84 1171.64 1226.42 1171.25 1230.17 C 1171.27 1234.53 1171.45 1235.23 1168.06 1237.75 C 1162.05 1238.48 1156.7 1233.62 1151.74 1230.07 L 1153.35 1218.08 z" fill="rgb(244,241,225)" transform="translate(0,0)"></path>
<path d="M 1291.55 425.956 C 1310.85 408.962 1323.03 401.665 1337.02 379.561 C 1345.87 365.562 1375.85 348.926 1393.29 347.643 L 1394.9 348.505 C 1395.18 356.542 1387.78 366.115 1382.85 371.518 C 1364.57 391.514 1345.71 394.789 1322.99 405.075 C 1317.09 407.745 1299.08 423.586 1292.61 428.721 C 1312.89 425.362 1335.7 425.765 1353.04 438.223 C 1357.05 441.054 1360.56 444.543 1363.41 448.542 C 1337.24 460.404 1302.9 454.351 1279.61 438.338 C 1270.79 445.751 1261.87 453.119 1253.4 460.927 C 1277.42 455.064 1305.12 456.853 1326.25 470.265 C 1330.24 472.803 1336.19 476.484 1338.37 480.679 C 1335.73 487.668 1323.42 486.557 1316.9 487.248 C 1288.18 490.297 1262.9 483.928 1235.57 475.735 C 1225.96 482.219 1212.71 494.996 1204.09 503.158 C 1234.76 494.969 1274.21 494.234 1302.27 510.783 C 1306.48 513.268 1314.56 518.141 1315.99 523.054 C 1314.57 525.459 1312.97 526.117 1310 526.821 C 1274.1 535.355 1226.03 527.335 1192.51 514.034 C 1167.27 536.763 1154.75 554.146 1132.81 577.222 C 1177.3 564.944 1223.51 556.35 1266.63 580.61 C 1272.31 583.777 1277.51 587.733 1282.08 592.358 C 1248.9 606.797 1207.19 602.162 1173.35 592.185 C 1159.91 588.223 1145.05 582.19 1131.6 579.376 C 1118.04 595.631 1105.33 612.575 1093.51 630.141 C 1135.6 618.684 1185.8 612.763 1225.12 636.238 C 1229.06 638.591 1233.58 641.186 1235.41 645.554 C 1234.3 648.124 1233.87 648.24 1230.55 649.51 C 1183.07 667.66 1133.59 656.476 1088.7 637.621 C 1078.98 648.943 1058.91 681.658 1051.27 695.409 C 1068.44 696.667 1080.83 700.247 1095.79 708.835 C 1101.26 711.973 1107.64 714.215 1107.43 721.284 C 1101.66 731.375 1084.55 740.878 1075.91 749.14 C 1071.4 753.448 1074.51 757.852 1067.17 757.939 L 1065.14 759.373 L 1064.85 760.036 C 1063.68 762.725 1063.59 762.944 1063.22 765.792 C 1060.72 766.155 1061.48 766.011 1058.7 764.192 C 1058.27 758.217 1066.01 758.031 1067.9 752.437 C 1063.63 744.296 1029.8 744.08 1019.92 743.802 C 1016.62 750.05 1013.2 756.345 1010.2 762.734 C 1013.39 766.422 1016.06 768.92 1017.4 773.598 L 1016.79 774.502 C 1013.35 772.414 1011 767.971 1008.76 764.494 C 1001.88 776.278 993.873 791.185 985.652 801.956 C 984.877 802.971 985.345 801.961 984.898 803.237 C 983.142 808.617 981.278 813.962 979.308 819.268 C 984.473 818.21 986.177 817.974 991.434 817.855 C 989.975 814.015 987.684 808.734 987.277 804.82 C 990.426 807.444 992.903 812.892 994.949 816.687 C 1006.17 815.741 1017.01 813.641 1028.28 812.629 C 1046.81 810.965 1065.34 808.843 1083.81 806.604 C 1084.09 801.937 1084.06 796.192 1085.98 792.069 C 1088.26 794.122 1087 803.417 1086.75 806.595 C 1091.15 805.503 1096.59 803.776 1100.97 804.283 L 1100.54 804.39 L 1100.59 805.289 C 1083.6 808.336 1065.83 811.057 1048.8 812.755 C 1039.61 813.671 983.089 818.012 978.888 822.141 C 976.085 828.325 971.555 838.972 970.522 845.641 L 971.021 846.482 C 979.929 846.387 999.776 845.973 1007.79 846.907 C 1055.29 852.444 1073.99 851.824 1111.7 820.977 L 1111.45 824.095 C 1128.22 836.481 1125.83 832.078 1141.81 836.665 L 1142.62 839.183 C 1134.14 848.503 1118.72 842.093 1111.23 834.703 C 1109.76 833.23 1108.46 831.602 1107.34 829.849 C 1082.43 851.934 1074.23 896.968 1066.38 928.28 C 1064.14 937.222 1062.65 948.501 1060.05 957.132 C 1077.69 960.348 1095.06 963.909 1113.01 964.66 C 1109.4 965.645 1108.03 965.946 1104.65 967.709 C 1096.46 966.767 1070.25 961.414 1064.91 962.132 C 1058.03 977.188 1111.53 1031.41 1121.23 1042.8 C 1123.6 1045.57 1131.17 1053.11 1132.05 1055.86 L 1131.44 1056.39 C 1126.92 1053.07 1111.54 1035.19 1106.8 1030.28 C 1106.06 1025.09 1065.97 990.611 1061.83 964.926 L 1061.8 962.475 C 1059.96 960.943 1059.44 960.979 1057.15 960.485 C 1055.73 956.45 1065.48 919.498 1067.11 912.807 C 1073.63 886.165 1080.91 861.94 1095.21 838.438 C 1072.25 849.365 1061.48 852.397 1035.93 853.206 C 1045.66 860.759 1060.09 869.667 1047.15 882.448 C 1032.79 896.63 1009.63 903.235 989.87 905.318 C 983.496 905.883 976.942 904.049 969.644 905.778 C 968.404 911.446 968.67 913.401 964.038 916.27 C 956.158 921.15 947.138 923.54 938.33 926.221 C 921.758 959.732 901.158 1001.85 880.19 1032.95 C 880.404 1025.49 907.974 983.198 912.965 973.397 C 991.336 819.509 1022.08 665.09 1018.89 493.095 C 1019.04 489.413 1019.57 485.556 1018.31 482.22 C 1018.82 470.652 1013.95 432.045 1017.75 426.167 C 1020.62 460.36 1022.1 494.657 1022.17 528.97 C 1022.23 542.318 1020 568.878 1021.37 579.395 C 1023.19 579.639 1024.3 578.939 1026.02 578.218 C 1034.48 583.617 1042.24 604.524 1044.23 614.305 C 1050.08 642.987 1047.25 666.716 1041.59 694.644 C 1043.63 695.764 1043.74 696.046 1046.11 695.948 C 1059.34 675.953 1072.05 654.321 1086.2 634.76 C 1075.39 595.778 1061.36 524.731 1081.49 487.422 C 1093.19 496.903 1097.46 508.639 1101.77 522.679 C 1111.09 553.035 1107.4 583.944 1100.05 614.273 C 1112.87 598.136 1126.27 580.673 1139.69 565.195 C 1133.06 518.918 1135.86 483.582 1164.58 444.188 C 1166.54 441.509 1169.18 438.474 1171.59 436.179 C 1190.61 468.089 1174.02 510.943 1159.9 541.742 C 1174.71 525.31 1212.36 489.704 1229.5 476.594 C 1224.37 447.815 1219.79 418.996 1237.16 392.224 C 1238.62 389.967 1240.09 389.04 1242.55 388.175 C 1245.1 389.062 1245.77 389.956 1246.96 392.569 C 1257.95 416.844 1251.9 444.234 1240.59 466.943 C 1250.24 458.672 1268.96 441.895 1278.67 435.815 C 1272.01 412.71 1276.8 386.893 1287.69 365.803 C 1290.26 360.83 1292.86 358.509 1298.33 359.649 C 1301.63 362.766 1301.39 364.848 1301.85 369.087 C 1304.12 389.967 1299.65 406.912 1291.55 425.956 z" fill="rgb(2,3,2)" transform="translate(0,0)"></path>
<path d="M 1111.45 824.095 C 1128.22 836.481 1125.83 832.078 1141.81 836.665 C 1134.06 846.67 1107.99 837.234 1111.45 824.095 z" fill="rgb(244,241,225)" transform="translate(0,0)"></path>
<path d="M 969.363 847.552 C 988.529 848.339 1009.56 846.3 1027.99 852.194 C 1034.83 854.379 1051.63 866.277 1048.29 874.392 C 1043.06 878.615 1028.97 877.757 1020.64 878.917 L 1020.74 880.964 C 1024.63 885.706 1026.12 887.457 1030.77 891.364 C 1021.33 895.152 1009.07 899.588 998.9 900.845 L 997.273 901.117 C 992.257 902.191 984.887 902.044 979.602 902.868 C 968.528 904.595 966.551 892.627 963.393 884.131 L 962.407 882.418 C 960.404 881.296 960.358 881.114 958.815 879.527 C 958.354 873.193 966.496 855.429 969.363 847.552 z" fill="rgb(244,241,225)" transform="translate(0,0)"></path>
<path d="M 963.393 884.131 C 978.694 884.472 1003.95 881.652 1020.74 880.964 C 1024.63 885.706 1026.12 887.457 1030.77 891.364 C 1021.33 895.152 1009.07 899.588 998.9 900.845 L 997.273 901.117 C 992.257 902.191 984.887 902.044 979.602 902.868 C 968.528 904.595 966.551 892.627 963.393 884.131 z" fill="rgb(244,241,225)" transform="translate(0,0)"></path>
<path d="M 996.958 898.37 C 994.122 896.537 993.95 895.972 992.518 892.87 L 992.635 890.578 L 994.057 890.677 C 996.451 893.497 996.752 894.591 998.219 897.955 L 996.958 898.37 z" fill="rgb(26,58,40)" transform="translate(0,0)"></path>
<path d="M 962.407 882.418 C 981.521 881.448 1001.93 879.568 1020.64 878.917 L 1020.74 880.964 C 1003.95 881.652 978.694 884.472 963.393 884.131 L 962.407 882.418 z" fill="rgb(80,82,77)" transform="translate(0,0)"></path>
<path d="M 1014.21 854.463 L 1016.34 855.531 C 1018.22 861.513 1018.97 869.129 1019.28 875.392 C 1015.16 870.117 1014.81 861.065 1014.21 854.463 z" fill="rgb(2,3,2)" transform="translate(0,0)"></path>
<path d="M 980.83 853.662 C 984.758 856.118 986.294 864.897 987.603 869.711 L 984.766 868.362 C 981.538 863.193 981.284 859.529 980.83 853.662 z" fill="rgb(2,3,2)" transform="translate(0,0)"></path>
<path d="M 1152.9 623.414 C 1180.94 621.919 1210.45 628.133 1232.81 645.807 C 1209.97 653.538 1198.23 655.59 1174.25 655.328 C 1149.75 655.331 1112.67 645.45 1091.12 634.168 C 1115.01 627.498 1128.28 625.475 1152.9 623.414 z" fill="rgb(244,241,225)" transform="translate(0,0)"></path>
<path d="M 1082.87 492.468 C 1109.31 517.701 1109.77 597.858 1091.19 626.536 C 1090.24 628.291 1090.67 627.663 1088.99 628.945 C 1086.86 626.684 1084.23 612.469 1083.47 608.775 C 1076.89 576.737 1067.5 522.769 1082.87 492.468 z" fill="rgb(244,241,225)" transform="translate(0,0)"></path>
<path d="M 1204.53 568.366 C 1231.32 570.617 1254.84 573.814 1276.67 591.479 C 1254.23 598.308 1240.97 598.821 1217.77 597.743 C 1188.04 594.524 1169.44 588.082 1141.84 577.983 C 1163.65 571.181 1181.98 569.426 1204.53 568.366 z" fill="rgb(244,241,225)" transform="translate(0,0)"></path>
<path d="M 1170.28 442.665 C 1174.15 445.598 1175.87 453.157 1176.2 457.814 C 1178.57 491.296 1165.39 532.846 1144.8 558.914 C 1143.94 559.624 1144.15 559.322 1142.69 559.498 C 1141.14 556.254 1141.15 554.4 1140.82 550.888 C 1137.01 509.545 1143.34 475.171 1170.28 442.665 z" fill="rgb(244,241,225)" transform="translate(0,0)"></path>
<path d="M 1049.04 699.126 C 1073.78 699.512 1085.79 706.335 1105.48 719.658 C 1098.75 727.668 1079.48 742.359 1070.64 749.532 C 1063.72 746.012 1056.83 740.546 1050.3 736.028 L 1049.43 736.899 L 1050.94 738.717 L 1058.43 745.261 C 1046.07 742.696 1033.48 742.523 1020.89 742.055 C 1026.64 733.14 1032.37 722.605 1039.2 714.815 C 1048.54 715.293 1057.82 715.32 1065.82 710.305 C 1064.22 709.947 1044.04 714.217 1039.33 714.629 C 1042.46 709.102 1045.08 704.145 1049.04 699.126 z" fill="rgb(244,241,225)" transform="translate(0,0)"></path>
<path d="M 1080.88 706.896 C 1079.13 719.215 1088.75 717.911 1093.2 729.709 C 1089.91 727.49 1078.52 716.983 1077.77 712.134 C 1077.43 709.925 1079.2 708.833 1080.88 706.896 z" fill="rgb(26,58,40)" transform="translate(0,0)"></path>
<path d="M 1067.43 729.952 C 1072.78 730.019 1078.24 734.52 1081.91 738.094 C 1076.84 737.179 1071.37 733.102 1067.43 729.952 z" fill="rgb(26,58,40)" transform="translate(0,0)"></path>
<path d="M 1025.1 580.788 C 1050.5 606.746 1046.23 672.069 1035.79 704.063 C 1031.61 695.973 1019.36 661.078 1017.1 651.167 C 1014.78 641.001 1018.82 601.213 1020.97 588.817 C 1021.34 586.697 1023.83 582.77 1025.1 580.788 z" fill="rgb(244,241,225)" transform="translate(0,0)"></path>
<path d="M 1232.63 501.341 C 1265.33 498.73 1287.1 503.156 1313.89 522.787 C 1299.28 525.917 1292.08 527.028 1277.18 527.195 C 1253.95 527.083 1216.04 520.064 1194.53 511.352 C 1207.49 504.947 1218.55 503.257 1232.63 501.341 z" fill="rgb(244,241,225)" transform="translate(0,0)"></path>
<path d="M 1014.65 654.519 C 1016.84 662.534 1019.37 670.453 1022.23 678.256 C 1025.85 688.161 1036.19 708.191 1033.51 718.104 C 1031.15 716.103 1024.17 698.773 1020.44 694.385 C 1019.74 698.44 1029.46 716.867 1031.69 721.44 C 1027.66 727.904 1024.35 733.403 1019.59 739.392 L 1012.43 725.622 L 1010.85 726.108 C 1013.59 731.476 1016.5 737.325 1019.4 742.59 C 1014.06 750.954 1008.04 763.596 1003.06 770.332 C 999.286 778.806 989.423 793.54 984.096 801.478 L 995.748 759.794 C 997.846 764.133 998.752 765.666 1001.53 769.603 C 1001.49 765.542 998.25 760.69 996.209 757.056 C 1003.42 729.768 1006.46 706.1 1011.18 679.026 L 1013.13 677.786 C 1013.43 677.199 1014.08 658.155 1014.65 654.519 z" fill="rgb(244,241,225)" transform="translate(0,0)"></path>
<path d="M 1010.85 726.108 C 1009.3 722.715 1007.98 721.303 1008.26 718 C 1010.79 719.803 1011.3 722.55 1012.43 725.622 L 1010.85 726.108 z" fill="rgb(26,58,40)" transform="translate(0,0)"></path>
<path d="M 1272.97 461.374 C 1294.94 458.297 1317.91 466.529 1334.9 480.185 C 1322.92 483.677 1312.98 484.006 1300.62 484.741 C 1278.16 484.207 1259.34 478.983 1237.89 472.822 C 1249.16 464.585 1259.4 462.705 1272.97 461.374 z" fill="rgb(244,241,225)" transform="translate(0,0)"></path>
<path d="M 1241.42 391.424 C 1245.52 394.231 1248.28 402.13 1248.79 406.923 C 1251.08 428.416 1246.87 453.431 1234.07 471.139 L 1232.83 471.35 C 1223.52 450.123 1227.75 409.98 1241.42 391.424 z" fill="rgb(244,241,225)" transform="translate(0,0)"></path>
<path d="M 1302.4 430.398 C 1322.18 426.998 1344.91 433.697 1359.27 447.735 C 1352.5 449.604 1345.93 450.858 1339.06 452.237 C 1324.59 453.906 1294.83 444.569 1282.13 436.663 C 1290.86 431.683 1292.27 431.283 1302.4 430.398 z" fill="rgb(244,241,225)" transform="translate(0,0)"></path>
<path d="M 1389.36 351.229 L 1390.45 351.281 L 1391.15 352.421 C 1379.95 378.318 1355.78 390.373 1330.12 397.855 L 1328.43 397.791 C 1328.51 394.979 1330.27 392.936 1331.98 390.529 C 1344.15 373.371 1368.39 354.452 1389.36 351.229 z" fill="rgb(244,241,225)" transform="translate(0,0)"></path>
<path d="M 1295.31 361.782 C 1305.13 378.569 1296.07 419.137 1282.82 432.627 L 1281.56 432.572 C 1279.33 429.924 1279.43 421.664 1279.18 417.961 C 1277.7 395.827 1283.3 379.732 1295.31 361.782 z" fill="rgb(244,241,225)" transform="translate(0,0)"></path>
<path d="M 956.988 880.569 C 961.713 887.713 967.71 898.489 965.484 907.393 C 963.244 916.357 954.789 917.839 947.22 920.07 C 944.347 921.14 944.165 921.236 941.141 921.345 C 941.118 920.458 955.612 884.325 956.988 880.569 z" fill="rgb(244,241,225)" transform="translate(0,0)"></path>
<path d="M 1042.77 879.418 L 1043.88 880.393 C 1041.52 883.962 1035.24 889.932 1030.82 888.454 C 1028.35 886.025 1026.51 884.81 1026.92 881.369 C 1029.9 879.19 1038.61 879.568 1042.77 879.418 z" fill="rgb(244,241,225)" transform="translate(0,0)"></path>
<path d="M 1041 698.244 C 1042.34 698.749 1042.87 699.124 1044.11 699.831 C 1044.21 703.311 1041.03 706.922 1038.9 710.077 L 1038.35 710.545 L 1037.36 710.111 C 1038.02 705.356 1039.25 702.691 1041 698.244 z" fill="rgb(244,241,225)" transform="translate(0,0)"></path>
<path d="M 1136.7 742.016 C 1169.73 734.034 1184.68 773.443 1156.92 779.845 C 1160.51 794.724 1161.05 812.877 1141.75 816.296 L 1142.07 833.727 C 1145.16 836.029 1147.17 839.808 1149.1 843.171 L 1147.06 844.968 C 1145.51 842.141 1144.85 841.584 1142.62 839.183 L 1141.81 836.665 C 1125.83 832.078 1128.22 836.481 1111.45 824.095 L 1111.7 820.977 C 1113.78 817.313 1114.18 803.231 1110.88 800.142 C 1108.72 800.757 1106.57 801.419 1104.43 802.127 C 1101.82 801.316 1102.73 802.092 1101.4 800.015 L 1103.09 798.447 C 1102.91 795.239 1098 791.085 1095.36 784.924 C 1095.51 781.484 1096.16 780.289 1094.6 777.723 L 1092.52 777.833 C 1092.01 773.601 1091.91 771.925 1090.36 767.82 L 1087.98 767.304 L 1085.47 767.231 C 1086.25 766.951 1086.94 766.69 1087.71 766.374 L 1088.58 766.011 C 1097.96 762.203 1095.91 744.742 1113.6 753.781 C 1120.33 748.081 1127.81 743.122 1136.7 742.016 z" fill="rgb(26,58,40)" transform="translate(0,0)"></path>
<path d="M 1109.35 791.455 C 1111.82 779.607 1116.78 786.826 1124.31 785.623 C 1126.99 780.253 1126.95 777.878 1133.09 777.085 C 1135.53 778.476 1135.47 778.401 1137.33 780.491 C 1143.78 778.64 1145.06 783.245 1154.26 781.203 L 1156.4 778.674 L 1156.92 779.845 C 1160.51 794.724 1161.05 812.877 1141.75 816.296 L 1142.07 833.727 L 1139.38 832.073 C 1131.07 834.354 1122.47 828.471 1116.1 823.868 C 1116.53 818.263 1118.82 800.61 1116 796.616 C 1112.25 795.276 1111.66 794.698 1109.35 791.455 z" fill="rgb(244,241,225)" transform="translate(0,0)"></path>
<path d="M 1154.26 781.203 L 1156.4 778.674 L 1156.92 779.845 C 1160.51 794.724 1161.05 812.877 1141.75 816.296 L 1142.07 833.727 L 1139.38 832.073 C 1139.11 827.645 1139.02 822.126 1138.86 817.838 C 1138.71 813.643 1130.53 818.66 1129.14 811.497 C 1130.98 810.933 1130.25 811.002 1132.22 811.352 L 1136.05 812.015 C 1147.18 813.874 1154.15 810.261 1155.51 797.91 C 1156.41 791.242 1155.47 787.717 1154.26 781.203 z" fill="rgb(2,3,2)" transform="translate(0,0)"></path>
<path d="M 1139.98 795.875 C 1143.41 794.149 1142.6 793.872 1145.64 794.418 C 1146.53 796.561 1146.41 796.441 1146.01 798.761 L 1146.93 799.509 L 1148.2 801.204 C 1146.2 802.889 1145.81 802.914 1143.42 803.706 C 1139.18 803.002 1140.35 803.805 1137.66 801.17 C 1137.98 797.537 1137.54 798.914 1139.98 795.875 z" fill="rgb(2,3,2)" transform="translate(0,0)"></path>
<path d="M 1139.98 795.875 C 1143.41 794.149 1142.6 793.872 1145.64 794.418 C 1146.53 796.561 1146.41 796.441 1146.01 798.761 C 1144.59 798.558 1143.66 798.954 1142.19 799.285 L 1141.23 798.352 C 1141.15 796.709 1141.28 797.515 1139.98 795.875 z" fill="rgb(26,58,40)" transform="translate(0,0)"></path>
<path d="M 1143.64 784.998 C 1148.05 784.32 1147.63 783.607 1150.79 785.608 C 1152.06 789.171 1152.35 791.436 1152.99 795.116 C 1151.18 798.209 1150.86 798.843 1148.2 801.204 L 1146.93 799.509 C 1150 797.674 1150.62 795.618 1150.68 792.21 C 1148.95 787.625 1148.1 787.188 1143.64 784.998 z" fill="rgb(121,122,119)" transform="translate(0,0)"></path>
<path d="M 1123.14 798.601 L 1124.27 798.231 L 1125.38 798.91 L 1124.93 800.67 L 1123.05 801.362 L 1122.11 800.622 L 1123.14 798.601 z" fill="rgb(2,3,2)" transform="translate(0,0)"></path>
<path d="M 1113.6 753.781 C 1120.33 748.081 1127.81 743.122 1136.7 742.016 C 1141.95 742.273 1143.72 743.152 1147.71 743.658 C 1130.99 745.773 1114.19 752.952 1117.99 773.151 L 1120.45 774.248 C 1120.27 776.24 1120.07 777.414 1120.37 779.429 C 1122.47 779.322 1123.25 778.889 1124.71 779.783 C 1124.2 782.86 1124.88 781.575 1122.52 783.723 C 1117.7 783.316 1107.84 781.539 1107.96 788.234 C 1107.98 789.099 1108.78 790.807 1109.35 791.455 C 1111.66 794.698 1112.25 795.276 1116 796.616 C 1118.82 800.61 1116.53 818.263 1116.1 823.868 C 1122.47 828.471 1131.07 834.354 1139.38 832.073 L 1142.07 833.727 C 1145.16 836.029 1147.17 839.808 1149.1 843.171 L 1147.06 844.968 C 1145.51 842.141 1144.85 841.584 1142.62 839.183 L 1141.81 836.665 C 1125.83 832.078 1128.22 836.481 1111.45 824.095 L 1111.7 820.977 C 1113.78 817.313 1114.18 803.231 1110.88 800.142 C 1108.72 800.757 1106.57 801.419 1104.43 802.127 C 1101.82 801.316 1102.73 802.092 1101.4 800.015 L 1103.09 798.447 C 1102.91 795.239 1098 791.085 1095.36 784.924 C 1095.51 781.484 1096.16 780.289 1094.6 777.723 L 1092.52 777.833 C 1092.01 773.601 1091.91 771.925 1090.36 767.82 L 1087.98 767.304 L 1085.47 767.231 C 1086.25 766.951 1086.94 766.69 1087.71 766.374 L 1088.58 766.011 C 1097.96 762.203 1095.91 744.742 1113.6 753.781 z" fill="url(#Gradient1)" transform="translate(0,0)"></path>
<path d="M 1086.87 145.733 C 1099.65 145.972 1099.42 161.755 1102.14 171.713 C 1106.43 187.381 1135.26 181.529 1139.25 193.886 C 1135.42 203.518 1111.29 204.346 1105.83 209.771 C 1099.52 216.034 1099.4 232.286 1093.27 241.473 C 1075.96 239.698 1083.06 219.824 1074.37 209.782 C 1068 202.43 1040.21 204.539 1041.48 191.748 C 1047.51 185.867 1064.67 183.033 1074.29 178.276 L 1075.36 177.736 C 1079.74 168.755 1081.12 155.025 1086.87 145.733 z" fill="rgb(245,158,11)" transform="translate(0,0)"></path>
<path d="M 793.139 105.664 C 807.044 107.521 806.739 128.667 813.259 141.585 C 821.205 144.771 846.037 147.85 847.453 154.564 C 842.792 164.484 816.273 164.416 812.077 170.304 C 806.652 177.917 808.797 190.073 800.329 200.235 C 799.67 200.187 799.012 200.126 798.355 200.053 C 783.669 198.347 787.234 177.314 781.931 171.181 C 775.907 164.215 753.107 162.952 747.348 155.511 C 746.821 146.166 769.552 146.406 775.431 141.961 C 786.255 133.776 785.825 116.607 793.139 105.664 z" fill="rgb(245,158,11)" transform="translate(0,0)"></path>
<path d="M 1171.84 260.459 C 1183.65 262.532 1183.3 278.832 1187.47 287.967 C 1192.49 299.003 1218.92 296.848 1223.41 307.97 C 1220.36 318.552 1199.12 314.662 1190.64 322.997 C 1181.83 331.658 1184.42 341.969 1177.07 352.84 C 1173.91 353.648 1173.58 353.94 1170.75 352.747 C 1165.08 347.051 1163.22 331.795 1159.93 322.554 C 1152.44 318.793 1127.4 314.866 1126.04 307.793 C 1131.65 301.455 1149.06 296.959 1158.19 293.305 C 1164.71 281.197 1163.28 269.179 1171.84 260.459 z" fill="rgb(245,158,11)" transform="translate(0,0)"></path>
<path d="M 1238.93 163.692 C 1254.43 167.037 1247.93 183.426 1256.22 194.312 C 1262.38 202.387 1291.32 203.315 1288.88 212.945 C 1283.44 217.873 1275.67 218.848 1268.64 220.638 C 1248.69 225.716 1254.75 238.493 1245.24 255.124 C 1229.24 255.246 1235.02 235.043 1226.25 225.221 C 1219.68 217.862 1194.03 219.616 1194.45 209.318 C 1200.49 202.362 1216.99 201.117 1226.28 195.043 L 1227.15 194.466 C 1231.51 183.758 1231.63 173.523 1238.93 163.692 z" fill="rgb(245,158,11)" transform="translate(0,0)"></path>
<path d="M 1087.98 767.304 L 1090.36 767.82 C 1091.91 771.925 1092.01 773.601 1092.52 777.833 L 1094.6 777.723 C 1096.16 780.289 1095.51 781.484 1095.36 784.924 C 1084.79 773.811 1042.84 771.785 1028.56 774.519 L 1028.64 771.84 C 1036.03 771.558 1064.84 770.133 1070.16 771.864 C 1075.1 773.147 1078.68 774.962 1082.94 773.177 C 1083.83 771.214 1084.67 769.231 1085.47 767.231 L 1087.98 767.304 z" fill="rgb(26,58,40)" transform="translate(0,0)"></path>
<path d="M 1087.98 767.304 L 1090.36 767.82 C 1091.91 771.925 1092.01 773.601 1092.52 777.833 C 1088.28 776.836 1088.13 776.804 1086.06 774.058 C 1085.96 770.682 1086.31 770.407 1087.98 767.304 z" fill="rgb(244,241,225)" transform="translate(0,0)"></path>
<path d="M 1629.18 1254.34 C 1634.71 1253.94 1643.2 1252.74 1647.96 1255.11 L 1649.03 1258.67 C 1644.14 1259.03 1636.02 1260.06 1631.53 1258.43 C 1629.83 1257.81 1629.97 1256.61 1629.18 1254.34 z" fill="rgb(83,104,74)" transform="translate(0,0)"></path>
<path d="M 1049.39 822.813 C 1054.91 824.892 1063.76 837.283 1068.11 842.69 C 1061.41 841.164 1052.85 828.593 1049.39 822.813 z" fill="rgb(2,3,2)" transform="translate(0,0)"></path>
<path d="M 1018.28 782.717 C 1022.23 786.334 1022.79 800.704 1022.72 806.113 C 1022.14 805.863 1021.13 805.062 1020.57 804.655 C 1018.94 797.697 1018.73 789.902 1018.28 782.717 z" fill="rgb(2,3,2)" transform="translate(0,0)"></path>
<path d="M 1051.81 783.454 C 1056.26 785.824 1056.33 798.915 1056.61 803.806 C 1053.33 801.953 1052.34 787.545 1051.81 783.454 z" fill="rgb(26,58,40)" transform="translate(0,0)"></path>
<path d="M 1084.68 814.644 C 1086.27 815.481 1092.52 827.507 1094.34 830.449 C 1093.36 830.255 1091.95 829.713 1090.96 829.379 C 1086.82 824.716 1085.01 820.94 1084.68 814.644 z" fill="rgb(26,58,40)" transform="translate(0,0)"></path>
<path d="M 1034.21 829.532 C 1038.48 831.539 1041.95 838.685 1044.14 842.891 L 1041.87 842.511 C 1037.1 838.636 1036.02 835.145 1034.21 829.532 z" fill="rgb(26,58,40)" transform="translate(0,0)"></path>
<path d="M 1006.21 824.539 C 1011.23 826.747 1011.9 828.434 1013.66 833.373 C 1009.52 831.926 1008.2 828.319 1006.21 824.539 z" fill="rgb(2,3,2)" transform="translate(0,0)"></path>
<path d="M 1022.03 767.617 L 1023.41 767.212 L 1024.41 768.427 L 1023.47 769.707 C 1022.27 770.048 1022.82 769.908 1021.31 769.43 L 1022.03 767.617 z" fill="rgb(2,3,2)" transform="translate(0,0)"></path>
<path d="M 1028.56 774.519 L 1025.56 773.636 L 1025.69 772.506 L 1028.64 771.84 L 1028.56 774.519 z" fill="rgb(80,82,77)" transform="translate(0,0)"></path>
<metadata><recraft-signature>{"signed_by": "recraft", "signature_b64": "2PxxmRzqktD2rgU8qv2qBtZbL03NWbdPcsDzt03vdzXvBgeC8L0+qxlb5TD1oyNaJZ7qqHxuuFgvQIQolye9Aw==", "signing_algo": "Ed25519", "generation_timestamp": 1780475853, "identifier": "571df4b4-1c08-409e-9a3f-598475c9508c"}</recraft-signature></metadata></svg>