<svg xmlns="http://www.w3.org/2000/svg" height="1024" preserveAspectRatio="none" style="display: block;" version="1.1" viewBox="0 0 2048 1365" width="1536">
<path d="M 0 0 L 2048 0 L 2048 1365 L 0 1365 L 0 0 z" fill="rgb(244,241,225)" transform="translate(0,0)"></path>
<path d="M 1612.99 94.6806 C 1621.39 106.417 1630.18 118.977 1639.79 129.754 C 1701.72 199.257 1788.11 247.66 1873.59 282.421 C 1894.88 291.077 1917.91 297.013 1937.62 304.978 C 1933.89 451.627 1885.03 596.609 1791.5 710.519 C 1800.63 718.363 1810.49 724.828 1819.83 732.305 C 1885.65 784.991 1938.41 867.329 1944.73 952.801 C 1950.99 1035.19 1924.26 1116.69 1870.41 1179.36 C 1867.19 1183.06 1860.84 1190.54 1856.56 1192.19 C 1870.85 1210.05 1888.44 1233.28 1893.6 1256.02 C 1905.7 1256.34 1960 1255.61 1965.95 1258.41 L 1966.89 1260.06 C 1965.43 1262.89 1962.12 1265.5 1958.97 1265.4 C 1941.38 1264.82 1923.32 1264.97 1905.76 1265.02 L 1655.9 1265.25 L 426.132 1264.68 L 179.261 1264.93 L 109.982 1264.79 C 100.311 1264.79 78.4113 1266.47 70.6911 1263.14 L 69.2922 1261.19 C 70.4028 1258.13 69.5087 1259.41 72.2793 1257.36 C 82.3284 1256.01 101.903 1256.5 112.857 1256.61 C 126.365 1256.75 142.985 1256.23 156.147 1256.92 C 164 1236.38 168.464 1228.35 179.792 1209.08 C 52.7362 1036.79 87.0028 802.784 236.138 656.22 C 245.431 647.087 280.203 608.49 291.803 607.978 C 294.796 603.27 302.364 586.46 304.909 580.896 C 312.736 563.751 320.461 546.561 328.084 529.325 C 331.154 522.418 336.753 508.598 341.005 503.059 L 343.037 502.92 C 349.201 508.111 359.62 540.025 365.882 551.179 C 389.13 530.976 420.11 513.609 445.24 495.156 C 495.79 458.036 544.053 426.601 605.358 409.993 C 651.275 397.554 679.01 396.51 727.092 403.368 L 726.981 276.713 C 700.906 280.81 694.683 286.571 697.849 258.293 C 698.581 251.759 695.435 246.84 698.708 239.295 C 703.05 235.272 736.1 232.727 743.808 231.471 C 759.954 228.84 777.608 227.758 793.864 225.527 L 978.78 200.184 C 1016.85 195.073 1054.49 190.621 1092.6 184.954 C 1101.82 181.239 1113.56 180.388 1123.32 178.819 C 1169.64 171.366 1218.75 178.518 1261.96 197.04 C 1303.85 214.998 1335.43 243.954 1365.53 277.757 C 1459.74 236.372 1554.54 182.01 1612.99 94.6806 z" fill="rgb(26,58,40)" transform="translate(0,0)"></path>
<path d="M 1791.5 710.519 C 1800.63 718.363 1810.49 724.828 1819.83 732.305 C 1885.65 784.991 1938.41 867.329 1944.73 952.801 C 1950.99 1035.19 1924.26 1116.69 1870.41 1179.36 C 1867.19 1183.06 1860.84 1190.54 1856.56 1192.19 C 1845.03 1177.43 1819.35 1156.73 1804.17 1145.13 L 1804.25 1085.61 C 1815 1084.67 1826.46 1082.09 1835.96 1077.01 C 1903.76 1040.76 1868.86 974.412 1844.5 925.816 C 1851.49 925.929 1857.83 925.69 1864.8 925.41 C 1848.28 887.837 1823.08 838.596 1804.12 801.319 C 1801.15 799.709 1802.51 799.983 1799.11 800.46 C 1777.76 839.182 1760.27 881.734 1738.11 920.389 C 1737.14 922.082 1737.98 923.325 1738.74 924.777 C 1742.88 927.049 1749.88 926.139 1755.01 926.054 C 1751.13 934.709 1747.31 943.644 1743.5 952.253 C 1728.15 986.873 1711.05 1018.43 1736.2 1054.14 C 1750.61 1074.59 1771.43 1082.66 1795.55 1086.93 C 1795.68 1104.98 1795.53 1123.04 1795.1 1141.08 C 1773.28 1127.17 1745.74 1117.85 1720.06 1114.72 C 1706.14 1096.75 1679.11 1056.88 1667.89 1036.19 C 1674.12 1038.42 1681.95 1042.77 1687.35 1037.89 C 1688.16 1032 1642.03 954.757 1635.99 946.087 C 1633.04 944.767 1631.43 946.253 1630.06 949.13 C 1615.81 979.03 1597.68 1007.43 1582.5 1036.67 C 1585.42 1043.45 1596.29 1037.83 1601.82 1035.94 C 1594.77 1047.1 1554.12 1106.82 1555.26 1114.39 C 1560.8 1116.9 1572.54 1111.89 1578.68 1109.87 C 1573 1120.5 1567.13 1131.03 1561.09 1141.46 C 1500.78 1115.01 1453.95 1117.15 1393.47 1137.31 C 1393.82 1113.03 1394 1088.75 1394 1064.46 C 1412.31 1062.95 1433.99 1055.84 1450.6 1047.99 C 1521.69 1014.4 1554.04 934.086 1527.13 860.144 C 1514.95 826.669 1498.99 791.586 1482.32 758.397 C 1523.75 796.344 1562.59 823.838 1615.08 845.201 C 1683.41 814.38 1743.76 768.306 1791.5 710.519 z" fill="rgb(246,216,143)" transform="translate(0,0)"></path>
<path d="M 179.792 1209.08 C 52.7362 1036.79 87.0028 802.784 236.138 656.22 C 245.431 647.087 280.203 608.49 291.803 607.978 C 287.968 616.173 273.772 644.72 273.062 652.162 C 276.331 655.238 299.958 653.876 305.945 653.819 C 291.985 678.067 278.68 702.388 265.898 727.276 C 260.475 737.835 243.235 765.792 240.193 775.943 C 243.772 783.645 269.774 776.241 277.258 778.563 C 277.357 783.086 266.306 802.47 263.412 808.472 C 256.959 821.852 251.07 835.261 245.24 848.911 C 238.879 863.805 230.8 879.976 226.729 895.631 C 215.586 938.481 226.673 982.076 259.293 1012.73 C 272.408 1025.06 290.553 1035.54 308.09 1039.89 C 315.448 1041.71 324.044 1042.65 331.003 1044.74 C 331.079 1054.53 332.486 1122.52 330.154 1126.3 C 311.904 1128.92 306.501 1127.88 286.122 1133.45 C 246.525 1144.27 208.211 1170.84 183.824 1203.59 L 179.792 1209.08 z" fill="rgb(246,216,143)" transform="translate(0,0)"></path>
<path d="M 365.882 551.179 C 389.13 530.976 420.11 513.609 445.24 495.156 C 495.79 458.036 544.053 426.601 605.358 409.993 C 651.275 397.554 679.01 396.51 727.092 403.368 C 727.056 455.631 726.166 510.55 727.142 562.611 C 661.826 564.396 594.144 569.253 528.591 572.549 L 452.046 576.404 C 439.861 577.034 427.297 577.538 415.126 578.52 C 407.788 579.112 408.922 588.292 408.889 593.476 C 408.865 597.406 408.847 602.25 409.033 606.415 C 409.167 609.412 408.731 613.228 411.62 615.388 C 413.22 616.47 414.631 618.221 414.583 620.311 C 414.375 629.38 414.133 638.432 414.095 647.517 L 413.961 714.822 C 402.885 694.625 391.53 674.583 379.898 654.701 C 386.381 654.857 404.034 656.076 409.017 653.208 C 410.248 645.507 393.432 612.912 389.521 604.449 C 381.499 586.756 373.62 568.999 365.882 551.179 z" fill="rgb(246,216,143)" transform="translate(0,0)"></path>
<path d="M 566.011 473.296 C 576.172 473.488 574.12 482.193 573.701 489.636 C 579.52 489.661 593.991 489.159 590.269 499.326 C 587.014 501.566 583.964 501.799 580.055 502.462 C 567.951 504.518 577.551 508.439 571.442 517.581 C 569.946 517.62 567.989 517.387 566.455 517.261 C 559.682 512.748 564.042 511.27 562.147 503.344 C 558.95 501.663 554.46 502.465 549.981 502.156 C 548.244 500.986 547.427 501.039 547.12 498.852 C 545.781 489.295 556.348 489.652 562.555 488.942 C 562.486 482.126 561.727 478.596 566.011 473.296 z" fill="rgb(245,158,11)" transform="translate(0,0)"></path>
<path d="M 1092.6 184.954 C 1101.82 181.239 1113.56 180.388 1123.32 178.819 C 1169.64 171.366 1218.75 178.518 1261.96 197.04 C 1303.85 214.998 1335.43 243.954 1365.53 277.757 C 1339.75 288.289 1319.34 296.021 1292.55 303.57 L 1292.07 317.159 C 1278.16 306.746 1258.77 294.628 1243.97 284.717 C 1210.18 261.967 1176.14 239.584 1141.87 217.572 C 1133.69 212.3 1098.43 187.673 1092.6 184.954 z" fill="rgb(246,216,143)" transform="translate(0,0)"></path>
<path d="M 1079.14 230.585 L 1082.04 230.646 C 1082.4 231.085 1082.77 231.524 1083.13 231.963 C 1083.06 278.489 1083.19 346.627 1083.3 390.924 L 1083.14 1218.66 C 1059.76 1219.38 1035.58 1218.64 1012.09 1218.86 C 951.456 1219.43 890.375 1218.27 829.785 1219.13 C 829.283 1213.79 829.723 1203.46 829.797 1197.75 C 828.684 1142.95 829.873 1084.52 829.891 1029.36 C 834.844 1029.4 845.999 1030.31 849.552 1027.19 C 854.464 1022.89 853.354 1001.48 849.434 996.533 C 839.984 994.753 744.405 995.106 735.238 996.397 C 735.759 990.023 735.247 978.068 735.211 971.139 L 735.184 926.865 L 734.921 768.922 L 734.959 275.197 C 849.778 261.059 964.506 246.188 1079.14 230.585 z" fill="rgb(244,241,225)" transform="translate(0,0)"></path>
<path d="M 872.698 293.411 C 893.462 291.268 914.245 297.303 930.633 310.233 C 992.938 359.656 948.249 453.545 875.318 461.281 C 856.967 463.436 838.889 459.151 823.814 448.328 C 807.197 436.416 795.964 418.416 792.565 398.255 C 784.324 347.901 823.363 301.254 872.698 293.411 z" fill="rgb(26,58,40)" transform="translate(0,0)"></path>
<path d="M 872.804 302.224 C 912.296 299.06 942.465 321.16 949.649 360.324 C 957.909 405.355 919.069 445.56 876.869 452.716 C 860.343 454.434 844.167 452.017 830.486 442.429 C 785.626 410.988 794.006 349.838 834.468 318.519 C 847.516 308.418 857.074 305.196 872.804 302.224 z" fill="rgb(13,150,104)" transform="translate(0,0)"></path>
<path d="M 873.693 320.618 C 876.342 320.93 880.123 320.219 883.001 320.141 C 901.715 319.637 897.109 338.004 897.523 353.894 C 905.588 352.591 922.724 347.715 928.344 354.487 C 930.154 360.381 931.012 378.903 930.366 385.011 C 928.413 403.471 909.967 392.892 900.94 399.02 C 897.13 401.607 897.218 421.159 896.857 427.322 C 888.88 429.997 881.478 430.936 873.227 431.898 C 846.802 434.205 850.235 426.263 850.188 402.815 C 842.7 403.363 830.512 406.658 823.954 404.462 C 815.43 401.608 818.239 368.841 821.561 362.514 C 823.542 358.742 844.322 357.755 849.913 356.64 C 850.088 348.903 849.206 340.543 849.862 332.951 C 850.898 320.966 864.412 321.888 873.693 320.618 z" fill="rgb(26,58,40)" transform="translate(0,0)"></path>
<path d="M 882.385 328.41 C 896.59 326.206 884.363 350.248 891.008 360.491 C 896.86 364.163 912.305 360.181 920.805 359.015 C 921.037 368.39 920.837 377.394 920.641 386.767 C 889.353 391.664 888.535 383.94 888.884 420.665 C 880.715 422.232 873.48 422.761 865.221 423.483 C 862.537 424.224 862.667 424.278 859.964 423.791 C 856.185 419.576 858.835 405.031 858.121 397.434 C 851.979 387.613 835.45 400.791 827.758 396.126 C 826.577 391.124 827.011 374.73 827.034 368.716 C 869.51 365.276 855.895 368.411 858.817 329.996 C 865.372 329.97 875.58 328.93 882.385 328.41 z" fill="rgb(245,158,11)" transform="translate(0,0)"></path>
<path d="M 1015.69 1022.48 C 1021.17 1022.24 1027.14 1021.31 1032.34 1022.64 C 1033.52 1024.14 1034.01 1026.83 1034.03 1029.46 C 1034.34 1062.01 1035.05 1095.46 1033.63 1127.93 C 1033.13 1128.51 1032.64 1129.1 1032.14 1129.68 C 1021.88 1133.29 911.508 1134.9 892.764 1135.43 C 889.166 1135.86 885.427 1135.84 881.926 1136.05 C 859.983 1137.32 861.608 1135.36 861.776 1115.21 C 861.988 1089.9 862.027 1064.17 861.786 1038.83 C 861.76 1036.16 862.821 1033.06 864.117 1030.77 C 868.454 1027.38 908.636 1026.97 917.594 1026.6 C 950.284 1025.05 982.983 1023.67 1015.69 1022.48 z" fill="rgb(26,58,40)" transform="translate(0,0)"></path>
<path d="M 963.673 1033.57 C 968.111 1033.24 970.356 1032.87 974.733 1033.77 C 975.721 1038.5 975.26 1058.52 975.248 1064.34 C 975.359 1084.49 975.321 1104.64 975.133 1124.8 L 936.751 1125.26 C 934.045 1125.54 933.134 1125.83 930.586 1125.1 C 928.634 1120.67 928.372 1038.42 930.671 1035.61 C 937.331 1033.78 956.185 1033.76 963.673 1033.57 z" fill="rgb(245,158,11)" transform="translate(0,0)"></path>
<path d="M 1017.97 1031.48 C 1020.48 1031.08 1022.92 1030.68 1024.87 1032.22 C 1025.53 1036.39 1025.56 1040.59 1025.55 1044.81 C 1025.48 1070.84 1026.55 1096.93 1025.75 1122.96 C 1014.92 1122.96 1005.82 1123.09 995.035 1123.83 L 984.792 1124.14 C 985.672 1094.18 984.389 1063.15 985.113 1032.94 C 995.759 1032.72 1007.26 1031.97 1017.97 1031.48 z" fill="rgb(13,150,104)" transform="translate(0,0)"></path>
<path d="M 898.689 1035.15 C 901.785 1036.16 916.357 1035.16 921.237 1035.07 C 921.015 1063.17 922.139 1098.56 920.746 1125.83 C 913.213 1126.92 905.607 1126.88 897.992 1127.03 C 898.075 1096.37 898.883 1065.8 898.689 1035.15 z" fill="rgb(13,150,104)" transform="translate(0,0)"></path>
<path d="M 870.219 1037.14 L 889.425 1036.93 C 887.719 1064.76 889.486 1098.22 888.857 1126.99 C 884.44 1126.61 875.193 1126.93 870.149 1126.83 L 870.219 1037.14 z" fill="rgb(245,158,11)" transform="translate(0,0)"></path>
<path d="M 887.503 510.427 C 891.097 509.887 897.266 508.777 898.431 512.795 C 901.843 524.555 900.165 545.798 899.787 557.615 C 899.311 572.482 902.166 602.28 898.613 615.092 C 890.408 619.035 811.661 623.293 796.753 624.087 C 792.299 624.491 789.912 625.499 787.117 621.567 C 785.399 611.293 785.51 528.114 787.832 520.11 C 794.121 515.891 874.272 511.401 887.503 510.427 z" fill="rgb(26,58,40)" transform="translate(0,0)"></path>
<path d="M 820.962 523.62 C 826.643 523.075 832.69 522.921 838.418 522.674 C 840.168 545.496 838.855 588.646 838.803 612.89 C 828.396 613.258 816.274 614.427 805.751 615.196 C 803.686 615.128 797.134 615.734 794.766 615.899 C 794.496 611.64 794.413 607.403 794.546 603.139 C 795.351 577.194 794.201 551.111 794.794 525.197 C 803.297 524.829 812.567 524.646 820.962 523.62 z" fill="rgb(245,158,11)" transform="translate(0,0)"></path>
<path d="M 879.553 519.595 C 883.344 519.246 887.012 518.488 890.468 519.76 C 891.439 527.442 891.049 542.889 891.054 551.24 L 890.987 608.74 C 879.121 609.516 867.802 610.604 855.773 611.223 C 852.635 611.708 850.327 612.489 847.563 611.203 C 846.619 604.547 847.09 587.442 847.118 580.013 L 847.343 521.192 C 858.086 520.799 868.824 520.267 879.553 519.595 z" fill="rgb(245,158,11)" transform="translate(0,0)"></path>
<path d="M 1021.32 500.498 C 1027.05 499.792 1029.32 498.508 1033.51 502.856 C 1034.35 514.618 1034.09 602.263 1031.88 606.068 C 1024.79 610.134 947.636 613.348 933.588 614.769 C 929.683 614.917 925.911 615.568 922.647 613.78 C 920.424 609.672 920.666 518.668 922.596 510.015 C 929.48 505.457 1007.73 501.239 1021.32 500.498 z" fill="rgb(26,58,40)" transform="translate(0,0)"></path>
<path d="M 967.903 513.497 C 970.077 512.965 972.214 513.268 974.472 513.399 C 975.464 517.995 975.073 536.766 975.084 542.483 C 975.1 562.631 975.218 582.78 975.437 602.927 C 964.17 604.593 943.334 605.591 931.795 606.201 L 930.806 605.984 C 930.392 605.518 929.978 605.053 929.564 604.587 C 928.784 580.349 931.028 538.338 929.148 515.869 C 941.594 514.764 955.339 514.237 967.903 513.497 z" fill="rgb(245,158,11)" transform="translate(0,0)"></path>
<path d="M 1010.21 509.423 L 1024.91 508.436 L 1024.78 598.802 C 1015.89 599.748 1007.15 600.812 998.215 601.068 L 984.937 602.099 C 985.016 583.426 984.906 564.753 984.606 546.082 C 984.473 535.63 983.847 521.263 985.038 511.337 C 993.082 510.991 1002.1 510.079 1010.21 509.423 z" fill="rgb(13,150,104)" transform="translate(0,0)"></path>
<path d="M 886.96 854.589 C 889.772 854.768 891.359 854.386 895.232 854.785 C 899.541 857.829 899.647 868.882 899.051 873.626 C 896.812 891.433 902.529 947.669 896.995 960.238 C 891.678 963.748 808.47 965.877 795.226 966.376 C 791.42 967.739 788.761 966.634 786.637 963.449 C 784.401 945.098 786.868 921.773 786.557 902.867 C 786.418 894.421 784.787 867.378 788.441 861.332 C 796.194 857.27 873.373 855.533 886.96 854.589 z" fill="rgb(26,58,40)" transform="translate(0,0)"></path>
<path d="M 888.302 863.508 L 889.485 863.454 C 891.281 865.773 890.416 876.851 890.398 880.629 C 890.275 905.328 890.086 930.03 889.892 954.729 C 878.697 954.274 863.868 955.141 852.733 956.013 C 849.858 955.884 848.134 956.352 846.297 954.809 C 845.285 945.378 845.835 930.179 845.874 920.347 L 845.857 865.126 C 859.752 865.19 874.368 864.213 888.302 863.508 z" fill="rgb(245,158,11)" transform="translate(0,0)"></path>
<path d="M 814.491 866.558 L 837.422 865.499 C 838.056 895.434 837.756 926.675 837.974 956.769 C 829.805 956.856 821.418 957.161 813.232 957.362 C 811.047 957.987 797.647 958.689 794.529 958.901 C 794.85 928.324 794.927 897.746 794.761 867.168 C 800.848 867.128 808.584 867.304 814.491 866.558 z" fill="rgb(245,158,11)" transform="translate(0,0)"></path>
<path d="M 1019.55 848.537 L 1030.38 848.124 C 1038.04 852.091 1032.02 930.943 1034.22 943.696 C 1034.61 945.962 1033.51 951.372 1032.48 953.628 C 1025.84 957.358 946.894 959.994 933.458 960.564 C 929.525 960.724 926.4 961.303 923.003 959.551 C 919.939 954.515 921.359 867.479 921.998 854.351 C 946.25 850.643 992.687 850.257 1019.55 848.537 z" fill="rgb(26,58,40)" transform="translate(0,0)"></path>
<path d="M 961.387 860.423 L 975.443 859.634 C 974.285 887.495 975.062 921.726 975.23 949.883 C 963.013 950.154 949.069 951.345 936.753 952.113 C 933.874 952.403 933.312 952.554 930.509 952.061 C 927.675 947.667 929.836 872.552 930.07 861.705 C 940.474 861.423 951.024 861.248 961.387 860.423 z" fill="rgb(245,158,11)" transform="translate(0,0)"></path>
<path d="M 997.693 858.582 C 1007.06 857.969 1016.45 857.658 1025.84 857.65 C 1025.31 869.42 1025.46 943.528 1023.86 945.929 C 1019.46 947.424 1016.09 947.45 1011.48 947.779 C 1005.58 947.37 989.442 949.386 985.471 947.558 C 984.824 943.716 984.659 940.182 984.723 936.291 C 985.144 910.628 984.124 884.684 985.115 859.055 C 989.298 859.084 993.511 858.798 997.693 858.582 z" fill="rgb(13,150,104)" transform="translate(0,0)"></path>
<path d="M 878.62 682.489 C 883.788 681.424 894.446 681.04 898.493 684.722 C 900.056 694.189 899.838 777.863 897.587 787.823 C 892.101 791.161 822.173 793.06 810.248 793.592 C 805.547 792.944 788.015 796.566 787.739 791.935 C 786.941 778.54 784.812 697.358 788.188 689.82 C 792.572 686.032 814.238 686.216 820.99 685.858 C 840.211 684.937 859.422 683.814 878.62 682.489 z" fill="rgb(26,58,40)" transform="translate(0,0)"></path>
<path d="M 868.231 691.552 C 876.151 690.864 883.12 690.951 891.045 690.974 C 890.465 720.847 890.127 750.724 890.033 780.602 L 869.25 781.81 C 861.875 782.091 854.504 782.457 847.138 782.908 C 845.768 758.697 846.446 716.792 847.031 692.378 C 852.43 692.798 862.797 692.347 868.231 691.552 z" fill="rgb(13,150,104)" transform="translate(0,0)"></path>
<path d="M 817.127 694.42 C 823.166 693.86 831.67 693.887 837.901 693.718 C 837.715 722.515 837.117 755.556 838.246 784.077 C 831.328 783.998 825.683 784.067 818.721 784.426 C 811.119 784.921 803.522 785.478 795.93 786.098 C 795.524 756.382 796.068 725.213 796.14 695.367 C 803.139 695.126 810.135 694.81 817.127 694.42 z" fill="rgb(13,150,104)" transform="translate(0,0)"></path>
<path d="M 1018.14 675.523 C 1022.74 675.319 1028.12 674.267 1031.75 676.235 C 1036.45 681.637 1032.21 748.459 1033.47 759.062 C 1034.11 764.451 1036.86 782.454 1028.23 782.75 C 1016.33 783.159 1003.79 783.739 991.717 784.218 C 974.751 785.028 957.794 786.031 940.85 787.227 C 935.162 787.898 925.909 789.417 921.618 785.434 C 920.222 775.525 921.327 691.625 923.151 682.503 C 926.852 679.502 1005.91 676.44 1018.14 675.523 z" fill="rgb(26,58,40)" transform="translate(0,0)"></path>
<path d="M 960.518 687.532 C 965.292 687.136 970.628 687.077 975.464 686.923 C 974.767 716.699 975.902 747.021 974.869 776.803 C 965.506 776.814 956.103 777.633 946.76 778.312 C 941.934 778.978 934.166 779.185 929.101 779.475 C 929.312 767.793 928.835 694.988 931.237 689.04 C 936.76 687.842 954.009 687.717 960.518 687.532 z" fill="rgb(245,158,11)" transform="translate(0,0)"></path>
<path d="M 1019.29 684.445 C 1021.18 684.248 1021.92 684.37 1023.79 684.481 C 1025.97 688.074 1025.01 763.634 1025.12 773.746 C 1014.99 774.112 1002.03 774.64 992.056 775.626 C 989.477 775.507 987.124 775.714 985.04 774.278 C 983.738 767.546 984.849 749.707 984.852 741.491 C 984.858 723.301 985.137 705.135 983.899 686.938 C 995.682 685.925 1007.48 685.094 1019.29 684.445 z" fill="rgb(13,150,104)" transform="translate(0,0)"></path>
<path d="M 1031.61 292.235 L 1033.79 293.965 C 1038.2 303.392 1032.7 380.985 1035.01 397.431 C 1035.54 401.225 1035.42 429.476 1033.49 430.44 C 1027.61 433.367 998.636 435.671 992.326 434.66 C 990.825 429.625 991.276 401.195 991.259 393.948 C 991.146 361.6 991.253 329.252 991.581 296.905 C 1003.36 296.264 1019.59 293.835 1031.61 292.235 z" fill="rgb(26,58,40)" transform="translate(0,0)"></path>
<path d="M 1024.21 302.794 L 1025.15 302.555 C 1027.48 307.536 1024.02 406.002 1026.16 423.521 C 1018.05 424.087 1009.29 425.3 1001.11 426.113 C 999.575 422.02 999.252 316.171 999.989 305.896 C 1005.19 303.001 1017.76 303.057 1024.21 302.794 z" fill="rgb(13,150,104)" transform="translate(0,0)"></path>
<path d="M 1612.54 109.541 C 1617.14 112.815 1630.43 131.147 1635.42 136.667 C 1713.27 222.778 1820.41 274.446 1928.72 310.623 C 1928.85 332.457 1926.02 358.339 1923.25 379.988 C 1899.72 563.803 1791.41 759.916 1615.56 836.155 C 1612.15 835.981 1599.59 829.895 1595.85 828.001 C 1557.1 808.208 1521.17 783.336 1489 754.042 C 1396.32 670.475 1330.61 529.149 1309.52 407.424 C 1303.92 375.055 1301.66 342.043 1299.95 309.33 C 1323.96 303.404 1350.04 292.698 1372.92 283.08 C 1462.16 245.569 1554.94 188.993 1612.54 109.541 z" fill="rgb(244,241,225)" transform="translate(0,0)"></path>
<path d="M 1611.4 166.306 C 1612.21 166.388 1612.54 166.388 1613.27 166.561 C 1614.57 166.871 1654.91 206.722 1662.03 212.496 C 1708.68 250.009 1759.79 281.596 1814.21 306.535 C 1826.83 312.222 1838.46 317.374 1852.1 322.961 C 1859.66 326.058 1882.96 332.02 1888.39 337.873 C 1890.16 339.777 1888.84 353.793 1888.56 357.719 C 1885.58 399.547 1875.44 442.965 1862.66 482.91 C 1848.19 528.323 1828.43 571.88 1803.8 612.685 C 1755.69 693.118 1701.81 749.451 1617.43 792.794 C 1616.96 793.121 1616.58 793.467 1616.14 793.467 C 1605.29 793.463 1572.71 771.742 1564.93 766.423 C 1444.47 684.005 1371.98 545.241 1346.83 403.965 C 1345.05 393.995 1336.97 337.499 1341.17 335.516 C 1354.48 329.235 1400.64 312.226 1415.88 304.881 C 1474.2 276.773 1527.52 246.617 1575.88 203.287 C 1588.17 192.278 1602.1 179.882 1611.4 166.306 z" fill="rgb(26,58,40)" transform="translate(0,0)"></path>
<path d="M 1613.46 177.947 C 1616.31 180.076 1627.8 192.401 1631.18 195.736 C 1641.57 205.975 1652.5 215.662 1663.91 224.759 C 1730.46 278.069 1800.6 313.581 1880.4 342.066 C 1880.77 353.186 1879.98 362.883 1878.57 373.98 C 1865.86 474.064 1826.26 570.502 1768.39 652.817 C 1729 708.839 1675.02 752.878 1615.36 785.054 C 1606.93 785.225 1558.5 752.075 1550.37 745.728 C 1430.43 652.055 1355.86 491.869 1348.45 340.744 C 1438.87 314.645 1549.3 246.198 1613.46 177.947 z" fill="rgb(245,158,11)" transform="translate(0,0)"></path>
<path d="M 1731.19 379.271 C 1749.6 379.269 1761.1 391.885 1763.3 409.658 C 1764.49 418.864 1762.07 428.173 1756.56 435.643 C 1748.83 446.068 1733.4 457.775 1723.94 466.963 C 1681.89 507.433 1644.54 551.569 1611.71 599.796 C 1583.97 640.544 1548.38 597.864 1524.63 578.021 C 1510.07 565.273 1491.77 555.944 1489.19 536.072 C 1487.88 526.491 1490.52 516.788 1496.51 509.196 C 1501.67 502.69 1509.28 498.593 1517.55 497.866 C 1536.98 496.147 1559.86 520.107 1575.1 533.132 C 1603.28 492.487 1686.46 394.344 1731.19 379.271 z" fill="rgb(26,58,40)" transform="translate(0,0)"></path>
<path d="M 1728.32 388.301 C 1732.42 388.644 1735.01 387.837 1739.3 389.542 C 1751.93 394.556 1759.3 411.348 1753.81 423.778 C 1749.04 431.956 1741.15 439.31 1734.46 445.638 C 1715.17 463.887 1695.36 481.813 1677.65 501.606 C 1658.97 522.504 1641.28 544.259 1624.63 566.8 C 1616.45 577.828 1609.16 589.73 1600.69 600.373 C 1597.3 604.616 1589.05 606.998 1583.96 608.623 C 1563.53 604.347 1544.18 583.072 1528.44 569.685 C 1519.7 562.554 1498.78 548.521 1498.07 534.957 C 1496.78 510.279 1518.1 497.862 1538.91 514.491 C 1550.59 523.819 1563.34 535.423 1575.53 545.725 C 1587.09 535.232 1601.11 512.089 1612.06 499.221 C 1642.9 463.001 1687.68 412.95 1728.32 388.301 z" fill="rgb(13,150,104)" transform="translate(0,0)"></path>
<path d="M 1398.52 467.292 C 1401.19 467.413 1404.37 468.264 1405.12 470.889 C 1430.52 560.335 1479.93 644.743 1552.12 704.398 C 1566.05 715.91 1581.62 724.707 1595.35 735.37 C 1596.56 738.314 1595.94 739.732 1595.32 742.956 C 1589.89 742.331 1586.57 740.382 1582.08 737.366 C 1498.39 681.119 1437.05 597.573 1405.86 501.829 C 1402.74 492.253 1396.83 477.037 1398.52 467.292 z" fill="rgb(26,58,40)" transform="translate(0,0)"></path>
<path d="M 1597.73 251.652 C 1601.67 252.294 1600.3 251.612 1603.17 254.004 C 1603.5 256.137 1603.67 258.004 1601.77 259.664 C 1546.31 308.232 1460.62 352.755 1387.98 363.638 C 1387.66 388.453 1392.13 413.371 1394.96 437.931 C 1395.12 439.292 1393.94 441.46 1393.24 442.618 C 1378.73 440.33 1380.37 369.876 1379.16 357.214 C 1451.85 343.885 1543.29 302.866 1597.73 251.652 z" fill="rgb(26,58,40)" transform="translate(0,0)"></path>
<path d="M 1626.03 253.273 C 1630.21 254.205 1641 264.348 1646.73 269.274 C 1664.03 284.126 1684.82 297.593 1705.2 308.103 C 1710.61 310.889 1735.94 321.617 1737.77 324.327 C 1738.13 328.168 1738.03 326.961 1735.97 330.959 C 1713.63 327.609 1637.87 279.667 1623.86 260.685 C 1623.4 257.003 1624.17 256.996 1626.03 253.273 z" fill="rgb(26,58,40)" transform="translate(0,0)"></path>
<path d="M 542.789 608.081 C 565.388 608.326 722.448 598.043 726.427 600.786 C 727.494 609.346 726.489 620.49 726.677 629.333 C 727.057 647.256 726.4 666.994 727.336 684.781 C 713.351 686.615 625.477 688.914 621.205 692.683 C 619.212 704.283 619.456 785.443 621.342 797.297 C 627.951 802.632 711.379 793.183 725.396 796.445 C 726.353 796.667 726.665 800.162 726.662 800.932 C 726.614 812.949 728.341 849.116 726.251 858.617 C 719.193 862.934 622.292 859.958 621.316 866.115 C 619.432 878.001 618.812 961.971 620.732 969.947 C 626.756 975.323 645.466 971.91 654.023 971.937 C 678.058 972.014 703.672 969.359 727.612 970.33 C 727.714 976.318 727.364 991.499 728.135 996.317 C 714.257 994.567 561.291 993.614 552.28 996.527 C 547.763 1002.11 547.17 1024.38 552.036 1028.92 C 559.979 1030.45 572.208 1026.94 575.901 1030.77 L 575.776 1034.02 C 570.695 1038.35 485.015 1033.93 475.111 1039.01 C 470.063 1041.61 472.301 1130.88 474.393 1139.68 C 479.047 1142.4 564.522 1140.7 576.536 1140.65 C 575.121 1157.43 576.522 1177.15 576.258 1194.15 C 576.156 1200.76 577.036 1211.1 575.997 1217.24 C 569.852 1221.23 467.978 1217.35 453.207 1218.76 C 448.895 1219.17 428.077 1218.41 423.228 1217.71 C 421.297 1215.16 423.053 667.756 423.162 615.382 C 449.578 613.57 476.016 612.098 502.47 610.965 C 508.085 610.883 538.863 609.846 542.789 608.081 z" fill="rgb(244,241,225)" transform="translate(0,0)"></path>
<path d="M 564.972 865.538 C 568.331 865.719 585.161 862.532 584.95 869.415 C 584.377 888.136 589.128 960.558 581.67 972.949 C 572.633 975.687 507.864 975.029 493.903 975.214 C 488.163 975.413 479.071 977.199 474.401 973.334 C 473.478 972.571 473.399 972.616 473.254 971.396 C 472.158 962.144 470.739 875.122 474.119 871.265 C 474.714 870.585 475.934 869.24 476.759 868.871 C 480.828 867.052 554.166 865.855 564.972 865.538 z" fill="rgb(26,58,40)" transform="translate(0,0)"></path>
<path d="M 480.662 876.131 C 495.749 876.185 510.836 876.042 525.92 875.702 L 525.882 966.955 C 510.87 966.976 495.859 967.158 480.85 967.501 C 481.689 938.714 480.885 905.24 480.662 876.131 z" fill="rgb(245,158,11)" transform="translate(0,0)"></path>
<path d="M 553.825 874.555 C 561.657 874.256 569.492 874.049 577.329 873.935 C 576.812 904.508 577.629 935.167 576.938 965.719 C 570.012 964.869 565.639 965.205 558.75 965.539 C 551.095 965.949 542.039 965.863 534.266 965.969 L 534.51 875.038 L 553.825 874.555 z" fill="rgb(245,158,11)" transform="translate(0,0)"></path>
<path d="M 563.847 694.476 C 570.332 693.978 580.112 691.919 584.931 696.772 C 585.973 703.969 585.794 793.802 584.223 797.862 C 578.378 802.635 556.752 801.886 548.397 802.157 L 489.25 803.937 C 481.896 804.386 471.509 805.696 471.772 794.099 C 471.968 785.446 472.805 776.62 473.088 767.94 C 473.68 749.795 469.695 716.779 474.309 700.065 C 479.292 695.581 551.821 695.596 563.847 694.476 z" fill="rgb(26,58,40)" transform="translate(0,0)"></path>
<path d="M 509.043 705.56 C 514.598 705.106 520.79 704.916 526.41 704.616 C 525.118 732.019 525.999 766.344 525.918 794.527 C 517.578 795.156 507.332 795.085 498.758 795.491 C 493.024 795.749 486.585 795.658 480.791 795.705 L 481.049 705.669 C 490.349 706.187 499.745 705.897 509.043 705.56 z" fill="rgb(245,158,11)" transform="translate(0,0)"></path>
<path d="M 569.958 702.55 C 573.213 702.463 574.147 701.894 576.635 703.374 C 577.618 710.997 577.016 726.147 577 734.619 L 576.936 793.041 C 563.318 793.136 549.704 793.452 536.097 793.987 L 534.876 793.053 C 533.651 788.523 534.273 713.641 534.803 704.289 C 544.437 702.976 559.852 702.895 569.958 702.55 z" fill="rgb(245,158,11)" transform="translate(0,0)"></path>
<path d="M 1338.29 540.86 C 1339.94 543.228 1350.76 569.522 1353.07 574.468 C 1363.61 596.913 1375.15 618.875 1387.65 640.29 C 1403.23 666.679 1420.69 691.912 1439.89 715.794 C 1444.97 722.141 1458.2 735.408 1461.27 740.251 C 1476.4 764.165 1489.23 792.319 1499.8 818.529 C 1504.91 829.962 1510.62 840.878 1515.12 852.589 C 1552.7 950.282 1498.31 1039.17 1394.02 1055.45 C 1394.02 1037.98 1393.9 1020.51 1393.65 1003.03 C 1393.54 993.069 1392.48 981.789 1394.23 972.004 C 1395.92 962.495 1444.06 863.588 1452.55 850.244 C 1450.47 846.735 1449.19 843.131 1444.81 843.08 C 1440.72 846.457 1399.36 933.852 1392.86 944.985 C 1395.44 910.415 1391.45 861.987 1394.69 827.275 C 1395.96 813.646 1421.92 777.011 1425.16 761.239 C 1425.85 757.93 1421.44 754.561 1418.52 754.152 C 1411.22 759.348 1396.63 798.012 1393.04 807.251 C 1393.3 786.402 1391.59 765.167 1391.81 743.751 C 1391.41 740.605 1391.83 725.564 1391.78 720.804 C 1383.24 712.449 1380.28 713.732 1370.25 718.89 C 1369.6 748.034 1369.55 777.187 1370.12 806.333 C 1364.25 796.185 1351.85 758.938 1343.04 756.941 C 1342.14 757.518 1341.1 758.129 1340.36 758.897 C 1338.62 760.703 1338.63 762.427 1339.16 764.75 C 1341.14 773.526 1347.4 782.841 1351.4 790.971 C 1356.83 802.008 1362.55 814.441 1366.87 825.978 C 1372.85 841.961 1368.11 913.293 1369.36 935.482 L 1369.41 936.276 L 1368.42 935.993 C 1365.7 928.159 1358.37 915.754 1354.48 907.398 L 1336.8 868.867 C 1334.14 862.954 1327.47 844.533 1321.63 843.264 C 1319.5 844.806 1314.63 848.018 1316.11 851.226 C 1326.25 873.126 1336.57 894.964 1346.48 916.986 C 1350.63 929.066 1367.06 955.109 1368.05 966.523 C 1370.28 992.105 1368.64 1028.95 1368.6 1054.78 C 1349.44 1054.75 1321.53 1045.72 1304.98 1036.23 C 1297.93 1032.18 1289.48 1026.82 1282.18 1023.73 L 1281.17 1023.31 C 1280.81 994.568 1281.58 965.315 1281.71 936.509 L 1281.5 841.572 C 1281.52 833.249 1280.34 787.863 1281.84 782.19 C 1284.91 770.624 1306.38 733.15 1312.31 719.708 C 1314.37 715.036 1318.7 709.184 1319.52 703.72 C 1314.84 695.191 1288.9 703.361 1280.82 699.015 C 1280.94 685.155 1281.88 659.249 1280.82 646.339 C 1300.28 610.995 1319.56 576.605 1338.29 540.86 z" fill="rgb(13,150,104)" transform="translate(0,0)"></path>
<path d="M 341.531 521.597 C 344.563 524.413 393.377 633.413 399.204 646.023 C 392.051 645.875 372.572 644.364 367.182 647.14 C 368.018 654.487 384.845 680.542 389.669 688.875 C 397.853 703.009 405.658 718.555 413.872 732.543 L 413.11 769.132 C 406.399 769 393.194 767.962 387.764 771.222 C 383.798 779.824 410.416 811.729 411.937 820.467 C 414.342 834.281 413.242 856.984 413.189 871.258 L 413.038 956.999 C 413.042 972.155 412.59 991.028 413.489 1005.92 C 398.239 1023.55 364.47 1035.94 341.129 1036.29 C 339.823 1007.29 342.492 973.411 340.205 944.668 C 345.285 934.489 375.271 880.09 373.762 874.163 C 371.146 871.34 372.361 871.872 369 871.131 C 364.593 873.528 344.407 915.854 340.384 923.45 C 340.112 896.619 340.228 866.631 340.996 839.647 C 341.22 831.782 360.483 811.047 352.59 801.836 L 350.504 801.836 C 344.977 805.978 339.617 820.575 336.566 827.583 C 331.161 819.105 323.711 797.447 316.689 793.746 C 312.71 793.792 314.242 793.467 310.254 796.799 C 312.554 804.295 328.847 833.151 329.338 837.765 C 332.111 863.776 330.798 902.737 331.167 928.997 C 323.982 913.221 314.477 898.749 308.178 882.626 C 306.493 878.313 300.417 869.654 295.15 872.294 C 291.163 878.758 301.576 891.796 304.655 898.8 C 307.693 905.711 329.443 942.157 330.069 947.363 C 332.838 970.407 329.613 1005.42 331.076 1029.7 C 331.24 1032.44 330.137 1033.48 328.584 1034.77 C 317.775 1036.6 289.595 1024.58 280.005 1017.72 C 194.486 956.575 243.74 867.725 280.077 794.695 C 283.279 788.259 290.806 777.073 289.393 770.673 C 285.425 767.292 260.687 769.646 252.933 769.778 C 254.4 766.296 256.389 762.792 258.187 759.451 C 272.478 732.901 286.739 706.346 300.835 679.692 C 306.319 669.322 312.998 659.79 317.625 648.948 L 316.988 647.511 C 311.222 643.623 292.799 644.836 284.646 644.72 C 288.835 637.237 292.985 627.367 296.704 619.393 C 311.78 587.063 327.538 554.396 341.531 521.597 z" fill="rgb(13,150,104)" transform="translate(0,0)"></path>
<path d="M 1091.93 296.464 C 1106.6 301.213 1152.4 333.652 1169.98 343.577 C 1168.82 400.383 1168.45 467.911 1169.79 524.715 C 1162.31 520.67 1138.3 505.966 1131.86 505.591 L 1129.77 507.65 C 1126.73 515.63 1128.69 604.618 1128.85 621.015 C 1143.22 625.579 1155.35 630.373 1169.19 636.267 C 1168.84 654.458 1169.1 673.472 1169.09 691.726 C 1160.7 688.349 1144.16 683.78 1134.87 681.449 C 1133.24 681.04 1131.27 683.901 1129.79 685.493 C 1127.54 699.523 1128.58 780.613 1130.62 792.65 C 1134.69 796.774 1162.01 801.015 1168.98 802.425 C 1167.88 816.82 1168.88 842.208 1169.04 857.417 C 1161.11 856.014 1136.1 850.174 1130.64 854.645 C 1129.67 862.12 1129.85 890.098 1130.14 898.554 C 1130.77 917.529 1128.59 949.126 1131.41 966.56 C 1134.78 969.546 1163.62 969.579 1169.5 969.821 C 1169.15 973.687 1169.13 978.77 1169.01 982.75 C 1169.17 992.498 1169.54 1014.45 1168.32 1023.5 C 1162.73 1028.2 1143.33 1023.07 1133.51 1026.67 C 1131.57 1028.59 1131.14 1028.51 1131.03 1031.87 C 1130.7 1042.15 1130.91 1053.05 1130.91 1063.33 C 1131.07 1086.23 1130.86 1109.12 1130.27 1132.01 C 1118.98 1132.21 1105.62 1133.47 1094.58 1132.74 C 1092.33 1130.52 1093.83 1080.95 1093.85 1072.78 L 1093.86 940.178 L 1093.38 470.955 L 1093.14 362.8 C 1093.1 343.57 1093.79 314.819 1091.93 296.464 z" fill="rgb(13,150,104)" transform="translate(0,0)"></path>
<path d="M 1462.41 1132.5 C 1485.06 1131.49 1513.06 1135.15 1534.57 1142.33 C 1591.12 1161.61 1637.71 1202.52 1664.15 1256.1 L 1491.25 1255.73 C 1485.95 1255.83 1480.47 1255.88 1475.17 1255.8 C 1412.81 1254.9 1350.52 1256.52 1288.15 1255.95 C 1319.66 1183.03 1383.44 1138.54 1462.41 1132.5 z" fill="rgb(13,150,104)" transform="translate(0,0)"></path>
<path d="M 1454.81 1152.4 C 1466.53 1151.11 1495.62 1150.98 1504.55 1158.52 L 1504.53 1160.18 C 1500.49 1162.81 1493.36 1160.04 1488.81 1159.58 C 1469.56 1157.62 1449.66 1159.32 1430.77 1163 C 1421.44 1165.24 1395.42 1175.34 1390.69 1173.74 L 1390.49 1172.26 C 1398.29 1159.48 1440.35 1153.59 1454.81 1152.4 z" fill="rgb(26,58,40)" transform="translate(0,0)"></path>
<path d="M 1526.79 1160.67 C 1542.05 1161.62 1565.43 1176.11 1576.08 1187.04 C 1578.4 1189.41 1577.6 1191.35 1577.26 1194.18 C 1569.13 1191.67 1557.42 1180.16 1549.51 1175.64 C 1543.34 1172.11 1533.59 1169.71 1527.49 1166.08 C 1526.61 1165.56 1526.85 1162.18 1526.79 1160.67 z" fill="rgb(26,58,40)" transform="translate(0,0)"></path>
<path d="M 1520.18 1182.67 C 1528.74 1183.01 1544.7 1190.03 1551.26 1195.78 C 1554.15 1198.32 1553.66 1200.08 1553.86 1203.49 C 1548.48 1203.26 1527.3 1191 1521.46 1187.92 C 1519.94 1187.12 1520.26 1184.54 1520.18 1182.67 z" fill="rgb(26,58,40)" transform="translate(0,0)"></path>
<path d="M 1368.29 1190.65 C 1370.42 1191.45 1369.41 1190.87 1371.08 1192.98 C 1370.74 1198.48 1364.06 1203.48 1359.75 1207.71 C 1356.21 1206.01 1356.99 1207.04 1355.88 1204.06 C 1357.55 1198.34 1363.55 1194.43 1368.29 1190.65 z" fill="rgb(26,58,40)" transform="translate(0,0)"></path>
<path d="M 644.093 1227.46 C 670.251 1226.54 702.745 1227.88 729.681 1227.82 L 986.421 1228.38 L 1203.18 1227.84 C 1227.74 1227.93 1266.81 1226.5 1289.96 1227.96 C 1284.6 1236.27 1280.5 1246.74 1276.22 1255.91 C 1242.37 1256.84 1204.6 1255.75 1170.46 1255.61 L 937.25 1255.2 L 278.671 1255 C 289.808 1244.42 297.718 1233.46 314.14 1229.97 C 328.208 1226.98 343.307 1227.9 357.689 1227.94 L 420.872 1228.18 C 495.28 1228.45 569.688 1228.21 644.093 1227.46 z" fill="rgb(13,150,104)" transform="translate(0,0)"></path>
<path d="M 1675.78 1123.42 C 1704.32 1121.18 1733 1125.33 1759.74 1135.57 C 1817.44 1157.6 1858.69 1199.57 1883.6 1255.55 L 1790.76 1255.81 C 1756.74 1254.46 1711.2 1255.55 1676.98 1256.15 C 1671.46 1246.51 1664.91 1234.39 1659.01 1225.31 C 1642.11 1199.28 1611.02 1168.01 1583.39 1153.92 C 1603.33 1135.5 1649.18 1125.93 1675.78 1123.42 z" fill="rgb(13,150,104)" transform="translate(0,0)"></path>
<path d="M 1726.23 1155.12 C 1735.8 1154.32 1744.15 1155.8 1753.25 1158.93 C 1769.67 1164.56 1817.69 1188.25 1816.26 1207.42 C 1814.97 1207.7 1813.19 1207.33 1812.25 1206.41 C 1803.57 1197.9 1795.61 1190.27 1785.89 1182.93 C 1769.33 1170.42 1749.39 1164.66 1729.29 1160.75 C 1727.68 1160.44 1726.8 1156.67 1726.23 1155.12 z" fill="rgb(26,58,40)" transform="translate(0,0)"></path>
<path d="M 1750.38 1186.97 C 1763.61 1189.13 1785.42 1201.02 1793.25 1212.61 C 1794.36 1214.26 1792.91 1216.9 1792.3 1218.7 C 1786.12 1216.62 1774.73 1205.63 1768.56 1201.64 C 1761.9 1197.32 1756.78 1196.71 1750 1192.89 C 1748.87 1190.08 1749.36 1190.65 1750.38 1186.97 z" fill="rgb(26,58,40)" transform="translate(0,0)"></path>
<path d="M 1800.35 815.674 C 1808.16 822.698 1842.22 902.426 1851.46 916.837 C 1845.87 916.846 1838.34 916.279 1833.71 919.388 C 1832.81 926.372 1864.89 986.85 1866.36 1002.9 C 1870.39 1047 1845.78 1070.01 1804.47 1077.48 C 1803.58 1060.26 1803.81 1032.57 1806.2 1015.31 C 1807.84 1003.51 1825.4 981.648 1823.28 974.045 C 1820.57 971.849 1820.83 971.291 1818.01 971.056 C 1812.64 975.035 1808.01 988.823 1805.31 995.436 C 1805.03 985.225 1804.19 971.384 1805.92 961.493 C 1807.58 951.975 1814.12 934.599 1814.08 925.381 C 1812.52 922.84 1813.34 923.685 1810.41 922.35 C 1802.85 925.707 1804.6 937.698 1799.66 940.708 L 1798.44 937.736 C 1797.42 932.463 1796.37 921.487 1788.74 923.918 C 1782.64 932.862 1795.41 950.047 1795.95 960.891 C 1796.65 974.948 1796.17 989.632 1796 1003.65 C 1792.63 995.99 1785.12 975.775 1778.88 971.816 C 1776.07 971.89 1777.17 971.478 1774.83 973.889 C 1772.96 981.157 1791.59 1012.2 1796.05 1020.38 C 1794.94 1036.73 1795.68 1062.04 1795.64 1079.07 C 1793.16 1078.47 1790.7 1077.8 1788.26 1077.05 C 1767.87 1070.99 1750.24 1062.65 1739.53 1042.51 C 1721.34 1009.09 1742.65 976.718 1755.62 946.083 C 1758.77 938.648 1768.06 925.19 1763.89 918.112 C 1760.46 916.173 1754.63 916.71 1750.5 916.757 C 1757.26 906.509 1766.06 887.356 1771.59 875.982 C 1781.52 856.043 1791.11 835.938 1800.35 815.674 z" fill="rgb(245,158,11)" transform="translate(0,0)"></path>
<path d="M 323.6 1138.36 C 351.551 1133.9 387.371 1143.17 412.83 1154.84 C 413.204 1173.37 411.959 1200.88 413.81 1218.55 C 397.993 1217.34 381.549 1218.58 365.731 1218.6 C 322.563 1218.65 294.485 1212.42 269.269 1254.92 C 239.703 1254.28 206.082 1254.68 176.401 1254.97 C 182.2 1239.16 188.651 1224.88 199.24 1211.61 C 232.514 1169.94 271.335 1146.19 323.6 1138.36 z" fill="rgb(13,150,104)" transform="translate(0,0)"></path>
<path d="M 325.532 1151.36 C 329.512 1150.72 335.162 1151.7 336.622 1155.85 C 332.776 1160.73 326.503 1158.09 320.885 1159.09 C 298.649 1163.02 277.466 1173.98 261.698 1190.12 C 259.652 1192.22 259.805 1192.18 257.031 1193.02 C 254.88 1191.82 255.767 1192.69 254.751 1189.94 C 258.334 1168.55 306.364 1153.92 325.532 1151.36 z" fill="rgb(26,58,40)" transform="translate(0,0)"></path>
<path d="M 358.21 1163.2 C 366.702 1162.82 378.425 1161.64 385.322 1166.24 C 387.615 1169.99 387.022 1168.34 386.598 1173.73 C 375.013 1169.32 371.424 1171.46 359.694 1169.79 C 357.442 1167.42 358.188 1167.29 358.21 1163.2 z" fill="rgb(26,58,40)" transform="translate(0,0)"></path>
<path d="M 1265.98 1135.45 C 1268.63 1135.23 1268.58 1135.27 1271.19 1135.87 C 1272.65 1139.55 1272.29 1206.6 1272.73 1217.8 C 1257.68 1216.84 1236.3 1217.61 1220.6 1217.5 C 1182.39 1216.94 1144.17 1216.85 1105.96 1217.24 L 1092.98 1218.12 C 1093.11 1208.78 1092.25 1147.77 1094.18 1143.45 C 1107.26 1141.21 1136.71 1140.79 1151.16 1140.16 L 1265.98 1135.45 z" fill="rgb(13,150,104)" transform="translate(0,0)"></path>
<path d="M 1281.74 1033.6 C 1300.38 1044.9 1318.28 1054.7 1339.72 1060.04 C 1348.22 1062.15 1358.87 1062.33 1367.14 1064.89 C 1369.39 1085.54 1367.36 1127.34 1367.83 1150.61 C 1353.94 1156.81 1338.35 1171.3 1326.61 1181.54 C 1315.41 1192.83 1305.18 1204.21 1296.93 1217.86 L 1280.97 1217.87 C 1280.76 1211.66 1280.73 1204.53 1280.94 1198.31 C 1282.76 1144.42 1278.36 1087.12 1281.74 1033.6 z" fill="rgb(246,216,143)" transform="translate(0,0)"></path>
<path d="M 1081.61 195.451 C 1082.37 195.212 1084.13 195.255 1085.02 195.233 C 1087.5 198.257 1086.14 214.669 1086.2 220.56 C 1079.81 222.166 1066.51 223.547 1059.26 224.561 L 995.282 233.083 C 937.586 241.192 879.829 248.865 822.017 256.101 C 785.653 260.713 743.455 264.997 707.982 271.519 C 707.505 271.311 706.61 270.415 706.161 270.014 C 704.973 262.65 705.401 251.648 705.867 244.156 C 711.234 243.338 716.771 242.688 722.168 242.054 C 768.945 236.552 815.711 230.685 862.367 224.228 C 910.593 217.436 958.873 211.032 1007.2 205.015 C 1031.03 201.917 1057.94 197.494 1081.61 195.451 z" fill="rgb(245,158,11)" transform="translate(0,0)"></path>
<path d="M 1092.22 230.647 C 1102.55 236.257 1113.63 244.451 1123.45 251.158 C 1135.59 259.367 1147.83 267.445 1160.14 275.39 C 1186.54 292.435 1212.8 309.684 1238.92 327.134 C 1249.83 334.305 1261.4 340.81 1271.97 348.336 C 1271.49 364.019 1271.3 379.709 1271.38 395.399 C 1268.06 395.165 1113.78 296.818 1092.22 284.414 L 1092.22 230.647 z" fill="rgb(13,150,104)" transform="translate(0,0)"></path>
<path d="M 1280.94 354.336 L 1295.4 364.251 C 1301.46 420.996 1314.65 476.752 1334.65 530.2 C 1320.94 552.889 1305.02 585.013 1291.16 609.547 C 1287.51 616.497 1284.44 622.088 1280.32 628.796 C 1281.13 600.798 1280.58 572.324 1280.58 544.27 C 1280.31 480.959 1280.43 417.646 1280.94 354.336 z" fill="rgb(246,216,143)" transform="translate(0,0)"></path>
<path d="M 1179.99 349.994 C 1191.12 355.819 1212.75 370.887 1223.83 378.139 C 1222.23 417.279 1224.85 461.045 1223.94 500.552 C 1223.6 515.744 1224.89 537.391 1223.12 551.632 C 1218.23 551.895 1185.86 532.879 1180.07 528.197 L 1179.99 349.994 z" fill="rgb(13,150,104)" transform="translate(0,0)"></path>
<path d="M 412.483 1018.8 L 413.093 1019.31 C 414.149 1021.49 413.835 1131.03 413.856 1144.04 C 390.192 1135.72 386.107 1132.41 359.886 1127.98 C 356.468 1127.54 343.131 1126.73 341.473 1125.34 C 339.617 1105.22 340.798 1064.9 340.768 1043.31 C 366.12 1044.16 393.032 1035.06 412.483 1018.8 z" fill="rgb(246,216,143)" transform="translate(0,0)"></path>
<path d="M 1232.78 382.722 C 1244.12 390.396 1259.33 399.52 1271.12 406.372 C 1271.35 421.819 1271.39 576.006 1270.61 577.518 L 1268.99 577.061 C 1257.47 569.915 1245.12 563.483 1233.23 556.85 C 1234.36 549.775 1233.85 522.717 1233.87 514.329 C 1233.97 486.365 1233.86 458.402 1233.54 430.44 C 1233.33 415.545 1232.25 397.24 1232.78 382.722 z" fill="rgb(13,150,104)" transform="translate(0,0)"></path>
<path d="M 417.728 587.126 C 453.852 584.214 493.278 582.949 529.652 581.225 L 643.192 575.041 C 666.505 573.811 705.041 573.586 726.884 570.726 L 726.959 590.63 C 673.556 592.599 617.089 596.396 563.505 599.229 C 543.494 600.081 523.499 601.283 503.53 602.835 C 475.903 603.461 445.236 607.31 418.01 606.967 C 417.768 600.48 417.802 593.645 417.728 587.126 z" fill="rgb(245,158,11)" transform="translate(0,0)"></path>
<path d="M 557.251 1002.92 C 633.782 1004.64 760.815 1002.53 842.512 1003.86 C 842.978 1004.24 843.444 1004.61 843.91 1004.98 L 844.11 1009.75 C 844.099 1013.34 844.695 1018.08 842.772 1020.72 C 837.559 1021.69 819.978 1021.41 813.584 1021.38 L 763.008 1021.3 L 557.493 1021.44 C 557.143 1015.85 557.294 1008.64 557.251 1002.92 z" fill="rgb(245,158,11)" transform="translate(0,0)"></path>
<path d="M 1095.14 197.343 C 1103.46 200.239 1143.32 228.224 1153.26 234.776 L 1247.91 297.498 C 1263.14 307.774 1278.93 316.79 1292.75 328.771 C 1293.72 337.715 1294 343.964 1294.14 352.97 C 1290.89 351.026 1287.88 348.785 1284.78 346.615 C 1264.87 332.669 1244.3 319.659 1224.02 306.24 L 1094.97 222.034 C 1094.83 214.046 1095.07 205.383 1095.14 197.343 z" fill="rgb(245,158,11)" transform="translate(0,0)"></path>
<path d="M 726.074 868.525 L 727.007 869.44 C 728.156 875.452 727.441 896.97 727.35 904.422 C 727.095 923.619 727.02 942.817 727.124 962.015 C 713.202 961.923 698.571 961.06 685.185 963.779 C 682.43 962.21 681.816 959.766 682.103 956.853 C 683.116 946.554 679.537 874.71 683.566 870.325 C 690.544 868.942 717.221 868.879 726.074 868.525 z" fill="rgb(13,150,104)" transform="translate(0,0)"></path>
<path d="M 652.864 871.446 C 659.497 870.772 667.124 870.918 673.861 870.872 C 673.039 879.689 673.606 894.714 673.627 903.999 L 673.623 962.989 C 666.668 963.077 659.713 963.208 652.76 963.38 C 644.885 964.21 635.782 964.514 627.869 964.57 C 628.087 933.736 628.136 902.901 628.017 872.067 L 652.864 871.446 z" fill="rgb(245,158,11)" transform="translate(0,0)"></path>
<path d="M 713.093 694.586 C 717.416 694.17 722.731 694.017 727.148 693.768 C 726.43 724.019 726.964 756.56 727.027 786.924 C 717.926 787.925 703.44 787.874 693.328 788.537 C 691.969 788.754 683.823 788.843 681.964 788.897 C 682.696 776.249 681.135 701.31 683.965 696.52 C 689.418 695.171 706.415 694.886 713.093 694.586 z" fill="rgb(13,150,104)" transform="translate(0,0)"></path>
<path d="M 654.24 697.546 C 655.553 697.75 670.197 697.061 673.511 697.076 C 674.927 723.967 673.242 761.531 673.377 789.584 C 665.755 789.919 657.717 789.383 649.937 789.776 C 641.35 789.943 637.326 790.041 628.81 791.528 C 628.247 761.054 628.69 729.909 628.359 699.29 C 636.462 699.178 646.304 698.894 654.24 697.546 z" fill="rgb(13,150,104)" transform="translate(0,0)"></path>
<path d="M 481.697 1045.42 C 494.189 1046.21 513.188 1045.04 526.142 1044.62 L 526.135 1100.62 C 526.129 1110.17 526.525 1123.93 525.786 1133.2 C 511.503 1132.62 496.091 1133.04 481.715 1133.18 C 480.643 1122.76 480.264 1055.15 481.697 1045.42 z" fill="rgb(245,158,11)" transform="translate(0,0)"></path>
<path d="M 535.023 1044.05 L 576.056 1043.99 C 576.11 1052.32 577.118 1129.4 575.377 1131.85 L 573.241 1131.87 C 560.752 1132.52 547.113 1132.56 534.531 1132.85 C 534.331 1116.41 534.745 1099.58 534.558 1083.03 C 534.447 1073.16 533.68 1052.86 535.023 1044.05 z" fill="rgb(245,158,11)" transform="translate(0,0)"></path>
<path d="M 587.319 1028.27 C 591.808 1029.09 597.92 1028.49 602.611 1028.23 C 602.153 1041.21 602.887 1058.54 602.92 1071.94 L 603.191 1184.42 C 603.135 1194.26 603.822 1208.38 603.382 1217.38 L 600.771 1218.5 C 596.773 1219.09 589.205 1218.73 585.137 1218.13 C 584.186 1206.75 584.692 1188.16 584.66 1176.37 L 584.657 1093.67 C 584.655 1081.48 583.566 1038.06 585.004 1029.64 L 587.319 1028.27 z" fill="rgb(244,241,225)" transform="translate(0,0)"></path>
<path d="M 693.72 1028.44 C 698.058 1028.37 708.045 1027.59 710.896 1030.18 C 712.68 1057.95 711.035 1096.91 711.349 1125.79 C 711.579 1146.88 712.668 1188.37 711.287 1208.23 C 711.443 1213.69 712.101 1214.48 709.225 1217.96 C 705.105 1219.81 697.865 1218.89 693.018 1218.67 C 694.598 1172.38 691.774 1121.39 692.939 1074.8 C 693.122 1067.48 692.267 1033.33 693.72 1028.44 z" fill="rgb(244,241,225)" transform="translate(0,0)"></path>
<path d="M 1233.93 1032.93 C 1246.34 1032.75 1259.25 1033.02 1271.7 1033.1 C 1272.04 1045.85 1273 1117.9 1270.49 1124.46 C 1258.51 1125.05 1246.29 1125.38 1234.28 1125.82 C 1233.53 1100.04 1234.33 1074.23 1234.22 1048.44 C 1234.19 1043.27 1234.72 1038.06 1233.93 1032.93 z" fill="rgb(13,150,104)" transform="translate(0,0)"></path>
<path d="M 805.824 1029.32 C 810.525 1028.97 817.058 1029.11 821.902 1029.06 L 821.604 1215.73 L 821.482 1217.69 C 817.971 1219.81 809.456 1219.11 804.938 1219.09 C 803.598 1180.94 806.091 1138.44 805.042 1099.78 C 804.82 1091.6 804.603 1035.97 805.824 1029.32 z" fill="rgb(244,241,225)" transform="translate(0,0)"></path>
<path d="M 1241.17 876.563 C 1245.85 879.426 1266.04 881.903 1272.08 882.679 C 1271.62 909.192 1272.1 935.752 1271.42 962.22 C 1270.95 962.742 1270.47 963.264 1270 963.786 L 1265.88 963.714 C 1254.95 963.355 1244.03 962.817 1233.12 962.1 C 1233.03 948.988 1233.65 935.757 1233.84 922.622 C 1234.06 907.919 1233.42 892.696 1234.35 878.059 C 1236.08 876.731 1238.68 876.855 1241.17 876.563 z" fill="rgb(13,150,104)" transform="translate(0,0)"></path>
<path d="M 1234.19 721.52 C 1246.08 724.223 1259.3 729.638 1271.96 732.421 C 1271.43 758.265 1271.53 784.119 1272.26 809.959 L 1271.46 810.908 C 1267.32 812.264 1240.28 805.331 1234.1 803.902 C 1233.1 779.051 1233.95 746.487 1234.19 721.52 z" fill="rgb(13,150,104)" transform="translate(0,0)"></path>
<path d="M 1233.86 569.118 C 1241.13 571.518 1264.63 584.101 1270.64 589.287 C 1272.27 593.6 1272.41 657.407 1270.86 663.518 C 1261.45 658.07 1245.32 653.376 1234.1 648.653 C 1232.47 622.501 1233.83 595.301 1233.86 569.118 z" fill="rgb(13,150,104)" transform="translate(0,0)"></path>
<path d="M 1179.52 804.635 C 1194.2 807.267 1208.33 809.509 1223.1 812.361 C 1223.36 828.939 1224.12 851.199 1223.07 867.451 C 1217.16 862.967 1192.11 861.411 1181.07 858.244 C 1178.6 854.935 1179.5 812.121 1179.52 804.635 z" fill="rgb(13,150,104)" transform="translate(0,0)"></path>
<path d="M 1181.27 640.178 C 1186.87 642.019 1222.7 653.211 1222.91 657.217 C 1223.31 664.739 1224.71 703.577 1222.69 707.327 L 1221.6 707.124 C 1210.55 702.664 1191.19 697.651 1179.09 693.834 C 1179.62 677.696 1179.36 661.888 1179.34 645.763 C 1179.34 641.985 1179.26 642.03 1181.27 640.178 z" fill="rgb(13,150,104)" transform="translate(0,0)"></path>
<path d="M 1179.44 969.683 C 1186.48 970.322 1219.95 970.485 1222.59 973.129 C 1223.46 980.538 1225.22 1019.34 1221.78 1023.84 C 1210.25 1023.11 1191.35 1024.17 1179.59 1025.02 C 1178.95 1007.1 1180.7 987.789 1179.44 969.683 z" fill="rgb(13,150,104)" transform="translate(0,0)"></path>
<path d="M 1233.03 658.304 C 1246.04 662.743 1258.54 668.811 1272.06 672.169 C 1271.06 688.561 1272.82 706.246 1271.54 723.12 C 1259.48 718.459 1245.46 714.621 1233.01 710.353 C 1233.98 692.793 1233.51 675.833 1233.03 658.304 z" fill="rgb(13,150,104)" transform="translate(0,0)"></path>
<path d="M 1233.72 814.668 C 1242.29 815.416 1261.73 819.813 1271.81 821.476 C 1272.45 837.261 1271.87 856.701 1271.77 872.792 C 1259.13 871.961 1247.09 868.017 1234.14 866.73 C 1233.88 849.377 1233.74 832.023 1233.72 814.668 z" fill="rgb(13,150,104)" transform="translate(0,0)"></path>
<path d="M 1235.89 970.569 C 1242.01 972.814 1264.16 973.297 1271.93 973.677 C 1271.95 981.077 1272.77 1018.93 1271.26 1023.21 L 1269.44 1023.47 C 1256.52 1023.21 1246.92 1023.17 1234.07 1024.16 C 1233.82 1008.66 1232.94 987.464 1233.75 972.467 L 1235.89 970.569 z" fill="rgb(13,150,104)" transform="translate(0,0)"></path>
<path d="M 1296.96 708.567 L 1307.76 709.226 C 1300.69 720.723 1291.58 741.586 1284.74 754.544 C 1284.09 755.983 1283.45 756.632 1282.5 757.891 L 1281.42 757.103 C 1280.29 752.496 1280.36 716.378 1280.26 708.942 C 1285.65 708.956 1291.52 708.696 1296.96 708.567 z" fill="rgb(246,216,143)" transform="translate(0,0)"></path>
<path d="M 397.731 777.951 C 402.804 778.705 408.604 778.718 413.788 778.866 C 413.894 788.378 413.702 798.192 413.635 807.729 C 407.4 798.978 401.435 787.988 397.731 777.951 z" fill="rgb(246,216,143)" transform="translate(0,0)"></path>
<path d="M 400.021 255.398 C 411.235 253.679 431.901 256.747 442.125 260.872 C 479.189 275.828 494.01 296.067 509.712 330.25 C 522.27 326.581 535.63 326.685 548.13 330.548 C 566.822 336.411 581.208 349.579 591.152 366.54 C 593.207 370.045 593.352 372.121 592.247 375.599 C 585.611 377.697 521.679 376.718 507.967 376.681 L 391.933 376.847 L 262.786 376.816 C 243.576 376.814 223.238 377.166 203.979 376.588 C 200.945 376.497 200.673 375.278 199.212 373.238 C 195.697 356.838 232.471 329.976 248.299 327.163 C 269.782 323.344 280.828 324.354 300.947 330.683 C 319.765 285.19 350.564 260.521 400.021 255.398 z" fill="rgb(26,58,40)" transform="translate(0,0)"></path>
<path d="M 314.284 320.598 C 314.933 319.01 315.645 317.448 316.418 315.916 C 343.449 262.837 422.521 245.504 468.283 284.29 C 478.024 292.546 491.024 307.268 494.791 319.409 L 493.215 320.274 C 485.226 321.718 459.92 331.156 459.937 339.995 C 464.595 343.615 490.213 326.985 496.858 323.236 C 497.696 324.891 501.124 331.066 499.168 332.624 C 491.399 338.815 474.627 344.046 470.191 353.372 C 470.252 356.86 469.734 355.318 471.85 358.142 C 478.396 359.11 486.451 348.305 492.446 345.035 C 527.681 325.814 562.319 336.969 582.922 369.133 L 208.024 369.269 C 216.057 356.374 222.581 347.685 234.998 341.108 C 269.84 322.654 300.564 336.378 329.304 357.607 C 330.24 358.298 332.033 357.11 332.947 356.525 C 332.896 347.694 310.667 337.771 308.759 330.944 L 310.891 328.093 C 320.976 323.865 328.544 336.586 339.037 340.53 C 342.359 339.84 341.127 340.403 343.656 338.007 L 343.347 335.646 C 337.764 328.632 322.902 323.164 314.284 320.598 z" fill="rgb(244,241,225)" transform="translate(0,0)"></path>
<path d="M 480.865 132.48 C 499.872 130.425 515.128 139.053 525.519 154.796 C 547.989 146.681 557.797 153.931 570.704 171.672 C 578.707 171.89 598.567 169.756 602.666 175.785 L 602.13 177.689 C 596.641 181.521 568.033 180.056 560.369 180.034 L 481.769 179.565 L 394.584 179.983 C 385.807 179.997 374.966 180.122 366.045 179.926 C 363.964 179.88 362.891 177.646 362 176.136 L 362.644 174.532 C 368.385 170.866 383.874 171.982 391.042 172.05 C 402.341 150.094 420.447 143.813 442.837 153.993 C 443.958 152.546 445.134 151.143 446.361 149.784 C 455.82 139.429 466.794 133.162 480.865 132.48 z" fill="rgb(26,58,40)" transform="translate(0,0)"></path>
<path d="M 442.902 169.803 C 446.523 165.683 448.66 161.152 451.648 156.647 C 453.586 153.727 456.394 150.491 459.179 148.401 C 474.648 136.797 494.549 135.78 509.536 148.823 C 515.156 153.713 518.925 159.908 522.987 166.098 C 523.763 166.16 524.538 166.223 525.314 166.286 C 532.731 162.647 537.036 156.926 545.994 159.758 C 552.606 161.848 557.148 166.25 561.72 171.209 C 547.095 171.448 451.449 174.015 442.95 171.36 C 435.406 172.476 408.382 171.876 399.61 171.851 L 400.113 171.218 C 408.637 160.684 428.913 147.912 439.015 162.988 L 438.279 166.542 C 439.489 169.017 439.559 168.357 442.902 169.803 z" fill="rgb(244,241,225)" transform="translate(0,0)"></path>
<path d="M 1444.5 112.023 C 1463.6 111.17 1459.35 121.396 1459.23 136.889 C 1467.66 137.017 1478.9 135.413 1484.24 143.581 C 1483.04 153.436 1464.87 153.382 1457.83 153.951 C 1458.88 162.715 1461.19 169.052 1455.16 176.163 C 1438.78 178.909 1441.83 164.3 1441.99 152.931 C 1433.32 153.421 1424.68 155.183 1418.26 147.445 C 1416.17 136.734 1435.13 136.425 1441.81 136.096 C 1441.82 127.239 1441.33 120.381 1444.5 112.023 z" fill="rgb(245,158,11)" transform="translate(0,0)"></path>
<path d="M 1322.02 128.318 C 1333.21 129.98 1326.65 140.392 1333.32 147.417 C 1337.94 152.28 1352.79 153.972 1353.19 159.771 C 1349.6 163.094 1345.46 163.261 1340.76 165.407 C 1330.48 170.097 1330.27 177.897 1326.9 187.269 C 1318.04 186.004 1317.78 177.984 1315.88 170.509 C 1307.32 164.398 1301.43 164.109 1295.52 160.26 C 1295.41 154.168 1310.47 151.618 1314.76 147.273 C 1320.06 141.913 1317.03 136.04 1322.02 128.318 z" fill="rgb(26,58,40)" transform="translate(0,0)"></path>
<path d="M 1324.32 146.826 C 1324.51 147.044 1334.04 159.311 1333.96 159.082 C 1329.01 164.535 1328.59 162.294 1324.55 169.739 L 1323.97 170.832 C 1323.33 169.428 1322.66 168.037 1321.96 166.661 C 1319.01 160.903 1317.57 160.992 1311.22 158.905 C 1318.16 155.062 1320.72 153.931 1324.32 146.826 z" fill="rgb(244,241,225)" transform="translate(0,0)"></path>
<path d="M 229.007 463.35 C 240.77 465.012 236.644 473.653 240.224 481.584 C 244.241 490.484 255.486 483.491 260.148 493.681 C 256.566 502.214 238.916 498.717 238.146 510.96 C 238.018 512.997 236.559 518.56 236.096 520.905 C 234.46 521.025 232.663 521.052 231.009 521.114 C 225.948 518.536 225.908 514.676 225.133 509.346 C 223.31 496.804 211.724 504.578 205.174 496.326 C 205.261 486.732 216.402 486.578 224.486 484.028 C 225.762 475.551 226.166 471.628 229.007 463.35 z" fill="rgb(245,158,11)" transform="translate(0,0)"></path>
<path d="M 232.011 485.589 C 236.716 487.433 238.907 490.307 239.254 495.177 C 238.092 498.732 236.888 499.265 233.844 501.401 C 221.31 500.116 224.041 491.658 232.011 485.589 z" fill="rgb(244,241,225)" transform="translate(0,0)"></path>
<path d="M 919.022 103.289 C 923.534 103.607 923.454 103.517 926.123 106.032 C 927.77 109.909 927.025 115.449 926.807 119.854 C 933.265 119.928 939.424 118.633 943.077 124.793 C 942.001 132.409 933.477 131.743 927.291 132.196 C 926.832 138.47 926.585 140.134 924.883 146.174 C 921.431 146.176 920.085 146.542 917.466 144.517 C 915.284 141.172 915.544 136.379 915.282 132.156 C 909.079 132.007 902.679 132.837 899.941 126.212 C 901.985 118.44 909.479 120.034 916.114 120.108 C 916.011 112.872 915.39 109.522 919.022 103.289 z" fill="rgb(245,158,11)" transform="translate(0,0)"></path>
<path d="M 630.099 234.244 C 642.107 235.237 636.453 241.712 639.324 248.907 C 643.104 252.614 649.956 248.296 654.79 254.686 C 654.799 258.664 655.296 257.218 653.118 260.253 C 649.291 262.305 644.741 262.012 640.313 262.173 C 639.501 269.036 639.277 273.603 635.731 279.531 C 624.225 274.794 631.477 268.549 627.202 262.686 C 625.663 262.58 624.13 262.398 622.609 262.141 C 618.263 261.416 612.925 260.518 610.29 256.792 L 610.842 254.814 C 616.975 250.095 619.574 250.948 627.405 251.182 C 627.9 244.613 627.562 240.355 630.099 234.244 z" fill="rgb(245,158,11)" transform="translate(0,0)"></path>
<path d="M 1917.06 670.505 C 1929.42 670.82 1921.82 679.679 1926.63 687.608 C 1933.71 691.908 1937.35 685.266 1942.62 694.147 L 1942.2 695.703 C 1937.84 698.539 1933.2 697.491 1927.48 699.442 C 1925 703.179 1924.11 711.452 1922.97 716.507 C 1909.83 715.098 1918.41 705.667 1913.32 700.095 C 1912.7 699.416 1900.84 699.355 1896.89 694.743 L 1897.27 692.664 C 1902.97 687.322 1905.66 688.197 1913.73 687.52 C 1914.55 681.191 1914.93 676.593 1917.06 670.505 z" fill="rgb(245,158,11)" transform="translate(0,0)"></path>
<metadata><recraft-signature>{"signed_by": "recraft", "signature_b64": "8KEgpAeYosklkqkim0Zi8b+tC/ZRALzmXzU2hspup08KSr1ewNNj/MQX7y2KXbixCH+c9lwW1DUE8vqCV9eiBw==", "signing_algo": "Ed25519", "generation_timestamp": 1780475692, "identifier": "c36ab978-2e7d-41e1-91e2-bb30a887d7fc"}</recraft-signature></metadata></svg>