<svg xmlns="http://www.w3.org/2000/svg" height="1024" preserveAspectRatio="none" style="display: block;" version="1.1" viewBox="0 0 2048 1365" width="1536">
<path d="M 0 0 L 2048 0 L 2048 1365 L 0 1365 L 0 0 z" fill="rgb(244,241,225)" transform="translate(0,0)"></path>
<path d="M 672.066 244.395 C 719.967 242.884 735.113 257.046 767.495 287.234 L 821.078 337.906 C 892.696 405.084 963.786 472.822 1034.34 541.115 L 1286.95 779.145 L 1375.2 861.586 C 1390.08 875.487 1425.6 902.113 1425.9 922.035 C 1426.24 944.255 1429.37 987.229 1424.93 1008.43 C 1423.37 1016 1420.18 1023.13 1415.59 1029.35 C 1401.42 1048.92 1373.55 1060.07 1352.35 1070.53 L 1302.02 1095.89 L 1147.4 1174.57 L 1007.82 1246.72 C 975.383 1263.46 943.416 1284.04 907.234 1289.72 L 906.459 1289.81 C 842.584 1296.17 824.306 1273.52 783.237 1233.95 L 723.547 1177.31 C 631.813 1091.03 540.686 1004.11 450.173 916.546 L 258.715 731.041 C 240.655 713.517 222.119 695.573 204.489 678.114 C 184.227 657.008 155.875 641.03 155.027 608.383 C 154.64 593.477 154.371 579.298 154.731 564.691 C 155.027 552.658 153.739 536.847 156.176 525.567 C 157.869 517.374 161.568 509.728 166.94 503.314 C 171.4 498.043 178.249 492.57 184.327 489.347 C 257.547 450.522 331.68 412.862 404.803 373.872 L 541.245 301.344 C 571.038 285.421 601.518 268.891 631.978 254.272 C 644.008 248.498 658.733 245.574 672.066 244.395 z" fill="rgb(26,58,40)" transform="translate(0,0)"></path>
<path d="M 666.675 255.348 C 685.491 252.184 715.143 257.595 730.291 268.773 C 742.58 277.841 755.23 289.566 766.411 300.105 L 820.477 352.039 L 1015.8 538.155 L 1308.85 814.153 C 1332.04 835.621 1355.1 857.218 1378.05 878.942 C 1389.69 889.838 1413.61 907.326 1415.76 923.74 C 1418.11 941.719 1407.15 961.505 1391.04 970.044 C 1370.36 981.001 1349.32 991.847 1328.25 1002.42 L 1227.55 1053.35 L 1013.85 1163.01 C 988.913 1175.67 937.419 1206.59 914.103 1210.46 C 891.574 1218 850.435 1210.32 832.335 1195.9 C 820.118 1186.16 806.777 1172.81 795.406 1161.93 C 773.015 1140.63 750.825 1119.12 728.84 1097.4 C 682.359 1052.18 635.462 1007.39 588.155 963.039 L 366.527 751.861 C 317.687 706.442 269.678 660.138 222.525 612.97 C 206.665 597.25 190.046 581.972 174.221 566.22 C 168.779 560.602 167.109 553.963 165.812 546.638 C 162.389 527.302 172.885 507.583 190.052 498.185 C 222.542 480.398 255.683 463.259 288.734 446.369 C 326.957 426.691 365.03 406.722 402.948 386.462 L 539.969 314.734 C 572.496 297.315 632.691 259.501 666.675 255.348 z" fill="rgb(13,150,104)" transform="translate(0,0)"></path>
<path d="M 671.779 272.327 C 693.29 272.019 700.685 274.338 716.624 288.603 C 804.066 367.792 889.959 448.675 974.254 531.206 L 1183.7 730.122 L 1308.38 846.211 C 1330.67 866.844 1365.62 896.318 1384.75 919.943 C 1387.7 924.562 1388.32 935.715 1386.09 940.269 C 1375.68 961.504 1332.29 977.15 1311.84 987.528 L 1205.4 1042.66 L 1015.62 1140.91 C 979.826 1159.63 944.523 1179.12 908.404 1197.39 C 906.972 1197.82 905.519 1198.18 904.051 1198.47 C 872.175 1204.99 858.886 1190.29 837.657 1169.57 C 826.898 1159.07 815.746 1148.37 804.945 1137.87 C 770.868 1104.15 736.326 1070.91 701.328 1038.16 L 350.292 702.16 L 246.434 601.058 C 233.431 588.484 219.54 576.811 206.951 563.728 C 200.208 556.719 195.594 553.31 193.521 543.266 C 190.313 527.711 198.079 516.32 211.277 508.75 C 232.504 497.147 254.677 486.062 276.339 475.096 C 304.219 460.925 331.995 446.548 359.664 431.968 C 431.884 393.475 504.353 355.452 577.067 317.902 C 597.367 307.403 653.627 275.747 671.779 272.327 z" fill="rgb(26,58,40)" transform="translate(0,0)"></path>
<path d="M 758.314 342.146 C 765.796 343.834 1116.13 680.937 1153.55 716.065 L 1306.47 858.796 C 1327.19 878.281 1348.73 897.077 1368.86 917.045 C 1376.95 925.074 1380.56 937.728 1370.69 944.347 C 1355.03 954.841 1333.41 964.296 1316.6 972.998 C 1264.43 1000.47 1212.08 1027.57 1159.54 1054.31 L 996.953 1138.92 L 946.28 1165.24 C 925.901 1175.98 906.728 1189.83 883.277 1188.97 C 862.479 1184.48 845.113 1162.12 829.943 1147.19 L 768.54 1087.48 L 573.258 901.02 C 490.569 822.838 408.48 744.025 326.999 664.585 C 306.033 643.793 282.617 623.39 262.526 601.886 C 278.067 593.041 296.465 584.163 312.495 575.704 L 440.12 509.008 L 758.314 342.146 z" fill="rgb(244,241,225)" transform="translate(0,0)"></path>
<path d="M 747.243 386.98 C 753.351 390.366 765.243 402.543 770.952 407.881 C 783.108 419.24 795.323 430.536 807.598 441.767 C 832.607 464.476 857.345 487.481 881.808 510.777 C 889.519 518.03 924.236 548.709 925.222 555.504 C 922.53 560.703 753.984 643.149 736.843 651.563 C 736.654 686.837 747.483 691.137 704.219 678.361 C 687.9 686.656 671.252 694.123 654.857 702.234 L 511.259 773.536 C 503.991 777.007 500.435 779.02 493.99 772.997 C 484.126 763.779 474.763 754.055 465.006 744.731 C 439.256 720.517 413.78 696.014 388.581 671.226 C 376.096 659.345 363.529 647.551 350.88 635.845 C 346.08 631.363 327.914 616.434 328.442 610.017 C 338.511 602.122 365.699 588.662 378.225 582.094 L 469.743 534.476 C 483.473 527.396 497.185 520.284 510.716 512.831 C 588.762 469.847 669.567 430.523 747.243 386.98 z" fill="rgb(26,58,40)" transform="translate(0,0)"></path>
<path d="M 354.037 623.745 C 373.543 622.3 395.233 625.289 414.882 624.828 C 471.019 623.511 527.43 627.305 583.482 624.632 C 577.021 628.849 563.421 632.231 562.702 640.498 C 569.484 647.464 605.088 652.618 616.012 655.832 C 638.656 662.494 663.548 666.835 685.928 674.424 C 674.465 681.933 651.156 692.008 637.5 698.47 C 593.055 720.432 545.568 743.131 501.87 766.28 C 463.869 726.111 419.481 687.351 379.694 648.652 C 371.11 640.304 363.024 631.688 354.037 623.745 z" fill="rgb(245,158,11)" transform="translate(0,0)"></path>
<path d="M 750.497 404.623 C 755.26 407.988 761.385 413.307 765.598 417.337 C 813.328 463.004 863.309 506.799 910.706 552.774 C 881.348 569.431 843.373 587.256 812.628 602.657 C 787.433 615.677 760.766 628.417 735.279 641.264 C 734.52 621.467 731.189 572.557 725.901 551.16 C 724.545 545.671 701.965 560.422 697.829 563.491 C 702.081 554.945 711.347 525.733 714.951 514.677 C 726.622 478.873 740.344 440.72 750.497 404.623 z" fill="rgb(245,158,11)" transform="translate(0,0)"></path>
<path d="M 582.711 485.799 C 607.369 511.106 633.032 535.184 657.487 560.694 C 664.222 567.72 672.085 577.067 679.77 582.785 C 692.79 578.002 706.081 570.119 718.396 563.538 C 720.146 599.815 725.973 637.718 727.106 673.802 C 707.232 668.151 687.264 662.834 667.21 657.856 C 643.254 649.557 606.163 644.328 583.642 635.775 C 591.585 630.778 612.639 621.558 616.553 615.275 C 614.647 607.415 586.646 582.016 579.362 574.927 C 560.042 556.314 540.904 537.514 521.949 518.528 C 540.409 507.488 563.027 497.289 582.711 485.799 z" fill="rgb(13,150,104)" transform="translate(0,0)"></path>
<path d="M 511.576 524.958 C 517.657 526.152 589.752 602.681 603.962 613.533 C 551.926 615.503 488.77 614.351 436.25 613.73 C 406.034 614.31 373.411 613.352 342.547 613.63 C 355.996 604.81 378.78 594.168 393.522 586.093 C 432.35 564.826 472.182 545.134 511.576 524.958 z" fill="rgb(245,158,11)" transform="translate(0,0)"></path>
<path d="M 737.616 403.947 L 738.263 404.551 C 739.395 408.325 688.494 561.107 683.02 572.133 C 669.758 557.555 653.047 542.024 638.738 528.099 C 623.573 512.059 608.365 497.253 592.661 481.754 C 603.808 474.539 622.995 465.378 635 458.727 C 668.668 440.075 704.178 422.937 737.616 403.947 z" fill="rgb(245,158,11)" transform="translate(0,0)"></path>
<path d="M 770.854 938.348 C 797.958 933.385 845.216 949.394 851.115 980.134 C 852.862 989.136 850.857 998.461 845.562 1005.95 C 835.712 1020.17 816.497 1026.84 800.223 1029.88 C 771.147 1033.68 725.189 1022.38 720.166 988.324 C 718.686 978.211 721.316 967.927 727.469 959.766 C 737.504 946.528 754.991 940.523 770.854 938.348 z" fill="rgb(245,158,11)" transform="translate(0,0)"></path>
<path d="M 762.141 967.01 C 770.782 966.133 827.634 978.827 828.366 987.454 C 822.979 991.133 807.463 986.785 801.419 985.214 C 793.144 992.617 780.648 1011.25 773.374 1013.71 C 768.212 1012.61 767.183 1007.52 766.927 1002.79 C 766.316 991.474 761.481 978.118 762.141 967.01 z" fill="rgb(244,241,225)" transform="translate(0,0)"></path>
<path d="M 774.544 977.227 C 778.102 978.709 785.627 980.592 789.6 981.708 L 784.241 987.611 L 776.988 995.392 C 775.795 988.758 775.201 983.921 774.544 977.227 z" fill="rgb(245,158,11)" transform="translate(0,0)"></path>
<path d="M 682.529 875.235 C 692.147 874.485 705.427 874.7 713.55 879.82 C 745.819 900.162 740.829 928.056 706.131 938.029 C 686.092 941.673 660.768 935.197 654.275 913.539 C 652.136 906.632 652.851 899.156 656.261 892.779 C 662.115 882.031 671.719 878.538 682.529 875.235 z" fill="rgb(13,150,104)" transform="translate(0,0)"></path>
<path d="M 1085.92 715.939 C 1089.3 717.426 1090.45 718.678 1091.14 722.183 C 1088.7 727.274 1017.37 761.847 1006.36 767.444 L 833.137 855.406 C 818.948 862.698 796.001 872.896 783.554 881.464 C 780.79 880.114 780.401 879.797 778.152 877.689 C 777.83 876.566 776.994 874.665 777.686 874.003 C 784.595 867.397 808.003 857.137 815.765 853.121 C 856.682 831.77 897.822 810.851 939.18 790.367 C 988.275 765.72 1036.48 740.062 1085.92 715.939 z" fill="rgb(26,58,40)" transform="translate(0,0)"></path>
<path d="M 1156.08 786.889 C 1158.79 786.671 1159.01 786.89 1161.61 787.917 C 1163.79 790.601 1163.37 789.296 1163.24 792.597 C 1159.96 798.106 1140.48 806.042 1133.46 809.659 L 1052.29 850.568 C 1017.86 867.735 984.182 886.369 949.618 903.244 C 924.301 915.603 899.302 928.572 874.299 941.552 C 871.268 942.678 870.426 941.416 868.407 939.68 C 867.152 936.211 867.252 937.687 868.009 934.093 C 868.864 932.801 869.773 931.727 871.194 931.047 C 900.22 917.146 929.034 902.376 957.694 887.744 L 1156.08 786.889 z" fill="rgb(26,58,40)" transform="translate(0,0)"></path>
<path d="M 861.865 725.848 C 865.117 726.243 865.226 726.25 867.5 728.458 C 867.88 730.365 868.059 730.866 867.032 732.655 C 864.522 737.028 817.353 759.241 810.054 762.934 L 676.527 831.161 C 660.048 839.628 625.772 859.81 609.782 863.987 C 606.625 862.897 606.367 862.931 604.355 860.426 L 604.644 858.286 C 610.461 851.306 836.907 737.957 861.865 725.848 z" fill="rgb(26,58,40)" transform="translate(0,0)"></path>
<path d="M 676.388 282.361 C 694.792 281.408 703.857 290.605 716.436 302.39 C 727.625 312.872 738.648 323.504 749.665 334.168 C 738.639 341.979 715.935 353.328 703.298 359.941 L 619.155 403.736 C 503.304 465.055 384.926 524.64 269.657 586.527 C 264.34 589.273 259.759 591.449 254.952 595.084 C 240.936 581.72 208.918 557.186 203.236 538.286 C 201.232 531.619 208.281 521.787 214.63 518.42 C 249.375 499.997 284.682 482.462 319.595 464.28 L 506.66 366.426 L 608.085 313.081 C 625.86 303.722 644.129 294.261 662.152 285.32 C 665.386 283.716 672.729 282.828 676.388 282.361 z" fill="rgb(244,241,225)" transform="translate(0,0)"></path>
<path d="M 484.673 416.921 C 488.55 416.748 491.547 417.554 494.668 419.879 C 497.341 431.36 450.109 451.803 439.585 456.585 C 434.293 457.37 434.204 457.314 430.412 453.859 C 429.837 452 429.34 451.086 430.022 449.096 C 432.794 441.009 474.523 422.244 484.673 416.921 z" fill="rgb(26,58,40)" transform="translate(0,0)"></path>
<path d="M 165.086 573.59 C 171.728 578.405 194.906 601.431 202.764 608.93 C 241.54 645.931 279.636 684.182 318.139 721.467 L 660.861 1047.75 L 761.037 1144.19 C 780.442 1163.17 801.169 1184.32 821.262 1201.94 C 852.082 1228.96 906.368 1230.03 941.911 1212.65 C 973.143 1197.38 1003.72 1180.87 1034.48 1164.79 L 1185.23 1086.92 L 1325.78 1015.85 C 1348.3 1004.47 1400.56 981.787 1415.28 963.269 C 1415.43 982.079 1417.68 1000.01 1410 1016.85 C 1407.19 1021.83 1403.78 1026.45 1399.84 1030.59 C 1386.4 1044.67 1332.53 1067.9 1313.58 1077.52 L 1143.35 1164.5 L 1011.14 1232.09 C 987.376 1244.42 964.108 1257.95 939.62 1269.52 C 908.462 1284.25 863.67 1284.8 834.05 1265.99 C 817.16 1255.27 799.291 1234.81 784.304 1220.74 L 668.815 1111.13 C 504.48 955.845 341.541 799.092 180.018 640.886 C 160.924 622.02 165.187 599.473 165.086 573.59 z" fill="rgb(13,150,104)" transform="translate(0,0)"></path>
<path d="M 1402.15 88.4358 C 1427.78 84.7945 1457.93 94.9271 1480.92 104.893 C 1497.1 94.5921 1510.96 88.0002 1530.91 88.7623 C 1549.18 89.4994 1566.42 97.3611 1578.95 110.662 C 1594.45 127.403 1597.75 143.983 1596.91 165.817 C 1648.04 160.081 1693.38 182.163 1718.51 227.184 C 1725.17 239.122 1738.19 274.331 1744.11 288.894 L 1786.46 392.709 C 1793.28 409.062 1799.64 430.537 1811.56 443.697 C 1820.53 453.609 1833.72 458.562 1845.46 464.389 C 1850.29 466.784 1854.89 469.472 1858.92 473.075 C 1867.9 481.086 1909.06 527.968 1911.7 536.748 C 1913.21 541.776 1912.06 546.084 1909.55 550.542 C 1895.88 574.76 1820.23 612.368 1793.94 619.95 C 1802.37 680.497 1750.64 728.04 1693.19 731.471 C 1672.08 732.731 1655.34 728.548 1636.76 718.777 C 1624.2 711.015 1618.05 705.211 1608.43 694.367 C 1584.11 700.01 1478.68 727.147 1456.68 702.3 C 1451.16 696.054 1452.19 625.714 1456.27 616.567 C 1477.33 569.396 1470.69 551.199 1460.44 502.801 L 1441.07 408.158 C 1424.22 327.306 1396.1 254.817 1480.7 198.995 C 1467.82 188.394 1460.83 174.752 1458.65 158.227 C 1419.35 155.686 1387.91 170.351 1380.98 211.44 C 1375.45 244.206 1353 265.159 1318.91 250.233 C 1272.49 229.906 1274.47 168.828 1305.49 135.077 C 1332 106.226 1362.85 91.2336 1402.15 88.4358 z" fill="rgb(26,58,40)" transform="translate(0,0)"></path>
<path d="M 1467.11 613.973 C 1490.77 570.867 1477.74 542.64 1469.76 498.319 C 1458.61 436.396 1442.76 374.755 1432.65 312.859 C 1427.41 280.797 1445.72 241.712 1470.03 220.684 C 1495.89 198.323 1550.18 176.016 1584.79 178.105 L 1583.11 179.375 L 1584.78 180.235 C 1582.7 183.167 1582.12 183.562 1581.79 186.979 C 1583.36 189.742 1588.51 191.753 1591.36 192.549 C 1622.58 201.275 1644.8 217.594 1662.2 245.03 C 1672.23 260.847 1677.36 277.825 1684.34 295.541 C 1697.34 328.314 1710.03 361.206 1722.42 394.215 C 1737.62 433.767 1746.6 464.963 1777.44 495.231 C 1769.17 498.023 1759.84 500.24 1751.37 502.612 C 1664.75 526.878 1581.09 554.243 1500.85 595.218 C 1522.53 549.104 1490.03 453.779 1481.73 403.592 C 1480.29 394.862 1458.2 290.534 1458.73 291.191 C 1455.4 290.052 1456.81 290.178 1453.19 291.204 C 1449.42 296.157 1450.97 305.353 1451.98 311.535 C 1465.36 393.031 1491.66 473.577 1498.11 555.903 C 1499.79 577.391 1492.54 582.766 1488.64 600.371 C 1481.49 605.299 1474.52 609.485 1467.11 613.973 z" fill="rgb(13,150,104)" transform="translate(0,0)"></path>
<path d="M 1472.13 245.647 C 1476.46 245.949 1477.31 246.515 1479.76 249.156 C 1480.72 253.948 1471.83 267.001 1468.78 274.006 C 1466.14 274.38 1465.62 274.227 1462.94 273.875 C 1454.85 267.495 1467.1 251.092 1472.13 245.647 z" fill="rgb(26,58,40)" transform="translate(0,0)"></path>
<path d="M 1750 565.165 L 1752.94 565.16 C 1763.05 571.57 1775.09 593.092 1779.06 604.313 C 1786.42 624.744 1785.37 647.262 1776.14 666.919 C 1753.24 714.613 1691.98 733.844 1644.8 710.974 C 1605.89 688.407 1598.37 657.127 1602.26 615.167 C 1644.26 597.528 1706.39 576.847 1750 565.165 z" fill="rgb(245,158,11)" transform="translate(0,0)"></path>
<path d="M 1618.8 635.363 C 1620.3 635.958 1621.8 636.554 1623.3 637.15 C 1628.51 646.334 1629.56 656.193 1634.89 665.88 C 1645.26 684.612 1664.64 696.599 1686.03 697.523 C 1692.35 697.82 1705.52 695.777 1708.55 701.33 C 1708.21 704.831 1707.84 704.965 1705.33 707.705 C 1704.73 707.81 1704.13 707.905 1703.52 707.99 C 1660.94 714.007 1623.38 688.78 1615.56 645.535 C 1614.66 640.561 1615.94 638.85 1618.8 635.363 z" fill="rgb(26,58,40)" transform="translate(0,0)"></path>
<path d="M 1411.46 98.4579 C 1433.34 98.0371 1453.73 103.596 1473.39 112.616 C 1463.07 126.825 1461.22 131.367 1458.64 148.081 C 1420.26 147.066 1388.39 156.882 1374.99 196.681 C 1368.83 214.986 1369.89 229.824 1353.52 241.616 C 1349.67 243.238 1345.58 244.198 1341.41 244.457 C 1267.12 248.325 1272.35 102.955 1411.46 98.4579 z" fill="rgb(244,241,225)" transform="translate(0,0)"></path>
<path d="M 1795.42 501.239 L 1796.32 501.302 C 1804.51 507.492 1818.9 523.847 1824.04 532.75 C 1798.17 538.582 1771.93 546.556 1746.43 553.993 C 1664.27 577.956 1585.43 605.692 1509.58 645.643 C 1501.64 650.067 1496.57 653.115 1489.13 658.319 C 1492.84 641.758 1494.81 626.868 1497.58 610.229 C 1515.94 598.404 1536.78 589.619 1556.64 580.845 C 1609.6 557.436 1663.88 540.054 1719.33 523.791 C 1744.89 516.294 1769 507.008 1795.42 501.239 z" fill="rgb(13,150,104)" transform="translate(0,0)"></path>
<path d="M 1584.79 178.105 C 1596.93 177.479 1609.73 176.964 1621.43 180.524 C 1649.54 189.083 1677.83 208.967 1692.33 234.873 C 1702.57 253.163 1710.3 274.745 1718.14 294.325 C 1731.34 327.063 1744.35 359.877 1757.17 392.765 C 1773.78 434.752 1782.12 464.689 1825.3 486.062 C 1815.48 487.494 1800.92 489.912 1791.39 492.771 L 1790.84 492.049 C 1783.76 483.012 1771.34 476.256 1765.16 465.412 C 1751.96 442.267 1742.78 416.261 1733.18 391.436 L 1695.9 295.783 C 1670.81 231.8 1657.21 197.685 1584.78 180.235 L 1583.11 179.375 L 1584.79 178.105 z" fill="rgb(244,241,225)" transform="translate(0,0)"></path>
<path d="M 1522.6 99.3742 C 1525.22 99.2046 1527.86 99.1362 1530.49 99.169 C 1545.07 99.4111 1561.91 106.957 1571.66 117.739 C 1585.51 133.046 1587.35 147.458 1586.79 166.79 C 1578.97 166.904 1572.77 167.648 1565.03 168.524 C 1572.09 127.21 1538.14 103.778 1502.14 126.109 C 1479.72 145.224 1486.9 169.154 1508.85 184.751 C 1502.57 187.183 1495.83 190.84 1489.76 193.923 C 1466.81 177.458 1462.11 142.817 1480.42 121.097 C 1491.35 108.146 1505.88 101.21 1522.6 99.3742 z" fill="rgb(245,158,11)" transform="translate(0,0)"></path>
<path d="M 1645.57 180.988 C 1654.04 181.19 1665.23 187.237 1672.31 191.523 C 1715.5 217.495 1723.4 267.17 1741.62 309.592 C 1750.01 329.149 1758.45 345.63 1765.79 366.161 C 1775.01 391.968 1787.42 420.531 1800.45 444.58 C 1811.19 463.678 1840.1 467.849 1854.42 480.957 C 1868.99 494.288 1880.62 514.221 1894.41 529.427 C 1885.87 525.469 1884 525.682 1874.54 525.981 C 1867.24 514.709 1853.47 496.011 1843.18 487.942 C 1821.16 470.667 1808.08 470.419 1791.61 445.01 C 1778.32 424.509 1776.13 412.813 1767.66 390.959 L 1735.27 308.632 C 1714.52 256.233 1699.12 207.933 1645.57 180.988 z" fill="rgb(13,150,104)" transform="translate(0,0)"></path>
<path d="M 1521.25 128.096 C 1543.31 126.746 1563.38 142.33 1554.95 167.638 C 1553.11 173.149 1539.07 175.408 1533.23 176.771 C 1504.84 183.912 1480.22 146.711 1521.25 128.096 z" fill="rgb(244,241,225)" transform="translate(0,0)"></path>
<path d="M 1831.87 493.325 C 1841.2 491.569 1857.55 519.113 1862.09 526.522 C 1855.65 528.249 1845.16 529.699 1838.23 530.84 C 1837.74 530.822 1835.8 530.357 1835.63 530.113 C 1826.86 518.195 1819.1 508.189 1808.06 498.346 C 1816.28 496.414 1823.54 494.749 1831.87 493.325 z" fill="rgb(244,241,225)" transform="translate(0,0)"></path>
<path d="M 1484.76 616.029 L 1485.02 616.305 C 1486.78 620.811 1479.11 655.58 1478.48 664.861 C 1473.33 668.678 1468.09 672.231 1463.87 677.047 L 1463.05 677.539 C 1462.18 670.371 1463.48 636.717 1464.01 628.675 C 1470.51 623.901 1477.74 620.025 1484.76 616.029 z" fill="rgb(13,150,104)" transform="translate(0,0)"></path>
<path d="M 296.984 957.133 C 302.307 956.888 306.312 959.051 310.788 961.62 C 361.469 990.714 414.387 1019.08 463.829 1050.07 C 464.515 1062.81 464.484 1133.37 462.518 1142.64 C 409.28 1167.35 354.065 1201.7 300.016 1226.6 C 296.66 1227.04 294.123 1226.16 291.172 1224.61 C 263.692 1210.23 236.676 1194.94 209.343 1180.27 L 164.287 1156.2 C 156.128 1151.84 142.437 1145.03 135.656 1139.55 C 132.291 1132.16 132.84 1052.04 135.982 1043.04 C 140.848 1038.06 150.621 1033.27 156.942 1029.81 C 200.753 1005.85 245.135 982.951 289.194 959.459 C 291.425 958.269 294.486 957.505 296.984 957.133 z" fill="rgb(26,58,40)" transform="translate(0,0)"></path>
<path d="M 298.234 1010.39 C 367.945 1005.26 410.078 1065.66 323.548 1078.98 C 245.514 1080.83 216.11 1020.39 298.234 1010.39 z" fill="rgb(13,150,104)" transform="translate(0,0)"></path>
<path d="M 291.548 1023.79 C 301.189 1023.32 331.854 1038.86 335.248 1047.44 C 335.177 1052.06 335.669 1050.22 332.692 1054.49 C 325.382 1053.39 289.995 1035.82 287.923 1030.09 C 288.383 1026.42 288.849 1026.9 291.548 1023.79 z" fill="rgb(244,241,225)" transform="translate(0,0)"></path>
<path d="M 247.256 1110.46 C 256.425 1114.54 281.114 1129.45 291.495 1135.2 C 292.119 1143.96 293.079 1208.9 290.551 1212.25 C 276.429 1205.22 260.141 1196.05 246.558 1188.12 C 246.08 1182.32 246.42 1167.05 246.491 1160.51 C 246.662 1144.84 245.583 1125.67 247.256 1110.46 z" fill="rgb(245,158,11)" transform="translate(0,0)"></path>
<path d="M 347.524 1112.87 L 348.081 1113.35 C 349.084 1115.33 348.918 1181.82 349.003 1188.96 C 334 1197.64 318.928 1205.2 303.502 1213.07 C 302.157 1209.85 302.863 1148.11 302 1137.31 C 314.67 1129.4 333.218 1121.24 347.524 1112.87 z" fill="rgb(245,158,11)" transform="translate(0,0)"></path>
<path d="M 144.024 1053.81 C 151.375 1056.79 179.14 1072.94 186.508 1077.6 C 186.066 1084.02 186.61 1096.02 186.607 1102.99 L 186.206 1152.89 L 185.863 1153.2 C 181.463 1154.22 150.994 1136.73 144.865 1133.39 C 144.983 1116.08 146.117 1069.51 144.024 1053.81 z" fill="rgb(245,158,11)" transform="translate(0,0)"></path>
<path d="M 450.173 1060.87 L 451.067 1061.06 C 452.692 1063.24 452.427 1127.37 452.278 1135.31 C 439.021 1142.01 425.838 1148.85 412.731 1155.84 L 411.822 1154.98 C 409.963 1147.43 411.702 1092.46 411.69 1080.05 C 423.895 1073.48 437.656 1067.03 450.173 1060.87 z" fill="rgb(245,158,11)" transform="translate(0,0)"></path>
<path d="M 398.247 1086.86 C 399.455 1087.03 398.97 1086.99 400.159 1087.93 C 400.895 1111.22 399.949 1139.42 399.778 1163.02 C 385.999 1169.48 374.649 1175.64 361.491 1183.26 L 360.415 1182.36 C 359.419 1177.85 360.033 1160.98 360.009 1155.5 C 359.938 1139.63 360.097 1123.71 359.329 1107.82 C 371.517 1100.82 385.742 1093.57 398.247 1086.86 z" fill="rgb(245,158,11)" transform="translate(0,0)"></path>
<path d="M 198.154 1084.27 C 205.95 1087.69 227.207 1100.62 235.899 1105.38 C 235.972 1128.16 237.062 1160.02 235.804 1182.08 C 222.59 1174.73 210.079 1168.76 196.892 1160.84 C 196.823 1135.31 197.244 1109.78 198.154 1084.27 z" fill="rgb(245,158,11)" transform="translate(0,0)"></path>
<path d="M 197.103 1020.24 C 202.206 1021.97 234.589 1040.86 239.832 1044.49 C 227.219 1050.09 206.012 1060.99 194.67 1068.41 L 151.515 1045 C 164.418 1036.87 183.108 1027.68 197.103 1020.24 z" fill="rgb(245,158,11)" transform="translate(0,0)"></path>
<path d="M 286.771 1088.65 C 301.56 1091.66 308.605 1093.34 323.63 1093.36 L 330.999 1098.84 C 333.741 1100.12 338.871 1101.9 341.865 1103.05 C 336.008 1107.26 306.048 1122.04 297.874 1126.23 C 284.38 1117.82 270.46 1110.12 256.17 1103.15 C 265.689 1097.69 276.151 1091.41 286.771 1088.65 z" fill="rgb(245,158,11)" transform="translate(0,0)"></path>
<path d="M 286.771 1088.65 C 301.56 1091.66 308.605 1093.34 323.63 1093.36 L 330.999 1098.84 C 322.38 1105.59 298.924 1104.74 290.004 1097.97 C 286.812 1095.55 286.896 1092.24 286.771 1088.65 z" fill="rgb(197,70,17)" transform="translate(0,0)"></path>
<path d="M 391.6 1021.92 C 396.558 1021.97 437.598 1046.54 443.855 1051.2 C 436.975 1054.39 430.137 1057.67 423.341 1061.04 C 418.959 1063.22 414.881 1065.98 410.76 1068.63 C 402.843 1063.27 393.009 1059.33 386.432 1054.84 C 380.891 1051.06 386.539 1041.4 378.824 1029.86 L 378.151 1028.87 C 382.565 1026.72 387.21 1024.19 391.6 1021.92 z" fill="rgb(245,158,11)" transform="translate(0,0)"></path>
<path d="M 298.958 966.881 C 308.443 973.448 324.966 981.925 335.833 988.475 C 328.94 991.801 324.997 993.443 318.976 998.368 C 312.456 997.611 309.26 997.301 302.752 997.508 C 297.06 997.721 291.613 998.473 285.973 999.173 C 278.216 994.16 270.305 990.081 262.378 984.747 C 274.604 978.861 286.798 972.905 298.958 966.881 z" fill="rgb(245,158,11)" transform="translate(0,0)"></path>
<path d="M 239.452 1056.93 C 243.148 1058.31 241.943 1062.24 246.793 1066.59 C 254.543 1073.53 262.663 1076.35 271.085 1081.93 L 271.875 1082.46 C 266.12 1084.86 245.628 1096.51 242.66 1096.12 C 230.696 1088.81 218.447 1081.98 205.941 1075.64 C 214.68 1069.77 229.726 1062.25 239.452 1056.93 z" fill="rgb(245,158,11)" transform="translate(0,0)"></path>
<path d="M 250.044 991.815 C 253.356 991.664 267.728 1001.61 271.259 1003.89 C 253.226 1012.17 251.442 1013.69 240.41 1029.57 C 237.629 1029.9 236.082 1028.43 233.143 1026.92 C 224.825 1022.26 217.203 1018.39 208.641 1014.18 C 222.43 1006.59 236.556 999.919 250.044 991.815 z" fill="rgb(245,158,11)" transform="translate(0,0)"></path>
<path d="M 374.456 1069.69 L 378.534 1063.73 C 385.912 1067.96 391.319 1070.89 399.036 1074.43 C 385.848 1080.03 376.142 1087.05 364.291 1092.54 C 361.927 1094.45 356.821 1096.48 353.873 1097.8 L 338.223 1088.85 C 354.455 1083.12 361.774 1082.24 374.456 1069.69 z" fill="rgb(197,70,17)" transform="translate(0,0)"></path>
<path d="M 374.456 1069.69 L 378.534 1063.73 C 385.912 1067.96 391.319 1070.89 399.036 1074.43 C 385.848 1080.03 376.142 1087.05 364.291 1092.54 C 363.563 1089.1 368.957 1087.13 370.806 1083.31 C 372.526 1079.77 373.633 1073.58 374.456 1069.69 z" fill="rgb(245,158,11)" transform="translate(0,0)"></path>
<path d="M 343.972 994.962 C 349.687 994.199 375.838 1011.77 382.148 1015.76 C 379.23 1017.34 375.537 1019.04 372.502 1020.52 C 357.865 1010.01 350.166 1005.72 332.666 1001.45 C 337.898 999.096 339.462 998.403 343.972 994.962 z" fill="rgb(245,158,11)" transform="translate(0,0)"></path>
<path d="M 1157.15 92.7573 C 1162.52 92.3375 1180.22 102.979 1186.57 106.189 C 1191.39 129.172 1194.91 157.024 1198.97 180.735 L 1223.7 322.307 C 1231.45 317.774 1238.15 313.828 1245.56 308.767 C 1252.66 312.875 1272.95 322.561 1276.84 327.571 C 1275.37 335.492 1213.96 508.249 1211.81 509.872 C 1201.85 513.009 1181.11 504.557 1171.8 499.828 C 1166.88 496.615 1156.37 487.059 1151.25 482.715 L 1110.88 448.565 C 1100.55 439.743 1079.49 423.569 1071.21 415.165 C 1070.85 413.954 1070.4 412.707 1070.65 411.432 C 1071.61 406.472 1113.86 382.926 1121.81 377.984 C 1118.15 353.64 1112.61 326.919 1108.19 302.621 L 1092.22 212.405 C 1088.61 193.075 1079.48 151.782 1078.73 134.158 C 1103.25 122.344 1132.7 105.767 1157.15 92.7573 z" fill="rgb(26,58,40)" transform="translate(0,0)"></path>
<path d="M 1176.76 118.016 C 1181.17 122.124 1206.81 297.489 1211.87 317.298 C 1213.88 325.16 1215.26 355.668 1222.63 359.528 C 1231.66 356.595 1251.52 342.318 1263.46 337.002 C 1244.08 389.866 1224.31 442.073 1206.85 495.706 C 1201.77 492.374 1197.33 488.628 1192.63 484.803 C 1167.35 463.102 1141.79 441.73 1115.95 420.694 C 1125.3 413.947 1150.96 401.607 1156.84 394.118 C 1158.44 387.626 1151.14 353.421 1149.59 344.807 C 1144.95 318.427 1140.14 292.079 1135.15 265.764 C 1127.98 227.961 1121.88 189.941 1114.62 151.963 C 1124.79 144.931 1163.85 124.897 1176.76 118.016 z" fill="rgb(245,158,11)" transform="translate(0,0)"></path>
<path d="M 1090.74 147.638 C 1096.07 149.554 1100.82 152.034 1105.87 154.545 C 1105.73 166.308 1112.88 200.551 1115.34 214.926 L 1145.95 384.091 C 1143.7 383.288 1134.7 378.046 1132.11 376.603 C 1127.76 356.292 1123.83 327.063 1120.03 305.537 C 1110.58 252.847 1100.82 200.213 1090.74 147.638 z" fill="rgb(244,241,225)" transform="translate(0,0)"></path>
<path d="M 1157.8 103.937 C 1162.28 105.05 1166.97 107.385 1171.23 109.316 C 1151.25 118.842 1127.15 132.597 1107.19 143.086 C 1104.56 143.158 1096.43 139.029 1093.45 137.667 C 1099.93 135.064 1110.61 128.971 1117.06 125.539 L 1157.8 103.937 z" fill="rgb(244,241,225)" transform="translate(0,0)"></path>
<path d="M 1127.83 386.063 C 1133.5 387.954 1136.67 390.488 1141.5 393.982 C 1125.63 402.529 1112.96 410.064 1098.06 420.166 L 1096.49 420.745 C 1093.45 419.796 1087.86 414.996 1085.03 412.788 C 1098.68 403.608 1113.74 394.707 1127.83 386.063 z" fill="rgb(244,241,225)" transform="translate(0,0)"></path>
<path d="M 1102.58 427.593 C 1110.29 428.581 1182.52 489.973 1192.36 498.176 C 1186.83 496.566 1181.6 494.096 1176.84 490.855 C 1170.77 486.782 1164.41 481.159 1158.9 476.299 C 1140.41 459.979 1120.43 444.565 1102.58 427.593 z" fill="rgb(244,241,225)" transform="translate(0,0)"></path>
<path d="M 1245.62 320.868 C 1248.08 321.636 1256.17 325.939 1258.91 327.316 C 1251.22 332.005 1243.91 335.912 1235.97 340.149 C 1233 341.82 1231.97 342.678 1228.6 343.018 C 1226.13 340.335 1226.48 337.306 1225.82 333.054 C 1232.73 328.997 1238.92 325.281 1245.62 320.868 z" fill="rgb(244,241,225)" transform="translate(0,0)"></path>
<path d="M 1711.2 1042.43 C 1770.74 1040.45 1855.65 1063.63 1855.73 1135.42 C 1855.75 1160.14 1853.54 1173.9 1835.63 1192.74 C 1811.33 1218.29 1765.25 1233.04 1731.25 1233.91 C 1685.95 1234.88 1645.25 1227.96 1608.35 1198.63 C 1576.21 1173.07 1575.15 1114.58 1601.38 1085.09 C 1626.3 1057.08 1674.37 1044.18 1711.2 1042.43 z" fill="rgb(26,58,40)" transform="translate(0,0)"></path>
<path d="M 1702.16 1053.4 C 1725.6 1047.9 1775.71 1058.46 1797.44 1068.61 C 1830.57 1084.08 1860.18 1118.64 1832.82 1153.85 C 1809.03 1184.45 1775.48 1194.31 1739.11 1199.87 C 1704.14 1202.05 1650.51 1196.44 1624.01 1172.87 C 1546.28 1103.75 1642.9 1059.43 1702.16 1053.4 z" fill="rgb(13,150,104)" transform="translate(0,0)"></path>
<path d="M 1676.58 1087.02 C 1709.78 1083.01 1694.99 1118.45 1691.47 1139.1 C 1711.51 1133.38 1731.06 1126.59 1751.19 1120.62 C 1759.07 1118.28 1803.16 1099.82 1792.53 1124.01 C 1791.07 1127.32 1786.42 1128.21 1783.08 1129.12 C 1752.8 1136.53 1721.03 1149.59 1690.81 1158.1 C 1683.16 1160.26 1676.5 1162.84 1668.47 1163.83 C 1660.34 1159.55 1666.36 1138.54 1667.97 1131.02 C 1670.45 1119.37 1671.28 1096.86 1676.58 1087.02 z" fill="rgb(244,241,225)" transform="translate(0,0)"></path>
<path d="M 1594.98 1155.94 C 1648.29 1231.24 1792.88 1229.49 1844.84 1155.12 L 1841.69 1165.34 C 1819.27 1214.01 1755.18 1225.28 1706.98 1223.36 C 1671.97 1221.96 1633.28 1210.62 1608.54 1184.59 C 1602.15 1177.86 1594.6 1165.53 1594.98 1155.94 z" fill="rgb(13,150,104)" transform="translate(0,0)"></path>
<path d="M 1316.2 1169.28 C 1338.52 1166.27 1359.07 1181.86 1362.19 1204.16 C 1365.31 1226.46 1349.82 1247.09 1327.53 1250.31 C 1305.1 1253.55 1284.3 1237.93 1281.16 1215.48 C 1278.03 1193.04 1293.74 1172.31 1316.2 1169.28 z" fill="rgb(26,58,40)" transform="translate(0,0)"></path>
<path d="M 1319.75 1179.43 C 1330.71 1178.8 1341.18 1184.11 1347.13 1193.34 C 1353.09 1202.58 1353.62 1214.3 1348.52 1224.03 C 1343.43 1233.76 1333.49 1240 1322.51 1240.36 C 1305.82 1240.91 1291.79 1227.94 1291.04 1211.26 C 1290.28 1194.58 1303.08 1180.39 1319.75 1179.43 z" fill="rgb(13,150,104)" transform="translate(0,0)"></path>
<path d="M 152.528 774.281 C 174.168 770.208 195.024 784.414 199.158 806.043 C 203.292 827.672 189.145 848.568 167.527 852.762 C 145.824 856.973 124.827 842.757 120.677 821.042 C 116.527 799.327 130.801 778.37 152.528 774.281 z" fill="rgb(26,58,40)" transform="translate(0,0)"></path>
<path d="M 158.653 784.45 C 174.718 783.743 188.334 796.152 189.115 812.214 C 189.897 828.275 177.55 841.948 161.492 842.803 C 145.33 843.664 131.548 831.219 130.762 815.053 C 129.975 798.887 142.483 785.163 158.653 784.45 z" fill="rgb(13,150,104)" transform="translate(0,0)"></path>
<path d="M 1302.65 490.608 C 1316.99 490.023 1312.55 506.507 1319.99 519.439 C 1328.07 533.488 1357.25 536.321 1357.52 543.888 C 1351.64 550.319 1343.35 547.609 1336.51 550.544 C 1312.28 560.929 1317.52 579.784 1310.96 593.849 C 1309.24 594.014 1307.69 594.223 1306.07 593.691 C 1302.12 592.72 1296.3 574.268 1295.82 570.646 C 1293.35 552.378 1258.69 550.284 1256.12 542.047 C 1259.74 535.816 1273.5 535.427 1280.49 532.168 C 1299.7 523.225 1296.89 505.451 1302.65 490.608 z" fill="rgb(26,58,40)" transform="translate(0,0)"></path>
<path d="M 1305.66 518.457 C 1307.81 519.559 1312.35 527.839 1316.73 531.798 C 1322.6 537.092 1322.72 537.368 1329.94 541.726 C 1317.21 549.625 1313.83 553.411 1306.93 566.643 C 1305.52 565.315 1303.28 560.97 1301.99 559.103 C 1295.67 549.954 1291.56 546.916 1282.29 541.476 C 1297 535.433 1299.43 532.345 1305.66 518.457 z" fill="rgb(245,158,11)" transform="translate(0,0)"></path>
<path d="M 324.981 241.498 C 326.381 241.612 328.064 241.748 330.032 241.908 C 338.216 247.849 333.636 258.86 341.403 269.146 C 350.929 281.762 366.188 281.138 372.239 286.798 C 373.49 294.636 355.256 296.432 348.234 302.095 C 336.634 311.45 338.879 322.111 332.367 334.536 C 331.018 334.397 327.08 334.19 326.546 333.569 C 319.372 325.235 321.685 315.719 312.978 306.634 C 303.366 296.606 291.618 297.55 283.733 292.346 C 282.401 289.052 282.637 290.457 283.097 286.968 C 286.094 283.673 289.146 284.434 293.711 283.048 C 316.263 276.202 318.744 262.589 324.981 241.498 z" fill="rgb(26,58,40)" transform="translate(0,0)"></path>
<path d="M 328.827 268.766 C 329.571 269.514 332.184 273.735 333.038 274.934 C 338.258 282.261 341.145 284.375 348.706 289.165 C 336.334 296.577 333.801 298.383 328.081 311.482 C 322.691 297.757 319.409 296.361 306.729 289.285 C 317.878 283.298 322.251 279.512 328.827 268.766 z" fill="rgb(245,158,11)" transform="translate(0,0)"></path>
<path d="M 602.971 1195.61 C 615.914 1193.88 627.827 1202.92 629.633 1215.85 C 631.44 1228.79 622.461 1240.75 609.539 1242.63 C 596.514 1244.52 584.435 1235.46 582.614 1222.42 C 580.793 1209.39 589.926 1197.36 602.971 1195.61 z" fill="rgb(26,58,40)" transform="translate(0,0)"></path>
<path d="M 601.456 1206.61 C 608.195 1203.96 615.828 1207.1 618.755 1213.72 C 621.682 1220.35 618.86 1228.1 612.36 1231.3 C 607.912 1233.48 602.624 1233.06 598.584 1230.19 C 594.544 1227.32 592.4 1222.46 592.999 1217.54 C 593.598 1212.62 596.844 1208.43 601.456 1206.61 z" fill="rgb(13,150,104)" transform="translate(0,0)"></path>
<path d="M 1864.29 865.115 C 1876.7 863.325 1888.3 871.697 1890.52 884.046 C 1892.73 896.395 1884.76 908.277 1872.5 910.912 C 1864.18 912.699 1855.55 909.807 1849.99 903.37 C 1844.43 896.933 1842.82 887.975 1845.8 880.007 C 1848.78 872.039 1855.87 866.329 1864.29 865.115 z" fill="rgb(26,58,40)" transform="translate(0,0)"></path>
<path d="M 1865.39 875.111 C 1866.31 875.259 1867.23 875.425 1868.15 875.609 C 1883.02 878.606 1884.09 893.327 1870.09 901.181 C 1853.72 901.138 1847.35 881.043 1865.39 875.111 z" fill="rgb(13,150,104)" transform="translate(0,0)"></path>
<path d="M 505.299 128.979 C 517.989 128.222 528.922 137.827 529.805 150.509 C 530.689 163.192 521.193 174.219 508.521 175.229 C 495.668 176.253 484.449 166.594 483.553 153.731 C 482.657 140.869 492.428 129.747 505.299 128.979 z" fill="rgb(26,58,40)" transform="translate(0,0)"></path>
<path d="M 502.427 140.204 C 509.083 137.897 516.345 141.454 518.602 148.128 C 520.859 154.801 517.248 162.036 510.557 164.243 C 503.938 166.427 496.796 162.862 494.562 156.259 C 492.329 149.655 495.841 142.487 502.427 140.204 z" fill="rgb(13,150,104)" transform="translate(0,0)"></path>
<path d="M 942.461 258.627 C 950.308 256.179 958.865 258.136 964.868 263.751 C 970.871 269.366 973.394 277.774 971.475 285.767 C 969.555 293.76 963.49 300.105 955.591 302.382 C 943.562 305.85 930.983 298.989 927.385 286.999 C 923.786 275.008 930.51 262.355 942.461 258.627 z" fill="rgb(26,58,40)" transform="translate(0,0)"></path>
<path d="M 944.377 268.612 C 950.918 265.845 958.463 268.913 961.216 275.459 C 963.97 282.006 960.887 289.544 954.335 292.285 C 947.802 295.017 940.29 291.945 937.544 285.417 C 934.798 278.89 937.855 271.371 944.377 268.612 z" fill="rgb(13,150,104)" transform="translate(0,0)"></path>
<path d="M 1586.31 876.206 C 1598.5 873.714 1610.42 881.543 1612.98 893.727 C 1615.54 905.911 1607.78 917.874 1595.61 920.499 C 1583.34 923.144 1571.27 915.307 1568.69 903.028 C 1566.11 890.75 1574.01 878.717 1586.31 876.206 z" fill="rgb(26,58,40)" transform="translate(0,0)"></path>
<path d="M 1585.43 887.416 C 1589.52 885.424 1594.38 885.828 1598.08 888.469 C 1601.79 891.109 1603.76 895.565 1603.21 900.083 C 1602.67 904.602 1599.7 908.461 1595.47 910.144 C 1589.25 912.617 1582.2 909.732 1579.5 903.616 C 1576.8 897.499 1579.42 890.342 1585.43 887.416 z" fill="rgb(13,150,104)" transform="translate(0,0)"></path>
<path d="M 1424.03 738.563 C 1426.75 738.685 1426.83 738.755 1429.46 739.555 C 1432.93 743.927 1430.42 747.735 1427.09 751.56 C 1417.19 762.966 1406.39 774.151 1396.49 785.552 C 1394.79 785.339 1393.78 784.997 1392.13 784.551 C 1388.39 780.058 1390 776.86 1393.47 772.582 C 1402.9 760.968 1413.92 749.55 1424.03 738.563 z" fill="rgb(26,58,40)" transform="translate(0,0)"></path>
<path d="M 1397.3 707.818 C 1398.65 708.066 1400.16 708.913 1401.47 709.521 C 1403.36 712.273 1403.08 711.052 1402.96 714.144 C 1399.4 720.084 1365.48 736.339 1356.48 741.14 C 1353.52 741.495 1352.55 740.877 1349.63 739.858 C 1345.34 731.232 1389.56 711.772 1397.3 707.818 z" fill="rgb(26,58,40)" transform="translate(0,0)"></path>
<path d="M 1375.3 673.397 C 1380.06 672.803 1380.82 672.698 1384.02 676.35 C 1384.1 677.896 1384.5 678.792 1383.52 679.647 C 1376.7 685.625 1347.33 687.502 1338.76 688.519 C 1335.23 689.109 1333.8 689.431 1330.16 689.338 C 1327.17 686.815 1327.73 687.988 1326.78 684.654 L 1328.05 682.62 C 1336.1 677.351 1364.04 674.882 1375.3 673.397 z" fill="rgb(26,58,40)" transform="translate(0,0)"></path>
<metadata><recraft-signature>{"signed_by": "recraft", "signature_b64": "d8FG1LvbjN9OZqy+kb8DcdWfLC0you3g7kC9EgXwwSRou53TZAbAUEPLCm8dEpMQPnbyM0Me28ss6RTtSUWuAQ==", "signing_algo": "Ed25519", "generation_timestamp": 1780475676, "identifier": "5cf74937-3069-4ff2-b87a-f4bcff3ca365"}</recraft-signature></metadata></svg>