<svg xmlns="http://www.w3.org/2000/svg" height="1024" preserveAspectRatio="none" style="display: block;" version="1.1" viewBox="0 0 2048 1365" width="1536">
<path d="M 0 0 L 2048 0 L 2048 1365 L 0 1365 L 0 0 z" fill="rgb(244,241,225)" transform="translate(0,0)"></path>
<path d="M 1339.14 766.348 C 1338.85 791.835 1339.23 817.441 1339.09 842.858 C 1339.01 857.178 1339.98 872.906 1337.96 886.709 C 1334.73 908.758 1314.96 922.267 1293.49 921.436 C 1259.59 921.609 1226.05 921.639 1192.32 921.792 L 944.848 921.922 L 809.333 921.805 C 786.317 921.734 762.556 922.143 739.587 920.732 C 732.228 920.28 722.305 914.814 717.052 909.772 C 706.375 899.524 702.483 885.006 702.967 870.557 C 703.07 768.284 702.966 665.971 702.965 563.706 L 702.902 475.211 C 702.843 460.144 701.299 438.817 703.692 424.48 C 709.531 389.494 737.778 377.413 768.443 377.171 L 1156.49 377.236 C 1186.2 377.661 1215.92 377.77 1245.63 377.564 C 1272.32 377.503 1304.43 372.187 1324.17 392.327 C 1342.26 410.789 1339.1 434.909 1339.04 458.336 L 1338.92 521.618 L 1339.13 762.043 C 1406.51 760.243 1491.74 746.929 1557.41 734.37 C 1560.06 735.488 1560.29 735.501 1562.28 737.496 C 1501.21 752.281 1402.16 763.688 1339.14 766.348 z" fill="rgb(26,58,40)" transform="translate(0,0)"></path>
<path d="M 726.381 484.006 C 784.934 482.949 844.876 483.87 903.578 483.769 L 1316.49 484.28 C 1315.91 516.118 1316.42 548.863 1316.39 580.793 L 1316.26 779.369 C 1316.25 814.082 1317.08 852.168 1315.95 886.594 C 1313.33 890.862 1312.26 892.046 1308.87 895.74 C 1304.93 898.197 1301.94 899.318 1297.3 899.332 C 1260.45 899.446 1223.58 899.198 1186.73 899.187 C 1114.88 899.824 1043.03 899.844 971.185 899.248 L 823.041 899.685 C 798.314 899.819 773.359 900.257 748.63 899.764 C 731.995 899.433 727.012 889.145 726.449 873.884 C 725.881 858.527 726.071 842.914 726.092 827.415 L 726.448 737.486 L 726.381 484.006 z" fill="rgb(245,158,11)" transform="translate(0,0)"></path>
<path d="M 1008.32 534.25 C 1068.39 527.489 1122.46 570.973 1128.75 631.097 C 1135.04 691.22 1091.13 744.951 1030.96 750.766 C 971.454 756.518 918.446 713.201 912.227 653.742 C 906.009 594.282 948.908 540.935 1008.32 534.25 z" fill="rgb(26,58,40)" transform="translate(0,0)"></path>
<path d="M 1018.39 538.364 C 1075.68 537.179 1123.15 582.534 1124.57 639.82 C 1126 697.106 1080.84 744.766 1023.56 746.434 C 965.943 748.111 917.935 702.628 916.501 644.999 C 915.067 587.37 960.752 539.555 1018.39 538.364 z" fill="rgb(244,241,225)" transform="translate(0,0)"></path>
<path d="M 985.09 581.66 C 997.526 581.733 1035.6 612.922 1048.82 619.497 C 1055.24 622.693 1079.53 638.152 1079.75 645.783 C 1075.41 652.563 1053.9 664.77 1046.03 669.856 C 1029.4 680.306 1013.11 692.509 995.754 701.659 C 989.581 704.702 983.571 700.683 982.334 694.275 C 981.626 690.606 981.81 686.003 981.847 682.157 C 982.147 650.824 981.773 619.434 982.33 588.118 C 982.366 586.08 984.024 583.324 985.09 581.66 z" fill="rgb(26,58,40)" transform="translate(0,0)"></path>
<path d="M 987.493 586.444 C 993.281 588.269 1070.18 639.712 1073.15 643.716 C 1072.1 648.236 1047.73 662.472 1042.41 665.962 C 1027.14 675.668 1010.57 687.597 994.783 696.438 C 992.139 697.919 991.139 697.254 988.957 696.317 C 986.11 692.183 986.092 689.105 986.404 684.035 C 988.366 652.18 985.152 617.993 987.493 586.444 z" fill="rgb(13,150,104)" transform="translate(0,0)"></path>
<path d="M 1164.55 803.48 C 1178.41 803.096 1197.31 800.501 1207.75 810.111 C 1212.83 814.798 1215.8 821.344 1215.97 828.255 C 1216.43 857.882 1180.61 852.27 1160.76 852.328 L 1098.86 852.521 L 881.25 852.734 C 867.293 852.84 843.751 855.205 833.494 845.882 C 829.03 841.747 826.444 835.971 826.333 829.888 C 826.231 823.063 828.832 816.476 833.569 811.562 C 843.656 800.999 866.724 803.846 880.957 803.82 L 944.505 803.843 L 1164.55 803.48 z" fill="rgb(26,58,40)" transform="translate(0,0)"></path>
<path d="M 847.821 809.317 C 879.669 808.436 913.18 808.948 945.179 808.916 L 1113.55 808.876 C 1139.99 808.919 1170.65 807.776 1196.53 809.585 C 1208.54 810.425 1221.15 836.751 1195.87 846.981 L 964.311 847.194 C 924.334 847.263 881.618 848.712 842.06 845.592 C 831.582 844.766 823.509 818.088 847.821 809.317 z" fill="rgb(245,158,11)" transform="translate(0,0)"></path>
<path d="M 756.966 382.36 C 775.957 381.541 797.923 381.992 817.13 381.981 L 920.547 382.103 L 1185.96 382.136 C 1186.14 408.452 1186.13 434.769 1185.94 461.085 L 1138.5 461.013 L 857.988 461.004 C 811.54 461.05 753.463 462.612 708.09 460.383 C 707.465 421.04 709.087 388.719 756.966 382.36 z" fill="rgb(13,150,104)" transform="translate(0,0)"></path>
<path d="M 819.7 410.928 C 827.767 408.72 836.09 413.502 838.245 421.585 C 840.4 429.667 835.563 437.958 827.467 440.06 C 819.446 442.143 811.247 437.36 809.112 429.353 C 806.977 421.345 811.706 413.115 819.7 410.928 z" fill="rgb(26,58,40)" transform="translate(0,0)"></path>
<path d="M 820.097 416.796 C 823.15 415.378 826.732 415.732 829.448 417.719 C 832.165 419.706 833.586 423.013 833.159 426.351 C 832.732 429.69 830.523 432.532 827.394 433.772 C 822.745 435.613 817.474 433.422 815.5 428.828 C 813.525 424.234 815.562 418.903 820.097 416.796 z" fill="rgb(245,158,11)" transform="translate(0,0)"></path>
<path d="M 770.002 410.074 C 791.494 408.956 794.335 430.233 776.977 440.174 C 775.333 440.13 771.57 439.764 769.953 439.302 C 765.964 438.143 762.577 435.485 760.504 431.884 C 758.512 428.464 758.051 424.364 759.233 420.586 C 761.161 414.416 764.736 412.702 770.002 410.074 z" fill="rgb(26,58,40)" transform="translate(0,0)"></path>
<path d="M 769.88 416.653 C 772.872 415.419 776.301 415.941 778.789 418.011 C 781.277 420.081 782.415 423.358 781.745 426.524 C 781.076 429.69 778.709 432.226 775.596 433.112 C 771.147 434.378 766.483 431.952 764.966 427.582 C 763.448 423.212 765.604 418.418 769.88 416.653 z" fill="rgb(245,158,11)" transform="translate(0,0)"></path>
<path d="M 867.432 411.576 C 875 409.14 883.118 413.251 885.633 420.793 C 888.148 428.335 884.123 436.496 876.609 439.09 C 871.677 440.794 866.21 439.716 862.293 436.268 C 858.376 432.821 856.613 427.535 857.676 422.426 C 858.739 417.318 862.465 413.174 867.432 411.576 z" fill="rgb(26,58,40)" transform="translate(0,0)"></path>
<path d="M 870.181 416.551 C 874.947 415.747 879.48 418.905 880.376 423.654 C 881.273 428.403 878.203 432.996 873.473 433.985 C 870.329 434.642 867.077 433.549 864.968 431.128 C 862.858 428.707 862.222 425.335 863.303 422.312 C 864.385 419.288 867.015 417.085 870.181 416.551 z" fill="rgb(245,158,11)" transform="translate(0,0)"></path>
<path d="M 1252.11 383.212 C 1273.52 382.884 1304.68 378.644 1320.42 395.833 C 1336.41 413.295 1333.86 439.071 1333.23 460.957 L 1252.42 460.907 L 1252.11 383.212 z" fill="rgb(13,150,104)" transform="translate(0,0)"></path>
<path d="M 1191.36 383.157 L 1245.96 383.204 L 1245.98 461.171 L 1191.28 461.428 C 1191.44 435.338 1191.47 409.247 1191.36 383.157 z" fill="rgb(245,158,11)" transform="translate(0,0)"></path>
<path d="M 1482.89 764.734 C 1548.82 776.565 1619.85 796.108 1685.82 805.48 C 1693.94 807.742 1703.06 809.528 1711.36 811.091 C 1746.1 817.636 1780.5 825.932 1815.32 832.124 L 1822.52 833.521 C 1830.22 835.74 1841.5 837.547 1849.66 839.066 C 1871.42 843.853 1893.24 848.4 1915.11 852.707 C 1914.01 856.736 1909.6 872.183 1909.43 875.313 C 1908.53 892.118 1908.98 910.666 1908.97 927.593 L 1908.67 1025.38 L 1908.28 1183.01 L 1908.22 1235.04 C 1908.2 1241.03 1909.44 1264.1 1905.08 1267.1 C 1899.48 1267.53 1890.9 1265.19 1885.16 1263.93 C 1885.08 1270.63 1884.43 1276.26 1883.71 1282.88 C 1876.71 1281.15 1869.65 1279.62 1862.56 1278.29 C 1861.67 1284.99 1860.69 1291.68 1859.62 1298.36 C 1851.94 1296.45 1844.25 1294.63 1836.54 1292.89 C 1835.03 1300.58 1833.35 1308.22 1831.5 1315.82 L 1808.7 1310.61 C 1806.17 1319.56 1803.92 1329.37 1801.67 1338.45 C 1791.47 1337.39 1766.81 1331.54 1756.07 1329.32 C 1725.72 1323.29 1695.42 1317.03 1665.16 1310.54 C 1569.39 1291.36 1473.8 1271.24 1378.42 1250.17 C 1380.93 1240.2 1383.04 1229.32 1385.19 1219.2 C 1380.88 1222.38 1376.43 1225.73 1372.01 1228.77 C 1363.41 1234.7 1354 1242.7 1342.87 1241.01 C 1329.97 1239.06 1316.86 1225.16 1319.54 1211.65 C 1321.45 1201.98 1332.28 1195.54 1339.44 1189.87 C 1357.55 1176.84 1375.47 1162.13 1394.13 1150.02 C 1397.38 1139.81 1400.47 1123.6 1402.81 1112.96 L 1416.88 1048.96 L 1458.33 871.017 C 1465.8 838.578 1473.96 795.768 1482.89 764.734 z" fill="rgb(0,0,0)" transform="translate(0,0)"></path>
<path d="M 1485.95 769.555 C 1501.86 771.961 1524.49 778.136 1540.95 781.43 C 1573.74 787.993 1606.58 795.179 1639.42 801.584 L 1827.62 839.128 C 1853.8 844.533 1884.82 849.846 1910.23 856.273 C 1894.85 909.158 1884.01 958.753 1871.66 1011.92 C 1858.26 1068.25 1845.3 1124.68 1832.78 1181.21 L 1811.83 1276.25 C 1807.79 1294.23 1803.32 1316.38 1797.87 1333.63 C 1776.61 1328.37 1750.63 1323.89 1728.82 1319.51 L 1622.27 1297.71 L 1383.3 1247.13 C 1385.46 1238.3 1389.31 1224.23 1390.21 1215.64 C 1405.72 1203.38 1421.52 1191.48 1437.59 1179.96 C 1437.29 1181.46 1435.27 1191.39 1436.79 1191.79 C 1451.59 1195.59 1494.02 1208.1 1507.22 1206.72 C 1510.98 1200.11 1521.36 1152.96 1521.68 1144.75 C 1517.63 1140.25 1501.57 1138.23 1495.01 1136.96 C 1506.71 1129.41 1521 1118.23 1532.48 1109.74 C 1552.04 1095.09 1571.84 1080.77 1591.87 1066.77 L 1753.79 1101.3 C 1761.88 1103 1803.38 1113.24 1808.96 1112.05 L 1809.12 1110.86 C 1803.97 1106.55 1739.02 1093.65 1729.41 1091.61 L 1596.75 1063.17 C 1602.43 1058.38 1605.69 1056.35 1611.91 1052.52 C 1677.8 1064.19 1744.63 1079.96 1810.21 1093.53 C 1812.89 1094.08 1814.68 1094.12 1816.84 1092.57 L 1816.45 1090.65 C 1809.55 1087.89 1780.63 1083.1 1771.03 1080.72 C 1743.94 1074 1715.17 1069.19 1688 1063.33 C 1667.08 1058.82 1639.12 1054.25 1619.01 1048.66 L 1618.86 1047.35 L 1622.49 1044.66 C 1640.6 1031.18 1662.57 1016.79 1679.7 1002.66 C 1690.05 1005.06 1774.16 1023.62 1777.19 1022.3 L 1776.36 1020.86 C 1768.37 1015.45 1753.48 1014.35 1743.69 1012.26 C 1724.27 1008.01 1704.88 1003.64 1685.52 999.145 L 1701.32 987.992 C 1733.58 996.218 1766.32 1001.77 1798.76 1009.25 C 1809.5 1011.72 1820.97 1014.39 1831.84 1015.84 L 1833.35 1014.57 L 1833.73 1014.7 L 1833.64 1015.99 L 1834.26 1014.87 L 1834.64 1014.94 C 1823.62 1008.23 1728.5 989.841 1706.93 984.401 C 1712.37 980.341 1719.26 976.087 1725.02 972.326 C 1735.51 975.142 1834.37 996.797 1838.04 995.655 L 1838.57 994.335 C 1832.69 989.311 1746.03 972.766 1729.4 969.148 C 1738.83 963.179 1741.06 959.946 1747.43 950.748 C 1759.25 933.699 1770.85 916.514 1782.5 899.345 C 1793.29 901.864 1851.85 916.553 1858.88 915.363 C 1857.35 912.421 1848.27 909.361 1845.16 908.735 C 1770.09 893.62 1695.32 875.29 1620.26 860.852 C 1619.5 860.705 1618.69 862.325 1618.31 862.869 C 1620.03 864.63 1623.27 865.741 1625.71 866.135 C 1673.41 873.858 1721.75 889.328 1769.23 896.545 C 1752.42 903.939 1731.86 909.54 1716.07 917.99 C 1698.24 927.533 1677.97 943.597 1661.32 955.613 C 1648.22 953.278 1612.77 943.492 1602.05 944.503 L 1601.98 945.556 C 1611.44 951.009 1643.71 956.201 1656.92 959.506 C 1651.71 962.765 1647.18 965.991 1642.2 969.552 C 1631.01 967.167 1610.03 962.345 1598.26 961.113 C 1597.33 961.015 1597.1 962.145 1596.55 963.248 C 1599.51 966.536 1629.75 971.58 1637.42 973.693 C 1632.12 977.263 1626.96 981.133 1621.81 984.922 C 1615.87 983.958 1595.31 977.59 1591.01 980.148 C 1595.19 983.82 1610.04 986.249 1616.26 988.768 C 1592.59 1004.31 1567.17 1026.09 1544.42 1040.01 L 1547.8 1025.88 C 1535.5 1023.47 1484.27 1010.08 1475.82 1010.55 C 1471.89 1016.73 1459.7 1070.05 1461.19 1076.49 C 1465.06 1078.83 1479.02 1081.98 1484.55 1083.47 C 1456.67 1104.23 1428.49 1124.59 1400.03 1144.55 C 1418.6 1060.88 1437.75 977.348 1457.48 893.947 L 1474.5 819.187 C 1477.85 803.95 1481.49 784.01 1485.95 769.555 z" fill="rgb(244,241,225)" transform="translate(0,0)"></path>
<path d="M 1521.44 812.458 C 1528.44 813.385 1543.88 817.395 1551.14 819.201 C 1564.87 822.614 1582.02 826.03 1595.17 830.607 C 1589.95 851.19 1585.51 872.885 1580.96 893.702 C 1573.48 894.905 1515.36 881.784 1507.17 878.467 C 1510.52 859.516 1515.46 840.585 1518.82 821.594 C 1519.41 818.284 1520.2 815.57 1521.44 812.458 z" fill="rgb(0,0,0)" transform="translate(0,0)"></path>
<path d="M 1524.7 817.532 C 1544.43 821.555 1569.39 828.532 1590.19 833.142 C 1585.24 849.579 1580.61 871.603 1576.54 888.67 L 1576.11 889.038 C 1573.21 889.811 1520.7 877.827 1512.5 876.029 C 1515.55 857.615 1520.73 836.022 1524.7 817.532 z" fill="rgb(245,158,11)" transform="translate(0,0)"></path>
<path d="M 1538.12 833.646 C 1547.84 834.696 1548.85 838.869 1552.51 847.002 C 1573.38 824.986 1587.93 847.468 1565.83 866.763 C 1559.2 872.127 1553.97 875.577 1546.24 879.148 C 1539.86 871.047 1528.89 854.58 1530.11 843.799 C 1530.66 838.897 1534.42 836.208 1538.12 833.646 z" fill="rgb(0,0,0)" transform="translate(0,0)"></path>
<path d="M 1539.01 838.379 C 1546.17 839.857 1549.07 849.659 1551.96 855.98 C 1556.49 849.708 1562.7 840.365 1571.5 844.9 C 1574.65 850.614 1570.5 855.74 1566.69 859.858 L 1548.51 874.669 C 1543.44 867.342 1535.04 855.92 1534.5 847.07 C 1534.25 842.915 1536.31 841.186 1539.01 838.379 z" fill="rgb(244,241,225)" transform="translate(0,0)"></path>
<path d="M 1497.63 912.285 C 1522.47 918.031 1547.87 923.44 1572.81 928.848 C 1569.23 942.164 1562.73 980.658 1557.68 991.447 C 1533.6 985.07 1508.04 981.991 1484.85 973.752 C 1481.87 972.692 1486.28 956.581 1487.19 954.08 C 1490.63 944.577 1492.34 920.027 1497.63 912.285 z" fill="rgb(0,0,0)" transform="translate(0,0)"></path>
<path d="M 1500.01 917.26 C 1513.83 920.533 1527.83 923.32 1541.65 926.618 C 1550.9 928.2 1558.39 930.135 1567.49 932.501 C 1563.36 950.074 1558.66 968.822 1555.24 986.436 C 1544.74 983.852 1532.71 980.598 1522.22 978.587 C 1514.13 977.573 1496.66 973.272 1487.37 971.525 C 1491.91 955.271 1496.64 933.91 1500.01 917.26 z" fill="rgb(245,158,11)" transform="translate(0,0)"></path>
<path d="M 1524.41 976.931 C 1517.48 970.837 1497.05 940.187 1514.08 935.388 C 1523.64 932.694 1523.59 938.989 1529.57 942.468 C 1534.24 939.548 1537.01 938.006 1541.97 935.629 C 1549.07 937.472 1554.24 939.869 1551.91 949.158 C 1550.18 956.084 1530.02 974.835 1524.41 976.931 z" fill="rgb(0,0,0)" transform="translate(0,0)"></path>
<path d="M 1516.62 938.406 C 1523.54 941.807 1524.94 945.838 1528.93 952.415 C 1533.16 945.986 1536.74 940.201 1545.44 942.504 C 1550.38 947.987 1545.81 952.007 1541.8 956.505 C 1536.32 961.464 1530.54 966.101 1524.83 970.789 C 1520.3 964.451 1512.9 955.745 1512.15 948.16 C 1511.73 943.897 1514.04 941.715 1516.62 938.406 z" fill="rgb(244,241,225)" transform="translate(0,0)"></path>
<path d="M 1545.17 1162.23 C 1552.94 1160.83 1666.53 1186.18 1684.36 1189.85 L 1753.46 1204.23 C 1765.19 1206.69 1777.33 1209.09 1788.97 1211.87 C 1792.29 1212.66 1791.71 1212.62 1793.48 1215.04 C 1786.78 1217.49 1742.79 1206.55 1731.93 1204.18 L 1665.08 1190.27 L 1588.69 1174.33 C 1576.03 1171.74 1563.2 1169.32 1550.54 1166.7 C 1546.79 1165.92 1546.91 1165.08 1545.17 1162.23 z" fill="rgb(0,0,0)" transform="translate(0,0)"></path>
<path d="M 1543.98 1180.01 C 1548.61 1179.89 1783.02 1228.11 1785.96 1229.59 C 1787.88 1230.57 1787.76 1232.15 1788.25 1234.06 C 1772.9 1232.47 1741.1 1224.85 1725.09 1221.48 L 1609.55 1197.2 C 1590.43 1193.19 1565.83 1188.69 1546.35 1184.17 C 1544.53 1183.75 1544.45 1181.78 1543.98 1180.01 z" fill="rgb(0,0,0)" transform="translate(0,0)"></path>
<path d="M 1622.7 842.925 C 1635.51 843.487 1679.69 854.817 1695.65 857.97 C 1749.13 868.775 1802.42 880.783 1855.88 891.63 C 1860.62 892.592 1862.98 892.924 1862.82 897.782 C 1787.82 881.524 1711.21 865.955 1636.1 849.595 C 1632.25 848.757 1625 848.353 1622.32 845.429 L 1622.7 842.925 z" fill="rgb(0,0,0)" transform="translate(0,0)"></path>
<path d="M 1582.2 1080.12 C 1583.89 1079.87 1586.82 1079.89 1588.47 1080.22 C 1625.1 1087.73 1661.82 1095.28 1698.34 1103.3 C 1703.24 1104.37 1729.46 1109.31 1732.46 1110.81 L 1733.43 1114.59 C 1728.65 1114.61 1710.54 1110.4 1704.82 1109.16 L 1647.51 1096.82 L 1604.85 1088.16 C 1598.57 1086.9 1591.9 1085.63 1585.64 1084.17 C 1583.32 1083.63 1583.47 1082.62 1582.2 1080.12 z" fill="rgb(0,0,0)" transform="translate(0,0)"></path>
<path d="M 1540.98 1196.14 C 1550.6 1195.26 1657.96 1219.95 1674.14 1222.67 C 1676.96 1223.14 1677.13 1223.84 1678.13 1225.78 C 1672.09 1228.85 1567.55 1203.72 1555.47 1202.71 C 1553.53 1202.54 1544.77 1200.32 1542.51 1199.54 L 1540.98 1196.14 z" fill="rgb(0,0,0)" transform="translate(0,0)"></path>
<path d="M 1532.28 1237.01 C 1538.02 1237.32 1635.11 1257.63 1637.46 1258.93 L 1638.16 1262.03 C 1627.59 1261.9 1548.8 1244.32 1533.64 1241.01 C 1532.5 1240.77 1532.54 1238.64 1532.28 1237.01 z" fill="rgb(0,0,0)" transform="translate(0,0)"></path>
<path d="M 1615.05 877.839 C 1621.12 878.555 1699.54 895.733 1701.48 897.47 L 1701.42 900.464 C 1696.02 900.606 1617.42 882.839 1615.47 881.32 L 1615.05 877.839 z" fill="rgb(0,0,0)" transform="translate(0,0)"></path>
<path d="M 1431.03 1219.18 C 1440.55 1217.96 1495.58 1230.58 1508.62 1233.67 C 1510.05 1234.01 1510.05 1236.47 1510.31 1238.1 C 1500.47 1236.41 1437.58 1224.51 1431.71 1221.62 L 1431.03 1219.18 z" fill="rgb(0,0,0)" transform="translate(0,0)"></path>
<path d="M 1382.74 1163.43 C 1390.57 1157.96 1398.48 1151.95 1406.15 1146.22 C 1505.54 1072.03 1609.21 1001.99 1707.99 927.197 C 1711.96 931.431 1717.04 937.161 1719.7 942.255 L 1722.03 944.302 C 1726.57 949.794 1729.93 953.94 1733.99 959.899 C 1718.46 971.001 1702.71 981.282 1687.24 992.272 L 1533.25 1103.58 L 1459.62 1157.46 C 1449.44 1165.05 1424.25 1184.87 1414.77 1190.52 C 1407.07 1186.95 1403.71 1184.31 1396.8 1179.59 L 1394.92 1178.19 C 1390.5 1173.43 1386.06 1169.04 1382.74 1163.43 z" fill="rgb(245,158,11)" transform="translate(0,0)"></path>
<path d="M 1722.03 944.302 C 1726.57 949.794 1729.93 953.94 1733.99 959.899 C 1718.46 971.001 1702.71 981.282 1687.24 992.272 L 1533.25 1103.58 L 1459.62 1157.46 C 1449.44 1165.05 1424.25 1184.87 1414.77 1190.52 C 1407.07 1186.95 1403.71 1184.31 1396.8 1179.59 C 1400.89 1176.95 1405.16 1174.2 1409.11 1171.36 C 1450.96 1141.37 1492.23 1110.47 1533.73 1080.03 L 1722.03 944.302 z" fill="rgb(245,158,11)" transform="translate(0,0)"></path>
<path d="M 1394.92 1178.19 C 1410.09 1165.35 1433.84 1149.47 1450.46 1137.31 C 1487.1 1110.03 1523.96 1083.07 1561.06 1056.42 L 1662.57 983.003 C 1675.54 973.575 1707 949.476 1719.7 942.255 L 1722.03 944.302 L 1533.73 1080.03 C 1492.23 1110.47 1450.96 1141.37 1409.11 1171.36 C 1405.16 1174.2 1400.89 1176.95 1396.8 1179.59 L 1394.92 1178.19 z" fill="rgb(0,0,0)" transform="translate(0,0)"></path>
<path d="M 1888.63 958.596 C 1888.98 963.437 1881.55 1002.82 1880.45 1010.42 C 1871.7 1070.57 1859.73 1130.4 1849.64 1190.47 C 1843.04 1229.69 1836.38 1271.29 1828.49 1310.04 L 1813.2 1306.73 C 1812.28 1306.6 1811.5 1306.06 1810.59 1305.59 C 1809.4 1300.3 1816.32 1277.41 1817.89 1270.04 C 1835.22 1187.41 1853.86 1105.05 1873.78 1023 C 1878.61 1002.2 1882.45 978.957 1888.63 958.596 z" fill="rgb(244,241,225)" transform="translate(0,0)"></path>
<path d="M 1890.28 977.986 C 1891.33 969.679 1892.35 962.059 1893.81 953.805 C 1894.38 961.953 1893.48 974.194 1892.48 982.305 C 1890.61 1007.18 1886.29 1035.04 1883.47 1060.32 L 1856.07 1292.57 C 1849.78 1291.57 1843.69 1289.93 1837.51 1288.38 C 1841.09 1262.56 1846.63 1233.93 1851.05 1208.16 C 1858.65 1161.57 1866.74 1115.06 1875.32 1068.64 C 1880.79 1038.43 1884.73 1008.38 1890.28 977.986 z" fill="rgb(244,241,225)" transform="translate(0,0)"></path>
<path d="M 1902.33 926.689 C 1902.41 923.499 1902.22 918.405 1904.08 916.11 C 1905.63 919.803 1905.68 1021.3 1904.18 1027.48 C 1904.7 1064.48 1904.01 1102.62 1903.81 1139.73 C 1903.96 1180.92 1903.66 1222.1 1902.91 1263.29 L 1885.84 1258.97 C 1886.7 1202.26 1893.11 1144.99 1894.77 1088.17 C 1896.35 1034.45 1900.54 980.388 1902.33 926.689 z" fill="rgb(244,241,225)" transform="translate(0,0)"></path>
<path d="M 1902.33 926.689 C 1902.41 923.499 1902.22 918.405 1904.08 916.11 C 1905.63 919.803 1905.68 1021.3 1904.18 1027.48 C 1902.71 994.598 1904.99 959.253 1903.69 925.717 L 1902.98 925.746 L 1902.33 926.689 z" fill="rgb(122,122,119)" transform="translate(0,0)"></path>
<path d="M 1894.55 990.8 C 1894.99 997.405 1893.92 1013.14 1893.63 1020.56 L 1891.16 1081.01 C 1889.5 1120.16 1887.27 1158.44 1884.55 1197.51 C 1882.67 1224.4 1882.69 1251.16 1879.83 1278.18 C 1875.98 1276.77 1873.97 1275.98 1869.85 1275.22 C 1867.15 1274.52 1866.34 1274.29 1863.82 1273.14 C 1862.03 1265.71 1882.76 1103.78 1884.72 1085.61 L 1891.1 1022.56 C 1891.94 1014.01 1892.85 998.536 1894.55 990.8 z" fill="rgb(244,241,225)" transform="translate(0,0)"></path>
<path d="M 1489.98 1140.07 C 1498.92 1142.75 1508.73 1143.21 1517.38 1146.88 C 1513.76 1165.52 1508.67 1185.33 1504.03 1203.73 C 1492.01 1200.05 1447.79 1192.69 1440.54 1188.86 L 1440.49 1186.73 C 1441.68 1183.19 1442.45 1179.16 1443.27 1175.49 L 1460.33 1162.78 C 1464.85 1171.27 1471.17 1180.43 1476.52 1188.59 C 1483.3 1185.02 1498.77 1175.21 1499.51 1166.36 C 1500.5 1154.65 1481.43 1154.15 1478.06 1150.04 C 1481.02 1146.21 1485.98 1142.98 1489.98 1140.07 z" fill="rgb(245,158,11)" transform="translate(0,0)"></path>
<path d="M 1477.59 1014.71 C 1498.56 1020.12 1521.26 1025.07 1542.46 1029.66 C 1538.27 1047.95 1531.74 1049.92 1515.87 1060.73 C 1522.22 1053.47 1528.46 1046.8 1521.25 1037.07 C 1513.69 1032.75 1512.76 1037.91 1504.6 1038.5 L 1498.85 1031.86 C 1495.43 1030.48 1491.98 1028.94 1488.57 1031.28 C 1473.71 1041.46 1492.89 1062.88 1499.55 1071.95 C 1495.32 1075.96 1494.14 1076.89 1489.18 1079.95 C 1481.45 1078.39 1472.08 1075.78 1464.3 1073.83 C 1468.62 1057.39 1474.89 1031.22 1477.59 1014.71 z" fill="rgb(245,158,11)" transform="translate(0,0)"></path>
<path d="M 1745.03 909.997 C 1746.81 911.386 1756.48 924.127 1759.03 926.962 C 1755.96 931.124 1739.74 954.905 1737.25 955.987 L 1733.77 951.818 C 1727.5 942.596 1719.14 933.18 1712.01 924.355 C 1721.09 919.317 1735.08 914.109 1745.03 909.997 z" fill="rgb(244,241,225)" transform="translate(0,0)"></path>
<path d="M 1359.41 1180.74 C 1361.75 1181.38 1366.86 1187.85 1368.81 1189.96 C 1375.89 1197.6 1382.71 1202.34 1391.39 1207.95 C 1384.95 1212.41 1377.59 1218.35 1371.28 1223.2 C 1368.52 1224.88 1369.67 1224.68 1366.69 1224.57 C 1356.13 1218.85 1346.54 1204.74 1341.63 1194.01 L 1359.41 1180.74 z" fill="rgb(245,158,11)" transform="translate(0,0)"></path>
<path d="M 1337.54 1196.79 C 1344.6 1211.01 1351.78 1218.48 1363.84 1228.62 C 1357.98 1232.77 1355.04 1234.73 1348.3 1237.02 C 1347.14 1237.03 1345.98 1236.98 1344.83 1236.89 C 1329.15 1235.64 1318.19 1219.89 1327.38 1205.46 C 1328.81 1203.21 1335.15 1198.6 1337.54 1196.79 z" fill="rgb(244,241,225)" transform="translate(0,0)"></path>
<path d="M 1378.05 1165.88 C 1379.34 1166.99 1385.57 1173.94 1387.28 1175.75 C 1395.32 1184.28 1400.81 1188.13 1410.43 1194.38 C 1406.04 1197.75 1401.02 1201.24 1396.5 1204.52 C 1387.47 1204.98 1369.48 1184.37 1364.03 1176.98 C 1369.27 1173.27 1373.17 1169.99 1378.05 1165.88 z" fill="rgb(244,241,225)" transform="translate(0,0)"></path>
<path d="M 1488.59 1035.6 C 1499.02 1035.06 1498.92 1038.5 1502.78 1047.46 C 1507.67 1043.41 1511.5 1039.12 1517.98 1042.52 C 1522.04 1048.95 1517.24 1052.84 1512.72 1057.15 L 1502.42 1068.21 C 1495.94 1059.7 1484.46 1046.92 1488.59 1035.6 z" fill="rgb(244,241,225)" transform="translate(0,0)"></path>
<path d="M 1473.33 1153.1 C 1478.94 1157.46 1476.42 1158.98 1480.73 1162.15 C 1486.34 1161.04 1489.74 1158.2 1495.27 1161.28 L 1495.71 1163.39 C 1493.94 1170.59 1490.56 1172.83 1484.95 1177.25 L 1477.58 1182.41 C 1472.58 1175.5 1468.19 1168.17 1464.47 1160.49 C 1467.28 1158.03 1470.44 1155.5 1473.33 1153.1 z" fill="rgb(244,241,225)" transform="translate(0,0)"></path>
<path d="M 488.693 103.185 C 490.344 103.371 492.285 103.191 492.829 104.836 C 498.113 120.819 502.319 143.19 506.342 159.264 L 544.337 307.737 L 582.641 451.238 C 585.114 460.68 605.041 527.499 604.469 531.56 C 602.337 533.893 599.008 534.074 595.7 534.758 C 597.469 541.726 599.884 546.222 596.541 551.912 C 593.277 554.336 586.358 555.142 582.072 555.926 C 584.232 561.27 585.621 566.302 587.22 571.806 C 582.021 573.601 575.393 574.687 569.902 575.762 L 574.324 591.531 C 554.359 597.352 527.421 602.931 506.679 607.758 L 414.36 629.855 C 361.443 642.369 303.402 658.29 250.472 668.665 C 246.037 663.797 236.262 625.119 233.739 616.093 C 224.968 585.021 216.459 553.874 208.215 522.658 C 183.571 427.176 158.127 331.902 131.885 236.847 L 151.041 232.365 C 149.591 226.277 146.71 218.746 144.596 212.715 C 150.356 210.775 158.089 209.055 164.107 207.537 C 162.593 199.259 160.246 191.335 157.997 183.232 L 488.693 103.185 z" fill="rgb(0,0,0)" transform="translate(0,0)"></path>
<path d="M 488.721 107.314 C 490.366 109.428 511.353 195.172 513.994 205.734 C 540.784 314.125 569.347 422.07 599.67 529.526 C 558.242 540.438 512.85 550.307 470.884 560.452 L 274.29 608.11 C 270.247 602.198 250.236 522.071 246.92 509.489 L 203.509 341.593 C 190.236 290.687 175.654 237.528 163.882 186.379 C 193.597 179.521 222.51 171.83 252.051 164.588 L 488.721 107.314 z" fill="rgb(244,241,225)" transform="translate(0,0)"></path>
<path d="M 312.794 287.315 L 314.979 287.954 C 320.997 292.74 345.472 410.284 351.522 426.509 C 352.296 428.584 354.445 438.103 355.034 440.789 C 326.32 448.465 297.565 455.985 268.769 463.35 C 266.671 458.975 259.828 432.562 258.212 426.654 C 248.669 391.523 239.527 356.284 230.787 320.944 C 238.012 318.44 252.658 315.083 260.742 312.942 C 278.313 308.29 297.059 302.888 314.765 299.313 C 313.407 294.92 312.058 291.843 312.794 287.315 z" fill="rgb(0,0,0)" transform="translate(0,0)"></path>
<path d="M 314.722 303.232 C 318.94 308.664 346.216 424.223 349.727 438.242 C 328.112 442.95 292.132 452.365 271.494 458.832 C 259.955 413.667 247.004 368.968 235.793 323.495 L 314.722 303.232 z" fill="rgb(245,158,11)" transform="translate(0,0)"></path>
<path d="M 305.703 321.678 L 309.4 323.96 C 309.938 328.414 288.53 360.906 285.014 366.18 C 276.099 361.157 263.797 351.969 255.663 345.784 C 252.476 343.027 248.949 339.078 245.996 335.947 C 261.552 342.005 268.92 346.951 283 355.661 C 289.826 343.935 296.502 331.659 305.703 321.678 z" fill="rgb(0,0,0)" transform="translate(0,0)"></path>
<path d="M 360.265 471.357 L 361.833 472.525 C 364.296 479.217 379.353 536.618 379.277 541.251 C 372.948 546.176 308.514 560.937 296.698 563.761 C 295.011 560.606 290.622 544.177 289.48 540.132 C 285.253 524.766 280.788 509.467 276.088 494.239 C 284.059 491.212 297.992 487.907 306.533 485.633 L 360.265 471.357 z" fill="rgb(0,0,0)" transform="translate(0,0)"></path>
<path d="M 357.23 477.28 C 361.186 480.506 372.998 531.075 375.246 540.261 C 350.899 545.232 324.639 553 299.75 558.696 C 298.11 557.401 283.385 503.983 281.328 496.856 C 303.622 490.224 334.531 482.382 357.23 477.28 z" fill="rgb(245,158,11)" transform="translate(0,0)"></path>
<path d="M 350.793 492.481 C 352.216 493.22 352.185 493.459 353.366 494.663 C 352.839 503.15 335.458 533.855 330.143 543.406 C 319.519 535.997 310.074 529.436 300.336 520.818 C 296.796 517.486 293.176 512.826 290.032 509.007 C 305.452 516.368 313.293 522.109 327.719 530.473 C 335.937 518.221 342.174 504.681 350.793 492.481 z" fill="rgb(0,0,0)" transform="translate(0,0)"></path>
<path d="M 273.351 209.071 C 275.755 208.857 276.382 209.057 278.682 209.471 C 283.395 213.935 294.484 260.658 296.745 270.268 C 280.552 275.958 246.528 283.531 228.266 288.403 C 224.564 289.045 225.394 289.47 222.51 288.187 C 220.012 282.142 217.059 268.244 215.363 261.368 C 212.358 249.384 209.145 237.453 205.724 225.58 C 227.161 220.744 252.458 215.1 273.351 209.071 z" fill="rgb(0,0,0)" transform="translate(0,0)"></path>
<path d="M 271.442 214.123 L 274.892 213.949 C 279.367 216.972 289.77 259.812 291.854 267.411 C 272.702 273.242 250.556 278.027 230.803 283.679 C 227.499 284.431 228.401 284.715 225.623 283.745 C 223.597 278.858 221.657 268.981 220.375 263.526 C 217.545 251.48 214.815 240.736 211.116 228.951 C 231.324 224.422 251.437 219.478 271.442 214.123 z" fill="rgb(245,158,11)" transform="translate(0,0)"></path>
<path d="M 245.096 229.81 C 251.696 227.299 259.137 228.537 264.569 233.05 C 270.001 237.563 272.581 244.652 271.322 251.6 C 270.062 258.549 265.158 264.281 258.487 266.6 C 248.379 270.116 237.321 264.862 233.66 254.805 C 229.999 244.748 235.093 233.615 245.096 229.81 z" fill="rgb(0,0,0)" transform="translate(0,0)"></path>
<path d="M 251.129 232.855 C 259.501 232.348 266.732 238.651 267.372 247.014 C 268.012 255.377 261.825 262.708 253.474 263.482 C 247.951 263.994 242.581 261.488 239.425 256.928 C 236.269 252.367 235.817 246.459 238.242 241.471 C 240.667 236.483 245.593 233.189 251.129 232.855 z" fill="rgb(244,241,225)" transform="translate(0,0)"></path>
<path d="M 463.699 197.126 C 466.201 196.594 466.159 196.671 468.558 196.989 L 469.24 198.584 C 465.842 202.396 429.376 209.493 421.193 211.464 L 323.208 235.12 C 319.842 235.911 321.072 236.145 318.481 234.631 L 318.339 232.742 C 321.534 229.655 450.217 200.366 463.699 197.126 z" fill="rgb(0,0,0)" transform="translate(0,0)"></path>
<path d="M 492.881 271.223 L 494.321 271.52 L 494.933 273.582 C 491.883 277.068 364.653 306.515 350.237 309.934 C 348.719 308.815 349.161 309.089 348.059 307.421 C 351.502 303.449 476.858 275.07 492.881 271.223 z" fill="rgb(0,0,0)" transform="translate(0,0)"></path>
<path d="M 492.336 291.154 C 494.193 291.291 493.302 291.147 495.124 292.496 L 495.108 293.786 C 490.462 297.599 373.747 324.908 355.738 328.771 L 353.833 328.084 L 353.559 326.591 C 359.247 321.438 475.328 295.475 492.336 291.154 z" fill="rgb(0,0,0)" transform="translate(0,0)"></path>
<path d="M 537.46 469.149 C 540.133 468.376 540.686 468.991 542.009 470.898 C 539.662 474.554 500.995 482.663 493.746 484.401 C 464.792 491.147 435.945 498.344 407.215 505.989 C 405.586 506.087 404.833 505.825 403.229 505.537 L 402.321 504.096 C 405.974 499.897 520.767 473.234 537.46 469.149 z" fill="rgb(0,0,0)" transform="translate(0,0)"></path>
<path d="M 534.935 451.219 C 537.001 450.737 536.92 450.911 538.923 451.743 L 539.487 453.392 C 535.226 457.416 416.972 484.102 402.361 487.892 C 400.591 488.207 400.437 487.905 398.71 487.214 L 398.377 485.467 C 400.251 483.89 523.875 453.921 534.935 451.219 z" fill="rgb(0,0,0)" transform="translate(0,0)"></path>
<path d="M 509.533 400.141 L 512.173 400.749 L 512.277 402.681 C 506.984 406.839 401.031 431.516 387.237 434.782 C 384.824 435.075 386.04 435.155 383.518 434.111 L 383.335 432.358 C 386.526 429.293 493.646 404.185 509.533 400.141 z" fill="rgb(0,0,0)" transform="translate(0,0)"></path>
<path d="M 422.031 226.226 C 424.486 225.776 424.572 225.57 426.958 226.503 L 427.431 227.715 C 424.9 230.652 337.882 251.393 328.387 253.863 C 325.781 254.498 327.059 254.558 324.44 253.478 L 324.064 251.82 C 327.294 247.981 409.859 229.058 422.031 226.226 z" fill="rgb(0,0,0)" transform="translate(0,0)"></path>
<path d="M 450.962 321.205 C 452.759 321.89 451.948 321.332 453.017 323.483 C 452.54 324.064 452.064 324.646 451.587 325.227 C 426.333 332.524 386.325 340.884 362.23 347.9 L 360.544 347.456 L 359.605 345.563 C 363.629 340.878 439.336 324.121 450.962 321.205 z" fill="rgb(0,0,0)" transform="translate(0,0)"></path>
<path d="M 485.586 514.08 L 488.116 514.132 L 489.133 515.205 L 488.621 516.811 C 482.547 520.465 423.492 534.074 411.308 537.676 C 409.157 537.869 410.258 538.015 408.05 536.607 L 408.344 535.211 C 414.055 531.091 474.585 517.064 485.586 514.08 z" fill="rgb(0,0,0)" transform="translate(0,0)"></path>
<path d="M 386.358 195.159 C 387.404 195.342 387.739 195.795 388.748 196.487 L 388.469 198.264 C 383.622 201.567 326.027 214.568 314.823 217.894 L 312.589 217.158 L 312.189 215.81 C 315.814 211.03 376.174 197.659 386.358 195.159 z" fill="rgb(0,0,0)" transform="translate(0,0)"></path>
<path d="M 525.955 502.267 C 527.649 503.589 526.906 502.795 527.885 505.081 C 525.066 508.064 518.386 508.818 514.069 509.709 L 512.091 508.408 L 512.026 506.541 C 515.471 504.233 521.671 503.238 525.955 502.267 z" fill="rgb(0,0,0)" transform="translate(0,0)"></path>
<path d="M 164.91 212.338 C 168.898 219.121 180.554 270.872 183.247 281.497 L 226.272 449.64 L 253.915 553.042 C 258.594 570.109 266.901 597.07 269.921 613.779 C 311.698 604.725 353.645 593.589 395.188 583.473 L 591.264 536.105 L 594.097 548.35 L 581.757 551.831 L 354.862 606.427 C 327.506 612.867 285.908 624.477 259.76 628.849 C 239.27 548.023 216.322 466.335 195.349 385.244 L 167.112 276.946 C 161.818 256.808 156.932 235.39 150.362 215.742 L 164.91 212.338 z" fill="rgb(244,241,225)" transform="translate(0,0)"></path>
<path d="M 151.066 237.25 C 153.97 239.391 203.136 433.819 208.187 453.218 L 259.922 646.429 L 247.765 649.937 C 244.107 634.734 238.395 616.403 234.151 601.024 L 206.742 500.216 C 183.454 413.169 161.779 326.84 137.603 239.887 C 141.974 239.192 146.693 238.138 151.066 237.25 z" fill="rgb(244,241,225)" transform="translate(0,0)"></path>
<path d="M 574.256 558.197 C 574.767 558.079 576.31 558.168 576.914 558.18 C 579.061 560.687 580.021 565.221 581.033 568.562 C 548.359 574.699 501.422 587.542 468.44 595.602 L 267.262 644.453 L 264.008 644.856 C 261.516 642.524 261.491 638.405 260.768 634.47 C 301.587 622.349 353.821 611.434 395.838 601.557 L 574.256 558.197 z" fill="rgb(244,241,225)" transform="translate(0,0)"></path>
<path d="M 563.721 577.263 C 566.947 579.488 567.65 584.334 568.683 588.185 C 528.22 596.881 484.272 608.421 443.665 618.256 L 254.345 663.778 L 252.819 663.495 C 249.773 659.668 249.686 658.554 251.331 654.318 C 254.618 651.083 282.37 645.418 288.283 643.998 L 361.421 626.526 L 563.721 577.263 z" fill="rgb(244,241,225)" transform="translate(0,0)"></path>
<path d="M 183.994 834.255 C 196.506 819.794 207.548 808.643 223.265 797.647 C 229.925 792.988 238.584 788.119 244.591 783.591 L 245.284 783.058 C 277.665 817.659 306.666 855.275 331.889 895.394 L 334.863 900.745 C 351.472 927.883 365.492 954.774 378.938 983.576 C 381.187 988.394 389.277 1006.68 392.928 1008.97 L 391.065 1010.52 L 390.984 1012.98 C 391.436 1013.39 392.618 1014.57 393.084 1014.83 L 400.582 1012.33 C 411.606 1037.77 421.575 1062.82 430.585 1089.04 C 433.126 1096.43 439.671 1113.22 441.204 1120.14 L 442.74 1124.06 C 445.038 1133.4 450.425 1151.58 453.823 1160.75 C 455.943 1164.55 456.09 1163.43 455.547 1166.87 L 455.106 1167.37 L 447.745 1169.45 C 454.842 1192.14 460.183 1218.71 466.079 1242.01 C 468.406 1251.21 470.069 1263.49 472.65 1272.22 L 473.584 1277.35 L 477.069 1298.48 C 447.563 1299.26 416.768 1298.23 387.098 1298.3 L 150.921 1299.18 C 150.432 1297.38 149.979 1295.57 149.56 1293.76 C 147.969 1286.75 146.344 1275.38 150.773 1269.04 C 162.122 1252.8 238.342 1270.79 260.409 1265.56 C 262.849 1264.98 264.447 1264.22 265.796 1262.1 C 259.452 1245.29 125.717 1221.87 105.783 1138.06 L 113.946 1133.5 L 119.824 1130.86 C 130.858 1128.02 141.613 1125.95 153.003 1125.48 C 172.127 1124.68 262.483 1132.03 272.057 1125.68 C 273.44 1124.77 273.27 1124.36 273.608 1122.75 C 265.075 1103.75 149.216 1074.14 131.729 977.768 L 130.806 971.828 C 127.926 958.969 129.858 940.494 132.824 927.55 C 147.152 928.574 159.517 930.335 173.006 932.892 C 188.248 935.782 253.826 955.567 263.667 945.9 L 263.682 943.992 C 256.982 934.936 236.109 921.518 226.512 914.009 C 205.94 897.914 184.029 882.648 164.085 865.712 C 168.567 855.37 173.859 846.413 181.256 837.893 L 183.994 834.255 z" fill="rgb(13,150,104)" transform="translate(0,0)"></path>
<path d="M 183.994 834.255 C 196.506 819.794 207.548 808.643 223.265 797.647 C 229.925 792.988 238.584 788.119 244.591 783.591 L 245.284 783.058 C 277.665 817.659 306.666 855.275 331.889 895.394 L 334.863 900.745 C 351.472 927.883 365.492 954.774 378.938 983.576 C 381.187 988.394 389.277 1006.68 392.928 1008.97 L 391.065 1010.52 L 390.984 1012.98 C 391.436 1013.39 392.618 1014.57 393.084 1014.83 L 400.582 1012.33 C 411.606 1037.77 421.575 1062.82 430.585 1089.04 C 433.126 1096.43 439.671 1113.22 441.204 1120.14 L 442.74 1124.06 C 445.038 1133.4 450.425 1151.58 453.823 1160.75 L 444.699 1162.41 C 444.115 1155.54 440.3 1145.91 438.795 1138.18 C 431.641 1138.1 395.82 1129.39 388.05 1127.16 C 288.733 1098.59 211.098 1041.3 131.729 977.768 L 130.806 971.828 C 127.926 958.969 129.858 940.494 132.824 927.55 C 147.152 928.574 159.517 930.335 173.006 932.892 C 188.248 935.782 253.826 955.567 263.667 945.9 L 263.682 943.992 C 256.982 934.936 236.109 921.518 226.512 914.009 C 205.94 897.914 184.029 882.648 164.085 865.712 C 168.567 855.37 173.859 846.413 181.256 837.893 L 183.994 834.255 z" fill="rgb(13,150,104)" transform="translate(0,0)"></path>
<path d="M 183.994 834.255 C 196.506 819.794 207.548 808.643 223.265 797.647 C 229.925 792.988 238.584 788.119 244.591 783.591 L 245.284 783.058 C 277.665 817.659 306.666 855.275 331.889 895.394 C 298.468 890.992 215.249 852.633 183.994 834.255 z" fill="rgb(13,150,104)" transform="translate(0,0)"></path>
<path d="M 130.806 971.828 C 140.497 975.503 172.133 1003.58 183.928 1012.32 C 247.613 1059.49 314.423 1101.36 391.74 1122.14 C 406.563 1126.13 421.272 1130.09 436.578 1131.82 L 438.795 1138.18 C 431.641 1138.1 395.82 1129.39 388.05 1127.16 C 288.733 1098.59 211.098 1041.3 131.729 977.768 L 130.806 971.828 z" fill="rgb(26,58,40)" transform="translate(0,0)"></path>
<path d="M 400.582 1012.33 C 411.606 1037.77 421.575 1062.82 430.585 1089.04 C 433.126 1096.43 439.671 1113.22 441.204 1120.14 L 442.74 1124.06 C 445.038 1133.4 450.425 1151.58 453.823 1160.75 L 444.699 1162.41 C 444.115 1155.54 440.3 1145.91 438.795 1138.18 L 436.578 1131.82 C 433.425 1123.87 429.14 1108.53 426.237 1099.73 C 419.672 1079.87 412.515 1060.2 404.776 1040.76 C 402.048 1033.95 396.659 1020.37 393.084 1014.83 L 400.582 1012.33 z" fill="rgb(244,241,225)" transform="translate(0,0)"></path>
<path d="M 183.994 834.255 C 215.249 852.633 298.468 890.992 331.889 895.394 L 334.863 900.745 C 311.283 902.402 200.426 853.455 181.256 837.893 L 183.994 834.255 z" fill="rgb(26,58,40)" transform="translate(0,0)"></path>
<path d="M 113.946 1133.5 L 119.824 1130.86 C 233.807 1202.52 334.561 1260.6 472.65 1272.22 L 473.584 1277.35 L 477.069 1298.48 C 447.563 1299.26 416.768 1298.23 387.098 1298.3 L 150.921 1299.18 C 150.432 1297.38 149.979 1295.57 149.56 1293.76 C 147.969 1286.75 146.344 1275.38 150.773 1269.04 C 162.122 1252.8 238.342 1270.79 260.409 1265.56 C 262.849 1264.98 264.447 1264.22 265.796 1262.1 C 259.452 1245.29 125.717 1221.87 105.783 1138.06 L 113.946 1133.5 z" fill="rgb(13,150,104)" transform="translate(0,0)"></path>
<path d="M 113.946 1133.5 L 119.824 1130.86 C 233.807 1202.52 334.561 1260.6 472.65 1272.22 L 473.584 1277.35 L 472.381 1277.34 C 457.733 1277.1 433.347 1273.19 418.866 1270.61 C 325.764 1254.05 242.513 1213.38 162.812 1163.94 C 155.139 1159.18 118.333 1138.1 113.946 1133.5 z" fill="rgb(26,58,40)" transform="translate(0,0)"></path>
<path d="M 453.823 1160.75 C 455.943 1164.55 456.09 1163.43 455.547 1166.87 L 455.106 1167.37 L 447.745 1169.45 C 445.41 1167.61 445.147 1165.13 444.699 1162.41 L 453.823 1160.75 z" fill="rgb(0,0,0)" transform="translate(0,0)"></path>
<path d="M 558.464 860.815 L 560.204 864.167 C 585.137 907.446 576.865 982.104 557.088 1025.63 C 552.845 1034.96 541.083 1057.61 540.59 1066.23 C 542.291 1068.96 541.245 1068.12 544.745 1069.08 C 575.474 1063.29 632.571 975.331 673.331 974.672 C 676.981 977.44 677.301 978.043 679.438 981.896 C 690.468 1038.01 665.381 1102.79 633.917 1148.36 C 629.093 1155.34 612.53 1175.71 611.343 1181.96 C 613.629 1185.35 616.574 1184.47 619.863 1182.9 C 626.44 1179.75 654.709 1162.37 656.807 1157.01 C 655.932 1189.64 657.256 1223.56 656.841 1256.28 C 656.743 1264.04 657.542 1292.83 655.917 1298.85 C 652.285 1297.33 626.079 1298.24 617.253 1298.23 C 573.927 1298.22 529.105 1298.04 485.659 1298.36 C 485.104 1297.84 484.548 1297.32 483.993 1296.79 L 483.538 1291.72 C 482.149 1273.2 461.805 1185.37 455.106 1167.37 L 455.547 1166.87 C 456.09 1163.43 455.943 1164.55 453.823 1160.75 C 450.425 1151.58 445.038 1133.4 442.74 1124.06 L 441.204 1120.14 C 444.67 1114.97 463.007 1095.59 469.323 1087.27 C 495.977 1052.13 513.768 1020.22 530.002 979.36 C 540.214 953.487 547.946 926.703 553.097 899.369 C 554.784 890.447 554.104 865.557 558.464 860.815 z" fill="rgb(13,150,104)" transform="translate(0,0)"></path>
<path d="M 673.331 974.672 C 676.981 977.44 677.301 978.043 679.438 981.896 C 690.468 1038.01 665.381 1102.79 633.917 1148.36 C 629.093 1155.34 612.53 1175.71 611.343 1181.96 C 613.629 1185.35 616.574 1184.47 619.863 1182.9 C 626.44 1179.75 654.709 1162.37 656.807 1157.01 C 655.932 1189.64 657.256 1223.56 656.841 1256.28 C 656.743 1264.04 657.542 1292.83 655.917 1298.85 C 652.285 1297.33 626.079 1298.24 617.253 1298.23 C 573.927 1298.22 529.105 1298.04 485.659 1298.36 C 485.104 1297.84 484.548 1297.32 483.993 1296.79 L 483.538 1291.72 C 501.939 1274.88 517.591 1261.08 534.65 1241.57 C 592.937 1174.9 642.952 1092.84 667.914 1007.52 C 671.044 996.818 671.917 985.457 673.331 974.672 z" fill="rgb(13,150,104)" transform="translate(0,0)"></path>
<path d="M 673.331 974.672 C 676.981 977.44 677.301 978.043 679.438 981.896 L 679.077 983.019 C 672.239 1004.65 671.851 1018.13 662.275 1042.75 C 631.315 1122.87 585.283 1196.32 526.671 1259.11 C 517.206 1269.11 495.76 1289.97 483.993 1296.79 L 483.538 1291.72 C 501.939 1274.88 517.591 1261.08 534.65 1241.57 C 592.937 1174.9 642.952 1092.84 667.914 1007.52 C 671.044 996.818 671.917 985.457 673.331 974.672 z" fill="rgb(26,58,40)" transform="translate(0,0)"></path>
<path d="M 558.464 860.815 L 560.204 864.167 C 561.937 882.958 557.497 905.163 553.17 923.378 C 537.803 989.776 507.064 1051.64 463.426 1103.99 C 459.042 1109.27 448.788 1121.62 442.74 1124.06 L 441.204 1120.14 C 444.67 1114.97 463.007 1095.59 469.323 1087.27 C 495.977 1052.13 513.768 1020.22 530.002 979.36 C 540.214 953.487 547.946 926.703 553.097 899.369 C 554.784 890.447 554.104 865.557 558.464 860.815 z" fill="rgb(26,58,40)" transform="translate(0,0)"></path>
<path d="M 684.978 1131.81 C 685.132 1116.53 684.424 1101.98 689.395 1087.25 C 708.791 1029.79 784.571 1012.97 826.451 1057.08 C 849.884 1081.76 848.669 1101.07 848.679 1132.01 L 882.821 1132.19 L 882.985 1241.27 C 882.999 1259.93 883.666 1284.21 882.646 1302.49 C 863.343 1302.14 659.636 1303.46 656.664 1301.51 L 655.917 1298.85 C 657.542 1292.83 656.743 1264.04 656.841 1256.28 C 657.256 1223.56 655.932 1189.64 656.807 1157.01 C 656.642 1148.82 656.266 1140.24 656.898 1132.11 L 684.978 1131.81 z" fill="rgb(26,58,40)" transform="translate(0,0)"></path>
<path d="M 661.42 1137.35 C 731.59 1135.46 806.843 1137.42 877.671 1137.1 C 877.85 1163.97 877.853 1190.84 877.679 1217.72 C 877.828 1244.25 877.815 1270.78 877.64 1297.31 L 661.921 1297.2 C 661.941 1289.49 661.712 1280.14 662.034 1272.57 C 661.616 1267.97 661.8 1262.24 661.745 1257.58 C 661.272 1217.56 662.685 1177.33 661.42 1137.35 z" fill="rgb(245,158,11)" transform="translate(0,0)"></path>
<path d="M 760.224 1170.18 C 789.734 1166.83 801.741 1198.23 776.692 1212.87 C 776.794 1220.15 777.882 1256.83 775.748 1261.1 L 756.098 1261.2 L 756.055 1213.87 C 750.015 1209.2 747.853 1206.34 744.107 1199.81 C 743.162 1183.9 745.008 1177.16 760.224 1170.18 z" fill="rgb(26,58,40)" transform="translate(0,0)"></path>
<path d="M 764.724 1052.43 C 789.013 1052.62 809.069 1062.28 820.741 1084.17 C 828.856 1099.39 827.436 1115.49 827.274 1132.06 C 808.793 1131.83 790.007 1131.99 771.5 1131.98 L 706.858 1132.05 C 706.653 1110.42 705.82 1091.65 720.662 1073.76 C 732.448 1059.56 746.967 1054.28 764.724 1052.43 z" fill="rgb(244,241,225)" transform="translate(0,0)"></path>
<path d="M 338.08 746.804 L 341.39 745.517 L 346.469 747.065 C 369.756 753.998 353.984 823.134 353.821 839.427 C 353.793 842.26 354.894 843.099 356.645 844.941 C 360.952 845.9 361.071 845.36 364.563 842.417 C 390.404 820.636 412.682 776.698 446.2 767.414 L 452.15 768.544 C 488.46 787.381 446.578 888.647 433.823 914.81 C 431.318 919.949 425.397 931.703 429.284 936.107 C 435.341 936.846 441.58 931.262 446.55 927.369 C 454.605 921.023 462.349 914.293 469.757 907.203 C 487.766 889.831 505.14 870.333 525.146 855.363 C 539.019 844.983 547.16 843.765 557.109 858.748 C 557.564 859.435 558.016 860.124 558.464 860.815 C 554.104 865.557 554.784 890.447 553.097 899.369 C 547.946 926.703 540.214 953.487 530.002 979.36 C 513.768 1020.22 495.977 1052.13 469.323 1087.27 C 463.007 1095.59 444.67 1114.97 441.204 1120.14 C 439.671 1113.22 433.126 1096.43 430.585 1089.04 C 421.575 1062.82 411.606 1037.77 400.582 1012.33 L 393.084 1014.83 C 392.618 1014.57 391.436 1013.39 390.984 1012.98 L 391.065 1010.52 L 392.928 1008.97 L 399.001 1006 C 397.144 1003.22 394.214 997.329 392.519 994.16 L 389.191 987.248 C 366.94 940.994 341.999 893.715 311.597 852.185 C 307.786 849.481 308.251 850.653 306.873 846.955 C 304.544 837.034 260.672 789.081 251.152 780 C 274.487 767.338 311.05 748 338.08 746.804 z" fill="rgb(13,150,104)" transform="translate(0,0)"></path>
<path d="M 338.08 746.804 L 341.39 745.517 L 346.469 747.065 C 369.756 753.998 353.984 823.134 353.821 839.427 C 353.793 842.26 354.894 843.099 356.645 844.941 C 360.952 845.9 361.071 845.36 364.563 842.417 C 390.404 820.636 412.682 776.698 446.2 767.414 C 458.213 812.064 410.417 943.548 389.191 987.248 C 366.94 940.994 341.999 893.715 311.597 852.185 C 307.786 849.481 308.251 850.653 306.873 846.955 C 304.544 837.034 260.672 789.081 251.152 780 C 274.487 767.338 311.05 748 338.08 746.804 z" fill="rgb(13,150,104)" transform="translate(0,0)"></path>
<path d="M 251.152 780 C 274.487 767.338 311.05 748 338.08 746.804 C 333.152 766.891 316.437 832.063 306.873 846.955 C 304.544 837.034 260.672 789.081 251.152 780 z" fill="rgb(13,150,104)" transform="translate(0,0)"></path>
<path d="M 338.08 746.804 L 341.39 745.517 C 341.948 746.566 343.046 748.882 342.85 749.918 C 340.006 764.962 332.88 788.478 328.721 802.576 C 326.58 809.83 314.008 848.701 311.597 852.185 C 307.786 849.481 308.251 850.653 306.873 846.955 C 316.437 832.063 333.152 766.891 338.08 746.804 z" fill="rgb(26,58,40)" transform="translate(0,0)"></path>
<path d="M 446.2 767.414 L 452.15 768.544 C 460.157 815.266 424.872 919.005 405.126 963.551 C 403.319 967.628 393.695 992.302 392.519 994.16 L 389.191 987.248 C 410.417 943.548 458.213 812.064 446.2 767.414 z" fill="rgb(26,58,40)" transform="translate(0,0)"></path>
<path d="M 399.001 1006 L 401.458 1006.13 L 402.693 1007.64 C 402.208 1010.2 402.373 1010.35 400.582 1012.33 L 393.084 1014.83 C 392.618 1014.57 391.436 1013.39 390.984 1012.98 L 391.065 1010.52 L 392.928 1008.97 L 399.001 1006 z" fill="rgb(26,58,40)" transform="translate(0,0)"></path>
<path d="M 956.941 130.195 C 956.889 121.321 955.731 84.5728 958.616 79.0848 L 961.216 78.5614 C 965.726 79.9967 1004.23 102.109 1010.29 105.458 L 1078.1 143.027 C 1087.87 148.484 1103.1 156.3 1112.04 162.408 C 1116.23 163.998 1117.55 165.03 1121.24 167.525 C 1106.41 176.514 1089.42 185.037 1074 193.274 C 1045.89 208.427 1017.66 223.342 989.301 238.017 C 983.957 240.811 963.103 252.789 959.001 252.412 C 955.472 246.421 957.056 201.631 957.125 192.016 C 842.087 192.768 747.183 232.162 666.434 314.192 C 653.136 327.701 642.268 340.242 631.451 355.817 C 630.465 357.238 628.94 358.723 627.221 358.884 C 624.106 346.405 671.085 270.974 682.355 259.876 C 686.743 253.206 699.126 240.142 704.913 234.388 C 773.452 166.252 860.62 130.988 956.941 130.195 z" fill="rgb(26,58,40)" transform="translate(0,0)"></path>
<path d="M 961.751 84.3399 C 973.858 89.8662 988.595 99.5828 1000.71 106.19 C 1026.1 119.843 1051.35 133.749 1076.45 147.906 C 1084.14 152.183 1106 163.688 1111.25 168.452 C 1094.67 175.869 1073.71 187.54 1057.32 196.13 C 1025.34 212.677 993.593 229.67 962.09 247.105 L 962.136 187.528 C 863.102 181.817 757.432 223.781 684.212 289.723 C 668.876 303.535 655.852 317.696 641.968 332.772 C 649.43 315.131 667.744 288.636 678.329 272.295 C 681.394 267.563 693.455 255.457 695.288 252.083 C 701.502 245.874 707.154 239.057 713.419 232.993 C 781.398 167.196 868.591 135.77 962.112 135.378 L 961.751 84.3399 z" fill="rgb(13,150,104)" transform="translate(0,0)"></path>
<path d="M 1837.27 341.599 C 1885.16 391.122 1806.92 533.195 1788.93 585.523 C 1787.66 589.209 1788.45 590.423 1790.24 593.39 L 1792 593.718 C 1821.56 579.894 1848.27 530.838 1874.86 511.506 C 1899.88 493.314 1918.29 494.032 1935.51 519.131 C 1909.01 547.625 1887.9 579.801 1867.35 612.613 C 1842.67 652.006 1820.24 694.376 1797.89 735.247 C 1779.46 666.034 1757.97 607.15 1730.09 540.981 C 1732.57 529.951 1741.89 508.753 1746.59 497.896 C 1771.64 440.069 1801.06 392.751 1837.27 341.599 z" fill="rgb(13,150,104)" transform="translate(0,0)"></path>
<path d="M 1497.43 505.777 C 1502.34 505.814 1507.56 506.354 1512.43 506.914 C 1571.67 513.723 1630.64 524.937 1688.25 540.33 C 1700.98 543.731 1713.77 547.248 1726.65 550.103 C 1732.05 560.147 1740.44 582.555 1744.75 593.532 C 1763.97 642.061 1780.46 691.629 1794.13 742.005 C 1744.83 721.489 1697.22 700.686 1646.81 683.032 C 1602.06 667.389 1563.76 656.687 1516.86 649.111 C 1562.66 604.393 1642.53 632.337 1698.66 632.284 C 1723.84 631.24 1716.69 615.069 1699.49 607.812 C 1658.96 590.712 1614.55 584.513 1572.96 570.549 C 1538.28 558.905 1505.24 545.372 1497.43 505.777 z" fill="rgb(13,150,104)" transform="translate(0,0)"></path>
<path d="M 1512.1 654.505 C 1582.17 667.006 1635.9 683.218 1702.16 710.337 C 1727.24 720.605 1771.75 740.791 1795.4 747.903 C 1803.35 777.408 1809.69 802.015 1815.32 832.124 C 1780.5 825.932 1746.1 817.636 1711.36 811.091 C 1703.06 809.528 1693.94 807.742 1685.82 805.48 L 1686.12 803.841 C 1660.55 788.298 1633.71 774.344 1607.41 760.164 C 1597.71 754.932 1569.45 742.537 1562.28 737.496 C 1560.29 735.501 1560.06 735.488 1557.41 734.37 C 1530.17 716.007 1496.08 691.886 1512.1 654.505 z" fill="rgb(13,150,104)" transform="translate(0,0)"></path>
<path d="M 1708.09 188.629 C 1746.62 245.826 1723.95 322.512 1709.25 382.971 C 1708.82 384.732 1710.13 385.524 1711.19 386.417 C 1736.27 386.016 1774.67 295.571 1834.21 337.083 C 1813.06 358.455 1781.64 415.026 1767.4 441.399 C 1752.95 467.2 1735.66 505.538 1725.97 533.13 C 1719.32 513.623 1706.05 485.139 1697.25 466.006 C 1682.19 433.264 1665.03 398.83 1646.86 367.724 C 1659.73 322.469 1673.17 277.692 1690.23 233.814 C 1695.89 219.26 1701.42 202.493 1708.09 188.629 z" fill="rgb(13,150,104)" transform="translate(0,0)"></path>
<path d="M 1423.89 357.866 C 1491.81 363.097 1592.01 378.1 1656.97 399.028 C 1681.06 442.736 1706.05 498.745 1724.73 544.358 C 1694.02 535.626 1663.1 527.671 1631.99 520.5 C 1595.02 512.127 1535.79 501.669 1498.24 499.404 C 1519.52 448.098 1590.32 480.088 1612.41 456.113 C 1616.2 442.419 1561.93 431.755 1551.53 428.608 C 1513.57 417.129 1438.88 399.902 1423.89 357.866 z" fill="rgb(13,150,104)" transform="translate(0,0)"></path>
<path d="M 1134.21 1107.12 C 1113.35 1090.96 1085.38 1080.7 1059.81 1075.79 C 1057.47 1075.35 1057.6 1074.75 1056.77 1072.95 L 1057.93 1071.29 C 1064.52 1068.15 1072.06 1067.49 1079.08 1065.58 C 1138.76 1049.31 1200.35 1048.23 1261.72 1051.27 C 1266.18 1051.49 1271.32 1050.7 1275.55 1052.05 L 1276.71 1054.34 C 1257.98 1066.31 1250.5 1066.88 1235.26 1085.12 C 1213.71 1110.89 1200.61 1139.32 1192.81 1172.01 C 1192.26 1174.33 1191.57 1176.56 1189.55 1177.72 C 1182.36 1170.55 1172.37 1138.53 1162.17 1135.42 C 1111.02 1167.88 1089.39 1193.9 1069.53 1249.24 C 1068.9 1251.02 1067.79 1251.05 1066.21 1251.02 C 1063.05 1246.2 1062.98 1237.26 1061.74 1231.53 C 1055.87 1204.32 1042.13 1195.23 1015.66 1194.74 C 995.134 1197.92 981.696 1202.43 962.278 1211.23 C 954.113 1214.93 941.632 1224.15 933.038 1227.49 C 932.247 1227.19 931.457 1226.89 930.667 1226.58 C 930.817 1223.17 932.421 1221.99 935.197 1219.43 C 936.526 1218.21 937.869 1217.01 939.225 1215.82 C 946.153 1207.94 960.482 1196.65 968.911 1190.13 C 1022.73 1148.53 1069.99 1126.85 1134.21 1107.12 z" fill="rgb(26,58,40)" transform="translate(0,0)"></path>
<path d="M 1182.4 1055.42 C 1205.98 1054.27 1237.96 1055.38 1261.61 1056.73 C 1215.82 1084.48 1206.31 1119.86 1188.3 1165.55 C 1184.82 1157.56 1180.11 1149.88 1175.46 1142.54 C 1150.99 1104.93 1113.58 1083.86 1071.05 1072.88 C 1109.8 1061.88 1142.7 1057.72 1182.4 1055.42 z" fill="rgb(13,150,104)" transform="translate(0,0)"></path>
<path d="M 972.562 1194.16 C 1008.31 1164.93 1054.68 1140.48 1097.93 1124.3 C 1111.75 1119.13 1125.25 1115.83 1139.19 1111.41 C 1147.02 1117.42 1152.9 1124.07 1159.81 1131.1 C 1111.11 1159.7 1088.26 1187.23 1067.92 1239.33 C 1064.09 1207.37 1046.47 1184.89 1012.76 1190.17 C 1011.46 1190.38 1012.02 1190.24 1010.77 1190.71 C 999.329 1191.52 986.019 1196.57 974.903 1200.27 C 973.531 1198.31 973.213 1196.47 972.562 1194.16 z" fill="rgb(245,158,11)" transform="translate(0,0)"></path>
<path d="M 972.562 1194.16 C 973.213 1196.47 973.531 1198.31 974.903 1200.27 C 967.538 1203.34 960.973 1207.01 954.355 1209.81 C 957.275 1205.64 968.123 1197.65 972.562 1194.16 z" fill="rgb(245,158,11)" transform="translate(0,0)"></path>
<path d="M 1408.54 171.446 C 1416.63 172.88 1426.05 176.063 1434.15 178.055 C 1469.38 186.719 1501.48 200.325 1535.4 212.61 C 1580.15 268.102 1619.4 327.806 1652.6 390.884 C 1630.5 382.762 1576 372.697 1552.9 368.245 C 1523.93 362.291 1494.36 359.2 1465.14 355.27 C 1455.94 354.034 1427.56 352.634 1421.66 350.378 C 1421.38 349.74 1420.76 348.322 1420.79 347.62 C 1422.82 308.719 1473.56 317.279 1499.54 321.449 C 1509 322.966 1532.15 327.542 1537.9 319.405 C 1537.97 307.917 1514.71 293.553 1505.02 285.975 C 1463.72 253.675 1432.43 218.116 1408.54 171.446 z" fill="rgb(13,150,104)" transform="translate(0,0)"></path>
<path d="M 1800.06 742.711 C 1811.5 719.916 1827.02 694.108 1839.61 671.678 C 1868 621.103 1899.28 569.945 1937.32 525.953 C 1939.56 544.033 1939.83 558.485 1936.49 576.538 C 1923.86 644.746 1896.32 710.532 1871.95 775.093 C 1867.06 787.864 1862.42 800.731 1858.05 813.688 C 1855.73 820.692 1852.32 832.678 1849.66 839.066 C 1841.5 837.547 1830.22 835.74 1822.52 833.521 C 1816.25 807.742 1808.18 766.446 1800.06 742.711 z" fill="rgb(13,150,104)" transform="translate(0,0)"></path>
<path d="M 1509.68 119.825 C 1535.02 136.709 1573.17 181.494 1590.56 207.281 C 1598.53 219.107 1606.34 234.021 1614.99 244.925 C 1628.73 223.532 1625.37 188.135 1648.16 169.372 C 1669.02 152.195 1688.78 163.971 1703.93 181.571 C 1694.52 204.395 1685.72 227.465 1677.54 250.757 C 1664.33 289.141 1652.82 321.549 1642.76 360.877 C 1614.06 308.464 1580.86 258.642 1543.54 211.973 C 1541.96 193.438 1518.52 137.662 1509.68 119.825 z" fill="rgb(13,150,104)" transform="translate(0,0)"></path>
<path d="M 1387.22 60.308 C 1407.01 69.9361 1513.06 178.531 1524.52 199.094 L 1524.02 200.808 C 1483.15 185.371 1448.51 174.006 1405.9 165.069 C 1393.44 133.967 1378.45 93.5405 1387.22 60.308 z" fill="rgb(13,150,104)" transform="translate(0,0)"></path>
<path d="M 1397.11 58.7513 C 1426.02 60.5901 1473.34 91.8601 1496 109.044 C 1514.22 122.862 1532.14 176.156 1534.39 199.389 C 1531.78 197.066 1528.41 192.604 1526.1 189.836 C 1486.78 142.846 1444.21 98.3029 1397.11 58.7513 z" fill="rgb(13,150,104)" transform="translate(0,0)"></path>
<metadata><recraft-signature>{"signed_by": "recraft", "signature_b64": "XlL4vw67O0dIwQ/i3haTmJ3tLYbtNIFKKYfLBu4mPFO05KZ+luxL9UwtVQSgkoaUca3ulR+sJcXgLzxdG772Cw==", "signing_algo": "Ed25519", "generation_timestamp": 1780475621, "identifier": "4e259d87-b530-41ba-b031-dd0abe7a32f9"}</recraft-signature></metadata></svg>