<svg xmlns="http://www.w3.org/2000/svg" height="1024" preserveAspectRatio="none" style="display: block;" version="1.1" viewBox="0 0 2048 1365" width="1536">
<path d="M 0 0 L 2048 0 L 2048 1365 L 1824.55 1365 L 1803.32 1365 L 1431.86 1365 L 1411.2 1365 L 913.267 1365 L 571.283 1365 L 433.301 1365 L 413.625 1365 L 155.447 1365 L 134.293 1365 L 0 1365 L 0 0 z" fill="rgb(244,241,225)" transform="translate(0,0)"></path>
<path d="M 242.409 1189.85 C 226.763 1163.68 208.099 1134.23 201.14 1104.59 C 199.15 1096.12 197.489 1080.54 196.321 1071.49 C 190.59 1067.08 166.434 1072.04 157.706 1070.06 C 155.112 1069.47 152.647 1068.33 151.362 1065.87 C 149.406 1062.11 150.8 908.701 150.807 893.379 L 150.635 281.9 C 150.235 229.754 150.145 177.607 150.364 125.46 C 150.396 106.829 150.344 88.1912 150.552 69.563 C 150.597 65.578 150.718 53.5272 156.522 53.0917 C 170.538 52.0401 185.092 52.7549 199.222 52.7457 L 351.097 52.988 L 982.261 52.9131 L 1090.03 53.0492 C 1101.7 53.0309 1148.87 51.6131 1155.72 54.9842 C 1156.79 105.983 1155.47 160.894 1155.75 212.4 L 1155.91 264.802 C 1156.02 274.15 1157.2 286.806 1155.87 295.855 C 1156.16 299.996 1156.21 307.839 1156.78 311.304 C 1156.98 359.851 1156.92 408.398 1156.6 456.944 C 1156.69 484.793 1158.28 522.386 1157.13 549.144 L 1157.14 564.78 L 1157.02 803.456 C 1157.11 808.94 1157.16 813.935 1156.94 819.412 L 1156.88 967.845 L 1157.02 1022.91 C 1157.01 1030.33 1157.34 1043.89 1156.56 1051 C 1157.15 1061.96 1159.02 1072.48 1144.55 1073.33 C 1126.55 1074.39 1108.39 1073.24 1090.4 1073.63 C 1043.34 1074.68 994.762 1071.43 947.831 1073.42 C 945.755 1067.67 944.578 1063.94 943.135 1058.01 C 1006.87 1056.47 1076.56 1058.02 1140.82 1057.89 L 1140.69 820.799 C 1062.12 821.303 983.54 821.171 904.967 820.403 C 904.387 834.373 905.978 905.937 902.78 912.197 C 900.471 914.176 900.313 914.687 896.98 914.676 C 893.185 914.664 889.533 911.389 889.607 907.566 C 890.173 878.415 889.162 849.166 889.919 820.021 C 871.931 821.726 835.325 820.705 815.873 820.725 L 656.794 820.707 L 656.601 934.562 C 650.036 939.86 647.037 943.443 642.057 950.21 L 641.967 820.836 C 617.463 820.286 590.764 820.863 566.016 820.857 L 411.614 820.87 C 409.583 855.038 411.854 900.048 411.176 935.715 C 416.881 936.543 428.568 936.709 434.762 936.945 C 457.082 940.609 488.382 938.795 480.898 972.892 C 478.521 983.725 471.568 991.423 463.233 998.333 C 458.656 1001.05 453.423 1004.34 448.76 1006.76 C 463.219 1024.68 464.628 1035.09 467.088 1057.9 C 507.339 1055.05 549.441 1059.95 589.788 1056.81 C 596.207 1056.31 602.788 1058.4 605.145 1064.87 C 604.624 1066.75 603.714 1069.18 601.849 1069.6 C 591.41 1071.92 566.56 1070.56 556.797 1070.58 L 468.505 1071.05 C 466.767 1085.86 465.419 1096.42 475.198 1109.69 C 479.329 1115.3 486.515 1117.83 488.098 1122.64 C 487.101 1130.77 472.902 1139.39 466.806 1144.64 C 468.705 1149.39 474.496 1162.77 471.625 1165.51 C 461.04 1175.65 473.945 1177.49 469.642 1188.25 C 468.539 1191.01 462.46 1193.15 463.61 1196.77 C 466.674 1205.98 469.949 1213.95 464.08 1223.17 C 451.106 1243.56 413.903 1233.33 396.172 1229.1 C 391.453 1243.17 385.767 1262.01 380.534 1275.48 C 397.656 1297.64 398.251 1311.76 409.69 1335.59 C 413.221 1342.94 427.371 1355.53 433.301 1365 L 413.625 1365 L 155.447 1365 L 134.293 1365 C 136.072 1359.41 148.134 1339.16 151.873 1332.9 C 167.299 1307.54 183.338 1282.55 199.974 1257.96 C 217.556 1232.23 231.398 1219.21 242.409 1189.85 z" fill="rgb(26,58,40)" transform="translate(0,0)"></path>
<path d="M 230.045 1245.89 C 285.822 1274.82 370.609 1319.86 413.625 1365 L 155.447 1365 C 167.076 1338.99 210.397 1268.04 230.045 1245.89 z" fill="rgb(13,150,104)" transform="translate(0,0)"></path>
<path d="M 904.018 319.174 C 934.677 318.442 968.155 319.199 999.019 319.276 L 1141.01 318.992 L 1140.77 511.105 C 1140.75 516.615 1141.33 553.913 1139.54 556.447 L 1135.25 556.679 C 1095.89 557.227 1057.17 556.519 1017.91 556.454 L 904.364 556.913 C 903.583 524.3 904.73 490.527 904.793 457.857 L 904.018 319.174 z" fill="rgb(244,241,225)" transform="translate(0,0)"></path>
<path d="M 1005.86 343.577 C 1056.8 336.792 1103.63 372.54 1110.5 423.475 C 1117.38 474.41 1081.71 521.295 1030.79 528.262 C 979.74 535.247 932.711 499.472 925.817 448.408 C 918.923 397.345 954.782 350.38 1005.86 343.577 z" fill="rgb(245,158,11)" transform="translate(0,0)"></path>
<path d="M 1062.54 383.653 C 1064.48 384.896 1070.89 391.196 1072.94 393.14 C 1058.63 405.614 1041.25 424.169 1027.6 438.08 C 1040.08 448.675 1058.95 468.356 1070.96 480.159 L 1060.63 490.252 C 1047.16 476.03 1032.51 461.749 1018.6 447.945 C 1004.99 461.424 990.55 475.349 977.601 489.352 C 974.743 486.334 971.668 482.374 968.997 479.102 C 981.866 465.336 996.695 451.013 1010.09 437.583 C 998.309 427.548 978.987 406.667 965.894 394.475 C 969.458 391.202 973.127 387.422 976.589 383.988 C 990.058 399.151 1005.35 413.329 1019.72 427.75 C 1033.21 412.934 1048.39 397.99 1062.54 383.653 z" fill="rgb(26,58,40)" transform="translate(0,0)"></path>
<path d="M 905.586 67.345 C 938.73 65.8292 980.751 67.2747 1014.6 67.323 C 1054.63 67.3801 1101.37 65.9632 1140.81 67.8177 C 1140.32 146.793 1140.33 225.771 1140.85 304.746 L 904.152 304.731 C 904.811 281.46 903.103 70.8176 905.586 67.345 z" fill="rgb(244,241,225)" transform="translate(0,0)"></path>
<path d="M 1012.87 92.8345 C 1064.5 89.1181 1109.38 127.911 1113.19 179.532 C 1116.99 231.153 1078.27 276.104 1026.66 279.992 C 974.92 283.889 929.841 245.06 926.03 193.317 C 922.219 141.574 961.122 96.5597 1012.87 92.8345 z" fill="rgb(245,158,11)" transform="translate(0,0)"></path>
<path d="M 1061.73 134.666 C 1063.8 136.188 1069.59 141.694 1071.78 143.671 C 1058.3 156.242 1041.91 173.66 1029.03 187.217 C 1042.63 201.398 1056.49 215.335 1070.6 229.022 C 1067.22 232.11 1063.75 235.871 1060.55 239.201 C 1048.21 225.658 1032.5 210.626 1019.38 197.465 C 1005.58 211.088 991.973 225.97 977.658 238.953 C 974.691 235.861 971.077 232.642 967.905 229.695 C 981.966 216.13 996.071 201.484 1009.84 187.542 C 996.707 173.399 981.487 158.416 967.953 144.462 C 971.002 141.547 973.602 138.351 976.343 135.145 C 989.416 146.933 1006.5 165.031 1019.29 177.718 C 1033.33 163.264 1047.48 148.912 1061.73 134.666 z" fill="rgb(26,58,40)" transform="translate(0,0)"></path>
<path d="M 903.929 570.96 C 981.203 570.048 1063.78 570.305 1141.06 571.137 C 1140.01 596.624 1143.06 800.565 1140.01 805.157 C 1139.32 806.189 1137.41 805.985 1136.25 806.103 L 904.635 806.066 C 903.7 776.162 905.299 745.671 904.769 715.708 C 903.919 667.648 905.159 618.944 903.929 570.96 z" fill="rgb(244,241,225)" transform="translate(0,0)"></path>
<path d="M 1007.12 589.674 C 1058.71 582.806 1106.08 619.107 1112.87 670.709 C 1119.66 722.311 1083.28 769.628 1031.67 776.336 C 980.172 783.03 932.981 746.753 926.208 695.264 C 919.434 643.775 955.638 596.528 1007.12 589.674 z" fill="rgb(245,158,11)" transform="translate(0,0)"></path>
<path d="M 977.37 633.853 C 988.477 643.688 1007.34 664.863 1019.31 676.787 C 1032.55 662.464 1047.6 648.408 1061.32 633.942 L 1070.75 643.323 C 1056.75 657.699 1042.55 671.879 1028.16 685.859 C 1042.82 701 1057.74 715.876 1072.93 730.482 C 1069.32 733.406 1066.77 736.792 1063.12 739.925 C 1048.44 725.305 1033.91 710.543 1019.53 695.642 C 1008.92 707.978 988.575 727.003 976.261 739.411 L 967.057 730.563 C 977.09 718.66 999.226 698.03 1010.95 686.433 C 996.701 672.337 983.353 657.693 968.921 643.634 L 977.37 633.853 z" fill="rgb(26,58,40)" transform="translate(0,0)"></path>
<path d="M 656.286 66.9558 C 732.947 68.4037 813.97 67.1675 890.853 67.0198 C 888.733 76.4528 890.539 93.7246 889.871 101.345 C 887.968 123.062 892.641 298.321 888.993 304.075 L 885.106 304.522 C 809.071 305.078 733.033 305.186 656.997 304.848 C 655.925 281.223 657.227 253.448 656.837 229.45 C 655.964 175.728 657.288 120.552 656.286 66.9558 z" fill="rgb(244,241,225)" transform="translate(0,0)"></path>
<path d="M 761.116 93.8832 C 811.893 88.0705 857.919 124.134 864.421 174.828 C 870.922 225.523 835.486 272.034 784.885 279.223 C 751.536 283.961 718.218 270.382 697.681 243.683 C 677.143 216.983 672.567 181.297 685.702 150.279 C 698.837 119.261 727.65 97.7142 761.116 93.8832 z" fill="rgb(245,158,11)" transform="translate(0,0)"></path>
<path d="M 770.42 178.054 C 779.578 166.638 802.011 144.747 812.866 133.516 L 821.856 142.4 C 810.405 155.817 791.664 175.34 778.703 187.249 C 792.819 200.98 806.617 215.033 820.087 229.398 L 813.698 236.126 C 812.168 237.646 813.074 237.14 810.803 237.518 C 804.837 233.3 777.1 204.456 770.518 197.809 C 756.625 210.846 742.705 224.976 729.124 238.422 L 719.756 229.215 C 733.65 215.636 747.581 201.085 761.228 187.186 C 748.233 175.568 730.21 156.067 717.202 143.029 L 726.52 134.132 C 734.499 139.14 760.913 169.136 770.42 178.054 z" fill="rgb(26,58,40)" transform="translate(0,0)"></path>
<path d="M 656.657 319.129 L 784.681 319.304 C 819.61 319.134 855.209 318.433 890.052 319.803 C 889.246 341.866 891.44 552.637 888.697 556.421 L 886.749 556.36 C 810.845 555.225 732.716 557.717 656.151 556.754 C 657.628 534.154 656.515 501.087 656.589 477.446 L 656.657 319.129 z" fill="rgb(244,241,225)" transform="translate(0,0)"></path>
<path d="M 841.362 376.23 C 855.876 389.367 865.128 407.328 867.396 426.773 C 870.083 449.97 863.386 473.279 848.796 491.513 C 832.51 512.134 808.565 525.278 782.424 527.946 C 756.946 530.672 731.448 522.988 711.718 506.639 C 673.882 475.714 665.131 418.853 696.941 380.602 C 714.154 359.525 739.196 346.351 766.316 344.106 C 789.714 342.121 814.212 351.65 832.014 366.59 C 837.359 361.691 842.669 356.753 847.944 351.779 C 850.207 354.501 853.746 358.536 855.659 361.298 C 850.844 366.228 846.078 371.205 841.362 376.23 z" fill="rgb(245,158,11)" transform="translate(0,0)"></path>
<path d="M 832.014 366.59 C 837.359 361.691 842.669 356.753 847.944 351.779 C 850.207 354.501 853.746 358.536 855.659 361.298 C 850.844 366.228 846.078 371.205 841.362 376.23 C 834.875 384.131 814.939 402.612 806.455 410.973 C 785.016 432.102 762.8 454.337 740.43 474.416 C 730.675 462.908 715.216 432.917 705.25 417.916 L 715.197 409.15 C 724.111 422.936 734.948 440.639 742.443 454.998 C 771.332 425.433 803.533 396.684 832.014 366.59 z" fill="rgb(26,58,40)" transform="translate(0,0)"></path>
<path d="M 166.574 319.271 C 243.146 318.503 320.356 320.129 396.897 318.959 C 397.195 367.172 397.235 415.386 397.015 463.599 C 397.14 491.005 398.261 528.467 396.786 555.544 C 394.899 557.48 394.615 556.783 390.86 556.905 L 166.886 556.72 C 165.288 516.251 166.646 472.407 166.578 431.534 C 166.519 395.458 164.98 354.852 166.574 319.271 z" fill="rgb(244,241,225)" transform="translate(0,0)"></path>
<path d="M 274.877 345.268 C 325.27 340.569 369.853 377.799 374.213 428.223 C 378.574 478.646 341.044 522.977 290.593 526.999 C 240.618 530.982 196.797 493.885 192.478 443.938 C 188.159 393.992 224.961 349.923 274.877 345.268 z" fill="rgb(13,150,104)" transform="translate(0,0)"></path>
<path d="M 166.743 67.0474 C 185.895 68.8206 224.197 67.7622 244.539 67.7543 L 397.252 67.6034 C 396.28 93.919 396.984 125.124 396.995 151.664 L 397.204 304.949 C 320.932 305.979 242.768 304.938 166.224 305.305 C 167.485 291.261 166.644 264.389 166.682 249.354 L 166.254 126.168 C 166.164 113.008 165.159 78.5231 166.743 67.0474 z" fill="rgb(244,241,225)" transform="translate(0,0)"></path>
<path d="M 270.68 95.8056 C 320.927 89.1173 367.075 124.447 373.732 174.698 C 380.388 224.949 345.029 271.075 294.774 277.699 C 244.564 284.317 198.489 248.997 191.838 198.791 C 185.188 148.586 220.479 102.488 270.68 95.8056 z" fill="rgb(13,150,104)" transform="translate(0,0)"></path>
<path d="M 656.995 571.03 C 701.293 570.72 745.591 570.697 789.889 570.959 C 822.243 570.91 857.651 570.117 889.737 571 C 890.044 629.013 890.163 741.625 889.391 804.393 C 888.916 804.937 888.442 805.48 887.967 806.024 C 829.148 807.132 769.633 805.21 710.733 805.97 C 693.089 806.198 674.233 806.375 656.701 805.457 L 656.995 571.03 z" fill="rgb(244,241,225)" transform="translate(0,0)"></path>
<path d="M 842.18 624.446 C 855.882 640.515 864.66 652.96 868.161 674.62 C 871.702 696.53 864.908 720.919 851.595 738.6 C 836.167 759.081 813.184 772.535 787.772 775.963 C 704.267 787.157 640.611 697.211 695.169 628.403 C 711.711 607.669 735.88 594.438 762.26 591.673 C 792.041 588.371 811.034 597.833 833.173 615.491 L 844.764 603.924 C 847.102 606.574 850.708 610.9 853.152 613.24 L 842.18 624.446 z" fill="rgb(245,158,11)" transform="translate(0,0)"></path>
<path d="M 833.173 615.491 L 844.764 603.924 C 847.102 606.574 850.708 610.9 853.152 613.24 L 842.18 624.446 C 820.501 645.659 799.247 667.301 778.43 689.36 C 793.346 702.711 805.529 717.811 821.294 730.2 C 817.084 734.254 815.323 736.123 811.792 740.745 C 799.19 726.87 783.425 711.437 770.262 697.868 C 757.418 709.199 735.624 730.565 724.241 742.826 C 720.573 738.171 719.576 737.079 715.025 733.309 C 730.622 719.088 745.898 703.306 760.603 688.116 C 745.272 674.131 730.505 657.517 714.785 643.043 C 717.533 640.074 721.109 636.828 724.093 633.987 C 736.6 645.182 756.477 667.023 769.099 679.821 C 790.808 657.837 810.951 637.12 833.173 615.491 z" fill="rgb(26,58,40)" transform="translate(0,0)"></path>
<path d="M 411.981 319.127 L 642.155 319.13 C 640.809 381.091 643.403 488.909 641.973 555.005 C 641.562 555.618 641.151 556.23 640.74 556.842 C 565.937 556.654 486.369 555.251 411.977 556.854 C 410.473 538.88 412.143 501.084 412.197 481.763 L 411.981 319.127 z" fill="rgb(244,241,225)" transform="translate(0,0)"></path>
<path d="M 519.731 343.629 C 570.863 340.505 614.823 379.475 617.852 430.612 C 620.881 481.75 581.829 525.637 530.686 528.57 C 479.677 531.496 435.931 492.569 432.91 441.566 C 429.889 390.564 468.734 346.745 519.731 343.629 z" fill="rgb(245,158,11)" transform="translate(0,0)"></path>
<path d="M 482.578 386.643 C 485.383 387.171 518.976 421.907 524.699 427.47 C 534.621 415.667 552.685 398.185 563.917 386.639 C 567.297 389.463 570.797 392.662 574.126 395.592 C 560.489 408.64 546.596 423.029 533.214 436.449 C 546.396 448.987 561.951 463.229 573.811 476.692 L 565.692 484.495 C 562.098 484.486 557.406 478.61 554.64 475.841 C 544.738 465.93 534.826 456.059 524.814 446.258 C 511.494 457.785 496.396 473.491 483.725 486.161 L 474.513 477.212 C 487.882 463.443 501.409 449.83 515.093 436.374 C 501.898 423.753 487.469 408.3 474.623 395.042 L 482.578 386.643 z" fill="rgb(26,58,40)" transform="translate(0,0)"></path>
<path d="M 427.214 67.5107 C 481.838 68.6032 537.004 66.3377 591.707 67.388 C 608.387 67.7082 625.938 67.8221 642.578 67.11 C 643.24 90.6217 641.925 120.987 641.99 145.375 L 642.213 270.355 C 642.185 275.77 642.598 299.567 641.67 302.887 C 638.683 305.437 638.499 304.667 633.945 304.92 C 561.024 304.012 484.892 304.758 411.881 305.095 C 412.5 225.904 412.528 146.709 411.965 67.5171 C 416.985 67.6129 422.178 67.528 427.214 67.5107 z" fill="rgb(244,241,225)" transform="translate(0,0)"></path>
<path d="M 518.741 95.9187 C 569.069 90.823 613.967 127.569 618.924 177.911 C 623.881 228.253 587.011 273.05 536.656 277.867 C 486.497 282.666 441.912 245.972 436.975 195.826 C 432.037 145.68 468.609 100.995 518.741 95.9187 z" fill="rgb(13,150,104)" transform="translate(0,0)"></path>
<path d="M 540.118 570.555 C 545.263 571.315 567.102 570.962 573.576 570.947 L 641.927 570.769 L 642.1 805.993 L 509.25 805.886 C 476.544 806.075 443.836 806.072 411.13 805.876 C 411.846 727.545 412.03 649.21 411.682 570.877 C 454.086 570.843 497.821 571.4 540.118 570.555 z" fill="rgb(244,241,225)" transform="translate(0,0)"></path>
<path d="M 516.213 595.542 C 566.234 589.521 611.596 625.369 617.298 675.428 C 623.001 725.486 586.864 770.619 536.77 776.002 C 487.126 781.336 442.487 745.594 436.835 695.985 C 431.184 646.376 466.641 601.51 516.213 595.542 z" fill="rgb(13,150,104)" transform="translate(0,0)"></path>
<path d="M 351.428 570.495 C 362.101 571.554 385.759 570.522 397.135 570.309 C 395.433 647.812 398.858 728.542 396.449 805.837 C 335.464 806.721 273.93 805.368 212.871 806.103 C 198.758 805.583 181.335 806.062 167 806.114 L 166.786 641.385 C 166.64 618.415 167.244 593.443 166.31 570.808 C 190.968 571.714 220.326 570.976 245.323 570.961 C 280.212 570.941 316.691 571.345 351.428 570.495 z" fill="rgb(244,241,225)" transform="translate(0,0)"></path>
<path d="M 278.023 594.053 C 328.609 591.448 371.758 630.283 374.476 680.863 C 377.194 731.444 338.455 774.679 287.881 777.509 C 237.147 780.349 193.746 741.461 191.02 690.721 C 188.293 639.982 227.277 596.667 278.023 594.053 z" fill="rgb(13,150,104)" transform="translate(0,0)"></path>
<path d="M 167.102 820.411 C 182.584 822.055 219.384 820.608 236.686 820.666 L 397.07 820.896 C 395.738 856.753 396.336 898.722 396.026 935.212 L 377.134 933.906 C 331.486 934.316 272.786 937.135 238.476 971.732 C 229.466 980.818 222.162 992.254 215.374 1003.08 C 206.151 1025.59 204.05 1032.51 198.539 1056.67 C 190.054 1055.82 175.918 1056 167.05 1055.88 C 168.472 1036.1 167.252 997.822 167.228 977.005 L 167.102 820.411 z" fill="rgb(245,158,11)" transform="translate(0,0)"></path>
<path d="M 167.102 820.411 C 182.584 822.055 219.384 820.608 236.686 820.666 L 397.07 820.896 C 395.738 856.753 396.336 898.722 396.026 935.212 L 377.134 933.906 C 376.552 909.735 366.304 886.806 348.683 870.25 C 330.181 852.62 305.108 844.109 279.717 845.075 C 253.808 846.309 229.468 857.855 212.123 877.141 C 195.177 895.712 186.425 920.325 187.842 945.425 C 188.819 962.867 198.391 988.436 211.723 1000.1 C 212.908 1001.13 214.126 1002.13 215.374 1003.08 C 206.151 1025.59 204.05 1032.51 198.539 1056.67 C 190.054 1055.82 175.918 1056 167.05 1055.88 C 168.472 1036.1 167.252 997.822 167.228 977.005 L 167.102 820.411 z" fill="rgb(244,241,225)" transform="translate(0,0)"></path>
<path d="M 358.534 1011.94 C 382.747 1021.19 411.232 1020.09 435.747 1012.34 C 440.625 1021.54 443.778 1030.67 446.93 1040.53 C 435.463 1043.65 399.318 1058.13 397.069 1070.87 C 400.511 1082.67 411.854 1076.56 419.377 1072.56 C 429.634 1067.11 438.923 1062.81 449.929 1059.18 C 450.612 1061.76 453.635 1072.44 453.474 1074.07 C 451.379 1095.22 456.582 1103.69 465.805 1121.71 C 469.77 1129.46 455.701 1128.64 453.477 1134.61 C 450.231 1143.34 454.579 1152.86 457.631 1161.23 C 449.029 1161.05 427.699 1153.91 423.723 1160.49 C 427.058 1169.69 452.267 1174.59 457.102 1179.85 C 455.712 1181.9 450.611 1182.22 449.505 1183.85 C 439.475 1198.62 461.025 1204.26 442.157 1219.84 C 410.629 1221.09 389.222 1209.19 361.498 1197.54 C 360.066 1196.94 357.277 1199.5 355.978 1200.44 C 355.788 1202.54 355.23 1204.58 356.042 1206.26 C 359.891 1214.18 375.492 1219.83 383.117 1223.27 C 377.396 1237.23 372.412 1252.57 366.574 1267.06 C 348.973 1257.01 330.621 1245.05 312.912 1235 C 304.643 1230.31 259.385 1208.84 256.12 1204.95 C 255.913 1202.19 258.066 1195.71 260.157 1195.16 C 289.936 1187.39 307.541 1182.42 333.497 1164.97 C 341.021 1170.67 358.774 1181.57 363.698 1167.19 C 362.463 1157.89 348.993 1156.22 342.632 1145.45 C 337.173 1136.21 335.256 1117.06 346.506 1110.74 C 350.071 1108.74 355.385 1114.4 359.847 1115.62 C 381.624 1100.12 379.759 1059.1 371.644 1036.94 C 368.138 1027.37 363.927 1020.48 358.534 1011.94 z" fill="rgb(13,150,104)" transform="translate(0,0)"></path>
<path d="M 433.393 1078 C 449.296 1077.37 449.849 1092.18 438.275 1101.63 C 423.271 1104.27 421.947 1086.79 433.393 1078 z" fill="rgb(26,58,40)" transform="translate(0,0)"></path>
<path d="M 246.201 1221.48 C 282.543 1237.26 318.923 1259.96 353.649 1279.33 C 370.849 1288.92 378.141 1295.56 383.531 1315.42 L 382.161 1315.03 C 372.22 1307.17 356.125 1296.77 345.17 1289.9 C 312.308 1269.27 276.025 1246.94 240.906 1230.75 L 246.201 1221.48 z" fill="rgb(13,150,104)" transform="translate(0,0)"></path>
<path d="M 1433.6 962.41 C 1427.8 958.343 1410.35 944.061 1410.23 937.442 C 1409.96 922.339 1444.02 924.785 1450.56 908.837 C 1457.25 892.511 1453.67 878.233 1458.54 861.582 C 1464.56 841.888 1473.52 823.49 1485.51 806.745 C 1490.57 799.675 1497.67 791.636 1502.28 784.895 C 1507.29 777.563 1504.7 771.435 1514.18 763.327 C 1535.33 745.239 1567.43 736.847 1594.7 734.134 C 1645.12 729.117 1704.51 746.956 1743.68 779.266 C 1761.67 794.11 1772.34 810.117 1776.19 833.239 C 1798.59 844.389 1821.52 873.322 1828.95 896.493 C 1840.12 931.32 1831.26 956.416 1810.05 983.911 C 1826.37 998.45 1841.06 1018.05 1842.34 1040.56 C 1846.17 1107.93 1743.5 1129.06 1693.14 1122.77 C 1704.38 1137.75 1715.36 1152.5 1726.51 1167.97 C 1767.08 1224.29 1796.31 1288.07 1820.82 1352.74 C 1822.11 1356.17 1823.76 1361.52 1824.55 1365 L 1803.32 1365 L 1431.86 1365 L 1411.2 1365 C 1432.92 1333.6 1460.69 1306.14 1478.71 1271.67 C 1481.88 1265.6 1485.57 1259.55 1489.32 1253.83 C 1478.83 1261.61 1463.62 1281.67 1454.03 1280.81 C 1452.53 1278.96 1448.89 1274.6 1449.18 1272.28 C 1450.49 1261.64 1509.86 1210.77 1520.44 1201.1 C 1521.93 1180.02 1514.15 1107.41 1505.24 1086.02 C 1504.75 1084.83 1501.98 1084.16 1500.38 1084.09 C 1480.13 1083.11 1439.39 1087.12 1423.58 1073.44 C 1419.23 1069.67 1419.41 1057.85 1420.04 1052.03 C 1421 1043.92 1422.25 1035.86 1423.78 1027.84 C 1415.11 1015.4 1409.92 1008.72 1426.6 1000.43 C 1419.04 984.208 1416.36 981.636 1431.42 969.535 C 1432.12 967.18 1432.81 964.73 1433.6 962.41 z" fill="rgb(26,58,40)" transform="translate(0,0)"></path>
<path d="M 1704.64 1165.76 C 1719.55 1191.37 1738.39 1215.78 1752.04 1242.52 C 1761.63 1261.32 1769.21 1280.53 1777.03 1300.09 C 1787.01 1322.68 1795 1341.57 1803.32 1365 L 1431.86 1365 C 1460.36 1331.22 1488.61 1297.01 1502.35 1254.56 C 1504.87 1269.06 1519.2 1341.52 1528.61 1347.83 C 1530.65 1349.21 1532.94 1349.12 1535.25 1348.45 C 1539.22 1347.31 1542.49 1345.18 1545.49 1342.41 C 1553.68 1334.86 1561.06 1326.07 1568.59 1317.85 C 1583.6 1301.48 1598.32 1284.94 1612.97 1268.26 L 1704.64 1165.76 z" fill="rgb(13,150,104)" transform="translate(0,0)"></path>
<path d="M 1500.44 811.682 C 1501.06 812.705 1501.23 812.896 1501.43 814.08 C 1504.17 830.293 1515.69 859.246 1524.43 872.688 C 1540.47 897.327 1565.1 923.107 1591.72 936.053 C 1593.42 936.877 1603.07 941.876 1604.17 941.724 C 1610.16 940.905 1617.01 936.369 1623.73 937.99 C 1627.18 938.822 1630.26 941.74 1631.99 944.994 C 1635.37 951.36 1632.43 960.811 1630.36 967.552 C 1625.69 982.783 1608.08 1009.3 1591.28 1012.67 C 1587.56 1013.41 1576.64 1008.12 1570.45 1011.14 C 1565.56 1018.13 1566.44 1043.65 1567.97 1052.11 L 1568.2 1053.33 L 1564.69 1054.67 C 1528.95 1068.2 1503.12 1069.8 1465.26 1067.11 C 1458.38 1066.63 1444.92 1065.9 1438.89 1063.18 C 1437.35 1059.9 1437.94 1060.48 1438.42 1056.23 C 1439.47 1046.11 1440.35 1034.83 1442.46 1024.97 C 1462.57 1017.67 1481.17 1005.82 1494.82 989.138 C 1474.93 988.243 1459.2 988.783 1443.97 974.844 C 1463.13 948.494 1446.63 954.17 1432.3 937.729 L 1431.44 936.722 C 1474.79 919.976 1462.85 902.34 1473.27 865.25 C 1486.85 869.905 1521.04 898.545 1531.93 897.369 L 1532.99 895.626 C 1532.23 890.234 1528.41 885.344 1525.36 880.976 C 1512.72 862.918 1499.87 854.136 1478.11 850.572 C 1485.64 832.702 1488.57 827.839 1500.44 811.682 z" fill="rgb(13,150,104)" transform="translate(0,0)"></path>
<path d="M 1476.42 886.755 C 1487.34 887.31 1520.93 904.556 1511.46 917.794 C 1507.4 918.196 1505.66 916.362 1501.34 914.384 C 1499.81 916.984 1503.06 921.558 1501.06 929.211 L 1499.43 933.507 C 1491.34 940.219 1479.96 932.156 1472.92 927.324 C 1495.09 895.318 1459.68 907.028 1476.42 886.755 z" fill="rgb(26,58,40)" transform="translate(0,0)"></path>
<path d="M 1686.21 1141.19 C 1688.12 1142.58 1693.31 1151.32 1694.96 1153.89 C 1680.28 1164.86 1652.77 1196.77 1639.78 1211.07 C 1605.18 1248.75 1571.24 1287.03 1537.97 1325.89 L 1535.37 1314.77 C 1531.09 1296.6 1519.52 1250.11 1512.81 1234.39 C 1532.66 1215.65 1543.73 1212.35 1567.6 1200.43 L 1646.69 1161.41 C 1658.95 1155.31 1674.66 1148.08 1686.21 1141.19 z" fill="rgb(13,150,104)" transform="translate(0,0)"></path>
<path d="M 1569.48 1066.84 C 1572.91 1068.02 1577.11 1079.48 1581.23 1083.69 C 1606.36 1109.39 1639.31 1111.2 1671.33 1121.99 C 1673.8 1122.82 1676.26 1124.59 1677.2 1127.15 C 1671.78 1130.6 1654.3 1138.14 1647.08 1141.51 C 1631.39 1148.91 1615.81 1156.53 1600.34 1164.38 C 1579.2 1174.32 1558.18 1185.96 1537.06 1196.22 C 1536.49 1163.5 1530.59 1114.57 1522.96 1082.66 C 1538.24 1080.05 1555.11 1072.81 1569.48 1066.84 z" fill="rgb(13,150,104)" transform="translate(0,0)"></path>
<path d="M 571.283 1365 C 602.393 1311.39 651.299 1253.41 682.132 1198.42 C 685.066 1189.1 688.024 1175.11 685.192 1165.72 C 680.238 1149.3 667.067 1134.62 658.134 1120.2 C 610.362 1043.23 652.398 955.003 738.395 932.891 C 796.107 918.052 831.653 939.295 887.458 942.394 C 892.254 942.661 910.548 935.323 911.354 945.729 C 912.464 960.052 901.062 975.924 891.108 985.289 C 902.656 1005.29 913.709 1025.43 911.451 1048.28 C 908.189 1081.28 917.018 1088.11 943.11 1103.96 C 942.985 1103.88 944.047 1106.76 943.512 1106.9 C 943.695 1113.04 921.717 1124 922.206 1127.14 C 924.03 1138.85 931.94 1139.74 919.873 1152.43 C 922.543 1156.78 924.67 1160.11 926.748 1164.77 C 924.296 1168.99 921.961 1172.98 919.328 1177.09 C 942.157 1226.99 887.784 1219.79 857.699 1214.74 C 853.752 1229.36 843.015 1252.85 837.483 1269.03 C 859.541 1286.02 857.61 1307.72 869.834 1324.73 C 876.007 1333.31 902.797 1353.96 913.267 1365 L 571.283 1365 z" fill="rgb(26,58,40)" transform="translate(0,0)"></path>
<path d="M 834.771 985.574 C 845.057 987.906 864.482 988.857 874.921 988.47 C 886.448 1002.87 890.863 1011.88 895.001 1029.79 C 876.688 1035.32 856.26 1048.93 844.158 1063.7 C 846.089 1067 846.55 1068.31 849.665 1070.59 C 852.394 1070.41 861.178 1064.72 864.309 1062.8 C 875.244 1056.08 885.177 1051.35 896.963 1046.39 C 895.909 1054.93 894.845 1061.37 896.022 1070.01 C 898.06 1085.04 906.081 1098.61 918.266 1107.64 C 912.462 1111.59 911.479 1113.2 907.912 1119 C 908.6 1125.93 910.232 1136.38 908.386 1142.7 C 901.164 1151.15 885.486 1140.86 873.506 1143.33 C 871.841 1144.62 870.899 1144.79 870.862 1147.11 C 870.665 1159.68 900.503 1161.1 908.479 1161.44 C 907.886 1162.09 907.312 1162.75 906.72 1163.4 C 905.484 1164.75 903.946 1166.18 903.238 1167.9 C 901.322 1172.55 905.221 1180.64 906.712 1185.09 C 908.062 1189.13 909.801 1193.61 907.499 1197.66 C 898.907 1212.76 839.416 1191.38 823.161 1196.53 C 820.56 1197.35 819.84 1198.03 818.725 1200.41 C 820.65 1210.81 834.522 1211.74 842.922 1212.92 L 837.961 1225.21 C 833.446 1237.99 828.14 1249.91 822.753 1262.33 C 813.779 1258.85 803.503 1253.51 794.907 1249 C 762.791 1232.13 729.577 1217.29 697.218 1201.02 C 698.776 1194.26 700.053 1186.76 701.367 1179.9 C 702.262 1179.8 703.156 1179.7 704.048 1179.58 C 731.741 1175.94 750.44 1168.57 767.574 1146.36 C 775.505 1159.74 790.234 1173.51 807.666 1168.2 C 810.784 1167.25 812.658 1165.49 813.976 1162.54 C 813.135 1153.17 802.081 1154.84 794.085 1153.45 C 783.913 1144.34 768.144 1117.13 782.355 1105.26 C 786.458 1101.83 798.202 1105.37 803.22 1106.46 C 813.92 1088.95 824.033 1042.52 828.37 1021.22 C 830.732 1009.62 831.187 998.629 834.771 985.574 z" fill="rgb(13,150,104)" transform="translate(0,0)"></path>
<path d="M 890.997 1066.16 C 892.89 1067.77 892.321 1067.35 893.27 1070.02 C 892.356 1078.39 882.399 1079.23 875.679 1080.38 C 880.194 1080.49 890.144 1079.58 890.433 1085.66 C 886.53 1089.17 883.66 1088.89 878.616 1088.17 C 871.121 1081.24 867.709 1081.54 862.87 1077.13 L 862.838 1075.46 C 865.888 1073.25 885.721 1067.78 890.997 1066.16 z" fill="rgb(26,58,40)" transform="translate(0,0)"></path>
<path d="M 691.963 1216.75 L 786.847 1263.41 C 801.309 1270.6 821.517 1281.69 835.86 1287.55 C 838.485 1291.91 844.3 1302.47 845.564 1307.08 L 844.491 1307.51 C 827.335 1300.31 805.339 1286.21 788.167 1277.26 C 755.341 1260.14 720.741 1240.7 687.242 1225.07 L 691.963 1216.75 z" fill="rgb(13,150,104)" transform="translate(0,0)"></path>
<path d="M 1157.14 564.78 C 1204.49 563.362 1254.3 564.416 1301.74 564.175 L 1347.55 563.782 C 1357.28 563.63 1370.35 562.928 1379.74 564.122 L 1379.14 725.833 C 1379.19 739.218 1380.79 792.908 1378.9 802.696 C 1374.16 806.56 1276.22 805.117 1262.06 805.009 C 1247.53 804.898 1162.4 806.957 1157.02 803.456 L 1157.14 564.78 z" fill="rgb(245,158,11)" transform="translate(0,0)"></path>
<path d="M 1254.21 592.906 C 1303.27 585.508 1349.03 619.34 1356.33 668.418 C 1363.63 717.497 1329.71 763.183 1280.62 770.388 C 1231.66 777.573 1186.13 743.766 1178.85 694.824 C 1171.56 645.882 1205.28 600.284 1254.21 592.906 z" fill="rgb(244,241,225)" transform="translate(0,0)"></path>
<path d="M 1322.17 622.994 C 1325.08 625.406 1327.65 628.318 1330.25 631.084 C 1321.29 641.364 1297.21 661.7 1285.89 671.406 C 1267.51 687.155 1242.08 711.325 1222.43 724.548 C 1214.39 707.498 1204.47 691.276 1194.33 675.418 C 1192.65 672.673 1189.53 668.483 1187.6 665.71 L 1197.14 656.221 C 1207.27 672.477 1217.23 689.228 1227.19 705.623 C 1251.44 686.138 1301.02 645.121 1322.17 622.994 z" fill="rgb(245,158,11)" transform="translate(0,0)"></path>
<path d="M 1156.78 311.304 C 1176.21 310.232 1198.92 310.74 1218.71 310.554 L 1379.8 310.286 C 1379.28 365.254 1379.12 420.223 1379.31 475.193 C 1379.34 489.661 1378.49 537.006 1380.25 548.994 C 1327.94 548.597 1275.64 548.5 1223.33 548.701 L 1180.67 548.625 C 1174.88 548.613 1162.34 548.27 1157.13 549.144 C 1158.28 522.386 1156.69 484.793 1156.6 456.944 C 1156.92 408.398 1156.98 359.851 1156.78 311.304 z" fill="rgb(13,150,104)" transform="translate(0,0)"></path>
<path d="M 1332.61 362.769 C 1336.13 363.756 1338.63 364.745 1340.59 367.76 C 1341 370.69 1341.37 372.328 1339.01 375.034 C 1326.63 389.256 1311.97 402.506 1298.77 415.737 L 1257.76 456.461 C 1251.63 462.62 1232.16 484.899 1225.24 485.619 C 1217.66 482.005 1193.56 451.518 1187.69 443.499 C 1183.75 438.442 1181.03 434.566 1177.54 429.18 C 1180.17 427.235 1183.8 425.146 1186.65 423.398 C 1198.59 435.342 1214.51 455.122 1226.02 468.464 C 1230.3 464.006 1235.09 459.443 1239.57 455.155 C 1270.85 425.18 1300.74 391.951 1332.61 362.769 z" fill="rgb(244,241,225)" transform="translate(0,0)"></path>
<path d="M 1155.72 54.9842 C 1156.24 56.4076 1156.49 58.3329 1157.86 59.0685 C 1160.27 60.3683 1353.23 57.5458 1379.77 58.8114 C 1376.6 134.868 1381.85 217.994 1378.92 294.15 C 1350.76 296.995 1161.37 291.68 1155.87 295.855 C 1157.2 286.806 1156.02 274.15 1155.91 264.802 L 1155.75 212.4 C 1155.47 160.894 1156.79 105.983 1155.72 54.9842 z" fill="rgb(13,150,104)" transform="translate(0,0)"></path>
<path d="M 1335.99 113.945 C 1340.91 115.443 1343.27 117.218 1344.6 122.082 C 1343.29 129.479 1321.14 148.137 1314.72 154.274 C 1291.54 176.306 1268.14 198.113 1244.53 219.692 C 1239.99 223.853 1230.23 233.899 1224.24 233.638 C 1215.07 228.941 1190.13 197.333 1181.98 187.656 C 1177.31 182.544 1169.25 174.111 1181.77 170.727 C 1188.91 172.8 1219.58 210.189 1226.14 217.596 C 1262.69 182.408 1299.89 150.433 1335.99 113.945 z" fill="rgb(244,241,225)" transform="translate(0,0)"></path>
<path d="M 1156.94 819.412 L 1299.67 819.977 C 1325.21 820.059 1353.94 818.913 1379.1 820.133 C 1379.17 846.649 1378.07 884.011 1379.46 909.655 C 1376.91 912.082 1374.45 914.643 1371.89 917.034 C 1356.95 930.944 1379.24 946.155 1384.49 958.807 C 1387.87 966.932 1382.74 970.069 1376.88 973.784 C 1376.91 999.344 1377.2 1025.43 1376.25 1050.93 L 1156.56 1051 C 1157.34 1043.89 1157.01 1030.33 1157.02 1022.91 L 1156.88 967.845 L 1156.94 819.412 z" fill="rgb(245,158,11)" transform="translate(0,0)"></path>
<path d="M 1344.59 856.62 C 1347.39 858.635 1351.01 862.722 1353.53 865.372 C 1345.29 878.597 1317.07 903.757 1304.7 916.163 C 1278.87 942.053 1252.54 966.673 1226.77 992.872 C 1213.09 978.64 1195.5 957.3 1182.27 942.059 C 1178.69 937.539 1174.43 933.007 1170.55 928.705 L 1180.52 919.44 C 1194.71 931.378 1214.31 956.332 1226.53 971.105 C 1230.27 968.207 1235.35 963.677 1238.64 960.309 C 1273.16 925.007 1309.73 891.501 1344.59 856.62 z" fill="rgb(244,241,225)" transform="translate(0,0)"></path>
<path d="M 434.762 936.945 C 433.294 930.461 435.622 917.631 437.545 911.361 C 447.558 878.73 472.523 855.242 505.743 847.956 C 530.654 842.352 556.772 846.994 578.226 860.84 C 596.804 872.769 613.572 896.255 618.138 917.894 C 622.499 939.612 618.056 962.172 605.786 980.615 C 574.408 1028.31 503.424 1042.14 463.233 998.333 C 471.568 991.423 478.521 983.725 480.898 972.892 C 488.382 938.795 457.082 940.609 434.762 936.945 z" fill="rgb(245,158,11)" transform="translate(0,0)"></path>
<path d="M 1697.19 310.508 C 1720.77 314.021 1890.86 306.616 1896.16 311.741 C 1897.22 322.032 1896.88 336.559 1896.92 347.195 L 1896.94 406.815 C 1896.8 453.416 1897.72 502.331 1896.7 548.673 C 1880.63 549.142 1863.31 548.727 1846.97 548.984 C 1801.66 547.885 1754.48 549.633 1709.06 548.89 C 1692.46 548.619 1666.24 549.881 1650.45 548.46 C 1645.82 542.004 1653.88 340.344 1648.78 312.024 L 1648.58 310.986 C 1661.68 310.988 1684.94 311.606 1697.19 310.508 z" fill="rgb(13,150,104)" transform="translate(0,0)"></path>
<path d="M 1760.05 342.293 C 1809.42 335.614 1854.86 370.209 1861.57 419.579 C 1868.28 468.949 1833.71 514.413 1784.34 521.147 C 1734.94 527.887 1689.43 493.284 1682.72 443.875 C 1676 394.466 1710.63 348.977 1760.05 342.293 z" fill="rgb(244,241,225)" transform="translate(0,0)"></path>
<path d="M 1831.75 370.519 C 1834.94 371.592 1836.2 372.361 1838.24 374.814 C 1838.59 377.037 1838.89 378.01 1837.95 380.139 C 1835.89 384.802 1757.63 458.64 1748.73 466.302 C 1745.21 469.332 1741.56 472.087 1737.17 473.7 C 1730.33 471.448 1712.89 447.287 1707.32 440.08 C 1704.6 436.88 1702.73 434.646 1700.34 431.17 C 1700.27 427.97 1700.31 426.004 1703.61 424.928 C 1713.89 426.743 1729.26 451.547 1738.46 461.242 C 1773.05 429.256 1799.25 404.625 1831.75 370.519 z" fill="rgb(245,158,11)" transform="translate(0,0)"></path>
<path d="M 1650.03 58.5904 C 1670.62 56.9299 1706.86 58.5818 1728.94 58.4397 L 1819.7 58.7018 C 1844.34 58.6322 1870.63 57.8546 1895.11 58.67 C 1895.59 59.2065 1896.07 59.743 1896.56 60.2796 C 1896.45 120.917 1897.65 239.789 1896.59 293.884 L 1895.02 295.13 L 1649.13 295.003 C 1648.71 265.915 1649.51 235.179 1649.68 206 L 1650.03 58.5904 z" fill="rgb(13,150,104)" transform="translate(0,0)"></path>
<path d="M 1839.28 117.564 C 1872.87 153.791 1871.34 210.217 1835.85 244.581 C 1800.36 278.945 1743.92 278.647 1708.79 243.912 C 1673.67 209.176 1672.74 152.737 1706.7 116.866 C 1740.67 80.9945 1797.08 78.8426 1833.68 112.022 C 1835.62 113.787 1837.49 115.636 1839.28 117.564 z" fill="rgb(244,241,225)" transform="translate(0,0)"></path>
<path d="M 1833.68 112.022 C 1835.62 113.787 1837.49 115.636 1839.28 117.564 L 1839.6 121.953 C 1835.49 128.928 1742.91 217.702 1734.79 222.337 C 1726.73 220.53 1722.89 203.605 1719.94 196.436 C 1717.19 189.768 1705.09 169.576 1706.23 163.734 C 1708.92 161.001 1708.01 161.103 1711.17 160.445 C 1719.28 163.682 1730.29 194.668 1736.09 205.341 C 1753.56 190.369 1771.08 171.959 1787.75 156.336 C 1797.58 147.121 1824.18 117.08 1833.68 112.022 z" fill="rgb(245,158,11)" transform="translate(0,0)"></path>
<path d="M 1403.13 310.6 C 1405.79 311.609 1613.5 310.509 1635.21 310.796 L 1635.1 487.668 C 1635.12 495.287 1636.03 546.426 1634.1 548.572 C 1624.81 549.553 1587.08 548.714 1575.98 548.732 L 1448.83 548.53 C 1430.96 548.607 1411.31 548.069 1393.62 549.075 C 1394.54 529.13 1393.99 506.076 1393.98 485.788 L 1393.92 376.205 C 1393.92 359.854 1392.99 327.489 1394.39 312.165 C 1397.02 310.403 1399.53 310.849 1403.13 310.6 z" fill="rgb(13,150,104)" transform="translate(0,0)"></path>
<path d="M 1579.99 371.67 C 1589.88 372.21 1588.61 382.454 1583.1 388.147 C 1567.4 404.363 1552.57 420.126 1535.83 435.506 C 1517.94 451.942 1499.72 475.71 1478.95 487.715 C 1474.41 489.882 1438.08 440.179 1433.82 434.536 C 1429.6 429.799 1425.13 425.458 1427.08 419.129 C 1429.27 416.763 1429.37 416.432 1432.36 415.679 C 1442.18 420.239 1472.12 460.699 1479.27 471.25 C 1487.29 465.275 1508.66 443.003 1516.27 435.334 L 1579.99 371.67 z" fill="rgb(244,241,225)" transform="translate(0,0)"></path>
<path d="M 1394.13 57.7807 C 1400.03 58.8304 1440.8 58.7367 1448.94 58.7952 C 1490.54 58.8415 1532.14 58.6356 1573.73 58.1776 C 1592.87 58.1478 1616.02 57.6816 1634.81 58.8895 C 1635.55 136.668 1635.64 214.451 1635.09 292.231 L 1634.75 293.689 C 1631.31 296.136 1572.54 294.926 1563.85 294.909 C 1507.27 294.567 1450.68 294.545 1394.1 294.843 L 1394.13 57.7807 z" fill="rgb(13,150,104)" transform="translate(0,0)"></path>
<path d="M 1503.82 90.1435 C 1552.78 83.52 1597.89 117.682 1604.78 166.599 C 1611.67 215.516 1577.76 260.815 1528.88 267.98 C 1479.62 275.2 1433.89 240.964 1426.94 191.663 C 1419.99 142.362 1454.48 96.819 1503.82 90.1435 z" fill="rgb(244,241,225)" transform="translate(0,0)"></path>
<path d="M 1576.33 123.705 C 1580.45 124.974 1581.68 125.704 1582.04 129.929 C 1577.6 140.625 1502.23 197.432 1489.77 209.598 C 1487.38 211.927 1479.27 218.048 1475.19 217.631 C 1468.56 212.706 1455.78 182.759 1451.39 173.492 C 1448.08 168.281 1444.43 161.912 1449.01 156.11 L 1450.41 156.117 C 1460.81 161.325 1472.99 191.882 1478.38 203.569 C 1481.79 200.626 1485.44 197.779 1489.02 195.022 C 1518.83 172.053 1547.46 147.841 1576.33 123.705 z" fill="rgb(245,158,11)" transform="translate(0,0)"></path>
<path d="M 1683.38 563.611 C 1706.49 565.033 1739 563.179 1763.17 563.547 C 1806.32 564.204 1853.8 565.551 1896.65 563.235 C 1896.08 614.523 1897.21 666.819 1896.62 718.22 C 1896.3 746.909 1897.44 775.836 1896.36 804.6 C 1868.75 805.042 1839.42 804.376 1811.71 804.14 C 1809.16 800.393 1805.96 793.902 1803.37 789.639 C 1798.41 781.502 1793.92 776.205 1787.73 768.943 C 1802.01 766.923 1815.63 761.638 1827.53 753.497 C 1846.05 741.084 1858.8 721.742 1862.9 699.828 C 1867.83 672.262 1860.3 649.41 1844.68 627.16 C 1824.09 647.595 1807.5 662.713 1785.58 681.86 C 1777.26 689.597 1746.62 717.776 1737.24 717.969 C 1730.2 715.985 1728.8 709.406 1724.99 703.932 C 1716.75 692.063 1709.08 675.069 1698.98 664.907 L 1698.23 664.161 C 1701.55 660.729 1704.28 658.631 1708.01 655.67 C 1718.79 672.323 1730 688.694 1741.63 704.766 C 1749.42 696.194 1765.02 684.048 1774.28 676.016 C 1795.9 657.261 1816 639.664 1836.28 619.5 C 1814.28 603.218 1794.9 593.596 1766.95 594.838 C 1723.82 596.757 1687.68 628.761 1679.11 670.761 C 1676.44 683.85 1677.6 696.759 1678.14 709.77 C 1670.96 707.539 1657.91 705.238 1649.99 703.49 L 1649.83 563.769 C 1661.33 564.383 1671.9 564.069 1683.38 563.611 z" fill="rgb(245,158,11)" transform="translate(0,0)"></path>
<path d="M 1013.7 843.658 C 1064.15 838.694 1109 875.735 1113.66 926.211 C 1118.32 976.687 1081.01 1021.31 1030.5 1025.67 C 980.429 1029.99 936.262 993.065 931.641 943.016 C 927.019 892.967 963.679 848.579 1013.7 843.658 z" fill="rgb(245,158,11)" transform="translate(0,0)"></path>
<path d="M 1064.82 879.772 C 1067.92 883.018 1071.03 886.246 1074.17 889.456 C 1060.06 902.367 1044.03 921.47 1029.15 935.969 C 1043.87 950.074 1058.63 965.34 1073.04 979.853 C 1070.37 982.894 1066.2 986.46 1063.12 989.257 C 1051.09 976.645 1032.42 956.811 1019.78 945.71 C 1011.43 955.211 984.122 984.052 974.653 990.337 L 966.104 981.723 C 981.455 966.744 996.522 951.477 1011.3 935.93 C 996.912 920.713 981.106 905.651 966.447 890.275 C 969.318 887.6 972.657 883.818 975.388 880.885 C 990.147 894.954 1004.3 911.868 1019.28 926.333 C 1029.62 917.587 1055.52 889.976 1064.82 879.772 z" fill="rgb(26,58,40)" transform="translate(0,0)"></path>
<path d="M 1536.23 563.565 C 1544.79 564.748 1564.47 564.157 1573.88 564.236 C 1594.24 564.407 1614.85 564.438 1635.21 564.147 C 1633.23 607.71 1637.04 658.003 1634.6 701.238 C 1623.39 700.777 1611.33 700.12 1600.21 698.824 C 1600.46 697.772 1600.7 696.715 1600.9 695.652 C 1605.22 673.668 1598.42 647.773 1585.8 629.622 C 1558.55 590.407 1501.18 581.954 1462.65 609.835 C 1437.95 627.712 1428.57 645.543 1423.11 675.227 C 1422.75 685.862 1423.97 696.491 1426.73 706.768 C 1434.43 734.97 1451.88 748.817 1476.03 762.565 C 1465.12 775.814 1455.34 789.953 1446.79 804.833 C 1428.84 804.701 1410.89 804.818 1392.94 805.186 C 1395.95 727.328 1393.25 642.476 1394.06 563.768 C 1430.5 564.858 1467.44 563.359 1503.92 563.935 C 1514.48 564.101 1525.73 564.104 1536.23 563.565 z" fill="rgb(245,158,11)" transform="translate(0,0)"></path>
<path d="M 1836.05 820.54 C 1846.1 820.627 1889.91 819.521 1896.12 821.768 C 1897.43 830.921 1896.92 847.312 1896.89 857.136 C 1896.88 878.223 1896.72 899.309 1896.4 920.394 C 1896.05 953.304 1896.45 986.838 1896.61 1019.77 C 1896.74 1022.43 1895.73 1025.09 1895.7 1027.73 C 1895.62 1035.68 1897.77 1044.46 1895.3 1052.15 C 1892.43 1055.04 1890.01 1053.98 1884.77 1054.16 C 1881.94 1054.58 1880.86 1054.61 1878 1054.55 C 1876.16 1051.97 1877.02 1046.42 1876.73 1042.56 C 1875.39 1024.57 1867.61 1002.46 1854.08 990.307 C 1879.52 939.05 1871.36 889.752 1840.73 842.125 C 1837.75 837.493 1826.57 824.973 1826.33 821.762 C 1829 819.906 1832.56 820.484 1836.05 820.54 z" fill="rgb(245,158,11)" transform="translate(0,0)"></path>
<path d="M 761.522 844.268 C 779.943 842.137 798.584 845.443 815.148 853.78 C 839.459 866.296 849.972 880.719 858.004 905.582 C 817.806 894.17 799.84 891.114 758.761 895.227 C 736.747 894.195 693.455 912.164 674.039 922.691 C 679.661 877.868 719.047 849.746 761.522 844.268 z" fill="rgb(245,158,11)" transform="translate(0,0)"></path>
<path d="M 1575.96 624.828 C 1577.59 625.705 1581.55 632.049 1582.87 634.009 C 1548.14 667.459 1512.26 694.616 1476.95 726.316 C 1470.59 713.01 1458.72 696.86 1450.12 684.402 C 1447.03 679.894 1443.86 674.688 1440.88 670.041 C 1444.49 668.121 1448.27 666.605 1452.04 664.998 C 1461.85 679.58 1471.04 690.427 1479.91 706.265 C 1510.67 683.133 1539.06 656.965 1567.82 631.432 C 1570.44 629.107 1573.16 626.923 1575.96 624.828 z" fill="rgb(245,158,11)" transform="translate(0,0)"></path>
<path d="M 1429.43 819.564 C 1433.04 819.551 1434.04 818.947 1436.76 820.649 C 1435.47 825.564 1430.99 832.398 1429.04 837.462 C 1422.73 853.839 1417.81 868.161 1417.8 885.693 C 1412.32 891.545 1405 896.082 1398.18 900.227 C 1395.4 901.241 1396.67 901.331 1394.25 900.447 C 1392.21 890.36 1392.86 832.575 1394.33 821.543 C 1398.13 818.846 1423.02 819.596 1429.43 819.564 z" fill="rgb(245,158,11)" transform="translate(0,0)"></path>
<metadata><recraft-signature>{"signed_by": "recraft", "signature_b64": "8lj78RUXX0hMGIHO8thVBLy9dCbnrYg4I7y4ICXbjU91+EIW8lG2QPf/WlL13es9C7CczfHLTzomNAe+xnmqAQ==", "signing_algo": "Ed25519", "generation_timestamp": 1780475657, "identifier": "0c37758b-dc69-4610-90a1-55462f192f9b"}</recraft-signature></metadata></svg>