<svg xmlns="http://www.w3.org/2000/svg" height="1024" preserveAspectRatio="none" style="display: block;" version="1.1" viewBox="0 0 2048 1152" width="1820">
<path d="M 0 0 L 1501.23 0 L 1524.49 0 L 1642.7 0 L 1654.08 0 L 1746.45 0 L 1751.33 0 L 1954.16 0 L 2042.22 0 L 2048 0 L 2048 218.513 L 2048 239.103 L 2048 296.428 L 2048 321.563 L 2048 399.866 L 2048 430.255 L 2048 491.343 L 2048 509.756 L 2048 1152 L 507.767 1152 L 500.857 1152 L 30.1633 1152 L 0 1152 L 0 1051.64 L 0 1028.68 L 0 929.666 L 0 901.018 L 0 742.255 L 0 718.603 L 0 0 z" fill="rgb(242,233,216)" transform="translate(0,0)"></path>
<path d="M 226.96 447.33 C 257.303 584.715 297.564 727.845 255.441 866.546 C 252.403 876.553 249.371 887.27 245.354 896.877 C 269.987 875.489 286.671 861.586 314.779 844.32 C 325.965 837.528 337.444 831.231 349.183 825.445 C 370.292 814.988 513.144 748.865 525.739 751.751 C 527.39 756.834 521.971 779.449 520.602 785.513 C 504.084 858.72 491.686 936.217 457.22 1003.6 C 424.878 1066.97 373.303 1118.48 309.887 1150.74 L 296.505 1150.08 C 292.434 1150.67 274.445 1150.43 269.613 1150.44 C 247.138 1150.39 224.663 1150.2 202.19 1149.87 C 190.112 1150.25 176.384 1149.98 164.181 1150.02 L 134.061 1150.1 C 130.944 1150.14 128.804 1150.44 125.918 1149.29 C 121.248 1132.92 138.989 1061 144.372 1043.81 C 113.732 1066.68 79.527 1087.28 53.5222 1115.41 C 44.1258 1125.58 38.9244 1140.01 30.85 1150 L 30.1633 1152 L 0 1152 L 0 1051.64 L 0 1028.68 L 0 929.666 L 0 901.018 L 0 742.255 L 0 718.603 C 16.3785 696.959 28.7195 667.737 45.5477 644.499 C 85.4697 589.371 132.047 541.188 179.762 492.867 C 190.503 481.892 215.814 456.164 226.96 447.33 z" fill="rgb(26,58,40)" transform="translate(0,0)"></path>
<path d="M 0 742.255 C 4.49145 751.807 8.70807 767.877 11.8891 778.195 C 28.4462 831.9 48.1531 887.235 77.2029 935.525 C 68.2583 964.57 61.6742 994.261 52.5108 1023.11 C 38.9626 995.919 28.4625 972.693 17.1793 944.439 C 12.6921 933.203 4.85008 911.166 0 901.018 L 0 742.255 z" fill="rgb(13,150,104)" transform="translate(0,0)"></path>
<path d="M 0 929.666 C 6.8223 941.995 12.458 957.575 18.373 970.583 C 28.3632 992.552 38.2311 1014.77 49.2847 1036.22 C 41.7092 1062.77 34.2628 1089.04 28.8477 1116.15 C 26.6529 1094.17 11.9631 1046 0 1028.68 L 0 929.666 z" fill="rgb(13,150,104)" transform="translate(0,0)"></path>
<path d="M 0 1051.64 C 10.6582 1069.06 20.8111 1102.46 21.733 1123.3 C 21.9609 1128.45 20.0994 1142.84 19.5928 1148.93 C 19.5807 1149.07 20.9331 1149.75 21.3515 1149.77 C 24.3925 1149.97 27.8074 1149.99 30.85 1150 L 30.1633 1152 L 0 1152 L 0 1051.64 z" fill="rgb(242,233,216)" transform="translate(0,0)"></path>
<path d="M 259.41 804.77 C 263.135 820.461 240.567 885.674 234.624 901.824 C 230.312 904.335 215.903 919.871 211.151 924.364 C 202.711 932.344 194.6 940.562 185.259 947.833 C 146.812 977.76 103.889 1004.1 61.5591 1028.11 C 60.4751 1023.71 81.6329 949.457 84.5853 941.278 C 131.442 912.088 178.819 884.308 220.308 847.095 C 234.607 834.27 247.101 819.472 259.41 804.77 z" fill="rgb(13,150,104)" transform="translate(0,0)"></path>
<path d="M 264.363 709.619 C 267.096 714.955 266.155 774.143 263.529 780.224 C 238.274 838.701 138 899.021 89.4895 928.626 L 88.5711 926.918 C 89.204 920.584 94.5753 904.464 96.7 897.342 L 113.804 840.282 C 167.797 803.393 223.565 761.193 264.363 709.619 z" fill="rgb(13,150,104)" transform="translate(0,0)"></path>
<path d="M 41.5569 664.86 C 43.3925 669.519 46.2131 682.97 47.7927 688.58 C 52.0124 703.565 55.9308 718.447 61.2525 733.136 C 69.5247 755.52 78.5695 777.61 88.3706 799.368 C 94.2455 812.206 100.438 823.203 105.789 836.485 C 96.4703 859.736 90.1664 898.404 80.6269 921.766 L 79.2672 921.828 L 76.583 917.784 C 42.0964 850.862 25.9176 797.819 7.25291 725.718 C 18.9408 702.389 27.8317 687.187 41.5569 664.86 z" fill="rgb(13,150,104)" transform="translate(0,0)"></path>
<path d="M 254.706 625.859 C 257.454 629.567 263.349 689.876 264.155 698.03 C 215.888 754.409 183.864 781.289 122.466 824.468 C 120.471 825.809 119.18 827.272 117.302 826.986 C 118.437 817.591 125.917 793.823 128.821 784.198 C 134.759 764.604 140.334 744.902 145.543 725.102 C 178.441 698.526 226.85 658.177 254.706 625.859 z" fill="rgb(13,150,104)" transform="translate(0,0)"></path>
<path d="M 92.939 597.731 C 97.4779 600.387 134.336 706.264 138.433 719.86 C 129.79 750.74 119.235 792.744 109.011 822.231 L 104.477 813.685 C 81.5968 769.929 58.9771 702.708 48.3626 654.694 C 64.4402 631.628 74.6536 619.081 92.939 597.731 z" fill="rgb(13,150,104)" transform="translate(0,0)"></path>
<path d="M 201.706 943.538 C 206.578 938.265 208.147 936.595 214.11 932.323 C 210.235 937.525 207.836 940.802 203.269 945.484 C 184.287 966.334 159.067 1004.94 148.881 1030.43 C 142.318 1036.18 128.981 1045.18 121.663 1050.49 C 84.9567 1077.15 58.0401 1092.65 32.7128 1131.1 C 39.9491 1104.44 48.3505 1066.06 57.6423 1040.86 C 106.05 1010.02 159.274 982.607 201.706 943.538 z" fill="rgb(13,150,104)" transform="translate(0,0)"></path>
<path d="M 241.691 555.221 C 244.875 560.375 252.226 607.285 253.58 616.157 C 243.171 626.06 232.691 637.324 222.117 647.518 C 201.604 667.411 180.188 686.351 157.937 704.277 L 149.974 711.039 C 159.612 675.906 169.672 640.89 180.151 605.998 C 202.917 589.282 220.452 572.319 241.691 555.221 z" fill="rgb(13,150,104)" transform="translate(0,0)"></path>
<path d="M 149.336 535.699 C 152.967 541.554 168.132 594.463 171.432 604.908 C 161.185 638.211 152.828 673.001 142.134 705.809 L 137.371 691.757 C 125.367 656.49 113.183 623.78 100.221 588.94 C 114.989 571.223 133.326 552.575 149.336 535.699 z" fill="rgb(13,150,104)" transform="translate(0,0)"></path>
<path d="M 222.352 471.728 C 226.513 475.751 238.073 536.463 239.755 546.6 C 225.512 559.053 210.026 571.677 195.338 583.666 L 184.105 592.773 C 191.083 566.104 201.079 538.845 209.204 512.409 C 213.294 499.098 217.399 484.62 222.352 471.728 z" fill="rgb(13,150,104)" transform="translate(0,0)"></path>
<path d="M 211.778 472.896 C 212.194 475.876 179.133 579.946 175.952 591.41 L 171.878 577.768 C 167.492 562.576 161.806 542.86 156.313 528.289 C 175.065 509.26 191.946 490.809 211.778 472.896 z" fill="rgb(13,150,104)" transform="translate(0,0)"></path>
<path d="M 1746.45 0 L 1751.33 0 L 1954.16 0 L 2042.22 0 C 2030.22 17.6824 2034.56 43.6046 2033.73 64.8877 C 2033.26 76.4576 2031.88 87.9728 2029.62 99.3281 C 2022.94 133.186 2006.04 165.662 1985.37 195.05 C 1920.21 287.72 1809.34 332.1 1703.62 359.801 C 1698.6 361.117 1695.48 363.772 1691.38 360.659 C 1690.6 357.163 1718.42 281.887 1722.08 270.833 C 1646.94 298.726 1577.27 313.885 1498.56 327.21 C 1492.03 328.315 1468.42 334.094 1463.92 332.19 C 1463.41 330.641 1462.56 328.696 1463.52 327.067 C 1524.78 223.071 1582.5 107.007 1683.73 35.6387 C 1702.94 22.0899 1726.24 11.2554 1746.45 0 z" fill="rgb(26,58,40)" transform="translate(0,0)"></path>
<path d="M 1907.64 141.756 C 1908.83 144.06 1908.7 147.488 1908.73 150.144 C 1909.11 183.522 1906.93 216.791 1899.12 249.342 C 1897.35 256.753 1895.38 264.196 1894.16 271.603 C 1882.59 279.699 1866.31 290.171 1854.19 297.097 C 1851.97 293.898 1854.59 283.753 1855.43 279.534 C 1861.48 249.196 1862.22 220.254 1863.04 189.472 C 1876.6 175.571 1895.72 156.681 1907.64 141.756 z" fill="rgb(13,150,104)" transform="translate(0,0)"></path>
<path d="M 1953.84 94.7751 C 1958.73 101.842 1954.35 175.015 1952.57 186.89 C 1951.29 195.419 1946.07 222.05 1946.65 229.051 C 1933.72 241.155 1920.33 252.751 1906.5 263.811 L 1904.95 263.954 C 1904.2 261.891 1907.21 250.241 1907.88 247.406 C 1916.96 209.435 1917 172.066 1917.14 133.304 C 1929.64 119.932 1941.51 109.164 1953.84 94.7751 z" fill="rgb(13,150,104)" transform="translate(0,0)"></path>
<path d="M 1941.78 86.4324 C 1945.37 85.9983 1946.37 86.0825 1949.88 86.3741 C 1949.72 87.5886 1911.07 126.896 1906.33 131.992 C 1861.13 131.321 1828.83 136.511 1786.65 154.757 L 1780.34 157.565 L 1779.34 156.995 C 1785.51 142.912 1794.99 129.743 1804.56 117.799 C 1824.22 110.765 1842.36 102.439 1863.06 98.116 C 1889.15 92.6689 1915.16 88.2068 1941.78 86.4324 z" fill="rgb(13,150,104)" transform="translate(0,0)"></path>
<path d="M 1939.24 45.4035 C 1954.9 44.3632 1974.57 44.9648 1990.28 45.2948 C 1979.51 54.5336 1967.88 67.7208 1958.06 78.2775 C 1920.15 78.2804 1888.3 83.7061 1851.96 92.5668 C 1837.75 96.6887 1826.56 100.982 1812.83 106.306 C 1813.59 105.379 1814.36 104.457 1815.14 103.54 C 1859.6 50.9842 1873.7 50.9257 1939.24 45.4035 z" fill="rgb(13,150,104)" transform="translate(0,0)"></path>
<path d="M 1876.13 140.391 C 1881.26 139.682 1894.03 139.684 1899.74 139.534 C 1888.23 149.485 1869.81 170.035 1858.98 181.686 C 1823.5 187.714 1805.23 190.048 1770.41 202.958 C 1765.24 204.802 1758.82 208.124 1753.76 210.561 C 1757.17 199.968 1767.09 178.605 1772.54 168.942 C 1781.96 165.785 1792.87 160.034 1802.77 156.593 C 1827.34 148.052 1850.4 142.982 1876.13 140.391 z" fill="rgb(13,150,104)" transform="translate(0,0)"></path>
<path d="M 1994.04 52.6949 C 2000.77 56.8543 1994.74 153.518 1994.94 165.729 C 1981.7 187.442 1972.57 199.106 1956.98 219.175 L 1955.96 219.332 C 1955.36 215.331 1959.03 198.196 1959.84 193.017 C 1965.44 157.297 1965.11 121.361 1962.75 85.3834 C 1972.89 74.4632 1983.7 63.4794 1994.04 52.6949 z" fill="rgb(13,150,104)" transform="translate(0,0)"></path>
<path d="M 1853.59 199.741 C 1857.69 212.492 1847.02 285.69 1843.31 301.828 C 1830.28 308.58 1814.87 315.017 1801.29 320.481 C 1800.55 316.535 1809.88 254.636 1810.29 243.469 C 1824.16 229.815 1839.47 212.298 1853.59 199.741 z" fill="rgb(13,150,104)" transform="translate(0,0)"></path>
<path d="M 1844.32 192.372 L 1846.98 192.178 C 1846.03 196.161 1812.44 229.35 1806.97 235.67 C 1787.06 235.932 1757.33 245.295 1739.24 253.363 C 1738.2 253.875 1738.51 253.623 1736.98 253.444 C 1737.54 248.458 1746.71 227.013 1749.1 221.522 C 1769.07 207.459 1819.77 195.991 1844.32 192.372 z" fill="rgb(13,150,104)" transform="translate(0,0)"></path>
<path d="M 2013.06 9.37784 C 2015.98 8.98502 2021.73 8.81484 2024.88 8.61907 C 2015.25 18.2773 2006.75 27.7009 1996.7 37.2369 C 1979.98 37.3697 1963.07 36.5317 1946.33 37.068 C 1930.05 37.5895 1914.07 39.6375 1897.94 41.7266 L 1884.63 43.9488 C 1923.37 19.7434 1968.52 13.3476 2013.06 9.37784 z" fill="rgb(13,150,104)" transform="translate(0,0)"></path>
<path d="M 1799.95 253.93 C 1802.73 259.77 1793.55 313.43 1792.19 323.631 C 1780.8 327.763 1769.38 331.784 1757.92 335.694 C 1757.88 335.66 1757.83 335.638 1757.81 335.594 C 1755.91 331.288 1762.35 300.231 1763.29 292.78 C 1773.67 280.378 1788.38 267.559 1799.95 253.93 z" fill="rgb(13,150,104)" transform="translate(0,0)"></path>
<path d="M 2025.36 19.8093 L 2026.41 21.3773 C 2026.22 72.2941 2027.45 100.126 2004.1 148.315 C 2003.52 137.582 2005.04 120.509 2005.13 108.955 C 2005.31 86.3511 2004.17 66.3605 2002.6 43.7996 C 2010.36 36.2639 2017.98 27.7747 2025.36 19.8093 z" fill="rgb(13,150,104)" transform="translate(0,0)"></path>
<path d="M 1792.7 245.206 L 1795.64 245.106 L 1795.81 246.214 C 1792.2 251.8 1786.44 256.045 1782.43 260.614 C 1760.64 285.462 1755.14 285.379 1725.24 296.356 L 1722.22 296.624 C 1720.84 292.604 1730.01 269.503 1731.83 264.22 C 1755.69 254.528 1768.03 250.37 1792.7 245.206 z" fill="rgb(13,150,104)" transform="translate(0,0)"></path>
<path d="M 1752.73 303.874 C 1754.34 306.718 1749.3 333.084 1748.4 338.668 C 1735.47 343.41 1722.29 347.408 1708.9 350.641 L 1708.47 349.464 C 1722.29 335.752 1740.2 318.277 1752.73 303.874 z" fill="rgb(13,150,104)" transform="translate(0,0)"></path>
<path d="M 1745.92 296.08 L 1746.73 297.364 C 1738.28 307.906 1716.27 330.315 1706.21 340.025 C 1705.01 336.483 1715.17 312.043 1717.38 306.315 C 1727.1 304.3 1736.75 299.945 1745.92 296.08 z" fill="rgb(13,150,104)" transform="translate(0,0)"></path>
<path d="M 2048 218.513 L 2048 239.103 L 2048 296.428 L 2048 321.563 L 2048 399.866 L 2048 430.255 L 2048 491.343 L 2048 509.756 C 2046.19 511.785 2044.33 514.482 2042.97 516.828 C 1997.97 594.086 1921.99 646.893 1850.85 698.057 C 1847.71 700.314 1843.41 704.73 1839.66 705.066 C 1838.34 704.379 1837.67 704.405 1837.47 703.509 C 1835.05 692.996 1834.26 680.315 1833.29 669.584 C 1830.53 639.057 1828.45 608.473 1827.05 577.853 C 1822.72 480.428 1845.26 378.285 1930.81 318.873 C 1965.79 294.581 2007.36 284.238 2033.68 245.552 C 2039.01 237.722 2043.41 227.155 2048 218.513 z" fill="rgb(26,58,40)" transform="translate(0,0)"></path>
<path d="M 2015.04 333.976 C 2019.64 349.087 2025.4 364.045 2030.45 379.044 C 2036.22 396.186 2041.6 413.325 2048 430.255 L 2048 491.343 C 2042.91 499.669 2037.14 511.11 2031.74 520.197 C 2028.28 508.487 2024.39 486.975 2021.69 474.414 C 2017.01 452.004 2011.62 429.744 2005.55 407.669 C 2003.72 400.735 1999.66 383.526 1996.73 377.685 C 2003.1 363.227 2009.2 348.655 2015.04 333.976 z" fill="rgb(13,150,104)" transform="translate(0,0)"></path>
<path d="M 2034.79 278.647 C 2037.89 295.844 2040.14 306.095 2048 321.563 L 2048 399.866 C 2039 382.263 2027.33 341.231 2019.35 321.446 C 2024.38 311.059 2030.96 290.069 2034.79 278.647 z" fill="rgb(13,150,104)" transform="translate(0,0)"></path>
<path d="M 2041.22 247.693 L 2048 239.103 L 2048 296.428 C 2041.29 280.493 2041.25 264.546 2041.22 247.693 z" fill="rgb(242,233,216)" transform="translate(0,0)"></path>
<path d="M 1980.69 391.008 L 1982.44 391.445 C 1981.97 396.303 1957.85 441.724 1953.57 450.057 C 1907.99 471.667 1877.67 488.496 1837.75 518.203 L 1836.92 518.001 C 1834.22 513.291 1841.23 478.39 1842.78 470.549 C 1876.76 438.778 1938.8 410.016 1980.69 391.008 z" fill="rgb(13,150,104)" transform="translate(0,0)"></path>
<path d="M 2008.1 329.971 C 2008.51 334.695 1990.42 374.127 1986.99 379.778 C 1938.86 396.993 1887.75 425.899 1846.94 456.408 C 1845.78 452.248 1856.08 427.6 1858.25 421.874 C 1868.97 393.59 1900.56 377.803 1925.93 364.848 C 1952.24 351.413 1980.63 340.966 2008.1 329.971 z" fill="rgb(13,150,104)" transform="translate(0,0)"></path>
<path d="M 1990.77 390.72 C 1996.83 397.014 2022.42 514.577 2024.49 530.402 C 2014.12 545.599 2006.59 556.385 1994.3 570.347 C 1992.21 572.414 1993.04 572.152 1990.51 572.792 C 1983.55 530.502 1974.44 488.595 1963.22 447.233 C 1974.05 427.904 1981.68 410.828 1990.77 390.72 z" fill="rgb(13,150,104)" transform="translate(0,0)"></path>
<path d="M 1957.23 461.753 C 1963.85 472.015 1981.13 565.889 1983.8 581.117 C 1973.42 591.078 1962.82 600.813 1952.02 610.315 L 1945.34 616.062 L 1931.39 519.326 C 1940.47 500.348 1949.09 481.151 1957.23 461.753 z" fill="rgb(13,150,104)" transform="translate(0,0)"></path>
<path d="M 1946.54 463.047 C 1947.36 466.475 1923.36 516.192 1919.95 523.526 C 1889.29 538.505 1861.89 553.821 1834.5 574.209 C 1833.27 561.439 1834.2 543.143 1835.09 530.529 C 1876.21 499.594 1900.22 485.469 1946.54 463.047 z" fill="rgb(13,150,104)" transform="translate(0,0)"></path>
<path d="M 2029.82 263.845 C 2030.85 272.474 2016.1 309.845 2012.13 319.386 C 1969.49 337.186 1918.39 354.399 1880.68 381.893 L 1880.59 381.293 C 1881.5 378.056 1887.89 370.552 1890.36 367.268 C 1908.88 342.831 1936.01 322.578 1963.28 308.668 C 1990.56 294.75 2007.3 284.9 2029.82 263.845 z" fill="rgb(13,150,104)" transform="translate(0,0)"></path>
<path d="M 1924.19 535.596 C 1927.28 539.345 1936.27 613.405 1937.53 623.151 L 1903.65 650.401 L 1901.3 651.613 C 1898.74 648.317 1894.29 607.21 1893.38 599.947 C 1901.67 583.08 1915.98 549.483 1924.19 535.596 z" fill="rgb(13,150,104)" transform="translate(0,0)"></path>
<path d="M 1912.71 535.972 C 1913.04 536.268 1913.31 537.072 1913.52 537.548 C 1907.46 553.072 1896.22 574.585 1888.88 590.784 C 1870.23 601.775 1854.78 610.916 1837.14 623.46 C 1836.12 610.113 1835.44 596.742 1835.1 583.36 C 1837.63 581.817 1840.5 579.757 1842.94 578.014 C 1865.19 562.1 1888.67 548.992 1912.71 535.972 z" fill="rgb(13,150,104)" transform="translate(0,0)"></path>
<path d="M 1880.05 605.156 L 1880.62 605.903 C 1879.67 610.275 1847.21 678.739 1843.36 685.007 L 1842.35 683.879 C 1839.95 668.272 1840.01 648.16 1837.11 633.484 C 1851.15 622.949 1865.15 614.302 1880.05 605.156 z" fill="rgb(13,150,104)" transform="translate(0,0)"></path>
<path d="M 1886.52 614.806 C 1888.45 616.913 1891.65 651.168 1893.39 658.097 L 1854.88 686.115 L 1852.8 687.367 L 1851.91 686.72 C 1853.27 682.004 1857.74 674.937 1860.24 670.137 C 1869.18 652.957 1877.24 631.256 1886.52 614.806 z" fill="rgb(13,150,104)" transform="translate(0,0)"></path>
<path d="M 408.959 1150.26 C 405.686 1150.3 402.958 1151 400.918 1149.35 C 402.205 1143.66 409.163 1131.5 412.164 1125.81 C 425.383 1100.74 444.294 1078.71 463.646 1058.16 C 528.258 989.586 620.327 963.196 708.403 939.491 C 713.763 938.048 719.691 936.172 725.266 936.515 C 726.559 937.944 727.04 940.066 726.685 942.2 C 714.795 1013.71 696.602 1087.43 656.562 1148.75 C 655.276 1150.72 649.104 1150.01 646.587 1149.92 L 558.815 1149.97 C 545.45 1150.12 532.083 1150.11 518.718 1149.95 C 516.575 1150.11 513.22 1149.88 510.97 1149.8 L 507.767 1152 L 500.857 1152 L 496.527 1149.09 C 490.467 1150.44 471.775 1149.98 463.85 1150.24 L 456.837 1150.28 C 441.369 1149.69 424.549 1150.12 408.959 1150.26 z" fill="rgb(26,58,40)" transform="translate(0,0)"></path>
<path d="M 1501.23 0 L 1524.49 0 L 1642.7 0 L 1654.08 0 C 1639.8 16.9006 1636.78 31.2891 1625.67 49.5604 C 1598.12 94.8542 1550.97 134.329 1503.08 156.357 C 1484.88 164.6 1466 171.269 1446.66 176.292 C 1431.56 180.228 1309.63 201.685 1301.69 198.753 C 1301.6 198.456 1301.48 198.166 1301.41 197.864 C 1299.66 190.891 1335.48 134.937 1341.9 125.052 C 1382.92 61.8508 1424.34 16.3774 1501.23 0 z" fill="rgb(26,58,40)" transform="translate(0,0)"></path>
<path d="M 1524.49 0 L 1642.7 0 L 1637.4 8.37351 C 1626.75 12.3084 1605.32 23.3715 1594.59 28.5807 C 1577.11 12.341 1547.24 5.19968 1524.49 0 z" fill="rgb(13,150,104)" transform="translate(0,0)"></path>
<path d="M 1455.1 24.0834 C 1463.32 26.5349 1471.92 25.8198 1480.35 27.3242 C 1503.06 31.3735 1527.13 38.9803 1547.17 50.3862 C 1537.56 54.9842 1526 60.1665 1517.03 65.5908 C 1493.34 51.9006 1451.31 44.7459 1423.84 42.1952 C 1433.79 35.3736 1444.24 29.3188 1455.1 24.0834 z" fill="rgb(13,150,104)" transform="translate(0,0)"></path>
<path d="M 1497.69 7.35034 C 1530.07 5.24689 1558.03 15.396 1585.86 31.2995 C 1577.55 36.2451 1565.26 41.9109 1556.37 46.3228 C 1532.94 28.9822 1496.7 20.5074 1468.29 17.4912 C 1477.75 13.4471 1487.54 9.19906 1497.69 7.35034 z" fill="rgb(13,150,104)" transform="translate(0,0)"></path>
<path d="M 1414.04 48.638 C 1416.89 49.7098 1436.44 52.1669 1441.28 52.9017 C 1466 56.6516 1484.17 60.2007 1507.18 70.2023 L 1485.64 80.6282 L 1476.77 85.0167 C 1455.32 71.5005 1419.06 68.0691 1394.4 68.0625 C 1400.58 60.7376 1406.94 55.0281 1414.04 48.638 z" fill="rgb(13,150,104)" transform="translate(0,0)"></path>
<path d="M 1545.88 59.9528 C 1546.55 60.5129 1546.53 61.0098 1546.93 62.0568 C 1540.46 82.1524 1521.35 124.296 1510.97 143.36 C 1503.47 147.589 1498.19 149.658 1490.13 152.867 C 1489.37 151.537 1489.83 150.352 1490.45 148.688 C 1498.34 127.306 1512.86 97.0394 1516.2 74.6438 C 1525.41 69.5727 1536.33 64.5787 1545.88 59.9528 z" fill="rgb(13,150,104)" transform="translate(0,0)"></path>
<path d="M 1468.41 97.8898 C 1471.33 106.521 1453.4 155.582 1449.02 167.026 C 1441.58 169.345 1432.07 171.254 1424.33 173.008 C 1423.79 170.507 1426.89 162.719 1427.93 159.852 C 1433.44 144.705 1437.16 130.354 1438.82 114.289 C 1448.48 109.861 1459.38 103.41 1468.41 97.8898 z" fill="rgb(13,150,104)" transform="translate(0,0)"></path>
<path d="M 1505.02 79.8421 C 1505.48 79.9855 1506.32 80.6374 1506.77 80.9473 C 1500.94 103.728 1487.3 133.731 1479.1 157.129 C 1473.95 159.965 1467.91 161.302 1462.21 162.856 C 1460.79 162.798 1461.47 162.879 1460.08 162.045 C 1465.61 142.538 1477.14 113.251 1478.36 93.8043 C 1485.96 89.1906 1496.91 83.9826 1505.02 79.8421 z" fill="rgb(13,150,104)" transform="translate(0,0)"></path>
<path d="M 1387.53 75.9992 C 1394.43 76.9068 1408.44 76.9665 1416.36 77.6322 C 1436.83 79.353 1448.91 82.7281 1468.13 88.4825 C 1464.1 91.4597 1455.18 96.4463 1450.52 99.2054 C 1442.3 104.36 1443.1 102.616 1434.36 99.387 C 1416.14 92.6621 1393.43 93.916 1373.94 94.2308 C 1377.85 88.4679 1383.26 81.6642 1387.53 75.9992 z" fill="rgb(13,150,104)" transform="translate(0,0)"></path>
<path d="M 1580.21 44.0818 C 1580.48 44.3518 1580.76 45.3804 1580.91 45.8274 C 1575.57 63.0791 1554.88 109.09 1543.21 123.541 C 1541.42 125.759 1529.11 132.913 1525.82 134.83 L 1525.34 134.353 C 1525.3 133.78 1554.45 65.0141 1558.08 54.8002 C 1565.1 51.6822 1573.2 47.4827 1580.21 44.0818 z" fill="rgb(13,150,104)" transform="translate(0,0)"></path>
<path d="M 1428.87 120.109 C 1432.83 125.09 1416.87 166.858 1413.83 174.434 C 1404.97 176.024 1396.12 177.7 1387.29 179.46 C 1387.19 179.322 1387.05 179.207 1386.99 179.046 C 1385.84 176.044 1397.75 144.16 1399.66 138.129 C 1409.52 132.399 1419.63 126.782 1428.87 120.109 z" fill="rgb(13,150,104)" transform="translate(0,0)"></path>
<path d="M 1387.7 102.46 C 1393.59 101.606 1430.39 103.878 1433.12 107.903 C 1426.85 112.73 1414.05 119.74 1406.82 123.969 C 1388.28 119.12 1375.62 118.796 1356.53 119.079 C 1359.45 113.625 1363.32 108.193 1366.81 103.038 C 1374 103.074 1380.53 102.803 1387.7 102.46 z" fill="rgb(13,150,104)" transform="translate(0,0)"></path>
<path d="M 1600.12 34.9795 L 1601.02 35.0351 C 1602.57 38.7817 1595.88 70.7322 1594.54 77.8635 C 1584.94 88.6041 1576.19 97.9104 1565.22 107.267 L 1564.71 107.431 L 1564.01 106.674 C 1565.77 101.008 1570.4 92.3687 1573.01 86.4431 C 1580.12 70.3056 1586.75 55.6849 1591.72 38.6935 L 1600.12 34.9795 z" fill="rgb(13,150,104)" transform="translate(0,0)"></path>
<path d="M 1386.5 147.995 L 1387.3 148.969 C 1384.53 159.217 1380.35 170.61 1376.87 180.76 C 1367.88 181.163 1341.1 186.113 1330.47 187.718 L 1329.88 187.564 C 1331.33 184.609 1381.38 151.391 1386.5 147.995 z" fill="rgb(13,150,104)" transform="translate(0,0)"></path>
<path d="M 1350.53 126.905 C 1367.93 128.996 1377 126.485 1398.1 130.376 C 1393.98 133.482 1388.32 136.972 1383.91 139.861 C 1374.64 146.014 1352.07 145.106 1339.56 146.217 C 1342.78 140.016 1347.01 133.039 1350.53 126.905 z" fill="rgb(13,150,104)" transform="translate(0,0)"></path>
<path d="M 1354.1 152.363 L 1364.84 152.144 C 1350.09 162.217 1335.43 172.412 1320.86 182.728 L 1314.81 187.852 C 1320.58 176.089 1327.15 166.051 1334.12 155.022 C 1340.16 155.058 1348 153.415 1354.1 152.363 z" fill="rgb(13,150,104)" transform="translate(0,0)"></path>
<path d="M 1630.8 19.9796 L 1631.6 21.3974 C 1625.34 36.4174 1616.67 50.4092 1606.91 63.3867 L 1606.42 63.2205 C 1605.2 60.3728 1610.32 34.254 1611.13 30.1109 C 1617.9 26.9189 1624.2 23.5161 1630.8 19.9796 z" fill="rgb(13,150,104)" transform="translate(0,0)"></path>
<path d="M 872.623 200.312 C 878.17 200.806 910.187 210.587 916.819 212.642 C 962.166 226.693 1007.62 240.954 1052.87 255.316 C 1057.16 248.543 1061.21 243.379 1067.66 238.448 C 1078.72 229.989 1092.69 226.278 1106.49 228.135 C 1138.78 232.626 1157.37 260.628 1152.86 292.241 C 1162.93 295.884 1175.87 298.84 1185.95 303.019 C 1186.71 303.336 1188.69 306.885 1188.67 306.878 C 1217.74 316.489 1310.55 343.429 1335.15 351.348 C 1331.28 366.881 1318.89 399.742 1313.21 416.18 L 1265.89 551.796 L 1120.39 969.34 L 1112.09 992.602 C 1099.91 987.677 1080.09 981.963 1067.42 977.999 L 996.166 955.474 C 922.309 932.38 848.589 908.855 775.007 884.9 C 735.88 872.197 689.384 857.937 651.398 843.267 C 700.872 705.645 748.658 567.422 794.746 428.628 L 840.725 293.913 C 850.807 263.889 861.223 229.496 872.623 200.312 z" fill="rgb(26,58,40)" transform="translate(0,0)"></path>
<path d="M 892.689 239.532 C 929.513 250.952 968.035 264.426 1005.06 274.584 C 1001.83 286.642 995.277 303.624 991.267 316.338 C 999.58 319.6 1013.88 323.517 1022.86 326.429 C 1048.47 334.934 1074.19 343.137 1100 351.036 C 1112.41 354.959 1156.18 369.955 1166.61 371.517 C 1171.07 367.576 1175.72 344.928 1177.37 338.404 C 1182.56 339.722 1187.88 341.292 1192.95 343.036 C 1225.64 354.282 1259.84 362.626 1292.37 374.096 C 1278.93 415.514 1262.26 459.512 1247.97 501.005 L 1103.48 915.048 C 1099.06 926.792 1095.09 939.625 1091.15 951.608 C 1061.79 940.957 1027.84 931.284 997.686 921.725 L 766.473 848.405 C 742.757 840.697 715.543 832.95 692.609 824.834 C 708.005 777.022 726.254 727.815 742.672 680.139 C 776.728 582.108 810.258 483.895 843.261 385.504 C 859.598 337.327 877.165 287.827 892.689 239.532 z" fill="rgb(245,158,11)" transform="translate(0,0)"></path>
<path d="M 894.031 624.006 C 913.798 611.176 927.944 607.958 950.801 603.544 C 951.364 616.736 952.377 621.16 957.204 633.05 C 929.366 638.618 922.267 641.355 898.851 657.102 C 892.29 661.724 885.772 666.065 879.8 671.349 C 874.149 675.3 870.098 706.738 861.331 704.448 C 847.985 700.961 804.082 690.001 795.397 681.726 C 794.241 676.399 798.307 664.833 800.223 659.472 C 806.299 642.475 811.255 624.779 818.577 608.307 C 819.287 606.71 822.006 605.046 823.51 604.155 C 831.864 605.012 882.955 620.759 894.031 624.006 z" fill="rgb(26,58,40)" transform="translate(0,0)"></path>
<path d="M 823.91 610.269 C 841.958 613.606 868.422 622.505 886.062 628.35 C 875.916 634.549 867.091 640.776 857.395 647.6 C 854.367 642.042 849.723 634.617 845.504 630.058 C 836.841 634.698 825.273 640.478 817.486 646.05 C 822.915 654.337 832.637 666.668 838.802 674.946 L 848.997 688.56 C 857.353 685.758 861.661 682.628 869.133 677.993 C 866.525 685.378 864.212 691.699 861.131 698.892 C 851.204 695.792 807.778 683.647 802.151 678.037 C 801.374 671.186 820.233 618.61 823.91 610.269 z" fill="rgb(242,233,216)" transform="translate(0,0)"></path>
<path d="M 943.105 611.214 C 944.439 612.556 947.267 625.75 948.075 628.882 C 902.075 638.146 890.547 658.947 852.105 680.4 C 847.162 675.667 841.447 667.918 837.09 662.343 C 833.588 657.534 829.843 652.917 826.134 648.265 C 831.799 644.375 837.364 641.424 843.365 638.119 C 847.255 644.235 851.446 649.75 855.765 655.559 C 862.521 651.808 875.224 642.772 882.145 638.226 C 903.873 623.951 918.46 617.921 943.105 611.214 z" fill="rgb(13,150,104)" transform="translate(0,0)"></path>
<path d="M 784.432 717.937 C 791.976 717.569 846.021 733.927 853.859 739.813 C 869.354 731.042 888.035 724.479 905.46 720.941 C 906.33 731.392 907.812 742.341 909.063 752.795 C 888.32 757.28 875.104 762.815 856.868 773.314 C 852.449 775.91 847.039 779.702 842.661 782.582 C 831.032 816.937 834.6 822.85 795.392 808.81 C 771.897 800.396 747.359 801.677 761.806 771.753 C 768.363 758.172 773.767 726.714 784.432 717.937 z" fill="rgb(26,58,40)" transform="translate(0,0)"></path>
<path d="M 785.859 723.476 C 794.849 725.906 842.531 738.498 846.132 743.313 C 843.93 745.71 823.755 758.478 817.956 763.198 C 812.026 755.031 809.185 751.071 805.553 741.845 C 798.013 745.873 782.17 754.515 776.047 759.589 C 783.728 769.063 791.299 778.625 798.759 788.273 C 814.4 807.713 814.841 800.368 834.587 788.057 C 832.808 793.976 830.001 805.721 825.6 809.616 C 817.787 810.454 778.077 796.95 768.883 793.037 C 767.86 792.602 763.561 790.02 763.69 789.025 C 764.968 779.18 782.022 729.668 785.859 723.476 z" fill="rgb(242,233,216)" transform="translate(0,0)"></path>
<path d="M 897.985 729.16 C 899.821 730.664 900.835 744.352 901.341 748.179 C 865.058 757.24 842.798 774.788 812.023 794.7 C 806.55 788.545 800.134 778.98 795.214 772.055 C 791.931 768.041 788.618 764.052 785.274 760.089 C 791.802 757.338 796.632 754.725 802.845 751.367 C 805.554 755.797 811.9 767.101 815.985 770.228 C 817.881 771.678 825.922 764.916 828.189 763.299 C 850.737 747.216 871.836 737.428 897.985 729.16 z" fill="rgb(13,150,104)" transform="translate(0,0)"></path>
<path d="M 931.922 506.212 C 949.791 495.818 964.14 490.025 984.849 487.217 C 985.314 500.476 985.794 507.37 990.81 519.746 C 965.766 524.045 956.865 526.174 935.97 541.041 C 929.337 546.372 918.052 554.346 914.119 561.661 C 910.443 568.5 910.052 582.112 901.924 585.8 C 892.269 585.488 846.918 571.238 838.951 565.273 C 835.42 559.295 843.539 537.182 846.317 529.801 C 850.99 517.387 853.528 495.826 863.938 487.979 C 876.66 487.604 917.076 501.897 931.922 506.212 z" fill="rgb(26,58,40)" transform="translate(0,0)"></path>
<path d="M 864.673 493.902 C 876.355 494.269 911.423 506.545 924.546 510.765 C 914.981 516.634 905.786 523.087 897.014 530.086 C 892.732 524.697 888.664 518.007 885.044 512.124 C 875.81 518.101 866.465 523.905 857.014 529.533 C 861.53 537.138 870.129 548.146 875.575 555.553 L 888.879 573.294 L 907.373 563.56 C 905.256 569.551 902.947 574.884 900.45 580.708 C 886.208 576.51 855.352 567.474 842.49 561.948 C 843.974 554.88 861.634 498.726 864.673 493.902 z" fill="rgb(242,233,216)" transform="translate(0,0)"></path>
<path d="M 977.012 495.212 C 977.779 496.026 980.374 511.761 980.894 514.404 C 957.07 519.254 938.714 528.514 919.751 543.802 C 909.891 551.752 901.541 559.403 890.566 565.817 C 885.55 558.323 880.05 550.931 874.734 543.627 L 865.762 532.031 C 871.57 528.654 877.294 525.135 882.929 521.477 C 887.196 528.168 890.844 534.27 896.114 540.236 C 920.185 516.837 945.356 504.228 977.012 495.212 z" fill="rgb(13,150,104)" transform="translate(0,0)"></path>
<path d="M 904.843 370.032 C 917.799 369.223 957.813 385.034 974.265 388.731 C 982.152 384.234 1012.55 369.524 1019.82 374.292 C 1021.61 378.846 1024.09 398.685 1024.98 404.425 C 1003.51 406.958 987.641 413.909 970.655 427.253 C 953.92 443.468 958.843 449.081 947.025 466.29 C 945.916 468.283 942.751 468.397 940.889 468.524 C 933.444 469.033 880.431 452.363 878.968 448.111 C 875.248 437.295 896.541 376.279 904.843 370.032 z" fill="rgb(26,58,40)" transform="translate(0,0)"></path>
<path d="M 905.71 375.709 C 916.183 375.718 952.851 389.497 966.355 393.014 C 955.446 401.096 949.485 406.002 941.404 416.807 C 936.853 411.223 930.087 400.187 926.096 393.993 C 916.692 399.577 907.119 404.871 897.39 409.867 C 902.096 418.095 910.59 428.916 916.464 436.679 C 921.153 443.535 924.792 448.897 930.149 455.216 C 939.202 453.312 942.153 452.233 949.463 446.614 L 948.562 449.41 C 946.945 454.361 945.706 460.396 940.98 462.793 C 932.353 462.636 918.84 456.176 910.186 453.713 C 902.731 451.592 888.953 448.72 883.733 443.594 C 883.136 437.342 901.29 383.908 905.71 375.709 z" fill="rgb(242,233,216)" transform="translate(0,0)"></path>
<path d="M 1013.97 379.183 C 1015.41 381.082 1016.49 395.573 1016.82 398.94 C 999.602 402.552 979.575 410.505 966.672 422.712 C 953.824 434.867 950.324 440.692 934.216 448.875 C 930.203 445.028 918.284 428.348 914.264 423.035 L 905.752 412.541 C 913.002 409.283 917.107 406.828 923.915 402.651 C 929.478 411.586 934.695 419.515 941.348 427.669 C 958.854 400.148 983.809 388.772 1013.97 379.183 z" fill="rgb(13,150,104)" transform="translate(0,0)"></path>
<path d="M 938.156 580.663 C 945.32 580.899 991.237 595.775 1001.59 598.914 L 1084.71 624.38 C 1102.11 629.67 1127.96 637.096 1144.53 643.49 C 1146.44 646.316 1145.89 645.387 1145.15 649.671 C 1138.97 649.701 1105.67 638.437 1097.41 635.757 C 1045.17 618.809 992.105 603.942 939.921 586.957 C 937.508 584.219 938.213 585.121 938.156 580.663 z" fill="rgb(26,58,40)" transform="translate(0,0)"></path>
<path d="M 906.052 702.607 C 912.07 703.423 925.057 707.561 931.252 709.405 L 979.539 724.125 C 995.687 729.04 1097.08 758.457 1101.35 762.451 C 1102.12 765.426 1101.81 764.606 1100.44 768.112 C 1089.71 765.717 907.409 709.932 905.565 708.654 C 904.741 705.47 905.087 706.24 906.052 702.607 z" fill="rgb(26,58,40)" transform="translate(0,0)"></path>
<path d="M 1001.26 455.83 C 1005.08 455.488 1008.61 456.332 1012.25 457.464 C 1070.84 475.697 1129.74 493.368 1188.15 512.011 C 1189.83 512.549 1190.3 516.024 1190.72 517.611 C 1187.94 518.242 1185.44 518.23 1182.61 517.375 C 1150.08 507.534 1122.09 498.641 1089.12 488.114 C 1062.95 479.756 1029.5 470.817 1003.32 461.591 C 1001.81 461.056 1001.61 457.729 1001.26 455.83 z" fill="rgb(26,58,40)" transform="translate(0,0)"></path>
<path d="M 1019.5 414.029 C 1035.64 417.169 1058.18 425.304 1074.51 430.013 C 1117.96 442.539 1161.31 458.401 1204.7 470.795 C 1206.99 473.391 1206.36 472.1 1206.35 476.549 C 1205.54 476.738 1203.53 477.072 1202.3 476.716 C 1141.37 459.068 1080.9 438.877 1020.13 420.477 C 1019.55 419.67 1019.07 419.008 1018.7 418.493 L 1019.5 414.029 z" fill="rgb(26,58,40)" transform="translate(0,0)"></path>
<path d="M 876.857 207.406 C 888.466 211.729 905.196 216.315 917.545 220.19 L 1012.97 249.531 L 1006.89 268.988 C 968.99 255.48 927.489 243.413 888.907 231.124 L 769.798 580.959 L 720.292 723.892 C 709.183 755.261 693.057 797.574 684.077 828.985 C 693.7 832.964 715.128 839.14 725.759 842.64 L 825.702 874.813 L 970.634 920.278 C 1012.38 933.865 1054.24 947.103 1096.21 959.99 C 1100.41 944.294 1107.25 925.395 1112.58 909.823 L 1147.48 810.431 L 1254.2 504.561 C 1262.68 480.191 1270.75 455.547 1279.54 431.281 C 1283.45 420.508 1298.27 379.843 1299.5 370.413 C 1295.18 366.08 1249.47 353.257 1239.68 350.266 C 1220.48 343.553 1198.7 337.717 1179 332.034 L 1184.94 312.859 C 1231.74 327.199 1280.77 341.223 1327.11 355.895 C 1318 378.924 1309.93 404.059 1301.88 427.475 L 1265.08 533.41 L 1164.92 819.836 L 1130.26 919.222 C 1123.23 939.556 1115.51 964.19 1107.43 983.817 C 1076.69 972.001 1029.62 959.124 996.587 948.587 C 908.671 921.11 820.963 892.975 733.47 864.184 C 708.893 855.957 684.497 848.778 660.097 839.846 C 666.678 819.157 675.694 795.365 683.08 774.761 L 717.138 678.383 C 747.921 590.649 776.326 502.483 806.364 414.645 L 856.687 266.68 C 863.251 247.157 870.896 227.007 876.857 207.406 z" fill="rgb(245,158,11)" transform="translate(0,0)"></path>
<path d="M 1096.05 234.296 C 1132.22 232.674 1151.96 262.828 1145.08 296.734 C 1153.86 300.064 1169.87 304.511 1179.31 307.56 C 1173.45 326.457 1168.1 345.512 1163.29 364.704 C 1141.86 357.356 1120.35 350.259 1098.75 343.415 C 1065.86 332.745 1032.89 322.318 999.838 312.136 C 1006.71 292.972 1013.46 271.352 1019.77 251.915 C 1031.59 255.743 1043.46 259.42 1055.38 262.945 C 1057.56 259.743 1059.8 256.584 1062.1 253.471 C 1071.21 241.384 1081.48 236.325 1096.05 234.296 z" fill="rgb(245,158,11)" transform="translate(0,0)"></path>
<path d="M 1099.36 252.309 C 1109.64 250.451 1119.55 257.075 1121.77 267.289 C 1123.98 277.502 1117.7 287.634 1107.57 290.2 C 1100.7 291.941 1093.42 289.793 1088.6 284.598 C 1083.77 279.403 1082.17 271.99 1084.41 265.263 C 1086.65 258.537 1092.38 253.57 1099.36 252.309 z" fill="rgb(26,58,40)" transform="translate(0,0)"></path>
<path d="M 1097.93 259.636 C 1104.46 256.931 1111.95 260.044 1114.64 266.583 C 1117.32 273.122 1114.19 280.6 1107.64 283.268 C 1101.12 285.926 1093.68 282.806 1091 276.294 C 1088.33 269.781 1091.43 262.331 1097.93 259.636 z" fill="rgb(13,150,104)" transform="translate(0,0)"></path>
<path d="M 1573.84 396.572 C 1591.8 383.419 1607.64 374.54 1631.27 378.056 C 1649.48 380.588 1665.84 390.498 1676.52 405.459 C 1704.26 443.959 1681.82 491.036 1633.94 494.214 C 1626.25 513.195 1618.41 524.948 1597.57 530.871 C 1599.03 543.539 1600.77 556.173 1602.8 568.762 C 1640.46 574.742 1667.18 587.704 1689.36 619.52 C 1714.4 655.431 1732.64 703.423 1747.84 744.587 C 1750.9 754.566 1755.54 764.661 1756.94 774.977 C 1757.25 776.243 1755.59 786.123 1756.38 786.361 C 1773.69 791.589 1796.54 803.148 1813.46 807.556 C 1854.71 818.303 1864.66 831.465 1858.69 874.826 C 1854.68 903.894 1831.37 899.787 1809.32 904.641 C 1825.41 922.51 1827.65 966.051 1808.84 982.444 C 1808.46 982.777 1808.07 983.105 1807.68 983.428 C 1803.65 984.237 1799.62 985.097 1795.54 985.653 C 1798.64 989.331 1801.24 993.068 1803.19 997.488 C 1810.12 1013.17 1811.72 1036.72 1805.06 1052.91 C 1802.11 1060.09 1797.23 1065.56 1790 1068.54 C 1786.14 1070.14 1466.33 1108.79 1463.27 1108.38 C 1447.23 1106.25 1422.27 1094.52 1406.51 1088.98 C 1371.43 1076.99 1336.53 1064.47 1301.82 1051.43 C 1288.18 1046.33 1274.27 1041.26 1260.73 1035.9 C 1257.11 1034.46 1255.05 1034.06 1253.89 1031.1 C 1257.86 1026.11 1265.01 1029.85 1272.77 1025.89 C 1275.23 1022.61 1274.08 984.145 1274.08 977.074 C 1274.06 974.096 1274.48 969.211 1272.95 967.063 C 1268.84 965.321 1259.09 961.735 1256.76 958.771 C 1258.96 953.761 1275.3 955.462 1278.85 953.27 C 1290.17 946.266 1292.59 944.204 1305.61 940.99 L 1305.95 882.08 C 1302.15 880.681 1292.86 877.978 1291.01 875.139 C 1292.84 866.312 1309.59 871.406 1316.47 871.497 C 1318.6 871.525 1319.17 864.218 1321.47 863.96 C 1325.71 862.576 1327.88 864.395 1331.16 862.068 C 1331.64 858.075 1330.98 857.283 1333.34 855.005 C 1338.17 854.27 1339.19 854.958 1342.23 852.233 C 1344.26 844.539 1343.02 811.406 1343.88 800.075 C 1339.42 798.493 1328.63 795.569 1326.74 791.704 C 1330.47 785.793 1386.4 778.414 1396.78 777.671 C 1397.36 758.989 1404.23 739.636 1412.46 723.031 C 1394.07 705.319 1374.88 688.597 1356.21 671.211 C 1347.93 663.502 1325.43 630.561 1329 620.323 C 1335.46 616.055 1361.18 629.608 1367.42 634.326 C 1389.07 650.704 1408.2 671.694 1428.82 689.313 C 1442.64 657.374 1456.07 628.279 1477.48 600.409 C 1494.94 577.68 1510.07 573.555 1537.08 568.982 C 1536.74 566.296 1536.45 561.133 1534.92 559.311 C 1527.97 556.725 1521.21 554.862 1515.49 550.102 C 1493.96 532.155 1494.59 503.908 1495.35 478.58 C 1458.33 446.748 1481.71 398.968 1515 411.479 C 1533.32 392.875 1548.72 389.546 1573.84 396.572 z" fill="rgb(26,58,40)" transform="translate(0,0)"></path>
<path d="M 1283.05 958.862 L 1295.05 955.365 C 1336.66 970.915 1380.4 985.353 1422.21 1000.88 C 1433.61 1005.12 1477.53 1021.5 1486.42 1021.95 C 1503.69 1022.82 1542.55 1016.59 1561.61 1014.2 L 1703.53 997.367 C 1714.04 996.122 1782.93 986.655 1789.15 989.286 C 1803.04 1005.68 1807.89 1046 1790.62 1060.82 C 1777.16 1064.94 1746.25 1067.43 1730.94 1069.19 L 1630.56 1081.06 L 1534.3 1092.86 C 1519.83 1094.72 1493.29 1098.95 1479.47 1099.36 L 1478.27 1098.43 L 1478.3 1095.95 C 1483.06 1085.41 1484.15 1045.89 1479.14 1034.08 C 1477.82 1030.96 1473.27 1028.29 1470.22 1027.05 C 1458.63 1022.35 1446.45 1018.43 1434.69 1013.98 C 1401.3 1001.4 1367.75 989.243 1334.05 977.509 C 1317.65 971.631 1298.8 965.727 1283.05 958.862 z" fill="rgb(13,150,104)" transform="translate(0,0)"></path>
<path d="M 1336.13 868.338 C 1347.51 874.992 1508.72 934.405 1514.53 934.918 C 1532.14 936.472 1572.94 929.096 1593.12 926.935 L 1801.82 904.708 C 1815.1 921.689 1824.79 974.587 1795.51 979.675 C 1770.91 980.583 1729.81 987.312 1703.54 990.19 C 1662.73 994.792 1621.97 999.69 1581.24 1004.89 C 1554.74 1008.16 1526.01 1011.09 1499.84 1015.48 C 1505.83 989.129 1505.82 968.679 1500.13 942.039 C 1478.24 927.677 1327.15 878.197 1324.77 873.701 L 1325.86 871.572 C 1329.5 869.278 1331.9 869.104 1336.13 868.338 z" fill="rgb(245,158,11)" transform="translate(0,0)"></path>
<path d="M 1516.33 853.692 C 1526.9 855.325 1571.29 848.968 1584.96 847.421 C 1601.59 845.538 1621.19 843.886 1637.98 842.064 L 1742.16 830.201 C 1764.85 827.681 1789.76 825.727 1813.02 822.665 C 1850.15 817.776 1854.32 835.519 1852.04 869.814 C 1851.51 877.662 1847.6 885.19 1842.15 891.276 C 1830.22 895.372 1811.29 896.557 1798.38 897.917 L 1744.24 903.725 L 1521.44 928.141 C 1524.41 910.36 1527.56 870.444 1516.43 854.935 L 1516.33 853.692 z" fill="rgb(13,150,104)" transform="translate(0,0)"></path>
<path d="M 1627.93 581.697 C 1683.83 600.018 1709.55 663.679 1728.66 714.668 C 1705.26 727.414 1701.3 726.877 1675.1 729.961 C 1674.58 731.163 1674.07 732.37 1673.57 733.58 C 1654.86 724.712 1634.52 680.868 1631.75 661.096 C 1630.98 655.652 1632.24 642.586 1631.64 635.474 C 1629.51 633.276 1630.47 633.606 1628 633.552 C 1623.78 637.678 1624.35 651.713 1624.47 657.813 C 1627.38 681.849 1636.98 701.35 1650.69 720.864 C 1649.68 730.382 1649.88 747.886 1651.22 757.19 C 1623.86 756.509 1610.73 757.649 1584.8 765.447 C 1576.39 762.522 1565.06 759.94 1555.76 756.945 C 1559.03 731.386 1558.27 701.977 1566.26 677.373 C 1572.77 657.347 1591.02 634.783 1603.39 617.66 C 1611.95 605.933 1620.13 593.939 1627.93 581.697 z" fill="rgb(13,150,104)" transform="translate(0,0)"></path>
<path d="M 1515.14 579.869 L 1517.18 580.515 C 1519.64 584.557 1527.61 612.687 1529.77 619.489 C 1534.75 635.046 1540.36 650.394 1546.6 665.492 C 1537.66 685.848 1534.21 726.332 1532.16 749.308 C 1519.16 747.099 1503.86 746.423 1490.73 748.001 C 1484.36 741.753 1477.42 735.459 1470.86 729.352 C 1472.37 701.441 1470.53 662.419 1486.81 638.256 C 1489.93 636.618 1489.27 637.194 1493.5 637.972 C 1497.77 638.824 1505.28 641.128 1508.48 638.11 C 1505.85 633.918 1494.05 630.508 1489.34 629.669 C 1480.97 628.173 1476.92 641.582 1474.61 647.418 C 1464.82 672.146 1464.99 696.656 1463.92 722.83 C 1453.5 711.142 1446.75 704.589 1434.71 694.57 C 1436.79 689.367 1438.93 684.185 1441.11 679.025 C 1452.75 651.703 1476.66 604.602 1500.97 586.72 C 1504.56 584.082 1510.84 581.597 1515.14 579.869 z" fill="rgb(13,150,104)" transform="translate(0,0)"></path>
<path d="M 1503.03 474.076 C 1499.76 458.026 1508.8 443.011 1522.46 435.155 C 1545.25 444.02 1559.27 467.031 1580.95 478.913 C 1589.4 483.541 1596.22 480.335 1600.04 487.728 C 1603.51 494.424 1600.32 502.397 1595.85 507.668 L 1593.98 508.309 C 1592.23 504.554 1595.84 498.252 1594.2 494.037 C 1591.09 496.53 1587.58 507.288 1587.78 509.598 C 1589.27 526.643 1594.43 558.789 1598.34 574.713 C 1586.33 595.798 1574.21 616.816 1561.98 637.766 C 1554.69 615.733 1547.33 593.872 1543.11 571.017 C 1542.37 567.017 1541.74 562.966 1540.72 559.027 C 1551.8 556.892 1581.87 549.001 1581.83 535.146 L 1580.75 532.737 L 1578.75 532.051 C 1575.03 534.144 1574.73 536.858 1571.4 539.882 C 1561.36 548.687 1546.39 554.838 1532.99 551.464 C 1522.13 548.732 1515.67 540.616 1509.9 531.675 C 1503.13 521.176 1498.44 489.819 1502.83 477.774 C 1510.43 476.331 1517.87 477.558 1523.02 475.998 L 1523.15 474.915 C 1515.6 470.878 1510.91 470.305 1503.03 474.076 z" fill="rgb(242,233,216)" transform="translate(0,0)"></path>
<path d="M 1549.56 516.634 L 1551.41 518.535 C 1551.77 520.504 1552.45 522.983 1550.87 524.566 C 1541.45 534 1530.97 532.286 1521.78 525.842 C 1520.39 522.957 1519.81 522.303 1520.05 519.155 C 1524.57 517.065 1532.92 533.822 1549.56 516.634 z" fill="rgb(26,58,40)" transform="translate(0,0)"></path>
<path d="M 1554.16 482.315 C 1563.39 484.966 1563.1 492.573 1557.14 498.662 C 1547.62 494.619 1549.12 489.611 1554.16 482.315 z" fill="rgb(26,58,40)" transform="translate(0,0)"></path>
<path d="M 1552.92 469.128 C 1557.62 468.809 1563.7 468.364 1565.55 473.8 C 1562.92 475.187 1555.27 474.028 1551.04 474.041 C 1549.91 474.513 1548.78 474.967 1547.64 475.404 C 1544.49 476.583 1543.7 476.829 1541.11 475.629 L 1541.96 473.612 C 1545.37 470.563 1548.43 470.22 1552.92 469.128 z" fill="rgb(26,58,40)" transform="translate(0,0)"></path>
<path d="M 1531.29 483.698 L 1533.32 485.2 C 1536.71 493.549 1529.96 496.995 1529.56 504.334 C 1531.2 506.773 1532.11 508.018 1532.49 511.015 C 1528.24 510.675 1528.6 510.752 1526.03 508.435 C 1524.46 503.922 1529.51 490.078 1531.29 483.698 z" fill="rgb(26,58,40)" transform="translate(0,0)"></path>
<path d="M 1511.97 484.275 L 1515.46 485.151 C 1520.62 489.935 1519.76 492.68 1516.41 498.529 C 1511.98 498.199 1511.05 497.218 1509.33 493.54 C 1509.17 489.675 1510.35 487.788 1511.97 484.275 z" fill="rgb(26,58,40)" transform="translate(0,0)"></path>
<path d="M 1280.21 971.803 C 1331.48 992.978 1386.88 1008.46 1438.73 1028.56 C 1448.68 1032.42 1458.92 1036.88 1469.1 1039.85 C 1472.39 1057.59 1472.12 1075.8 1468.33 1093.43 L 1467.21 1093.57 C 1453.84 1087.08 1424.76 1078.5 1409.3 1073.04 C 1366.07 1057.97 1323 1042.44 1280.1 1026.46 C 1280.35 1008.24 1280.39 990.023 1280.21 971.803 z" fill="rgb(242,233,216)" transform="translate(0,0)"></path>
<path d="M 1397.5 784.431 C 1402.51 783.582 1408.94 788.366 1414.66 789.088 C 1436.45 791.841 1457.33 790.32 1477.98 783.593 C 1497.16 801.032 1530.72 829.805 1557.79 834.135 C 1572.6 836.904 1589.72 822.985 1602.66 821.765 C 1654.34 816.891 1708.07 827.378 1752.23 792.367 C 1772.84 799.892 1793.94 807.345 1814.21 815.649 C 1805.88 817.079 1798.29 817.687 1789.89 818.277 C 1760.31 820.998 1732.06 824.725 1702.68 827.993 L 1596.77 839.279 C 1573.53 841.868 1541.56 847.086 1518.24 846.632 C 1514.03 846.55 1490.55 837.687 1485.41 835.821 C 1465.74 828.566 1446.02 821.453 1426.24 814.483 C 1414.76 810.534 1364.18 794.391 1356.35 789.902 C 1370.03 787.839 1383.75 786.015 1397.5 784.431 z" fill="rgb(245,158,11)" transform="translate(0,0)"></path>
<path d="M 1312.05 885.265 C 1326.11 891.61 1343.35 896.431 1357.96 902.085 C 1377.92 909.811 1397.94 917.335 1417.99 924.829 C 1415.13 938.688 1408.8 956.747 1404.23 970.403 C 1412.71 965.785 1421.13 961.063 1429.5 956.239 C 1434.7 964.664 1439.41 973.129 1445.94 980.546 C 1449.73 969.438 1454.03 951.278 1457.3 939.402 C 1465.47 943.947 1481.3 950.848 1490.28 955.059 C 1493.03 956.464 1494.6 958.154 1494.83 961.383 C 1495.89 976.359 1495.68 994.071 1493.56 1008.83 C 1471.74 1001.93 1449.23 992.699 1427.7 984.818 L 1311.09 942.233 C 1310.92 923.238 1311.25 904.243 1312.05 885.265 z" fill="rgb(242,233,216)" transform="translate(0,0)"></path>
<path d="M 1349.78 802.324 C 1370.57 811.917 1397.88 820.388 1419.82 828.463 C 1416.06 837.838 1411.99 847.06 1408.16 856.395 C 1406.44 860.584 1403.24 865.709 1406.4 869.431 C 1412.61 870.694 1430.17 862.357 1436.97 859.545 L 1437.72 860.936 C 1440.62 866.311 1446.92 880.024 1451.94 881.527 C 1457.79 877.211 1456.41 852.68 1461.99 845.268 C 1466.29 843.629 1502.47 858.284 1510.85 860.993 C 1516.47 875.465 1515.89 904.812 1514.12 919.983 C 1502.19 914.075 1470.46 902.687 1457.12 897.584 C 1420.91 883.593 1384.62 869.792 1348.26 856.183 C 1349.36 839.018 1348.04 818.763 1349.78 802.324 z" fill="rgb(242,233,216)" transform="translate(0,0)"></path>
<path d="M 1693.17 763.801 C 1710.89 763.311 1732.39 763.39 1748.16 772.922 C 1752.92 775.8 1747.03 787.368 1743.41 790.083 C 1712.72 813.101 1669.77 812.747 1632.99 813.967 C 1623.22 814.241 1606.87 813.071 1599.53 815.247 L 1598.78 815.464 C 1577.03 821.919 1570.35 836.344 1544.57 824.63 L 1543.79 822.976 C 1545.08 821.919 1546.38 820.874 1547.68 819.841 L 1548.03 815.745 C 1545.09 813.206 1541.77 811.861 1538.26 810.19 C 1527.48 801.959 1526.4 807.181 1520.73 803.939 C 1523.54 799.953 1525.43 803.654 1528.63 799.222 C 1528.94 798.327 1528.52 794.137 1529.57 794.101 C 1537.57 793.828 1548.91 799.714 1556.89 798.583 C 1573.53 796.225 1590.36 796.951 1606.79 795.968 C 1629.11 794.631 1654.16 787.058 1674.25 777.496 C 1683.7 772.842 1686.09 768.571 1693.17 763.801 z" fill="rgb(242,233,216)" transform="translate(0,0)"></path>
<path d="M 1368.73 643.663 C 1375.33 647.864 1390.48 663.742 1397.51 669.813 C 1441.31 707.663 1481.63 750.479 1524.44 789.138 C 1521.41 792.777 1515.71 799.097 1515.04 803.659 C 1514.84 805.08 1515.27 804.949 1514.03 806.356 C 1487.23 784.368 1451.74 748.993 1424.89 724.61 L 1380.4 684.354 C 1373.67 678.281 1360.71 667.302 1355.46 660.692 C 1359.75 652.415 1362.23 649.913 1368.73 643.663 z" fill="rgb(245,158,11)" transform="translate(0,0)"></path>
<path d="M 1413.45 737.673 C 1438.09 738.713 1455.24 762.093 1473.2 778.306 L 1459.24 781.311 C 1438.38 784.315 1423.09 785.454 1403.14 778.506 C 1404.03 766.615 1408.71 748.438 1413.45 737.673 z" fill="rgb(242,233,216)" transform="translate(0,0)"></path>
<path d="M 1605.27 577.516 C 1609.92 577.977 1615.5 578.904 1620.2 579.551 C 1602.44 606.996 1580.75 634.607 1564.48 662.59 C 1553.3 681.809 1550.38 728.201 1549.85 751.029 L 1549.16 752.989 C 1546.51 753.948 1541.61 752.149 1538.56 751.328 C 1542.13 729.212 1541.99 709.363 1547.65 686.509 C 1553.83 661.601 1562.77 650.122 1575.5 628.608 C 1584.87 612.778 1594.9 592.382 1605.27 577.516 z" fill="rgb(13,150,104)" transform="translate(0,0)"></path>
<path d="M 1496.89 753.948 C 1514.08 753.815 1530.24 755.013 1546.65 760.306 C 1550.56 761.568 1573.68 767.145 1575.6 769.232 L 1571.54 770.609 L 1571.86 772.119 L 1578.65 775.709 L 1579.6 776.876 C 1573.89 775.977 1567.9 773.498 1562.86 773.863 L 1561.99 775.011 C 1565.94 779.075 1576.68 780.085 1581.27 783.417 C 1573.3 785.196 1567.66 779.332 1561.59 781.771 L 1561.06 783.218 C 1563.79 785.966 1574.69 788.11 1579.07 789.23 C 1535.96 801.51 1525.8 780.839 1496.89 753.948 z" fill="rgb(242,233,216)" transform="translate(0,0)"></path>
<path d="M 1584.09 771.153 C 1614.5 764.392 1647.05 760.282 1677.99 767.226 C 1659.34 777.886 1605.91 793.933 1586.51 789.244 L 1585.46 787.823 C 1585.89 786.094 1586.35 785.006 1585.58 783.279 C 1588.95 776.247 1587.88 777.495 1584.09 771.153 z" fill="rgb(245,158,11)" transform="translate(0,0)"></path>
<path d="M 1731.16 721.834 C 1732.57 724.151 1734.38 728.417 1735.59 731.043 C 1717.64 736.126 1705.28 738.452 1687.7 742.625 C 1687.02 745.344 1687.59 745.148 1689.09 748.168 C 1706.54 746.302 1721.43 743.452 1737.9 736.969 C 1740.73 745.406 1743.83 755.351 1746.97 763.616 C 1730.22 758.136 1715.86 755.636 1698.08 756.519 L 1688.89 749.277 L 1674.35 736.076 C 1697.26 736.486 1711.07 731.746 1731.16 721.834 z" fill="rgb(13,150,104)" transform="translate(0,0)"></path>
<path d="M 1535.36 575.123 L 1536.14 575.239 C 1538.2 577.406 1538.28 581.625 1538.81 584.814 C 1542.25 605.685 1550.86 624.773 1556.37 645.083 C 1554.82 649.069 1553.52 651.881 1551.61 655.716 L 1550.01 656.228 C 1544.41 639.92 1527.89 593.526 1526.4 579.14 C 1528.01 576.92 1532.44 576.052 1535.36 575.123 z" fill="rgb(13,150,104)" transform="translate(0,0)"></path>
<path d="M 1425.78 830.735 L 1454.37 841.364 C 1452.52 850.412 1450.85 859.496 1449.36 868.611 L 1443 856.601 C 1442.35 855.614 1441.14 854.101 1440.39 853.104 C 1435.1 851.316 1419.57 859.488 1413.42 862.108 L 1425.78 830.735 z" fill="rgb(13,150,104)" transform="translate(0,0)"></path>
<path d="M 1423.99 927.181 C 1433.24 931.038 1441.12 934.206 1450.59 937.423 C 1449.42 942.474 1446.12 961.819 1442.08 963.432 L 1440.14 960.756 C 1437.84 956.766 1435.1 952.686 1432.59 948.796 C 1426.39 951.419 1421.45 953.852 1415.46 956.903 C 1418.54 946.345 1421.42 938.207 1423.99 927.181 z" fill="rgb(245,158,11)" transform="translate(0,0)"></path>
<path d="M 1473.04 1097.66 C 1472.14 1099.92 1471.74 1100.39 1470.31 1102.4 C 1464.85 1104.36 1443.38 1095.31 1436.47 1092.87 C 1401.68 1080.74 1367 1068.29 1332.43 1055.52 C 1318.57 1050.41 1284.72 1037.19 1271.74 1033.62 L 1271.17 1032.5 C 1280.04 1030.11 1443.26 1094.42 1465.43 1099.48 C 1469.6 1100.43 1469.68 1101.05 1472.27 1097.34 L 1473.04 1097.66 z" fill="rgb(13,150,104)" transform="translate(0,0)"></path>
<path d="M 1299.76 948.412 C 1300.36 948.336 1300.97 948.26 1301.57 948.184 C 1303.55 947.802 1305.61 947.757 1307.56 948.438 C 1327.33 955.32 1346.85 962.912 1366.54 970.024 C 1407.89 984.746 1449.15 999.715 1490.31 1014.93 C 1479.2 1015.65 1434.7 997.92 1420.85 992.96 L 1340.72 964.173 C 1334.47 961.939 1302.2 951.488 1299.76 948.412 z" fill="rgb(215,210,76)" transform="translate(0,0)"></path>
<path d="M 1340.6 860.234 C 1347.12 861.953 1360.07 867.362 1366.68 869.953 C 1381.09 875.65 1395.54 881.224 1410.04 886.674 L 1481.3 913.68 C 1491.75 917.643 1507.56 922.838 1517.03 927.648 L 1517.2 929.193 C 1502.14 924.755 1342.56 864.929 1339.7 862.054 L 1340.6 860.234 z" fill="rgb(189,224,117)" transform="translate(0,0)"></path>
<path d="M 1657 728.43 C 1658.25 729.174 1684.96 755.565 1687.47 758.3 L 1687.31 760.903 C 1686.44 761.29 1685.41 761.751 1684.21 762.287 C 1674.1 760.077 1667.2 757.833 1656.94 757.38 L 1657 728.43 z" fill="rgb(242,233,216)" transform="translate(0,0)"></path>
<path d="M 1288.2 969.675 C 1285.05 968.518 1282.01 967.915 1280.23 965.293 L 1281.34 964.536 C 1324.7 980.77 1368.27 996.434 1412.04 1011.53 C 1426.56 1016.66 1441.01 1021.98 1455.39 1027.49 C 1460.26 1029.33 1472.07 1032.7 1474.7 1036.7 C 1473.81 1036.82 1474.17 1036.94 1473.57 1036.51 C 1452.44 1027.54 1427.84 1019.64 1406.02 1011.85 L 1288.2 969.675 z" fill="rgb(13,150,104)" transform="translate(0,0)"></path>
<path d="M 1335.59 626.418 C 1348.59 629.803 1352.49 632.322 1363.98 639.228 C 1361.39 641.274 1359.35 643.319 1356.99 645.617 C 1354.84 648.536 1352.6 652.058 1350.57 655.109 C 1343.68 644.633 1340.46 637.913 1335.59 626.418 z" fill="rgb(242,233,216)" transform="translate(0,0)"></path>
<path d="M 1388.34 808.558 C 1430.66 821.662 1474.4 839.119 1516.33 853.692 L 1516.43 854.935 C 1501.12 851.203 1487.19 845.273 1472.31 840.528 C 1443.91 831.466 1415.99 819.428 1387.74 810.27 L 1388.34 808.558 z" fill="rgb(189,224,117)" transform="translate(0,0)"></path>
<path d="M 1373.96 899.444 C 1388.77 904.738 1488.7 940.558 1493 947.572 L 1492.1 948.112 C 1451.58 931.096 1413.26 916.38 1372.12 900.762 L 1373.96 899.444 z" fill="rgb(189,224,117)" transform="translate(0,0)"></path>
<path d="M 1372.12 900.762 C 1364.28 898.724 1321.49 883.046 1316 879.379 C 1317.29 879.171 1368.07 897.372 1373.96 899.444 L 1372.12 900.762 z" fill="rgb(121,168,114)" transform="translate(0,0)"></path>
<path d="M 1387.74 810.27 C 1373.46 805.014 1356.15 799.312 1342.33 793.813 L 1342.61 793.422 C 1360.13 798.247 1371.52 802.149 1388.34 808.558 L 1387.74 810.27 z" fill="rgb(13,150,104)" transform="translate(0,0)"></path>
<path d="M 1548.03 815.745 L 1547.68 819.841 C 1542.58 818.357 1537.72 820.231 1533.19 816.964 C 1537.36 816.986 1544.65 817.568 1548.03 815.745 z" fill="rgb(226,222,198)" transform="translate(0,0)"></path>
<path d="M 589.558 111.016 C 591.231 111.355 591.241 111.618 592.689 112.661 C 596.144 118.66 605.568 147.065 608.322 154.907 C 619.541 186.472 630.539 218.114 641.315 249.832 L 666.074 322.171 C 669.005 330.857 676.196 350.637 677.417 358.753 C 674.377 364.155 667.381 363.896 661.856 365.926 C 641.38 373.45 620.274 379.239 599.526 385.933 L 399.248 449.842 C 372.405 458.495 331.827 469.827 307.26 480.023 C 302.613 471.73 294.776 446.749 290.963 436.02 C 279.553 404.761 268.43 373.399 257.594 341.938 C 248.783 317.586 239.817 293.292 230.695 269.055 C 226.107 256.725 220.096 241.825 216.594 229.525 C 260.423 216.311 305.12 201.223 348.949 187.3 L 476.721 147.415 C 514.256 135.045 551.869 122.912 589.558 111.016 z" fill="rgb(26,58,40)" transform="translate(0,0)"></path>
<path d="M 586.022 120.1 C 591.364 123.378 660.202 331.458 669.696 356.344 C 662.033 359.268 653.397 361.525 645.516 364.04 C 538.432 398.208 430.799 431.042 324.138 466.468 C 295.16 389.022 268.69 308.398 239.985 230.429 L 586.022 120.1 z" fill="rgb(13,150,104)" transform="translate(0,0)"></path>
<path d="M 572.28 141.973 C 575.575 142.243 574.399 141.77 576.922 143.558 C 579.857 148.821 593.347 189.939 596.57 199.149 C 607.224 229.61 617.709 260.13 628.025 290.707 C 632.122 302.576 645.29 335.047 645.642 344.821 C 631.318 350.673 608.719 356.685 593.172 361.624 C 559.081 372.736 524.913 383.613 490.672 394.253 C 441.552 409.681 388.673 429.623 339.602 442.859 C 338.736 442.365 335.299 440.341 334.91 439.32 C 314.05 384.582 296.528 328.419 276.38 273.337 C 274.49 268.17 264.461 243.798 265.222 240.265 C 276.067 235.358 287.941 232.123 299.346 228.456 C 322.125 221.144 344.975 214.053 367.892 207.184 C 436.285 186.285 504.42 164.546 572.28 141.973 z" fill="rgb(26,58,40)" transform="translate(0,0)"></path>
<path d="M 569.628 151.151 L 571.356 151.352 C 574.362 154.998 631.23 322.155 637.162 340.329 C 538.596 370.848 440.289 402.195 342.25 434.365 C 339.085 432.153 333.795 414.263 332.061 409.444 C 325.061 390.284 318.327 371.028 311.861 351.681 C 299.867 316.655 285.226 278.395 274.171 243.562 C 298.232 237.177 321.591 229.001 345.371 221.794 C 420.283 198.757 495.037 175.209 569.628 151.151 z" fill="rgb(242,233,216)" transform="translate(0,0)"></path>
<path d="M 407.245 256.016 C 415.438 255.431 489.714 268.475 501.186 274.116 C 502.735 274.877 506.008 279.875 505.602 282.129 C 503.702 292.682 479.907 312.557 471.856 321.563 C 464.349 329.049 457.657 338.087 449.46 344.767 C 445.378 348.092 440.818 350.508 435.383 349.825 C 431.761 349.37 428.223 347.475 426.007 344.539 C 421.621 338.732 399.012 271.554 399.977 265.224 C 400.69 260.541 403.66 258.549 407.245 256.016 z" fill="rgb(26,58,40)" transform="translate(0,0)"></path>
<path d="M 408.216 262.786 C 409.37 262.772 410.525 262.815 411.675 262.915 C 423.528 264.014 492.698 276.288 497.977 282.502 C 496.541 287.901 473.146 310.417 467.66 315.988 C 460.128 323.308 446.165 341.459 436.905 343.584 C 430.243 341.208 426.957 328.241 424.832 321.861 C 419.015 304.389 411.644 287.22 406.963 269.436 C 406.27 266.803 407.33 265.193 408.216 262.786 z" fill="rgb(245,158,11)" transform="translate(0,0)"></path>
<path d="M 225.798 233.979 C 228.826 233.823 229.522 233.751 232.457 234.435 C 236.006 241.488 240.16 254.642 242.942 262.463 L 263.309 320.35 C 276.456 355.958 289.275 391.687 301.765 427.53 C 304.294 434.926 315.007 463.75 314.742 469.583 L 312.358 469.797 C 311.009 468.876 235.45 257.302 225.798 233.979 z" fill="rgb(13,150,104)" transform="translate(0,0)"></path>
<metadata><recraft-signature>{"signed_by": "recraft", "signature_b64": "iYnWyDcQ6UgzmR1YjCYuW1PorNjil/zt/frmH/kRuTQ0FVLKz5ATmHuzhBFcUZ5NNYnRpL7e+I2tWFPxQQcyBA==", "signing_algo": "Ed25519", "generation_timestamp": 1780389654, "identifier": "6c471598-11bf-42d6-80eb-c87fb2f7d31f"}</recraft-signature></metadata></svg>