<svg xmlns="http://www.w3.org/2000/svg" height="1365" preserveAspectRatio="none" style="display: block;" version="1.1" viewBox="0 0 1536 2048" width="1024">
<defs>
	<linearGradient gradientUnits="userSpaceOnUse" id="Gradient1" x1="749.463" x2="743.653" y1="955.2" y2="956.373">
		<stop class="stop0" offset="0" stop-color="rgb(18,96,76)" stop-opacity="1"></stop>
		<stop class="stop1" offset="1" stop-color="rgb(21,168,125)" stop-opacity="1"></stop>
	</linearGradient>
	<linearGradient gradientUnits="userSpaceOnUse" id="Gradient2" x1="684.815" x2="680.088" y1="1038.31" y2="1039.47">
		<stop class="stop0" offset="0" stop-color="rgb(15,94,69)" stop-opacity="1"></stop>
		<stop class="stop1" offset="1" stop-color="rgb(13,157,113)" stop-opacity="1"></stop>
	</linearGradient>
</defs>
<path d="M 0 0 L 1536 0 L 1536 2048 L 0 2048 L 0 0 z" fill="rgb(246,243,231)" transform="translate(0,0)"></path>
<path d="M 1028.46 356.583 C 1032.44 357.405 1036.92 358.463 1040.37 360.627 C 1080.08 385.515 1120 411.014 1159.07 436.884 L 1361.56 570.237 C 1370.17 575.877 1382.13 580.468 1389.39 585.846 C 1407.87 599.55 1417.39 628.878 1420.38 650.839 C 1427.06 702.044 1413.38 753.827 1382.28 795.051 C 1373.72 788.167 1363.34 781.205 1354.14 775.113 C 1326.92 757.092 1300.3 737.148 1272.75 719.721 C 1263.27 740.696 1248.63 787.024 1241.72 810.014 C 1205.6 930.09 1182.62 1053.73 1173.18 1178.77 C 1136.43 1156 1099.98 1132.73 1063.86 1108.97 C 1029.55 1086.61 991.096 1061.58 957.586 1038.02 C 945.273 1056.95 934.088 1073.29 913.194 1084.11 C 905.895 1087.89 898.312 1089.44 891.072 1093.69 C 890.917 1094.23 890.057 1097.1 889.778 1097.28 C 835.393 1131.76 751.088 1165.55 690.307 1178.58 C 687.223 1186.87 681.423 1197.63 677.435 1206.01 C 668.671 1224.66 659.748 1243.24 650.668 1261.74 C 646.906 1260.05 643.069 1257.99 639.382 1256.1 C 636.097 1264.31 635.549 1272.41 631.774 1281.09 C 655.762 1329.44 672.517 1382.92 692.657 1432.96 L 703.232 1468.72 C 722.856 1533.01 714.536 1588.22 701.543 1652.8 C 693.306 1694.09 683.81 1735.12 673.068 1775.83 C 668.308 1794.4 659.1 1835.18 648.834 1849.82 C 644.821 1850.08 631.193 1850.37 629.239 1852.49 C 629.672 1861.28 636.959 1879.04 639.377 1888.57 C 658.955 1865.9 677.007 1842.41 697.259 1820.11 C 769.126 1741.01 857.971 1675.49 963.696 1651.24 C 965.41 1638.82 971.513 1616.71 975.17 1603.87 C 1004.67 1500.34 1067.6 1398.55 1153.73 1332.69 C 1226.23 1277.25 1318.25 1242.64 1410.57 1253.7 C 1418.45 1254.64 1435.73 1257.74 1442.86 1260.23 C 1498.27 1400.36 1486.26 1558.24 1429.96 1696.3 C 1420.93 1718.45 1408.33 1739.98 1397.1 1761.12 C 1443.71 1813.36 1479.46 1878.13 1481.89 1949.59 C 1481.96 1951.64 1481.47 1953.69 1480.22 1955.32 C 1464.94 1957.14 1436.81 1956.81 1421.11 1956.85 C 1389.95 1956.99 1358.79 1956.92 1327.63 1956.66 L 1106.89 1956.41 L 349.175 1956.93 L 174.115 1956.89 C 149.91 1957.01 125.704 1956.94 101.5 1956.7 C 93.3391 1956.67 64.891 1958.15 59.458 1954.33 L 59.2683 1952.38 C 61.3144 1950.21 61.6835 1949.79 65.0001 1949.83 C 117.625 1950.55 170.47 1949.1 223.06 1949.81 C 216.645 1945.08 209.772 1940.42 205.668 1933.39 C 201.401 1926.09 173.827 1837.85 172.37 1828 C 171.579 1822.65 170.538 1813.67 174.121 1809.2 C 182.591 1798.61 201.934 1793.45 213.7 1786.9 C 222.494 1781.9 230.994 1776.4 239.16 1770.43 C 245.819 1765.62 247.894 1765.87 242.769 1758.98 C 242.979 1756.33 243.744 1755.02 245.531 1752.93 C 302.73 1686.09 362.932 1621.39 418.06 1552.92 C 419.247 1551.44 417.225 1546.99 416.49 1545.47 C 413.781 1533.96 411.287 1522.4 409.012 1510.79 C 408.222 1503.95 405.453 1491.58 404.124 1484.31 C 401.622 1470.47 399.523 1456.56 397.829 1442.6 C 387.733 1363.51 391.978 1283.24 410.362 1205.66 C 413.436 1192.85 417.044 1179.55 421.124 1167.02 C 425.059 1154.93 430.067 1143.06 433.218 1130.73 C 432.526 1129.07 431.785 1127.36 431.327 1125.6 C 429.494 1118.61 464.781 1056.46 470.029 1047.03 C 503.19 987.468 562.218 903.532 620.45 867.764 C 635.114 858.757 651.174 852.811 667.65 848.086 C 669.477 843.605 673.061 837.877 675.581 833.569 C 664.754 839.016 653.049 843.389 640.81 843.728 C 627.864 844.063 615.322 839.205 605.98 830.236 C 596.316 821.004 590.746 808.29 590.511 794.928 C 589.411 744.05 649.974 737.307 680.454 767.539 C 680.675 766.909 680.902 766.282 681.136 765.657 C 709.276 690.3 809.609 723.384 826.258 787.988 C 829.389 800.137 823.01 807.308 812.448 811.271 C 804.07 839.432 789.024 867.596 759.084 876.618 C 752.796 878.513 749.888 879.994 743.351 878.465 L 743.227 879.257 C 767.553 912.119 781.65 941.804 799.607 978.085 C 809.395 997.861 821.563 1025.21 835.106 1042.31 C 853.931 1034.22 860.984 1026.3 884.379 1025.95 C 893.918 1016.22 897.231 1014.06 908.765 1007.58 C 888.043 993.971 867.641 979.886 847.573 965.334 C 839.986 959.865 829.079 952.776 822.799 946.394 C 825.999 934.108 828.008 917.328 829.895 904.614 C 850.669 764.806 880.02 623.537 933.538 492.276 C 949.469 453.203 983.271 368.124 1028.46 356.583 z" fill="rgb(26,58,40)" transform="translate(0,0)"></path>
<path d="M 828.932 944.192 C 832.789 932.559 836.558 901.597 838.686 887.477 C 842.749 861.189 847.19 834.96 852.009 808.8 C 875.855 678.784 912.977 537.028 974.745 418.694 C 983.441 402.034 1013.39 356.511 1035.06 365.43 C 1040.33 367.596 1059.02 379.977 1064.79 383.659 L 1121.36 420.169 L 1311.31 544.699 C 1327.52 555.18 1344.55 567.246 1360.62 577.136 C 1350.92 580.81 1342.96 585.656 1335.4 592.797 C 1247.67 675.742 1171.09 1041.58 1167.7 1167.35 L 1148.84 1155.92 C 1148.95 1139.88 1151.71 1119.56 1153.28 1103.27 C 1162.52 1007.26 1183.36 916.123 1206.19 822.764 C 1203.4 826.65 1203.55 827.763 1199.57 829.462 L 1197.47 829.07 C 1182.85 887.654 1169.45 947.268 1159.37 1006.83 C 1151.29 1054.52 1146.57 1103.86 1142.05 1151.96 C 1125.31 1140.37 1107.92 1129.96 1091.03 1118.72 C 1047.99 1090.09 1003.09 1062.02 960.614 1032.68 C 963.69 1025.64 983.852 969.241 985.141 968.225 C 986.813 964.782 985.155 965.373 988.685 960.842 C 988.303 958.648 989.011 950.093 989.185 947.34 C 983.333 947.188 983.21 946.62 978.575 950.036 L 977.974 950.484 C 973.857 947.049 972.25 935.543 966.947 930.01 C 964.378 929.444 962.591 929.431 961.018 927.435 C 961.157 924.566 964.033 919.977 965.507 917.213 C 954.633 900.113 947.584 907.241 961.995 890.471 C 967.141 884.482 951.024 875.79 954.82 867.553 C 957.616 867.03 958.742 866.768 961.432 865.864 C 964.348 862.243 965.792 856.089 967.228 851.454 L 965.527 848.405 C 963.6 844.959 962.911 844.473 962.825 840.645 C 965.762 837.757 969.467 840.627 973.635 839.037 C 983.416 835.305 977.159 817.214 986.966 814.886 L 989.219 816.453 L 989.917 816.714 C 996.932 819.264 1001.09 818.371 1005.86 812.441 L 1006.11 809.605 L 1005.08 809.236 C 1001.78 811.428 998.77 818.429 995.077 815.893 C 988 811.033 983.245 806.856 976.905 817.386 C 974.933 820.661 979.758 826.207 975.032 830.444 C 971.258 832.776 970.309 830.995 965.016 829.891 C 959.562 831.886 957.462 837.982 954.625 843.348 C 957.473 847.767 959.613 851.316 959.754 856.619 C 957.576 860.142 955.468 859.851 950.664 861.594 C 948.263 864.274 947.606 871.248 946.913 875.225 C 963.322 889.565 951.284 886.055 948.22 900.925 C 947.311 905.337 954.424 913.129 957.863 916.553 C 951.866 931.632 954.643 927.741 963.52 936.259 C 967.093 939.688 970.177 955.105 975.88 957.872 C 978.253 957.291 977.63 957.122 979.834 957.481 C 977.089 963.641 944.43 996.491 938.484 1002.32 C 927.993 1001.78 925.341 1002.11 915.212 1005.15 C 888.095 984.907 854.203 964.211 828.932 944.192 z" fill="rgb(245,158,11)" transform="translate(0,0)"></path>
<path d="M 989.219 816.453 C 1000.89 828.081 1003.23 812.195 1011.65 807.755 C 1017.46 808.484 1018.36 811.313 1021.06 816.043 C 1027.23 818.02 1032.36 820.786 1037.88 818.056 L 1040.53 814.808 C 1043.06 814.941 1050.37 819.054 1050.29 821.643 C 1050.07 828.145 1054.7 832.518 1058.51 837.263 C 1063.17 836.755 1066.99 835.767 1071.11 837.656 C 1077.28 844.439 1073.01 855.08 1079.34 863.185 C 1084.11 869.294 1094.33 870.351 1095.81 878.168 C 1094.55 883.426 1093.06 882.858 1090.79 886.797 L 1091.35 902.822 C 1095.02 905.818 1097.94 907.613 1099.9 911.863 C 1100.73 921.189 1092.03 922.813 1091.26 931.503 C 1091.14 932.839 1090.56 935.797 1090.35 937.274 C 1092.05 939.547 1099.33 949.374 1094.83 951.4 C 1082.33 957.034 1082.05 952.663 1074.71 965.241 C 1076.34 969.084 1077.94 971.784 1077.68 975.882 C 1072.81 984.225 1062.46 972.292 1053.47 979.037 C 1053.69 984.744 1054.29 984.913 1051.56 989.182 C 1044.67 991.356 1043.99 978.861 1028 982.342 C 1025.81 984.981 1025.68 985.884 1024.45 989.18 L 1022.93 990.033 C 1019.02 987.867 1016.9 980.121 1012.2 976.85 C 1002.87 970.364 994.867 982.966 989.622 964.408 C 989.291 963.224 988.978 962.036 988.685 960.842 C 988.303 958.648 989.011 950.093 989.185 947.34 C 983.333 947.188 983.21 946.62 978.575 950.036 L 977.974 950.484 C 973.857 947.049 972.25 935.543 966.947 930.01 C 964.378 929.444 962.591 929.431 961.018 927.435 C 961.157 924.566 964.033 919.977 965.507 917.213 C 954.633 900.113 947.584 907.241 961.995 890.471 C 967.141 884.482 951.024 875.79 954.82 867.553 C 957.616 867.03 958.742 866.768 961.432 865.864 C 964.348 862.243 965.792 856.089 967.228 851.454 L 965.527 848.405 C 963.6 844.959 962.911 844.473 962.825 840.645 C 965.762 837.757 969.467 840.627 973.635 839.037 C 983.416 835.305 977.159 817.214 986.966 814.886 L 989.219 816.453 z" fill="rgb(13,150,104)" transform="translate(0,0)"></path>
<path d="M 1006.56 832.213 C 1040.74 829.119 1063.89 846.203 1075.48 878.147 C 1087.86 912.274 1083.39 952.131 1045.09 965.377 C 974.487 980.37 940.321 853.833 1006.56 832.213 z" fill="rgb(1,2,2)" transform="translate(0,0)"></path>
<path d="M 1018.85 838.362 C 1077.99 841.855 1100.63 948.956 1036.74 959.653 C 968.016 955.224 955.658 843.301 1018.85 838.362 z" fill="rgb(245,158,11)" transform="translate(0,0)"></path>
<path d="M 996.993 874.378 C 999.915 873.921 1007.15 873.962 1010.39 873.912 C 1012.46 883.711 1015.48 894.179 1017.73 904.268 C 1023.43 900.966 1057.78 879.313 1061.92 881.197 C 1064.48 887.097 1067.52 896.072 1065.99 902.613 C 1065 906.874 1057.95 909.95 1054.04 912.112 C 1041.35 919.936 1018.03 933.645 1004.76 939.653 C 1001.37 930.317 986.947 884.542 987.489 876.755 C 990.253 874.545 993.311 874.742 996.993 874.378 z" fill="rgb(1,2,2)" transform="translate(0,0)"></path>
<path d="M 1000.86 879.954 L 1003.89 880.34 C 1007.46 884.195 1012.32 906.809 1014.4 913.745 C 1029.6 904.997 1044.87 896.367 1060.2 887.854 C 1061.66 898.398 1062.89 899.565 1053.68 905.125 C 1038.47 913.541 1023.35 922.124 1008.34 930.873 C 1004.68 920.493 996.495 893.168 994.667 882.745 C 996.78 880.232 996.859 880.934 1000.86 879.954 z" fill="rgb(13,150,104)" transform="translate(0,0)"></path>
<path d="M 975.032 830.444 C 975.104 822.578 974.173 816.978 979.486 810.289 C 987.795 805.984 989.721 814.681 998.725 813.19 C 1004.66 809.315 1003.09 804.247 1008.44 800.788 C 1021.88 799.035 1021.63 809.745 1030.01 812.527 C 1034.68 811.715 1034.86 810.413 1037.35 806.494 C 1040.49 807.767 1047.7 810.391 1049.81 812.63 C 1056.08 819.282 1054.91 833.201 1067.29 827.536 C 1072.09 827.957 1073.85 831.237 1076.91 834.401 C 1083.12 839.451 1078.97 847.582 1081.28 852.249 C 1087.18 864.177 1102.62 865.735 1102.17 882.166 C 1102.11 884.574 1098.33 886.231 1096.73 888.997 C 1097 905.401 1103.92 898.841 1106.4 912.926 C 1109.01 927.705 1088.37 929.308 1102.29 943.155 C 1102.69 943.545 1103.09 943.927 1103.5 944.301 C 1099.69 953.742 1099.32 961.544 1087.98 960.688 C 1083.76 963 1082.43 966.445 1084.28 971.978 C 1086.33 978.132 1079.66 984.914 1074.01 986.117 C 1069.1 986.06 1067.79 982.752 1061.18 983.969 C 1058.18 986.706 1056.41 997.799 1049.58 996.598 C 1040.65 995.029 1039.23 978.739 1028.59 994.767 C 1016.5 999.197 1012.26 983.298 1008.96 982.802 C 999.067 981.313 988.729 980.969 985.141 968.225 C 986.813 964.782 985.155 965.373 988.685 960.842 C 988.978 962.036 989.291 963.224 989.622 964.408 C 994.867 982.966 1002.87 970.364 1012.2 976.85 C 1016.9 980.121 1019.02 987.867 1022.93 990.033 L 1024.45 989.18 C 1025.68 985.884 1025.81 984.981 1028 982.342 C 1043.99 978.861 1044.67 991.356 1051.56 989.182 C 1054.29 984.913 1053.69 984.744 1053.47 979.037 C 1062.46 972.292 1072.81 984.225 1077.68 975.882 C 1077.94 971.784 1076.34 969.084 1074.71 965.241 C 1082.05 952.663 1082.33 957.034 1094.83 951.4 C 1099.33 949.374 1092.05 939.547 1090.35 937.274 C 1090.56 935.797 1091.14 932.839 1091.26 931.503 C 1092.03 922.813 1100.73 921.189 1099.9 911.863 C 1097.94 907.613 1095.02 905.818 1091.35 902.822 L 1090.79 886.797 C 1093.06 882.858 1094.55 883.426 1095.81 878.168 C 1094.33 870.351 1084.11 869.294 1079.34 863.185 C 1073.01 855.08 1077.28 844.439 1071.11 837.656 C 1066.99 835.767 1063.17 836.755 1058.51 837.263 C 1054.7 832.518 1050.07 828.145 1050.29 821.643 C 1050.37 819.054 1043.06 814.941 1040.53 814.808 L 1037.88 818.056 C 1032.36 820.786 1027.23 818.02 1021.06 816.043 C 1018.36 811.313 1017.46 808.484 1011.65 807.755 C 1003.23 812.195 1000.89 828.081 989.219 816.453 L 989.917 816.714 C 996.932 819.264 1001.09 818.371 1005.86 812.441 L 1006.11 809.605 L 1005.08 809.236 C 1001.78 811.428 998.77 818.429 995.077 815.893 C 988 811.033 983.245 806.856 976.905 817.386 C 974.933 820.661 979.758 826.207 975.032 830.444 z" fill="rgb(1,2,2)" transform="translate(0,0)"></path>
<path d="M 1197.47 829.07 C 1212.16 763.807 1256.49 640.951 1295.34 587.392 C 1299.22 582.045 1303.43 575.48 1308.53 571.267 C 1310.42 569.701 1311.43 569.101 1313.86 569.374 L 1315.03 571.078 C 1314.49 576.919 1299.18 593.275 1293.75 601.825 C 1286.2 613.736 1279.3 626.046 1273.08 638.701 C 1253.02 679.29 1236.73 723.753 1222.52 766.733 C 1216.51 784.925 1212.05 804.496 1206.19 822.764 C 1203.4 826.65 1203.55 827.763 1199.57 829.462 L 1197.47 829.07 z" fill="rgb(1,2,2)" transform="translate(0,0)"></path>
<path d="M 968.951 559.622 C 977.162 563.416 992.521 574.263 1000.9 579.799 L 1058.61 617.94 L 1143.21 673.597 C 1159.24 684.092 1180.61 697.376 1195.56 708.759 C 1191.19 719.682 1183.27 738.504 1177.8 748.671 C 1172.89 747.011 1129.23 716.84 1120.84 711.263 C 1064.12 674.175 1007.76 636.536 951.776 598.352 C 953.918 590.517 964.089 565.68 968.951 559.622 z" fill="rgb(26,58,40)" transform="translate(0,0)"></path>
<path d="M 970.908 568.324 C 974.78 570.335 977.976 572.676 981.561 575.106 C 1049.38 621.064 1119.65 664.617 1187.22 710.845 C 1183.36 719.924 1179.58 729.365 1174.97 738.062 L 1174.28 738.354 C 1170.54 737.783 977.84 607.808 959.144 595.81 L 970.908 568.324 z" fill="rgb(13,150,104)" transform="translate(0,0)"></path>
<path d="M 996.377 489.309 C 1007.48 493.929 1033.72 513.216 1045.26 520.573 C 1086.32 546.558 1127.04 573.078 1167.41 600.126 C 1183.01 610.505 1211.19 628.077 1224.66 638.977 C 1219.46 649.955 1213.56 668.312 1207.69 677.687 C 1198.38 673.985 1176.31 658.536 1167 652.363 C 1140.86 635.118 1114.82 617.719 1088.89 600.167 L 1021.87 555.87 C 1008.69 547.305 990.262 536.127 978.396 526.946 C 983.665 514.928 990.537 500.99 996.377 489.309 z" fill="rgb(26,58,40)" transform="translate(0,0)"></path>
<path d="M 998.944 498.304 C 1006.66 501.22 1031.38 519.362 1039.96 524.814 C 1076.53 548.047 1112.82 571.716 1148.83 595.815 C 1170.79 610.435 1193.88 626.553 1216.14 640.327 C 1212.38 650.786 1209.54 658.692 1204.75 668.661 C 1200.07 666.649 1163.57 641.587 1157.15 637.364 C 1123.05 615.168 1089.11 592.73 1055.33 570.051 C 1035.73 556.951 1006.42 536.383 986.564 525.683 C 990.207 516.906 994.967 507.051 998.944 498.304 z" fill="rgb(13,150,104)" transform="translate(0,0)"></path>
<path d="M 1072.27 426.322 C 1077.48 426.651 1082.15 427.095 1086.69 429.963 C 1110.02 444.693 1133.01 462.097 1155.69 477.935 L 1208.89 515.374 C 1217.61 521.514 1233.01 531.649 1240.06 538.243 C 1245.89 554.005 1246.16 570.128 1226.17 573.533 C 1213.86 569.756 1198.98 557.656 1187.98 550.086 C 1166.88 535.594 1145.88 520.975 1124.96 506.228 L 1085.59 479.275 C 1078.93 474.712 1067.64 467.412 1062.06 462.274 C 1058.6 459.119 1056.24 454.953 1055.29 450.372 C 1054.13 445.086 1055.14 439.556 1058.08 435.017 C 1061.98 428.992 1065.82 427.522 1072.27 426.322 z" fill="rgb(1,2,2)" transform="translate(0,0)"></path>
<path d="M 1070.48 433.071 C 1071.12 433.07 1071.77 433.081 1072.41 433.104 C 1085.18 433.604 1111.07 454.828 1122.67 463.081 L 1179.3 502.873 C 1190.72 510.989 1226.86 534.638 1234.99 543.234 C 1237.21 554.533 1239.89 561.303 1227.88 566.582 C 1224.88 566.188 1222.6 565.272 1220.02 563.683 C 1203.1 553.233 1068.97 460.682 1064.61 454.941 C 1062.21 451.79 1061.38 447.142 1062.28 443.331 C 1063.4 438.548 1066.46 435.591 1070.48 433.071 z" fill="rgb(245,158,11)" transform="translate(0,0)"></path>
<path d="M 936.472 636.367 C 938.302 636.641 940.669 637.445 942.225 638.49 C 992.528 672.284 1042.18 707.328 1092.63 740.659 C 1093.48 741.216 1092.08 744.502 1091.8 745.458 C 1082.01 744.359 953.345 653.662 936.431 643.055 C 934.844 639.583 935.215 640.938 936.472 636.367 z" fill="rgb(1,2,2)" transform="translate(0,0)"></path>
<path d="M 924.639 682.569 C 928.672 684.548 949.076 699.18 954.58 703.062 C 973.936 716.717 999.117 731.194 1017.41 745.635 C 1018.24 749.07 1017.8 748.249 1015.94 752.328 C 997.282 740.796 978.052 726.362 959.43 714.319 C 953.561 710.524 925.737 691.902 922.143 688.099 C 921.886 685.004 922.103 685.866 924.639 682.569 z" fill="rgb(1,2,2)" transform="translate(0,0)"></path>
<path d="M 1049.99 1802.53 C 1110.45 1801.49 1171.1 1802.7 1230.66 1813.99 C 1243.99 1828.34 1261.57 1844.04 1275.3 1858.13 C 1282.32 1865.33 1320.13 1904.39 1327.6 1905.81 C 1328.99 1896.42 1305.14 1876.78 1298.47 1870.14 C 1280.29 1852.05 1261.38 1834.72 1243.73 1816.06 C 1330.43 1835.31 1385.05 1853.4 1465.04 1891.51 C 1471.57 1908.89 1473.6 1931.42 1475.18 1949.66 C 1397.75 1950.84 1319.09 1949.3 1241.5 1949.57 L 722.475 1949.97 C 734.011 1922.26 705.997 1920.73 686.703 1912.94 C 675.134 1908.27 663.426 1904.69 651.768 1899.77 C 777.678 1837.11 909.885 1807.98 1049.99 1802.53 z" fill="rgb(13,150,104)" transform="translate(0,0)"></path>
<path d="M 1080.55 1642.44 C 1140.75 1641.29 1200.55 1652.52 1256.23 1675.43 C 1331.61 1706.99 1394.41 1752.63 1435.57 1824.54 C 1446.47 1843.59 1454.32 1862.41 1462.61 1882.62 C 1362.22 1832.99 1232.94 1797.12 1120.56 1795.91 C 1148.34 1780.71 1212.39 1755.27 1241.69 1738.35 C 1242.66 1737.79 1242.12 1736.33 1241.91 1734.91 L 1239.88 1733.71 C 1231.56 1733.9 1123.81 1785.61 1109.16 1795.04 C 1065.11 1794.62 1021.08 1796.56 977.242 1800.85 C 930.478 1804.95 897.137 1811.81 851.826 1821.15 C 865.495 1809.5 879.767 1799.28 893.988 1788.35 L 949.894 1745.02 C 955.798 1740.51 978.662 1727.56 975.78 1720.7 C 965.352 1719.36 885.724 1787.62 870.91 1796.7 C 867.749 1798.64 851.11 1812.87 847.186 1816.09 C 834.328 1826.63 830.279 1825.77 814.739 1829.9 C 774.874 1840.5 735.453 1854.69 697.405 1870.54 C 687.217 1874.79 652.983 1893.86 644.675 1893.48 C 644.616 1890.38 708.83 1818.78 717.15 1809.92 C 789.8 1732.61 882.79 1673.02 987.818 1651.88 C 1018.41 1645.72 1049.42 1643.4 1080.55 1642.44 z" fill="rgb(13,150,104)" transform="translate(0,0)"></path>
<path d="M 578.758 1518.31 L 585.132 1528.31 C 584.505 1562.38 580.832 1602.98 577.798 1636.97 L 558.81 1833.35 C 558.497 1836.95 558.108 1840.88 559.538 1844.17 C 562.228 1846.72 565.059 1846.81 568.806 1847.58 C 560.998 1885.12 555.338 1912.98 558.184 1950.81 L 294.98 1950 C 295.398 1942.43 296.331 1935.12 290.246 1929.33 C 272.803 1912.74 251.875 1913.01 254.326 1882.91 C 257.221 1847.37 266.569 1831.88 293.837 1810.67 L 304.412 1818.93 C 369.193 1777.77 485.879 1695.36 526.586 1630.31 C 537.192 1613.37 543.856 1594.15 548.202 1574.71 C 551.991 1557.76 554.772 1540.76 557.47 1523.62 C 564.946 1521.53 571.119 1519.92 578.758 1518.31 z" fill="rgb(246,243,231)" transform="translate(0,0)"></path>
<path d="M 1465.95 1395.06 C 1468.06 1394.63 1467.06 1394.59 1468.99 1395.44 C 1470.89 1403.75 1471.02 1423.12 1471.33 1432.17 C 1473.44 1493.05 1466.27 1560.8 1449 1619.57 C 1413.54 1628.47 1377.95 1636.85 1342.25 1644.71 C 1314.47 1650.86 1279.99 1657.34 1253.47 1666.22 C 1238.27 1660.52 1222.84 1655.46 1207.21 1651.06 C 1200.75 1649.15 1191.88 1647.16 1185.2 1645.48 C 1202.7 1584.17 1228.56 1525.57 1262.06 1471.33 C 1272.36 1467.94 1283.14 1463.76 1293.3 1459.88 C 1350.87 1437.91 1407.64 1415.14 1465.95 1395.06 z" fill="rgb(13,150,104)" transform="translate(0,0)"></path>
<path d="M 1343.43 1260.38 C 1347.36 1259.65 1352.73 1259.95 1356.85 1260 C 1350.25 1281.24 1343.96 1302.58 1337.97 1324 C 1334.07 1338.19 1329.43 1358.08 1324.03 1371.5 C 1322.39 1375.59 1308.08 1392.31 1304.54 1396.65 C 1296.19 1406.67 1288.34 1417.1 1281.02 1427.91 C 1235.53 1495.14 1198.86 1565.44 1177.95 1644.17 C 1165.21 1641.21 1151.23 1639.65 1138.24 1638.28 C 1134.29 1637.99 1134.47 1638.62 1131.71 1636.7 C 1128.99 1622.49 1127.93 1588.13 1126.43 1571.54 C 1120.42 1504.89 1118.68 1439.54 1119.71 1372.63 C 1177.94 1313.48 1260.52 1269.72 1343.43 1260.38 z" fill="rgb(13,150,104)" transform="translate(0,0)"></path>
<path d="M 1110.71 1380.69 C 1113.85 1390.32 1110.82 1452.95 1112.38 1469.26 C 1117.64 1524.14 1117.51 1582.81 1124.88 1637.4 C 1086.92 1631.65 1022.94 1638.25 986.223 1645.33 C 981.242 1646.44 976.267 1647.59 971.299 1648.76 C 981.544 1588.63 1015 1510.37 1048.38 1459.59 C 1066.98 1431.64 1087.83 1405.25 1110.71 1380.69 z" fill="rgb(13,150,104)" transform="translate(0,0)"></path>
<path d="M 1363.5 584.26 C 1393.72 582.049 1407.69 620.406 1412.49 644.066 C 1423.31 697.42 1407.4 740.923 1381.5 786.448 C 1372.01 779.279 1361.16 771.921 1351.39 764.999 C 1326.09 747.613 1300.62 730.494 1274.96 713.645 C 1285.11 686.888 1297.38 660.988 1311.66 636.194 C 1323.5 616.006 1339.96 590.387 1363.5 584.26 z" fill="rgb(13,150,104)" transform="translate(0,0)"></path>
<path d="M 1440.07 1272.87 C 1448.45 1279.17 1465.39 1369.46 1468.62 1386.86 C 1411.95 1404.18 1347.53 1432.11 1291.2 1452.99 L 1267.15 1462.32 C 1276 1446.43 1286.19 1433.2 1296.99 1418.65 C 1337.23 1363.26 1385.44 1314.13 1440.07 1272.87 z" fill="rgb(13,150,104)" transform="translate(0,0)"></path>
<path d="M 1439.57 1629.22 C 1442.71 1628.68 1443.18 1628.43 1446.19 1629.15 C 1447.03 1632.75 1442.32 1644.78 1440.86 1648.8 C 1428.2 1683.56 1411.67 1723.71 1392.15 1755.13 C 1368.42 1732.33 1352.12 1719.19 1324.51 1702.14 C 1301.32 1687.18 1285.93 1682.12 1264.09 1670.11 C 1280.89 1666.91 1299.48 1661.64 1316.37 1657.89 C 1357.19 1648.84 1398.79 1637.76 1439.57 1629.22 z" fill="rgb(13,150,104)" transform="translate(0,0)"></path>
<path d="M 237.552 1779.94 C 247.659 1796.69 257.866 1808.23 269.451 1823.6 C 262.58 1831.15 259.887 1834.73 255.683 1844.01 C 252.266 1840.89 250.46 1839.15 246.486 1836.6 C 243.731 1837.83 244.665 1837.18 243.049 1840.51 C 244.127 1847.63 255.496 1845.85 252.947 1856 C 249.098 1858.42 242.246 1853.44 235.601 1853.25 C 233.615 1855.52 233.633 1855.71 232.772 1858.68 C 235.919 1865.81 245.728 1861.24 250.187 1865.39 L 250.064 1866.8 C 244.942 1870.05 232.99 1867.68 230.549 1872.43 C 236.21 1880.54 244.503 1874.05 248.3 1879.18 C 246.319 1888.84 237.736 1878.45 229.489 1884.82 L 229.237 1887.08 C 232.295 1891.99 232.627 1890.65 238.179 1894.2 C 241.203 1891.12 243.461 1888.89 248.042 1889.76 C 249.533 1891.83 249.119 1893.89 247.893 1896.19 C 241.975 1896.41 242.162 1897.34 237.829 1894.78 C 233.805 1897.83 234.752 1896.34 233.163 1900.42 L 233.59 1902.52 C 240.221 1905.97 244.393 1901.84 249.568 1897.93 C 250.378 1903.42 251.562 1904.96 254.336 1909.59 C 250.77 1912.74 245.432 1917.36 242.525 1921.24 C 241.078 1923.17 241.958 1925.04 239.684 1927.45 C 236.669 1926.59 234.808 1924.75 232.839 1922.36 C 228.288 1916.86 224.868 1910.17 222.174 1903.6 C 215.96 1888.43 195.992 1821.93 197.88 1808.27 C 198.026 1807.22 198.419 1805.58 198.933 1804.67 C 200.846 1801.25 218.12 1793.21 222.612 1790.54 C 227.864 1787.42 232.716 1783.66 237.552 1779.94 z" fill="rgb(13,150,104)" transform="translate(0,0)"></path>
<path d="M 572.627 1865.5 C 582.872 1868.24 598.623 1869.18 609.211 1868.84 C 614.425 1868.67 621.397 1866.7 624.95 1867.51 C 627.664 1870.49 633.226 1887.84 634.918 1892.69 C 632.731 1895.91 631.642 1897.39 630.124 1901.04 C 630.539 1905.59 630.165 1903.92 633.435 1908.33 C 635.37 1901.53 636.855 1898.82 642.132 1893.59 C 640.704 1898.41 639.577 1903.75 636.537 1907.65 L 636.305 1912.32 C 637.963 1913.4 638.419 1914.15 640.013 1914.09 C 643.811 1908.65 643.913 1906.67 645.082 1900.02 C 647.168 1901.98 649.903 1904.22 652.113 1906.13 C 654.632 1914.62 656.922 1921.79 659.949 1930.11 C 629.659 1930.37 595.171 1928.07 564.63 1926.58 C 564.989 1904.42 568.033 1887.06 572.627 1865.5 z" fill="rgb(13,150,104)" transform="translate(0,0)"></path>
<path d="M 619.117 1874.47 C 622.758 1875 623.965 1875.29 626.345 1877.83 C 626.832 1881.31 626.935 1879.95 624.957 1883.49 C 620.911 1883.4 620.045 1883.38 617.377 1880.64 C 617.248 1876.59 616.965 1878.16 619.117 1874.47 z" fill="rgb(1,2,2)" transform="translate(0,0)"></path>
<path d="M 646.503 1906.66 C 649.154 1907.75 649.067 1907.67 651.184 1909.59 C 652.342 1913 650.666 1915.88 649.326 1919.49 C 647.167 1918.89 647.073 1918.36 645.663 1916.59 C 644.721 1912.53 645.528 1910.72 646.503 1906.66 z" fill="rgb(1,2,2)" transform="translate(0,0)"></path>
<path d="M 625.639 1889.51 C 628.344 1889.87 629.471 1889.74 631.43 1891.61 C 630.724 1895.05 630.349 1894.38 627.083 1897.33 L 624.558 1898.01 L 623.238 1896.59 C 623.305 1891.96 622.835 1893.8 625.639 1889.51 z" fill="rgb(1,2,2)" transform="translate(0,0)"></path>
<path d="M 726.042 802.991 C 745.855 808.447 724.548 820.223 753.906 821.159 C 774.692 821.821 785.488 819.497 805.133 812.556 C 803.352 820.94 800.306 829.004 796.1 836.471 C 785.61 855.202 772.176 866.583 751.186 872.224 C 746.903 873.375 745.453 871.713 742.122 869.612 C 736.473 864.441 728.535 853.107 723.72 850.828 L 723.101 852.498 C 725.093 861.554 729.69 865.713 735.565 872.651 L 731.268 882.38 C 724.078 876.055 704.556 859.491 703.267 850.591 C 705.602 848.483 707.247 849.001 710.94 848.636 C 713.506 847.123 715.414 841.745 717.906 838.285 C 720.387 838.1 720.326 838.199 722.573 837.201 C 722.78 829.62 701.075 816.35 726.042 802.991 z" fill="rgb(246,243,231)" transform="translate(0,0)"></path>
<path d="M 785.037 827.372 L 787.345 829.243 C 791.407 839.118 779.604 855.908 770.42 843.122 C 770.599 839.152 769.994 838.476 771.995 835.479 L 774.04 835.538 C 775.231 838.359 775.797 839.065 777.572 841.608 L 779.29 841.892 C 781.331 839.275 783.484 831.342 785.037 827.372 z" fill="rgb(1,2,2)" transform="translate(0,0)"></path>
<path d="M 726.195 809.34 C 728.557 809.328 728.93 809.671 731.098 810.554 C 735.848 816.325 733.215 820 729.109 825.106 C 724.123 825.158 723.709 824.75 721.575 820.547 C 721.443 814.956 722.368 813.384 726.195 809.34 z" fill="rgb(1,2,2)" transform="translate(0,0)"></path>
<path d="M 1365.4 1258.19 C 1389.23 1258.41 1413.69 1258.68 1436.6 1266.07 C 1431.39 1271.21 1419.38 1280.01 1412.85 1285.4 C 1397.66 1297.78 1383.04 1310.85 1369.03 1324.55 C 1357.16 1336.5 1345.64 1348.79 1334.48 1361.4 C 1342.17 1331.33 1355.03 1287.13 1365.4 1258.19 z" fill="rgb(13,150,104)" transform="translate(0,0)"></path>
<path d="M 962.556 1007.87 C 963.159 1009.66 962.351 1012.14 961.579 1013.86 C 942.296 1056.92 931.182 1069.19 889.599 1087.39 C 886.423 1072.17 884.419 1060.99 876.762 1047.26 C 876.373 1046.56 879.377 1043.65 880.134 1042.8 C 891.616 1025.83 907.323 1009.29 929.342 1009.1 L 930.014 1009.87 C 924.283 1018.93 908.976 1023.58 911.264 1035.36 C 919.907 1046.61 953.728 1014.54 962.556 1007.87 z" fill="rgb(246,243,231)" transform="translate(0,0)"></path>
<path d="M 619.936 924.125 C 623.208 931.06 626.076 938.999 627.29 946.564 C 628.273 957.62 633.704 968.891 637.571 979.322 C 639.83 985.416 655.541 1021.11 660.347 1022.66 C 660.636 1012.11 627.861 967.534 630.287 945.69 C 633.528 948.286 634.66 950.653 636.769 954.155 C 647.616 981.262 667.111 1020.73 672.243 1048.84 L 672.091 1051.78 L 670.674 1052.04 C 665.432 1047.5 661.952 1035.04 660.024 1028.38 L 653.617 1021.9 C 655.641 1031.81 657.901 1040.9 660.405 1050.71 C 662.916 1064.3 674.787 1095.94 681.37 1108.81 C 683.884 1113.72 693.296 1127.28 696.814 1133.13 C 683.345 1122.31 677.827 1117.95 672.01 1100.6 C 670.437 1095.91 668.23 1089.54 665.706 1085.33 L 664.465 1085.01 C 665.55 1090.3 670.412 1102.28 672.426 1108.55 C 657.812 1087.9 656.489 1079.67 646.882 1057.11 C 644.312 1051.08 635.699 1042.59 632.472 1035.64 C 625.494 1020.62 619.06 1001.23 612.042 986.665 L 611.384 985.318 C 610.226 977.937 611.321 974.18 612.725 966.88 C 615.449 972.339 617.821 977.575 620.307 983.148 L 623.559 991.766 C 628.314 1019.29 640.373 1036.77 653.641 1060.17 C 657.001 1066.1 659.503 1074.97 662.418 1081.41 C 656.761 1048.03 629.79 1024.99 626.835 995.356 C 628.964 997.406 630.154 1002.05 631.902 1004.56 C 638.842 1014.54 645.978 1023.96 650.362 1035.44 C 651.525 1038.48 653.355 1043.54 655.511 1045.74 C 656.482 1042.37 630.141 971.117 626.294 962.72 C 623.907 957.51 621.466 950.504 615.848 948.414 C 617.613 939.693 618.864 933 619.936 924.125 z" fill="rgb(13,150,104)" transform="translate(0,0)"></path>
<path d="M 524.993 973.798 C 529.004 981.617 529.687 992.033 532.967 998.529 C 543.16 1018.71 550.869 1039.6 558.961 1060.3 C 565.087 1075.97 582.63 1105.84 593.78 1118.83 C 588.306 1108 584.421 1099.26 581.896 1087.24 C 578.423 1070.7 567.907 1056.85 564.012 1040.37 C 561.406 1030.14 557.306 1019.09 553.506 1009.41 C 558.359 1016.65 568.58 1031.05 571.203 1038.42 C 572.446 1041.17 576.854 1051.47 578.349 1053.22 C 581.562 1061.27 598.787 1115.28 597.99 1121.35 C 595.9 1120.92 596.638 1121.06 594.773 1119.45 C 596.826 1130.92 615.549 1165.18 622.615 1175.7 C 623.387 1176.85 626.452 1187.47 627.016 1189.38 C 626.657 1181.99 626.147 1178.26 624.782 1170.97 C 627.685 1172.73 629.484 1173.57 631.726 1176.12 C 631.909 1178.59 631.881 1178.43 631.077 1180.79 C 628.521 1183.57 624.672 1195.13 622.949 1199.48 C 617.296 1174.31 611.306 1171.8 600.94 1150.67 C 593.867 1134.7 587.464 1118.25 578.29 1103.33 C 569.394 1088.87 557.346 1077.56 552.607 1060.93 C 550.318 1055.88 548.846 1047.59 546.359 1042.88 C 537.815 1026.71 527.984 1000.04 517.793 985.546 C 519.892 991.413 524.303 1005.01 527.003 1009.94 C 538.071 1030.13 544.565 1040.89 550.472 1063.18 C 535.309 1043.14 525.581 1015.21 512.082 992.474 C 515.592 987.629 517.059 985.599 519.665 980.25 C 521.477 978.13 523.253 975.979 524.993 973.798 z" fill="rgb(13,150,104)" transform="translate(0,0)"></path>
<path d="M 717.065 924.981 C 719.359 928.021 721.897 932.1 725.062 933.851 C 726.951 932.886 727.677 930.708 728.718 928.695 L 729.595 929.215 C 735.479 985.53 724.016 1042.3 696.74 1091.92 L 694.839 1086.39 C 697.338 1049.97 704.941 1015.29 710.516 979.196 C 713.563 959.466 716.714 945.238 717.065 924.981 z" fill="rgb(245,158,11)" transform="translate(0,0)"></path>
<path d="M 190.736 1805 C 190.66 1805.47 190.576 1805.95 190.507 1806.43 C 188.673 1819.16 211.049 1893.89 216.776 1908.27 C 219.099 1914.1 221.996 1919.63 225.807 1924.63 C 240.174 1943.52 263.427 1933.97 282.926 1937.27 C 286.698 1937.91 287.751 1939.31 289.902 1942.16 C 290.57 1949.51 285.64 1949.63 280.25 1949.77 C 245.68 1949.28 216.387 1955.05 204.617 1912.27 C 197.397 1886.02 187.211 1859.94 180.238 1833.69 C 176.081 1818.04 176.33 1812.42 190.736 1805 z" fill="rgb(245,158,11)" transform="translate(0,0)"></path>
<path d="M 529.624 1053.95 C 538.968 1077.33 549.184 1095.26 562.586 1116.17 C 570.571 1128.62 576.063 1147.7 584.037 1160.86 C 593.671 1183.91 596.658 1205.75 607.721 1229.68 L 606.403 1236.42 C 604.826 1235.97 602.117 1235.26 601.206 1233.92 C 589.36 1216.47 588.223 1185.6 579.01 1167.77 C 574.401 1158.85 557.322 1139.46 550.886 1132.15 C 555.386 1144.85 570.351 1158.35 576.573 1170.16 C 582.468 1181.34 586.201 1199.74 589.767 1212.55 C 582.359 1200.35 576.513 1178.5 568.369 1168.03 C 553.886 1149.41 543.948 1151.28 545.77 1123.3 C 540.496 1114.57 521.71 1083.53 522.389 1075.16 L 525.839 1070.21 C 533.403 1091.54 541.367 1102.01 553.525 1120.81 C 556.502 1125.41 561.235 1135.38 564.677 1138.74 C 566.972 1131.95 541.122 1097.36 536.519 1088.59 C 528.905 1074.1 528.118 1070.01 529.624 1053.95 z" fill="rgb(13,150,104)" transform="translate(0,0)"></path>
<path d="M 563.927 1932.52 C 580.788 1938.16 662.361 1936.71 682.99 1936.8 C 688.325 1936.82 716.086 1933.95 718.645 1934.9 L 719.429 1936.96 C 719.179 1941.27 718.212 1942.81 716.424 1946.62 C 709.742 1951.24 690.202 1949.35 681.333 1949.39 C 658.592 1949.58 635.85 1949.63 613.108 1949.53 C 600.245 1949.37 576.733 1948.24 565.163 1949.68 C 564.396 1943.34 564.106 1938.92 563.927 1932.52 z" fill="rgb(245,158,11)" transform="translate(0,0)"></path>
<path d="M 609.135 988.041 C 616.789 1004.76 623.717 1022.18 631.484 1038.84 C 634.937 1046.24 643.04 1055.58 646.343 1063.05 C 654.291 1081.04 656.181 1101.42 671.003 1115.96 C 698.321 1140.69 705.72 1141.25 734.122 1159.51 C 729.448 1160.82 721.315 1163.92 717.355 1162.86 C 710.375 1156.42 702.914 1152.81 695.362 1147.29 C 684.4 1139.27 678.26 1130.07 670.251 1120.37 C 671.249 1131.6 683.739 1138.32 689.857 1146.19 C 692.779 1150.03 709.104 1159.81 714.586 1163.67 C 712.474 1167.66 703.955 1168.53 699.898 1167 C 699.569 1166.34 690.297 1159.1 686.451 1154.02 C 668.227 1135.94 661.141 1128.68 654.691 1102.38 C 646.683 1069.72 625.906 1040.96 610.854 1010.83 C 606.992 1003.68 608.598 996.371 609.135 988.041 z" fill="rgb(13,150,104)" transform="translate(0,0)"></path>
<path d="M 647.329 875.415 C 655.89 885.519 656.052 894.807 661.426 906.586 C 663.181 910.433 670.363 916.802 671.269 919.063 C 681.965 945.756 695.763 972.207 694.945 1001.67 C 694.905 1003.11 694.128 1004.44 693.375 1005.42 C 689.644 988.299 676.266 931.241 666.388 921.155 C 661.994 927.552 673.412 937.28 674.773 943.024 C 680.412 966.806 688.484 991.938 692.618 1015.83 L 692.933 1016.68 C 693.17 1020.32 693.964 1027.37 693.038 1030.59 C 690.674 1027.28 686.514 1010.78 684.007 1005.95 C 681.182 1000.5 674.68 994.226 672.26 989.351 C 669.185 983.651 667.078 976.625 663.929 971.062 C 655.338 955.885 647.765 941.161 641.042 925.037 C 637.619 916.827 633.098 908.197 629.349 899.996 C 630.477 897.747 632.148 893.225 633.166 890.728 C 640.861 906.782 644.264 920.717 650.785 936.124 C 656.909 950.593 669.175 968.905 676.799 983.103 C 678.829 986.882 681.812 996.272 683.625 998.136 C 684.168 988.309 674.634 974.437 674.339 963.792 C 674.323 963.217 674.114 962.632 673.952 962.058 C 671.868 953.748 661.985 938.392 658.022 925.89 C 658.871 922.045 660.267 917.751 661.396 913.934 C 655.998 905.196 647.518 889.926 644.794 879.956 C 644.272 878.045 645.914 876.976 647.329 875.415 z" fill="rgb(13,150,104)" transform="translate(0,0)"></path>
<path d="M 609.772 1228.19 C 602.179 1217.2 594.169 1176.36 587.656 1162.25 C 584.48 1155.36 580.721 1148.65 577.486 1141.87 C 572.929 1133.71 569.431 1121.95 564.542 1114.37 C 554.865 1099.36 546.251 1086.04 539.219 1069.49 C 534.039 1057.3 531.315 1053.09 530.842 1039.71 C 536.921 1050.18 550.061 1082.55 554.437 1086.6 C 554.505 1080.44 548.08 1067.65 545.318 1061.53 C 551.551 1069.68 556.02 1076.7 558.678 1086.62 C 560.578 1091.67 561.391 1094.59 564.759 1098.82 L 565.999 1099.09 L 566.049 1093.5 L 567.307 1093.57 C 569.276 1095.8 571.578 1098.33 572.922 1100.99 C 574.793 1104.69 574.553 1112.49 577.443 1115.14 L 578.62 1113.44 C 589.631 1124.85 604.864 1174.48 610.055 1190.53 C 611.798 1195.92 615.095 1210.95 617.326 1214.93 C 615.213 1217.71 614.98 1219.09 612.172 1219.78 C 605.711 1197.46 603.8 1172.47 593.646 1151.63 C 590.413 1144.99 572.012 1113.24 566.477 1110.21 L 565.355 1110.59 C 566.103 1113.48 567.142 1112.91 567.86 1114.33 C 574.54 1127.62 581.571 1137.6 589.189 1150.04 C 600.403 1168.35 604.296 1201.86 610.992 1221.28 C 610.82 1224.52 610.935 1225.23 609.772 1228.19 z" fill="rgb(13,150,104)" transform="translate(0,0)"></path>
<path d="M 561.33 1195.35 C 557.355 1186.72 544.651 1170.07 542.236 1163.7 C 537.868 1152.16 511.512 1101.7 514.05 1095.07 L 515.783 1094.55 C 527.501 1110.13 532.567 1126.47 540.845 1143.38 C 547.05 1156.05 557.585 1168.15 562.344 1182.59 C 565.512 1192.19 563.935 1200.82 567.232 1210.16 C 569.468 1216.49 578.879 1225.94 578.613 1232.07 C 574.748 1230.63 573.903 1230.46 571.152 1227.46 C 565.507 1218.64 559.74 1209.3 554.986 1199.95 C 548.056 1186.31 538.276 1175.17 530.934 1161.84 C 521.858 1145.37 516.334 1127.27 508.102 1110.38 C 507.492 1109.12 508.998 1104.93 509.84 1103.56 L 511.113 1103.81 C 512.553 1106.65 514.094 1110.06 515.639 1112.76 C 529.26 1136.57 540.521 1176.72 561.33 1195.35 z" fill="rgb(13,150,104)" transform="translate(0,0)"></path>
<path d="M 609.369 1031.94 C 607.655 1026.39 606.253 1017.99 608.135 1012.37 C 610.442 1016.01 613.62 1020.73 615.652 1024.41 C 616.956 1026.91 618.283 1029.39 619.633 1031.87 C 632.327 1055.95 634.595 1073.32 641.279 1099.12 C 643.087 1106.1 645.647 1116.91 648.586 1123.09 C 650.651 1126.7 651.452 1128.32 654.366 1131.44 C 652.648 1125.23 650.552 1120.71 648.78 1114.8 C 643.805 1098.16 639.446 1081.34 635.711 1064.38 C 652.65 1092.21 650.777 1112.25 667.646 1138.64 C 673.089 1147.16 684.137 1156.65 691.573 1163.7 C 693.731 1165.75 697.369 1167.68 699.031 1169.65 C 695.009 1171.15 693.852 1171.7 689.973 1169.63 C 671.663 1156.31 668.502 1151.32 654.522 1134.41 C 650.48 1130.8 649.05 1128.45 645.966 1124.01 C 638.794 1112.87 633.965 1092.94 628.808 1080.29 C 622.209 1064.11 615.534 1048.31 609.369 1031.94 z" fill="rgb(13,150,104)" transform="translate(0,0)"></path>
<path d="M 617.743 1034.28 C 622.095 1043.5 630.06 1058.21 628.527 1068.26 C 623.818 1053.68 617.288 1039.57 611.937 1024.89 L 613.171 1025.41 C 615.056 1028.66 616.189 1030.86 617.743 1034.28 z" fill="rgb(26,58,40)" transform="translate(0,0)"></path>
<path d="M 543.377 949.848 C 552.291 971.72 566.943 991.035 578.783 1011.75 C 583.981 1020.84 593.788 1043.85 599.079 1050.01 C 602.545 1054.83 600.586 1068.52 601.226 1075.68 C 600.357 1075.54 586.702 1055.56 584.423 1052.53 C 580.892 1045.73 579.148 1040.51 576.61 1033.35 C 574.096 1030.29 572.049 1029.84 569.358 1025.51 C 563.924 1016.76 557.767 1008.27 551.778 999.89 C 547.954 990.716 531.657 967.913 537.321 958.029 L 537.912 958.483 C 541.081 964.376 545.967 981.197 549.267 985.243 C 568.941 1009.36 580.874 1036.77 596.297 1063.2 C 588.784 1030.82 553.222 992.857 539.476 955.929 L 543.377 949.848 z" fill="rgb(13,150,104)" transform="translate(0,0)"></path>
<path d="M 639.359 1178.14 C 646.529 1180.11 655.017 1180.83 662.45 1181.37 C 655.259 1197.86 640.604 1227.99 632.255 1243.62 L 630.74 1245.93 C 625.274 1246.27 617.778 1239.76 613.082 1236.31 C 624.103 1216.02 629.772 1195.58 639.359 1178.14 z" fill="rgb(245,158,11)" transform="translate(0,0)"></path>
<path d="M 783.837 1070.16 L 783.694 1068.36 C 786.006 1066.08 786.773 1066.28 790.197 1065.8 L 851.488 1111.73 C 847.498 1113.13 845.079 1114.24 840.783 1114.26 C 839.662 1112.31 820.711 1101.7 817.243 1099.61 C 806.352 1096.94 803.288 1092.16 793.981 1086.72 L 793.327 1086.35 C 806.36 1101.51 832.513 1109.16 841.238 1117.46 C 838.417 1118.78 829.073 1123.68 826.766 1123.19 C 822.479 1118.54 805.612 1105.61 799.825 1100.97 C 786.691 1090.44 782.359 1085.12 771.301 1072.38 C 775.865 1070.81 778.816 1068.74 782.934 1071.93 C 787.339 1076.31 791.424 1079.45 796.873 1082.53 C 800.774 1085.7 805.417 1089.88 810.015 1091.73 C 800.62 1080.71 795.792 1078.16 783.837 1070.16 z" fill="rgb(13,150,104)" transform="translate(0,0)"></path>
<path d="M 569.872 920.466 C 572.434 918.579 572.804 918.109 575.792 917.281 C 581.764 926.135 595.07 962.045 603.973 966.221 C 606.45 972.601 601.707 999.384 601.665 1010.09 C 591.576 993.624 579.502 974.447 573.741 956.021 C 570.276 950.185 556.568 937.743 558.345 932.076 L 559.712 931.642 C 565.833 933.933 569.09 945.758 574.214 953.228 L 574.91 954.229 C 583.421 964.736 588.791 983.394 596.559 992.006 L 597.754 991.62 C 594.4 975.761 561.371 936.418 566.318 923.749 L 567.953 923.388 C 584.883 941.499 583.034 963.709 600.909 977.693 L 601.39 977.087 L 569.872 920.466 z" fill="rgb(13,150,104)" transform="translate(0,0)"></path>
<path d="M 460.291 1080.07 C 471.044 1099.76 475.868 1115.38 485.066 1135.07 L 481.172 1142.65 C 477.382 1135.62 462.013 1094.3 460.126 1092.98 C 460.681 1101.61 474.332 1137.19 479.389 1144.7 C 477.249 1149.6 474.255 1155.44 472.544 1160.28 C 463.307 1148.1 454.795 1134.92 450.151 1120.21 C 449.077 1116.81 447.859 1113.21 445.321 1110.7 C 445.274 1108.45 446.375 1105.46 447.061 1103.19 C 448.193 1101.52 449.144 1100.4 450.423 1098.87 C 453.147 1104.74 453.055 1116.93 456.988 1121.19 C 460.083 1124.53 467.48 1141.26 469.307 1142.35 C 469.27 1133.35 459.337 1120.05 456.185 1111.42 C 454.574 1107.01 453.222 1099.75 452.255 1095.02 C 454.687 1088.9 456.785 1085.72 460.291 1080.07 z" fill="rgb(13,150,104)" transform="translate(0,0)"></path>
<path d="M 766.063 926.115 C 771.724 935.817 778.07 946.711 782.03 957.232 C 785.754 967.127 788.513 977.386 792.226 987.435 L 793.009 986.988 C 792.267 980.09 789.461 974.216 787.595 967.556 C 793.399 977.289 798.246 987.562 802.069 998.229 C 804.855 1005.8 807.48 1014.76 811.14 1021.78 C 814.514 1030.53 818.604 1037.99 823.609 1045.91 C 821.717 1046.93 820.513 1047.73 818.461 1048.36 C 813.692 1039.41 799.014 1003.98 791.386 1002.01 C 800.161 1015.33 807.548 1037.75 816.436 1048.65 C 812.585 1050.75 813.971 1050.66 810.043 1050.48 C 798.441 1035.52 789.89 1021.68 789.447 1001.88 C 787.859 995.049 784.186 986.4 782.172 979.441 C 777.118 961.976 770.522 943.663 766.063 926.115 z" fill="rgb(13,150,104)" transform="translate(0,0)"></path>
<path d="M 726.183 1089.4 L 726.698 1087.31 L 729.42 1085.89 C 732.133 1087.11 731.355 1086.85 733.348 1089.61 L 734.591 1087.08 C 740.191 1092.2 744.79 1097.66 750.78 1102.94 C 765.646 1116.07 782.288 1127.37 799.021 1137.98 C 792.547 1139.76 784.172 1142.89 777.902 1141.67 C 777.828 1141.58 767.821 1134.33 767.176 1133.94 C 756.106 1127.23 734.682 1105.68 723.068 1102.47 C 719.413 1101.4 714.1 1096.38 710.925 1093.72 C 715.337 1091.62 717.497 1089.2 722.408 1088.29 L 724.45 1089.83 C 731.469 1101.09 773.989 1132.6 786.52 1139.64 C 771.149 1123.33 743.882 1108.58 726.183 1089.4 z" fill="rgb(13,150,104)" transform="translate(0,0)"></path>
<path d="M 606.943 1081.08 C 610.286 1088.68 612.732 1094.11 615.14 1102.13 C 623.679 1131.43 634.099 1150.69 658.787 1170.35 L 661.321 1173.3 L 661.167 1174.73 C 658.757 1175.4 658.44 1175.08 656.033 1174.44 C 648.953 1167 639.252 1159.5 632.802 1152.28 C 626.967 1145.74 622.493 1136.41 615.72 1129.17 C 619.222 1138.9 626.223 1147.34 632.711 1155.35 C 628.052 1151.74 623.035 1147.67 618.246 1144.31 C 631.195 1159.81 637.004 1161.55 651.746 1174.1 C 645.488 1174.05 639.178 1171.73 633.222 1169.82 C 623.858 1158.77 614.636 1141.19 612.719 1126.83 C 608.832 1111.9 606.891 1096.52 606.943 1081.08 z" fill="rgb(13,150,104)" transform="translate(0,0)"></path>
<path d="M 478.575 1045.95 C 479.313 1073.68 487.977 1084.48 502.215 1107.74 C 499.404 1112.86 496.842 1117.59 494.301 1122.85 C 488.936 1120.74 456.679 1075.74 465.702 1070.64 C 475.873 1086.21 485.803 1101.6 493.775 1118.42 L 494.375 1118.17 C 491.839 1100.36 482.02 1094.59 476.519 1081.89 C 473.933 1078.74 470.319 1073.4 467.82 1069.96 C 467.04 1067.91 467.265 1068.32 467.09 1066.04 C 468.271 1062.97 468.257 1062.72 470.647 1060.61 C 471.861 1065.07 472.324 1068.69 475.435 1071.95 C 475.132 1069.02 473.748 1063.92 473.022 1060.88 C 473.468 1053.86 475.185 1052.14 478.575 1045.95 z" fill="rgb(13,150,104)" transform="translate(0,0)"></path>
<path d="M 530.005 966.056 L 531.943 965.28 C 533.9 967.303 534.205 975.656 536.009 980.506 C 539.309 989.379 544.819 997.547 548.374 1005.76 C 556.4 1026.04 562.791 1047.08 571.67 1066.72 C 576.985 1078.48 580.033 1087.46 583.455 1099.93 C 569.456 1083.09 560.535 1054.92 551.926 1035.05 C 541.569 1011.14 534.846 998.153 527.945 972.684 C 527.564 970.322 528.922 968.342 530.005 966.056 z" fill="rgb(13,150,104)" transform="translate(0,0)"></path>
<path d="M 683.306 874.136 L 685.176 875.483 C 695.237 883.646 708.989 918.881 710.76 932.279 C 711.395 937.08 708.546 949.903 709.233 953.684 C 708.13 958.385 706.956 963.07 705.713 967.736 C 705.307 964.43 704.924 960.275 704.384 957.07 C 702.388 949.979 693.505 922.726 692.882 918.03 C 693.165 917.419 693.44 916.803 693.704 916.183 C 695.381 912.206 695.154 911.462 693.606 907.57 C 691.071 897.522 681.548 882.254 683.306 874.136 z" fill="rgb(13,150,104)" transform="translate(0,0)"></path>
<path d="M 691.389 890.334 C 699.556 896.513 710.589 943.677 706.418 953.521 C 705.857 950.488 705.428 948.039 705.084 944.977 C 704.437 928.751 697.761 905.245 691.389 890.334 z" fill="rgb(26,58,40)" transform="translate(0,0)"></path>
<path d="M 549.714 941.366 C 555.245 949.168 559.349 962.024 564.145 970.574 C 570.177 981.327 577.789 991.239 584.448 1001.66 C 590.038 1010.41 594.907 1021.99 601.085 1029.95 C 601.56 1034.66 601.973 1044.78 600.388 1049.02 C 596.184 1042.99 586.813 1021.07 582.134 1012.75 C 573.816 997.976 565.052 983.839 556.231 969.317 C 553.066 964.107 547.685 953.176 544.114 949.343 C 545.994 946.693 547.861 944.034 549.714 941.366 z" fill="rgb(13,150,104)" transform="translate(0,0)"></path>
<path d="M 624.544 920.47 C 629.473 924.749 642.497 955.618 649.898 966.505 C 662.778 985.453 684.847 1055.71 687.393 1077.69 C 688.171 1079.99 689.207 1081.86 688.442 1084.01 C 686.721 1081.5 686.642 1081.2 685.653 1078.29 C 683.873 1071.84 680.326 1064.78 677.327 1058.77 C 676.334 1056.07 674.934 1050.72 674.076 1047.78 C 671.465 1026.3 648.103 972.643 637.902 953.091 C 633.442 940.93 629.144 936.855 624.544 920.47 z" fill="rgb(13,150,104)" transform="translate(0,0)"></path>
<path d="M 755.752 984.06 C 755.72 980.251 755.065 979.119 756.87 976.282 C 761.426 978.319 766.997 991.274 768.691 996.321 C 777.588 1024.4 779.085 1033.02 798.8 1054.78 C 798.073 1055.47 796.946 1055.91 795.977 1056.4 C 790.426 1054.52 791.62 1050.82 786.353 1048.55 C 787.792 1051.29 790.212 1054.85 789.806 1057.69 L 788.111 1058.09 C 782.557 1055.73 778.459 1049.31 775.224 1044.4 C 778.898 1045.39 779.853 1047.81 783.051 1047.54 C 774.153 1039.49 779.155 1040.32 774.338 1031.47 L 773.75 1034.36 C 772.019 1033.78 757.477 1002.54 754.06 997.958 C 752.333 994.02 753.911 988.61 754.921 984.541 C 761.322 995.637 763.047 1006.74 770.344 1018.72 L 770.915 1017.89 C 768.857 1011.92 760.124 986.657 755.752 984.06 z" fill="rgb(13,150,104)" transform="translate(0,0)"></path>
<path d="M 250.571 1770.33 C 253.036 1772.48 259.399 1780.03 262.817 1783.29 C 271.224 1791.33 279.434 1798.77 288.15 1806.46 C 285.524 1809.32 281.742 1812.26 278.705 1814.8 C 276.822 1816.37 275.371 1818.07 273.054 1818.24 C 263.887 1810.3 249.189 1786.25 242.794 1775.84 C 246.296 1773.92 247.536 1772.8 250.571 1770.33 z" fill="rgb(246,243,231)" transform="translate(0,0)"></path>
<path d="M 663.74 1051.16 C 667.907 1056.78 671.394 1062.72 673.633 1069.38 C 678.681 1103.16 714.516 1137.98 741.019 1156.95 C 740.014 1157.23 736.945 1158.16 736.099 1158.25 C 724.039 1150.44 708.583 1142.11 697.704 1133.45 C 696.276 1121.33 687.139 1114.74 681.954 1104.02 C 676.272 1092.28 664.681 1063.23 663.74 1051.16 z" fill="rgb(13,150,104)" transform="translate(0,0)"></path>
<path d="M 499.406 1119.75 C 501.209 1117.29 502.839 1115.13 504.776 1112.78 C 511.235 1115.17 520.913 1151.43 525.716 1159.03 C 537.446 1177.58 550.125 1195.6 560.565 1214.95 C 562.493 1218.57 566.723 1224.82 568.141 1227.85 C 564.331 1227.5 562.618 1227.35 560.183 1224.25 C 552.19 1214.08 546.488 1202.14 539.734 1191.23 C 529.224 1174.26 518.074 1157.69 511.309 1138.74 C 509.378 1133.33 507.319 1127.44 504.434 1122.51 C 502.921 1119.95 502.062 1120.29 499.406 1119.75 z" fill="rgb(13,150,104)" transform="translate(0,0)"></path>
<path d="M 693.102 849.457 C 696.076 851.568 706.205 866.623 710.257 871.039 C 716.098 877.406 720.19 880.801 726.817 886.438 C 724.62 889.511 721.682 892.672 719.167 895.545 C 716 898.019 716.963 898.069 713.744 898.093 C 706.516 894.038 697.012 879.132 693.485 871.599 C 689.047 862.123 689.702 858.532 693.102 849.457 z" fill="rgb(245,158,11)" transform="translate(0,0)"></path>
<path d="M 606.769 1038.42 C 621.809 1067.73 633.963 1098.43 643.059 1130.09 L 642.391 1131.21 L 641.507 1131.01 C 638.374 1125.75 630.252 1111.73 629.269 1106.03 C 629.243 1101.59 613.757 1065.44 611.299 1059.07 C 611.381 1073.81 624.797 1094.12 627.765 1106.15 C 627.464 1106.01 627.163 1105.86 626.863 1105.72 C 614.697 1090.65 606.972 1074.04 606.681 1055.87 L 606.769 1038.42 z" fill="rgb(13,150,104)" transform="translate(0,0)"></path>
<path d="M 753.105 904.763 C 757.8 912.388 760.239 916.912 763.357 925.297 C 764.252 929.582 765.629 936.708 767.242 940.601 C 772.881 954.207 775.042 958.283 774.566 973.356 L 777.707 974.863 C 783.176 991.369 787.242 1003.37 789.898 1020.65 C 779.729 1002.43 768.648 975.085 764.397 954.559 C 763.719 951.285 763.193 942.648 761.305 941.985 L 761.961 940.662 L 761.346 941.034 C 761.247 943.095 761.59 945.482 760.507 946.573 C 759.527 943.599 758.484 937.13 757.759 933.64 L 757.64 934.122 C 755.708 925.622 754.718 914.132 753.105 904.763 z" fill="rgb(13,150,104)" transform="translate(0,0)"></path>
<path d="M 493.52 1129.44 C 510.122 1159.44 519.886 1177.17 529.496 1210.67 C 525.402 1209.14 520.151 1206.65 517.641 1202.97 C 513.506 1191.6 496.941 1147.83 491.137 1139.28 C 491.489 1135.21 491.391 1133.03 493.52 1129.44 z" fill="rgb(13,150,104)" transform="translate(0,0)"></path>
<path d="M 662.092 870.818 C 665.333 870.087 666.608 869.437 669.59 870.48 C 680.181 909.551 698.5 923.973 702.66 969.645 C 703.005 979.26 701.062 987.51 700.696 996.693 L 699.676 996.512 C 697.922 992.12 699.054 970.771 698.342 964.372 C 698.148 958.375 695.024 952.826 693.638 947.144 C 686.957 919.762 670.608 897.293 662.092 870.818 z" fill="rgb(13,150,104)" transform="translate(0,0)"></path>
<path d="M 734.798 993.208 C 736.079 998.258 737.833 1008.47 741.884 1011.33 C 743.556 1014.94 737.285 1039.92 735.725 1044.08 C 734.976 1046.07 734.043 1047.99 732.937 1049.81 C 732.34 1026.81 737.721 1027.54 740.766 1007.74 C 737.481 1014.78 732.245 1029.34 729.269 1034.57 C 729.73 1039.9 730.306 1045.22 730.249 1050.57 C 729.523 1058.18 723.538 1078.34 717.529 1082.81 L 716.428 1082.17 C 716.314 1078.66 716.616 1078.11 717.609 1074.66 C 724.242 1065.62 727.115 1049.52 727.289 1038.52 C 724.316 1051.35 720.665 1061.38 716.757 1073.88 C 715.13 1079.86 714.791 1082.01 711.184 1086.98 L 709.679 1087.21 C 708.578 1082.96 710.21 1083.98 710.661 1080.22 C 722.089 1052.96 732.383 1022.7 734.798 993.208 z" fill="rgb(13,150,104)" transform="translate(0,0)"></path>
<path d="M 750.517 1017.65 L 758.024 1037.01 C 762.512 1046.35 768.532 1055.28 774.298 1063.91 C 770.784 1065.64 769.641 1066.46 765.801 1065.14 C 759.226 1054.51 756.142 1049.03 746.894 1040.36 C 752.376 1048.95 757.795 1057.57 763.15 1066.24 C 761.282 1067.4 758.23 1068.82 756.22 1067.56 C 751.134 1064.37 743.645 1055.51 742.188 1049.96 L 743.262 1048.41 C 745.616 1051.28 748.989 1056.13 752.121 1057.1 C 751.078 1054.19 747.084 1049.51 744.986 1047.07 C 743.733 1041.5 748.802 1024.4 750.517 1017.65 z" fill="rgb(13,150,104)" transform="translate(0,0)"></path>
<path d="M 770.574 995.678 C 767.063 983.389 751.537 956.362 757.394 945.203 L 759.082 947.183 C 765.975 970.684 772.535 996.266 784.168 1017.89 C 789.155 1027.17 796.652 1036.9 802.779 1045.58 C 805.394 1047.9 806.279 1048.75 808.43 1051.5 C 805.942 1052.9 804.367 1054.38 801.339 1053.02 L 799.994 1052.44 C 785.98 1038.94 774.932 1014.29 770.574 995.678 z" fill="rgb(13,150,104)" transform="translate(0,0)"></path>
<path d="M 673.077 1057.63 L 673.65 1058.5 C 677.421 1064.36 682.444 1077.34 685.447 1084.37 C 694.843 1106.36 708.95 1120.17 726.943 1135.02 C 732.391 1139.51 751.526 1150.03 753.389 1153.7 C 750.547 1154.33 745.325 1155.87 742.771 1155.24 C 739.496 1152.2 736.659 1151.12 733.396 1148.55 C 712.216 1131.89 679.353 1096.04 675.528 1068.99 C 674.426 1064.82 673.642 1061.98 673.077 1057.63 z" fill="rgb(13,150,104)" transform="translate(0,0)"></path>
<path d="M 658.84 870.838 C 670.747 900.765 695.013 941.881 696.424 972.643 C 691.536 959.994 686.584 947.369 681.568 934.77 C 675.094 918.256 675.453 919.025 664.918 904.899 C 660.692 899.231 656.573 883.312 650.785 874.732 C 652.757 873.531 656.611 871.88 658.84 870.838 z" fill="rgb(13,150,104)" transform="translate(0,0)"></path>
<path d="M 635.878 888.926 C 636.492 885.774 636.321 885.818 638.469 883.552 C 644.008 883.559 654.335 908.774 657.327 914.364 C 653.619 936.716 664.336 943.387 672.543 962.735 C 673.005 965.223 673.219 967.146 673.478 969.666 L 672.563 970.273 C 662.174 958.793 642.016 905.414 635.878 888.926 z" fill="rgb(13,150,104)" transform="translate(0,0)"></path>
<path d="M 793.863 1064.87 C 796.452 1061.62 799.349 1061.24 803.422 1059.92 C 817.514 1076.47 842.705 1096.68 862.444 1106.08 C 860.455 1107.05 855.315 1109.38 853.769 1110.51 C 846.359 1105.28 831.615 1097.06 825.867 1092.15 C 813.964 1081.98 807.309 1074.34 793.863 1064.87 z" fill="rgb(13,150,104)" transform="translate(0,0)"></path>
<path d="M 617.841 1101.21 C 623.786 1102.73 634.831 1125.75 639.941 1131.98 C 648.26 1144.46 659.677 1162.71 668.796 1174.02 C 664.315 1174.2 663.269 1172.7 660.316 1169.64 C 635.576 1143.26 627.151 1137.83 617.841 1101.21 z" fill="rgb(13,150,104)" transform="translate(0,0)"></path>
<path d="M 828.681 1051.24 C 836.391 1060.76 866.584 1088.46 877.055 1092.16 C 878.997 1092.85 879.304 1093.37 880.5 1094.98 C 878.701 1097.16 877.5 1097.5 874.985 1098.73 L 873.132 1098.32 C 859.183 1089.17 844.976 1077.81 831.251 1068.12 C 825.408 1064 821.461 1060.04 814.971 1056.07 L 828.681 1051.24 z" fill="rgb(13,150,104)" transform="translate(0,0)"></path>
<path d="M 489.292 1027.3 C 492.193 1031.14 513.726 1077.99 514.485 1082.82 C 513.476 1085.57 512.832 1087.12 511.543 1089.75 C 513.899 1092.4 513.507 1090.98 513.52 1093.9 C 509.8 1095.97 508.848 1094.96 505.67 1092.4 C 504.779 1090.5 501.131 1086.27 499.639 1084.43 L 500.878 1081.57 C 498.322 1076.8 496.121 1069.49 494.494 1064.32 C 493.594 1061.21 493.152 1060.55 493.794 1057.51 C 495.738 1058.72 495.579 1060.31 496.477 1063.21 C 498.871 1066.42 498.228 1066.72 501.22 1067.49 L 501.977 1065.75 C 501.37 1057.95 490.183 1042.05 485.546 1034.53 C 486.762 1032.81 488.31 1029.32 489.292 1027.3 z" fill="rgb(13,150,104)" transform="translate(0,0)"></path>
<path d="M 500.878 1081.57 L 501.851 1078.16 C 506.324 1080.06 507.567 1085.9 511.543 1089.75 C 513.899 1092.4 513.507 1090.98 513.52 1093.9 C 509.8 1095.97 508.848 1094.96 505.67 1092.4 C 504.779 1090.5 501.131 1086.27 499.639 1084.43 L 500.878 1081.57 z" fill="rgb(1,2,2)" transform="translate(0,0)"></path>
<path d="M 748.528 1080.14 C 751.346 1079.29 752.111 1078.81 754.982 1079.55 C 757.967 1082.47 761.062 1084.94 764.583 1087.18 C 775.229 1093.95 782.952 1104.08 792.675 1112.05 C 799.953 1118.01 807.539 1123.32 815.237 1128.73 C 812.777 1130.34 810.868 1132.02 807.962 1132.09 L 806.539 1131.2 L 806.305 1130.85 C 796.773 1116.25 761.501 1103.19 748.528 1080.14 z" fill="rgb(13,150,104)" transform="translate(0,0)"></path>
<path d="M 767.415 1081.19 C 766.011 1077.87 765.228 1077.63 765.765 1074.73 L 768.985 1074.13 C 773.411 1079.52 782.729 1091.56 787.098 1095.48 C 798.261 1105.48 812.752 1115.06 824.813 1124.25 C 821.405 1126.33 820.223 1127.65 816.325 1126.26 C 810.141 1120.31 794.135 1111.49 786.355 1103.76 C 779.759 1097.21 773.345 1086.71 767.746 1081.76 L 769.821 1086.28 L 769.18 1087.03 C 765.429 1086.11 759.079 1080.64 756.737 1077.67 C 758.882 1075.47 757.634 1076.16 760.575 1075.46 C 764.081 1077 764.849 1078.3 767.415 1081.19 z" fill="rgb(13,150,104)" transform="translate(0,0)"></path>
<path d="M 684.486 1034.28 C 683.705 1027.52 679.256 1024.99 675.751 1017.95 C 669.089 1004.56 661.888 990.732 660.152 975.729 C 666.165 989.645 681.988 1019.32 689.46 1032.02 C 691.737 1038.61 690.973 1046.36 691.226 1053.68 C 690.848 1057.19 690.667 1065.34 688.708 1067.25 L 688.81 1068.29 L 689.46 1068.48 L 689.135 1069.33 L 689.055 1069.3 L 689.537 1067.78 L 688.662 1067.49 L 689.629 1067.28 L 688.59 1066.61 L 687.379 1048.76 L 685.564 1052.58 C 678.966 1046.66 676.899 1029.9 675.456 1020.97 C 678.458 1025.66 681.09 1029.86 684.486 1034.28 z" fill="rgb(13,150,104)" transform="translate(0,0)"></path>
<path d="M 687.379 1048.76 L 685.564 1052.58 C 678.966 1046.66 676.899 1029.9 675.456 1020.97 C 678.458 1025.66 681.09 1029.86 684.486 1034.28 C 685.577 1039.08 686.541 1043.91 687.379 1048.76 z" fill="url(#Gradient2)" transform="translate(0,0)"></path>
<path d="M 575.111 1848.6 C 584.011 1849.23 618.056 1848.03 622.219 1853.59 C 622.218 1857.64 622.742 1856.19 620.647 1859.44 C 610.81 1861.42 582.969 1863.07 574.788 1857.71 C 573.333 1854.65 574.384 1852.1 575.111 1848.6 z" fill="rgb(246,243,231)" transform="translate(0,0)"></path>
<path d="M 506.582 1001 C 509.512 1012.31 512.476 1023.34 515.893 1034.51 C 517.863 1040.95 525.265 1057.07 524.523 1062.73 L 521.299 1067.59 C 510.715 1048.71 506.427 1026.29 498.618 1013.31 C 501.218 1009.17 503.873 1005.07 506.582 1001 z" fill="rgb(13,150,104)" transform="translate(0,0)"></path>
<path d="M 813.986 1056.31 C 825.126 1067.22 857.788 1092.78 871.22 1100.48 C 869.583 1102.17 869.051 1102.21 866.91 1103.14 C 856.13 1101.12 809.112 1066.78 809.541 1058.55 L 813.986 1056.31 z" fill="rgb(13,150,104)" transform="translate(0,0)"></path>
<path d="M 696.606 1096.49 C 703.656 1100.73 712.487 1112.95 716.971 1115.94 C 728.855 1123.84 756.121 1143.18 767.598 1148.74 C 764.167 1149.81 760.544 1150.62 757.742 1152.74 C 752.931 1145.78 736.852 1139.85 730.143 1133.7 C 723.129 1127.28 696.068 1105.76 696.606 1096.49 z" fill="rgb(13,150,104)" transform="translate(0,0)"></path>
<path d="M 806.076 1132.04 L 804.404 1133.59 C 791.54 1132.05 742.561 1094.43 738.497 1083.56 C 740.197 1081.96 744.074 1081.43 746.527 1080.86 C 758.503 1103.87 787.864 1116.01 806.076 1132.04 z" fill="rgb(13,150,104)" transform="translate(0,0)"></path>
<path d="M 659.003 1909.27 C 672.54 1914.33 684.949 1918.91 698.779 1923.25 L 707.668 1926.49 L 708.063 1927.45 C 705.286 1928.22 704.938 1928.28 702.071 1928.51 C 690.585 1929.5 677.411 1929.79 665.79 1930.3 C 663.69 1922.48 661.737 1916.83 659.003 1909.27 z" fill="rgb(245,158,11)" transform="translate(0,0)"></path>
<path d="M 698.779 1923.25 L 707.668 1926.49 L 708.063 1927.45 C 705.286 1928.22 704.938 1928.28 702.071 1928.51 C 699.048 1928.17 698.448 1928.66 696.614 1927.02 L 698.779 1923.25 z" fill="rgb(240,202,114)" transform="translate(0,0)"></path>
<path d="M 584.422 1057.43 C 593.804 1066.76 593.694 1073.22 599.475 1081.69 C 602.55 1099.24 603.218 1116.41 607.445 1133.5 C 610.507 1145.88 616.525 1155.82 621.098 1167.02 C 614.844 1161.84 604.609 1135.8 602.203 1127.17 C 600.24 1120.14 598.63 1109.27 596.589 1101.58 L 584.422 1057.43 z" fill="rgb(13,150,104)" transform="translate(0,0)"></path>
<path d="M 972.7 974.828 C 973.443 980.963 969.133 990.757 966.738 996.652 C 950.805 1008.17 937.223 1021.23 919.929 1030.56 C 919.649 1028.61 920.6 1026.95 921.935 1025.62 C 938.535 1009.1 958.993 993.992 972.7 974.828 z" fill="rgb(13,150,104)" transform="translate(0,0)"></path>
<path d="M 550.441 1155.09 C 574.752 1175.73 575.377 1204.24 587.774 1233.26 C 584.158 1232.93 584.024 1232.93 581.064 1230.97 L 580.47 1229.58 C 576.659 1220.8 572.042 1215.14 568.536 1206.83 C 566.217 1201.32 566.882 1190.23 565.77 1184.42 C 563.986 1175.09 555.226 1163.6 550.441 1155.09 z" fill="rgb(13,150,104)" transform="translate(0,0)"></path>
<path d="M 553.576 934.894 C 558.501 936.877 589.458 1002.49 599.451 1012.67 C 601.503 1018.1 601.551 1020.15 601.823 1025.94 C 594.743 1016.07 589.824 1001.96 581.793 991.896 C 574.574 982.854 551.823 946.048 553.576 934.894 z" fill="rgb(13,150,104)" transform="translate(0,0)"></path>
<path d="M 723.068 1102.47 C 738.673 1115.05 760.418 1132.94 776.994 1143.78 C 775.527 1145.81 771.465 1147.13 768.964 1148.2 C 761.778 1141.63 736.596 1125.25 733.78 1121.48 C 731.041 1115.47 724.12 1107.1 723.068 1102.47 z" fill="rgb(13,150,104)" transform="translate(0,0)"></path>
<path d="M 482.684 1039.3 C 489.248 1054.65 490.235 1070.28 499.639 1084.43 C 501.131 1086.27 504.779 1090.5 505.67 1092.4 C 508.83 1097.99 506.455 1099.92 503.578 1105.22 C 488.729 1083.31 478.849 1065.74 482.684 1039.3 z" fill="rgb(13,150,104)" transform="translate(0,0)"></path>
<path d="M 483.486 1145.9 C 485.516 1143.28 486.46 1141.37 489.482 1140.52 C 496.761 1155.59 510.058 1187.46 514.885 1203.27 C 511.634 1202.71 506.86 1196.22 504.573 1193.5 C 496.437 1177.23 493.404 1163.92 483.486 1145.9 z" fill="rgb(13,150,104)" transform="translate(0,0)"></path>
<path d="M 581.789 907.931 C 584.947 915.659 588.466 922.403 592.242 929.826 C 596.462 938.003 607.297 950.063 607.731 958.436 C 607.035 960.492 606.567 962.395 605.304 964.141 C 600.559 957.323 596.675 951.657 592.505 944.457 C 587.66 936.094 583.412 922.699 576.599 916.386 C 575.743 912.488 579.165 910.298 581.789 907.931 z" fill="rgb(13,150,104)" transform="translate(0,0)"></path>
<path d="M 491.888 1024.64 L 497.606 1015.08 C 501.771 1030.96 511.325 1056.16 519.479 1069.91 L 520.111 1071.51 C 518.934 1074.79 518.783 1075.84 516.617 1078.47 C 513.796 1074.25 508.324 1060.51 505.93 1055.02 C 501.388 1044.83 496.707 1034.7 491.888 1024.64 z" fill="rgb(13,150,104)" transform="translate(0,0)"></path>
<path d="M 671.87 1172.6 C 665.713 1167.4 644.992 1137.61 644.567 1129.35 L 645.449 1128.48 C 657.793 1143.54 667.945 1160.78 686.639 1170.4 L 687.736 1170.96 L 687.023 1172.55 C 680.229 1173.61 676.669 1172.1 671.87 1172.6 z" fill="rgb(13,150,104)" transform="translate(0,0)"></path>
<path d="M 627.313 903.682 C 633.984 913.104 654.984 962.555 658.134 974.211 C 643.262 953.836 637.917 934.813 624.14 913.972 C 625.34 911.178 626.45 906.725 627.313 903.682 z" fill="rgb(13,150,104)" transform="translate(0,0)"></path>
<path d="M 471.932 1162 C 470.04 1163.55 469.927 1163.9 467.501 1164.42 C 461.704 1158.14 439.228 1130.82 439.184 1123.12 C 440.64 1125.08 441.847 1126.64 443.427 1128.51 C 444.293 1123.68 437.22 1119.19 443.581 1111.66 C 446.328 1116.82 446.935 1117.18 447.658 1122.78 C 449.043 1133.54 465.138 1153.62 471.932 1162 z" fill="rgb(13,150,104)" transform="translate(0,0)"></path>
<path d="M 560.207 1489.76 C 566.056 1496.75 573.722 1510.03 578.758 1518.31 C 571.119 1519.92 564.946 1521.53 557.47 1523.62 C 558.984 1512.39 559.898 1501.09 560.207 1489.76 z" fill="rgb(245,158,11)" transform="translate(0,0)"></path>
<path d="M 508.434 996.457 C 520.155 1002.73 529.977 1044.64 528.646 1058.12 C 524.211 1054.7 507.902 1000.84 508.434 996.457 z" fill="rgb(13,150,104)" transform="translate(0,0)"></path>
<path d="M 604.456 886.282 C 608.434 884.041 615.811 878.334 618.761 878.381 C 622.311 881.358 623.562 889.032 625.018 893.921 L 624.299 895.767 C 623.325 896.088 622.665 896.457 621.762 896.394 C 619.587 891.666 617.385 886.951 615.157 882.248 C 614.235 885.01 614.86 885.302 615.533 888.654 C 616.949 891.702 618.447 895.148 619.997 898.089 C 621.155 901.631 621.133 900.131 620.375 903.796 L 618.655 904.722 L 616.277 903.012 C 616.703 905.812 617.656 909.006 617.944 911.106 C 617.44 911.227 617.856 911.186 616.195 910.916 C 610.885 902.225 609.336 894.758 604.456 886.282 z" fill="rgb(13,150,104)" transform="translate(0,0)"></path>
<path d="M 481.241 1148.8 C 490.095 1160.52 494.677 1180.19 503.003 1194.49 L 503.014 1195.51 C 498.78 1193.71 492.861 1188.06 488.445 1184.93 C 485.86 1175.15 484.5 1168.26 478.911 1159.69 C 478.903 1157.24 480.574 1151.44 481.241 1148.8 z" fill="rgb(13,150,104)" transform="translate(0,0)"></path>
<path d="M 881.454 1093.96 C 874.391 1087.74 832.382 1056.51 834.063 1049 L 838.632 1046.48 C 851.046 1064.95 863.134 1069.28 875.558 1085.21 L 881.454 1093.96 z" fill="rgb(13,150,104)" transform="translate(0,0)"></path>
<path d="M 259.835 1913.93 C 266.555 1919.88 275.259 1925.68 282.737 1930.61 C 278.078 1930.73 272.713 1930.41 268 1930.23 C 260.058 1930.04 253.278 1929.81 245.325 1929.12 C 249.638 1923.11 254.181 1918.63 259.835 1913.93 z" fill="rgb(245,158,11)" transform="translate(0,0)"></path>
<path d="M 531.321 1210.18 C 529.09 1201.08 519.261 1178.37 520.502 1169.77 C 529.377 1186.21 537.302 1205.12 545.976 1220.58 C 541.179 1218.23 533.519 1215.14 531.321 1210.18 z" fill="rgb(13,150,104)" transform="translate(0,0)"></path>
<path d="M 596.067 893.863 C 598.268 897.087 606.905 918.409 611.191 926.162 C 612.895 930.214 612.627 934.038 610.799 938.019 L 609.35 938.106 C 603.494 929.199 599.386 922.068 596.713 911.611 C 595.615 907.317 594.963 903.033 593.303 898.923 L 596.067 893.863 z" fill="rgb(13,150,104)" transform="translate(0,0)"></path>
<path d="M 615.896 949.306 C 627.19 961 634.225 997.495 641.159 1013.63 C 628.389 997.134 631.538 991.336 624.851 979.531 C 620.199 970.931 614.51 959.227 615.896 949.306 z" fill="rgb(13,150,104)" transform="translate(0,0)"></path>
<path d="M 746.071 997.483 C 741.684 985.167 732.035 951.366 737.152 939.564 L 738.748 939.094 L 740.058 941.221 C 740.12 948.035 742.667 973.614 745.736 978.999 C 746.975 976.402 746.126 972.773 745.883 969.452 L 748.82 975.823 C 748.081 983.208 747.483 990.172 746.071 997.483 z" fill="rgb(13,150,104)" transform="translate(0,0)"></path>
<path d="M 519.609 1082.62 C 523.559 1085.96 539.079 1117.42 541.8 1123.91 C 542.974 1126.71 543.351 1132.21 541.825 1135.48 C 536.404 1117.52 526.216 1106.35 517.287 1090.52 C 516.182 1088.56 518.648 1084.66 519.609 1082.62 z" fill="rgb(13,150,104)" transform="translate(0,0)"></path>
<path d="M 671.412 869.691 C 673.699 870.34 676.846 870.913 678.402 872.49 C 680.245 879.854 689.159 901.776 693.606 907.57 C 693.459 910.208 693.657 911.577 692.178 913.759 L 690.453 913.529 C 684.077 907.21 674.615 879.198 671.412 869.691 z" fill="rgb(13,150,104)" transform="translate(0,0)"></path>
<path d="M 727.367 898.815 L 728.919 900.501 C 730.199 907.147 730.275 918.907 723.406 922.473 C 719.933 921.939 720.702 921.736 717.558 918.917 C 714.815 915.135 711.804 911.178 711.758 906.802 L 711.472 906.775 C 713.524 906.956 715.287 907.188 717.31 907.478 C 720.835 904.144 723.584 901.846 727.367 898.815 z" fill="rgb(245,158,11)" transform="translate(0,0)"></path>
<path d="M 734.943 901.272 C 735.271 896.41 734.889 888.052 737.244 884.64 L 738.787 884.783 C 740.492 894.43 741.329 915.442 740.932 925.354 C 739.893 928.213 740.028 933.796 737.408 935.195 C 735.918 931.369 736.119 928.247 735.979 924.132 C 735.069 917.261 735.11 908.348 734.943 901.272 z" fill="rgb(13,150,104)" transform="translate(0,0)"></path>
<path d="M 753.924 1020.91 C 758.562 1026.38 781.326 1056.16 781.539 1061.21 C 778.752 1063.21 780.289 1062.69 776.707 1062.64 C 771.922 1054.54 765.414 1046.03 760.059 1036.99 L 753.924 1020.91 z" fill="rgb(13,150,104)" transform="translate(0,0)"></path>
<path d="M 841.183 1046.41 C 844.749 1044.53 844.808 1043.74 848.493 1044.99 C 857.532 1059.04 868.406 1064.94 877.278 1078.79 C 877.847 1079.68 878.048 1079.8 878.835 1080.62 L 878.829 1082.31 C 873.402 1079.6 846.425 1051.89 841.183 1046.41 z" fill="rgb(13,150,104)" transform="translate(0,0)"></path>
<path d="M 742.02 888.14 C 749.377 899.217 750.008 932.668 749.872 946.802 L 747.526 943.233 C 745.932 937.322 740.174 917.957 743.535 913.255 L 746.143 920.211 C 746.306 919.982 742.26 891.179 742.02 888.14 z" fill="rgb(13,150,104)" transform="translate(0,0)"></path>
<path d="M 680.039 838.304 C 681.822 844.596 681.879 846.314 685.489 851.648 C 685.239 855.538 685.53 859.472 683.33 862.415 C 678.351 864.511 677.317 860.701 667.619 862.499 C 668.028 859.649 667.863 856.183 667.832 853.256 L 670.407 853.181 C 672.275 855.892 672.384 856.035 674.99 857.995 L 676.776 856.159 C 675.711 847.275 676.166 846.477 680.039 838.304 z" fill="rgb(13,150,104)" transform="translate(0,0)"></path>
<path d="M 603.504 887.849 C 608.718 897.963 608.721 907.471 616.612 915.293 C 614.675 918.623 614.446 919.198 613.543 922.944 C 609.467 920.487 600.591 898.391 598.547 892.905 L 603.504 887.849 z" fill="rgb(13,150,104)" transform="translate(0,0)"></path>
<path d="M 738.172 1057.05 L 748.286 1069.29 C 747.494 1074.36 736.369 1078.78 731.689 1079.14 L 729.89 1078.23 C 729.632 1075.72 730.852 1074.07 732.031 1071.75 L 738.172 1057.05 z" fill="rgb(244,229,221)" transform="translate(0,0)"></path>
<path d="M 748.286 1069.29 C 747.494 1074.36 736.369 1078.78 731.689 1079.14 L 729.89 1078.23 C 729.632 1075.72 730.852 1074.07 732.031 1071.75 C 737.416 1070.72 742.838 1069.9 748.286 1069.29 z" fill="rgb(246,243,231)" transform="translate(0,0)"></path>
<path d="M 858.107 1039.18 C 860.494 1037.72 860.628 1037.33 863.433 1037.49 C 869.558 1041.37 878.312 1068.69 880.293 1076.57 C 872.53 1072.53 866.878 1048.33 858.107 1039.18 z" fill="rgb(13,150,104)" transform="translate(0,0)"></path>
<path d="M 730.633 1121.59 C 725.284 1118.35 704.599 1101.64 704.605 1096.14 L 708.392 1093.59 C 713.999 1099.83 730.811 1114.02 730.633 1121.59 z" fill="rgb(13,150,104)" transform="translate(0,0)"></path>
<path d="M 498.916 1120.87 C 509.542 1131.99 508.495 1145.24 515.592 1158.69 C 510.458 1157.4 501.409 1134.64 495.664 1126.69 C 495.464 1125.49 496.1 1124.43 496.57 1123.09 L 498.916 1120.87 z" fill="rgb(13,150,104)" transform="translate(0,0)"></path>
<path d="M 603.248 1164.49 C 611.431 1170.07 622.346 1198.77 620.157 1208.42 L 618.857 1208.59 C 619.496 1209.36 603.548 1165.76 603.248 1164.49 z" fill="rgb(13,150,104)" transform="translate(0,0)"></path>
<path d="M 579.138 1197.8 C 584.475 1203.73 593.837 1226.21 597.546 1234.68 C 594.793 1234.59 594.072 1234.8 591.887 1233.1 C 586.576 1222.21 579.933 1209.72 579.138 1197.8 z" fill="rgb(13,150,104)" transform="translate(0,0)"></path>
<path d="M 745.883 969.452 C 745.141 960.009 742.184 950.448 741.67 942.33 L 743.2 941.824 L 746.29 944.04 L 747.526 943.233 L 749.872 946.802 C 749.393 949.334 749.085 970.851 748.82 975.823 L 745.883 969.452 z" fill="url(#Gradient1)" transform="translate(0,0)"></path>
<path d="M 753.044 999.007 C 756.239 1005.75 770.16 1030.96 769.738 1036.09 C 763.856 1027.41 757.716 1019.33 751.408 1010.96 C 751.79 1006.15 752.042 1003.8 753.044 999.007 z" fill="rgb(13,150,104)" transform="translate(0,0)"></path>
<path d="M 592.301 898.741 C 592.898 902.853 596.084 922.59 595.012 925.167 C 590.463 919.758 588.778 913.339 583.308 906.788 L 592.301 898.741 z" fill="rgb(13,150,104)" transform="translate(0,0)"></path>
<path d="M 629.472 869.852 C 631.029 871.092 633.246 875.954 634.345 878.039 C 632.009 881.365 629.425 885.681 627.224 889.174 C 626.588 888.286 625.979 887.379 625.397 886.455 C 619.603 877.134 621.256 874.933 629.472 869.852 z" fill="rgb(13,150,104)" transform="translate(0,0)"></path>
<path d="M 742.574 1010.12 C 740.48 998.262 734.139 991.236 736.88 979.597 C 739.844 980.335 742.442 997.52 745.881 1002.21 C 744.958 1004.95 744.295 1008 742.574 1010.12 z" fill="rgb(13,150,104)" transform="translate(0,0)"></path>
<path d="M 660.016 1200.78 L 662.793 1196.12 L 664.833 1195.71 C 667.764 1197.75 669.471 1200.21 671.749 1202.98 C 670.496 1205.37 668.626 1209.23 667.182 1211.36 C 665.452 1209.38 660.551 1204.08 659.545 1202.07 L 660.016 1200.78 z" fill="rgb(13,150,104)" transform="translate(0,0)"></path>
<path d="M 855.785 1039.86 C 859.854 1047.54 864.34 1055.63 868.018 1063.45 C 862.461 1058.08 854.288 1048.25 850.301 1044.74 L 850.268 1043.44 C 851.724 1040.6 851.761 1041.39 855.785 1039.86 z" fill="rgb(13,150,104)" transform="translate(0,0)"></path>
<path d="M 596.696 930.844 L 598.308 927.035 C 602.171 928.633 605.267 935.368 607.592 939.316 C 609.522 943.498 610.331 944.733 610.24 949.489 L 609.171 949.539 C 603.947 943.792 601.331 937.036 596.696 930.844 z" fill="rgb(13,150,104)" transform="translate(0,0)"></path>
<path d="M 655.53 1214.39 C 654.89 1211.08 656.442 1209.19 658.088 1206.06 C 660.354 1208.21 664.361 1211.73 665.966 1214.18 C 663.934 1217.68 662.969 1219.15 661.608 1223.04 L 655.53 1214.39 z" fill="rgb(13,150,104)" transform="translate(0,0)"></path>
<path d="M 649.533 1224.04 C 650.847 1220.02 651.107 1219.32 653.475 1215.83 L 660.365 1225.95 C 659.341 1227.95 658.329 1230.49 656.673 1231.86 L 649.533 1224.04 z" fill="rgb(13,150,104)" transform="translate(0,0)"></path>
<path d="M 477.73 1160.66 C 480.082 1166.2 482.925 1172.17 483.921 1178.05 L 483.085 1179.61 L 482.572 1179.69 C 475.369 1170.89 471.209 1173.78 477.73 1160.66 z" fill="rgb(13,150,104)" transform="translate(0,0)"></path>
<path d="M 664.847 1190.74 L 668.69 1184.83 C 672.757 1189.67 675.528 1191.26 674.433 1197.77 L 672.703 1198.62 C 669.004 1197.12 667.476 1194.21 664.847 1190.74 z" fill="rgb(13,150,104)" transform="translate(0,0)"></path>
<path d="M 538.45 1197.6 C 541.694 1199.81 553.125 1219.7 555.283 1224.06 C 546.786 1221.26 540.832 1205.38 538.45 1197.6 z" fill="rgb(13,150,104)" transform="translate(0,0)"></path>
<path d="M 645.748 861.711 C 647.744 863.582 647.708 865.28 647.748 867.799 L 646.284 868.609 C 644.865 867.981 643.742 867.485 642.354 866.769 L 641.436 866.285 C 641.625 869.637 641.661 870.404 640.308 873.467 C 637.174 873.325 636.006 872.912 633.443 871.348 L 633.246 869.569 C 636.404 865.968 641.271 864.131 645.748 861.711 z" fill="rgb(13,150,104)" transform="translate(0,0)"></path>
<path d="M 642.95 1244.45 C 642.32 1241.15 642.092 1240.82 643.09 1237.75 C 648.879 1234.81 655.789 1244.1 648.314 1248.46 C 646.282 1246.6 645.272 1245.97 642.95 1244.45 z" fill="rgb(13,150,104)" transform="translate(0,0)"></path>
<path d="M 670.875 1182.87 L 671.712 1181.2 C 675.485 1180.18 678.622 1180.74 682.544 1181.05 C 681.035 1184.23 678.734 1188.63 677.85 1191.92 C 675.214 1189.45 672.98 1185.88 670.875 1182.87 z" fill="rgb(13,150,104)" transform="translate(0,0)"></path>
<path d="M 647.846 1227.36 L 655.438 1234.74 C 655.27 1235.58 654.661 1237.22 654.392 1238.01 L 652.335 1238.44 C 647.877 1236.83 649.483 1237.9 646.308 1234.23 C 645.495 1230.45 645.712 1231.7 647.846 1227.36 z" fill="rgb(13,150,104)" transform="translate(0,0)"></path>
<path d="M 479.461 1111.63 C 483.962 1114.67 490.533 1124.85 489.593 1130.6 C 487.874 1130.85 488.722 1130.81 486.862 1130.1 C 484.003 1125.28 481.417 1117.11 479.461 1111.63 z" fill="rgb(13,150,104)" transform="translate(0,0)"></path>
<path d="M 646.555 1250.65 L 646.935 1252.02 L 645.616 1252.78 C 642.007 1251.49 639.702 1250.78 639.403 1246.66 L 641.535 1245.1 L 646.555 1250.65 z" fill="rgb(13,150,104)" transform="translate(0,0)"></path>
<path d="M 740.978 928.454 C 743.886 931.271 744.054 936.06 745.049 940.683 C 744.225 940.342 742.809 939.425 741.983 938.933 C 740.246 935.632 740.834 932.318 740.978 928.454 z" fill="rgb(13,150,104)" transform="translate(0,0)"></path>
<path d="M 529.255 96.8279 C 546.313 96.5732 550.447 119.666 555.273 133.029 C 594.36 99.4849 597.719 102.953 602.15 152.141 C 648.258 130.611 649.277 144.195 639.871 185.146 C 659.992 184.953 685.909 177.036 676.561 207.526 C 692.855 201.61 785.817 174.457 797.976 174.159 C 804.623 173.996 811.516 177.439 817.635 179.811 L 830.634 224.502 C 845.517 218.315 903.581 201.899 922.111 197.859 C 923.009 197.663 923.361 199.034 923.905 200.118 C 921.726 209.432 899.247 254.164 894.406 263.029 C 902.949 268.947 943.074 296.365 947.566 302.441 L 947.07 304.581 C 941.009 310.053 792.646 347.096 778.337 349.579 C 760.152 342.706 760.68 326.373 757.246 309.176 C 728.335 319.35 717.208 316.568 686.673 333.78 C 697.86 344.37 723.243 366.944 697.985 378.542 C 690.771 381.855 682.579 384.466 675.049 387.119 C 697.683 426.742 688.648 429.778 647.769 432.019 C 647.83 442.703 654.778 470.266 643.396 474.781 C 635.907 477.751 613.115 472.183 604.438 470.532 C 601.454 519.786 593.311 518.044 557.189 492.353 C 532.131 541.645 534.32 528.864 502.097 499.018 C 494.959 505.237 481.215 517.94 473.748 522.249 C 458.051 522.122 454.119 500.598 448.136 487.568 C 404.542 513.802 403.124 507.867 403.883 459.654 C 391.326 465.486 374.818 469.965 361.417 474.153 C 317.526 487.871 286.724 497.295 240.571 497.189 C 233.684 484.36 227.396 471.218 221.727 457.807 C 191.178 469.282 158.086 477.864 127.05 488.407 C 123.044 489.768 120.756 490.54 117.993 487.25 C 118.114 480.099 142.445 432.667 147.487 422.989 C 139.279 418.431 96.1465 394.586 91.4746 389.794 L 91.6222 386.814 C 94.1833 382.719 141.253 369.561 149.257 367.112 L 247.028 337.128 C 253.267 347.418 260.848 365.096 266.03 376.45 C 288.848 370.667 320.447 362.365 343.118 360.004 C 333.113 355.375 317.919 350.965 312.468 340.832 C 303.559 324.272 329.254 313.48 339.853 308.1 C 304.726 275.438 302.098 268.012 349.161 251.582 C 340.856 238.748 337.19 234.048 333.871 219.192 C 334.941 214.725 335.314 211.273 338.923 208.234 C 347.73 200.819 365.401 202.938 376.484 203.817 C 359.577 159.371 361.074 147.289 410.315 165.025 C 410.724 154.284 407.617 126.713 417.75 121.399 C 429.883 120.867 443.358 133.431 454.628 137.987 C 469.877 95.4398 470.51 82.2809 505.437 126.217 C 512.36 116.482 520.22 104.421 529.255 96.8279 z" fill="rgb(1,2,2)" transform="translate(0,0)"></path>
<path d="M 533.11 102.578 C 542.511 106.747 545.485 132.813 550.593 138.004 C 558.658 146.2 575.411 118.655 588.697 117.811 C 597.362 122.164 592.522 147.959 596.924 155.633 C 601.723 164 626.333 146.291 636.724 148.78 C 643.429 156.289 633.278 175.076 633.395 186.781 C 638.384 197.372 661.085 186.257 671.161 193.312 C 676.296 204.048 660.244 218.836 660.644 227.518 C 660.982 234.846 689.078 238.613 696.972 245.9 C 701.194 256.616 679.873 268.465 678.495 279.854 C 679.262 290.241 700.141 294.711 705.39 303.014 C 712.74 314.641 686.395 325.99 677.476 331.639 C 693.031 354.774 722.466 366.691 678.01 378.503 C 674.535 379.427 670.151 381.116 666.684 382.258 C 669.34 393.097 682.669 410.148 680.384 419.032 C 674.213 428.281 650.762 422.198 643.321 426.188 C 637.051 429.551 645.967 455.965 642.269 466.912 C 635.338 473.999 613.105 462.383 601.809 464.052 C 595.168 469.566 598.001 490.52 590.077 504.579 L 589.43 505.716 C 576.82 499.231 566.99 489.863 554.446 483.689 C 547.895 492.855 540.097 514.675 532.128 517.776 C 525.277 516.23 511.272 497.916 504.265 491.483 L 503.425 490.719 C 497.378 494.264 492.134 498.793 486.694 503.211 C 452.699 534.991 466.081 486.888 451.856 481.618 C 433.03 474.643 405.873 532.83 410.099 460.94 C 411.056 444.66 375.637 459.389 367.456 449.101 C 357.994 437.199 374.057 421.938 375.775 410.482 C 375.764 403.333 343.193 407.418 336.123 399.105 C 324.712 385.689 351.272 372.503 351.225 360.551 C 348.437 354.748 331.889 348.303 325.789 344.774 C 297.734 328.543 342.141 319.143 345.532 311.478 C 349.881 301.651 324.217 289.62 319.425 275.019 C 322.309 264.475 348.178 262.133 355.321 255.686 C 360.523 250.992 339.164 229.786 340.865 218.375 C 343.231 202.502 374.225 215.065 382.26 207.719 C 385.289 197.148 367.862 171.574 375.959 163.249 C 386.131 161.079 400.738 170.588 410.277 170.092 C 423.523 169.404 411.331 138.682 419.657 128.371 C 430.447 125.309 443.604 143.35 453.698 144.77 C 467.501 140.651 465.872 103.054 477.98 106.909 C 497.32 113.067 497.671 154.787 522.027 114.766 C 523.845 111.778 529.758 105.772 533.11 102.578 z" fill="rgb(245,158,11)" transform="translate(0,0)"></path>
<path d="M 498.639 162.965 C 581.414 154.644 655.287 214.942 663.715 297.706 C 672.144 380.471 611.942 454.422 529.188 462.958 C 446.282 471.509 372.166 411.173 363.722 328.256 C 355.279 245.339 415.711 171.301 498.639 162.965 z" fill="rgb(1,2,2)" transform="translate(0,0)"></path>
<path d="M 499.409 169.755 C 578.629 161.936 649.173 219.856 656.923 299.083 C 664.674 378.31 606.693 448.803 527.46 456.485 C 448.322 464.158 377.933 406.263 370.192 327.133 C 362.451 248.003 420.286 177.564 499.409 169.755 z" fill="rgb(245,158,11)" transform="translate(0,0)"></path>
<path d="M 509.135 182.568 C 581.006 180.163 641.258 236.396 643.811 308.262 C 646.364 380.129 590.256 440.496 518.395 443.198 C 446.324 445.908 385.741 389.599 383.18 317.523 C 380.619 245.446 437.053 184.98 509.135 182.568 z" fill="rgb(1,2,2)" transform="translate(0,0)"></path>
<path d="M 506.225 189.495 C 574.116 185.516 632.488 237.085 636.91 304.949 C 641.332 372.812 590.146 431.52 522.313 436.386 C 453.85 441.297 394.477 389.531 390.014 321.037 C 385.55 252.543 437.703 193.51 506.225 189.495 z" fill="rgb(245,158,11)" transform="translate(0,0)"></path>
<path d="M 554.881 247.23 C 568.323 245.455 584.233 257.32 579.54 267.711 C 562.508 305.419 542.764 343.323 523.719 380.201 C 503.929 418.52 475.213 369.558 462.796 353.466 C 455.647 344.712 436.055 323.571 439.253 314.563 C 457.033 264.485 496.735 332.325 503.998 341.849 C 512.247 322.583 522.004 303.092 531.279 284.258 C 536.829 272.988 544.139 252.897 554.881 247.23 z" fill="rgb(26,58,40)" transform="translate(0,0)"></path>
<path d="M 556.47 253.054 C 572.662 251.035 574.931 264.044 568.776 276.025 C 552.193 308.305 536.297 340.95 519.53 373.156 C 517.757 375.766 514.775 383.269 512.275 384.914 C 500.178 392.872 490.132 377.641 485.313 371.277 C 476.21 359.255 467.774 348.88 458.746 337.953 C 453.271 330.996 449.742 326.333 444.946 318.828 C 455.353 273.042 491.754 340.358 504.898 352.181 L 505.837 353.012 C 516.226 336.648 545.426 262.616 556.47 253.054 z" fill="rgb(13,150,104)" transform="translate(0,0)"></path>
<path d="M 809.816 185.069 L 811.92 185.342 C 814.256 189.247 814.867 193.186 816.106 197.505 C 824.012 225.059 831.005 253.236 839.901 280.478 C 824.876 282.53 808.243 288.016 793.488 291.974 C 766.284 299.271 738.773 308.175 711.55 315.225 C 716.242 304.176 716.155 304.475 707.447 295.792 C 700.954 290.436 692.025 284.773 684.917 279.984 C 690.432 272.051 710.791 251.538 702.746 242.658 C 695.945 235.152 682.006 232.135 672.777 227.639 L 671.825 227.171 C 692.131 222.525 720.88 212.252 741.201 206.048 C 763.722 199.171 787.638 192.428 809.816 185.069 z" fill="rgb(245,158,11)" transform="translate(0,0)"></path>
<path d="M 337.629 367.255 L 339.381 367.33 C 339.617 371.734 326.88 382.42 326.922 391.252 C 327.018 411.394 354.019 411.008 369.326 412.308 C 365.489 420.03 359.253 430.127 357.867 438.543 C 357.383 441.48 359.469 445.254 358.409 447.823 C 357.348 450.392 258.223 484.635 245.399 490 L 244.174 490.439 C 241.379 488.206 235.625 472.646 233.525 468.147 C 222.747 445.053 211.244 422.232 199.776 399.482 C 214.824 397.498 237.942 391.219 253.108 387.235 C 282.003 379.646 308.286 372.974 337.629 367.255 z" fill="rgb(245,158,11)" transform="translate(0,0)"></path>
<path d="M 911.447 207.019 L 913.099 207.268 C 913.257 211.63 890.075 257.419 886.527 265.356 C 901.288 277.426 920.167 288.344 936.839 302.13 C 905.993 311.996 859.415 322.601 826.826 331.236 C 816.398 333.992 805.938 336.629 795.45 339.148 C 807.691 328.53 840.827 300.939 847.722 287.634 C 843.154 268.876 837.164 248.88 832.183 229.98 C 857.964 221.571 885.219 214.931 911.447 207.019 z" fill="rgb(245,158,11)" transform="translate(0,0)"></path>
<path d="M 230.128 347.966 L 230.987 348.254 C 231.04 347.916 193.257 389.035 189.352 393.77 C 197.481 407.857 211.249 437.46 218.315 452.697 C 188.996 462.039 152.728 472.617 124.555 483.146 C 127.492 477.797 130.308 471.788 133.024 466.277 C 140.116 452.171 148.952 435.609 155.025 421.271 C 144.576 412.967 113.359 396.036 100.506 388.739 C 108.629 385.603 123.755 381.762 132.739 379.157 C 152.412 373.36 172.008 367.302 191.522 360.985 C 203.373 357.253 219.036 352.9 230.128 347.966 z" fill="rgb(245,158,11)" transform="translate(0,0)"></path>
<path d="M 839.895 287.279 C 840.231 291.758 784.247 341.965 776.121 342.746 C 773.051 341.781 772.649 340.454 770.723 337.587 C 767.839 327.653 766.104 318.116 762.86 307.511 C 767.806 305.74 780.006 302.769 785.714 301.226 C 802.173 296.776 823.274 289.302 839.895 287.279 z" fill="rgb(13,150,104)" transform="translate(0,0)"></path>
<path d="M 242.738 346.656 C 248.774 351.814 256.183 369.82 260.198 378.154 C 244.572 381.985 229.911 386.293 214.5 390.827 L 196.463 395.275 C 211.812 380.847 228.33 362.232 242.738 346.656 z" fill="rgb(13,150,104)" transform="translate(0,0)"></path>
<path d="M 362.016 455.036 C 373.579 461.033 376.93 459.835 389.289 459.246 C 366.146 465.415 343.58 473.363 320.587 479.883 C 307.694 483.54 292.969 486.522 279.771 489.286 C 269.441 491.511 263.183 492.378 252.663 493.501 C 261.271 488.201 271.693 485.567 281.324 482.473 C 308.34 473.796 334.947 463.495 362.016 455.036 z" fill="rgb(13,150,104)" transform="translate(0,0)"></path>
<path d="M 799.97 179.237 L 801.327 180.346 L 800.759 181.55 C 789.267 185.769 769.653 190.392 756.938 194.276 C 728.387 203.212 699.908 212.372 671.501 221.754 L 670.641 221.642 C 670.302 218.743 672.251 216.225 673.768 213.14 C 711.678 206.237 760.201 187.037 799.97 179.237 z" fill="rgb(13,150,104)" transform="translate(0,0)"></path>
<path d="M 116.121 827.088 C 107.599 803.741 102.194 787.564 97.2131 763.27 C 84.4696 702.049 84.9953 636.872 106.069 577.496 C 114.066 555.292 125.981 522.987 151.993 517.839 C 174.453 513.393 200.282 537.621 214.335 553.172 C 265.354 609.633 292.807 688.854 306.204 762.329 C 311.812 755.612 319.323 749.393 327.658 746.627 C 376.451 730.692 411.183 780.539 426.155 820.086 C 462.421 915.881 419.486 1039.82 329.288 1089.72 C 317.477 1096.25 304.63 1101.01 291.997 1105.71 C 298.905 1131.52 304.381 1158.03 310.205 1184.14 L 338.309 1311.09 C 342.104 1328.29 346.301 1351.65 350.559 1367.94 C 338.354 1362.62 326.227 1357.13 314.182 1351.47 L 269.001 1109.66 C 145.945 1123.39 31.8723 1028.06 64.2138 896.294 C 71.5598 866.364 88.8582 842.006 116.121 827.088 z" fill="rgb(13,150,104)" transform="translate(0,0)"></path>
<path d="M 213.626 838.14 C 211.107 822.124 206.666 803.965 203.104 787.999 L 183.325 699.837 C 180.704 687.807 177.751 673.606 174.836 661.425 C 174.414 659.66 175.835 658.65 177.063 657.234 L 179.004 657.551 C 185.854 665.494 207.052 759.299 211.155 776.029 L 249.611 928.838 C 256.007 954.464 263.243 990.442 271.482 1014.38 C 301.06 963.201 332.29 912.726 360.933 861.042 C 363.763 855.936 367.394 849.653 373.255 847.875 L 374.569 848.808 C 374.883 851.719 373.917 854.898 372.534 857.468 C 341.677 914.795 304.456 969.625 273.494 1026.75 C 279.712 1051.88 286.851 1080.71 291.997 1105.71 C 298.905 1131.52 304.381 1158.03 310.205 1184.14 L 338.309 1311.09 C 342.104 1328.29 346.301 1351.65 350.559 1367.94 C 338.354 1362.62 326.227 1357.13 314.182 1351.47 L 269.001 1109.66 C 263.749 1080.18 257.371 1044.17 250.563 1015.19 C 207.192 976.966 158.561 941.269 113.169 905.305 C 109.813 902.646 106.804 899.731 106.475 895.405 L 108.388 894.529 C 112.976 895.237 116.31 897.384 119.82 900.253 C 162.34 935.003 207.512 968.312 248.706 1004.6 C 237.037 953.562 228.568 901.927 215.411 851.317 C 201.365 839.21 153.464 765.228 140.734 746.436 C 139.111 744.04 139.015 742.197 139.846 739.554 L 141.419 739.541 C 150.211 744.513 202.879 823.378 213.626 838.14 z" fill="rgb(26,58,40)" transform="translate(0,0)"></path>
<path d="M 692.657 1432.96 C 954.475 1342 1186.53 1203.62 1406.93 1039.61 C 1422.9 1027.72 1450.9 991.559 1466.95 1021.62 C 1474.6 1035.92 1453.72 1050.53 1444.68 1057.88 C 1380.26 1110.26 1310.35 1155.31 1240.49 1199.96 C 1149.23 1259.44 1054.64 1313.65 957.191 1362.33 C 894.128 1393.26 831.356 1420.81 765.465 1445.2 C 757.087 1448.3 705.749 1466.76 703.232 1468.72 L 692.657 1432.96 z" fill="rgb(245,158,11)" transform="translate(0,0)"></path>
<path d="M 416.49 1545.47 C 396.276 1550.2 363.052 1562.21 343.399 1569.4 C 280.825 1592.29 196.915 1624.94 144.422 1665.91 C 132.141 1675.48 120.665 1686.04 110.107 1697.49 C 101.442 1707 90.917 1735.69 73.6382 1725.47 C 51.5733 1712.35 68.6037 1689.9 80.3697 1676.84 C 160.074 1588.38 300.383 1547.11 409.012 1510.79 C 411.287 1522.4 413.781 1533.96 416.49 1545.47 z" fill="rgb(245,158,11)" transform="translate(0,0)"></path>
<path d="M 155.994 1375.54 C 158.93 1379.2 168.67 1406.15 174.069 1414.71 C 191.008 1441.57 209.847 1451.44 239.787 1459.07 C 192.247 1476.51 170.023 1494.89 157.486 1546.44 L 156.424 1546.45 C 152.466 1530.99 151.417 1521.56 143.901 1506.97 C 128.789 1477.63 104.933 1467.26 75.2475 1457.79 C 129.828 1439.55 136.704 1427.71 155.994 1375.54 z" fill="rgb(245,158,11)" transform="translate(0,0)"></path>
<path d="M 1317.16 139.631 C 1320.68 144.316 1328.85 169.697 1334.55 179.73 C 1349 205.162 1369.68 215.926 1396.96 223.916 C 1355.81 238.755 1340.41 250.453 1323.85 294.297 C 1321.91 299.444 1321.13 306.822 1317.51 310.418 C 1300.03 257.528 1288.48 239.375 1233.84 223.345 C 1288.05 209.207 1300.19 191.682 1317.16 139.631 z" fill="rgb(245,158,11)" transform="translate(0,0)"></path>
<metadata><recraft-signature>{"signed_by": "recraft", "signature_b64": "fEA7Ym7gdjCHYyW1QRV+Z1j5oYdj/19Y82Vm7spurre895FM9hfJjxPrJmrByjp4kuGOYjvh6IhY0Q8mhUD6Cg==", "signing_algo": "Ed25519", "generation_timestamp": 1780384960, "identifier": "31da38b1-8c4b-419a-8b61-adc546762613"}</recraft-signature></metadata></svg>