<svg xmlns="http://www.w3.org/2000/svg" height="1365" preserveAspectRatio="none" style="display: block;" version="1.1" viewBox="0 0 1536 2048" width="1024">
<path d="M 0 0 L 1536 0 L 1536 2048 L 0 2048 L 0 0 z" fill="rgb(246,242,231)" transform="translate(0,0)"></path>
<path d="M 630.074 62.1384 C 630.959 62.0323 631.845 61.9441 632.734 61.8739 C 634.615 61.7324 637.51 61.5923 639.111 62.4408 C 654.982 70.8551 698.357 93.8758 710.501 104.319 C 712.474 109.775 713.061 113.581 713.083 119.383 C 713.339 188.818 713.261 258.416 713.443 327.828 L 714.036 831.26 L 713.954 1045.11 L 714.079 1122.97 C 714.04 1137.21 714.222 1152.45 713.715 1166.57 C 713.053 1185.03 699.835 1206.78 685.288 1217.73 C 668.677 1230.24 648.258 1239.06 630.618 1250.27 C 593.479 1273.86 555.893 1296.78 518.085 1319.33 L 312.5 1442.53 C 290.681 1455.41 271.308 1468.18 248.846 1480.67 C 243.108 1484.34 237.359 1488.11 231.328 1491.29 C 224.772 1494.74 219.592 1495.97 212.322 1493.66 C 201.016 1490.06 155.792 1465.03 151.308 1454.77 C 148.027 1447.25 150.221 1264.84 150.218 1241.25 L 150.79 547.859 L 150.469 444.309 C 150.397 427.513 149.813 407.486 150.517 390.954 C 150.764 383.473 152.176 376.076 154.702 369.03 C 159.363 356.381 170.432 343.816 181.346 336.294 C 207.091 318.551 235.376 302.566 262.06 286.13 L 445.694 174.174 L 556.875 105.5 C 572.595 95.6714 614.089 69.3623 630.074 62.1384 z" fill="rgb(26,58,40)" transform="translate(0,0)"></path>
<path d="M 686.079 110.773 C 689.609 111.351 689.934 111.25 692.485 113.538 C 696.02 123.017 693.849 322.57 693.88 349.99 L 694.375 888.488 C 695.008 955.157 695.207 1021.83 694.973 1088.5 C 695.03 1111.04 695.17 1134.16 695.15 1156.66 C 695.115 1196.76 670.375 1205.38 641.631 1223.07 L 555.874 1274.86 C 447.161 1341.21 338.033 1406.88 228.497 1471.87 C 224.512 1473.94 219.534 1475.16 215.161 1476.46 C 213.763 1459.1 214.65 1424.18 214.573 1405.34 L 214.379 1258.99 L 214.248 842.628 L 213.873 528.575 L 213.797 463.787 C 213.755 447.032 212.62 429.039 215.789 412.641 C 220.069 390.487 235.922 382.873 253.586 372.201 C 266.102 364.639 278.783 356.944 291.372 349.341 L 408.335 279.08 C 501.286 223.589 593.869 167.486 686.079 110.773 z" fill="rgb(246,242,231)" transform="translate(0,0)"></path>
<path d="M 672.648 136.75 C 682.297 136.771 682.738 147.666 682.759 155.107 C 682.898 204.41 682.165 253.738 682.083 303.037 L 682.546 592.354 L 683.092 967.556 C 683.19 1035.76 684.83 1111.37 683.028 1179.11 C 672.862 1191.78 634.336 1212.6 619.036 1221.77 L 549.565 1263.53 C 448.116 1326.09 346.104 1387.72 243.542 1448.43 C 239.459 1451.66 230.906 1456.35 226.13 1459.16 L 226.31 718.635 L 225.941 508.207 L 225.89 452.19 C 225.89 441.196 224.334 408.394 234.56 401.491 C 257.654 385.899 282.98 372.262 306.983 357.832 L 479.265 254.784 L 593.217 185.078 C 607.864 175.951 622.327 166.38 637.386 157.954 C 649.51 151.171 660.303 143.145 672.648 136.75 z" fill="rgb(26,58,40)" transform="translate(0,0)"></path>
<path d="M 505.093 423.388 C 543.947 414.647 565.171 454.569 569.804 486.9 C 582.459 575.214 514.959 702.342 422.085 715.705 C 420.053 716.065 417.943 716.408 415.865 716.476 C 370.829 717.966 354.381 678.914 354.522 639.076 C 354.748 575.446 389.259 513.594 431.613 467.771 C 445.658 452.577 484.214 423.844 505.093 423.388 z" fill="rgb(245,158,11)" transform="translate(0,0)"></path>
<path d="M 421.595 508.91 C 448.146 514.613 478.905 514.224 505.836 519.645 C 514.878 521.465 527.009 521.082 535.743 523.789 L 536.068 525.477 C 531.228 534.431 516.604 553.829 510.121 562.539 C 497.358 579.564 484.711 596.674 472.179 613.87 C 463.442 624.976 432.386 669.963 424.395 676.79 L 422.54 676.59 C 422.035 675.912 421.87 675.765 421.522 675.059 C 419.237 670.43 417.924 519.65 421.595 508.91 z" fill="rgb(26,58,40)" transform="translate(0,0)"></path>
<path d="M 427.931 516.806 C 444.852 522.058 511.878 525.326 521.875 530.49 L 522.238 532.096 C 517.99 540.202 508.007 552.891 502.303 560.525 C 491.402 574.902 480.69 589.42 470.169 604.078 C 459.856 619.056 439.236 647.294 427.648 661.113 C 425.495 618.184 427.299 560.537 427.931 516.806 z" fill="rgb(13,150,104)" transform="translate(0,0)"></path>
<path d="M 672.084 146.865 C 674.972 148.618 674.594 211.334 673.289 217.561 C 672.006 223.684 618.92 254.505 611.478 259.056 L 509.159 321.669 C 418.459 378.502 327.346 434.672 235.825 490.173 L 234.487 489.615 C 233.4 485.524 233.846 430.889 234.178 422.573 C 234.332 418.716 236.485 410.933 240.361 408.182 C 254.032 398.477 269.461 390.518 283.977 381.84 L 366.647 332.141 C 441.003 288.427 514.825 243.809 588.095 198.299 C 616.501 180.81 643.914 165.278 672.084 146.865 z" fill="rgb(245,158,11)" transform="translate(0,0)"></path>
<path d="M 524.315 251.802 C 535.877 252.628 531.454 268.843 525.304 273.697 C 515.675 281.296 504.576 287.444 494.07 293.799 C 475.785 304.971 457.432 316.031 439.012 326.979 C 426.29 334.496 408.288 344.442 397.014 353.053 C 381.283 352.071 390.915 332.682 398.271 327.373 C 402.495 324.348 407.103 321.665 411.609 319.053 C 449.257 297.233 486.174 272.708 524.315 251.802 z" fill="rgb(26,58,40)" transform="translate(0,0)"></path>
<path d="M 532.001 1112.34 C 539.741 1113.11 540.994 1113.9 547.172 1118.08 C 568.71 1176.76 494.372 1205.56 455.385 1230.51 C 445.647 1236.74 401.713 1264.3 394.615 1265.68 C 384.656 1266.87 377.283 1263.7 374.738 1253.23 C 371.452 1239.72 375.538 1225.5 382.176 1213.61 C 386.291 1206.24 391.61 1199.3 398.478 1194.13 C 419.109 1180.54 514.547 1117.24 532.001 1112.34 z" fill="rgb(246,242,231)" transform="translate(0,0)"></path>
<path d="M 517.221 1148.72 C 520.677 1150.51 519.401 1149.26 521.361 1152.4 C 521.92 1156.65 520.511 1159.67 519.184 1163.82 C 489.993 1183.93 456.606 1201.49 426.48 1220.37 C 420.118 1224.35 412.118 1229.96 405.319 1232.51 C 403.681 1231.95 403.333 1231.54 401.828 1230.54 C 400.37 1228 399.65 1225.97 400.442 1223.03 C 403.326 1212.31 502.527 1156.86 517.221 1148.72 z" fill="rgb(245,158,11)" transform="translate(0,0)"></path>
<path d="M 328.843 1070.93 C 332.157 1071.11 330.869 1070.45 332.962 1072.7 C 334.048 1082.96 334.354 1152.77 331.959 1160.87 C 310.873 1174.22 288.338 1186.5 267.593 1200.04 C 264.959 1201.74 266.357 1201.3 263.259 1201.47 L 261.55 1199.73 C 259.545 1191.97 260.59 1123.76 261.753 1113.58 C 272.022 1105.18 317.224 1076.87 328.843 1070.93 z" fill="rgb(245,158,11)" transform="translate(0,0)"></path>
<path d="M 296.254 1149.25 C 304.973 1132.73 309.634 1110.17 320.338 1094.54 L 321.997 1094.18 C 324.67 1102.76 306.054 1142.33 301.263 1151.03 C 301.398 1153.6 296.889 1161.74 295.461 1164.61 C 290.992 1162.56 267.401 1145.37 266.454 1142.55 L 269.268 1140.07 C 276.745 1138.75 283.97 1150.67 292.629 1154.69 C 294.992 1153.47 294.8 1152.35 296.254 1149.25 z" fill="rgb(26,58,40)" transform="translate(0,0)"></path>
<path d="M 329.839 939.994 L 332.254 940.873 C 334.514 946.138 332.92 1014.72 332.936 1026.24 L 329.654 1031.92 L 288.643 1056.97 C 280.995 1061.72 271.488 1068.69 263.506 1072 C 259.276 1066.26 261.996 999.865 261.712 987.78 C 261.664 985.729 265.538 982.002 267.286 980.331 C 273.435 977.741 323.75 944.949 329.839 939.994 z" fill="rgb(245,158,11)" transform="translate(0,0)"></path>
<path d="M 318.333 965.478 C 321.549 967.464 321.496 966.704 322.557 969.501 C 321.335 976.367 298.557 1028.22 294.547 1035.84 C 289.705 1033.16 281.856 1026.73 277.22 1023.16 C 272.972 1020.22 270.39 1019.55 270.625 1014.01 L 272.24 1012.94 C 278.541 1013.96 288.114 1021.21 293.811 1025.02 C 299.935 1007.68 311.071 983.16 318.333 965.478 z" fill="rgb(26,58,40)" transform="translate(0,0)"></path>
<path d="M 327.007 813.434 C 328.542 813.605 329.962 814.101 331.464 814.527 C 333.85 817.694 333.131 826.808 332.991 831.15 C 332.291 852.988 332.383 874.759 332.494 896.606 C 317.969 914.511 282.938 927.28 266.281 942.104 C 264.556 943.572 263.327 943.096 261.653 942.409 C 260.717 937.348 260.97 917.845 261.039 911.864 C 261.249 893.843 260.485 874.091 261.74 856.236 C 280.487 841.21 307.485 828.079 327.007 813.434 z" fill="rgb(245,158,11)" transform="translate(0,0)"></path>
<path d="M 316.529 842.393 C 319.119 842.924 319.343 842.748 321.251 844.649 C 321.466 848.049 296.166 904.242 293.76 905.808 C 286.997 905.435 279.493 898.933 273.789 894.836 C 271.237 893.458 271.256 893.436 269.157 891.407 C 269.488 888.12 268.897 889.564 271.123 886.98 C 277.319 886.123 286.057 893.346 291.566 897.047 C 297.851 884.408 303.571 870.8 309.581 857.978 C 312.777 851.16 312.246 849.233 316.529 842.393 z" fill="rgb(26,58,40)" transform="translate(0,0)"></path>
<path d="M 644.314 743.136 C 647.577 744.058 648.178 744.565 649.085 747.515 C 647.364 753.127 624.65 764.256 618.3 768.116 L 536.542 818.049 L 378.392 914.453 L 375.964 913.882 C 373.747 911.371 374.32 912.827 374.42 909.285 C 375.61 906.849 377.044 904.733 379.403 903.255 C 423.476 875.628 467.613 848.414 512.598 822.292 C 556.406 796.852 599.791 767.144 644.314 743.136 z" fill="rgb(245,158,11)" transform="translate(0,0)"></path>
<path d="M 641.627 654.999 C 645.838 654.813 647.741 654.124 649.176 658.331 C 647.832 662.495 644.72 664.037 641.17 666.198 C 615.097 682.065 588.86 697.707 562.849 713.669 L 381.565 825.215 C 378.328 826.53 379.38 826.669 376.695 825.789 C 374.8 821.642 376.462 818.083 380.267 815.63 C 404.616 800.296 429.255 785.341 453.84 770.371 C 516.451 732.245 578.534 692.218 641.627 654.999 z" fill="rgb(245,158,11)" transform="translate(0,0)"></path>
<path d="M 642.893 919.768 C 646.052 920.715 647.307 921.231 648.611 924.084 C 647.838 926.525 646.681 927.548 644.452 928.977 C 618.586 945.571 591.413 960.771 565.285 976.754 L 381.422 1089.67 C 379.116 1090.56 380.345 1090.32 377.543 1089.87 L 376.388 1088.11 C 376.336 1084.17 378.293 1081.65 381.475 1079.4 C 395.015 1069.84 409.357 1061.52 423.467 1052.84 C 449.735 1036.59 476.118 1020.52 502.613 1004.64 L 582.99 955.8 C 602.901 943.514 622.282 930.885 642.893 919.768 z" fill="rgb(245,158,11)" transform="translate(0,0)"></path>
<path d="M 642.846 832.734 C 645.857 833.054 647.103 833.981 648.251 836.588 C 646.602 842.131 627.909 851.392 622.231 854.723 C 611.46 861.127 600.772 867.668 590.168 874.344 C 520.75 917.357 447.472 958.333 379.684 1003.21 L 378.252 1002.93 C 375.139 1000.14 375.729 1001.48 375.282 997.917 C 378.638 990.148 407.406 974.797 416.462 969.251 L 510.463 912.555 L 591.95 862.933 C 605.513 854.603 629.476 838.962 642.846 832.734 z" fill="rgb(245,158,11)" transform="translate(0,0)"></path>
<path d="M 631.252 71.4519 C 632.752 72.1539 638.88 72.2484 644.112 75.1915 C 657.974 82.989 671.301 92.9413 685.342 100.132 C 678.472 105.356 658.345 116.377 650.371 121.033 C 632.355 131.589 614.504 142.425 596.825 153.536 C 506.329 208.902 415.535 263.78 324.446 318.166 L 269.153 352.197 C 206.509 390.556 204.963 388.054 204.951 462.778 L 204.981 535.051 C 204.731 614.822 204.949 694.592 205.637 774.36 L 206.074 1473.25 C 206.066 1475.01 205.884 1476.73 205.744 1478.49 L 204.601 1479.1 C 196.85 1475.6 163.685 1455.84 158.538 1450.12 C 157.572 1423.83 158.13 1393.28 158.121 1366.75 L 158.022 1223.21 L 158.203 745.363 L 158.674 472.603 C 158.81 454.257 157.002 392.653 160.963 378.518 C 164.794 365.145 172.83 353.362 183.882 344.916 C 191.372 339.096 215.569 325.638 225.075 319.808 L 333.288 254.069 C 415.755 202.519 498.653 151.658 581.971 101.493 C 598.311 91.8464 614.924 80.5982 631.252 71.4519 z" fill="rgb(13,150,104)" transform="translate(0,0)"></path>
<path d="M 171.338 463.631 C 179.066 463.645 185.165 469.738 190.373 474.851 C 190.902 479.577 191.055 484.793 190.9 489.552 C 190 517.159 190.594 544.802 189.793 572.39 C 189.641 577.632 186.419 580.836 182.593 583.936 C 164.646 585.235 162.653 572.508 162.911 557.767 C 163.403 529.7 161.868 500.81 163.077 472.74 C 163.246 468.805 168.27 465.599 171.338 463.631 z" fill="rgb(26,58,40)" transform="translate(0,0)"></path>
<path d="M 171.951 472.451 C 181.109 474.188 182.926 478.121 182.821 486.621 C 182.479 514.582 183.506 542.693 182.439 570.61 C 182.439 570.61 178.441 574.745 178.125 575.072 C 167.849 574.393 168.727 563.51 168.716 555.711 C 168.682 530.473 167.452 505.064 168.635 479.862 C 168.763 477.137 170.452 474.608 171.951 472.451 z" fill="rgb(245,158,11)" transform="translate(0,0)"></path>
<path d="M 175.342 606.031 C 186.193 607.923 189.187 614.667 189.731 624.843 C 190.151 645.205 190.784 666.044 190.35 686.416 C 190.011 702.319 195.021 715.126 180.657 724.325 C 161.75 719.774 163.019 712.905 162.781 694.93 C 162.435 668.759 163.61 642.393 162.591 616.239 C 166.839 609.968 167.835 608.396 175.342 606.031 z" fill="rgb(26,58,40)" transform="translate(0,0)"></path>
<path d="M 172.955 614.287 C 178.334 614.648 179.313 616.93 182.962 621.049 L 183.116 679.447 C 183.147 689.189 183.404 700.178 182.547 709.937 C 182.356 712.105 180.446 714.125 178.956 715.688 C 175.342 714.785 172.854 711.607 170.06 708.85 C 168.839 682.128 168.439 647.252 169.727 620.077 C 169.813 618.258 171.769 615.737 172.955 614.287 z" fill="rgb(245,158,11)" transform="translate(0,0)"></path>
<path d="M 971.182 1130.55 C 972.827 1130.92 980.002 1130.58 981.855 1130.39 C 992.202 1129.26 1005.33 1131.97 1014.47 1137.12 C 1078.74 1173.33 1142.6 1213.11 1205.78 1251.08 L 1316.9 1317.37 C 1337.65 1329.62 1367.37 1344.51 1385.28 1360.22 C 1393.75 1367.66 1395.66 1374.67 1396.31 1385.58 C 1397.08 1398.66 1398.26 1442.37 1395.58 1453.41 C 1394.37 1458.42 1391.61 1462.86 1388.17 1466.64 C 1374.84 1481.28 1306.36 1518.87 1283.95 1532.13 L 1195.86 1585.42 L 786.141 1833.57 L 682.809 1896.11 C 664.998 1907.09 642.065 1922.49 624.247 1932.33 C 612.608 1938.61 599.666 1942.1 586.446 1942.52 C 559.805 1944.94 517.203 1913.55 494.592 1899.76 L 375.801 1827.66 L 235.201 1743.3 C 223.315 1736.09 164.731 1704.9 163.345 1691.8 C 162.058 1679.64 160.271 1615.63 165.311 1608.55 C 175.341 1594.45 217.902 1572.41 235.223 1562.31 L 330.105 1506.42 L 656.532 1312.75 L 861.101 1190.35 C 882.517 1177.68 902.772 1164.02 924.157 1151.36 C 932.459 1146.44 941.764 1140.35 950.533 1136.46 C 956.634 1133.75 964.622 1132.56 971.182 1130.55 z" fill="rgb(26,58,40)" transform="translate(0,0)"></path>
<path d="M 973.869 1140.11 C 986.313 1140.11 999.484 1140.07 1010.72 1146.13 C 1050.01 1167.33 1087.9 1192.85 1126.11 1215.7 L 1322.26 1332.83 C 1337.53 1342.14 1353.13 1350.81 1368.37 1360.23 C 1375.89 1364.73 1388.43 1375.11 1387.04 1385.11 C 1384.99 1399.92 1360.63 1410.26 1350.12 1417.39 C 1325.45 1434.13 1300.15 1448.79 1274.91 1464.19 L 1033.49 1610.96 L 771.984 1770.13 L 674.864 1829.7 C 649.731 1845.19 614.356 1872.36 585.034 1872.04 C 571.985 1871.76 563.554 1869.04 552.248 1862.29 C 431.635 1790.21 312.153 1716.19 191.025 1644.98 C 177.408 1636.98 169.614 1629.97 174.319 1614.14 C 186.067 1601.27 252.471 1565.27 270.684 1554.53 L 497.258 1421.37 L 806.504 1236.75 L 907.238 1176.06 C 922.372 1166.82 937.08 1156.65 952.312 1147.64 C 957.488 1144.57 967.766 1141.86 973.869 1140.11 z" fill="rgb(13,150,104)" transform="translate(0,0)"></path>
<path d="M 936.549 1171.96 C 943.993 1175.84 957.404 1185.3 965.682 1190.18 L 1064.86 1249.75 L 1218.12 1341.78 C 1258.54 1365.63 1301.46 1389.69 1341.32 1414.03 C 1284.65 1444.61 1223.42 1484.78 1167.67 1518.12 L 788.805 1747.01 L 684.097 1811.28 C 672.447 1818.37 660.921 1825.71 649.381 1832.98 C 646.155 1835.01 646.07 1834.74 642.895 1834.27 C 621.504 1820.48 596.889 1806.79 574.893 1793.36 C 488.69 1740.83 401.961 1689.17 314.721 1638.38 C 290.954 1624.24 266.917 1610.66 242.969 1596.84 C 238.935 1594.52 237.049 1593.9 236.275 1590.39 C 238.118 1587.34 261.766 1574.37 267.201 1571.17 L 347.224 1523.55 L 613.558 1366.06 L 792.185 1258.53 C 826.297 1238.52 860.274 1218.28 894.112 1197.81 C 907.845 1189.49 923.362 1180.84 936.549 1171.96 z" fill="rgb(26,58,40)" transform="translate(0,0)"></path>
<path d="M 935.274 1184.79 C 940.471 1185.31 982.655 1212.42 989.59 1216.57 L 1220.95 1354.59 C 1248.11 1370.66 1294.74 1401.76 1322.4 1414.3 L 878.786 1681.75 L 737.212 1767.38 C 726.997 1773.64 647.333 1823.31 643.571 1823.52 C 607.429 1800.92 569.832 1779.47 533.24 1757.69 L 378.939 1666.11 C 337.366 1641.9 295.413 1614.83 253.247 1592.05 C 260.573 1586.28 272.44 1579.8 280.87 1574.76 L 321.453 1550.26 L 497.048 1446.5 L 935.274 1184.79 z" fill="rgb(245,158,11)" transform="translate(0,0)"></path>
<path d="M 678.122 1453.58 C 683.561 1453.5 688.874 1453.25 694.409 1453.11 C 754.053 1450.63 859.952 1483.88 855.438 1557.8 C 852.284 1609.45 776.725 1643.94 731.232 1647.22 C 725.673 1647.62 718.579 1649.17 713.255 1648.53 C 663.466 1651.96 600.686 1640.53 561.148 1607.39 C 527.487 1579.17 520.446 1535.72 551.309 1501.93 C 581.599 1468.77 634.229 1455.73 678.122 1453.58 z" fill="rgb(26,58,40)" transform="translate(0,0)"></path>
<path d="M 657.469 1476.76 C 665.58 1479.27 666.696 1479.32 671.599 1486.1 C 667.504 1493.63 659.643 1511.31 655.958 1519.42 C 649.257 1534.18 633.582 1560.9 630.68 1575.62 C 684.378 1575.84 738.635 1578.68 792.384 1578.71 C 798.037 1578.72 805.223 1581.08 805.244 1587.74 C 802.135 1593.34 797.445 1594.63 791.373 1593.24 C 780.87 1592.46 767.517 1592.58 756.595 1592.22 C 708.234 1590.63 659.774 1591.16 611.387 1588.99 C 604.678 1588.69 604.562 1589.17 600.931 1585.21 C 600.747 1578.26 617.931 1547.54 621.771 1539.12 C 629.871 1521.37 637.71 1502.17 647.227 1485.13 C 649.512 1481.04 653.527 1478.98 657.469 1476.76 z" fill="rgb(245,158,11)" transform="translate(0,0)"></path>
<path d="M 391.7 1695.82 C 403.623 1695.91 442.257 1726.16 455.036 1732.12 C 459.84 1734.37 471.583 1742.38 471.76 1748.36 C 467.511 1754.72 439.712 1770.55 432.086 1774 C 428.541 1773.91 423.042 1772.86 420.388 1770.68 C 408.085 1760.58 356.766 1735.98 351.03 1724.05 C 352.629 1715.92 383.731 1699.57 391.7 1695.82 z" fill="rgb(26,58,40)" transform="translate(0,0)"></path>
<path d="M 1101.5 1232.97 C 1104.1 1232.88 1106.38 1233.02 1108.65 1234.51 C 1127.66 1247.12 1146.86 1259.27 1166.35 1271.12 C 1175.5 1276.68 1184.68 1281.9 1193.89 1287.29 C 1205.93 1294.33 1220.81 1301.52 1230.99 1311.09 C 1231.21 1318.33 1225.08 1321.22 1219.47 1324.21 C 1213.71 1323.91 1204.93 1318.51 1199.98 1315.34 C 1166.53 1293.92 1132.18 1274.09 1098.17 1253.6 C 1084.65 1245.46 1089.05 1238.24 1101.5 1232.97 z" fill="rgb(26,58,40)" transform="translate(0,0)"></path>
<path d="M 1385.82 1405.96 L 1386.52 1406.85 C 1386 1421.85 1391.25 1447.36 1381.53 1459.47 C 1371.5 1471.98 1271.81 1528.69 1250.27 1541.72 L 923.166 1738.48 L 712.868 1865.9 C 683.467 1883.72 654.327 1901.74 624.998 1919.86 C 606.696 1931.17 580.263 1936.51 560.11 1926.55 C 544.454 1918.82 528.532 1907.97 513.417 1898.95 L 404.417 1833.17 C 351.312 1801.77 298.514 1769.86 246.029 1737.43 C 226.656 1725.61 194.423 1708.67 177.258 1695.14 L 172.004 1687.36 C 171.871 1673.34 171.809 1659.32 171.817 1645.29 C 178.34 1650.32 190.653 1657.35 198.131 1661.78 L 253.304 1693.71 L 403.984 1784.72 L 508.813 1848.33 C 535.065 1864.24 558.651 1884.74 591.152 1881.97 C 622.484 1879.31 649.014 1858.76 674.858 1842.43 L 739.04 1802.45 L 929.121 1686.82 L 1279.69 1474.32 C 1298 1463.04 1376.1 1417 1385.82 1405.96 z" fill="rgb(13,150,104)" transform="translate(0,0)"></path>
<path d="M 1232.83 1518.78 C 1247.62 1515.87 1245.29 1531.32 1244.69 1540.15 C 1231.14 1550.87 1191.6 1572.77 1174.57 1583.06 C 1170.21 1584.82 1169.23 1585.63 1165.77 1582.3 C 1163.9 1576.87 1164.78 1567.42 1164.93 1561.16 C 1187.6 1543.45 1208.64 1533.13 1232.83 1518.78 z" fill="rgb(26,58,40)" transform="translate(0,0)"></path>
<path d="M 1331.61 1458.91 C 1336.53 1458.5 1338.2 1458.24 1341.73 1461.66 C 1342.68 1467.76 1343.15 1480.76 1337.29 1484.73 C 1317.3 1498.3 1295.89 1509.91 1275.62 1523.15 C 1271.54 1524.96 1270.52 1525.14 1267.31 1521.93 C 1264.74 1514.8 1266.03 1506.32 1266.61 1498.69 C 1281.15 1487.84 1314.94 1468.83 1331.61 1458.91 z" fill="rgb(26,58,40)" transform="translate(0,0)"></path>
<path d="M 1138.74 1573.76 C 1150.08 1577.55 1147.55 1585.67 1147.38 1596.19 C 1124.37 1607.64 1099.96 1626.43 1077.33 1637.59 C 1073.6 1637.96 1075.28 1638.34 1072.08 1636.46 C 1068.48 1631.21 1068.96 1618.48 1073.48 1614.96 C 1093.58 1599.3 1118.02 1588.85 1138.74 1573.76 z" fill="rgb(26,58,40)" transform="translate(0,0)"></path>
<path d="M 995.742 174.632 C 1017.6 171.844 1038.49 187.126 1051.98 202.964 C 1080.66 236.627 1110.65 291.223 1069.54 327.704 C 1127.65 374.554 1172.67 448.761 1183.55 523.261 C 1186.64 552.714 1186.34 593.006 1167.09 616.88 C 1154.87 632.038 1132.89 642.718 1116.57 653.137 C 1105.7 660.075 1092.4 668.147 1080.53 672.425 C 1074.55 674.582 1060.15 673.865 1053.91 674.657 L 1052.72 674.819 C 953.945 662.517 867.894 525.129 857.657 433.003 C 854.304 402.825 856.087 366.359 876.062 342.047 C 887.174 328.522 900.644 325.15 915.516 317.733 C 940.17 303.609 957.364 285.515 986.923 282.543 C 971.069 254.331 949.622 184.952 995.742 174.632 z" fill="rgb(26,58,40)" transform="translate(0,0)"></path>
<path d="M 933.43 324.448 C 934.29 324.241 934.305 324.162 935.169 324.247 C 1029.76 333.564 1101.66 448.397 1120.55 532.466 C 1129.19 570.909 1125.92 628.234 1097.71 654.736 C 1088.78 663.131 1071.94 669.289 1060.27 668.668 C 1028.98 669.902 987.99 641.341 965.325 620.295 C 912.273 571.034 868.702 494.69 864.84 421.203 C 863.593 397.494 866.197 361.693 883.198 344.139 C 897.927 328.932 913.214 325.257 933.43 324.448 z" fill="rgb(245,158,11)" transform="translate(0,0)"></path>
<path d="M 929.467 340.301 C 955.601 341.908 969.212 343.237 993.297 358.244 C 1051.34 394.599 1091.31 458.53 1107.38 524.367 C 1118.53 570.076 1115.94 634.572 1060.25 647.099 C 1040.06 648.917 1021.31 643.954 1003.83 633.308 C 946.873 598.107 903.986 535.749 886.094 471.77 C 874.386 429.9 871.065 357.171 923.393 342.873 C 926.198 342.106 926.894 341.805 929.467 340.301 z" fill="rgb(26,58,40)" transform="translate(0,0)"></path>
<path d="M 934.438 347.58 C 952.282 346.759 969.658 353.758 985.043 362.2 C 1043.47 394.259 1081.13 452.877 1099.62 515.594 C 1108.87 546.961 1112.18 584.165 1095.75 613.595 C 1086.58 630.017 1075.13 636.327 1057.76 641.361 C 976.924 643.26 899.405 525.103 887.768 453.92 C 882.415 421.173 881.44 376.018 912.518 354.744 C 920.043 349.592 925.925 349.103 934.438 347.58 z" fill="rgb(246,242,231)" transform="translate(0,0)"></path>
<path d="M 995.61 393.414 C 998.089 394.1 998.08 394.326 999.921 396.02 C 1003.22 405.08 1002.44 456.983 1002.51 469.956 C 1010.48 475.3 1010.63 476.71 1015.55 485.309 C 1027.68 483.828 1068.94 474.795 1076.51 476.431 C 1079.62 479.724 1080.95 484.2 1077.38 487.609 C 1063.99 489.643 1045.53 494.448 1031.92 497.651 L 1021.68 499.512 C 1024.7 554.152 974.727 518.458 971.806 485.385 C 969.131 455.104 993.074 467.57 994.213 461.993 C 996.583 450.393 990.247 402.988 995.61 393.414 z" fill="rgb(26,58,40)" transform="translate(0,0)"></path>
<path d="M 984.681 470.105 C 993.705 471.715 999.081 474.365 1004.47 481.736 C 1011.63 491.51 1019.92 509.994 1008 518.975 C 988.529 519.756 968.286 483.521 984.681 470.105 z" fill="rgb(245,158,11)" transform="translate(0,0)"></path>
<path d="M 996.956 582.505 C 999.325 583.023 999.491 583.407 1001.36 584.908 C 1004.1 591.394 1003.65 609.94 1001.89 616.611 C 998.784 617.026 998.463 617.214 996.398 615.243 C 993.614 608.456 995.023 589.53 996.956 582.505 z" fill="rgb(26,58,40)" transform="translate(0,0)"></path>
<path d="M 1079.27 536.478 C 1085.8 537.698 1095.03 547.129 1099.92 551.804 C 1104.42 556.104 1104.45 556.888 1104.73 562.697 C 1097.06 559.701 1079.05 545.766 1079.27 536.478 z" fill="rgb(26,58,40)" transform="translate(0,0)"></path>
<path d="M 893.178 437.389 C 899.328 438.369 907.408 442.839 911.759 447.359 C 914.677 450.39 914.092 450.748 914.099 454.51 C 908.348 453.282 900.712 449.556 896.412 445.492 C 892.675 441.958 893.258 441.707 893.178 437.389 z" fill="rgb(26,58,40)" transform="translate(0,0)"></path>
<path d="M 930.722 356.553 C 931.636 356.597 934.394 356.671 935.117 356.94 C 940.965 359.119 945.815 370.449 944.744 375.588 C 936.578 374.548 932.054 363.777 930.722 356.553 z" fill="rgb(26,58,40)" transform="translate(0,0)"></path>
<path d="M 1044.59 612.57 C 1052.07 616.124 1055.67 627.646 1052.83 635.135 C 1046.01 633.777 1043.37 617.616 1044.59 612.57 z" fill="rgb(26,58,40)" transform="translate(0,0)"></path>
<path d="M 903.097 378.711 C 905.879 380.043 909.397 384.66 911.351 387.213 C 914.738 391.638 915.061 392.486 914.768 397.594 C 913.502 397.356 911.983 396.889 910.714 396.543 C 905.301 391.413 900.641 386.642 903.097 378.711 z" fill="rgb(26,58,40)" transform="translate(0,0)"></path>
<path d="M 938.951 536.65 L 941.964 537.067 C 945.105 539.406 944.23 537.918 944.943 541.519 C 943.663 545.657 941.612 547.02 938.457 550.043 C 934.947 548.66 933.542 547.637 932.629 544.029 C 933.82 540.454 936.025 539.148 938.951 536.65 z" fill="rgb(26,58,40)" transform="translate(0,0)"></path>
<path d="M 1076.17 599.306 C 1081.82 601.408 1088.83 611.322 1089.74 617.12 C 1081.57 615.519 1075.2 607.628 1076.17 599.306 z" fill="rgb(26,58,40)" transform="translate(0,0)"></path>
<path d="M 985.714 291.39 L 988.895 291.127 C 994.661 295.351 1008.34 321.66 1011.81 329.16 C 1009.39 331.268 1008.43 332.224 1006.36 334.681 C 1008 343.719 1030.73 350.266 1038.94 352.631 C 1048.3 347.811 1054.65 339.252 1064.3 332.539 C 1124.42 387.929 1159.09 439.368 1174.54 521.041 C 1170.07 525.555 1150.29 539.065 1144.62 541.99 C 1140.48 544.875 1135.72 548.971 1131.72 552.229 C 1130.05 537.3 1127.48 521.725 1123.24 507.299 C 1101.25 432.448 1022.27 316.235 935.727 316.571 C 944.544 311.354 977.717 290.95 985.714 291.39 z" fill="rgb(13,150,104)" transform="translate(0,0)"></path>
<path d="M 996.461 191.139 C 1018.81 189.624 1038 213.268 1050.47 229.413 C 1067.55 251.52 1085.05 297.108 1055.75 317.295 L 1051.97 316.824 C 1044.11 310.457 1051.33 290.245 1019.56 273.958 C 1015.04 275.958 1010.12 278.467 1005.62 280.634 C 994.943 260.575 970.628 206.639 996.461 191.139 z" fill="rgb(246,242,231)" transform="translate(0,0)"></path>
<path d="M 1174.87 532.003 L 1175.43 532.57 C 1179.45 544.035 1174.97 577.862 1171.58 590.078 C 1164.61 615.123 1140.97 631.3 1118.71 643.047 C 1120.61 637.334 1123.56 631.881 1125.65 626.187 C 1130.33 613.384 1132.3 599.89 1133.48 586.36 C 1134.09 579.343 1132.47 572.046 1133.4 565.14 C 1134.14 559.583 1168.75 536.525 1174.87 532.003 z" fill="rgb(13,150,104)" transform="translate(0,0)"></path>
<path d="M 1013.2 281.98 C 1015.73 281.866 1018.01 281.7 1020.42 282.816 C 1028.17 286.398 1045.75 305.46 1040.68 314.58 C 1028.74 308.749 1016.42 298.951 1011.61 285.897 C 1011.07 284.417 1012.34 283.292 1013.2 281.98 z" fill="rgb(13,150,104)" transform="translate(0,0)"></path>
<path d="M 1031.46 323.236 L 1031.88 322.304 C 1036.47 324.618 1041.79 327.463 1046.42 329.498 C 1042.61 332.855 1041.37 335.245 1039.27 339.815 C 1037.6 333.037 1035.85 328.728 1031.46 323.236 z" fill="rgb(245,158,11)" transform="translate(0,0)"></path>
<path d="M 1180.95 1654.86 C 1190.39 1658.52 1393.09 1781.62 1396.19 1784.95 C 1400.43 1789.51 1399.1 1800.3 1399 1806.24 C 1391.49 1813.26 1347.32 1839.02 1335.87 1845.95 L 1185.42 1936.33 L 1183.55 1937.05 C 1180.44 1936.82 1178.97 1935.9 1176.32 1934.28 C 1107.31 1891.87 1038.18 1849.39 969.82 1806.02 C 966.944 1804.19 968.029 1787.26 968.122 1783.46 C 980.294 1776.82 996.541 1766.24 1008.78 1758.91 L 1100.96 1703.08 C 1127.61 1686.7 1154.82 1672.56 1180.95 1654.86 z" fill="rgb(26,58,40)" transform="translate(0,0)"></path>
<path d="M 1181.22 1665.87 C 1185.46 1666.29 1369.92 1777.6 1388.31 1788.09 C 1374.18 1798.77 1343.92 1815.42 1327.66 1825.02 C 1296.39 1843.84 1265.23 1862.85 1234.18 1882.04 C 1218.04 1891.92 1200.22 1901.38 1184.8 1912.05 L 1183.01 1913.12 C 1154.71 1893.56 1117.16 1871.84 1087.47 1853.92 C 1054.87 1834.24 1011.67 1804.29 978.152 1788.21 C 987.22 1781.79 1008.97 1770.41 1020.16 1763.56 L 1132.29 1695.64 C 1148.86 1685.58 1165.04 1676.65 1181.22 1665.87 z" fill="rgb(13,150,104)" transform="translate(0,0)"></path>
<path d="M 1168.88 1726.4 C 1205.69 1725.58 1231.74 1727.4 1264.7 1749.62 C 1275.74 1757.4 1288.37 1773.42 1289.89 1787.27 C 1294.75 1831.73 1237.84 1849.81 1204.84 1854.62 C 1168.62 1857.96 1131.52 1851.57 1101.36 1830.56 C 1078.24 1814.45 1072.07 1783.22 1089.97 1760.87 C 1109.7 1736.23 1139.47 1730.19 1168.88 1726.4 z" fill="rgb(26,58,40)" transform="translate(0,0)"></path>
<path d="M 1250.2 1751.69 C 1264.38 1755.43 1284.84 1781.94 1280.45 1798.23 C 1276.19 1814.05 1267.72 1820.86 1255.16 1829.81 C 1249.14 1826.66 1239.49 1820.38 1233.45 1816.67 C 1218.81 1807.43 1204.1 1798.29 1189.33 1789.25 C 1208.6 1777.25 1230.72 1762.57 1250.2 1751.69 z" fill="rgb(245,158,11)" transform="translate(0,0)"></path>
<path d="M 1183.08 1793.31 C 1185.09 1795.25 1196.74 1801.84 1199.96 1803.9 C 1215.3 1813.71 1233.44 1823.24 1247.78 1834.35 C 1228.23 1843.5 1208.11 1846.08 1186.84 1846.96 C 1161.55 1847.11 1142.14 1843.49 1119.55 1831.84 C 1139.86 1819.49 1162.62 1804.37 1183.08 1793.31 z" fill="rgb(245,158,11)" transform="translate(0,0)"></path>
<path d="M 1112.27 1750.78 C 1118.08 1751.9 1168.15 1783.63 1174.98 1788.65 C 1164.38 1796.52 1146.65 1807.27 1135.51 1813.87 C 1127.88 1818.36 1119.46 1823.01 1112.47 1828.34 C 1080.46 1805.68 1078.79 1772.96 1112.27 1750.78 z" fill="rgb(245,158,11)" transform="translate(0,0)"></path>
<path d="M 1169.57 1734.4 C 1195.64 1731.41 1218.33 1737.27 1241.89 1747.26 C 1228.34 1757.56 1204.79 1771.73 1189.8 1781.44 L 1181.69 1785.95 C 1161.73 1769.85 1140.78 1760.07 1119.99 1746.23 C 1138.75 1738.35 1149.77 1737.17 1169.57 1734.4 z" fill="rgb(245,158,11)" transform="translate(0,0)"></path>
<path d="M 913.221 775.631 L 915.927 775.311 C 927.358 773.919 930.502 776.32 939.563 782.679 C 942.444 788.889 944.035 792.518 946.117 798.995 C 960.793 801.16 972.094 810.493 981.012 821.922 C 993.767 838.267 996.84 859.054 1000.45 878.864 L 1007.36 916.089 C 1020.09 927.345 1029.74 938.172 1034.18 955.025 C 1038.27 970.527 1035.93 987.023 1027.68 1000.77 C 1012.7 1025.91 985.604 1035.8 958.792 1042.4 C 955.163 1063.6 945.364 1077.52 923.781 1082.01 C 897.436 1081.34 886.508 1065.95 880.82 1041.62 C 854.443 1036.05 827 1023.53 810.924 1000.97 C 788.849 969.986 804.027 936.316 832.95 916.291 C 842.672 883.776 838.917 841.707 864.541 816.237 C 871.378 809.441 883.832 801.847 893.131 799.592 C 898.839 785.851 899.523 781.433 913.221 775.631 z" fill="rgb(26,58,40)" transform="translate(0,0)"></path>
<path d="M 946.424 805.484 C 951.629 806.96 953.498 807.99 957.911 811.118 C 968.047 818.184 976.153 827.785 981.42 838.962 C 990.467 857.779 1000.55 924.984 1004.53 948.741 C 998.641 965.076 992.489 974.569 976.063 982.577 C 938.578 1000.85 908.125 998.731 870.372 987.254 C 857.017 979.737 834.194 966.48 836.109 948.206 C 839.627 914.653 848.129 880.518 855.993 847.69 C 860.945 827.016 874.614 817.207 892.338 807.831 C 896.957 825.564 896.618 830.943 914.644 838.748 C 940.057 837.251 944.618 829.427 946.424 805.484 z" fill="rgb(13,150,104)" transform="translate(0,0)"></path>
<path d="M 828.792 929.917 C 830.015 932.087 827.945 946.287 828.081 950.454 C 829.422 991.641 890.635 1006.96 923.362 1006.25 C 955.468 1005.55 1007.67 988.935 1013.09 951.316 C 1013.32 949.708 1010.97 936.792 1010.89 933.428 L 1012.77 933.066 C 1019.16 936.439 1026.19 957.051 1027.95 964.083 C 1028.51 966.352 1028.05 973.839 1027.89 976.491 C 1011.67 1056.07 837.468 1054.14 810.543 980.406 C 804.148 962.892 816.069 941.994 828.792 929.917 z" fill="rgb(13,150,104)" transform="translate(0,0)"></path>
<path d="M 918.349 782.415 C 923.813 783.219 925.708 783.959 930.877 785.782 L 937.922 796.183 C 938.223 809.62 938.175 823.312 924.616 830.149 C 920.609 830.17 915.433 830.41 911.991 828.198 C 900.465 820.788 898.733 801.092 905.581 789.991 C 909.014 784.425 912.555 783.871 918.349 782.415 z" fill="rgb(13,150,104)" transform="translate(0,0)"></path>
<path d="M 888.062 1042.54 C 907.944 1048.05 932.18 1046.71 952.317 1042.74 C 949.582 1051.05 947.848 1055.76 942.909 1062.95 C 935.223 1071.06 930.999 1072.92 920.238 1075.1 C 901.49 1070.16 891.729 1062.6 888.062 1042.54 z" fill="rgb(245,158,11)" transform="translate(0,0)"></path>
<path d="M 1248.26 881.115 C 1263.05 882.601 1271.46 892.597 1275.17 906.155 C 1276.16 909.754 1277.79 916.46 1279.44 919.494 C 1291.21 941.141 1302.66 963.272 1313.81 985.192 C 1334.1 969.949 1365.59 950.906 1387.61 935.86 C 1384.9 929.867 1374.74 917.858 1378.4 912.312 C 1383.46 911.119 1424.73 923.934 1427.77 929.201 C 1427.35 937.388 1421.06 971.372 1417.54 977.831 L 1415.41 977.505 C 1410.99 973.914 1406.84 964.812 1404.2 959.554 C 1393.43 964.33 1363.12 986.068 1351.88 994.011 C 1344.33 999.181 1317.5 1018.74 1310.29 1020.1 C 1303.1 1015 1266.03 940.541 1260.14 928.119 C 1256.49 926.037 1253.13 923.677 1249.65 921.323 C 1227.25 931.761 1206.99 944.317 1183.07 955.081 C 1169.22 985.62 1141.11 952.991 1147.09 933.394 C 1148.92 927.389 1153.21 926.035 1158.63 923.712 C 1163.04 925.465 1168.38 928.072 1172.78 930.076 C 1190.01 916.321 1218.56 908.395 1236.12 894.582 C 1239.85 891.642 1234.45 884.962 1248.26 881.115 z" fill="rgb(26,58,40)" transform="translate(0,0)"></path>
<path d="M 1388.48 921.921 C 1395.66 923.354 1412.63 929.998 1420.13 932.882 C 1416.95 942.158 1415.59 953.496 1414.15 963.273 C 1412 958.871 1409.34 952.665 1405.07 950.279 C 1397.49 951.382 1321.25 1003.79 1312.25 1012.25 C 1306.27 997.892 1290.03 970.513 1281.87 955.958 C 1279.32 951.633 1266.32 929.216 1266.68 926.062 L 1268.5 924.837 C 1278.73 926.013 1282.82 942.567 1287.13 950.417 C 1295.42 965.515 1303.52 980.632 1311.14 996.083 C 1328.05 986.64 1346.98 972.938 1363.47 962.12 C 1373.71 955.399 1390.85 944.698 1399.58 937.48 C 1394.09 932.148 1391.74 928.73 1388.48 921.921 z" fill="rgb(13,150,104)" transform="translate(0,0)"></path>
<path d="M 1236.02 905.06 C 1237.95 906.673 1241.22 911.861 1242.81 914.179 C 1224.27 925.778 1201.04 937.503 1181.62 947.381 L 1180.59 947.18 L 1175.68 936.253 C 1196.26 926.778 1216.39 916.369 1236.02 905.06 z" fill="rgb(13,150,104)" transform="translate(0,0)"></path>
<path d="M 1251.57 887.926 C 1258.81 890.795 1269.95 902.839 1268.64 911.08 C 1267.75 916.644 1265.38 916.871 1260.98 918.593 L 1257.53 918.752 C 1248.67 915.244 1241.73 902.607 1244.45 893.255 C 1245.31 890.285 1248.95 889.224 1251.57 887.926 z" fill="rgb(245,158,11)" transform="translate(0,0)"></path>
<path d="M 1155.48 931.694 C 1158.55 931.565 1160.3 931.502 1162.95 933.171 C 1168.48 936.684 1172.41 942.229 1173.89 948.612 C 1175.42 955.058 1174.42 957.299 1171.06 962.575 C 1159.99 956.973 1146.99 944.727 1155.48 931.694 z" fill="rgb(245,158,11)" transform="translate(0,0)"></path>
<path d="M 1372.55 1016.92 C 1378.46 1017.63 1418.01 1043.04 1423.82 1047.8 C 1424.91 1094.98 1422.74 1143.31 1424 1190.62 C 1424.15 1196.35 1424.77 1206.97 1421.44 1211.57 C 1415.05 1210.97 1378.56 1186.84 1370.09 1181.52 C 1369.89 1175.36 1369.92 1168.88 1369.94 1162.7 C 1370.09 1117 1369.68 1071.25 1370.4 1025.56 C 1370.44 1022.93 1371.64 1019.4 1372.55 1016.92 z" fill="rgb(26,58,40)" transform="translate(0,0)"></path>
<path d="M 1378.76 1026.94 C 1390.4 1035.74 1402.64 1043.72 1415.38 1050.82 C 1414.47 1100.71 1415.5 1150.78 1415.25 1200.66 C 1405.38 1192.51 1389.31 1182.97 1378.03 1177.05 L 1377.95 1077.97 C 1377.95 1067.19 1377.36 1036.19 1378.76 1026.94 z" fill="rgb(13,150,104)" transform="translate(0,0)"></path>
<path d="M 1344.9 1024.8 C 1349.98 1025.05 1356.37 1029.9 1360.09 1033.26 L 1360.04 1115.49 C 1360.03 1125.99 1361.37 1162.16 1357 1168.86 C 1351.73 1169.04 1337.64 1159.48 1332.48 1156.33 C 1324.41 1151.57 1309.15 1143.15 1303.03 1136.81 C 1303.54 1109.1 1302.96 1081.38 1303.06 1053.68 C 1310.59 1046.99 1335.81 1030.22 1344.9 1024.8 z" fill="rgb(26,58,40)" transform="translate(0,0)"></path>
<path d="M 1348.77 1032.79 C 1350.66 1033.32 1349.96 1033.09 1351.56 1034.62 C 1352.57 1040.98 1352.02 1067.41 1352.02 1075.12 L 1351.95 1160.82 C 1345.96 1156.11 1335.79 1150.28 1329.05 1146.14 C 1321.9 1141.93 1315.66 1138.17 1308.73 1133.56 C 1308.49 1108.76 1308.54 1083.96 1308.86 1059.17 C 1318.99 1052.47 1338.46 1037.31 1348.77 1032.79 z" fill="rgb(13,150,104)" transform="translate(0,0)"></path>
<path d="M 1247.55 989.83 C 1254.05 992.127 1288.06 1014 1294.01 1018.92 C 1294.35 1032.95 1296.15 1122.82 1292.69 1128.51 C 1289.22 1130.18 1290.94 1130.04 1287.36 1129.15 C 1271.6 1117.91 1254.09 1109.23 1238.51 1098.39 C 1236.76 1078.7 1240.13 1019.99 1238.91 996.534 C 1238.77 993.864 1244.81 991.131 1247.55 989.83 z" fill="rgb(26,58,40)" transform="translate(0,0)"></path>
<path d="M 1248.08 997.8 C 1253.33 1000.22 1284.32 1020.26 1288.88 1024.03 C 1288.95 1047.84 1290.32 1096.47 1287.74 1118.46 L 1286.13 1118.97 C 1277.01 1114.25 1268.14 1107.9 1259.25 1102.83 C 1254.1 1099.9 1249.73 1097.96 1244.46 1094.79 C 1244.5 1065.04 1244.54 1035.12 1244.57 1005.36 C 1244.57 1000.36 1245.06 1000.69 1248.08 997.8 z" fill="rgb(13,150,104)" transform="translate(0,0)"></path>
<path d="M 1184.35 986.783 C 1193.53 989.444 1222.76 1009.17 1231.02 1015.8 C 1231.04 1035.23 1231.2 1054.92 1231.07 1074.38 C 1231.03 1081.01 1230.34 1087.24 1223.12 1089.33 C 1210.96 1082.4 1189.72 1068.8 1178.88 1060.94 C 1170.92 1055.18 1174.05 1004.36 1174.02 993.515 C 1178.64 990.989 1180.21 990.138 1184.35 986.783 z" fill="rgb(26,58,40)" transform="translate(0,0)"></path>
<path d="M 1184.94 995.652 C 1191.66 996.681 1217.71 1014.73 1224.97 1019.47 C 1224.46 1039.45 1225.57 1061.68 1223.73 1081.44 L 1222.47 1081.66 C 1213.04 1074.27 1190.73 1060.31 1180.18 1055.04 C 1180.04 1037.93 1179.44 1018.55 1180.52 1001.39 C 1180.76 997.718 1182.35 997.386 1184.94 995.652 z" fill="rgb(13,150,104)" transform="translate(0,0)"></path>
<metadata><recraft-signature>{"signed_by": "recraft", "signature_b64": "F8xJ7XVH2mnHWAAvnGtSE4sCzPq1Phdc3z8Bv2dSPVsGGbO42f31v5qj561Rxl9YGhG9S3VevI44ceRe+sBHDA==", "signing_algo": "Ed25519", "generation_timestamp": 1780412108, "identifier": "babe4cb4-9ede-4589-9474-824b0e1680e4"}</recraft-signature></metadata></svg>