<svg xmlns="http://www.w3.org/2000/svg" height="1365" preserveAspectRatio="none" style="display: block;" version="1.1" viewBox="0 0 1536 2048" width="1024">
<path d="M 0 0 L 1536 0 L 1536 2048 L 0 2048 L 0 0 z" fill="rgb(242,234,212)" transform="translate(0,0)"></path>
<path d="M 1318.31 885.529 C 1327 884.61 1342.08 884.859 1351.26 884.753 C 1367.36 900.132 1382.81 918.075 1398.58 933.974 C 1405.65 941.099 1412.45 949.208 1420.15 955.567 L 1416.84 1564.27 L 1415.9 1780.47 L 1415.28 1874.79 C 1415.09 1892.17 1415.56 1910.37 1414.36 1927.63 C 1422.58 1927.89 1465.16 1925.42 1466.81 1932.24 C 1464.54 1935.35 1460.42 1936.3 1456.76 1936.3 C 1412.73 1936.28 1368.71 1936.13 1324.68 1935.91 L 1129.78 1936.14 L 546.128 1935.19 L 226.103 1935.84 L 124.885 1936 C 111.072 1936.02 97.3017 1936.14 83.4942 1936.35 C 78.9068 1936.42 72.6638 1935.72 71.0029 1930.96 L 72.468 1929.34 C 81.0567 1926.02 226.835 1928.05 246.837 1927.74 C 237.574 1924.18 230.47 1922.92 220.389 1918.19 C 179.033 1898.79 145.466 1867.34 117.637 1830.91 C 105.402 1814.9 73.1733 1767.92 73.4425 1746.3 C 73.6326 1743.63 76.9748 1740.25 79.1445 1739.21 C 137.295 1711.14 218.03 1724.95 272.285 1755.71 C 306.346 1775.02 343.538 1815.22 363.892 1847.38 C 363.969 1844.29 364.285 1835.48 363.436 1833.13 C 356.439 1813.77 338.693 1772.75 328.075 1756.57 C 276.541 1742.28 221.254 1724.71 177.972 1692.8 C 116.748 1647.65 80.4837 1563.99 69.2658 1490.59 C 67.3171 1477.84 61.3995 1443.2 69.1535 1431.82 C 71.515 1428.59 77.7378 1426.83 81.46 1426.88 C 149.891 1427.65 219.008 1454.97 270.244 1499.5 C 288.983 1515.57 312.002 1544.94 324.142 1566.44 C 348.676 1610.79 357.815 1662.02 350.129 1712.12 C 347.54 1728.01 343.301 1740.78 339.038 1756.17 C 347.87 1773.48 355.406 1790.56 364.028 1807.71 C 364.241 1792.04 363.405 1775.59 363.191 1759.78 L 361.837 1664.5 C 361.53 1650.1 359.742 1609.55 362.09 1598.72 C 365.391 1595.97 384.339 1596.29 389.595 1596.16 C 383.419 1559.8 374.003 1523.33 368.385 1486.76 C 367.325 1475.43 362.539 1475.97 353.402 1471.85 C 159.485 1384.54 122.128 1136.08 192.48 954.988 C 194.201 950.558 196.643 947.129 198.842 943.062 C 213.504 915.95 264.24 953.358 278.614 964.068 C 357.327 1022.71 419.242 1106.4 434.23 1205.11 C 448.369 1300.63 430.823 1399.9 375.568 1477.35 C 382.842 1514.43 390.088 1559.03 398.754 1595.19 L 400.345 1595.83 L 401.8 1594.96 C 402.008 1592.33 402.004 1590.05 402.035 1587.36 C 403.26 1483.23 481.552 1402.29 571.778 1361.64 C 575.188 1360.11 613.715 1360.61 620.027 1360.64 L 719.101 1361.08 C 736.833 1378.18 764.221 1406.71 780.479 1425.51 C 780.598 1368.85 780.102 1312.2 778.988 1255.55 C 778.728 1238.63 776.046 1188.56 779.352 1174.57 C 785.449 1171.64 911.724 1172.13 927.843 1172.28 C 935.632 1179.21 943.021 1187.65 950.498 1195.11 L 991.076 1235.22 C 991.179 1212.45 988.861 1073.27 992.696 1062.81 C 1002.45 1059.9 1128.53 1060.09 1144.27 1060.92 C 1161.09 1079.7 1182.65 1100.9 1200.32 1119.5 L 1200.06 963.855 L 1200.06 917.605 C 1200.06 910.839 1199.71 898.193 1200.49 891.826 C 1207.21 884.802 1300.87 887.259 1317.6 885.605 L 1318.31 885.529 z" fill="rgb(26,58,40)" transform="translate(0,0)"></path>
<path d="M 1155.93 1461.22 C 1158.29 1462.75 1166.66 1479 1168.54 1482.43 C 1200.82 1541.11 1223.62 1602.04 1248.6 1663.59 C 1266.38 1706.83 1283.19 1750.45 1299.02 1794.44 C 1310.08 1824.68 1322.67 1859.23 1331 1890.14 C 1321.8 1894.44 1292.07 1903.2 1280.93 1906.38 C 1259.83 1912.39 1228.09 1923.37 1207.37 1926.63 C 1194.47 1928.66 1158.63 1927.96 1143.92 1927.98 L 1021.75 1927.9 C 1015.49 1927.2 1003.77 1931.4 1002.12 1923.28 C 997.372 1899.88 989.863 1877.7 982.446 1855.07 C 957.195 1780.17 926.723 1707.14 891.254 1636.51 C 882.789 1619.35 873.781 1602.46 864.243 1585.87 C 860.697 1579.7 849.46 1561.86 847.324 1556.29 C 853.831 1549.54 1127.41 1469.45 1155.93 1461.22 z" fill="rgb(242,234,212)" transform="translate(0,0)"></path>
<path d="M 1209.37 1652.09 L 1213 1651.77 C 1223.43 1656.61 1270.25 1798.74 1279.59 1820.21 C 1280.82 1823.01 1281.42 1828.53 1280.93 1831.69 C 1279.62 1833.46 1275.4 1834.96 1273.24 1835.61 C 1194.52 1859.28 1116.33 1886.04 1037.6 1909.51 C 1035.17 1910.2 1029.54 1912.09 1028.34 1908.81 C 1023.24 1894.86 1019.68 1880.23 1014.81 1866.09 C 1005.11 1837.68 994.711 1809.53 983.612 1781.65 C 979.789 1771.84 964.484 1737.71 965.418 1730.5 C 975.224 1721.73 1181.63 1660.02 1209.37 1652.09 z" fill="rgb(26,58,40)" transform="translate(0,0)"></path>
<path d="M 1208.18 1661.16 L 1210.45 1661.12 C 1214.9 1665.55 1267.89 1812.73 1272.73 1827.56 C 1255.75 1833.18 1238.31 1838.73 1221.16 1843.8 C 1159.38 1862.07 1098.08 1884.12 1036.21 1902.01 L 1034.59 1902.49 C 1031.2 1900.35 1029.38 1888.65 1028.15 1884.02 C 1014.67 1833.55 987.626 1782.99 972.975 1733.89 C 997.853 1727.23 1026.04 1716.57 1050.95 1708.73 C 1102.72 1692.44 1155.6 1674.44 1208.18 1661.16 z" fill="rgb(242,234,212)" transform="translate(0,0)"></path>
<path d="M 1090.32 1725 C 1091.56 1725.26 1091.98 1725.71 1093.15 1726.42 C 1098.54 1738.32 1139.58 1844.21 1139.42 1851.9 C 1135.86 1856.75 1121.81 1860.08 1115.63 1861.96 C 1114.36 1861.72 1110.84 1860.96 1110.35 1859.56 C 1107.62 1851.76 1104.83 1844 1101.91 1836.28 L 1079.22 1775.74 C 1074.55 1763.28 1068.11 1747.48 1064.66 1734.87 C 1067.83 1731 1084.82 1726.66 1090.32 1725 z" fill="rgb(26,58,40)" transform="translate(0,0)"></path>
<path d="M 1085.65 1734.94 L 1087.06 1734.96 C 1090.66 1737.82 1127.16 1837.65 1132.38 1850.7 C 1126.98 1851.12 1124.67 1851.82 1119.46 1853.21 L 1118.35 1853.36 C 1115.24 1850.37 1075.26 1745.73 1074.45 1737.79 C 1074.55 1737.77 1075.52 1737.29 1076.88 1737.72 C 1078.42 1738.21 1083.62 1735.72 1085.65 1734.94 z" fill="rgb(13,150,104)" transform="translate(0,0)"></path>
<path d="M 1061.31 1767.03 L 1064.25 1767.27 C 1067.49 1770.29 1099.27 1856.61 1102.16 1865.42 C 1094.84 1868.55 1085 1871.35 1077.26 1873.8 L 1074.59 1873.29 C 1071.12 1870.87 1039.91 1788.04 1034.97 1776.92 C 1043.33 1771.86 1051.94 1769.89 1061.31 1767.03 z" fill="rgb(26,58,40)" transform="translate(0,0)"></path>
<path d="M 1057.53 1777.15 C 1059.33 1776.73 1058.47 1776.87 1060.55 1777.48 L 1080.93 1830.71 C 1084.03 1838.8 1090.16 1853.55 1091.77 1861.16 C 1089.37 1862.92 1082.54 1864.17 1079.24 1864.95 C 1075.6 1859.78 1064.21 1829.59 1061.21 1821.93 C 1055.81 1807.95 1049.93 1794.17 1043.57 1780.62 L 1057.53 1777.15 z" fill="rgb(13,150,104)" transform="translate(0,0)"></path>
<path d="M 1037.73 1816.37 L 1039.9 1816.3 C 1044.44 1818.81 1064.93 1870.46 1064.91 1876.83 C 1061.32 1880.06 1050.28 1882.72 1045.23 1884.23 C 1041.22 1884.96 1042.43 1885.3 1039.06 1883.99 C 1033.44 1878.52 1016.88 1833.1 1015.93 1824.7 C 1019.36 1821.26 1032.42 1817.95 1037.73 1816.37 z" fill="rgb(26,58,40)" transform="translate(0,0)"></path>
<path d="M 1036.05 1825.08 C 1040.7 1827.65 1053.59 1865.28 1056.37 1872.94 C 1053.01 1874.23 1048.76 1875.22 1045.22 1876.16 L 1043.45 1875.81 C 1038.99 1871.02 1028.35 1838.37 1024.22 1829.13 L 1036.05 1825.08 z" fill="rgb(13,150,104)" transform="translate(0,0)"></path>
<path d="M 1228.45 1726.49 C 1232.99 1727.99 1232.22 1727 1234.77 1730.18 C 1235.27 1733.44 1233.2 1742.48 1231.89 1745.75 C 1228.05 1755.41 1225.73 1790.28 1216.42 1793.21 C 1211.83 1792.18 1170.21 1762.6 1162.63 1757.49 C 1163.87 1778.52 1172.34 1822.09 1171.77 1840.31 C 1169.87 1843.48 1170.36 1842.5 1166.02 1844.17 C 1161.74 1839.42 1156.17 1763.54 1153.6 1751.79 C 1153.08 1749.41 1153.5 1746.92 1154.86 1744.83 C 1161.49 1745.19 1205.73 1776.34 1214.56 1782.39 C 1218.45 1767.72 1223.52 1738.71 1228.45 1726.49 z" fill="rgb(26,58,40)" transform="translate(0,0)"></path>
<path d="M 1130.47 1782.76 C 1134.92 1786.3 1155.66 1841.05 1156.19 1847.68 C 1154.17 1850.71 1154.52 1849.82 1150.37 1851.41 C 1148.35 1849.25 1126.66 1794.29 1124.41 1787.27 C 1126.18 1784.31 1127.09 1784.53 1130.47 1782.76 z" fill="rgb(26,58,40)" transform="translate(0,0)"></path>
<path d="M 1058.38 1568.04 L 1060.98 1567.95 C 1063.75 1570.42 1062.9 1568.95 1063.75 1572.44 C 1060.63 1576.61 1025.1 1586.69 1018.01 1589.02 L 919.877 1620.96 C 916.161 1621.14 916.031 1620.89 913.534 1618.38 L 913.615 1616.55 C 918.31 1611.31 1041.56 1573.36 1058.38 1568.04 z" fill="rgb(26,58,40)" transform="translate(0,0)"></path>
<path d="M 1092.78 1645.12 L 1094.54 1645.81 C 1096.8 1648.6 1096.29 1647.07 1096.35 1650.48 C 1093.98 1653.51 1063.94 1661.99 1058.45 1663.77 L 955.235 1696.91 C 952.13 1696.32 951.605 1695.35 950.796 1692.56 C 952.371 1690.2 952.55 1689.75 955.674 1688.64 C 972.791 1682.6 990.547 1677.28 1007.83 1671.87 C 1036.09 1662.78 1064.41 1653.86 1092.78 1645.12 z" fill="rgb(26,58,40)" transform="translate(0,0)"></path>
<path d="M 1069.78 1608.24 C 1070.76 1607.82 1072.39 1607.79 1073.53 1607.69 C 1076.73 1609.15 1075.57 1608.06 1077.33 1610.85 L 1076.83 1612.96 C 1072.15 1618.02 1053 1621.81 1045.49 1624.43 C 1010.89 1636.52 974.576 1645.52 940.137 1657.89 C 936.513 1658.9 935.649 1659.3 933.453 1656.21 L 934.028 1653.76 C 941.68 1646.63 1050.71 1615.44 1069.78 1608.24 z" fill="rgb(26,58,40)" transform="translate(0,0)"></path>
<path d="M 1180.89 1574.09 C 1183.89 1575.4 1184.22 1576.46 1184.77 1579.49 C 1184.28 1580.18 1183.79 1580.86 1183.3 1581.55 C 1160.44 1589.56 1120.25 1599.14 1098.78 1608.1 L 1096.08 1606.77 C 1094.88 1604.12 1095 1605.47 1095.82 1602.58 C 1102.03 1596.81 1167.46 1578.34 1180.89 1574.09 z" fill="rgb(26,58,40)" transform="translate(0,0)"></path>
<path d="M 1192.07 1614.15 C 1194.31 1613.71 1194.12 1613.87 1196.43 1614.03 C 1198.82 1616.75 1198.39 1615.27 1198.38 1618.39 C 1195.74 1621.99 1127.1 1641.71 1117.58 1645 C 1115.64 1645.23 1115.09 1645.03 1113.15 1644.74 L 1111.88 1642.67 L 1112.54 1640.29 C 1119.25 1634 1179.31 1617.55 1192.07 1614.15 z" fill="rgb(26,58,40)" transform="translate(0,0)"></path>
<path d="M 1162.67 1536.14 L 1165.01 1535.93 C 1167.99 1537.25 1166.9 1536.19 1168.21 1539.37 C 1164.31 1545.62 1099.69 1562.56 1087.59 1566.72 C 1083.96 1566.77 1084.08 1566.51 1082.31 1563.98 L 1082.88 1561.62 C 1088.75 1556.53 1150.28 1540.1 1162.67 1536.14 z" fill="rgb(26,58,40)" transform="translate(0,0)"></path>
<path d="M 977.003 1551.1 C 979.848 1552.55 979.686 1552.86 980.409 1555.49 C 977.69 1560.7 959.13 1565.12 952.962 1567.08 C 934.224 1572.89 915.526 1578.83 896.87 1584.9 C 894.636 1583.34 894.212 1582.31 894.286 1579.88 C 898.809 1575.2 965.581 1554.87 977.003 1551.1 z" fill="rgb(26,58,40)" transform="translate(0,0)"></path>
<path d="M 1370.43 962.448 C 1373.7 962.282 1375.3 961.767 1377.75 963.564 C 1379.31 969.16 1378.14 1007.36 1378.12 1016.4 C 1378.05 1083.77 1377.44 1151.13 1376.3 1218.49 L 1371.73 1927.14 C 1364.79 1927.18 1321.83 1927.56 1317.68 1926.31 C 1337.58 1917.69 1336.08 1919.46 1333.55 1898.89 C 1334 1898.53 1334.45 1898.16 1334.89 1897.79 C 1338.1 1895.09 1339.39 1894.2 1339.72 1890.61 C 1333.28 1862.87 1325.01 1841.31 1315.46 1814.69 C 1307.35 1791.94 1299.1 1769.24 1290.71 1746.59 C 1286.29 1735.02 1268.51 1694.38 1268.21 1685.06 C 1266.12 1620.15 1267.19 1554.76 1266.91 1489.74 L 1266.4 964.127 C 1299.44 964.047 1337.45 964.115 1370.43 962.448 z" fill="rgb(245,158,11)" transform="translate(0,0)"></path>
<path d="M 681.137 1437.46 C 701.078 1436.15 727.712 1436.85 747.931 1436.86 C 747.235 1499.24 747.207 1561.62 747.847 1624 L 748.069 1926.32 L 713.25 1925.99 C 688.217 1925.91 663.183 1926.01 638.151 1926.27 L 637.96 1437.91 C 652.225 1437.94 666.925 1438.18 681.137 1437.46 z" fill="rgb(245,158,11)" transform="translate(0,0)"></path>
<path d="M 1058.98 1134.83 C 1088.61 1137.19 1133.31 1135.99 1164.08 1135.97 L 1164.16 1332.95 C 1164.23 1359.21 1164.11 1385.47 1163.81 1411.73 C 1163.71 1423.84 1164.11 1443.24 1162.87 1454.86 L 1161.84 1455.67 L 1158.65 1452.73 C 1156.24 1452.05 1148.17 1455.11 1145.23 1456.07 C 1116.48 1462.95 1086.56 1474.48 1058.34 1480.86 C 1059.2 1365.52 1059.42 1250.17 1058.98 1134.83 z" fill="rgb(245,158,11)" transform="translate(0,0)"></path>
<path d="M 786.098 1190.49 C 788.918 1193.16 790.894 1195.89 793.462 1198.7 C 808.47 1215.13 823.407 1231.92 839.344 1247.43 C 838.42 1335.88 841.392 1425.14 840.446 1513.67 C 840.341 1523.5 841.316 1533.43 840.725 1543.28 C 840.443 1547.98 839.272 1547.76 835.739 1550.52 C 834.525 1556.14 843.606 1567.88 847.265 1574.05 C 840.827 1577.61 819.478 1585.83 818.461 1590.13 C 816.299 1599.26 836.032 1631.34 840.978 1640.96 C 839.596 1648.48 840.941 1692.17 840.926 1702.85 L 841.232 1889.75 L 841.953 1926.6 C 825.915 1926.05 809.862 1926.02 793.822 1926.51 C 794.244 1906.6 793.427 1884.62 793.296 1864.47 L 793.163 1757 L 791.775 1479.22 L 786.098 1190.49 z" fill="rgb(245,158,11)" transform="translate(0,0)"></path>
<path d="M 1208.17 905.802 C 1210.17 907.466 1223.17 922.599 1225.72 925.464 C 1236.19 937.144 1246.8 948.695 1257.55 960.116 C 1256.61 975.885 1257.29 999.13 1257.3 1015.36 L 1257.26 1120.61 L 1256.99 1487.72 L 1256.86 1596.31 C 1256.85 1611.56 1257.83 1641.96 1255.69 1655.55 L 1255.06 1654.68 C 1247.2 1637.12 1239.61 1616.49 1232.08 1598.49 C 1226.23 1584.51 1212.45 1555.29 1208.85 1541.84 C 1207.75 1537.74 1208.92 1500.01 1208.92 1492.73 C 1208.81 1447.04 1208.98 1401.35 1209.44 1355.66 L 1209.1 1102.67 C 1209.09 1038.68 1210.49 969.293 1208.17 905.802 z" fill="rgb(245,158,11)" transform="translate(0,0)"></path>
<path d="M 848.053 1250.02 C 884.449 1250.04 919.934 1250.67 956.571 1250.33 C 957.712 1282.79 956.49 1316.89 956.277 1349.49 L 955.812 1511.91 C 948.854 1514.34 940.886 1516.51 933.757 1518.62 L 849.332 1545.43 C 849.55 1446.96 849.123 1348.49 848.053 1250.02 z" fill="rgb(245,158,11)" transform="translate(0,0)"></path>
<path d="M 488.23 1674.47 L 538.353 1673.98 C 536.901 1740.72 538.792 1808.03 538.001 1874.81 C 537.806 1891.25 537.665 1910.02 539.149 1926.29 L 483.25 1925.99 C 465.35 1925.97 447.449 1926.06 429.55 1926.26 L 429.868 1768.17 C 429.889 1739.75 430.89 1702.44 429.151 1674.78 C 448.844 1674.91 468.539 1674.81 488.23 1674.47 z" fill="rgb(245,158,11)" transform="translate(0,0)"></path>
<path d="M 312.191 1002.82 C 354.972 1041.46 394.958 1100.1 412.94 1154.6 C 418.064 1170.13 421.337 1185.84 425.625 1201.64 C 403.567 1235.71 378.548 1280.05 358.163 1315.53 C 354.267 1322.29 348.562 1332.64 343.439 1338.22 C 335.424 1301.53 325.96 1268.37 315.885 1232.57 C 300.333 1177.41 283.412 1122.65 265.137 1068.34 C 269.544 1063.34 276.751 1052.52 281.037 1046.53 C 291.506 1032.02 301.891 1017.45 312.191 1002.82 z" fill="rgb(13,150,104)" transform="translate(0,0)"></path>
<path d="M 576.941 1380.39 C 583.432 1384.33 620.358 1427.13 629.206 1435.87 L 629.152 1744.66 L 629.239 1865.11 C 629.191 1884.38 629.673 1907.27 628.755 1926.31 C 612.888 1926.16 597.972 1926.07 582.089 1926.59 C 583.192 1910.15 582.725 1887.79 582.775 1870.93 C 582.868 1832.95 582.628 1794.96 582.055 1756.98 L 580.577 1574.27 C 579.425 1510.35 576.861 1444.14 576.941 1380.39 z" fill="rgb(245,158,11)" transform="translate(0,0)"></path>
<path d="M 1387.39 961.796 L 1412.08 962.386 C 1411.08 996.573 1411.76 1027.56 1411.57 1061.47 C 1410.74 1131.68 1410.26 1201.89 1410.13 1272.11 L 1406.11 1926.06 L 1404.13 1927.12 L 1379.12 1927.19 C 1381.76 1905.04 1380.56 1860.62 1380.56 1837.53 L 1381.31 1686.13 L 1386.43 1150.16 C 1386.92 1109.99 1387.08 1069.83 1386.91 1029.66 C 1386.9 1008.02 1386.28 982.983 1387.39 961.796 z" fill="rgb(13,150,104)" transform="translate(0,0)"></path>
<path d="M 171.576 1073.51 C 185.153 1079.82 204.817 1087.13 219.08 1093.12 C 232.456 1098.74 257.589 1109.87 270.857 1113.71 C 276.711 1132.97 323.572 1282.47 322.718 1292.69 L 320.79 1293.07 C 294.137 1283.9 268.741 1275.21 241.85 1266.83 C 222.43 1260.78 203.131 1253.16 183.378 1247.14 C 170.023 1209.66 165.015 1114.57 171.576 1073.51 z" fill="rgb(13,150,104)" transform="translate(0,0)"></path>
<path d="M 1000.07 1078.48 C 1005.43 1081.75 1045.1 1127.02 1050.03 1134.02 C 1048.37 1180.11 1049.38 1230.96 1049.37 1277.25 L 1049.22 1483.96 L 1038.25 1487.4 C 1025.46 1491.17 1012.64 1494.86 999.803 1498.48 C 998.341 1455.86 999.855 1402.78 999.858 1359.53 L 1000.07 1078.48 z" fill="rgb(245,158,11)" transform="translate(0,0)"></path>
<path d="M 849.147 1657.51 C 854.773 1661.71 949.176 1847.94 955.004 1869.48 C 956.133 1873.65 957.293 1922.72 954.715 1927.18 C 926.822 1924.99 879.322 1926.08 850.418 1926.53 C 850.688 1836.85 850.264 1747.18 849.147 1657.51 z" fill="rgb(245,158,11)" transform="translate(0,0)"></path>
<path d="M 185.153 1256.36 C 231.627 1272.48 278.265 1288.12 325.06 1303.28 C 330.912 1319.3 334.994 1339.75 339.249 1356.47 C 348.615 1393.26 356.04 1430.14 365.124 1467.03 C 353.065 1462.14 342.67 1457.3 331.389 1450.73 C 258.813 1407.87 206.216 1337.96 185.153 1256.36 z" fill="rgb(13,150,104)" transform="translate(0,0)"></path>
<path d="M 371.283 1621.73 C 387.05 1637.87 405.756 1655.79 420.696 1672.33 C 421.223 1755.87 419.965 1839.52 420.865 1923.15 C 420.815 1923.63 420.269 1924.77 420.054 1925.28 C 415.714 1926.75 380.635 1926.61 372.765 1926.79 L 371.759 1729.66 L 370.773 1662.64 C 370.59 1650.27 369.514 1633.38 371.283 1621.73 z" fill="rgb(245,158,11)" transform="translate(0,0)"></path>
<path d="M 756.3 1436.82 C 764.653 1437.02 773.769 1436.83 782.185 1436.82 C 784.369 1459.71 783.709 1505.54 783.821 1529.48 L 784.386 1693 C 784.914 1746.01 785.09 1799.02 784.913 1852.03 C 784.925 1873.4 786.088 1905.33 784.626 1926.03 L 756.922 1926.59 L 756.3 1436.82 z" fill="rgb(13,150,104)" transform="translate(0,0)"></path>
<path d="M 89.426 1541.86 C 113 1542.85 150.625 1548.01 175.495 1550.16 C 180.466 1556.14 185.655 1562.16 190.902 1567.89 C 215.702 1594.99 238.976 1622.8 262.388 1651.07 C 234.774 1651.4 202.918 1646.75 175.036 1646.06 C 165.15 1645.81 151.724 1644.16 142.188 1645.69 C 126.281 1625.84 110.125 1593.99 100.348 1570.53 C 96.3591 1560.96 94.8034 1550.64 89.426 1541.86 z" fill="rgb(13,150,104)" transform="translate(0,0)"></path>
<path d="M 427.486 1215.72 C 435.388 1286.56 426.725 1356.77 397.683 1422.31 C 391.029 1437.32 382.338 1451.54 373.965 1465.67 L 369.06 1444.6 C 362.122 1418.07 355.14 1374.94 346.965 1350.38 C 354.358 1340.14 363.845 1322.72 370.347 1311.51 L 399.833 1261.84 C 408.104 1247.64 418.379 1228.94 427.486 1215.72 z" fill="rgb(13,150,104)" transform="translate(0,0)"></path>
<path d="M 171.209 1453.32 C 207.602 1464.21 233.318 1481.18 262.617 1504.51 C 264.551 1542.87 263.909 1594.66 261.621 1632.71 L 260.891 1633.6 C 258.566 1633.06 187.816 1550.58 178.247 1540.72 C 174.775 1515.64 176.138 1474.63 171.209 1453.32 z" fill="rgb(13,150,104)" transform="translate(0,0)"></path>
<path d="M 271.099 1513.61 C 279.678 1517.38 303.695 1550.5 309.861 1560.63 C 344.901 1618.14 351.282 1673.86 335.199 1738.78 L 333.723 1742.41 L 332.639 1742.83 C 321.813 1727.08 312.087 1708.79 301.582 1692.66 C 291.624 1677.36 280.958 1662.39 270.472 1647.44 C 272.821 1608.68 273.391 1552.14 271.099 1513.61 z" fill="rgb(13,150,104)" transform="translate(0,0)"></path>
<path d="M 1173.65 1136.61 C 1181.77 1136.93 1191.81 1136.65 1200.08 1136.63 L 1200.01 1365.5 C 1199.7 1418.32 1198.14 1473.63 1200.62 1526.22 L 1199.62 1526.35 C 1192.7 1510.87 1181.21 1486.75 1172.43 1472.31 C 1173.31 1457.8 1172.42 1438.76 1172.39 1423.83 L 1172.81 1341.23 C 1173.01 1272.5 1174.6 1205.61 1173.65 1136.61 z" fill="rgb(13,150,104)" transform="translate(0,0)"></path>
<path d="M 394.462 1604.51 C 431.993 1603.93 469.53 1603.75 507.065 1603.98 C 523.092 1615.22 556.138 1649.3 570.703 1664.17 C 563.327 1664.3 555.653 1664.17 548.25 1664.16 C 513.526 1664.12 461.231 1662.59 427.975 1664.98 C 421.466 1659.95 371.887 1611.26 371.253 1606.55 L 372.228 1605.47 C 377.606 1604.16 388.524 1604.52 394.462 1604.51 z" fill="rgb(245,158,11)" transform="translate(0,0)"></path>
<path d="M 1343.73 893.524 L 1345.89 893.444 C 1352.58 896.386 1396.1 944.65 1403.84 952.909 C 1360.76 953.118 1317.39 954.996 1273.75 955.181 L 1264.87 955.163 C 1256.56 946.237 1218.79 905.884 1216.04 898.026 C 1219.74 895.142 1252.23 895.82 1259.5 895.64 C 1287.58 894.777 1315.65 894.071 1343.73 893.524 z" fill="rgb(245,158,11)" transform="translate(0,0)"></path>
<path d="M 833.628 1181.51 C 862.919 1180.75 896.506 1180.91 925.776 1181.41 C 943.706 1202.38 965.853 1220.82 983.743 1240.88 C 969.937 1240.68 955.661 1241 941.82 1241.12 L 845.743 1241.16 C 826.632 1223.3 809.025 1199.76 789.98 1181.81 L 833.628 1181.51 z" fill="rgb(245,158,11)" transform="translate(0,0)"></path>
<path d="M 579.925 1369.06 C 588.432 1369.91 601.8 1369.76 610.618 1369.86 C 630.565 1370.1 650.513 1370.11 670.46 1369.91 C 685.587 1369.65 700.472 1368.7 715.568 1369.55 C 722.1 1375.47 769.083 1424.41 769.437 1428.19 C 727.975 1426.42 677.871 1428.72 635.512 1428.58 C 619.832 1414.1 593.332 1385.73 579.925 1369.06 z" fill="rgb(245,158,11)" transform="translate(0,0)"></path>
<path d="M 1050.64 1069.5 C 1065.84 1069.21 1081.11 1069.54 1096.33 1069.54 C 1111.11 1069.54 1126.6 1068.76 1141.3 1069.62 C 1150.9 1080.57 1160.62 1091.81 1170.43 1102.55 C 1178.23 1111.1 1185.64 1118.13 1193.02 1127.22 C 1180.49 1125.6 1160.98 1126.3 1147.75 1126.4 C 1117.88 1127.13 1088.48 1126.06 1058.5 1127.14 C 1040.38 1108.75 1023.2 1088.96 1005.48 1069.99 C 1020.53 1069.93 1035.59 1069.76 1050.64 1069.5 z" fill="rgb(245,158,11)" transform="translate(0,0)"></path>
<path d="M 851.795 1582.99 C 856.256 1585.41 868.924 1611.68 871.832 1617.27 C 911.378 1692.89 944.898 1771.51 972.077 1852.39 C 979.403 1873.85 990.408 1904.67 995.016 1926.25 L 994 1925.93 C 992.283 1922.02 989.068 1916.64 986.904 1912.78 C 969.564 1881.92 955.404 1844.76 939.104 1812.25 C 915.921 1765.37 892.259 1718.74 868.12 1672.36 C 854.518 1646.28 840.229 1620.82 826.654 1594.44 C 834.884 1589.5 842.899 1586.33 851.795 1582.99 z" fill="rgb(13,150,104)" transform="translate(0,0)"></path>
<path d="M 182.019 1734.69 C 205.367 1739.22 248.491 1747.66 267.206 1765.86 C 268.822 1767.43 272.461 1781.27 272.618 1783.45 C 273.585 1796.87 291.614 1845.67 289.314 1855.38 L 287.621 1855.14 C 252.289 1832.3 215.761 1811.38 178.194 1792.44 C 179.608 1775.99 181.505 1750.92 182.019 1734.69 z" fill="rgb(13,150,104)" transform="translate(0,0)"></path>
<path d="M 206.746 946.467 C 217.504 952.542 260.475 1083.92 267.024 1103.08 C 259.299 1100.41 249.986 1096.48 242.249 1093.45 C 219.04 1083.99 196.252 1074.28 172.78 1065.4 C 175.005 1035.18 191.4 973.123 206.746 946.467 z" fill="rgb(13,150,104)" transform="translate(0,0)"></path>
<path d="M 183.953 1807.14 C 190.806 1807.04 280.804 1859.72 287.478 1866.16 C 266.125 1872.54 244.555 1877.56 222.24 1884.4 C 211.435 1887.65 205.437 1889.44 195.273 1894.27 C 163.95 1871.45 153.915 1860.32 128.833 1831.65 C 146.726 1823.61 165.923 1814.54 183.953 1807.14 z" fill="rgb(13,150,104)" transform="translate(0,0)"></path>
<path d="M 150.927 1654.08 C 186.692 1655.35 233.613 1657.65 268.796 1661.13 C 287.01 1687.3 307.197 1719.05 323.657 1746.14 C 269.282 1731.56 185.083 1701.43 150.927 1654.08 z" fill="rgb(13,150,104)" transform="translate(0,0)"></path>
<path d="M 965.706 1249.69 C 974.176 1249.66 982.646 1249.74 991.115 1249.92 L 990.552 1435.08 C 990.51 1447.2 991.414 1494.24 989.635 1501.82 L 987.798 1502.81 C 980.757 1504.89 971.325 1506.97 964.03 1508.85 C 963.919 1490.46 964.803 1471.5 964.965 1453 L 965.707 1341.57 C 966.097 1312.55 967.301 1278.25 965.706 1249.69 z" fill="rgb(13,150,104)" transform="translate(0,0)"></path>
<path d="M 548.635 1674.24 C 556.517 1673.83 564.838 1673.89 572.762 1673.81 C 571.876 1743.29 574.05 1813.19 573.74 1882.68 C 573.679 1896.42 574.604 1912.29 573.649 1925.83 L 571.927 1926.85 L 547.188 1926.79 C 549.17 1865.79 547.6 1799.32 547.855 1737.76 C 547.986 1723.96 547.968 1710.16 547.8 1696.37 C 547.714 1691.67 546.416 1677.54 548.635 1674.24 z" fill="rgb(13,150,104)" transform="translate(0,0)"></path>
<path d="M 447.369 1472.54 C 451.497 1476.2 484.204 1552.26 490.558 1565.64 C 486.905 1575.1 483.364 1585.81 479.939 1595.45 L 454.5 1595.18 C 440.304 1594.99 426.105 1595.12 411.914 1595.57 C 410.958 1549.49 424.087 1511.89 447.369 1472.54 z" fill="rgb(13,150,104)" transform="translate(0,0)"></path>
<path d="M 503.864 1412.87 C 507.296 1416.1 530.758 1457.43 535.652 1465.17 L 507.974 1526.63 C 505.441 1532.33 498.933 1551.36 494.755 1554.18 L 493.019 1551.48 C 479.651 1521.76 468.992 1493.7 454.135 1464.16 C 468.349 1442.76 484.706 1429.29 503.864 1412.87 z" fill="rgb(13,150,104)" transform="translate(0,0)"></path>
<path d="M 278.817 1770.6 C 294.576 1778.37 330.447 1815.73 342.088 1831.09 C 347.824 1838.66 357.415 1853.75 363.909 1859.92 L 364.24 1907.71 C 344.291 1895.85 325.53 1876.99 302.029 1865.1 C 298.377 1849.22 294.528 1833.39 290.485 1817.6 C 286.654 1803.15 281.26 1785.03 278.817 1770.6 z" fill="rgb(13,150,104)" transform="translate(0,0)"></path>
<path d="M 295.594 1873.04 C 301.288 1873.31 362.778 1916.52 363.125 1920.39 C 355.883 1925.75 289.078 1925.31 277.939 1923.34 C 248.531 1921.46 228.813 1913.49 203.667 1899.44 C 234.169 1888.33 265.004 1882.4 295.594 1873.04 z" fill="rgb(13,150,104)" transform="translate(0,0)"></path>
<path d="M 570.013 1542.23 C 570.902 1543.99 572.042 1640.17 572.39 1654.05 C 558.79 1639.53 546.042 1627.08 531.647 1613.32 C 525.251 1607 517.88 1599.57 510.214 1594.95 C 503.384 1594.81 496.552 1594.71 489.72 1594.66 C 491.184 1585.13 495.472 1576.48 499.352 1567.69 C 522.447 1559.65 548.054 1552.41 570.013 1542.23 z" fill="rgb(13,150,104)" transform="translate(0,0)"></path>
<path d="M 215.032 940.924 C 242.706 944.153 283.904 980.109 306.007 996.969 C 297.405 1008.24 288.543 1021.12 280.199 1032.72 C 273.961 1041.26 267.978 1050.86 261.681 1059.68 C 252.028 1034.03 243.801 1007.38 233.402 981.701 C 228.228 968.922 219.269 953.069 215.032 940.924 z" fill="rgb(13,150,104)" transform="translate(0,0)"></path>
<path d="M 568.087 1418.58 C 569.675 1421.75 569.506 1519.53 570.11 1533.23 C 547.845 1541.33 528.114 1548.7 505.424 1556.03 L 504.718 1555.38 C 505.288 1549.9 561.248 1431.93 568.087 1418.58 z" fill="rgb(13,150,104)" transform="translate(0,0)"></path>
<path d="M 84.3387 1435.25 C 109.187 1436.31 141.31 1440.43 163.961 1450.92 C 163.577 1467.59 165.987 1486.07 167.005 1502.79 C 167.356 1508.54 169.622 1524.64 168.638 1529.35 L 167.268 1529.41 C 155.904 1518.7 143.786 1503.93 132.713 1492.38 C 115.789 1474.72 96.6769 1456.28 80.6585 1437.99 L 80.8644 1436.99 L 84.3387 1435.25 z" fill="rgb(13,150,104)" transform="translate(0,0)"></path>
<path d="M 74.0583 1445.46 C 78.8838 1447.45 155.656 1530.43 165.417 1541.11 L 87.7578 1532.87 C 80.1433 1502.35 74.5791 1476.81 74.0583 1445.46 z" fill="rgb(13,150,104)" transform="translate(0,0)"></path>
<path d="M 140.524 1733.4 C 151.47 1732.44 162.912 1733.25 173.85 1734.09 C 172.246 1747.2 170.08 1775.51 169.869 1788.18 C 162.259 1783.17 149.461 1776.64 141.153 1772.09 C 126.27 1763.48 103.484 1752.5 87.6955 1744.6 C 105.028 1737.56 122.006 1734.54 140.524 1733.4 z" fill="rgb(13,150,104)" transform="translate(0,0)"></path>
<path d="M 82.8441 1752.48 C 85.8416 1753.45 108.121 1765.31 111.67 1767.26 C 132.051 1778.49 155.238 1789.33 174.825 1801.49 L 159.737 1807.56 C 147.939 1813.08 135.853 1819.38 123.808 1824.16 C 108.168 1802.96 91.5361 1777.41 82.8441 1752.48 z" fill="rgb(13,150,104)" transform="translate(0,0)"></path>
<path d="M 567.026 1373.87 L 568.085 1374.31 C 569.286 1377.7 568.963 1396.76 568.98 1401.65 C 558.877 1417.34 548.586 1438.9 539.967 1455.8 L 531.063 1440.2 C 524.872 1429.38 517.932 1418.19 511.513 1407.44 C 530.266 1394.67 546.542 1383.65 567.026 1373.87 z" fill="rgb(13,150,104)" transform="translate(0,0)"></path>
<path d="M 1324.7 1901.1 C 1327.65 1903.97 1328.36 1908.75 1326.77 1912.48 C 1319.73 1915.9 1291.01 1925.42 1283.25 1926.91 C 1277.75 1927.97 1253.61 1928.11 1246.75 1928.19 L 1244.9 1927.96 L 1244.23 1927.02 C 1247.62 1925.22 1264.69 1920.53 1269.56 1919.11 C 1288.79 1913.48 1306.09 1908.79 1324.7 1901.1 z" fill="rgb(13,150,104)" transform="translate(0,0)"></path>
<path d="M 965.175 1887.92 C 969.421 1895.26 979.047 1918 983.236 1926.95 L 964.904 1926.97 C 964.914 1913.95 965.004 1900.93 965.175 1887.92 z" fill="rgb(13,150,104)" transform="translate(0,0)"></path>
<path d="M 640.854 324.991 C 653.53 328.685 675.85 329.999 687.984 335.562 C 712.347 401.618 777.239 438.336 837.932 466.724 C 852.479 473.529 879.115 482.154 890.385 488.501 C 891.699 492.174 878.83 523.577 876.741 529.043 C 866.072 557.433 854.613 585.52 842.377 613.271 C 780.235 752.839 698.158 889.196 563.134 968.563 C 557.663 971.779 552.178 974.95 546.66 978.084 C 514.088 993.105 471.672 1012.7 434.862 1004.83 C 422.416 1002.53 417.237 995.392 411.063 985.066 C 320.926 834.305 312.389 650.773 353.472 483.26 C 362.295 447.286 372.291 405.739 386.784 371.624 C 387.9 368.996 420.889 371.741 424.574 371.954 C 460.673 374.357 496.929 372.462 532.581 366.31 C 566.825 360.417 611.272 343.24 640.854 324.991 z" fill="rgb(26,58,40)" transform="translate(0,0)"></path>
<path d="M 641.884 334.866 C 643.64 336.224 648.109 346.509 649.628 349.717 C 684.593 423.591 764.683 467.351 840.545 491.674 C 834.756 507.956 829.789 524.844 823.945 540.995 C 764.771 704.532 669.764 884.641 507.398 963.968 C 478.963 977.959 455.629 985.375 424.963 991.613 C 418.266 980.949 411.913 970.072 405.914 959 C 380.157 909.962 361.645 857.448 350.959 803.098 C 319.254 648.535 347.116 526.105 391.885 378.519 C 406.789 377.921 432.25 382.065 449.406 381.728 C 503.882 380.658 555.136 376.255 605.41 353.483 C 617.844 347.851 629.936 341.194 641.884 334.866 z" fill="rgb(13,150,104)" transform="translate(0,0)"></path>
<path d="M 632.043 367.086 C 633.378 367.879 648.822 394.215 652.705 399.141 C 666.593 416.537 682.408 432.301 699.849 446.132 C 723.701 464.984 749.434 480.331 777.605 491.756 C 785.155 494.818 807.083 502.221 812.367 506.974 C 813.261 513.574 804.127 535.032 801.422 542.155 C 793.395 563.714 784.743 585.035 775.479 606.092 C 717.985 739.47 641.545 866.162 511.495 939.139 C 481.454 954.017 467.42 959.293 434.871 965.586 C 411.462 938.921 397.459 900.36 385.878 867.646 C 342.371 744.747 349.795 604.009 379.947 478.903 C 383.878 462.592 394.13 419.147 400.962 405.225 C 420.488 404.165 447.359 406.647 469.172 405.932 C 510.455 404.946 551.31 397.317 590.167 383.338 C 604.359 378.306 617.803 372.083 632.043 367.086 z" fill="rgb(26,58,40)" transform="translate(0,0)"></path>
<path d="M 628.036 377.996 C 630.648 380.067 643.293 400.972 646.388 405.15 C 679.1 449.302 750.424 498.758 803.297 510.907 C 798.215 521.733 793.479 536.415 789.26 547.997 C 782.94 565.483 776.079 582.769 768.688 599.829 C 718.807 713.891 653.034 829.664 550.149 904.231 C 541.968 910.161 533.452 915.927 524.599 920.812 C 504.583 935.268 474.974 947.22 450.929 953.149 C 446.783 947.896 440.501 935.918 437.367 929.734 C 356.304 769.777 372.682 579.258 425.992 413.747 C 445.762 413.902 463.037 414.726 483.11 413.848 C 533.305 411.532 582.551 399.349 628.036 377.996 z" fill="rgb(13,150,104)" transform="translate(0,0)"></path>
<path d="M 640.759 538.078 C 646.841 539.85 667.476 541.721 670.768 546.093 C 682.843 562.129 693.656 583.935 703.388 601.51 C 699.958 606.077 696.009 610.274 692.331 614.679 C 651.252 663.864 610.251 713.256 569.721 762.884 C 559.592 775.287 546.965 789.316 538.414 802.496 C 526.346 802.08 514.287 801.462 502.24 800.641 C 496.494 793.809 488.099 780.461 482.867 772.618 C 468.673 749.687 444.859 716.888 433.292 695.555 C 449.663 675.436 464.911 654.929 480.915 634.532 C 491.35 636.278 500.792 638.206 511.136 640.456 C 518.093 652.409 524.794 664.51 531.233 676.75 C 566.633 631.669 603.947 581.411 640.759 538.078 z" fill="rgb(26,58,40)" transform="translate(0,0)"></path>
<path d="M 639.272 553.705 C 649.588 567.944 658.953 587.275 668.872 599.237 C 663.604 604.405 655.247 615.394 650.144 621.458 L 603.842 677.485 C 573.09 714.717 536.825 755.575 507.84 792.998 C 495.014 775.604 483.577 755.655 470.979 737.606 C 463.262 727.489 451.005 707.431 443.859 696.261 C 456.397 681.399 468.371 666.069 479.756 650.306 C 492.346 666.611 501.594 689.427 514.44 705.129 C 515.557 706.494 516.107 705.991 518.14 705.822 C 522.391 702.508 542.922 675.452 547.618 669.58 C 572.004 639.561 595.95 609.187 619.448 578.468 C 625.65 570.407 633.737 561.455 639.272 553.705 z" fill="rgb(245,158,11)" transform="translate(0,0)"></path>
<path d="M 676.348 605.096 L 689.608 604.643 C 678.472 619.442 661.459 637.337 649.285 652.241 C 610.372 699.88 571.721 746.06 533.282 794.175 L 517.531 793.86 C 535.004 775.233 547.984 757.678 563.951 738.405 L 631.618 657.72 C 645.634 640.722 661.175 620.769 676.348 605.096 z" fill="rgb(13,150,104)" transform="translate(0,0)"></path>
<path d="M 487.157 644.521 C 493.916 645.1 500.607 647.311 506.961 649.517 C 512.341 658.721 520.704 672.515 524.642 682.644 C 525.437 684.689 521.87 688.295 520.195 690.463 C 518.898 692.441 519.05 692.672 516.919 693.514 C 511.044 687.092 492.576 653.88 487.157 644.521 z" fill="rgb(13,150,104)" transform="translate(0,0)"></path>
<path d="M 645.742 548.502 L 664.19 551.688 C 671.087 560.593 685.122 586.17 690.461 596.933 C 685.842 596.961 681.459 596.397 676.868 595.927 C 666.632 578.975 656.707 564.874 645.742 548.502 z" fill="rgb(13,150,104)" transform="translate(0,0)"></path>
<path d="M 407.59 413.273 C 411.552 413.337 412.554 412.656 415.289 414.694 C 414.94 418.398 407.564 442.407 406.123 447.56 C 401.004 466.509 396.259 485.557 391.89 504.693 C 372.833 591.152 364.959 711.397 383.177 797.985 C 391.004 835.249 402.47 871.655 417.41 906.678 C 420.912 914.998 441.01 952.268 441.069 955.993 C 431.753 953.91 417.917 923.971 413.861 915.187 C 356.065 790.046 354.023 649.797 380.743 516.574 C 387.498 482.892 395.775 445.552 407.59 413.273 z" fill="rgb(13,150,104)" transform="translate(0,0)"></path>
<path d="M 871.406 493.427 C 874.572 493.146 876.691 492.689 879.697 493.595 C 878.107 503.511 860.71 545.826 856.032 557.426 C 795.412 707.74 712.392 863.845 571.871 953.266 C 538.065 974.779 490.579 998.027 451.756 998.761 L 436.883 997.393 C 452.752 994.218 468.345 989.797 483.52 984.172 C 514.96 972.343 539.896 957.514 567.4 938.825 C 684.206 859.455 759.399 726.146 812.28 598.171 C 820.876 577.368 828.88 554.458 836.579 533.219 C 840.871 521.382 845.094 506.16 850.212 495.149 L 850.768 493.969 C 858.076 494.048 864.162 493.816 871.406 493.427 z" fill="rgb(13,150,104)" transform="translate(0,0)"></path>
<path d="M 652.795 336.528 C 660.196 337.371 672.964 339.9 680.313 341.493 C 701.055 398.957 762.586 439.478 814.988 465.667 C 821.979 469.162 852.934 481.026 856.142 483.842 C 849.226 485.617 841.931 484.367 835.326 481.786 C 752.861 449.568 693.99 417.638 652.795 336.528 z" fill="rgb(13,150,104)" transform="translate(0,0)"></path>
<path d="M 1125.86 119.127 C 1147.6 119.971 1165.57 120.909 1187.12 125.682 C 1211.4 131.058 1219.52 132.443 1212.71 160.016 C 1210.65 168.321 1208.14 177.467 1205.76 185.867 C 1216.51 190.216 1223.45 195.705 1232.84 202.403 C 1237.78 196.062 1242.91 189.868 1248.22 183.826 C 1253.07 178.299 1260.54 168.801 1268.05 168.321 C 1283.38 173.261 1310.89 219.882 1320.57 233.623 C 1331.98 249.821 1320.58 256.484 1307.86 265.126 C 1300.5 270.122 1292.85 274.949 1284.78 279.33 C 1287.18 286.187 1288.97 293.608 1290.82 300.658 C 1300.32 302.89 1338.92 307.942 1340.91 315.532 C 1344.51 329.25 1334.42 380.313 1332.35 397.163 C 1331.94 400.481 1328.57 407.112 1326.3 407.98 C 1317.57 411.324 1287.03 403.252 1278.26 400.649 C 1273.95 409.636 1270.11 417.711 1264.38 425.901 C 1270.55 432.218 1278.17 440.091 1284.91 445.928 C 1310.19 467.814 1275.98 486.383 1259.22 501.792 C 1217.14 540.485 1216.94 521.145 1191.4 484.698 C 1184.18 487.767 1176.36 489.191 1168.66 491.544 C 1167.28 504.8 1166.17 524.952 1161.71 537.185 C 1161.09 538.876 1157.46 542.16 1155.96 543.527 C 1139.44 546.997 1075.59 537.559 1064.22 526.064 C 1061.21 517.647 1068.4 489.37 1070.4 480.119 C 1068.75 479.048 1055.37 470.111 1054.26 470.781 C 1039.09 479.895 1024.38 490.23 1008.04 497.162 C 994.503 487.726 975.331 459.645 965.825 445.082 C 962.279 439.649 953.36 425 955.734 419.126 C 959.702 409.308 983.264 395.962 992.203 390.608 C 989.752 383.237 987.165 372.013 985.168 364.27 C 976.569 363.315 937.367 360.035 934.998 351.67 C 928.174 327.58 936.243 294.971 941.985 270.993 C 942.937 267.019 946.391 258.923 950.432 257.257 C 961.431 253.333 984.316 262.16 994.88 265.818 C 998.044 257.868 1003.91 248.641 1008.7 241.507 C 997.032 228.716 985.173 217.313 976.723 202.178 C 982.384 182.207 1033.03 144.993 1053.44 140.993 C 1062.71 139.175 1078.87 172.005 1085.39 178.803 C 1096.2 175.755 1104.72 173.397 1115.78 171.619 C 1115.41 160.559 1114.35 149.913 1113.65 138.903 C 1112.91 127.431 1114.95 122.342 1125.86 119.127 z" fill="rgb(26,58,40)" transform="translate(0,0)"></path>
<path d="M 1125.95 182.536 C 1209.13 175.967 1281.72 238.432 1287.64 321.659 C 1293.55 404.887 1230.52 476.992 1147.25 482.253 C 1064.9 487.455 993.763 425.269 987.913 342.962 C 982.064 260.654 1043.69 189.032 1125.95 182.536 z" fill="rgb(13,150,104)" transform="translate(0,0)"></path>
<path d="M 1126.59 210.426 C 1193.53 203.959 1253 253.092 1259.27 320.052 C 1265.54 387.012 1216.23 446.331 1149.25 452.404 C 1082.55 458.451 1023.53 409.392 1017.29 342.711 C 1011.04 276.029 1059.93 216.867 1126.59 210.426 z" fill="rgb(26,58,40)" transform="translate(0,0)"></path>
<path d="M 1126.9 219.043 C 1189.28 212.776 1244.8 258.604 1250.47 321.048 C 1256.13 383.492 1209.77 438.566 1147.28 443.632 C 1085.63 448.628 1031.46 403.03 1025.87 341.43 C 1020.28 279.831 1065.35 225.226 1126.9 219.043 z" fill="rgb(242,234,212)" transform="translate(0,0)"></path>
<path d="M 1188.66 270.083 L 1199.21 271.122 C 1213.1 282.105 1215.42 289.995 1203.8 304.601 C 1183.48 330.796 1160.14 356.287 1140.58 382.953 C 1112.65 421.022 1098.95 383.119 1082.82 360.039 C 1074.44 347.726 1065.5 337.328 1060.37 323.445 C 1062.21 308.513 1065.42 306.564 1078.79 300.813 C 1086.78 302.298 1091.74 303.749 1097.17 310.398 C 1105.87 321.058 1113.63 332.677 1121.82 343.803 C 1129.84 332.549 1141.1 320.535 1150.01 309.482 C 1159.37 297.868 1168.46 284.598 1178.93 274.25 C 1181.18 272.026 1185.56 270.937 1188.66 270.083 z" fill="rgb(26,58,40)" transform="translate(0,0)"></path>
<path d="M 1186.47 278.947 C 1200.2 279.174 1207.24 287.413 1197.64 299.439 C 1187.62 311.994 1176.82 324.178 1166.66 336.741 C 1158.08 347.315 1149.57 357.944 1141.12 368.629 C 1116.42 400.172 1117.97 396.836 1095.38 362.966 C 1092.04 357.966 1088.68 352.864 1085.2 347.954 C 1075.78 334.245 1056.87 320.019 1080.17 309.024 C 1098.78 318.095 1108.87 346.643 1120.38 354.381 C 1122.2 354.234 1123.65 354.408 1125.01 352.831 C 1140.52 334.901 1155.09 316.026 1170.19 297.714 C 1175.13 291.716 1180 284.968 1185.66 279.692 L 1186.47 278.947 z" fill="rgb(13,150,104)" transform="translate(0,0)"></path>
<path d="M 1050.63 148.624 C 1060.02 151.126 1071.01 173.963 1076 182.833 C 1061.42 189.851 1049.29 198.732 1037.02 209.249 C 1032.18 213.397 1016.5 231.849 1013.06 233.687 C 1004.05 223.381 993.085 211.76 984.704 201.313 C 999.374 181.788 1031.08 162.709 1050.63 148.624 z" fill="rgb(13,150,104)" transform="translate(0,0)"></path>
<path d="M 953.66 263.533 C 962.469 264.268 982.893 270.227 991.757 272.768 C 985.434 291.999 981.531 310.218 981.206 330.739 C 981.091 338.021 983.517 349.066 982.533 355.873 C 974.14 355.27 949.694 350.568 942.15 347.737 C 940.773 327.531 945.35 281.327 953.66 263.533 z" fill="rgb(13,150,104)" transform="translate(0,0)"></path>
<path d="M 1292.1 309.545 C 1305.84 312.105 1320.17 315.605 1333.88 317.573 C 1333.22 328.483 1326.19 395.267 1321.64 400.973 C 1312.87 400.84 1293.16 395.355 1281.27 393.876 C 1290.93 362.362 1294.78 342.954 1292.1 309.545 z" fill="rgb(13,150,104)" transform="translate(0,0)"></path>
<path d="M 1123.18 128.492 C 1134.07 127.476 1195.47 132.104 1204.83 141.241 C 1208.36 144.679 1201.23 171.542 1199.3 179.74 L 1199.02 180.455 C 1196.27 181.514 1177.35 172.995 1171.73 172.097 C 1155.92 169.566 1140.87 170.236 1125.02 169.33 C 1123.4 163.44 1121.28 132.317 1123.18 128.492 z" fill="rgb(13,150,104)" transform="translate(0,0)"></path>
<path d="M 995.348 397.883 C 1013.32 430.478 1016.32 438.852 1046.7 464.612 C 1035.37 471.962 1023.96 479.183 1012.46 486.273 C 1011.29 486.859 1011.27 486.552 1009.57 486.446 C 997.05 477.913 971.849 437.229 962.824 422.888 C 971.237 415.13 985.563 405.526 995.348 397.883 z" fill="rgb(13,150,104)" transform="translate(0,0)"></path>
<path d="M 1266.33 176.658 C 1274.26 180.005 1316.85 239.953 1315.58 246.575 C 1311.38 253.888 1295.19 263.228 1287.55 267.99 C 1285.83 269.178 1284.95 269.249 1282.93 269.8 C 1281.08 268.421 1274.02 252.468 1272.35 249.132 C 1263.75 231.913 1253.87 220.061 1239.25 207.747 C 1248.58 196.935 1257.21 188.188 1266.33 176.658 z" fill="rgb(13,150,104)" transform="translate(0,0)"></path>
<path d="M 1260.37 432.7 C 1267.13 439.232 1284.67 456.707 1285.15 465.389 C 1281.71 472.343 1234.93 511.616 1226.85 514.981 C 1226.25 514.888 1225.65 514.783 1225.05 514.665 C 1218 513.217 1204.76 489.226 1199.51 481.253 C 1224.96 471.16 1243.28 453.225 1260.37 432.7 z" fill="rgb(13,150,104)" transform="translate(0,0)"></path>
<path d="M 1078.99 484.577 C 1083.16 485.486 1091.8 488.738 1096.99 490.066 C 1120.95 496.2 1134.89 496.2 1159.16 493.749 C 1158.28 503.297 1157.41 528.114 1154.05 535.657 C 1131.88 538.371 1093.22 529.594 1071.93 521.683 C 1073.54 509.019 1075.31 496.835 1078.99 484.577 z" fill="rgb(13,150,104)" transform="translate(0,0)"></path>
<path d="M 1452.53 470.861 C 1454.63 471.219 1453.85 470.998 1455.72 472.22 L 1456.13 474.403 C 1455.01 478.959 1452.54 481.632 1450.19 485.533 C 1415.54 543.008 1384.53 602.487 1351.51 660.885 C 1344.56 673.162 1338.84 686.036 1329.99 697.133 C 1321.17 687.669 1307.26 668.081 1300.47 657.28 C 1289.9 666.594 1263.51 697.727 1252.72 710.141 C 1201.71 768.859 1153.75 830.866 1105.73 891.979 C 1088.78 913.547 1052.08 965.473 1033.62 981.765 C 1026.92 983.334 894.48 922.55 875.376 914.687 C 868.687 924.22 852.658 941.667 844.624 950.729 L 785.067 1017.18 C 737.86 1070.33 691.554 1124.27 646.169 1178.98 C 614.097 1217.91 582.627 1257.32 551.769 1297.21 C 540.204 1312.18 528.225 1330.11 516.18 1344.68 C 509.571 1352.67 496.519 1345.3 490.324 1338.64 C 483.378 1328.14 489.151 1320.75 495.493 1311.82 C 582.089 1190 678.938 1077.61 779.56 967.334 L 839.962 900.552 C 848.478 891.209 857.988 879.982 866.828 871.318 C 880.075 875.682 899.753 885.163 913.32 890.967 C 950.711 906.963 987.07 923.889 1024.64 939.709 C 1043.05 912.77 1066.93 882.064 1086.95 856.143 C 1126.35 804.424 1167.2 753.824 1209.45 704.403 C 1228.69 681.464 1252.82 655.675 1270.76 632.843 C 1255.61 626.341 1236.24 619.262 1222.26 611.559 C 1233.6 603.153 1246.04 596.337 1257.97 588.836 C 1291.37 567.926 1325.35 548.078 1358.73 527.116 C 1389.56 507.754 1421.92 490.587 1452.53 470.861 z" fill="rgb(26,58,40)" transform="translate(0,0)"></path>
<path d="M 1409.37 508.003 L 1410.09 508.279 C 1410.27 506.242 1319.74 599.505 1312.53 609.051 C 1309.53 613.023 1308.93 611.842 1309.4 617.847 C 1311.41 620.905 1310.49 620.488 1313.35 621.622 C 1337.44 597.043 1359.88 570.706 1384.6 546.537 C 1397 534.414 1409.75 520.398 1423.87 510.22 L 1425.09 509.348 C 1392.03 565.437 1361.02 626.303 1329.23 683.321 C 1320.04 671.511 1309.64 656.092 1301.51 643.731 C 1278.58 666.861 1257.9 691.475 1236.53 715.93 C 1164.02 798.902 1100.03 888.688 1030.86 974.072 C 1015.3 964.896 974.736 948.497 956.07 940.509 C 932.448 930.4 896.988 913.345 873.684 905.134 C 779.121 1008.59 687.511 1114.7 598.963 1223.35 C 569.575 1257.11 541.758 1296.05 515.875 1332.57 C 510.022 1340.83 499.327 1341.27 496.259 1331.02 C 496.97 1323.76 515.967 1298.85 521.222 1291.62 C 605.589 1175.52 699.899 1065.69 797.773 960.819 C 821.807 935.068 845.033 907.596 869.489 881.679 C 922.049 901.507 974.311 930.092 1027.06 950.12 C 1071.72 889.372 1117.79 829.668 1165.23 771.057 C 1185.46 746.401 1206.15 721.267 1226.77 696.946 C 1246.15 674.081 1266.83 651.763 1285.63 628.337 C 1272.38 622.476 1253.27 616.503 1238.91 610.8 C 1271.07 590.501 1303.88 571.086 1336.52 551.579 C 1360.98 536.957 1384.3 521.785 1409.37 508.003 z" fill="rgb(13,150,104)" transform="translate(0,0)"></path>
<metadata><recraft-signature>{"signed_by": "recraft", "signature_b64": "Jo7F0WW/dmYtf0g+x6ysRFnZluoxeCEl/ZfzOdRLt1+Tr5DFYYnfQFd0AfkJMMJREt1Wv3kjj+ZL3iayoZOJCA==", "signing_algo": "Ed25519", "generation_timestamp": 1780383799, "identifier": "7c5ed2b0-70d8-47f8-8279-81ad4a22b8c2"}</recraft-signature></metadata></svg>